<svg xmlns="http://www.w3.org/2000/svg" width="46" height="46" viewBox="0 0 46 46">
  <g fill="none" fill-rule="evenodd">
    <circle cx="23" cy="23" r="23" fill="#AED055"/>
    <path fill="#FFF" d="M7.34649645 3.69208539C7.34649645 1.65405426 5.70088124 0 3.67324822 0 1.6456152 0 0 1.65405426 0 3.69208539 0 5.73011653 1.6456152 7.38417079 3.67324822 7.38417079 5.70088124 7.38417079 7.34649645 5.73011653 7.34649645 3.69208539zM13.7746808 5.53812809C15.2954056 5.53812809 16.529617 4.2975874 16.529617 2.76906404 16.529617 1.24054069 15.2954056 0 13.7746808 0 12.2539561 0 11.0197447 1.24054069 11.0197447 2.76906404 11.0197447 4.2975874 12.2539561 5.53812809 13.7746808 5.53812809zM22.9578014 1.8460427C21.4370766 1.8460427 20.2028652 3.08658339 20.2028652 4.61510674 20.2028652 6.14363009 21.4370766 7.38417079 22.9578014 7.38417079 24.4785262 7.38417079 25.7127376 6.14363009 25.7127376 4.61510674 25.7127376 3.08658339 24.4785262 1.8460427 22.9578014 1.8460427zM13.5763254 7.4192456C11.36503 7.38417079 8.84885497 7.72753473 6.83407832 9.52188823 4.81746504 11.3162417 5.06908255 15.7984334 7.91952317 17.0038993 10.7718004 18.2075191 11.3999259 20.2898553 10.6358902 22.8816992 9.8718546 25.4735432 11.1758577 27.6906404 14.4358655 27.6906404 20.0559353 27.6906404 22.0394893 22.398036 22.0394893 16.4685469 22.0394893 10.0203198 19.5178044 7.50970169 13.5763254 7.4192456z" transform="translate(10 9)"/>
  </g>
</svg>
