<svg xmlns="http://www.w3.org/2000/svg" xmlns:xlink="http://www.w3.org/1999/xlink" width="154" height="132" viewBox="0 0 154 132">
  <defs>
    <filter id="empty-a" width="175%" height="220%" x="-37.5%" y="-60%" filterUnits="objectBoundingBox">
      <feGaussianBlur in="SourceGraphic" stdDeviation="2"/>
    </filter>
    <filter id="empty-b" width="169.9%" height="211.8%" x="-34.9%" y="-55.9%" filterUnits="objectBoundingBox">
      <feGaussianBlur in="SourceGraphic" stdDeviation="1.864"/>
    </filter>
    <polygon id="empty-c" points="23.237 15.49 23.237 .104 .152 .104 .152 15.49 23.237 15.49"/>
  </defs>
  <g fill="none" fill-rule="evenodd" transform="translate(2 2)">
    <path fill="#D9D9D9" stroke="#999" stroke-width="4" d="M3.16929491e-06,63.9952833 C-0.0110006867,99.3337807 28.6336084,127.989781 63.9795659,127.999996 C99.3255233,128.011783 127.988996,99.373071 128,64.0353595 L128,63.9952833 C128.004716,28.6575718 99.3561769,0.00550064445 64.0102195,0 C28.664262,-0.00550064445 0.00550509729,28.6371408 3.16929491e-06,63.9748524 L3.16929491e-06,63.9952833 Z"/>
    <circle cx="59.5" cy="59.5" r="56.5" fill="#FFF"/>
    <path fill="#FFF" d="M42.0000018,12.4984449 C41.9952454,16.0877881 51.1688949,18.9984445 62.4908844,18.9999994 C73.8120811,19.0015542 82.9944508,16.09323 83,12.5038868 L83,12.4984449 C83,8.90910164 73.821594,6 62.4996046,6 C51.1784078,6 42.0000018,8.90910164 42.0000018,12.4984449"/>
    <path fill="#666" d="M27 58.5C27 61.5381419 29.4624917 64 32.4995919 64 35.5375083 64 38 61.5381419 38 58.5 38 55.4618581 35.5375083 53 32.4995919 53 29.4624917 53 27 55.4618581 27 58.5M63.0157194 100C55.3022728 100 47.9630097 96.5567174 43.3818543 90.806913 42.8201801 90.0948091 42.8832089 89.0257849 43.5374317 88.4152861 44.1916545 87.8047873 45.1737866 87.872524 45.734663 88.5846279 49.7238265 93.6058285 56.1902606 96.6079541 62.9997628 96.6079541 69.8252216 96.6079541 76.2764969 93.6058285 80.2656604 88.5846279 80.8265368 87.872524 81.8086689 87.8047873 82.4628917 88.4152861 83.1171145 89.0257849 83.1793454 90.0948091 82.618469 90.806913 78.0684291 96.5740857 70.729166 100 63.0157194 100"/>
    <path fill="#FBAF8E" d="M20.0000013,76.9991631 C19.9975139,79.7601197 23.5769301,81.9991627 27.9954404,81.9999991 C32.4139506,82.0016719 35.9975126,79.7659745 36,77.0050179 L36,76.9991631 C36,74.2382065 32.4180964,72 27.9995861,72 C23.5819049,72 20.0000013,74.2382065 20.0000013,76.9991631" filter="url(#empty-a)"/>
    <path fill="#FCAF8E" d="M91.0000013,77 C90.9975139,79.7604945 94.5769298,81.9991628 98.9962689,81.9999991 C103.41395,82.0016716 106.997511,79.7663484 106.999999,77.0058538 L106.999999,77 C107.002486,74.2395055 103.422241,72.0008372 99.0037311,72.0000009 C94.5860504,71.9983284 91.0024887,74.2336516 91.0000013,76.9941462 L91.0000013,77 Z" filter="url(#empty-b)"/>
    <path fill="#666" d="M89.6169996,63 C88.8833924,63 88.2126891,62.4788018 88.0533868,61.7132659 C87.8622241,60.8334834 88.1171077,59.5634276 89.9364211,56.1919007 C90.8930515,54.3998129 91.8823593,52.8203739 91.9305584,52.7553283 C92.4092821,51.9897924 93.3822512,51.7779775 94.1321972,52.2499746 C94.8821432,52.73865 95.0896446,53.7326792 94.6272596,54.4982151 C93.6379518,56.0776541 92.5849231,57.9506319 91.9150367,59.3516127 L103.163409,57.5928815 C104.040797,57.4619565 104.854464,58.0648786 104.982723,58.9605055 C105.110164,59.8561325 104.519521,60.6875479 103.642133,60.8176389 L89.8563615,62.9674772 C89.7763019,62.9833217 89.6970592,63 89.6169996,63"/>
    <path fill="#FFF" d="M137.3777,11.1685011 L122.783922,21.72849 C121.787134,22.4584575 120.649998,21.6061795 121.102141,20.4804559 L127.674564,3.94127751 C128.001511,3.11938241 128.983148,2.73920723 129.589992,3.19572906 L137.611347,9.1749186 C138.218989,9.63144043 138.093793,10.6512136 137.3777,11.1685011"/>
    <path fill="#999" d="M128.079745,4.21675032 L122.486602,19.0824174 L134.894457,9.59205613 L128.079745,4.21675032 Z M121.427055,23 C120.897281,23 120.396898,22.8328477 119.955294,22.4993207 C119.072087,21.800391 118.763115,20.5704613 119.189647,19.4167219 L125.400733,2.91063031 C125.739849,2.02977676 126.445962,1.34717356 127.29978,1.10383097 C128.064673,0.876037416 128.85971,1.02764063 129.463336,1.51354837 L137.043695,7.4812729 C137.646566,7.96718064 138,8.71120257 138,9.53141484 C138,10.4573606 137.544078,11.3382142 136.807821,11.9003123 L123.016376,22.4379019 C122.545382,22.8180761 121.986218,23 121.427055,23 Z"/>
    <path fill="#FFF" d="M146.825194,29.5071035 L130.227546,31.9845179 C129.092294,32.1560619 128.561086,30.8627 129.437357,30.0528528 L142.255488,18.3647229 C142.887492,17.7878564 143.850581,17.9131234 144.138257,18.614459 L147.917038,27.8395364 C148.219429,28.5257123 147.658792,29.3826344 146.825194,29.5071035"/>
    <path fill="#999" d="M143.277391,19.4392063 L131.142701,30.4954468 L146.858843,28.1532078 L143.277391,19.4392063 Z M129.616968,34 C128.559321,34 127.637073,33.377751 127.213859,32.378966 C126.745772,31.248519 127.062988,29.9050651 127.999937,29.0538754 L141.479316,16.7690706 C142.204271,16.1141158 143.171395,15.8524694 144.063469,16.08141 C144.864247,16.2776449 145.49868,16.8512544 145.815897,17.6210988 L149.790387,27.3179517 C150.107603,28.1037298 150.062729,28.9884638 149.66969,29.7742418 C149.216303,30.6422037 148.40005,31.248519 147.463101,31.3793423 L130.010006,33.9840664 C129.888536,34 129.753139,34 129.616968,34 Z"/>
    <path fill="#FFF" d="M146.658295,50.8588046 L130.717507,43.3587511 C129.617451,42.8383712 129.828822,41.4606185 131.033793,41.3070124 L148.451094,39.0115414 C149.310465,38.9041739 150.108893,39.5624858 149.987779,40.2968171 L148.511265,50.0931252 C148.390923,50.8431305 147.456723,51.2263621 146.658295,50.8588046"/>
    <g transform="translate(128 37)">
      <mask id="empty-d" fill="#fff">
        <use xlink:href="#empty-c"/>
      </mask>
      <path fill="#999" d="M4.3971871,5.38016 L18.8072516,12.27056 L20.1380903,3.27056 L4.3971871,5.38016 Z M19.0193806,15.48976 C18.5804129,15.48976 18.1422194,15.39616 17.748929,15.19296 L1.75099355,7.53616 C0.646993548,7.00496 0.0121548387,5.86416 0.178606452,4.69296 C0.345058065,3.52096 1.28260645,2.62976 2.49189677,2.47376 L19.9716387,0.13056 C20.9091871,0.00496 21.8467355,0.33296 22.4970581,1.02096 C23.0715097,1.63056 23.3285419,2.44256 23.2077677,3.23936 L21.7259613,13.23936 C21.6051871,14.03616 21.1213161,14.73936 20.3951226,15.13056 C19.9716387,15.38016 19.4877677,15.48976 19.0193806,15.48976 Z" mask="url(#empty-d)"/>
    </g>
  </g>
</svg>
