<svg xmlns="http://www.w3.org/2000/svg" width="940" height="300" viewBox="0 0 940 300">
  <defs>
    <linearGradient id="header-bg-a" x1="100%" x2="-8.816%" y1="74.485%" y2="74.485%">
      <stop offset="0%" stop-color="#9BA225"/>
      <stop offset="100%" stop-color="#B8B84C"/>
    </linearGradient>
    <linearGradient id="header-bg-b" x1="50%" x2="50%" y1="0%" y2="100%">
      <stop offset="0%" stop-color="#DDD192"/>
      <stop offset="100%" stop-color="#DEA87E"/>
    </linearGradient>
  </defs>
  <g fill="none" fill-rule="evenodd">
    <rect width="940" height="297.6" fill="#FFECCC"/>
    <g transform="translate(0 93.6)">
      <g opacity=".641" transform="matrix(-1 0 0 1 940 111.4)">
        <path fill="#9BA225" d="M767.967165 20.431346C784.276283 20.431346 797.497623 33.7205989 797.497623 50.1134909 797.497623 66.5063828 784.276283 79.7956357 767.967165 79.7956357 759.564897 79.7956357 751.988962 76.2627047 746.611113 70.6009612 741.528302 75.552589 734.604274 78.6052041 726.967271 78.6052041 716.523023 78.6052041 707.410451 72.9016439 702.525349 64.4289779 697.179943 68.3954209 690.572708 70.7436749 683.418147 70.7436749 676.212822 70.7436749 669.560549 68.3643462 664.195295 64.3457283 659.128515 68.3493843 652.74418 70.7436749 645.79916 70.7436749 629.341569 70.7436749 616 57.3335757 616 40.7914482 616 24.2489371 629.341569 10.838838 645.79916 10.838838 651.383115 10.838838 656.60562 12.3860538 661.072784 15.07191 666.864373 9.45850505 674.737253 6 683.418147 6 696.676891 6 708.059686 14.0548832 712.998605 25.560215 717.118823 23.1973828 721.884078 21.8404519 726.967271 21.8404519 734.550076 21.8404519 741.429829 24.8508666 746.502717 29.7403449 751.88629 24.0118483 759.508408 20.431346 767.967165 20.431346zM316.967165 20.431346C333.276283 20.431346 346.497623 33.7205989 346.497623 50.1134909 346.497623 66.5063828 333.276283 79.7956357 316.967165 79.7956357 308.564897 79.7956357 300.988962 76.2627047 295.611113 70.6009612 290.528302 75.552589 283.604274 78.6052041 275.967271 78.6052041 265.523023 78.6052041 256.410451 72.9016439 251.525349 64.4289779 246.179943 68.3954209 239.572708 70.7436749 232.418147 70.7436749 225.212822 70.7436749 218.560549 68.3643462 213.195295 64.3457283 208.128515 68.3493843 201.74418 70.7436749 194.79916 70.7436749 178.341569 70.7436749 165 57.3335757 165 40.7914482 165 24.2489371 178.341569 10.838838 194.79916 10.838838 200.383115 10.838838 205.60562 12.3860538 210.072784 15.07191 215.864373 9.45850505 223.737253 6 232.418147 6 245.676891 6 257.059686 14.0548832 261.998605 25.560215 266.118823 23.1973828 270.884078 21.8404519 275.967271 21.8404519 283.550076 21.8404519 290.429829 24.8508666 295.502717 29.7403449 300.88629 24.0118483 308.508408 20.431346 316.967165 20.431346z"/>
        <path fill="#B8B84C" d="M645.79916 19.0832388C651.382733 19.0832388 656.605239 20.6304546 661.072403 23.3163109 666.864373 17.7029059 674.736871 14.2444008 683.418147 14.2444008 696.676509 14.2444008 708.059686 22.299284 712.998605 33.8046159 717.118823 31.4417836 721.883696 30.0848527 726.966889 30.0848527 734.550076 30.0848527 741.429447 33.0952675 746.502335 37.9847458 751.88629 32.2558655 759.508026 28.6757469 767.967165 28.6757469 782.884302 28.6753632 795.210224 39.7947543 797.207929 54.2353076 797.394188 52.887584 797.497623 51.5130057 797.497623 50.1131072 797.497623 33.7202153 784.276283 20.4309624 767.967165 20.431346 759.508026 20.431346 751.88629 24.0114646 746.502335 29.7399613 741.429447 24.8508666 734.550076 21.8404519 726.966889 21.8404519 721.883696 21.8404519 717.118823 23.1973828 712.998605 25.5598314 708.059686 14.0548832 696.676509 5.99961636 683.418147 6 674.736871 6 666.864373 9.45850505 661.072403 15.0715264 656.605239 12.3856702 651.382733 10.838838 645.79916 10.838838 629.341569 10.838838 616 24.2489371 616 40.7910646 616 42.1905795 616.103053 43.5651578 616.287786 44.9136487 618.287017 30.3227088 630.73355 19.0832388 645.79916 19.0832388M194.79916 19.0832388C200.382733 19.0832388 205.605239 20.6304546 210.072403 23.3163109 215.864373 17.7029059 223.736871 14.2444008 232.418147 14.2444008 245.676509 14.2444008 257.059686 22.299284 261.998605 33.8046159 266.118823 31.4417836 270.883696 30.0848527 275.966889 30.0848527 283.550076 30.0848527 290.429447 33.0952675 295.502335 37.9847458 300.88629 32.2558655 308.508026 28.6757469 316.967165 28.6757469 331.884302 28.6753632 344.210224 39.7947543 346.207929 54.2353076 346.394188 52.887584 346.497623 51.5130057 346.497623 50.1131072 346.497623 33.7202153 333.276283 20.4309624 316.967165 20.431346 308.508026 20.431346 300.88629 24.0114646 295.502335 29.7399613 290.429447 24.8508666 283.550076 21.8404519 275.966889 21.8404519 270.883696 21.8404519 266.118823 23.1973828 261.998605 25.5598314 257.059686 14.0548832 245.676509 5.99961636 232.418147 6 223.736871 6 215.864373 9.45850505 210.072403 15.0715264 205.605239 12.3856702 200.382733 10.838838 194.79916 10.838838 178.341569 10.838838 165 24.2489371 165 40.7910646 165 42.1905795 165.103053 43.5651578 165.287786 44.9136487 167.287017 30.3227088 179.73355 19.0832388 194.79916 19.0832388"/>
        <g transform="matrix(-1 0 0 1 939.548 6.084)">
          <path fill="#9BA225" d="M181.963808 11.4619216C186.384763 17.1847763 189.228562 23.1052962 190.495205 29.223481 192.914127 40.907446 191.70558 46.7540328 191.70558 50.3042724 191.984 50.3042724 188.198524 50.3042724 180.349153 50.3042724 170.179459 65.2508456 161.876427 72.7241321 155.440057 72.7241321 148.305342 72.7241321 141.651161 70.6444254 136.046977 67.0608541 134.970644 69.1175425 133.669121 71.0319008 132.168743 72.7740052 126.645093 79.2126175 92.0432738 79.2126175 86.5154255 72.7740052 85.6795498 71.8033987 84.904361 70.7786991 84.1986376 69.70451 82.4959702 70.8937908 80.6787994 71.9223268 78.7658272 72.7740052 74.7120209 74.5813282 70.2261546 75.5864623 65.5040294 75.5864623 60.7857209 75.5864623 56.3040531 74.5774919 52.2502468 72.7740052 51.7460496 72.5514946 51.2533028 72.3174749 50.7651361 72.0681095 50.5739152 72.3059657 50.383076 72.5438218 50.1846033 72.7740052 44.9624794 78.9479067 11.998824 78.9555794 6.77631838 72.7740052 3.4286171 68.8217568 1.13396654 63.9411022.324808322 58.5728425.282442019 58.2970061.256106209 58.1086394.232823826 57.9206563.195037664 57.6099088.168320176 57.3912346.149236256 57.168724.125953873 56.9538862.106869953 56.7390484.091602817 56.523827.0610685446 56.1290625.0458014085 55.9215138.0385495188 55.7143488.0267174883 55.5033474.0194655986 55.2961823.0114503521 55.0851809.00419846244 54.8051245 0 54.5246844 0 54.2407916 0 52.9057281.091602817 51.5894629.271373345 50.3042724 2.17594858 36.3563115 14.0831698 25.612503 28.486186 25.612503 31.338087 25.612503 34.0865532 26.0383422 36.6861648 26.8213493 42.2517993 16.5762713 53.0666569 9.62319919 65.5040294 9.62319919 77.8997989 9.6193628 88.6875573 16.5340711 94.2688406 26.7288923 98.7050887 24.1466186 103.850877 22.6657722 109.344374 22.6657722 113.497417 22.6657722 117.456185 23.5097779 121.059993 25.0370445 125.793568 10.502116 139.399258 0 155.440057 0 165.094612 0 175.477947 5.2688382 181.963808 11.4619216zM632.963808 11.4619216C637.384763 17.1847763 640.228562 23.1052962 641.495205 29.223481 643.914127 40.907446 642.70558 46.7540328 642.70558 50.3042724 642.984 50.3042724 639.198524 50.3042724 631.349153 50.3042724 621.179459 65.2508456 612.876427 72.7241321 606.440057 72.7241321 599.305342 72.7241321 592.651161 70.6444254 587.046977 67.0608541 585.970644 69.1175425 584.669121 71.0319008 583.168743 72.7740052 577.645093 79.2126175 543.043274 79.2126175 537.515426 72.7740052 536.67955 71.8033987 535.904361 70.7786991 535.198638 69.70451 533.49597 70.8937908 531.678799 71.9223268 529.765827 72.7740052 525.712021 74.5813282 521.226155 75.5864623 516.504029 75.5864623 511.785721 75.5864623 507.304053 74.5774919 503.250247 72.7740052 502.74605 72.5514946 502.253303 72.3174749 501.765136 72.0681095 501.573915 72.3059657 501.383076 72.5438218 501.184603 72.7740052 495.962479 78.9479067 462.998824 78.9555794 457.776318 72.7740052 454.428617 68.8217568 452.133967 63.9411022 451.324808 58.5728425 451.282442 58.2970061 451.256106 58.1086394 451.232824 57.9206563 451.195038 57.6099088 451.16832 57.3912346 451.149236 57.168724 451.125954 56.9538862 451.10687 56.7390484 451.091603 56.523827 451.061069 56.1290625 451.045801 55.9215138 451.03855 55.7143488 451.026717 55.5033474 451.019466 55.2961823 451.01145 55.0851809 451.004198 54.8051245 451 54.5246844 451 54.2407916 451 52.9057281 451.091603 51.5894629 451.271373 50.3042724 453.175949 36.3563115 465.08317 25.612503 479.486186 25.612503 482.338087 25.612503 485.086553 26.0383422 487.686165 26.8213493 493.251799 16.5762713 504.066657 9.62319919 516.504029 9.62319919 528.899799 9.6193628 539.687557 16.5340711 545.268841 26.7288923 549.705089 24.1466186 554.850877 22.6657722 560.344374 22.6657722 564.497417 22.6657722 568.456185 23.5097779 572.059993 25.0370445 576.793568 10.502116 590.399258 0 606.440057 0 616.094612 0 626.477947 5.2688382 632.963808 11.4619216z"/>
          <path fill="#9BA225" d="M548.963808,11.4619216 C553.384763,17.1847763 556.228562,23.1052962 557.495205,29.223481 C559.914127,40.907446 558.70558,46.7540328 558.70558,50.3042724 C558.984,50.3042724 555.198524,50.3042724 547.349153,50.3042724 C537.179459,65.2508456 528.876427,72.7241321 522.440057,72.7241321 C515.305342,72.7241321 508.651161,70.6444254 503.046977,67.0608541 C501.970644,69.1175425 500.669121,71.0319008 499.168743,72.7740052 C493.645093,79.2126175 459.043274,79.2126175 453.515426,72.7740052 C452.67955,71.8033987 451.904361,70.7786991 451.198638,69.70451 C449.49597,70.8937908 447.678799,71.9223268 445.765827,72.7740052 C441.712021,74.5813282 437.226155,75.5864623 432.504029,75.5864623 C427.785721,75.5864623 423.304053,74.5774919 419.250247,72.7740052 C418.74605,72.5514946 418.253303,72.3174749 417.765136,72.0681095 C417.573915,72.3059657 417.383076,72.5438218 417.184603,72.7740052 C411.962479,78.9479067 378.998824,78.9555794 373.776318,72.7740052 C370.428617,68.8217568 368.133967,63.9411022 367.324808,58.5728425 C367.282442,58.2970061 367.256106,58.1086394 367.232824,57.9206563 C367.195038,57.6099088 367.16832,57.3912346 367.149236,57.168724 C367.125954,56.9538862 367.10687,56.7390484 367.091603,56.523827 C367.061069,56.1290625 367.045801,55.9215138 367.03855,55.7143488 C367.026717,55.5033474 367.019466,55.2961823 367.01145,55.0851809 C367.004198,54.8051245 367,54.5246844 367,54.2407916 C367,52.9057281 367.091603,51.5894629 367.271373,50.3042724 C369.175949,36.3563115 381.08317,25.612503 395.486186,25.612503 C398.338087,25.612503 401.086553,26.0383422 403.686165,26.8213493 C409.251799,16.5762713 420.066657,9.62319919 432.504029,9.62319919 C444.899799,9.6193628 455.687557,16.5340711 461.268841,26.7288923 C465.705089,24.1466186 470.850877,22.6657722 476.344374,22.6657722 C480.497417,22.6657722 484.456185,23.5097779 488.059993,25.0370445 C492.793568,10.502116 506.399258,0 522.440057,0 C532.094612,0 542.477947,5.2688382 548.963808,11.4619216 Z"/>
          <path fill="#B8B84C" d="M183.091658 13.8804367L186.025068 17.5918448C179.346121 10.9579411 165.094612 8.66026545 155.440057 8.66410183 139.399258 8.66410183 125.793568 19.1623814 121.059993 33.69731 117.456185 32.1700434 113.497417 31.3260377 109.344374 31.3260377 103.850877 31.3260377 98.7050887 32.8072676 94.2688406 35.3895414 88.6875573 25.1943365 77.8997989 18.2838483 65.5040294 18.2838483 53.0666569 18.2838483 42.2517993 25.2365368 36.6861648 35.4816147 34.0865532 34.6986076 31.338087 34.2727684 28.486186 34.2727684 17.2511005 34.2727684 7.53967519 40.8072905 2.90151923 50.3042724 1.64923238 52.8673642.76755527 55.6491302.324808322 58.5728425.282442019 58.2970061.256106209 58.1086394.232823826 57.9206563.195037664 57.6099088.168320176 57.3912346.149236256 57.168724.125953873 56.9538862.106869953 56.7390484.091602817 56.523827.0843509273 56.458992.0801524648 56.3937734.0763356808 56.3320075.0610685446 56.1290625.0458014085 55.9215138.0385495188 55.7143488.0267174883 55.5033474.0194655986 55.2961823.0114503521 55.0851809.00419846244 54.8051245 0 54.5246844 0 54.2407916 0 52.9057281.091602817 51.5894629.271373345 50.3042724 2.17594858 36.3563115 14.0831698 25.612503 28.486186 25.612503 31.338087 25.612503 34.0865532 26.0383422 36.6861648 26.8213493 42.2517993 16.5762713 53.0666569 9.62319919 65.5040294 9.62319919 77.8997989 9.6193628 88.6875573 16.5340711 94.2688406 26.7288923 98.7050887 24.1466186 103.850877 22.6657722 109.344374 22.6657722 113.497417 22.6657722 117.456185 23.5097779 121.059993 25.0370445 125.793568 10.502116 139.399258 0 155.440057 0 165.094612 0 174.971013 2.76885036 183.091658 13.8804367zM634.091658 13.8804367L637.025068 17.5918448C630.346121 10.9579411 616.094612 8.66026545 606.440057 8.66410183 590.399258 8.66410183 576.793568 19.1623814 572.059993 33.69731 568.456185 32.1700434 564.497417 31.3260377 560.344374 31.3260377 554.850877 31.3260377 549.705089 32.8072676 545.268841 35.3895414 539.687557 25.1943365 528.899799 18.2838483 516.504029 18.2838483 504.066657 18.2838483 493.251799 25.2365368 487.686165 35.4816147 485.086553 34.6986076 482.338087 34.2727684 479.486186 34.2727684 468.251101 34.2727684 458.539675 40.8072905 453.901519 50.3042724 452.649232 52.8673642 451.767555 55.6491302 451.324808 58.5728425 451.282442 58.2970061 451.256106 58.1086394 451.232824 57.9206563 451.195038 57.6099088 451.16832 57.3912346 451.149236 57.168724 451.125954 56.9538862 451.10687 56.7390484 451.091603 56.523827 451.084351 56.458992 451.080152 56.3937734 451.076336 56.3320075 451.061069 56.1290625 451.045801 55.9215138 451.03855 55.7143488 451.026717 55.5033474 451.019466 55.2961823 451.01145 55.0851809 451.004198 54.8051245 451 54.5246844 451 54.2407916 451 52.9057281 451.091603 51.5894629 451.271373 50.3042724 453.175949 36.3563115 465.08317 25.612503 479.486186 25.612503 482.338087 25.612503 485.086553 26.0383422 487.686165 26.8213493 493.251799 16.5762713 504.066657 9.62319919 516.504029 9.62319919 528.899799 9.6193628 539.687557 16.5340711 545.268841 26.7288923 549.705089 24.1466186 554.850877 22.6657722 560.344374 22.6657722 564.497417 22.6657722 568.456185 23.5097779 572.059993 25.0370445 576.793568 10.502116 590.399258 0 606.440057 0 616.094612 0 625.971013 2.76885036 634.091658 13.8804367z"/>
          <path fill="#B8B84C" d="M550.091658,13.8804367 L553.025068,17.5918448 C546.346121,10.9579411 532.094612,8.66026545 522.440057,8.66410183 C506.399258,8.66410183 492.793568,19.1623814 488.059993,33.69731 C484.456185,32.1700434 480.497417,31.3260377 476.344374,31.3260377 C470.850877,31.3260377 465.705089,32.8072676 461.268841,35.3895414 C455.687557,25.1943365 444.899799,18.2838483 432.504029,18.2838483 C420.066657,18.2838483 409.251799,25.2365368 403.686165,35.4816147 C401.086553,34.6986076 398.338087,34.2727684 395.486186,34.2727684 C384.251101,34.2727684 374.539675,40.8072905 369.901519,50.3042724 C368.649232,52.8673642 367.767555,55.6491302 367.324808,58.5728425 C367.282442,58.2970061 367.256106,58.1086394 367.232824,57.9206563 C367.195038,57.6099088 367.16832,57.3912346 367.149236,57.168724 C367.125954,56.9538862 367.10687,56.7390484 367.091603,56.523827 C367.084351,56.458992 367.080152,56.3937734 367.076336,56.3320075 C367.061069,56.1290625 367.045801,55.9215138 367.03855,55.7143488 C367.026717,55.5033474 367.019466,55.2961823 367.01145,55.0851809 C367.004198,54.8051245 367,54.5246844 367,54.2407916 C367,52.9057281 367.091603,51.5894629 367.271373,50.3042724 C369.175949,36.3563115 381.08317,25.612503 395.486186,25.612503 C398.338087,25.612503 401.086553,26.0383422 403.686165,26.8213493 C409.251799,16.5762713 420.066657,9.62319919 432.504029,9.62319919 C444.899799,9.6193628 455.687557,16.5340711 461.268841,26.7288923 C465.705089,24.1466186 470.850877,22.6657722 476.344374,22.6657722 C480.497417,22.6657722 484.456185,23.5097779 488.059993,25.0370445 C492.793568,10.502116 506.399258,0 522.440057,0 C532.094612,0 541.971013,2.76885036 550.091658,13.8804367 Z"/>
        </g>
        <path fill="#9BA225" d="M638.573425 73.2535539C629.549021 73.2535539 621.509347 69.0289219 616.29104 62.4483631 611.85899 64.6930346 606.854041 65.9670995 601.551765 65.9670995 594.604073 65.9670995 588.164013 63.7876467 582.857538 60.0847636 577.459842 68.2693168 568.213683 73.6678839 557.712184 73.6678839 546.11832 73.6678839 546 15.4172981 546 15.4172981 549.599991 13.8904151 553.558377 13.0421894 557.712184 13.0421894 563.205299 13.0421894 568.351469 14.5272558 572.787335 17.1095295 578.372054 6.91048824 589.156377-2.84217094e-13 601.551765-2.84217094e-13 613.989137-2.84217094e-13 624.807812 6.95268852 630.373828 17.2016028 632.969623 16.4189794 635.721906 15.9927565 638.573425 15.9927565 654.301629 15.9927565 667.055794 28.8124354 667.055794 44.6214288 667.055794 60.433875 654.301629 73.2535539 638.573425 73.2535539zM165.573425 73.2535539C156.549021 73.2535539 148.509347 69.0289219 143.29104 62.4483631 138.85899 64.6930346 133.854041 65.9670995 128.551765 65.9670995 121.604073 65.9670995 115.164013 63.7876467 109.857538 60.0847636 104.459842 68.2693168 95.2136831 73.6678839 84.7121835 73.6678839 73.1183203 73.6678839 68.5735937 23.6155324 71.5986902 18.4963752 75.1986809 16.9694922 80.5315942 15.228964 83.8124038 14.8591695 87.0932134 14.489375 95.351469 14.5272558 99.7873354 17.1095295 105.372054 6.91048824 116.156377-3.12638804e-13 128.551765-3.12638804e-13 140.989137-3.12638804e-13 151.807812 6.95268852 157.373828 17.2016028 159.969623 16.4189794 162.721906 15.9927565 165.573425 15.9927565 181.301629 15.9927565 194.055794 28.8124354 194.055794 44.6214288 194.055794 60.433875 181.301629 73.2535539 165.573425 73.2535539z" opacity=".815"/>
        <path fill="#B8B84C" d="M659.54778 56.9969777C657.043588 43.755296 645.473008 33.7442378 631.573425 33.7442378 628.721906 33.7442378 625.969623 34.1704607 623.373828 34.9530841 617.807812 24.7041698 606.989137 17.7514813 594.551765 17.7514813 582.156377 17.7514813 571.372054 24.6619695 565.787335 34.8571744 561.351469 32.2787371 556.205299 30.7936707 550.712184 30.7936707 546.558377 30.7936707 542.599991 31.63806 539 33.1687794 539 33.7442378 539 22.4172981 539 22.4172981 542.599991 20.8904151 546.558377 20.0421894 550.712184 20.0421894 556.205299 20.0421894 561.351469 21.5272558 565.787335 24.1095295 571.372054 13.9104882 582.156377 7 594.551765 7 606.989137 7 617.807812 13.9526885 623.373828 24.2016028 625.969623 23.4189794 628.721906 22.9927565 631.573425 22.9927565 647.301629 22.9927565 660.055794 35.8124354 660.055794 51.6214288 660.055794 53.459443 659.876406 55.2552569 659.54778 56.9969777zM208.54778 56.9969777C206.043588 43.755296 194.473008 33.7442378 180.573425 33.7442378 177.721906 33.7442378 174.969623 34.1704607 172.373828 34.9530841 166.807812 24.7041698 155.989137 17.7514813 143.551765 17.7514813 131.156377 17.7514813 120.372054 24.6619695 114.787335 34.8571744 110.351469 32.2787371 105.205299 30.7936707 99.7121835 30.7936707 95.5583774 30.7936707 91.5999907 31.63806 88 33.1687794 88 33.7442378 88 22.4172981 88 22.4172981 91.5999907 20.8904151 95.5583774 20.0421894 99.7121835 20.0421894 105.205299 20.0421894 110.351469 21.5272558 114.787335 24.1095295 120.372054 13.9104882 131.156377 7 143.551765 7 155.989137 7 166.807812 13.9526885 172.373828 24.2016028 174.969623 23.4189794 177.721906 22.9927565 180.573425 22.9927565 196.301629 22.9927565 209.055794 35.8124354 209.055794 51.6214288 209.055794 53.459443 208.876406 55.2552569 208.54778 56.9969777z" opacity=".815"/>
        <path fill="url(#header-bg-a)" d="M577.652525 66.9496449C576.816649 65.9790384 489.023781 66.4854418 489.000499 66.2974587 488.962713 65.9867112 491.08302 59.8259728 491.408473 58.6810749 495.342124 44.8430258 505.220269 33.9893054 519.623285 33.9893054 522.475186 33.9893054 525.223653 34.4151446 527.823264 35.1981517 533.388899 24.9530738 544.203756 18.0000016 556.641129 18.0000016 569.036898 17.9961652 579.824657 24.9108735 585.40594 35.1056947M98.6525248 66.9496449C97.8166491 65.9790384 10.0237813 66.4854418 10.0004989 66.2974587 9.96271272 65.9867112 12.08302 59.8259728 12.4084726 58.6810749 16.3421239 44.8430258 26.220269 33.9893054 40.6232853 33.9893054 43.4751863 33.9893054 46.2236525 34.4151446 48.8232641 35.1981517 54.3888986 24.9530738 65.2037562 18.0000016 77.6411287 18.0000016 90.0368982 17.9961652 100.824657 24.9108735 106.40594 35.1056947" opacity=".815"/>
        <path fill="#B8B84C" d="M592.524074 43.7663438C586.942791 33.5711389 576.155033 26.6606507 563.759263 26.6606507 551.321891 26.6606507 540.507033 33.6133392 534.941398 43.8584171 532.341787 43.07541 529.593321 42.6495708 526.74142 42.6495708 515.506334 42.6495708 505.794909 49.1840929 501.156753 58.6810749 499.904466 61.2441666 496.443844 63.6553632 496.001097 66.5790756 495.95873 66.3032392 497.155205 63.0415414 497.604094 61.69897 498.052983 60.3563986 498.346836 59.9662653 498.526607 58.6810749 500.431182 44.7331139 512.338403 33.9893054 526.74142 33.9893054 529.593321 33.9893054 532.341787 34.4151446 534.941398 35.1981517 540.507033 24.9530738 551.321891 18.0000016 563.759263 18.0000016 576.155033 17.9961652 586.942791 24.9108735 592.524074 35.1056947M113.524074 43.7663438C107.942791 33.5711389 97.1550326 26.6606507 84.759263 26.6606507 72.3218906 26.6606507 61.507033 33.6133392 55.9413985 43.8584171 53.3417869 43.07541 50.5933207 42.6495708 47.7414197 42.6495708 36.5063342 42.6495708 26.7949088 49.1840929 22.1567529 58.6810749 20.904466 61.2441666 17.4438437 63.6553632 17.0010968 66.5790756 16.9587305 66.3032392 18.1552049 63.0415414 18.6040941 61.69897 19.0529834 60.3563986 19.3468365 59.9662653 19.526607 58.6810749 21.4311822 44.7331139 33.3384034 33.9893054 47.7414197 33.9893054 50.5933207 33.9893054 53.3417869 34.4151446 55.9413985 35.1981517 61.507033 24.9530738 72.3218906 18.0000016 84.759263 18.0000016 97.1550326 17.9961652 107.942791 24.9108735 113.524074 35.1056947" opacity=".815"/>
        <path fill="#CDC579" d="M490,78.7467456 L939.800532,78.7467456 L939.800532,61.772264 C829.661299,55.0052694 749.519138,51.7527278 699.374047,52.014639 C649.228956,52.2765502 579.437607,56.4290919 490,64.472264 L490,78.7467456 Z"/>
        <path fill="#CDC579" d="M0,78.7467456 L489.800532,78.7467456 L491.858531,64.472264 C380.347299,55.9052694 299.519138,51.7527278 249.374047,52.014639 C199.228956,52.2765502 116.104274,56.4290919 0,64.472264 L0,78.7467456 Z"/>
        <path fill="#D8D8D8" d="M811.170978,55 C807.927253,56.8592479 805.539171,57.8980117 804.006734,58.1162915 C797.604219,59.0282628 793.172218,59.0835453 791.587255,59.5292928 C780.62996,62.6108727 773.809865,60.8548856 765.834265,62.0622566 C748.648438,64.6639006 740.83901,70.8961878 740,73.5310235 C740.896945,73.5310235 747.108247,73.5310235 758.633906,73.5310235 C764.961286,69.7592468 769.90657,67.6618589 773.469759,67.2388598 C778.814543,66.6043612 789.7967,65.4636471 794.818258,62.8973549 C796.867997,61.8498257 802.493835,61.1268788 807.342988,59.9391602 C809.39009,59.4377566 812.121594,57.7913699 815.537498,55 L811.170978,55 Z"/>
      </g>
      <path fill="#FFF" d="M251.678305 17.2607928C250.361597 16.2171967 250.358126 14.6607708 251.212155 13.4312235 252.066184 12.2013102 253.639294 11.2455651 255.288746 10.4248909 256.206779 9.96806593 257.187273 9.53393582 258.306186 9.34395815 259.425485 9.15398047 260.717517 9.24659001 261.576944 9.74917065 262.625684 8.13820388 264.908235 6.93757425 267.467623 6.39143419 270.027011 5.84492808 272.83239 5.90862002 275.440359 6.34824081 277.813133 6.74796262 280.392185 7.74982948 280.52559 9.33846746 283.567707 8.08256495 287.556774 7.85049203 290.894234 8.73595638 292.842114 9.25281279 294.746425 10.409883 294.423321 11.7594932 296.545091 10.9465059 299.209353 10.7554301 301.553595 11.2484935 303.897837 11.7415569 305.882732 12.9107067 306.865925 14.3774514 308.092025 13.8507118 309.649713 13.5615358 311.052402 13.8466853 312.455092 14.1318348 313.552798 15.111739 313.201548 16.0385665 315.28052 15.160057 318.302202 15.3870053 320.0172 16.5502982 321.489291 17.5488707 321.853266 19.1408031 321.015045 20.4L245.890957 20.4C245.94378 20.2169772 246.016266 20.0361507 246.112658 19.8597167 246.924275 18.3713752 249.246925 17.2871481 251.678305 17.2607928M149.361321 8.44559458C148.399914 7.66289754 148.397381 6.49557806 149.020957 5.57341764 149.644534 4.65098268 150.793154 3.93417385 151.997516 3.31866814 152.667825 2.97604945 153.383742 2.65045187 154.200726 2.50796861 155.017992 2.36548535 155.96138 2.43494251 156.588898 2.81187799 157.354645 1.60365291 159.021269.70318069 160.890029.293575644 162.758788-.116303937 164.80716-.0685349842 166.711392.261180606 168.443893.560971968 170.32701 1.31237211 170.424418 2.5038506 172.645646 1.56192371 175.558298 1.38786902 177.995174 2.05196728 179.417435 2.43960959 180.807885 3.30741224 180.571967 4.31961989 182.121196 3.7098794 184.06653 3.56657254 185.778199 3.93637012 187.489868 4.30616771 188.939156 5.18302999 189.657043 6.28308858 190.552291 5.88803385 191.68965 5.67115182 192.713836 5.88501397 193.738022 6.09887613 194.539522 6.83380422 194.283053 7.52892484 195.801033 6.87004273 198.00734 7.04025394 199.259561 7.91272368 200.334422 8.66165301 200.600181 9.85560231 199.988147 10.8L145.135638 10.8C145.174207 10.6627329 145.227134 10.527113 145.297515 10.3947875 145.890124 9.27853139 147.586027 8.46536105 149.361321 8.44559458"/>
    </g>
    <rect width="449.801" height="20.4" y="279" fill="url(#header-bg-b)"/>
    <polygon fill="url(#header-bg-b)" points="448.629 279 940 279 940 299.4 448.629 299.4"/>
  </g>
</svg>
