<svg xmlns="http://www.w3.org/2000/svg" width="58" height="58" viewBox="0 0 58 58">
  <g fill="none" fill-rule="evenodd">
    <rect width="58" height="58" fill="#666" rx="8"/>
    <g transform="translate(11 10)">
      <path fill="#FFF" stroke="#141414" d="M4.46051342 5.39721691C2.0107389 5.39721691.0176943813 7.39026147.0176943813 9.84024131.0176943813 12.2902212 2.01073894 14.2832657 4.46051342 14.2832657 6.91049326 14.2832657 8.90353782 12.2902212 8.90353782 9.84024131 8.90353782 7.39026147 6.91053435 5.39721691 4.46051342 5.39721691zM30.8725975 19.4926309C29.4343004 12.364796 24.6173044 8.65879485 17.6643906 9.32312187 10.4071903 10.0162585 8.41873305 15.4001606 8.33766141 15.6290897 8.32702646 15.6588517 8.31774071 15.6890502 8.30944704 15.7196058 6.79956238 21.344064 10.5976272 23.9337925 12.8669185 25.4809392 13.4598565 25.8851862 14.0731516 26.3032428 14.2720807 26.5729656 15.1475987 27.7594765 14.9466855 28.7016216 14.6920817 29.894442 14.5743433 30.4453957 14.4528747 31.0150797 14.439462 31.6253986 14.3964857 33.6004431 15.0856541 35.2396932 16.4324828 36.3660452 17.9268119 37.6156514 19.8310626 37.9569618 21.232693 37.9569618 21.7700355 37.9569618 22.2338462 37.9066839 22.5720217 37.838271 31.2831541 36.0690604 31.9260128 24.7144294 30.8725975 19.4926309z"/>
      <g transform="translate(14 16)">
        <path fill="#0F0F0F" fill-rule="nonzero" d="M.188405797 1.19516908C.188405797 1.81949097.694518689 2.32560386 1.31884058 2.32560386 1.94316247 2.32560386 2.44927536 1.81949097 2.44927536 1.19516908 2.44927536.570847191 1.94316247.0647342995 1.31884058.0647342995.694518689.0647342995.188405797.570847191.188405797 1.19516908zM9.37101449 1.19516908C9.37101449 1.81949097 9.87712738 2.32560386 10.5014493 2.32560386 11.1257712 2.32560386 11.6318841 1.81949097 11.6318841 1.19516908 11.6318841.570847191 11.1257712.0647342995 10.5014493.0647342995 9.87712738.0647342995 9.37101449.570847191 9.37101449 1.19516908z"/>
        <path fill="#141414" d="M5.91014493,6.57777778 C4.25507246,6.57777778 2.90724638,5.22995169 2.90724638,3.57487923 C2.90724638,3.37198068 3.07246377,3.20676329 3.27536232,3.20676329 C3.47826087,3.20676329 3.64347826,3.37198068 3.64347826,3.57487923 C3.64347826,4.82415459 4.65797101,5.83864734 5.90724638,5.83864734 C7.15652174,5.83864734 8.17101449,4.82415459 8.17101449,3.57487923 C8.17101449,3.37198068 8.33623188,3.20676329 8.53913043,3.20676329 C8.74202899,3.20676329 8.90724638,3.37198068 8.90724638,3.57487923 C8.91304348,5.23285024 7.56521739,6.57777778 5.91014493,6.57777778 Z"/>
      </g>
      <g fill="#FFF" stroke="#141414" transform="translate(8)">
        <path d="M2.90966221,2.97378445 C2.24017608,2.97378445 1.69745033,3.51651019 1.69745033,4.18599632 L1.69745033,6.46894549 C1.69745033,7.13843162 2.24017608,7.68115736 2.90966221,7.68115736 C3.57914834,7.68115736 4.12187408,7.13843162 4.12187408,6.46894549 L4.12187408,4.18599632 C4.12187408,3.51651019 3.57914834,2.97378445 2.90966221,2.97378445 Z" transform="rotate(-30 2.91 5.327)"/>
        <path d="M8.31026777,0.812024068 C7.64078164,0.812024068 7.0980559,1.35474981 7.0980559,2.02423594 L7.0980559,4.30718511 C7.0980559,4.97667124 7.64078164,5.51939698 8.31026777,5.51939698 C8.97975391,5.51939698 9.52247965,4.97667124 9.52247965,4.30718511 L9.52247965,2.02423594 C9.52247965,1.35474981 8.97975391,0.812024068 8.31026777,0.812024068 Z" transform="rotate(-13 8.31 3.166)"/>
        <path d="M13.7849564,0.871265689 C13.1154703,0.871265689 12.5727445,1.41399143 12.5727445,2.08347756 L12.5727445,4.36642673 C12.5727445,5.03591286 13.1154703,5.57863861 13.7849564,5.57863861 C14.4544425,5.57863861 14.9971683,5.03591286 14.9971683,4.36642673 L14.9971683,2.08347756 C14.9971683,1.41399143 14.4544425,0.871265689 13.7849564,0.871265689 Z" transform="rotate(12 13.785 3.225)"/>
        <path d="M18.9216752,2.14226178 C18.252189,2.14226178 17.7094633,2.68498753 17.7094633,3.35447366 L17.7094633,5.63742282 C17.7094633,6.30690896 18.252189,6.8496347 18.9216752,6.8496347 C19.5911613,6.8496347 20.133887,6.30690896 20.133887,5.63742282 L20.133887,3.35447366 C20.133887,2.68498753 19.5911613,2.14226178 18.9216752,2.14226178 Z" transform="rotate(32 18.922 4.496)"/>
      </g>
    </g>
  </g>
</svg>
