<svg xmlns="http://www.w3.org/2000/svg" width="135" height="128" viewBox="0 0 135 128">
  <g fill="none" fill-rule="evenodd">
    <ellipse cx="67.5" cy="64" fill="#FFD0A5" opacity=".169" rx="67.5" ry="64"/>
    <ellipse cx="66.5" cy="64" fill="#FFD0A5" opacity=".24" rx="54.5" ry="52"/>
    <ellipse cx="67.5" cy="63.5" fill="#FFD0A5" opacity=".602" rx="42.5" ry="40.5"/>
    <path fill="#FFF" fill-rule="nonzero" d="M79.0229629,57.3101224 L79.0229629,17.1273065 C79.0229629,10.6224501 73.7489423,5.34827557 67.2437779,5.34827557 C60.7387675,5.34827557 55.4645929,10.6224501 55.4645929,17.1273065 L55.4645929,57.3101224 C47.2993711,61.5670709 41.7224158,70.1040693 41.7224158,79.9485997 C41.7224158,94.0436102 53.1487673,105.469654 67.2437779,105.469654 C81.3389425,105.469654 92.76514,94.0437642 92.76514,79.9485997 C92.764986,70.1040693 87.1881847,61.5670709 79.0229629,57.3101224"/>
    <path fill="#EC7171" fill-rule="nonzero" d="M71.1700702,60.7110918 L71.1700702,28.9063375 C71.1700702,26.738052 69.4120634,24.9800452 67.2436239,24.9800452 C65.0753384,24.9800452 63.3171776,26.738206 63.3171776,28.9063375 L63.3171776,60.7110918 C54.3561938,62.529932 47.6117003,70.4507424 47.6117003,79.9485997 C47.6117003,90.790797 56.4009645,99.5803693 67.2436239,99.5803693 C78.0862833,99.5803693 86.8757015,90.790951 86.8757015,79.9485997 C86.8757015,70.4507424 80.1308999,62.529778 71.1700702,60.7110918"/>
    <path fill="#333" fill-rule="nonzero" d="M90.7520951,78.9669496 C90.2346266,91.5195652 79.9239125,101.543361 67.2436239,101.543361 C54.5634893,101.543361 44.2530832,91.5195652 43.7353067,78.9669496 C43.7209839,79.2949877 43.6854079,79.6170194 43.6854079,79.9485997 C43.6854079,92.9592365 54.232525,103.506662 67.2436239,103.506662 C80.2547227,103.506662 90.8019938,92.9593905 90.8019938,79.9485997 C90.8019938,79.6170194 90.7665719,79.2949877 90.7520951,78.9669496"/>
    <path fill="#FFF" fill-rule="nonzero" d="M59.8815563,72.095861 C59.0686995,72.095861 58.4092352,72.7553254 58.4092352,73.5680281 C58.4092352,74.3810389 59.0686995,75.0406573 59.8815563,75.0406573 C60.6944131,75.0406573 61.3540314,74.3811929 61.3540314,73.5680281 C61.3540314,72.7553254 60.6944131,72.095861 59.8815563,72.095861 M58.4093892,77.9852995 C57.3242454,77.9852995 56.446243,78.8629939 56.446243,79.9485997 C56.446243,81.0334354 57.3242454,81.9112838 58.4093892,81.9112838 C59.4945329,81.9112838 60.3725353,81.0334354 60.3725353,79.9485997 C60.3723813,78.8629939 59.4945329,77.9852995 58.4093892,77.9852995 M69.2069241,70.1325609 C68.6648793,70.1328158 68.2255289,70.5721662 68.225274,71.1142109 C68.2256138,71.6562205 68.6649145,72.0955212 69.2069241,72.095861 C69.7488984,72.0954364 70.1881495,71.6561853 70.1885741,71.1142109 C70.1882343,70.5722014 69.7489336,70.1329007 69.2069241,70.1325609 M67.2436239,76.0221533 C66.701822,76.0221533 66.2619738,76.4621556 66.2619738,77.0038034 C66.2619738,77.5454513 66.701822,77.9852995 67.2436239,77.9852995 C67.7852717,77.9852995 68.225274,77.5454513 68.225274,77.0038034 C68.225274,76.4621556 67.7852717,76.0221533 67.2436239,76.0221533 M66.7526448,80.9302498 C65.939788,80.9302498 65.2804777,81.5897141 65.2804777,82.4025709 C65.2804777,83.2154277 65.939788,83.875046 66.7526448,83.875046 C67.5655016,83.875046 68.225274,83.2155817 68.225274,82.4025709 C68.225274,81.5897141 67.5656556,80.9302498 66.7526448,80.9302498 M58.9002142,86.8195342 C58.769975,86.8194114 58.645037,86.8711049 58.5529584,86.9632124 C58.4608798,87.0553199 58.4092255,87.1802741 58.4093892,87.3105133 C58.4093892,87.5815459 58.6291045,87.8012613 58.9001372,87.8012613 C59.1711699,87.8012613 59.3908852,87.5815459 59.3908852,87.3105133 C59.3910079,87.1803134 59.3393616,87.0554063 59.2473252,86.9633122 C59.1552888,86.871218 59.0304142,86.8194933 58.9002142,86.8195342"/>
    <path fill="#333" fill-rule="nonzero" d="M59.3907312 17.1273065L63.3171776 17.1273065 63.3171776 15.1641604 59.3907312 15.1641604 59.3907312 17.1273065zM59.3907312 21.0537529L61.3540314 21.0537529 61.3540314 19.0904527 59.3907312 19.0904527 59.3907312 21.0537529zM59.3907312 24.9800452L61.3540314 24.9800452 61.3540314 23.016899 59.3907312 23.016899 59.3907312 24.9800452zM59.3907312 28.9063375L61.3540314 28.9063375 61.3540314 26.9431913 59.3907312 26.9431913 59.3907312 28.9063375zM59.3907312 32.8327838L61.3540314 32.8327838 61.3540314 30.8693297 59.3907312 30.8693297 59.3907312 32.8327838zM71.1700702 60.7120158L71.1700702 28.9063375C71.1700702 26.738052 69.4120634 24.9800452 67.2436239 24.9800452 65.0753384 24.9800452 63.3171776 26.738206 63.3171776 28.9063375L63.3171776 60.7120158C54.3561938 62.529932 47.6117003 70.4507424 47.6117003 79.9485997 47.6117003 90.790797 56.4009645 99.5803693 67.2436239 99.5803693 78.0862833 99.5803693 86.8757015 90.790951 86.8757015 79.9485997 86.8757015 70.4507424 80.1308999 62.529778 71.1700702 60.7120158M67.2436239 97.6170691C57.4851842 97.6170691 49.5748464 89.7067313 49.5748464 79.9485997 49.5748464 70.8554767 56.447013 63.3725124 65.2804777 62.3950206L65.2804777 28.9063375C65.2804777 27.8213477 66.1584801 26.9431913 67.2436239 26.9431913 68.3287677 26.9431913 69.2069241 27.8213477 69.2069241 28.9063375L69.2069241 62.3951746C78.0402347 63.3726664 84.9124013 70.8556307 84.9124013 79.9487537 84.9124013 89.7065773 77.0020635 97.6170691 67.2436239 97.6170691"/>
    <path fill="#333" fill-rule="nonzero" d="M79.0229629,55.1127293 L79.0229629,15.1641604 C79.0229629,8.65930399 73.7489423,3.38512941 67.2437779,3.38512941 C60.7387675,3.38512941 55.4645929,8.65930399 55.4645929,15.1641604 L55.4645929,55.1128833 C46.1797294,59.5246104 39.7592696,68.9853517 39.7592696,79.9487537 C39.7592696,95.127676 52.0643936,107.433108 67.2436239,107.433108 C82.4228542,107.433108 94.7281321,95.127676 94.7281321,79.9487537 C94.7281321,68.9851976 88.3078264,59.5244564 79.0229629,55.1127293 M67.2436239,103.506662 C54.232679,103.506662 43.6854079,92.9593905 43.6854079,79.9485997 C43.6854079,69.6917886 50.2421652,60.9707501 59.3907312,57.7367259 L59.3907312,15.1641604 C59.3907312,10.8274354 62.906899,7.31142173 67.2436239,7.31142173 C71.5803488,7.31142173 75.0965165,10.8274354 75.0965165,15.1641604 L75.0965165,57.7367259 C84.2450826,60.9709041 90.8019938,69.6917886 90.8019938,79.9485997 C90.8019938,92.9592365 80.2548767,103.506662 67.2436239,103.506662"/>
  </g>
</svg>
