<svg xmlns="http://www.w3.org/2000/svg" width="58" height="58" viewBox="0 0 58 58">
  <g fill="none" fill-rule="evenodd">
    <rect width="58" height="58" fill="#666" rx="8"/>
    <g transform="translate(19 11)">
      <path fill="#FFF" stroke="#141414" d="M15,23.4994507 L15,4 C15,1.790861 13.209139,0 11,0 C8.790861,0 7,1.790861 7,4 L7,22.8650466 C4.62109831,24.12254 3,26.6219561 3,29.5 C3,33.6421356 6.35786438,37 10.5,37 C14.6421356,37 18,33.6421356 18,29.5 C18,27.0462733 16.8216701,24.8677602 15,23.4994507 Z"/>
      <path fill="#FF4500" d="M12,26.1707057 C13.1651924,26.5825421 14,27.6937812 14,29 C14,30.6568542 12.6568542,32 11,32 C9.34314575,32 8,30.6568542 8,29 C8,27.6937812 8.83480763,26.5825421 10,26.1707057 L10,9 C10,8.44771525 10.4477153,8 11,8 C11.5522847,8 12,8.44771525 12,9 L12,26.1707057 Z"/>
      <rect width="5" height="2" y="8" fill="#FFF" rx="1"/>
      <rect width="5" height="2" y="14" fill="#FFF" rx="1"/>
      <rect width="5" height="2" y="20" fill="#FFF" rx="1"/>
      <rect width="4" height="2" x="1" y="11" fill="#FFF" rx="1"/>
      <rect width="4" height="2" x="1" y="17" fill="#FFF" rx="1"/>
    </g>
  </g>
</svg>
