<svg xmlns="http://www.w3.org/2000/svg" width="148" height="140" viewBox="0 0 148 140">
  <g fill="none" fill-rule="evenodd">
    <g fill="#93C2FC" opacity=".6">
      <ellipse cx="74" cy="70" opacity=".169" rx="74" ry="70"/>
      <ellipse cx="72.904" cy="70" opacity=".24" rx="59.748" ry="56.875"/>
      <ellipse cx="74" cy="69.453" opacity=".602" rx="46.593" ry="44.297"/>
    </g>
    <g fill-rule="nonzero" transform="translate(42 18)">
      <path fill="#194F82" d="M19.7248744,0 C13.0734319,0 7.67741935,5.18045685 7.67741935,11.5302972 C7.67741935,17.896215 13.0902305,23.0769231 19.7419355,23.0769231 C26.3936405,23.0769231 31.8064516,17.8964662 31.8064516,11.5302972 C31.8061891,5.18045685 26.3763169,0 19.7248744,0 Z M19.7248744,17.6038063 C16.2294615,17.6038063 13.3957543,14.891741 13.3957543,11.5463747 C13.3957543,8.20100836 16.2294615,5.48894298 19.7248744,5.48894298 C23.2202874,5.48894298 26.0539946,8.20100836 26.0539946,11.5463747 C26.0710556,14.891741 23.2373484,17.6038063 19.7248744,17.6038063 Z"/>
      <path fill="#56ACE0" d="M32.9032258,35.6659519 C32.9032258,33.577952 31.1821014,31.8844086 29.0600964,31.8844086 L27.6398263,31.8844086 L21.7917768,45.8595113 C20.7891876,48.2104821 17.5309665,48.0627199 16.5785197,45.8595113 L10.7304702,31.8681319 L9.32700041,31.8681319 C7.20499539,31.8681319 5.48387097,33.5616752 5.48387097,35.6331441 L5.48387097,65.9340659 L32.8864255,65.9340659 L32.8864255,35.6659519 L32.9032258,35.6659519 Z"/>
      <path fill="#194F82" d="M28.9223148 26.121883L25.6664953 26.121883C24.5427058 26.121883 23.5181043 26.8127226 23.1049915 27.83257L19.1883449 37.3073791 15.2550817 27.83257C14.8253524 26.7961832 13.8173675 26.121883 12.693578 26.121883L9.42139753 26.121883C4.24879602 26.121883.0509463983 30.3165394.0509463983 35.448855L.0509463983 68.5452926C.0509463983 70.0750636 1.29028474 71.3251908 2.84380354 71.3251908L4.39732234 71.3251908 4.39732234 97.1180662C4.39732234 98.6478372 5.63666068 99.8979644 7.19017948 99.8979644L31.1862547 99.8979644C32.7231569 99.8979644 33.9791118 98.6643766 33.9791118 97.1180662L33.9791118 71.3249364 35.5160141 71.3249364C37.0529163 71.3249364 38.3088712 70.0913486 38.3088712 68.5450382L38.3088712 35.4651399C38.3091268 30.316285 34.0949163 26.121883 28.9223148 26.121883zM28.3933975 94.3541985L21.981202 94.3541985 21.981202 81.4577608C21.981202 79.9279898 20.7418637 78.6778626 19.1883449 78.6778626 17.6514426 78.6778626 16.3954878 79.9114504 16.3954878 81.4577608L16.3954878 94.3541985 9.98329226 94.3541985 9.98329226 71.3249364 28.4100141 71.3249364 28.4100141 94.3541985 28.3933975 94.3541985zM5.60393888 65.7814249L5.60393888 35.4651399C5.60393888 33.3760814 7.30623963 31.6816794 9.40503662 31.6816794L10.8097735 31.6816794 16.5938637 45.6801527C17.5358938 47.8844784 20.7584802 48.0323155 21.7501043 45.6801527L27.5341945 31.6979644 28.9389314 31.6979644C31.0377284 31.6979644 32.7400291 33.3923664 32.7400291 35.4814249L32.7400291 65.7977099 5.60393888 65.7977099 5.60393888 65.7814249zM65.041967 5.56005089C66.5788693 5.56005089 67.8348242 4.3264631 67.8348242 2.78015267 67.8348242 1.23384224 66.5625084 0 65.041967 0L50.1849896 0C48.6480873 0 47.3921324 1.23358779 47.3921324 2.77989822L47.3921324 97.1175573C47.3921324 98.6473282 48.6314708 99.8974555 50.1849896 99.8974555L65.041967 99.8974555C66.5788693 99.8974555 67.8348242 98.6638677 67.8348242 97.1175573 67.8348242 95.5877863 66.5954858 94.337659 65.041967 94.337659L52.9944633 94.337659 52.9944633 86.5572519 65.041967 86.5572519C66.5788693 86.5572519 67.8348242 85.3236641 67.8348242 83.7773537 67.8348242 82.2310433 66.5954858 80.9974555 65.041967 80.9974555L52.9944633 80.9974555 52.9944633 72.8384224 58.745576 72.8384224C60.2824783 72.8384224 61.5384332 71.6045802 61.5384332 70.0585242 61.5384332 68.5124682 60.2990948 67.278626 58.745576 67.278626L52.9944633 67.278626 52.9944633 59.5470738 65.041967 59.5470738C66.5788693 59.5470738 67.8348242 58.313486 67.8348242 56.7671756 67.8348242 55.2374046 66.5954858 53.9872774 65.041967 53.9872774L52.9944633 53.9872774 52.9944633 45.8282443 58.745576 45.8282443C60.2824783 45.8282443 61.5384332 44.5946565 61.5384332 43.0483461 61.5384332 41.5185751 60.2990948 40.2684478 58.745576 40.2684478L52.9944633 40.2684478 52.9944633 32.5536896 65.041967 32.5536896C66.5788693 32.5536896 67.8348242 31.3201018 67.8348242 29.7737913 67.8348242 28.2440204 66.5954858 26.9938931 65.041967 26.9938931L52.9944633 26.9938931 52.9944633 18.8183206 58.745576 18.8183206C60.2824783 18.8183206 61.5384332 17.5847328 61.5384332 16.0384224 61.5384332 14.492112 60.2990948 13.2585242 58.745576 13.2585242L52.9944633 13.2585242 52.9944633 5.44478372 65.041967 5.44478372 65.041967 5.56005089z"/>
    </g>
  </g>
</svg>
