<svg xmlns="http://www.w3.org/2000/svg" xmlns:xlink="http://www.w3.org/1999/xlink" width="120" height="154" viewBox="0 0 120 154">
  <defs>
    <linearGradient id="icon-a" x1="5.517%" x2="0%" y1="50%" y2="50%">
      <stop offset="0%" stop-color="#FFECE5"/>
      <stop offset="100%" stop-color="#F6C9B5"/>
    </linearGradient>
    <path id="icon-b" d="M10.3311258,0 L111.212684,4.81263098e-14 C117.070895,0.440940196 120,3.44962013 120,9.02603979 C120,14.6024595 120,52.7702548 120,123.529426 C118.782233,130.111045 115.853127,133.917387 111.212684,134.948454 C106.278528,134.948454 72.651342,134.948454 10.3311258,134.948454 L10.3311258,0 Z"/>
    <linearGradient id="icon-d" x1=".258%" x2="101.258%" y1="49.75%" y2="49.75%">
      <stop offset="0%" stop-color="#3023AE"/>
      <stop offset="100%" stop-color="#53A0FD"/>
      <stop offset="100%" stop-color="#B4EC51"/>
    </linearGradient>
    <linearGradient id="icon-e" x1=".258%" x2="101.258%" y1="49.75%" y2="49.75%">
      <stop offset="0%" stop-color="#3023AE"/>
      <stop offset="100%" stop-color="#53A0FD"/>
      <stop offset="100%" stop-color="#B4EC51"/>
    </linearGradient>
    <linearGradient id="icon-f" x1="55.251%" x2="55.251%" y1="100%" y2="-2.404%">
      <stop offset="0%" stop-color="#4D88E8"/>
      <stop offset="100%" stop-color="#77A5D2"/>
    </linearGradient>
    <linearGradient id="icon-g" x1="55.251%" x2="55.251%" y1="100%" y2="-2.404%">
      <stop offset="0%" stop-color="#4D88E8"/>
      <stop offset="100%" stop-color="#77A5D2"/>
    </linearGradient>
  </defs>
  <g fill="none" fill-rule="evenodd">
    <path fill="url(#icon-a)" fill-rule="nonzero" d="M10.4049717,-5.68434189e-14 L111.2186,4.78638378e-14 C117.072867,0.439837645 120,3.44099451 120,9.00347059 C120,14.5659467 120,59.0900574 120,142.575803 C119.076567,150.169453 116.149434,153.966278 111.2186,153.966278 C106.287767,153.966278 72.6832243,153.966278 10.4049717,153.966278 C5.04575231,154.370712 1.65612745,151.137336 0.236097092,144.266147 C0.236097092,133.238404 -0.295121365,16.5398837 0.236097092,9.00347059 C0.59024273,3.97919515 3.97986759,0.978038285 10.4049717,-5.68434189e-14 Z"/>
    <mask id="icon-c" fill="#fff">
      <use xlink:href="#icon-b"/>
    </mask>
    <use fill="#C9CBC9" fill-rule="nonzero" xlink:href="#icon-b"/>
    <g mask="url(#icon-c)">
      <g transform="translate(9.536 -.794)">
        <path fill="#FFECE5" d="M4,0 L113.615894,0 C115.825033,-4.05812251e-16 117.615894,1.790861 117.615894,4 L117.615894,132.536082 C117.615894,134.745221 115.825033,136.536082 113.615894,136.536082 L4,136.536082 C1.790861,136.536082 1.59674182e-14,134.745221 0,132.536082 L0,4 C-2.705415e-16,1.790861 1.790861,4.05812251e-16 4,0 Z"/>
        <path fill="#F6C9B5" d="M4,93.9793814 L113.615894,93.9793814 C115.825033,93.9793814 117.615894,95.7702424 117.615894,97.9793814 L117.615894,132.536082 C117.615894,134.745221 115.825033,136.536082 113.615894,136.536082 L4,136.536082 C1.790861,136.536082 2.705415e-16,134.745221 0,132.536082 L0,97.9793814 C-2.705415e-16,95.7702424 1.790861,93.9793814 4,93.9793814 Z"/>
        <g transform="translate(2.614 54.614)">
          <polygon fill="#D9BBAC" points=".609 19.86 .609 39.115 1.138 39.115 1.329 39.115 1.329 40.074 2.446 40.074 2.446 39.115 14.907 39.115 14.907 40.074 16.023 40.074 16.023 39.115 16.214 39.115 16.744 39.115 16.744 19.86"/>
          <polygon fill="#832B30" points="0 39.01 16.135 39.01 16.135 19.86 0 19.86"/>
          <polygon fill="#9F383D" points=".609 24.825 15.526 24.825 15.526 20.569 .609 20.569"/>
          <polygon fill="#9F383D" points=".609 29.435 15.526 29.435 15.526 25.179 .609 25.179"/>
          <polygon fill="#9F383D" points=".609 34.045 15.526 34.045 15.526 29.79 .609 29.79"/>
          <polygon fill="#9F383D" points=".609 39.01 15.526 39.01 15.526 34.755 .609 34.755"/>
          <path fill="#78262A" d="M8.22847328 22.7017387C8.22847328 22.9003066 8.09021083 23.060879 7.91958305 23.060879 7.74923918 23.060879 7.61069282 22.9003066 7.61069282 22.7017387 7.61069282 22.5028404 7.74923918 22.342268 7.91958305 22.342268 8.09021083 22.342268 8.22847328 22.5028404 8.22847328 22.7017387M8.22847328 27.3118828C8.22847328 27.5103594 8.09021083 27.6711883 7.91958305 27.6711883 7.74923918 27.6711883 7.61069282 27.5103594 7.61069282 27.3118828 7.61069282 27.1130759 7.74923918 26.9525773 7.91958305 26.9525773 8.09021083 26.9525773 8.22847328 27.1130759 8.22847328 27.3118828M8.22847328 31.9221921C8.22847328 32.1206687 8.09021083 32.2814976 7.91958305 32.2814976 7.74923918 32.2814976 7.61069282 32.1206687 7.61069282 31.9221921 7.61069282 31.7237154 7.74923918 31.5628866 7.91958305 31.5628866 8.09021083 31.5628866 8.22847328 31.7237154 8.22847328 31.9221921M8.22847328 36.8871405C8.22847328 37.0856172 8.09021083 37.246446 7.91958305 37.246446 7.74923918 37.246446 7.61069282 37.0856172 7.61069282 36.8871405 7.61069282 36.6886639 7.74923918 36.5278351 7.91958305 36.5278351 8.09021083 36.5278351 8.22847328 36.6886639 8.22847328 36.8871405"/>
          <polygon fill="#865E31" points=".609 40.074 1.827 40.074 1.827 38.656 .609 38.656"/>
          <polygon fill="#865E31" points="14.308 40.074 15.526 40.074 15.526 38.656 14.308 38.656"/>
          <polygon fill="#926735" points="0 39.01 16.135 39.01 16.135 19.86 0 19.86"/>
          <g transform="translate(3.349)">
            <polygon fill="#3E3D4B" points="5.788 19.624 2.437 19.624 2.158 13.832 6.067 13.832"/>
            <polygon stroke="#36343F" stroke-width=".72" points="5.788 19.624 2.437 19.624 2.158 13.832 6.067 13.832"/>
            <path fill="#5ABA8A" d="M1.343362,8.56836116 C1.343362,8.56836116 1.99494011,6.2290269 2.97230726,6.61891594 C3.94967442,7.00880499 3.94967442,8.17847212 3.94967442,8.17847212 L3.94967442,13.6369187 L4.27546347,13.6369187 L4.27546347,8.9582502 C4.27546347,8.9582502 5.0899361,7.20374951 6.39309231,7.59363855 C7.39259642,7.89255348 7.85914305,9.34813924 7.85914305,9.34813924 C7.85914305,9.34813924 7.48782706,7.49266729 6.88177589,7.00880499 C5.90440873,6.2290269 4.438358,8.37341664 4.438358,8.37341664 C4.438358,8.37341664 5.41572516,4.08463717 6.71888136,4.86441525 C8.02203757,5.64419334 8.1849321,6.2290269 8.1849321,6.2290269 C8.1849321,6.2290269 8.02203757,3.69474812 6.71888136,3.69474812 C5.41572516,3.69474812 4.76414705,5.25430429 4.76414705,5.25430429 C4.438358,4.08463717 6.71888136,1.74530291 7.69624852,2.13519195 C7.91469426,2.22266706 6.39309231,0.965524822 5.41572516,2.13519195 C4.58496307,3.12890915 4.27546347,4.27958169 4.27546347,4.27958169 L4.60125253,1.94024743 C4.60125253,1.94024743 4.76414705,0.575635779 6.39309231,0.185746737 C6.39309231,0.185746737 5.0899361,-0.204142306 4.27546347,0.770580301 C3.1235068,2.14868811 1.99494011,0.380691258 1.343362,2.33013647 C0.691783899,4.27958169 0.0402057947,5.05935977 0.0402057947,5.05935977 C0.0402057947,5.05935977 3.13520179,1.35541387 3.7867799,2.13519195 C4.11256895,2.52508099 3.94967442,3.88969264 3.94967442,3.88969264 L3.62388537,5.83913786 C3.62388537,5.83913786 2.97230726,3.4998036 1.99494011,3.88969264 C1.01757295,4.27958169 0.365994847,5.05935977 0.365994847,5.05935977 C0.365994847,5.05935977 1.343362,4.27958169 1.99494011,5.05935977 L2.64651821,5.83913786 C2.64651821,5.83913786 1.343362,6.2290269 1.343362,7.39869403 L1.343362,8.56836116 Z"/>
          </g>
          <polygon fill="#AE7C42" points=".609 24.825 15.526 24.825 15.526 20.569 .609 20.569"/>
          <polygon fill="#AE7C42" points=".609 29.435 15.526 29.435 15.526 25.179 .609 25.179"/>
          <polygon fill="#AE7C42" points=".609 34.045 15.526 34.045 15.526 29.79 .609 29.79"/>
          <polygon fill="#AE7C42" points=".609 39.01 15.526 39.01 15.526 34.755 .609 34.755"/>
          <path fill="#865E31" d="M8.22847328 22.7017387C8.22847328 22.9003066 8.09021083 23.060879 7.91958305 23.060879 7.74923918 23.060879 7.61069282 22.9003066 7.61069282 22.7017387 7.61069282 22.5028404 7.74923918 22.342268 7.91958305 22.342268 8.09021083 22.342268 8.22847328 22.5028404 8.22847328 22.7017387M8.22847328 27.3118828C8.22847328 27.5103594 8.09021083 27.6711883 7.91958305 27.6711883 7.74923918 27.6711883 7.61069282 27.5103594 7.61069282 27.3118828 7.61069282 27.1130759 7.74923918 26.9525773 7.91958305 26.9525773 8.09021083 26.9525773 8.22847328 27.1130759 8.22847328 27.3118828M8.22847328 31.9221921C8.22847328 32.1206687 8.09021083 32.2814976 7.91958305 32.2814976 7.74923918 32.2814976 7.61069282 32.1206687 7.61069282 31.9221921 7.61069282 31.7237154 7.74923918 31.5628866 7.91958305 31.5628866 8.09021083 31.5628866 8.22847328 31.7237154 8.22847328 31.9221921M8.22847328 36.8871405C8.22847328 37.0856172 8.09021083 37.246446 7.91958305 37.246446 7.74923918 37.246446 7.61069282 37.0856172 7.61069282 36.8871405 7.61069282 36.6886639 7.74923918 36.5278351 7.91958305 36.5278351 8.09021083 36.5278351 8.22847328 36.6886639 8.22847328 36.8871405"/>
        </g>
        <path fill="#FCBCA0" d="M8.01800206,91.8515464 L41.8660075,91.8515464 C42.9432475,91.8515464 43.816523,92.7248219 43.816523,93.8020619 L43.816523,93.8020619 C43.816523,94.8793018 42.9432475,95.7525773 41.8660075,95.7525773 L8.01800206,95.7525773 C6.94076212,95.7525773 6.0674866,94.8793018 6.0674866,93.8020619 L6.0674866,93.8020619 C6.0674866,92.7248219 6.94076212,91.8515464 8.01800206,91.8515464 Z"/>
        <g transform="translate(13.863 33.375)">
          <g transform="translate(26)">
            <path fill="#DDE0E3" d="M1,29.7896907 L18.2125649,29.7896907 L18.2125649,0 L1,0 C0.44771525,1.01453063e-16 -6.76353751e-17,0.44771525 0,1 L0,28.7896907 C2.02974496e-15,29.3419755 0.44771525,29.7896907 1,29.7896907 Z"/>
            <polygon fill="#FFF" points=".729 28.939 17.484 28.939 17.484 .851 .729 .851"/>
            <polygon fill="#C6E3FD" points="2.186 28.087 16.756 28.087 16.756 2.553 2.186 2.553"/>
            <g transform="translate(2.186 2.553)">
              <polygon fill="#FFF" points=".056 4.784 .056 7.398 14.879 25.488 14.879 22.874"/>
              <polygon fill="#FFF" points=".056 .007 .056 1.313 14.879 19.403 14.879 19.403 14.879 18.097"/>
              <path fill="#FBB03B" d="M15.4297987,20.246632 C15.1255516,20.246632 14.8788731,16.0234128 14.8788731,15.707653 C14.8788731,15.3920017 15.1255516,15.1360096 15.4297987,15.1360096 C15.7340459,15.1360096 15.9805154,15.3920017 15.9805154,15.707653 C15.9805154,16.0234128 15.7340459,20.246632 15.4297987,20.246632 Z"/>
            </g>
            <g transform="matrix(-1 0 0 1 36.227 0)">
              <path fill="#DDE0E3" d="M2,29.7896907 L18.2125649,29.7896907 L18.2125649,0 L2,0 C0.8954305,2.02906125e-16 -1.3527075e-16,0.8954305 0,2 L0,27.7896907 C1.3527075e-16,28.8942602 0.8954305,29.7896907 2,29.7896907 Z"/>
              <polygon fill="#FFF" points=".729 28.939 17.484 28.939 17.484 .851 .729 .851"/>
              <polygon fill="#C6E3FD" points="2.186 28.087 16.756 28.087 16.756 2.553 2.186 2.553"/>
              <g transform="translate(2.186 2.553)">
                <polygon fill="#FFF" points=".056 4.784 .056 7.398 14.879 25.488 14.879 22.874"/>
                <polygon fill="#FFF" points=".056 .007 .056 1.313 14.879 19.403 14.879 19.403 14.879 18.097"/>
                <path fill="#FBB03B" d="M15.4297987,20.246632 C15.1255516,20.246632 14.8788731,16.0234128 14.8788731,15.707653 C14.8788731,15.3920017 15.1255516,15.1360096 15.4297987,15.1360096 C15.7340459,15.1360096 15.9805154,15.3920017 15.9805154,15.707653 C15.9805154,16.0234128 15.7340459,20.246632 15.4297987,20.246632 Z"/>
              </g>
            </g>
          </g>
          <ellipse cx="37.873" cy="77.489" fill="#000" fill-opacity=".294" rx="34.096" ry="3.014"/>
          <g transform="translate(22.956 59.225)">
            <path fill="#7E7E85" d="M2.99608958,0 L7.65888037,-4.4408921e-16 C9.31357496,-7.48051674e-16 10.65497,1.341395 10.65497,2.99608958 L10.65497,2.99608958 L0,2.99608958 L0,2.99608958 C-2.02641643e-16,1.341395 1.341395,3.03962464e-16 2.99608958,0 Z"/>
            <path fill="#3E3D4B" d="M3.55165665,0 L9.15953557,1.66316382e-16 C9.98544118,-1.51981232e-16 10.65497,0.670697499 10.65497,1.49804479 L10.65497,2.99608958 L3.55165665,2.99608958 L7.66410119,2.99608958 L7.66410119,1.49804479 C7.66410119,0.670697499 6.99457242,-1.51981232e-16 6.16866682,0 L3.55165665,0 Z"/>
            <polygon fill="#B1DDE0" points="4.566 3.595 5.581 3.595 5.581 8.389 4.566 8.389"/>
            <polygon fill="#FFF" points="4.566 4.794 5.184 4.794 5.184 7.79 4.566 7.79"/>
            <polygon fill="#3E3D4B" points="4.566 8.389 6.089 8.389 6.089 13.782 4.566 13.782"/>
            <path fill="#3E3D4B" d="M8.42250006,16.7781017 L8.42250006,16.1380377 C8.42250006,15.3096106 7.75092718,14.6380377 6.92250006,14.6380377 L4.23984942,14.6380377 C3.41142229,14.6380377 2.73984942,15.3096106 2.73984942,16.1380377 L2.73984942,16.7781017 L2.02951809,16.7781017 L2.02951809,16.2820121 C2.02951809,14.9013002 3.14880621,13.7820121 4.52951809,13.7820121 L6.63283139,13.7820121 C8.01354326,13.7820121 9.13283139,14.9013002 9.13283139,16.2820121 L9.13283139,16.7781017 L8.42250006,16.7781017 Z"/>
            <polygon fill="#3E3D4B" points="4.566 14.381 5.581 14.381 5.581 16.778 4.566 16.778"/>
            <polygon fill="#292833" points="4.566 16.179 5.581 16.179 5.581 17.377 4.566 17.377"/>
            <ellipse cx="2.283" cy="16.478" fill="#3E3D4B" rx="1" ry="1"/>
            <ellipse cx="8.879" cy="16.478" fill="#3E3D4B" rx="1" ry="1"/>
            <ellipse cx="2.537" cy="16.778" fill="#D8D8D8" rx="1" ry="1"/>
            <ellipse cx="8.625" cy="16.778" fill="#D8D8D8" rx="1" ry="1"/>
            <path fill="#E3F8F3" d="M1.19843583,2.99608958 L9.45653412,2.99608958 C10.118412,2.99608958 10.65497,3.53264758 10.65497,4.19452542 L10.65497,4.19452542 L0,4.19452542 L0,4.19452542 C-8.10566572e-17,3.53264758 0.536557999,2.99608958 1.19843583,2.99608958 Z" transform="matrix(1 0 0 -1 0 7.19)"/>
            <path fill="#8BCFD0" d="M3.55165665,2.99608958 L10.65497,2.99608958 C10.65497,3.65796742 10.1528234,4.19452542 9.53339417,4.19452542 L3.55165665,4.19452542 L6.54252541,4.19452542 C7.16195461,4.19452542 7.66410119,3.65796742 7.66410119,2.99608958 L3.55165665,2.99608958 Z"/>
          </g>
          <g transform="translate(37.568 12.767)">
            <g transform="translate(8.631)">
              <path fill="#AD8D7F" d="M13.6063805,0.187865076 C21.1209455,0.187865076 27.2124829,2.44802771 27.2124829,5.23620058 C27.2124829,8.02379258 21.1209455,10.2845361 13.6063805,10.2845361 C6.09181551,10.2845361 8.66862138e-13,8.02379258 8.66862138e-13,5.23620058 C8.66862138e-13,2.44802771 6.09181551,0.187865076 13.6063805,0.187865076" transform="translate(20.155 59.015)"/>
              <path stroke="#A1A1A9" stroke-width="3.84" d="M31.9005849,18.4278284 L31.9005849,1.03401084 C31.9005849,0.481726093 31.4528697,0.0340108429 30.9005849,0.0340108429 L1.06051362,0.0340108429 C0.508228868,0.0340108429 0.0605136178,0.481726093 0.0605136178,1.03401084 L0.0605136178,6.09578252"/>
            </g>
            <polygon fill="#D0D3E3" points="37.063 37.484 43.664 37.484 43.664 17.849 37.063 17.849"/>
            <path fill="#D0D3E3" d="M33.4783844,31.5337971 L47.756156,31.5337971 C48.8607255,31.5337971 49.756156,30.6383666 49.756156,29.5337971 L49.756156,19.8493191 C49.756156,18.7447496 48.8607255,17.8493191 47.756156,17.8493191 L33.4783844,17.8493191 C32.3738149,17.8493191 31.4783844,18.7447496 31.4783844,19.8493191 L31.4783844,29.5337971 C31.4783844,30.6383666 32.3738149,31.5337971 33.4783844,31.5337971 Z"/>
            <polygon fill="#3E3D4B" points="33.002 30.344 47.725 30.344 47.725 20.824 33.002 20.824"/>
            <path fill="#D0D3E3" d="M31.4783844,63.0675941 L49.756156,63.0675941 L49.756156,36.5086836 C49.756156,35.4041141 48.8607255,34.5086836 47.756156,34.5086836 L33.4783844,34.5086836 C32.3738149,34.5086836 31.4783844,35.4041141 31.4783844,36.5086836 L31.4783844,63.0675941 Z"/>
            <polygon fill="#FDF3F3" points="33.509 59.498 46.71 59.498 46.71 49.978 33.509 49.978"/>
            <polygon fill="#FDF3F3" points="33.509 47.598 46.71 47.598 46.71 38.079 33.509 38.079"/>
            <g transform="translate(0 5.355)">
              <path fill="#A1A1A9" d="M2.56934647,0.219962682 L14.1991514,0.219962682 C15.6123323,0.219962682 16.7685239,2.00993281 16.7685239,4.19832158 C16.7685239,4.26457133 16.7672233,4.33020766 16.7654025,4.39584399 L0.00309531611,4.39584399 C0.00101443133,4.33020766 -2.60110597e-05,4.26457133 -2.60110597e-05,4.19832158 C-2.60110597e-05,2.00993281 1.15616559,0.219962682 2.56934647,0.219962682"/>
              <path fill="#FF9837" d="M0.789721784,5.67967828 L15.9765391,5.67967828 C16.4109238,5.67967828 16.7662349,5.12913058 16.7662349,4.45681829 C16.7662349,4.4362686 16.7657147,4.41633234 16.7651944,4.39578264 L0.00106645345,4.39578264 C0.000286121657,4.41633234 2.60110597e-05,4.4362686 2.60110597e-05,4.45681829 C2.60110597e-05,5.12913058 0.355337087,5.67967828 0.789721784,5.67967828"/>
              <path fill="#E84C3B" d="M35.4352308 34.001999C35.4352308 34.3185256 35.2326047 34.5749366 34.9823783 34.5749366 34.7321519 34.5749366 34.5295257 34.3185256 34.5295257 34.001999 34.5295257 33.6854724 34.7321519 33.4287546 34.9823783 33.4287546 35.2326047 33.4287546 35.4352308 33.6854724 35.4352308 34.001999M35.4352308 36.0278305C35.4352308 36.3443571 35.2326047 36.6007682 34.9823783 36.6007682 34.7321519 36.6007682 34.5295257 36.3443571 34.5295257 36.0278305 34.5295257 35.7113039 34.7321519 35.4545861 34.9823783 35.4545861 35.2326047 35.4545861 35.4352308 35.7113039 35.4352308 36.0278305"/>
              <path fill="#F1BD22" d="M35.4352308 37.9187088C35.4352308 38.2352354 35.2326047 38.4916465 34.9823783 38.4916465 34.7321519 38.4916465 34.5295257 38.2352354 34.5295257 37.9187088 34.5295257 37.6021822 34.7321519 37.3454644 34.9823783 37.3454644 35.2326047 37.3454644 35.4352308 37.6021822 35.4352308 37.9187088M35.4352308 39.9445403C35.4352308 40.2610669 35.2326047 40.517478 34.9823783 40.517478 34.7321519 40.517478 34.5295257 40.2610669 34.5295257 39.9445403 34.5295257 39.6280137 34.7321519 39.3712959 34.9823783 39.3712959 35.2326047 39.3712959 35.4352308 39.6280137 35.4352308 39.9445403"/>
              <path fill="#E84C3B" d="M35.4352308 46.3504619C35.4352308 46.6669884 35.2326047 46.9233995 34.9823783 46.9233995 34.7321519 46.9233995 34.5295257 46.6669884 34.5295257 46.3504619 34.5295257 46.0339353 34.7321519 45.7772175 34.9823783 45.7772175 35.2326047 45.7772175 35.4352308 46.0339353 35.4352308 46.3504619M35.4352308 48.3762627C35.4352308 48.6927893 35.2326047 48.9492004 34.9823783 48.9492004 34.7321519 48.9492004 34.5295257 48.6927893 34.5295257 48.3762627 34.5295257 48.0597361 34.7321519 47.8030183 34.9823783 47.8030183 35.2326047 47.8030183 35.4352308 48.0597361 35.4352308 48.3762627"/>
              <path fill="#F1BD22" d="M35.4352308 50.2671717C35.4352308 50.5836983 35.2326047 50.8401093 34.9823783 50.8401093 34.7321519 50.8401093 34.5295257 50.5836983 34.5295257 50.2671717 34.5295257 49.9506451 34.7321519 49.6939273 34.9823783 49.6939273 35.2326047 49.6939273 35.4352308 49.9506451 35.4352308 50.2671717M35.4352308 52.2930032C35.4352308 52.6095298 35.2326047 52.8659408 34.9823783 52.8659408 34.7321519 52.8659408 34.5295257 52.6095298 34.5295257 52.2930032 34.5295257 51.9764766 34.7321519 51.7197588 34.9823783 51.7197588 35.2326047 51.7197588 35.4352308 51.9764766 35.4352308 52.2930032"/>
            </g>
          </g>
          <g transform="translate(.124 4.61)">
            <g transform="translate(7.281)">
              <polygon fill="#511E14" points="12.479 44.546 11.817 71.674 10.45 71.868 8.932 48.005"/>
              <polygon fill="#FDEBCD" points="3.359 44.546 4.022 71.674 5.388 71.868 6.906 48.005"/>
              <path fill="#333" d="M2.46052983,72.4617216 L5.38576358,72.4617216 L5.38576358,70.707969 C5.38576358,70.707969 3.46083006,70.4602179 2.69418267,71.4361946 C2.08427392,72.2127521 2.46052983,72.4617216 2.46052983,72.4617216"/>
              <path fill="#333" d="M2.50372433 71.5983826C2.50372433 71.5983826 3.22423414 71.1425012 4.0684759 71.31133 4.91271766 71.4801588 5.38576358 72.090909 5.38576358 72.090909L5.38576358 72.4333653 2.43091743 72.4617216C2.43091743 72.4617216 2.19737836 72.2082602 2.50372433 71.5983826M14.3719052 72.4617216L10.9591325 72.4617216 10.9591325 70.707969C10.9591325 70.707969 13.2048883 70.4602179 14.0993102 71.4361946 14.8108704 72.2127521 14.3719052 72.4617216 14.3719052 72.4617216"/>
              <path fill="#333" d="M14.3215116,71.5983826 C14.3215116,71.5983826 13.4809168,71.1425012 12.4959681,71.31133 C11.5114835,71.4801588 10.9591325,72.090909 10.9591325,72.090909 L10.9591325,72.4333653 L14.406453,72.4617216 C14.406453,72.4617216 14.6789152,72.2082602 14.3215116,71.5983826"/>
              <path fill="#6F2C1F" d="M13.5564418,69.8350753 C13.5564418,69.8350753 14.0134286,69.2612029 13.9988084,69.076932 C13.9837705,68.892661 13.9307199,56.4531759 13.9307199,56.4531759 C13.9307199,56.4531759 13.6688088,45.5783186 13.4532647,43.2172575 C13.4532647,43.2143857 13.452847,43.2124712 13.4524293,43.2095995 C13.4027205,40.5891231 12.8392148,38.6066549 12.8392148,38.6066549 L4.01235119,38.6066549 C4.01235119,38.6066549 3.44884549,40.5891231 3.39913669,43.2095995 C3.39871897,43.2124712 3.39830125,43.2143857 3.39830125,43.2172575 C3.18275718,45.5783186 2.9212638,56.4531759 2.9212638,56.4531759 C2.9212638,56.4531759 2.86779551,68.892661 2.85275755,69.076932 C2.83813731,69.2612029 3.29512415,69.8350753 3.29512415,69.8350753 C3.29512415,69.8350753 3.09336488,70.2548301 2.94966884,70.6597476 C2.69820076,71.3671565 4.4350849,71.20921 4.4350849,71.20921 L5.69952653,71.2738245 L5.73002016,70.9019322 L5.56167858,69.8068363 L5.78014669,69.0683167 L6.65569002,56.6719079 L7.395474,46.5882191 C7.59263834,46.6207657 7.7605622,46.6375176 7.88671396,46.6375176 L8.96443428,46.6375176 C9.09058604,46.6375176 9.25892762,46.6207657 9.45609196,46.5882191 L10.1954582,56.6719079 L11.0710015,69.0683167 L11.2898874,69.8068363 L11.1215458,70.9019322 L11.1520394,71.2738245 L12.4164811,71.20921 C12.4164811,71.20921 14.1533652,71.3671565 13.9018971,70.6597476 C13.7582011,70.2548301 13.5564418,69.8350753 13.5564418,69.8350753"/>
              <path fill="#A0774F" d="M7.91346846,0.885490375 C8.1739467,0.494529862 8.71781562,0.0732990857 9.85680497,0.00655862498 C12.0551931,-0.123275277 16.324142,1.66631729 17.1857703,6.1072932 C17.7447132,7.98952007 17.5963853,11.4640357 17.1266803,14.2277473 C15.8568489,21.6975731 8.99276488,21.631562 8.99276488,21.631562 C8.99276488,21.631562 8.35332698,21.4539521 7.47572031,20.9838513 C7.53360436,21.6848085 7.86342288,22.1636622 7.8278483,23.3566023 C7.76363318,25.498497 4.23451479,27.014055 4.24054438,26.9513263 C4.24325769,26.9221501 5.36988638,25.7807763 5.01775839,24.964938 C4.53931051,23.8580675 4.10849638,23.0502527 4.24054438,21.9036297 C4.36354799,20.8350529 4.90078436,20.0451084 5.72080846,19.7930994 C4.05513452,18.381338 2.08466486,15.3433706 2.18113828,11.4939413 C2.32584842,5.7385795 3.9981549,1.83079788 7.91346846,0.885490375"/>
              <path fill="#F5C4A2" d="M11.3281876,23.5309331 L10.4465869,22.9774415 L10.4465869,21.3243621 L9.44643761,20.7881988 L8.27864337,21.1815302 L7.96339722,22.8663471 L6.84714009,23.1528274 C6.7464057,24.0831925 7.65168642,24.8545245 8.99649063,24.9398831 C9.89302677,24.9967888 10.6702591,24.5271388 11.3281876,23.5309331 Z"/>
              <g transform="translate(2.346 1.782)">
                <path fill="#F8D6B6" d="M14.6097965,12.1264134 C15.0340259,7.7231252 13.9446467,1.93964033 9.01594542,1.23698795 C4.39471029,0.578930581 2.06807244,6.65172086 1.920501,12.5510028 C1.87151591,14.5128083 3.83585958,19.1574455 7.56765033,20.1441455 C10.9165064,20.621056 14.1858752,16.5304512 14.6097965,12.1264134 Z"/>
                <ellipse cx="5.067" cy="13.958" fill="#ECBD98" rx="1.013" ry="1"/>
                <ellipse cx="12.459" cy="14.944" fill="#ECBD98" rx="1.013" ry="1" transform="rotate(11 12.459 14.944)"/>
                <path fill="#F8D6B6" d="M2.0266796,9.60746064 C1.81540498,9.55846354 1.64707798,9.52638629 1.5383235,9.5129914 C0.668634028,9.40935723 0.124168933,10.1390264 0.0129899915,11.1055736 C-0.0981889497,12.0728258 0.516585569,12.9403213 1.38627504,13.044308 C1.49225871,13.0566454 1.65781489,13.0651053 1.8670114,13.0668678 L2.0266796,9.60746064 Z"/>
                <path fill="#A0774F" d="M14.6934271,7.11399422 C14.6934271,7.11399422 14.6763283,5.4257728 13.8272006,4.12599768 C12.9784149,2.82622256 10.7723243,0.341855101 7.73386297,0.0381914241 C4.69574358,-0.265134474 3.40546618,1.33796654 3.40546618,1.33796654 C2.3803342,3.62467878 11.8404401,8.68954251 14.6934271,7.11399422 Z"/>
                <path fill="#676564" fill-rule="nonzero" d="M7.74264522,8.22598283 C7.69773126,8.12814211 7.60543715,7.99435219 7.45525566,7.86392144 C7.2527553,7.68805239 6.99585083,7.57046999 6.68186265,7.53670445 C6.60247617,7.52818419 6.52020875,7.5323093 6.43542798,7.5478213 C6.23677285,7.58416844 6.03093125,7.68072775 5.82437938,7.81844542 C5.73343902,7.87907957 5.64830172,7.94385682 5.571056,8.00873465 C5.52421361,8.04807705 5.4898838,8.07922101 5.47029833,8.09812518 C5.40141626,8.16461111 5.39172258,8.28372804 5.44864688,8.3641803 C5.50557118,8.44463255 5.60755739,8.4559545 5.67643946,8.38946857 C5.73751466,8.33051795 5.84697962,8.23857953 5.98480882,8.14668244 C6.16012471,8.02979123 6.33149769,7.94940099 6.48550996,7.92122197 C6.54500139,7.91033706 6.6007235,7.90754301 6.65222257,7.91307021 C6.90609376,7.94037091 7.10667137,8.03217312 7.26216359,8.16721618 C7.37080334,8.26156846 7.43357436,8.35256158 7.45745177,8.40457622 C7.49967646,8.49655859 7.59774905,8.53114555 7.67650305,8.48182835 C7.75525705,8.43251115 7.78486991,8.31796521 7.74264522,8.22598283 Z"/>
                <path fill="#352311" d="M6.1030273,10.9488241 C6.01985762,11.4399417 6.1694904,11.8563953 6.43679556,11.8780883 C6.70373754,11.8997812 6.98774928,11.5188939 7.07055577,11.0272718 C7.15336226,10.5359019 7.00372948,10.120205 6.7367875,10.0980076 C6.46984552,10.0763147 6.18619697,10.457202 6.1030273,10.9488241"/>
                <ellipse cx="6.984" cy="11.088" fill="#FFF" rx="1" ry="1"/>
                <path fill="#676564" fill-rule="nonzero" d="M11.7742381,8.77516875 C11.7954365,8.74736694 11.8452538,8.69748333 11.9214132,8.64571111 C12.0718738,8.54342982 12.2517813,8.48893085 12.4623847,8.50792144 C12.5812372,8.51895408 12.7134733,8.6069518 12.8440933,8.75091479 C12.9344446,8.85049561 13.0028344,8.95083204 13.0386438,9.01379383 C13.0880886,9.10072986 13.1885117,9.12438974 13.2629451,9.06663966 C13.3373785,9.00888958 13.3576357,8.89159831 13.308191,8.80466229 C13.2598946,8.71974559 13.1770924,8.59826428 13.0661848,8.47602736 C12.8869485,8.27848177 12.6943359,8.1503059 12.4876575,8.13112156 C12.2077081,8.10587739 11.9633299,8.17990634 11.7586341,8.31905602 C11.65043,8.39261184 11.5750858,8.46805627 11.5325773,8.52380648 C11.4731479,8.60174844 11.4790685,8.72120225 11.5458013,8.79061402 C11.6125341,8.8600258 11.7148087,8.85311072 11.7742381,8.77516875 Z"/>
                <path fill="#352311" d="M12.1370891,11.6214936 C12.0542826,12.1127446 11.7702709,12.4937354 11.5033289,12.4720366 C11.2363869,12.4503377 11.0867541,12.0340233 11.1695606,11.5427723 C11.2523671,11.0507644 11.5363789,10.670026 11.8033208,10.6919771 C12.070626,10.7136759 12.2202588,11.129738 12.1370891,11.6214936"/>
                <ellipse cx="12.051" cy="11.682" fill="#FFF" rx="1" ry="1"/>
                <path fill="#231916" d="M7.60008018,16.630559 L9.6267281,16.9044408 C9.6267281,16.9044408 9.05960477,18.2182514 8.29453359,18.1089726 C7.58372085,18.008458 7.60008018,16.630559 7.60008018,16.630559"/>
                <ellipse cx="8.613" cy="17.621" fill="#B31E2B" rx="1" ry="1"/>
                <path fill="#ECBD98" d="M9.81168497,11.8789707 C10.1610298,13.8017715 10.2258622,14.7872332 10.0061822,14.8353558 C9.78650213,14.8834783 9.49112748,14.8015754 9.1200582,14.5896471 L9.81168497,11.8789707 Z"/>
              </g>
              <path fill="#FFF" d="M9.31703216,25.7310513 C9.0248799,25.7025346 8.2151894,24.8435858 6.88796067,23.154205 C6.47944569,23.2080026 6.20162197,23.2721416 6.05448951,23.3466222 C6.01852819,23.3648263 5.8953812,23.6264202 5.8953812,23.6264202 C5.834714,24.4187972 5.8953812,27.1181879 5.8953812,27.1181879 L12.5218182,27.9566182 C12.5218182,27.9566182 12.9373546,25.1309685 12.9858121,24.3376696 C12.9858121,24.3376696 12.8988176,24.0560278 12.866767,24.0297535 C12.6087387,23.8252554 12.0266975,23.6681775 11.4172579,23.5526336 C11.2642842,23.5236313 9.96910913,25.7951237 9.31703216,25.7310513 Z"/>
              <g transform="matrix(-1 0 0 1 12.72 22.88)">
                <polygon fill="#F5C4A2" points="2.001 1.007 1.631 .832 3.517 2.78 4.748 1.504 4.95 1.007"/>
                <polygon fill="#FF7B00" points="4.53 .24 3.342 .477 5.187 4.274 6.958 2.766" transform="matrix(-1 0 0 1 10.3 0)"/>
                <polygon fill="#FF7B00" points=".883 .738 .147 .983 1.727 4.274 3.498 2.766 1.464 .638"/>
              </g>
              <path fill="#FFBC93" d="M5.30048455,23.7579415 L5.13775024,23.7881213 C4.92455266,23.8542505 1.54155684,30.3952735 1.54155684,30.3952735 C0.731406017,32.1368242 2.51209484,32.3933523 2.85829642,31.7538073 C2.90680377,31.663268 5.38576358,27.203762 5.38576358,27.203762 L5.30048455,23.7579415 Z"/>
              <path fill="#FFBC93" d="M13.676608,24.0048884 L13.8102772,24.1213123 C13.9754208,24.299797 14.7284756,31.8639862 14.812796,35.066126 C14.8687505,37.2002444 13.2371318,36.4906356 13.1730172,35.681441 C13.1636914,35.5679036 12.2808532,27.3171979 12.2808532,27.3171979 L13.676608,24.0048884 Z" transform="rotate(-6 13.548 30.241)"/>
              <path fill="#FFF" d="M11.9724723 27.5721049L12.363487 29.1034783 14.5058218 27.8262933C14.5058218 27.8262933 13.5832606 24.4121421 13.2132054 24.1196025 12.9926153 23.9443463 12.4813412 23.8270629 12.4813412 23.8270629 12.3188193 23.7878198 12.0576846 23.7579415 12.0576846 23.7579415L11.9724723 27.5721049zM6.04274704 27.13131L5.40843493 28.6114257 2.82594256 27.154102C2.82594256 27.154102 4.14890888 24.4491094 4.51090448 24.0765218 4.85243661 23.7249964 6.12177088 23.2280498 6.38926933 23.2449794L6.04274704 27.13131z"/>
              <path fill="#FFF" d="M5.52430613,26.8724011 C5.30206079,29.7827876 5.13589219,31.8979559 5.02580035,33.217906 C4.8387679,34.3646211 3.37053259,40.9689779 3.35908398,43.5507076 L13.9400526,44.5461403 C14.3039548,41.9982404 12.8683809,34.1589763 12.8683809,34.1589763 C12.8573412,32.3567241 12.672607,27.2700102 12.672607,27.2700102 L5.52430613,26.8724011 Z"/>
              <path stroke="#FF4500" stroke-linecap="round" stroke-linejoin="round" stroke-width="1.029" d="M10.0558228 27.1168334C10.0416706 27.3143772 9.89224032 27.4610824 9.72241422 27.4451046 9.55258812 27.4281585 9.42605103 27.2548235 9.4402032 27.0572798 9.45435538 26.8597361 9.60378569 26.7120625 9.77361179 26.7290086 9.94343789 26.7449864 10.069975 26.9192897 10.0558228 27.1168334zM10.0558228 30.0865147C10.0416706 30.2840953 9.89224032 30.4308279 9.72241422 30.4148471 9.55258812 30.3988663 9.42605103 30.2245305 9.4402032 30.02695 9.45435538 29.8293694 9.60378569 29.6826368 9.77361179 29.6986176 9.94343789 29.7145984 10.069975 29.8889342 10.0558228 30.0865147zM10.0558227 33.6496791C10.0416692 33.8479629 9.89264142 33.9944994 9.72238339 33.97854 9.55254164 33.9616134 9.42640916 33.7884778 9.44014636 33.5911612 9.45471612 33.3938447 9.60374393 33.2463409 9.77358568 33.2623003 9.94342743 33.279227 10.0699762 33.4523626 10.0558227 33.6496791z"/>
              <path fill="#FEFEFE" d="M10.5624927,37.8079071 C10.5483405,38.0054508 10.3989102,38.1521561 10.2290841,38.1361783 C10.059258,38.1192321 9.93272093,37.9458972 9.9468731,37.7483535 C9.96102528,37.5508097 10.1104556,37.4031361 10.2802817,37.4200823 C10.4501078,37.4360601 10.5766449,37.6103634 10.5624927,37.8079071"/>
              <path stroke="#676564" stroke-linecap="round" stroke-linejoin="round" stroke-width="1.029" d="M10.5624927,37.8079071 C10.5483405,38.0054508 10.3989102,38.1521561 10.2290841,38.1361783 C10.059258,38.1192321 9.93272093,37.9458972 9.9468731,37.7483535 C9.96102528,37.5508097 10.1104556,37.4031361 10.2802817,37.4200823 C10.4501078,37.4360601 10.5766449,37.6103634 10.5624927,37.8079071 Z"/>
              <path fill="#F8D6B6" d="M3.6931865,36.3162209 L4.09152175,36.3162209 C4.45520879,36.3162209 4.7500354,36.6110475 4.7500354,36.9747346 C4.7500354,36.9979471 4.74880805,37.0211433 4.74635848,37.0442262 L4.74635848,37.0442262 L3.35908398,37.4187579 L3.6931865,36.3162209 Z"/>
              <polygon fill="#FEFEFE" points="12.8 37.19 11.466 36.825 11.473 37.844 12.986 38.607"/>
              <polygon stroke="#676564" stroke-linecap="round" stroke-linejoin="round" stroke-width="1.029" points="12.8 37.19 11.466 36.825 11.473 37.844 12.986 38.607"/>
              <polygon fill="#FFBC93" points="3.208 31.137 2.993 31.781 2.266 37.436 .319 38.013 1.258 31.347 1.381 30.842"/>
              <path fill="#FFBC93" d="M.871491223 39.5003447C-.311303562 38.8031421.589551568 36.5123337 1.84379681 36.2885836 3.09804206 36.0630799 4.20745529 36.4919928 3.76764874 37.6864958 3.32832496 38.8802973 2.62299305 39.220131 1.79407116 39.7668808 1.66903285 39.8496474 1.28281414 39.7426822.871491223 39.5003447M11.5454777 38.7924333C11.6814386 39.0652932 11.7403549 39.6969307 12.2199948 39.7356409 12.3340508 39.7450824 12.8620323 39.9036999 13.4447758 39.6572763 14.026764 39.4113248 14.4954514 39.1233585 14.7964537 38.5932173 15.097456 38.0630761 14.2208859 37.7864396 14.2208859 37.7864396L14.8126935 37.5560666C14.8126935 37.5560666 15.5117591 37.2765977 15.5189348 36.9730529 15.5336639 36.3371667 14.8266672 36.2484164 14.6570938 36.2328379 14.2994411 36.2016809 13.9210166 36.5510171 13.5516562 36.4193079 13.0066796 36.2248127 12.6796181 37.2204207 12.3816372 37.4644839 12.0523097 37.7340392 11.9325885 37.8213732 11.9325885 37.8213732 11.701455 37.9450571 11.292817 38.286368 11.5454777 38.7924333"/>
              <path fill="#FDEBCD" d="M1.83907428,11.8789707 C1.83907428,11.8789707 2.13138239,11.8952324 2.45685473,11.9882854 L1.83907428,11.8789707 Z"/>
              <polygon fill="#FFBC93" points="13.375 32.175 12.986 36.231 15.012 35.731 14.716 32.073"/>
            </g>
            <polygon fill="#666" points="4.053 73.056 6.587 73.056 6.587 53.455 4.053 53.455"/>
            <polygon fill="#666" points="65.867 73.056 68.4 73.056 68.4 53.455 65.867 53.455"/>
            <path fill="#3E3D4B" d="M10.133398,36.4152607 L11.5525309,40.9824491 C12.5753749,40.5615464 13.1734174,39.843976 13.1734174,39.843976 L12.694839,38.3037133 C12.694839,38.3037133 12.1931618,36.9304821 11.3460853,36.4372823 C10.569388,35.986048 10.133398,36.4152607 10.133398,36.4152607"/>
            <path fill="url(#icon-d)" d="M28.9367753,42.4296606 C29.8612089,42.1651146 30.7029215,42.1703538 30.7029215,42.1703538 L31.4135338,42.2282309 L31.4135338,49.4518905 C31.4135338,49.4518905 29.6665307,50.0683263 28.4613945,50.3777995 L28.2839486,51.6735228 C28.2839486,51.6735228 26.508312,50.8892648 25.4587246,49.9517822 C24.4326567,49.6023838 23.5469377,49.2102429 23.5469377,49.2102429 C19.9216371,49.0074616 6.70817418,48.986761 6.56997775,48.986761 C6.39330618,48.986761 5.93906395,48.7696161 5.93906395,48.7696161 L5.29440902,49.0137985 C5.066699,49.0137985 5.066699,48.6796319 5.066699,48.6796319 L5.066699,46.0477003 C5.27203062,46.0607966 5.81264562,46.2893479 5.81264562,46.2893479 C5.82913497,46.2876581 6.27788076,45.8774485 6.50284255,45.9032186 C6.70852928,45.9262655 20.0458939,44.0992532 24.0528954,43.622621 C23.6305109,41.8778201 22.7314671,38.3806547 22.4131892,37.1460803 L22.3944249,37.1593964 C17.6295805,38.8981597 15.19141,39.8411811 15.105328,39.8745356 C14.9315243,39.9395118 14.4138024,39.8987934 14.4138024,39.8987934 L13.8600082,40.3744192 C13.6361949,40.4588883 13.5267478,40.1357399 13.5267478,40.1357399 L12.6667475,37.5951702 C12.8725245,37.5314935 13.4787878,37.5509864 13.4787878,37.5509864 C13.4947745,37.5436224 13.8018003,36.9809284 14.0313524,36.9215835 C14.1637547,36.8877959 17.6508961,35.0333749 22.2993248,32.5621131 L22.7420323,32.3208348 C22.7420323,32.3208348 23.5635006,31.9513367 24.0750737,32.1150768 C24.5975055,32.2823049 24.961959,32.8307024 25.1482374,33.1906565 C25.5039935,33.5439272 25.6497988,33.9460514 25.6497988,33.9460514 C25.7553529,34.2177232 27.9267998,39.7912043 28.9367753,42.4296606 Z"/>
            <path fill="#3E3D4B" d="M3.5466893,45.1798313 L3.5466893,50.4856257 C4.73059124,50.4856257 5.5733689,50.0006777 5.5733689,50.0006777 L5.5733689,48.2113242 C5.5733689,48.2113242 5.49664544,46.5842261 4.78410094,45.7170464 C4.13136138,44.9225862 3.5466893,45.1798313 3.5466893,45.1798313"/>
            <path fill="url(#icon-e)" d="M28.1969261,52.2674713 L36.6736335,49.9154962 C36.6736335,49.9154962 40.9769047,49.4548 41.9366241,49.6212021 C42.3171744,49.6868121 44.4889567,49.883642 45.6245026,49.3459255 C45.9187677,49.2070985 47.6269706,48.2348347 47.6269706,48.2348347 L46.3347275,46.5094824 C46.3347275,46.5094824 46.2496633,46.3939518 46.0880821,46.2028271 L45.8255634,45.3874567 C44.7824078,44.5064763 42.0155832,41.5022049 40.6911867,41.577799 C39.8185665,41.6267687 36.7330564,41.6305722 36.2654068,41.7223311 C34.2617178,41.7018874 27.8668445,41.6743122 27.8668445,41.6743122 L28.1969261,52.2674713 Z"/>
            <polygon fill="#F8D6B6" points="47.627 46.521 45.988 48.704 44.08 47.601 47.029 44.546"/>
            <path fill="#FDEDD4" d="M54.6180652,39.794552 C54.6180652,39.794552 56.200903,41.3189099 54.2627932,42.9243097 C53.1226012,43.8680823 51.9455822,43.1571441 51.1736599,41.8973512 L54.6180652,39.794552 Z"/>
            <path fill="#FDEDD4" d="M54.0134433 42.2950086C54.0134433 42.2950086 53.9940978 41.8598317 53.7070094 41.5763976L54.0134433 42.2950086zM29.8681926 48.8242808C29.8681926 48.8242808 28.5138946 48.1762381 27.9736802 48.118475 27.433842 48.0615552 26.7318642 48.2921859 26.1532781 48.621056 25.6995882 48.8786709 25.1759264 49.3226455 25.0378632 49.4617828 24.8998001 49.6009202 24.7493225 49.8707623 24.8723379 50.0988632 25.0017486 50.339613 25.2331078 50.2384222 25.3756853 50.2127028 25.5182628 50.1869835 26.5170575 49.4799128 26.5170575 49.4799128L27.4041227 49.2353684 28.8509644 50.155783C28.8509644 50.155783 29.0834522 50.5782546 29.7820442 50.4669447 29.9558458 50.4399605 30.8929447 49.9432824 30.9068639 49.2336819L29.8681926 48.8242808z"/>
            <path fill="#FDEDD4" d="M26.8064244,48.7038197 C26.7391667,48.7020697 26.2248437,48.7567578 25.4248735,49.1754504 C24.8970989,49.4515162 24.5999784,49.6693939 24.4903881,49.8128956 C24.3863365,49.9480848 24.2660641,50.1147743 24.3463776,50.300714 C24.4282737,50.4897163 24.6561583,50.5325918 24.840919,50.4350281 C25.0256797,50.3365895 25.5455416,49.9922728 25.6377241,49.9437097 C25.7303023,49.8951466 26.8535047,49.6838316 26.8535047,49.6838316 L26.8064244,48.7038197 Z"/>
            <path fill="#FDEDD4" d="M27.6775841,49.2977286 C27.6775841,49.2977286 26.9298335,49.4140833 26.6773847,49.4840507 C26.4241977,49.5544047 26.158093,49.6707594 25.9824122,49.770492 C25.8152202,49.8648127 25.828876,49.9931507 25.8580331,50.0805134 C25.8875593,50.1682626 25.9868411,50.2656758 26.2031204,50.2111708 C26.4193997,50.1578255 26.960836,50.1110517 26.960836,50.1110517 L27.7251951,50.1145307 C27.7251951,50.1145307 28.971569,50.7941039 29.8935241,50.3139959 L27.6775841,49.2977286 Z"/>
            <path fill="url(#icon-f)" d="M43.5736114,49.9199064 C42.4739183,50.1077009 30.4765083,50.4856257 30.4765083,50.4856257 L29.8935241,48.4035357 L43.2803334,46.3279859 L43.5736114,49.9199064 Z"/>
            <path fill="#FFA756" d="M66.1475818,50.4856257 L47.3464758,50.4856257 C47.2221197,50.4856257 47.1203007,50.3681541 47.1203007,50.2257082 L47.1203007,48.3692866 C47.1203007,48.2263782 47.2221197,48.1098315 47.3464758,48.1098315 L66.1475818,48.1098315 C66.2719379,48.1098315 66.3737569,48.2263782 66.3737569,48.3692866 L66.3737569,50.2257082 C66.3737569,50.3681541 66.2719379,50.4856257 66.1475818,50.4856257"/>
            <path fill="url(#icon-g)" d="M43.2628802,46.3482209 L44.317664,46.3482209 L44.2776137,46.7290636 C44.2267024,47.218536 46.0380607,48.7662781 46.0380607,48.7662781 C46.0380607,48.7662781 44.7022145,49.323395 44.4021769,49.5197804 C44.1021392,49.7161657 43.5098704,49.8708032 43.4667654,49.8916771 L43.2628802,46.3482209 Z"/>
            <g transform="translate(43.067 31.48)">
              <path fill="#F8D6B6" d="M15.8992425,18.2905103 C12.4035778,21.0663734 7.79755448,19.1712745 5.42462336,15.0356863 C3.05138286,10.8997341 3.80935956,6.0890146 7.3053337,3.31315157 C10.8009985,0.537288543 15.5589264,1.6396996 17.9321669,5.77528785 C20.3050981,9.91124005 19.3949073,15.5146473 15.8992425,18.2905103"/>
              <path fill="#F8D6B6" d="M3.5842841,15.442662 C2.3928654,14.4126957 0.981974836,12.7600398 0.359632189,11.7042085 C-1.06103515,9.29451973 2.18586736,5.22136584 2.18586736,5.22136584 C2.18586736,5.22136584 2.30150307,4.72761512 2.438378,4.60871346 C2.59986344,4.46819332 3.39852527,4.91098618 3.85398839,4.79864728 C4.91999459,4.53690921 5.52210941,3.41429225 7.31159737,2.32526116 C11.7040689,-0.347323849 16.2091419,2.10676006 18.1408988,5.38427655 C18.7585217,6.43161486 20.0793984,9.41959809 19.6893386,11.7238968 L3.5842841,15.442662 Z"/>
              <path fill="#B4B5B5" d="M8.00487643,13.8696365 C5.71436677,15.4083111 4.22953457,14.4872861 5.58198331,18.7211966 C6.76205775,22.414173 11.4609811,21.613386 10.6584064,21.8889637 C11.174495,21.5780052 13.8462966,23.1481295 15.9951146,19.6147601 C16.8890477,19.1870447 17.8422776,18.6382481 18.2318435,18.318641 C19.4563905,17.3150037 21.0058012,15.3663041 21.2585019,11.817603 C21.4867255,8.61052391 19.8340007,6.81750014 19.8340007,6.81750014 C20.6034796,3.9036891 17.4740861,1.51227862 14.7698781,0.593948537 L11.6978234,11.4519438 L8.00487643,13.8696365 Z"/>
              <path stroke="#E5E5E5" stroke-linecap="round" stroke-linejoin="round" stroke-width="1.029" d="M8.72449885 19.0063532C7.96425205 18.3884387 7.9071145 17.606041 8.54515044 17.2245076M7.0933786 17.8184561C7.127508 17.2764434 7.35030778 16.8233412 7.71115905 16.630559"/>
              <ellipse cx="10.022" cy="12.149" fill="#F9CBAB" rx="1.773" ry="1.485" transform="rotate(-28 10.022 12.149)"/>
              <ellipse cx="9.867" cy="12.34" fill="#DBA87F" rx="1" ry="1" transform="rotate(-31 9.867 12.34)"/>
              <path stroke="#EBB78E" stroke-linecap="round" stroke-linejoin="round" stroke-width=".5" d="M4.63837035,8.31527952 C4.63837035,8.31527952 4.87954,9.55321676 4.0533592,10.0971251"/>
              <path fill="#352311" d="M7.57219392,6.14437593 C7.17157598,6.55114299 6.74579845,6.65543159 6.62110646,6.37871364 C6.49669095,6.10116472 6.72036239,5.54731335 7.12125681,5.14054628 C7.52187476,4.73377922 7.94765229,4.62949063 8.07234428,4.90662406 C8.19675979,5.183342 7.97281187,5.73843985 7.57219392,6.14437593"/>
              <path stroke="#676564" stroke-linecap="round" stroke-linejoin="round" stroke-width=".5" d="M9.1200582,4.15763976 C9.1200582,4.15763976 9.65459352,4.2536289 9.73331369,4.91723885 C9.79171897,5.41608004 9.26543657,5.93948537 9.26543657,5.93948537"/>
              <path stroke="#D87559" stroke-linecap="round" stroke-linejoin="round" stroke-width=".5" d="M1.5200097,7.72133099 C1.5200097,7.72133099 1.54208273,8.09011536 1.91992114,8.43722814 C2.29775954,8.78397361 3.0400194,8.90922806 3.0400194,8.90922806"/>
              <path fill="#9F9FA0" d="M12.6667475,1.23136054 C12.6667475,1.23136054 13.6582767,2.692631 12.9662322,5.34553684 C12.9662322,5.34553684 15.648969,2.82675894 15.13456,1.87924332 C14.620151,0.931727689 13.9941693,0.00110735511 13.9941693,0.00110735511 C13.9941693,0.00110735511 13.2469257,-0.0837139128 12.6667475,1.23136054"/>
              <path fill="#B4B5B5" d="M16.7201067,2.12104866 C15.1959873,1.01117633 14.9152199,0.149120507 14.1280338,0.0155902204 C13.0172843,-0.173315862 12.6622725,1.41687276 12.6622725,1.41687276 C12.6622725,1.41687276 13.6903479,-0.324519275 14.2288636,0.709554977 C14.8088785,1.82414014 12.5069751,4.38752891 11.4513416,6.10457131 C11.2487093,6.43329146 11.1157825,6.94738306 11.1991049,7.51802867 C10.7251073,8.04822246 10.2883941,8.67188744 10.1632483,9.27002458 C9.8555714,10.7404287 12.0277901,11.8789707 12.0277901,11.8789707 L16.7201067,2.12104866 Z"/>
              <path stroke="#E5E5E5" stroke-linecap="round" stroke-linejoin="round" stroke-width="1.029" d="M13.6800873 6.53343391C13.6800873 6.53343391 11.7231946 8.93835802 12.2501695 9.5031766M15.200097 7.12738245C15.200097 7.12738245 14.076526 8.17097624 13.6800873 8.90922806"/>
              <path stroke="#DBA87F" stroke-linecap="round" stroke-width=".5" d="M9.46842468,12.4413803 C9.43156246,12.1695984 9.63922049,11.9460731 10.0913988,11.7708041 C10.2462736,11.7107731 10.3648531,11.68199 10.4579834,11.6953919"/>
              <polygon fill="#ECBD98" points="3.989 4.79 2.458 4.556 2.167 5.304"/>
            </g>
            <path fill="#605E75" d="M72.2477291,54.0493169 L0.20606654,54.0493169 C0.0928299753,54.0493169 0,53.9536976 0,53.8356285 L0,50.6988984 C0,50.581245 0.0928299753,50.4856257 0.20606654,50.4856257 L72.2477291,50.4856257 C72.3609657,50.4856257 72.4537957,50.581245 72.4537957,50.6988984 L72.4537957,53.8356285 C72.4537957,53.9536976 72.3609657,54.0493169 72.2477291,54.0493169"/>
            <path fill="#A1A1A9" d="M64.1640671,54.0493169 L0.183010144,54.0493169 C0.0824434046,54.0493169 0,53.9536976 0,53.8356285 L0,50.6988984 C0,50.581245 0.0824434046,50.4856257 0.183010144,50.4856257 L64.1640671,50.4856257 C64.2646339,50.4856257 64.3470773,50.581245 64.3470773,50.6988984 L64.3470773,53.8356285 C64.3470773,53.9536976 64.2646339,54.0493169 64.1640671,54.0493169"/>
            <path fill="#FFBC93" d="M8.6133883,39.7728248 C8.6133883,39.7728248 9.35834606,40.126855 9.51406765,40.2495345 C9.67014722,40.373063 9.92538744,40.4460764 10.007007,40.3306133 C10.0882686,40.2155748 10.2572355,39.9213987 9.98302233,39.7320732 C9.70845115,39.5431722 9.21193197,39.2006035 9.21193197,39.2006035 L8.6133883,39.7728248 Z"/>
            <path fill="#FFBC93" d="M9.1200582,39.4207145 C9.1200582,39.4207145 9.94896374,39.8239442 10.3213041,40.1110606 C10.6285996,40.346665 10.9408985,40.5341351 11.0805783,40.2313962 C11.2198411,39.9295017 11.1335315,39.5912954 10.8754366,39.4777155 C10.6173418,39.362869 9.57954206,38.6066549 9.57954206,38.6066549 L9.1200582,39.4207145 Z"/>
            <path fill="#FFBC93" d="M9.6267281,38.8652292 C9.6267281,38.8652292 10.5429691,39.3816251 10.8919962,39.6024548 C11.1777599,39.782724 11.4876068,39.8942655 11.6015528,39.6678024 C11.7334714,39.4045343 11.5975988,39.0537607 11.3750986,38.9516081 C11.1525983,38.8498312 9.85066617,38.0127064 9.85066617,38.0127064 L9.6267281,38.8652292 Z"/>
            <path fill="#FFBC93" d="M9.6267281 38.2063479C9.6267281 38.2063479 10.4622895 38.7345397 10.773546 38.9371562 11.1948907 39.2116689 11.4661512 39.3186962 11.5984154 39.026618 11.7306796 38.7337227 11.6197994 38.3697483 11.3148789 38.1838803 10.8559141 37.9032401 10.0631208 37.4187579 10.0631208 37.4187579L9.6267281 38.2063479zM21.5929569 38.6066549C21.7042031 38.3589765 21.8168313 37.4048843 21.7795189 36.8748332 21.7432429 36.3582742 21.4900023 35.8272593 21.3932664 35.7241402 21.1845933 35.4991094 20.9006045 35.7501609 20.9389533 36.0166321 20.9617553 36.1727563 21.0422534 37.2738171 21.0422534 37.2738171L20.7734659 37.794231 21.5929569 38.6066549z"/>
            <path fill="#FFBC93" d="M21.2145912,37.7112351 C21.2145912,37.7112351 21.3210993,37.2225002 21.2625744,36.8197679 C21.204413,36.4179603 20.9757658,35.8950094 20.8230921,35.6911001 C20.7027706,35.5292674 20.3283564,35.756758 20.2767381,36.0198518 C20.212397,36.3476787 20.4795761,36.9742026 20.5271958,37.1008945 C20.575179,37.227124 20.4984786,38.0127064 20.4984786,38.0127064 L21.2145912,37.7112351 Z"/>
            <path fill="#FFBC93" d="M20.7140302,38.3307729 C20.7140302,38.3307729 20.8157833,37.7450331 20.7530161,37.3504628 C20.6902488,36.9567986 20.4259246,36.3479553 20.3565297,36.2614307 C20.286745,36.1753592 19.8641382,36.273662 19.7869462,36.5232696 C19.7093643,36.7728772 19.8196943,37.6743638 19.8707658,37.798035 C19.9218373,37.9230653 19.9187184,38.6066549 19.9187184,38.6066549 L20.7140302,38.3307729 Z"/>
            <path fill="#FFBC93" d="M19.861779,38.6066549 C19.861779,38.6066549 19.8817694,38.2492409 19.8636242,37.7381252 C19.8467093,37.259585 19.7950418,37.0017331 19.7387612,36.9154766 C19.6308131,36.7516809 19.3933889,36.8127028 19.3534081,37.0751429 C19.3045086,37.3986048 19.3137349,37.7390428 19.3020482,37.9785423 C19.2928219,38.1666549 19.2534562,38.3689907 19.2534562,38.3689907 L19.861779,38.6066549 Z"/>
            <path stroke="#231916" stroke-linecap="round" d="M23.3068154 30.2975488C24.1525847 30.2597504 24.7777579 30.3955252 25.1823352 30.7048734 25.5869124 31.0142216 25.9970561 31.5225677 26.4127662 32.2299117M24.8268251 29.1072613C25.345096 29.0840991 25.7281899 29.1672993 25.9761069 29.3568618 26.2240239 29.5464243 26.4753519 29.8579289 26.7300909 30.2913754"/>
          </g>
          <g transform="translate(83.841 59.225)">
            <path stroke="#8CC63F" d="M4.56641569 3.58153618L4.56641569 14.9230674M3.04427713 8.35691774L3.04427713 13.1322993"/>
            <path fill="#EB674C" d="M3.47409393,1.66362454 L3.47409393,0.00839128007 L4.35629032,1.3496216 L4.79747633,0.00839128007 L5.23872088,1.3496216 L6.12091727,0.00839128007 L6.12091727,1.18028405 L6.12091727,1.66362454 L6.12091727,2.31059841 L6.11687775,2.31059841 C6.06512503,3.1134398 5.49455725,3.74611895 4.79747633,3.74611895 C4.10045395,3.74611895 3.52971054,3.1134398 3.47813346,2.31059841 L3.47772365,2.31059841 L3.47772365,2.30434447 C3.47567462,2.26743933 3.47409393,2.23019057 3.47409393,2.19252946 C3.47409393,2.15493708 3.47567462,2.11933771 3.47772365,2.08490665 L3.47772365,1.66362454 L3.47409393,1.66362454 Z"/>
            <path stroke="#8CC63F" d="M6.25069129,7.77413956 L6.25069129,19.1976887"/>
            <path fill="#EB674C" d="M4.92727962,5.69166576 L4.92727962,4.0364325 L5.80947601,5.37766282 L6.25066202,4.0364325 L6.69196511,5.37766282 L7.57410295,4.0364325 L7.57410295,5.20832528 L7.57410295,5.69166576 L7.57410295,6.33863964 L7.57012198,6.33863964 C7.51836927,7.14148103 6.94774294,7.77416018 6.25066202,7.77416018 C5.55363964,7.77416018 4.98295477,7.14148103 4.93131914,6.33863964 L4.93090934,6.33863964 L4.93090934,6.33238569 C4.92880176,6.29548056 4.92727962,6.25823179 4.92727962,6.22057069 C4.92727962,6.1829783 4.92880176,6.14737893 4.93090934,6.11294788 L4.93090934,5.69166576 L4.92727962,5.69166576 Z"/>
            <path stroke="#8CC63F" stroke-width="3" d="M3.13409501,8.18279696 L3.13409501,19.6062774"/>
            <path fill="#EB674C" d="M1.81068335,6.68555481 L1.81068335,5.03032156 L2.69287973,6.37155187 L3.13406574,5.03032156 L3.57531029,6.37155187 L4.45750668,5.03032156 L4.45750668,6.20228306 L4.45750668,6.68555481 L4.45750668,7.33259741 L4.45346716,7.33259741 C4.40171445,8.13537008 3.83114666,8.76791178 3.13406574,8.76791178 C2.43704337,8.76791178 1.86629995,8.13537008 1.81472287,7.33259741 L1.81431306,7.33259741 L1.81431306,7.32634347 C1.81214694,7.28936961 1.81068335,7.25212085 1.81068335,7.21445974 C1.81068335,7.17686735 1.81214694,7.14133671 1.81431306,7.10683693 L1.81431306,6.68555481 L1.81068335,6.68555481 Z"/>
            <path fill="#39B54A" d="M9.10870549 10.4938696C9.10870549 10.4938696 9.02504642 10.4658986 8.87634519 10.4395771 8.72805376 10.413393 8.5136664 10.3888583 8.26204519 10.4067954 8.13664439 10.4178601 8.00181804 10.4340791 7.86482557 10.4735958 7.72835999 10.5127001 7.58744508 10.5619757 7.45466777 10.6402531 7.32206608 10.7173621 7.19180615 10.8073914 7.07940207 10.9258727 6.96518313 11.0402993 6.86290713 11.1717695 6.77842844 11.3193901L6.71531823 11.4290746 6.6604627 11.5459066C6.62135545 11.6202666 6.5949522 11.7063786 6.56328001 11.7848622 6.50584855 11.9478083 6.46117963 12.1150841 6.4266388 12.2809854 6.40550449 12.3611871 6.3973669 12.4483987 6.38267241 12.5283942 6.36780229 12.6085959 6.35773276 12.6893473 6.35076604 12.7692054 6.33121242 12.9259663 6.32248939 13.0777103 6.31645938 13.2180461 6.30574587 13.3560452 6.31083918 13.4886838 6.30843888 13.6024918 6.30574587 13.7163685 6.31066355 13.8179436 6.31376637 13.9010317 6.31962075 14.0666581 6.32301629 14.1612919 6.32301629 14.1612919L5.20014638 14.1043879C5.20014638 14.1043879 5.21489941 13.9972462 5.2409514 13.8098341 5.25377249 13.7163685 5.26840844 13.603179 5.29428479 13.4727396 5.3196928 13.3422315 5.3404173 13.196604 5.38063688 13.0367504 5.41605588 12.8776529 5.45709508 12.7060474 5.51259459 12.5261263 5.53735861 12.4360283 5.56586944 12.3442121 5.60058591 12.2510215 5.63524383 12.1581058 5.6628765 12.0626472 5.7057891 11.9684257 5.7830669 11.7786082 5.87416104 11.586729 5.98176453 11.4018597 6.03902036 11.3112119 6.09007054 11.2171278 6.1569861 11.1321841L6.25223684 11.0030505C6.28625079 10.9618157 6.32231376 10.9223678 6.35720586 10.8824388 6.49730115 10.7232037 6.6576526 10.5870602 6.82467803 10.4801934 6.99006424 10.3689282 7.16780319 10.2974545 7.33793145 10.2458423 7.50887932 10.1932679 7.67736835 10.1760868 7.83391444 10.1697641 7.99069472 10.1630978 8.13711274 10.1806226 8.26959734 10.2007589 8.53503488 10.2457049 8.74520709 10.3228139 8.88840521 10.3846661 9.03189604 10.4466557 9.10870549 10.4938696 9.10870549 10.4938696M0 8.52864003C0 8.52864003.0910941387 8.50802264.25419714 8.50046292.417007423 8.49242214.652646182 8.49812629.933246572 8.55942868 1.07404439 8.58794941 1.22420921 8.63585049 1.38151638 8.6983212 1.53911626 8.75982976 1.69911644 8.84765987 1.86128275 8.94992215 2.02163419 9.05575812 2.18052204 9.18262382 2.33185774 9.32907606 2.48079314 9.47752131 2.62568902 9.64177323 2.75278759 9.82327504L2.84885796 9.95928112 2.93667364 10.1018848C2.99738355 10.1959688 3.04913626 10.2951385 3.10083043 10.3939645 3.20380896 10.5916854 3.29361514 10.7947667 3.36890245 10.9955802 3.40953184 11.0955745 3.44395559 11.1955689 3.47480817 11.2943262 3.50636327 11.3930148 3.54131391 11.4895042 3.56519978 11.5850315 3.61876735 11.7752613 3.66618782 11.9571068 3.70049448 12.1261694 3.74071407 12.2950259 3.76659042 12.4504811 3.79071046 12.5889612 3.81670391 12.7276476 3.83414996 12.8485342 3.84632707 12.9480475 3.87290595 13.1478988 3.88806879 13.2622566 3.88806879 13.2622566L2.76514033 13.3189545C2.76514033 13.3189545 2.76812607 13.2176543 2.7735121 13.0403447 2.77737599 12.9510027 2.77954211 12.843105 2.77661492 12.7205689 2.77526841 12.5971395 2.77556113 12.4571473 2.7649647 12.3073963 2.75957867 12.1555148 2.74453292 11.9938057 2.72585745 11.8226814 2.71935909 11.7356759 2.70290828 11.6510072 2.69037991 11.5615964 2.6782028 11.4719794 2.66327414 11.3814004 2.64301799 11.2915085 2.60806734 11.1089758 2.56129085 10.9239003 2.50309833 10.7409553 2.47376789 10.6495515 2.44467162 10.5563609 2.40726214 10.4683246L2.35416292 10.3330745 2.29316029 10.20291C2.21254549 10.0275934 2.11489445 9.8644411 2.00980834 9.71022298 1.90273175 9.55820405 1.78529291 9.41876173 1.66123861 9.29505736 1.53531092 9.17485794 1.40639749 9.06421125 1.27397143 8.97713711 1.14207227 8.88916956 1.01140253 8.81364117.885474838 8.75776802.63455615 8.64189826.40986508 8.58465062.251679757 8.55695459.0929089962 8.52864003 0 8.52864003 0 8.52864003"/>
            <path fill="#3E3D4B" d="M6.92234664,12.3428582 L6.92234664,18.4181862 C6.92234664,19.7845698 5.97879636,20.8922737 4.81477016,20.8922737 L4.39331341,20.8922737 C3.22928722,20.8922737 2.28573694,19.7845698 2.28573694,18.4181862 L2.28573694,12.3428582 L6.92234664,12.3428582 Z"/>
            <path fill="#141419" d="M1.92222683,12.3428582 C1.92222683,12.5796834 2.08579818,12.7717001 2.28754009,12.7717001 L6.92052007,12.7717001 C7.12226198,12.7717001 7.28583333,12.5796834 7.28583333,12.3428582 C7.28583333,12.1060331 7.12226198,11.9140164 6.92052007,11.9140164 L2.28754009,11.9140164 C2.08579818,11.9140164 1.92222683,12.1060331 1.92222683,12.3428582"/>
          </g>
        </g>
        <g transform="translate(10.455 10.62)">
          <path fill="#4070A9" d="M12.6468992,7.45319707 C12.6468992,11.479954 9.83779802,14.7440676 6.37236481,14.7440676 C2.9069316,14.7440676 0.0978304371,11.479954 0.0978304371,7.45319707 C0.0978304371,3.42688222 2.9069316,0.162326516 6.37236481,0.162326516 C9.83779802,0.162326516 12.6468992,3.42688222 12.6468992,7.45319707"/>
          <path fill="#FFF" d="M11.4976523,7.45319707 C11.4976523,10.7420689 9.20296322,13.4088891 6.37217457,13.4088891 C3.54176639,13.4088891 1.24707736,10.7420689 1.24707736,7.45319707 C1.24707736,4.16432519 3.54176639,1.49794715 6.37217457,1.49794715 C9.20296322,1.49794715 11.4976523,4.16432519 11.4976523,7.45319707"/>
          <path fill="#B0CFDD" d="M6.86090414,7.45319707 C6.86090414,7.76665454 6.64212679,8.02086899 6.37236481,8.02086899 C6.10260282,8.02086899 5.88382548,7.76665454 5.88382548,7.45319707 C5.88382548,7.13973959 6.10260282,6.88596725 6.37236481,6.88596725 C6.64212679,6.88596725 6.86090414,7.13973959 6.86090414,7.45319707"/>
          <polygon fill="#B0CFDD" points="6.262 7.453 6.6 7.453 6.6 4.03 6.262 4.03"/>
          <polygon fill="#B0CFDD" points="6.289 7.539 6.456 7.368 9.275 11.084 9.108 11.255"/>
          <polygon fill="#B0CFDD" points="6.317 3.012 6.486 3.012 6.486 1.894 6.317 1.894"/>
          <polygon fill="#B0CFDD" points="10.195 7.585 11.157 7.585 11.157 7.389 10.195 7.389"/>
          <polygon fill="#B0CFDD" points="6.317 13.013 6.486 13.013 6.486 11.895 6.317 11.895"/>
          <polygon fill="#B0CFDD" points="1.587 7.585 2.55 7.585 2.55 7.389 1.587 7.389"/>
          <path fill="#424242" d="M12.4815362,7.27010309 C12.4815362,11.2853902 9.68755218,14.5402062 6.24076812,14.5402062 C2.79398405,14.5402062 0,11.2853902 0,7.27010309 C0,3.25525688 2.79398405,0 6.24076812,0 C9.68755218,0 12.4815362,3.25525688 12.4815362,7.27010309"/>
          <path fill="#FFF" d="M11.2638254,7.26988589 C11.2638254,10.5013661 9.01490675,13.1216495 6.24058167,13.1216495 C3.46662948,13.1216495 1.21771085,10.5013661 1.21771085,7.26988589 C1.21771085,4.03840573 3.46662948,1.4185567 6.24058167,1.4185567 C9.01490675,1.4185567 11.2638254,4.03840573 11.2638254,7.26988589"/>
          <path fill="#003C6D" d="M6.69740968,7.26989586 C6.69740968,7.56374765 6.49291677,7.80206186 6.24076812,7.80206186 C5.98861946,7.80206186 5.78412655,7.56374765 5.78412655,7.26989586 C5.78412655,6.97604408 5.98861946,6.73814433 6.24076812,6.73814433 C6.49291677,6.73814433 6.69740968,6.97604408 6.69740968,7.26989586"/>
          <polygon fill="#003C6D" points="6.089 7.447 6.411 7.447 6.411 3.901 6.089 3.901"/>
          <polygon fill="#003C6D" points="6.393 7.619 6.563 7.447 9.437 11.178 9.267 11.348"/>
          <polygon fill="#003C6D" points="6.393 2.837 6.555 2.837 6.555 1.773 6.393 1.773"/>
          <polygon fill="#003C6D" points="10.046 7.634 10.959 7.634 10.959 7.447 10.046 7.447"/>
          <polygon fill="#003C6D" points="6.393 12.767 6.555 12.767 6.555 11.703 6.393 11.703"/>
          <polygon fill="#003C6D" points="1.522 7.634 2.435 7.634 2.435 7.447 1.522 7.447"/>
        </g>
      </g>
    </g>
    <path fill="#FFF" fill-rule="nonzero" d="M9.32391302,133.545793 L111.89548,133.545793 C114.649058,132.90217 116.555863,131.252885 117.615894,128.597938 C117.615489,131.896508 117.615286,136.38633 117.615286,142.067404 C117.633475,143.931277 117.243617,145.424533 116.445714,146.54717 C115.64781,147.669807 114.527131,148.30185 113.083678,148.443299 L9.32391302,148.443299 C5.2271763,148.024578 3.17880795,145.43698 3.17880795,140.680505 C3.17880795,135.924031 5.2271763,133.545793 9.32391302,133.545793 Z"/>
  </g>
</svg>
