<svg xmlns="http://www.w3.org/2000/svg" xmlns:xlink="http://www.w3.org/1999/xlink" width="940" height="300" viewBox="0 0 940 300">
  <defs>
    <linearGradient id="header-bg-b" x1="50%" x2="50%" y1="99.165%" y2="0%">
      <stop offset="0%" stop-color="#FFFFFE"/>
      <stop offset="100%" stop-color="#DBF1D2"/>
    </linearGradient>
    <polygon id="header-bg-a" points="0 0 940 0 940 300 0 300"/>
    <linearGradient id="header-bg-c" x1="50%" x2="50%" y1="89.809%" y2="73.597%">
      <stop offset="0%" stop-color="#BCE691"/>
      <stop offset="100%" stop-color="#86C958"/>
    </linearGradient>
    <linearGradient id="header-bg-e" x1="94.727%" x2="0%" y1="0%" y2="95.245%">
      <stop offset="0%" stop-color="#C7F17C"/>
      <stop offset="100%" stop-color="#86B833"/>
    </linearGradient>
  </defs>
  <g fill="none" fill-rule="evenodd">
    <mask id="header-bg-d" fill="#fff">
      <use xlink:href="#header-bg-a"/>
    </mask>
    <use fill="url(#header-bg-b)" xlink:href="#header-bg-a"/>
    <path fill="url(#header-bg-c)" d="M169.988413,266.445417 C256.333852,261.928125 379.203687,263.995952 483.113414,267.943113 C587.023141,271.890274 766.230189,237.744458 837.155591,233.929688 C884.439192,231.386507 920.566171,233.189485 945.536528,239.33862 L945.536528,300.64445 L-4.430323,303.072656 C-5.85513088,280.665666 -2.57404858,267.99301 5.41292388,265.054687 C14.2205983,261.814438 6.88148191,274.978602 169.988413,266.445417 Z" mask="url(#header-bg-d)" opacity=".504"/>
    <path fill="url(#header-bg-e)" d="M-12.1450129,237.515625 C147.639152,234.303012 286.531829,274.21955 409.571982,281.240188 C532.612136,288.260827 753.458783,270.943658 810.962747,271.351622 C868.466711,271.759586 930.585497,272.834298 948.072371,275.994499 C959.730288,278.101299 948.647393,288.610945 914.823686,307.523438 L-1.05893413,307.523438 C-29.1213933,261.267187 -32.8167529,237.93125 -12.1450129,237.515625 Z" mask="url(#header-bg-d)" opacity=".5"/>
    <g mask="url(#header-bg-d)">
      <g transform="translate(1 235)">
        <g transform="translate(246.766 17.304)">
          <g opacity=".573" transform="translate(158.4)">
            <path fill="#83AF44" d="M5.96430981,0.0351944923 C5.9320895,0.0351944923 5.90041997,0.040151463 5.86847504,0.0415283993 L5.86847504,29.5451429 C5.90041997,29.5465198 5.9320895,29.5514768 5.96430981,29.5514768 C9.14420654,29.5514768 11.7221067,22.9441102 11.7221067,14.7931979 C11.7221067,6.6425611 9.14420654,0.0351944923 5.96430981,0.0351944923"/>
            <path fill="#83AF44" d="M0.206595525,14.7932806 C0.206595525,22.8613012 2.73299828,29.413315 5.86855766,29.5449501 L5.86855766,0.0416110155 C2.73299828,0.173246127 0.206595525,6.72498451 0.206595525,14.7932806"/>
            <polygon fill="#C6552E" points="6.572 35.193 5.164 35.193 5.164 28.834 5.964 9.445 6.572 28.834"/>
          </g>
          <g transform="translate(0 7.2)">
            <path fill="#83AF44" d="M4.77144785,0.0281555938 C4.7456716,0.0281555938 4.72033597,0.0321211704 4.69478003,0.0332227194 L4.69478003,23.6361143 C4.72033597,23.6372158 4.7456716,23.6411814 4.77144785,23.6411814 C7.31536523,23.6411814 9.37768537,18.3552881 9.37768537,11.8345583 C9.37768537,5.31404888 7.31536523,0.0281555938 4.77144785,0.0281555938"/>
            <path fill="#83AF44" d="M0.16527642,11.8346244 C0.16527642,18.289041 2.18639862,23.530652 4.69484613,23.6359601 L4.69484613,0.0332888124 C2.18639862,0.138596902 0.16527642,5.37998761 0.16527642,11.8346244"/>
            <polygon fill="#C6552E" points="5.258 28.154 4.132 28.154 4.132 23.067 4.772 7.556 5.258 23.067"/>
          </g>
        </g>
        <path fill="#83AF44" d="M24.038747 12.0393253C23.5419759 5.30255422 18.356241 0 12.0196627 0 5.68250602 0 .496771084 5.30255422 0 12.0393253L24.038747 12.0393253zM396.038747 51.6393253C395.541976 44.9025542 390.356241 39.6 384.019663 39.6 377.682506 39.6 372.496771 44.9025542 372 51.6393253L396.038747 51.6393253z"/>
        <path fill="#83AF44" d="M442.8,58.8119518 C442.502418,54.7764044 439.395992,51.6 435.600173,51.6 C431.804008,51.6 428.697582,54.7764044 428.4,58.8119518 L442.8,58.8119518 Z" opacity=".503"/>
        <path fill="#83AF44" d="M234.036,48.6309775 C233.712875,44.2490457 230.339814,40.8 226.218188,40.8 C222.096185,40.8 218.723125,44.2490457 218.4,48.6309775 L234.036,48.6309775 Z"/>
        <path fill="#6E932E" d="M34.3350361 12.7142169C33.8984096 7.61407229 29.338988 3.6 23.7675181 3.6 18.1960482 3.6 13.6366265 7.61407229 13.2 12.7142169L34.3350361 12.7142169zM406.335036 52.3142169C405.89841 47.2140723 401.338988 43.2 395.767518 43.2 390.196048 43.2 385.636627 47.2140723 385.2 52.3142169L406.335036 52.3142169zM241.932 49.7254833C241.619389 46.0739454 238.354991 43.2 234.366 43.2 230.377008 43.2 227.11261 46.0739454 226.8 49.7254833L241.932 49.7254833z"/>
      </g>
    </g>
    <g mask="url(#header-bg-d)">
      <g transform="translate(836 205)">
        <g opacity=".573" transform="translate(33.166 .304)">
          <path fill="#83AF44" d="M5.96430981,0.0351944923 C5.9320895,0.0351944923 5.90041997,0.040151463 5.86847504,0.0415283993 L5.86847504,29.5451429 C5.90041997,29.5465198 5.9320895,29.5514768 5.96430981,29.5514768 C9.14420654,29.5514768 11.7221067,22.9441102 11.7221067,14.7931979 C11.7221067,6.6425611 9.14420654,0.0351944923 5.96430981,0.0351944923"/>
          <path fill="#83AF44" d="M0.206595525,14.7932806 C0.206595525,22.8613012 2.73299828,29.413315 5.86855766,29.5449501 L5.86855766,0.0416110155 C2.73299828,0.173246127 0.206595525,6.72498451 0.206595525,14.7932806"/>
          <polygon fill="#C6552E" points="6.572 35.193 5.164 35.193 5.164 28.834 5.964 9.445 6.572 28.834"/>
        </g>
        <path fill="#83AF44" d="M24.038747,34.6393253 C23.5419759,27.9025542 18.356241,22.6 12.0196627,22.6 C5.68250602,22.6 0.496771084,27.9025542 0,34.6393253 L24.038747,34.6393253 Z"/>
        <path fill="#83AF44" d="M70.8,41.8119518 C70.5024178,37.7764044 67.395992,34.6 63.6001732,34.6 C59.804008,34.6 56.6975822,37.7764044 56.4,41.8119518 L70.8,41.8119518 Z" opacity=".503"/>
        <path fill="#6E932E" d="M34.3350361,35.3142169 C33.8984096,30.2140723 29.338988,26.2 23.7675181,26.2 C18.1960482,26.2 13.6366265,30.2140723 13.2,35.3142169 L34.3350361,35.3142169 Z"/>
      </g>
    </g>
    <g mask="url(#header-bg-d)">
      <g transform="translate(37.2 234)">
        <g transform="translate(4.32 2.43)">
          <rect width="3.375" height="5.4" x="17.955" y="8.1" fill="#E5BD99"/>
          <path fill="#EFD0B4" d="M23.1891416,1.64234619 C23.3385557,3.63729858 23.3385557,5.13676758 23.1891416,6.14075317 C22.8325338,8.53697427 20.8034055,9.5734314 19.8971159,9.54797058 C18.2223891,9.50092171 16.8538481,8.8756897 15.1935392,5.7830658 C14.0866667,3.72131653 15.6545255,2.24362793 19.8971159,1.35 L23.1891416,1.64234619 Z"/>
          <path fill="#78401F" d="M16.8009237,8.59786955 C14.1858487,5.4086323 14.1569546,2.78078501 16.7142416,0.714327685 C19.3868032,-0.518832716 22.3097707,-0.16790193 23.1742025,1.86467864 C23.1919187,1.90633553 23.2147242,1.94565513 23.2260114,1.98817175 C23.3990588,2.64000439 23.4855825,3.43274378 23.4855825,4.36638992 C23.241741,3.47070154 22.9309927,3.04477507 22.5533376,3.08861052 C21.9868551,3.1543637 21.939147,3.71532561 21.0275839,3.71532561 C20.1160207,3.71532561 18.9665762,2.8816281 17.9331472,3.35590788 C17.2441946,3.67209441 16.9170492,4.25794036 16.9517111,5.11344573 C16.0974142,5.16601531 15.6999838,5.47832915 15.7594198,6.05038726 C15.8188558,6.62244536 16.2162863,7.0647824 16.9517111,7.37739836 L16.8009237,8.59786955 Z"/>
          <rect width="11.53" height="3.556" x=".682" y="15.298" fill="#E5BD99" rx="1.778" transform="rotate(22 6.447 17.076)"/>
          <rect width="5.283" height="3.51" x="8.435" y="15.82" fill="#E5BD99" rx="1.755" transform="rotate(-45 11.076 17.575)"/>
          <path fill="#BD10E0" d="M24.1264709,25.6536255 L15.1709629,25.6536255 L15.1709629,16.8702209 L12.7119507,18.8350708 L9.66472778,15.7225891 C12.0717224,12.8369202 13.9071341,11.2356628 15.1709629,10.9188171 C15.5835237,10.8153869 16.5215151,10.7141091 17.9849369,10.6149839 C18.0677011,11.3968045 18.6158221,11.7951416 19.6292999,11.8099951 C20.6427777,11.8248486 21.2183345,11.4258704 21.3559702,10.6130603 L22.9557678,10.6422913 L27.7733826,8.73099976 L29.5938721,12.9143188 L24.4015137,15.9023804 L24.1264709,25.6536255 Z"/>
          <path fill="#E5BD99" d="M28.0403915 9.54244995L30.6413086 8.43964233C34.248999 5.31974487 36.3071777 3.68797302 36.8158447 3.54432678 37.5788452 3.32885742 39.3899414 4.6276886 38.364917 5.88532104 37.3398926 7.14295349 32.2609131 11.0610352 32.1109497 11.1467285 32.0109741 11.2038574 31.0905396 11.6181656 29.349646 12.389653L28.0403915 9.54244995zM12.6250049 34.5978369L9.73911621 31.622168 8.4055957 32.5876025 3.28521973 26.9963086 1.32086426 28.3232373C4.7602002 33.8418018 6.5620459 36.6729785 6.72640137 36.8167676 6.97293457 37.0324512 7.8993457 38.104541 9.73911621 36.8167676 10.9656299 35.958252 11.9275928 35.2186084 12.6250049 34.5978369zM28.0098866 31.3445215L25.0083545 34.1128125 26.8855664 36.4045166 27.4267529 46.8896924 30.2013721 47.1382031C30.9791602 39.158877 31.2135205 34.8170801 30.9044531 34.1128125 30.5953857 33.4085449 29.6305302 32.4857812 28.0098866 31.3445215z"/>
          <ellipse cx="30.24" cy="49.68" fill="#000" opacity=".203" rx="5.4" ry="2.16"/>
          <path fill="#5A4750" d="M28.6864453,46.5423047 C27.8436621,46.008457 27.2509937,45.8749951 26.9084399,46.1419189 C26.3946094,46.5423047 26.1559863,48.5829272 26.5275,49.3094751 C26.8990137,50.0360229 33.5560693,50.3721387 34.0358203,50.0360229 C34.5155713,49.6999072 34.4435229,48.4103606 33.5560693,48.1916382 C32.9644336,48.0458232 31.8917752,47.4960454 30.3380941,46.5423047 L28.6864453,46.5423047 Z"/>
        </g>
        <path fill="#5A4750" d="M8.4668335,29.6225793 C8.03001709,28.1079163 7.57120605,27.2956201 7.09040039,27.1856909 C6.36919189,27.0207971 2.10598022,29.2714015 1.48944946,29.7303883 C0.872918701,30.1893752 -0.0182592773,31.410835 1.02640869,32.0362646 C2.07107666,32.6616943 5.43249756,31.5726636 5.86841309,31.254939 C6.15902344,31.0431226 7.02516357,30.4990027 8.4668335,29.6225793 Z"/>
        <polygon fill="#FF7B00" points="19.5 28.009 19.5 28.468 13.14 33.481 17.261 37.376 23.99 32.692 29.894 37.878 34.301 34.505 28.507 28.009"/>
        <g transform="rotate(-4 35.49 -245.96)">
          <path fill="#EFD0B4" d="M1.35852865,5.40133921 C1.40979036,8.33158686 3.44608,10.1712857 6.65520848,10.6123982 C9.5036872,11.0038393 11.8173718,8.14216794 11.7657465,5.21192029 C11.7144848,2.28167264 9.34335802,-0.0514049895 6.46943023,0.000861287364 C3.59550243,0.0531275642 1.30726694,2.47109156 1.35852865,5.40133921"/>
          <path stroke="#B69273" stroke-width=".5" d="M10.0678776 5.60998111L11.1363676 5.66363546C11.331576 5.67359984 11.4976275 5.51072057 11.5065168 5.29993563L11.5399404 4.53114548C11.5488297 4.32074379 11.3977121 4.14176822 11.2025038 4.13218708L10.1340138 4.07853273C9.93880544 4.0689516 9.77275392 4.23144762 9.76386465 4.44223256L9.730441 5.21102271C9.72155173 5.4214244 9.87266929 5.60001673 10.0678776 5.60998111zM5.76407624 5.34977745L7.52115806 5.43711258C7.71396996 5.4464833 7.87798299 5.28755585 7.88676313 5.08177477L7.91942526 4.32949315C7.9285566 4.12371208 7.77929421 3.9490418 7.58648231 3.93929625L5.82940049 3.85196111C5.63658859 3.84259039 5.47257555 4.00151785 5.46379541 4.20767375L5.43113329 4.95958055C5.42200194 5.16536162 5.57126434 5.34040672 5.76407624 5.34977745z"/>
          <path stroke="#B69273" stroke-width="1.2" d="M10.1826294 4.64285547L8.59866483 4.53125547M5.43073568 4.90469269L2.03652588 4.30469269"/>
          <path fill="#EDCEB0" d="M0.452941492,4.96850606 C0.438599469,5.59408241 0.831809931,6.10835991 1.3313904,6.11708239 C1.83097086,6.12580487 2.24768631,5.62618114 2.26242672,5.00060479 C2.27676874,4.37467954 1.88315989,3.86075094 1.38357942,3.85167956 C0.883998959,3.84295708 0.467283515,4.3429297 0.452941492,4.96850606"/>
          <path fill="#767676" d="M1.4953365,4.75041761 C2.36817611,4.82268829 3.11493888,4.35748964 3.16342997,3.71161428 C3.21192106,3.06573892 2.87139913,2.34372681 1.99822511,2.27145613 C1.12538551,2.19953628 0.0509708917,2.80472248 0.00247980269,3.45059784 C-0.0460112864,4.0964732 0.6224969,4.67849776 1.4953365,4.75041761 Z"/>
          <path fill="#9E9A9A" d="M0.039754769,3.57084966 C0.00735786565,3.43441792 -0.00597196185,3.29800217 0.00247980269,3.16703843 C0.0509708917,2.41564803 1.12538551,1.96534341 1.99822511,2.04901262 C2.87139913,2.13308998 3.21192106,2.9730554 3.16342997,3.72444579 C3.16064907,3.76753697 3.15557166,3.80993685 3.14830565,3.85156715 C3.03268609,3.21481513 2.35441198,2.69797622 1.58396457,2.62379034 C0.806483742,2.54926209 0.197754715,2.95111025 0.039754769,3.57084966 Z"/>
          <ellipse cx="5.194" cy="7.11" fill="#ECBD98" rx="1" ry="1" transform="rotate(7 5.194 7.11)"/>
          <ellipse cx="10.398" cy="7.563" fill="#ECBD98" rx="1" ry="1" transform="rotate(7 10.398 7.563)"/>
          <path fill="#EDCEB0" d="M0.452941492,4.96850606 C0.438599469,5.59408241 0.831809931,6.10835991 1.3313904,6.11708239 C1.83097086,6.12580487 2.24768631,5.62618114 2.26242672,5.00060479 C2.27676874,4.37467954 1.88315989,3.86075094 1.38357942,3.85167956 C0.883998959,3.84295708 0.467283515,4.3429297 0.452941492,4.96850606"/>
          <path fill="#B4735A" d="M7.24238375,8.6245931 C7.47921329,8.72555566 7.82235038,8.80529926 8.21652619,8.80529926 C8.63029783,8.80529926 9.01384567,8.71742993 9.27452947,8.60938538 C9.2765023,8.62543205 9.27750679,8.64164651 9.27750679,8.65800636 C9.27750679,9.00653523 8.82161494,9.2890737 8.25924385,9.2890737 C7.69687275,9.2890737 7.24098091,9.00653523 7.24098091,8.65800636 C7.24098091,8.64679796 7.2414524,8.6356578 7.24238375,8.6245931 Z"/>
          <path fill="#352311" d="M7.12784058 4.73826747C7.31529761 4.73826747 7.46726156 4.97772421 7.46726156 4.73826747 7.46726156 4.49881073 7.31529761 4.30469269 7.12784058 4.30469269 6.94038355 4.30469269 6.7884196 4.49881073 6.7884196 4.73826747 6.7884196 4.97772421 6.94038355 4.73826747 7.12784058 4.73826747zM10.748331 4.96483025C10.9357881 4.96483025 11.087752 5.20428699 11.087752 4.96483025 11.087752 4.72537351 10.9357881 4.53125547 10.748331 4.53125547 10.560874 4.53125547 10.4089101 4.72537351 10.4089101 4.96483025 10.4089101 5.20428699 10.560874 4.96483025 10.748331 4.96483025z"/>
          <path fill="#EA5C69" d="M7.69354221,9.23064102 C7.84615685,9.12434109 8.06406416,9.06844005 8.34726416,9.0629379 C8.63046415,9.05743574 8.86511814,9.1051117 9.05122613,9.20596576 C8.82596881,9.46801463 8.59968816,9.60018594 8.37238417,9.60247967 C8.14508019,9.60477341 7.91879953,9.48082719 7.69354221,9.23064102 Z"/>
          <path fill="#B6B6B6" fill-rule="nonzero" d="M5.8288398,3.3984416 C6.25402185,3.13443379 6.62428946,3.02472569 6.93958274,3.0617419 C7.26283125,3.09969206 7.51301413,3.20581587 7.69528192,3.37812483 L7.91982287,3.13192941 C7.68261859,2.9076856 7.36675587,2.7737014 6.97738525,2.72798833 C6.58005941,2.68134131 6.13995639,2.81174122 5.65701633,3.11161264 L5.8288398,3.3984416 Z"/>
          <path fill="#B6B6B6" fill-rule="nonzero" d="M9.87074704,3.39795403 C10.2534109,3.13394622 10.5866517,3.02423812 10.8704157,3.06125433 C11.1613394,3.09920449 11.3865039,3.2053283 11.550545,3.37763726 L11.7526318,3.13144184 C11.539148,2.90719803 11.2548715,2.77321383 10.904438,2.72750076 C10.5468447,2.68085374 10.150752,2.81125365 9.71610593,3.11112507 L9.87074704,3.39795403 Z" transform="rotate(4 10.734 3.258)"/>
          <path stroke="#E9BF9F" stroke-linecap="square" stroke-width=".5" d="M6.49928321 1.35937664L9.11408187 1.35937664M7.17812517 2.26562773L9.79292383 2.26562773"/>
        </g>
      </g>
    </g>
    <g mask="url(#header-bg-d)">
      <g transform="translate(50.4 278.4)">
        <ellipse cx="6" cy="6.923" fill="#000" opacity=".2" rx="6" ry="2.308"/>
        <path fill="#FDF4EF" d="M9.76345965,3.77081617 C9.76345965,5.72726786 8.02874,7.31299164 5.88881198,7.31299164 C3.74913564,7.31299164 2.01403847,5.72726786 2.01403847,3.77081617 C2.01403847,1.81486786 3.74913564,0.22901823 5.88881198,0.22901823 C8.02874,0.22901823 9.76345965,1.81486786 9.76345965,3.77081617"/>
        <path fill="#5A4750" d="M2.24997796,3.77081617 C2.25400487,5.60822217 3.87949445,7.09339891 5.8887994,7.09679662 C7.89823019,7.09339891 9.52359392,5.60822217 9.52711747,3.77081617 C9.52359392,1.93391354 7.89823019,0.447855914 5.8887994,0.444080681 C3.87949445,0.447855914 2.25400487,1.93391354 2.24997796,3.77081617 M9.76332123,3.77081617 C9.76332123,5.72726786 8.02872741,7.31299164 5.8887994,7.31299164 C3.7492489,7.31299164 2.01402588,5.72726786 2.01402588,3.77081617 C2.01402588,1.81486786 3.7492489,0.22901823 5.8887994,0.22901823 C8.02872741,0.22901823 9.76332123,1.81486786 9.76332123,3.77081617"/>
        <path fill="#FDF4EF" d="M9.76345965,3.77081617 C9.76345965,5.72726786 8.02874,7.31299164 5.88881198,7.31299164 C3.74913564,7.31299164 2.01403847,5.72726786 2.01403847,3.77081617 C2.01403847,1.81486786 3.74913564,0.22901823 5.88881198,0.22901823 C8.02874,0.22901823 9.76345965,1.81486786 9.76345965,3.77081617"/>
        <path fill="#FFF" d="M2.24997796,3.77081617 C2.25400487,5.60822217 3.87949445,7.09339891 5.8887994,7.09679662 C7.89823019,7.09339891 9.52359392,5.60822217 9.52711747,3.77081617 C9.52359392,1.93391354 7.89823019,0.447855914 5.8887994,0.444080681 C3.87949445,0.447855914 2.25400487,1.93391354 2.24997796,3.77081617 M9.76332123,3.77081617 C9.76332123,5.72726786 8.02872741,7.31299164 5.8887994,7.31299164 C3.7492489,7.31299164 2.01402588,5.72726786 2.01402588,3.77081617 C2.01402588,1.81486786 3.7492489,0.22901823 5.8887994,0.22901823 C8.02872741,0.22901823 9.76332123,1.81486786 9.76332123,3.77081617"/>
        <polygon fill="#5A4750" points="4.643 4.662 4.406 2.978 6.084 2.252 7.359 3.486 6.468 4.976"/>
        <path fill="#5A4750" d="M6.27173388 7.29558782L5.81367225 7.00804089 6.94372539 5.96632821 8.54656357 5.89044602 8.47407909 6.40891138C7.87759224 6.89780408 7.11398841 7.220209 6.27173388 7.29558782M9.67153272 4.54048555L9.27727254 4.8320594 8.50536319 3.5457116 8.88213146 2.11905098 9.43520313 2.34216726C9.64623866 2.77933926 9.76339673 3.26256911 9.76339673 3.77084134 9.76339673 4.03485598 9.73181061 4.29257857 9.67153272 4.54048555M8.1078563.867007472L8.24414222 1.37213367 6.6426883 1.46613698 5.38905919.549887883 5.78973728.230251473C5.82283349.229118903 5.85567802.229118903 5.88877423.229118903 6.7140402.229118903 7.47927997.464819295 8.1078563.867007472M3.27526837 1.15629101L3.76026 1.13879909 3.53752124 2.59176051 2.30301998 3.5294026 2.07235324 3.15640956C2.2228592 2.3697768 2.6572627 1.67274291 3.27526837 1.15629101M2.37520244 5.26505347L2.47864383 4.81101876 3.9669666 5.36107024 4.66274208 6.68353443 3.9825709 6.85493002C3.28188762 6.49238179 2.71711273 5.93578657 2.37520244 5.26505347"/>
        <path fill="#5A4750" d="M3.71816615 5.60005508C3.72156386 5.59728658 4.35706145 4.70897421 5.04000113 4.31119047L5.12444051 4.43275298C4.80706924 4.61585179 4.48516769 4.9284411 4.24606959 5.19497256 4.00671981 5.4611265 3.84979595 5.6790833 3.84941842 5.67946082L3.71816615 5.60005508zM6.35419756 4.88556703L6.35419756 4.88594456 6.35419756 4.88556703zM6.35419756 4.88594456L6.49639801 4.82365321C6.49702722 4.82591835 6.93734525 5.66892792 7.07375701 6.14485899L6.92148927 6.18135291C6.7951448 5.73537203 6.36325812 4.90217806 6.35419756 4.88594456zM7.86429084 3.76466671C7.66974049 3.76466671 7.45895663 3.78378546 7.24892783 3.83875185L7.23055503 3.49939412C7.44800846 3.44263535 7.66521021 3.42441279 7.86429084 3.42321787 8.36060816 3.42441279 8.74543027 3.54659352 8.74769541 3.54659352L8.74819877 3.54719098 8.72479233 3.88475633C8.7216463 3.88475633 8.34752069 3.76466671 7.86429084 3.76466671M5.97262216 2.55123967C6.0872634 1.74396898 6.60195353 1.15301914 6.60535124 1.14773381L6.72905305 1.23733268C6.72930473 1.2377102 6.60711302 1.37701631 6.47007205 1.61548521 6.33265356 1.85458331 6.18239928 2.18906897 6.12879097 2.57024168L5.97262216 2.55123967zM3.20902561 2.56868125L3.25760028 2.43214365C4.02132996 2.6585318 4.79311346 3.14377511 4.79651117 3.14541104L4.79651117 3.14591441 4.70779319 3.26407921C4.7056539 3.26445673 3.94167254 2.78537964 3.20902561 2.56868125M8.26873157 6.02661868C8.26810237 6.02536027 8.46479202 5.88164973 8.69885647 5.6032892 8.93355014 5.32467699 9.20272426 4.91556755 9.34265958 4.39458537L9.49530484 4.4295692C9.20171754 5.51947902 8.37607404 6.13144433 8.36789436 6.13798806L8.26873157 6.02661868zM8.36789436 6.13798806L8.36814605 6.13886895 8.36789436 6.13798806zM7.82287653 1.06227512L7.8233799 1.06227512 7.82287653 1.06227512zM8.35757539 1.59131113C8.07946655 1.29319355 7.83369887 1.07158736 7.8233799 1.06227512L7.93323918.959840456C7.93588184.964244895 8.94953196 1.8633796 9.22864753 2.53537111L9.08078423 2.58595924C8.9567049 2.28066871 8.64134709 1.8945882 8.35757539 1.59131113zM3.40405416 1.42321258C3.41286304 1.40169375 3.82046238.657595287 5.71248342.476887458L5.72922029.619465431C4.34068952.754744621 3.80297047 1.18738635 3.62352105 1.38357263 3.56575998 1.44737407 3.54789055 1.4823579 3.54638045 1.48424552L3.40405416 1.42321258zM3.54638045 1.48424552L3.54663214 1.48424552 3.54638045 1.48424552zM2.30515928 3.93769407C2.30530266 3.41595684 2.42144002 3.01100016 2.42244368 3.00722492L2.59693647 3.03931441C2.59794013 3.04006945 2.4843836 3.43294539 2.4843836 3.93769407 2.4843836 4.31521739 2.54876097 4.75276691 2.76669774 5.126515L2.60396206 5.18729625C2.3699668 4.78435303 2.30530266 4.3278015 2.30515928 3.93769407M4.19290172 6.55836028L4.29860825 6.45177286C4.2993633 6.45139534 4.32163717 6.47140407 4.38619366 6.50777215 4.45062431 6.54388855 4.55368818 6.59397331 4.70331325 6.64707826 5.00281508 6.75202974 5.48919096 6.86616763 6.23039508 6.89662117L6.22334798 7.03995419C4.71249965 6.9796763 4.20724761 6.57056687 4.19290172 6.55836028"/>
      </g>
    </g>
    <path fill="#FFF" d="M325.200005,79.2 L225.6,79.2 C229.201251,73.4348323 235.600056,69.6 242.893697,69.6 C243.28994,69.6 243.683542,69.6113183 244.074199,69.6336496 C246.414815,63.9782898 251.982812,60 258.47912,60 C260.10701,60 261.676609,60.2498122 263.151738,60.7132262 C265.975763,55.9742211 271.148408,52.8 277.061739,52.8 C283.773093,52.8 289.530354,56.8887731 291.9828,62.7133959 C292.971326,62.5079625 293.995526,62.4 295.044919,62.4 C300.521757,62.4 305.31239,65.3407374 307.926743,69.7307422 C308.616012,69.6444538 309.318271,69.6 310.030903,69.6 C316.726391,69.6 322.506206,73.524126 325.2,79.1999991 Z" mask="url(#header-bg-d)" opacity=".6"/>
    <path fill="#FFF" d="M433.200003 118.8L390 118.8C391.56337 116.708018 394.120792 115.311305 397.033188 115.206355 397.81457 112.432899 400.363033 110.4 403.386285 110.4 404.431303 110.4 405.419593 110.642893 406.297783 111.075305 407.573727 109.227134 409.823496 108 412.38592 108 415.235844 108 417.699019 109.517948 418.865823 111.719991 419.292259 111.641306 419.733625 111.6 420.185603 111.6 422.899703 111.6 425.23115 113.08945 426.24494 115.218311 426.423341 115.206176 426.603551 115.2 426.785335 115.2 429.583197 115.2 432.00831 116.662994 433.2 118.799999zM320.4 232.8L283.2 232.8C284.537384 230.685567 287.016719 229.25088 289.866731 229.201326 290.707486 227.081532 292.628566 225.6 294.863968 225.6 295.791957 225.6 296.665776 225.85532 297.430626 226.30563 298.461687 224.454135 300.451274 223.2 302.736504 223.2 305.259839 223.2 307.422713 224.729093 308.332703 226.903079 308.67719 226.835457 309.033356 226.8 309.397881 226.8 311.314551 226.8 313.000142 227.780249 313.971814 229.262356 314.257919 229.221269 314.550502 229.2 314.848098 229.2 317.331361 229.2 319.465522 230.680914 320.4 232.8zM78 130.8L31.2 130.8C32.7457582 128.158001 35.5284135 126.31195 38.7650851 126.035895 39.6720042 123.220699 42.1533388 121.2 45.0722409 121.2 46.2544566 121.2 47.364893 121.531479 48.3280175 122.112968 49.7558289 120.10909 52.1141996 118.8 54.7818147 118.8 58.0635901 118.8 60.8773361 120.781258 62.0662243 123.6 64.3744774 123.600746 66.4088719 124.759843 67.6070748 126.521303 68.5191387 126.185099 69.5158206 126 70.5598721 126 73.9948047 126 76.9170036 128.003538 78 130.8z" mask="url(#header-bg-d)"/>
  </g>
</svg>
