<svg xmlns="http://www.w3.org/2000/svg" width="178" height="168" viewBox="0 0 178 168">
  <g fill="none" fill-rule="evenodd">
    <ellipse cx="88.8" cy="84" fill="#93C2FC" opacity=".169" rx="88.8" ry="84"/>
    <ellipse cx="87.484" cy="84" fill="#93C2FC" opacity=".24" rx="71.698" ry="68.25"/>
    <ellipse cx="88.8" cy="83.344" fill="#93C2FC" opacity=".602" rx="55.911" ry="53.156"/>
    <g transform="translate(31.2 25.2)">
      <rect width="115.2" height="115.2" fill="#FFF" rx="14.4"/>
      <rect width="103.68" height="115.2" x="11.52" fill="#98E5AC" rx="14.4"/>
      <path fill="#62BE76" d="M65.664,0 L100.8,1.77635684e-15 C108.7529,3.15432737e-16 115.2,6.4470996 115.2,14.4 L115.2,100.8 C115.2,108.7529 108.7529,115.2 100.8,115.2 L65.664,115.2 L65.664,0 Z"/>
      <rect width="110.4" height="110.4" x="2.4" y="2.4" stroke="#333" stroke-width="4.8" rx="14.4"/>
      <g fill-rule="nonzero" transform="translate(38.016 64.512)">
        <path fill="#0F0F0F" d="M1.20163679 3.76762231C1.20163679 5.84842266 2.88845876 7.53524463 4.96925911 7.53524463 7.05005945 7.53524463 8.73688142 5.84842266 8.73688142 3.76762231 8.73688142 1.68682197 7.05005945 0 4.96925911 0 2.88845876 0 1.20163679 1.68682197 1.20163679 3.76762231zM31.8063227 3.76762231C31.8063227 5.84842266 33.4931446 7.53524463 35.573945 7.53524463 37.6547453 7.53524463 39.3415673 5.84842266 39.3415673 3.76762231 39.3415673 1.68682197 37.6547453 0 35.573945 0 33.4931446 0 31.8063227 1.68682197 31.8063227 3.76762231z"/>
        <path fill="#141414" d="M20.271602,21.7073009 C14.7554166,21.7073009 10.2632515,17.2151358 10.2632515,11.6989503 C10.2632515,11.0227104 10.813904,10.4720579 11.4901439,10.4720579 C12.1663838,10.4720579 12.7170363,11.0227104 12.7170363,11.6989503 C12.7170363,15.862656 16.0982358,19.2438555 20.2619415,19.2438555 C24.4256472,19.2438555 27.8068467,15.862656 27.8068467,11.6989503 C27.8068467,11.0227104 28.3574992,10.4720579 29.0337391,10.4720579 C29.709979,10.4720579 30.2606315,11.0227104 30.2606315,11.6989503 C30.2799526,17.2247964 25.7877875,21.7073009 20.271602,21.7073009 Z"/>
      </g>
      <path fill="#FFF" stroke="#333" stroke-width="4.8" d="M97.7861301,34.119526 C86.9308911,24.4363092 73.9078894,19.5472589 58.717125,19.452375 C43.5296803,19.3575118 30.509051,23.9444474 19.6552371,33.2131816 L19.6552538,33.2132012 C19.2073673,33.5956789 19.1032712,34.2466712 19.4095549,34.7497435 L30.4934172,52.955042 C30.8137866,53.48125 31.4805753,53.6793791 32.0363064,53.4134949 C40.8789745,49.1828057 49.7725807,47.1235262 58.717125,47.2356562 C67.6554159,47.3477079 76.3721223,49.5454755 84.8672442,53.8289588 L84.867246,53.8289553 C85.4129934,54.1041367 86.078374,53.9251604 86.4124276,53.4133272 L97.992233,35.6708963 C98.3165726,35.1739467 98.2289709,34.514554 97.7861301,34.119526 Z"/>
      <path fill="#62BF76" d="M57.661678,26.7701585 L54.144,45.2356875 L62.3581572,45.2356875 L58.8404792,26.7701585 C58.7784683,26.4446415 58.4643149,26.2310276 58.138798,26.2930385 C57.8969255,26.3391152 57.7077547,26.528286 57.661678,26.7701585 Z"/>
    </g>
  </g>
</svg>
