<svg xmlns="http://www.w3.org/2000/svg" width="87" height="87" viewBox="0 0 87 87">
  <g fill="none" fill-rule="evenodd">
    <rect width="87" height="87" fill="#666" rx="12"/>
    <g transform="translate(12 27)">
      <path fill="#FFF" stroke="#333" stroke-width="1.5" d="M60.8587659,13.0323314 C52.3490295,5.29683852 42.5874336,1.54020457 31.5378472,1.74395681 C20.5658444,1.94627841 11.1492583,5.69337018 3.25378296,12.996737 C1.73342231,14.4030869 1.64099411,16.7756533 3.04733916,18.2960154 C3.08794079,18.3399088 3.1295864,18.3828248 3.17224013,18.4247265 L13.9067258,28.9699429 C15.1417298,30.1831722 17.0467412,30.3932838 18.5164669,29.4783704 C22.6640886,26.89645 26.9907248,25.4896486 31.4866734,25.2654943 C36.1452122,25.0332338 40.9120617,26.444366 45.7761402,29.4798115 C47.252022,30.4008407 49.1675531,30.1858748 50.4025735,28.9606214 L60.9774585,18.4693624 C62.447726,17.0107222 62.4571517,14.6363735 60.9985115,13.166106 C60.9530878,13.1203202 60.9064904,13.0757138 60.8587659,13.0323314 Z"/>
      <polygon fill="#62BF76" points="31.738 11.893 28.115 24.808 35.069 24.808"/>
      <circle cx="31.423" cy="24.808" r="3.308" fill="#FFF" stroke="#333" stroke-width="1.5"/>
      <path stroke="#333" stroke-linecap="round" stroke-width="1.5" d="M11.3960337 8.50341797L15.7115385 15.7115385M20.6730769 4.13461538L22.3269231 9.09615385M32.25 2.48076923L32.25 9.09615385M43.5382268 4.04295936L41.3518066 9.82617187M53.2699162 8.31122296L47.9679988 15.4749286"/>
    </g>
  </g>
</svg>
