<svg xmlns="http://www.w3.org/2000/svg" xmlns:xlink="http://www.w3.org/1999/xlink" width="940" height="300" viewBox="0 0 940 300">
  <defs>
    <polygon id="header-bg-a" points="0 0 940 0 940 300 0 300"/>
    <linearGradient id="header-bg-c" x1="50%" x2="50%" y1="201.957%" y2="18.417%">
      <stop offset="0%" stop-color="#FCEFF0"/>
      <stop offset="100%" stop-color="#FCC7CB"/>
    </linearGradient>
    <linearGradient id="header-bg-d" x1="50%" x2="50%" y1="125.225%" y2="28.052%">
      <stop offset="0%" stop-color="#FFE8E9"/>
      <stop offset="100%" stop-color="#FDADB2"/>
    </linearGradient>
    <linearGradient id="header-bg-e" x1="50%" x2="50%" y1="265.142%" y2="0%">
      <stop offset="0%" stop-color="#FAB5BB"/>
      <stop offset="100%" stop-color="#FA9096"/>
    </linearGradient>
    <linearGradient id="header-bg-f" x1="50%" x2="50%" y1="100%" y2="2.655%">
      <stop offset="0%" stop-color="#FB9EA4"/>
      <stop offset="100%" stop-color="#EB7C83"/>
    </linearGradient>
    <linearGradient id="header-bg-g" x1="50%" x2="50%" y1="100%" y2="2.655%">
      <stop offset="0%" stop-color="#FB989E"/>
      <stop offset="100%" stop-color="#F0858C"/>
    </linearGradient>
    <linearGradient id="header-bg-h" x1="50%" x2="50%" y1="100%" y2="2.655%">
      <stop offset="0%" stop-color="#FFB8BD"/>
      <stop offset="100%" stop-color="#EB949A"/>
    </linearGradient>
    <linearGradient id="header-bg-i" x1="50%" x2="50%" y1="100%" y2="2.655%">
      <stop offset="0%" stop-color="#FDADB3"/>
      <stop offset="100%" stop-color="#F3979E"/>
    </linearGradient>
  </defs>
  <g fill="none" fill-rule="evenodd">
    <mask id="header-bg-b" fill="#fff">
      <use xlink:href="#header-bg-a"/>
    </mask>
    <use fill="#FFEEEF" xlink:href="#header-bg-a"/>
    <g mask="url(#header-bg-b)" opacity=".7">
      <g transform="translate(-52.714 160.8)">
        <g opacity=".6" transform="translate(80.307 2.4)">
          <g fill="#D39576">
            <ellipse cx="8.648" cy="8.4" rx="8.648" ry="8.4"/>
            <polygon points="7.784 14.08 9.513 14.08 9.513 26.4 7.784 26.4"/>
          </g>
          <path fill="#D39576" d="M0 10.0990229C.67390222 4.90538453 1.30305312 2.39924614 1.8874527 2.58060774 2.47185229 2.76196935 3.21273524 5.26810774 4.11010156 10.0990229L0 10.0990229zM4.49268147 12C5.32005383 3.72064038 6.09248349-.274482009 6.80997046.0146328372 7.52745743.303747684 8.43706428 4.29887007 9.53879101 12L4.49268147 12z" transform="translate(17.297 13.2)"/>
          <g fill="#BE8264" transform="translate(40.771 14.4)">
            <polygon points="1.853 0 12.973 0 12.973 1.8 1.853 1.8"/>
            <polygon points="0 3.6 14.826 3.6 14.826 5.4 0 5.4"/>
            <polygon points="1.853 4.5 2.78 4.5 2.78 7.2 1.853 7.2"/>
            <polygon points="12.046 4.5 12.973 4.5 12.973 7.2 12.046 7.2"/>
          </g>
        </g>
        <path fill="url(#header-bg-c)" d="M31.919054,33.4064841 C57.3987053,29.9416542 118.257654,20.4142271 252.765268,23.3557411 C387.272881,26.2972551 646.402716,47.9156731 703.55197,51.6165082 C741.651473,54.0837316 733.362568,74.4782288 678.685256,112.8 L79.3254597,112.8 L0,81.7123011 C4.29293518,51.8183097 14.9326198,35.7163707 31.919054,33.4064841 Z"/>
        <path fill="#D09676" d="M0 16.8521739C1.08436409 8.28483657 2.09671963 4.1507534 3.03706661 4.44992441 3.97741359 4.74909543 5.16955519 8.8831786 6.6134914 16.8521739L0 16.8521739zM7.55827588 20.4C8.95245828 6.32508864 10.2540583-.466619416 11.4630758.0248758232 12.6720934.516371062 14.2048468 7.30807912 16.0613363 20.4L7.55827588 20.4z" transform="translate(233.507 55.2)"/>
        <path fill="url(#header-bg-d)" d="M241.553493,107.079918 C302.762544,107.079918 375.248074,87.6032399 390.584227,85.8779101 C405.92038,84.1525803 555.960681,57.2136381 610.545114,40.0810283 C665.129547,22.9484186 751.584924,4.95059422 822.465134,1.57982678 C893.345344,-1.79094067 976.390309,0.330450036 996.139307,7.00569147 C1015.88831,13.6809329 1035.53385,77.7391131 1035.37688,79.513738 C1035.21992,81.2883629 1007.6334,129.691088 1004.32287,130.207837 C1001.01234,130.724586 501.561752,136.05186 487.292245,135.569108 C473.022738,135.086355 180.344441,107.079918 241.553493,107.079918 Z"/>
        <g transform="translate(308.872 38.2)">
          <ellipse cx="14.826" cy="14.4" fill="#FB9977" rx="14.826" ry="14.4"/>
          <polygon fill="#FB9977" points="13.862 22.629 17.061 22.629 17.061 43.2 13.862 43.2"/>
        </g>
        <g transform="translate(457.13 55.2)">
          <ellipse cx="9.884" cy="9.6" fill="#FB9977" rx="9.884" ry="9.6"/>
          <polygon fill="#FB9977" points="8.648 14.4 11.119 14.4 11.119 28.8 8.648 28.8"/>
        </g>
        <path fill="#73A23A" d="M0 10.0990229C.593827114 4.90538453 1.1482204 2.39924614 1.66317985 2.58060774 2.1781393 2.76196935 2.83098829 5.26810774 3.62172683 10.0990229L0 10.0990229zM3.95884743 12C4.68790889 3.72064038 5.36855612-.274482009 6.00078911.0146328372 6.6330221.303747684 7.43454671 4.29887007 8.40536293 12L3.95884743 12z" transform="translate(63.01 73.2)"/>
        <path fill="#73A23A" d="M0 12.1188275C.678659559 5.88646143 1.31225188 2.87909536 1.90077697 3.09672929 2.48930205 3.31436322 3.23541519 6.32172929 4.13911637 12.1188275L0 12.1188275zM4.52439706 14.4C5.35761016 4.46476845 6.13549271-.329378411 6.8580447.0175594046 7.58059669.364497221 8.49662481 5.15864409 9.60612906 14.4L4.52439706 14.4z" transform="translate(332.346 67)"/>
        <path fill="#73A23A" d="M0 8.83636364C.520903314 4.09454858 1.00721539 1.80643303 1.45893624 1.97201699 1.91065708 2.13760095 2.4833342 4.4257165 3.17696761 8.83636364L0 8.83636364zM3.17696761 10.8C3.87150536 3.34857634 4.51992147-.247033808 5.12221593.0131695535 5.72451038.273372915 6.48807988 3.86898306 7.41292442 10.8L3.17696761 10.8z" transform="translate(342.23 69.4)"/>
        <path fill="url(#header-bg-e)" d="M39.6868213,89.1410553 C53.8792937,89.1410553 139.652273,75.6 259.238507,75.6 C378.824741,75.6 430.322634,84.9901776 542.881906,86.7850604 C655.441179,88.5799431 739.530246,79.5920086 822.645911,77.5960043 C905.761577,75.6 1034.22921,84.9901776 1045.33095,89.1410553 C1052.73212,91.908307 1044.22019,108.994622 1019.79516,140.4 L39.6868213,140.4 C30.225173,106.22737 30.225173,89.1410553 39.6868213,89.1410553 Z"/>
        <path fill="url(#header-bg-f)" d="M54,128.902441 C61.3052864,124.024812 71.3708179,121.010811 82.484219,121.010811 C86.9167931,121.010811 91.1826712,121.490281 95.1732041,122.37623 C101.967743,117.24038 111.868365,114.005405 122.892065,114.005405 C132.557926,114.005405 141.360339,116.492528 147.962514,120.567427 C151.962229,119.171841 156.501291,118.383784 161.312639,118.383784 C170.155367,118.383784 178.078359,121.045716 183.423667,125.248832 C190.931685,122.036686 200.244616,120.135135 210.331993,120.135135 C221.38614,120.135135 231.510284,122.418641 239.348374,126.20798 C246.543082,117.371711 260.516091,111.378378 276.574362,111.378378 C285.542632,111.378378 293.860502,113.247718 300.71048,116.43762 C305.831352,110.77738 315.059965,107 325.593716,107 C338.671588,107 349.737754,112.822355 353.429018,120.841624 C358.882252,118.721426 365.212201,117.508108 371.963375,117.508108 C384.872271,117.508108 396.241123,121.944137 402.885666,128.67393 C408.964946,125.519162 416.628709,123.637838 424.957271,123.637838 C434.696771,123.637838 443.527149,126.210584 449.977648,130.383962 C460.078978,120.994838 476.559089,114.881081 495.174182,114.881081 C508.914105,114.881081 521.490886,118.211863 531.198004,123.732051 C537.639888,119.861064 546.139009,117.508108 555.454739,117.508108 C568.227725,117.508108 579.465511,121.931597 585.970159,128.626424 C591.143081,126.041847 597.544181,124.513514 604.474093,124.513514 C618.510013,124.513514 630.376597,130.783184 634.262926,139.4 L54,139.4 L54,128.902441 Z"/>
        <path fill="url(#header-bg-g)" d="M825.076672,131.05467 C825.025925,130.696361 825,130.333497 825,129.966781 C825,123.35771 833.420491,118 843.807693,118 C849.343187,118 854.320139,119.52158 857.761788,121.943257 C861.203438,119.52158 866.18039,118 871.715883,118 C882.103086,118 890.523577,123.35771 890.523577,129.966781 C890.523577,130.333497 890.497652,130.696361 890.446905,131.05467 L825.076672,131.05467 Z"/>
        <path fill="url(#header-bg-h)" d="M746.076672,65.0546701 C746.025925,64.6963607 746,64.3334971 746,63.9667809 C746,57.3577103 754.420491,52 764.807693,52 C770.343187,52 775.320139,53.52158 778.761788,55.9432569 C782.203438,53.52158 787.18039,52 792.715883,52 C803.103086,52 811.523577,57.3577103 811.523577,63.9667809 C811.523577,64.3334971 811.497652,64.6963607 811.446905,65.0546701 L746.076672,65.0546701 Z"/>
        <path fill="url(#header-bg-i)" d="M841.076672,28.0546701 C841.025925,27.6963607 841,27.3334971 841,26.9667809 C841,20.3577103 849.420491,15 859.807693,15 C865.343187,15 870.320139,16.52158 873.761788,18.9432569 C877.203438,16.52158 882.18039,15 887.715883,15 C898.103086,15 906.523577,20.3577103 906.523577,26.9667809 C906.523577,27.3334971 906.497652,27.6963607 906.446905,28.0546701 L841.076672,28.0546701 Z"/>
      </g>
    </g>
  </g>
</svg>
