<svg xmlns="http://www.w3.org/2000/svg" width="136" height="135" viewBox="0 0 136 135">
  <defs>
    <linearGradient id="header-icon-a" x1="50%" x2="50%" y1="52.74%" y2="100%">
      <stop offset="0%" stop-color="#FB628F"/>
      <stop offset="100%" stop-color="#F63356"/>
    </linearGradient>
  </defs>
  <g fill="none" fill-rule="evenodd" transform="translate(27 8)">
    <path fill="url(#header-icon-a)" stroke="#333" stroke-width="4" d="M31.2746785,32 C11.585106,55.5715553 1.23092601,72.2579164 0.212138422,82.0590832 C-2.0963644,104.267855 14.8016746,116.576084 33.0911009,116.993342 C51.3805271,117.410601 67.2844176,98.1419955 61.9565359,79.7464201 C58.4046147,67.4827032 48.1773289,51.5672299 31.2746785,32 Z"/>
    <path fill="url(#header-icon-a)" d="M65.8712449 0C54.6200606 13.5883084 48.7033863 23.2075047 48.121222 28.8575891 46.8020775 41.6602929 56.4580998 48.7556247 66.9092005 48.996162 77.3603012 49.2366992 86.4482386 38.128915 83.4037348 27.5244069 81.3740655 20.4547348 75.5299022 11.2799325 65.8712449 0zM18.4320459 0C12.4939209 7.21012281 9.37123165 12.3141862 9.06397825 15.3121901 8.36776312 22.1054615 13.4639971 25.8703315 18.9798558 25.9979635 24.4957145 26.1255955 29.292126 20.2316692 27.6853045 14.6047873 26.6140901 10.8535328 23.5296706 5.98527031 18.4320459 0z"/>
    <path stroke="#FFF" stroke-linecap="round" stroke-width="6" d="M12,85 C12,100.702292 23.1041649,104.397765 29,105"/>
  </g>
</svg>
