<svg xmlns="http://www.w3.org/2000/svg" width="41" height="34" viewBox="0 0 41 34">
  <g fill="none" fill-rule="evenodd">
    <path fill="#DAAAAB" d="M30.75,20.2162162 L41,20.2162162 L41,31 C41,32.6568542 39.6568542,34 38,34 L33.75,34 C32.0931458,34 30.75,32.6568542 30.75,31 L30.75,20.2162162 Z"/>
    <path fill="#DAAAAB" d="M16.7883282,31.6028202 C11.1182153,29.3666074 4.75868248,24.2260391 4.65909091,15.653137 C4.65891448,15.63795 37.2748135,15.5905345 37.2727273,15.653137 C36.9555046,25.1719926 30.4242726,29.8683817 26.1678395,31.6904351 L26.1678395,34 L16.6493642,34 L16.6493642,31.6028202 L16.7883282,31.6028202 Z"/>
    <g fill="#882027" fill-rule="nonzero">
      <path d="M39.3544724,22.4742227 C38.9602889,22.4742227 38.6408413,22.7926694 38.6408413,23.1854438 L38.6408413,29.8322691 C38.6408413,30.8393969 37.8186669,31.6587948 36.8081264,31.6587948 L30.691277,31.6587948 C29.9336651,31.6587948 29.282014,31.1983222 29.0032604,30.5434122 L37.3563992,30.5434122 C37.7505828,30.5434122 38.0700303,30.2249655 38.0700303,29.8321911 C38.0700303,29.4394167 37.7505828,29.1209699 37.3563992,29.1209699 L28.8585621,29.1209699 L28.8585621,27.9390591 C28.8585621,27.9380712 28.8585621,26.0532584 28.8585621,22.2846209 L33.4504055,22.2846209 C33.8445891,22.2846209 34.1640366,21.9661742 34.1640366,21.5733998 C34.1640366,21.1806254 33.8445891,20.8621786 33.4504055,20.8621786 L28.8585621,20.8621786 L28.8585621,19.5889376 L38.6409196,19.5889376 L38.6409196,21.0045165 C38.6407631,21.3971349 38.9601324,21.7155036 39.3543159,21.7155036 C39.7484995,21.7155036 40.067947,21.3970569 40.067947,21.0042825 L40.067947,18.8774825 C40.067947,18.4847081 39.7484995,18.1662613 39.3543159,18.1662613 L35.9624747,18.1662613 C36.3235553,16.7536462 36.5065216,15.2968868 36.5065216,13.822969 C36.5065216,13.4301946 36.187074,13.1117478 35.7928905,13.1117478 L13.2637773,13.1117478 L4.24748357,0.30282586 C4.02116257,-0.0187406245 3.57603329,-0.0964999708 3.25345543,0.128978735 C2.93079932,0.354457442 2.85277648,0.798083481 3.07901923,1.11964997 L11.5203543,13.1118258 L10.3190218,13.1118258 L1.19997581,4.64767808 C0.911674782,4.379849 0.45997187,4.39583763 0.191391761,4.68339902 C-0.0771883488,4.97080443 -0.0611455392,5.42090391 0.227233745,5.68857701 L8.22484822,13.1119038 L1.96087453,13.1119038 C1.56676922,13.1119038 1.2472434,13.4303506 1.2472434,13.823125 C1.2472434,17.9159027 2.69000066,21.9007378 5.30975233,25.0434788 C5.4508508,25.2128803 5.65416407,25.3002329 5.85904248,25.3002329 C6.01978361,25.3002329 6.18138557,25.2464955 6.31473653,25.1360569 C6.6179065,24.8850744 6.65953955,24.4366908 6.40770657,24.1344666 C4.72469846,22.1153754 3.57063352,19.7177046 3.0283083,17.1723924 L12.041863,17.1723924 C12.4359683,17.1723924 12.7554942,16.8539456 12.7554942,16.4611712 C12.7554942,16.0683968 12.4359683,15.7499501 12.041863,15.7499501 L2.79142252,15.7499501 C2.74258977,15.3469586 2.7083912,14.9414713 2.69031369,14.5341901 L35.0639208,14.5341901 C35.0101579,15.7683565 34.8164703,16.9854424 34.4856754,18.1662613 L28.1447745,18.1662613 C27.7505909,18.1662613 27.4311433,18.4847081 27.4311433,18.8774825 L27.4311433,27.5383294 C26.5173292,28.1056528 25.5465436,28.582504 24.5379596,28.9574179 L22.5605463,28.9574179 C22.1663628,28.9574179 21.8469152,29.2758647 21.8469152,29.6686391 C21.8469152,30.0614135 22.1663628,30.3798602 22.5605463,30.3798602 L23.9513405,30.3798602 L23.9513405,31.6586388 L13.802581,31.6586388 L13.802581,30.3798602 L20.0390862,30.3798602 C20.4332698,30.3798602 20.7527173,30.0614135 20.7527173,29.6686391 C20.7527173,29.2758647 20.4332698,28.9574179 20.0390862,28.9574179 L13.2158054,28.9574179 C11.3534309,28.2656171 9.65070183,27.2466343 8.15277296,25.9274552 C7.85742875,25.6672695 7.4063519,25.6951131 7.1455193,25.9894599 C6.88453017,26.2838067 6.91238988,26.7332823 7.20773409,26.993312 C8.74526131,28.3473541 10.4818759,29.4100912 12.3755535,30.1582812 L12.3755535,32.3697819 C12.3755535,32.7625563 12.6950793,33.0810031 13.0891846,33.0810031 L24.6652064,33.0810031 C25.05939,33.0810031 25.3788376,32.7625563 25.3788376,32.3697819 L25.3788376,30.1589051 C26.0832343,29.880235 26.7688492,29.5543009 27.4313781,29.1872643 L27.4313781,29.8321131 C27.4313781,31.6236198 28.893778,33.0810811 30.6913553,33.0810811 L36.8082047,33.0810811 C38.6057819,33.0810811 40.0681818,31.6236198 40.0681818,29.8321131 L40.0681818,23.1852878 C40.0681036,22.7926694 39.748656,22.4742227 39.3544724,22.4742227 Z"/>
      <path d="M32.9315631 15.7528958L14.3488915 15.7528958C13.9481158 15.7528958 13.6231818 16.1055609 13.6231818 16.5405405 13.6231818 16.9755202 13.9481158 17.3281853 14.3488915 17.3281853L32.9315631 17.3281853C33.3324184 17.3281853 33.6572727 16.9755202 33.6572727 16.5405405 33.6572727 16.1055609 33.3324184 15.7528958 32.9315631 15.7528958zM36.8070411 20.4787645L35.3156861 20.4787645C34.8422834 20.4787645 34.4586364 20.8314296 34.4586364 21.2664093 34.4586364 21.7013889 34.8422834 22.0540541 35.3156861 22.0540541L36.8070411 22.0540541C37.2804439 22.0540541 37.6640909 21.7013889 37.6640909 21.2664093 37.6640909 20.8314296 37.2804439 20.4787645 36.8070411 20.4787645z"/>
    </g>
  </g>
</svg>
