<svg xmlns="http://www.w3.org/2000/svg" width="41" height="40" viewBox="0 0 41 40">
  <g fill="none" fill-rule="evenodd">
    <circle cx="22.5" cy="21.5" r="18.5" fill="#DAAAAB"/>
    <g fill="#882027" fill-rule="nonzero">
      <path d="M34.1421875,5.8578125 C30.3646094,2.0803125 25.3421875,0 20,0 C14.6578125,0 9.63539062,2.0803125 5.8578125,5.8578125 C2.08023438,9.6353125 0,14.6578125 0,20 C0,25.3421875 2.0803125,30.3646094 5.8578125,34.1421875 C9.6353125,37.9197656 14.6578125,40 20,40 C25.3421875,40 30.3646094,37.9196875 34.1421875,34.1421875 C37.9197656,30.3646875 40,25.3421875 40,20 C40,14.6578125 37.9196875,9.63539062 34.1421875,5.8578125 Z M33.2582813,33.2582813 C29.716875,36.7996875 25.0082813,38.75 20,38.75 C14.9917188,38.75 10.283125,36.7996875 6.74171875,33.2582813 C3.2003125,29.716875 1.25,25.0082813 1.25,20 C1.25,14.9917188 3.2003125,10.283125 6.74171875,6.74171875 C10.283125,3.2003125 14.9917188,1.25 20,1.25 C25.0082813,1.25 29.716875,3.2003125 33.2582813,6.74171875 C36.7996875,10.283125 38.75,14.9917188 38.75,20 C38.75,25.0082813 36.7996875,29.716875 33.2582813,33.2582813 Z"/>
      <path d="M3.75 20C3.75 11.0397656 11.0397656 3.75 20 3.75 23.231875 3.75 26.3535938 4.69617187 29.0277344 6.48625 29.3145313 6.67828125 29.7027344 6.60140625 29.8947656 6.31453125 30.0867969 6.02773437 30.0099219 5.63953125 29.7230469 5.4475 26.8425 3.51921875 23.4803125 2.5 20 2.5 15.3255469 2.5 10.9309375 4.3203125 7.625625 7.625625 4.3203125 10.9309375 2.5 15.3255469 2.5 20 2.5 24.3125 4.08234375 28.455625 6.955625 31.66625 7.0790625 31.8042187 7.25 31.8744531 7.4215625 31.8744531 7.56992188 31.8744531 7.71890625 31.8219531 7.838125 31.7151562 8.0953125 31.4849219 8.11726563 31.0898437 7.88703125 30.8326562 5.21929688 27.8515625 3.75 24.0044531 3.75 20zM34.5525781 10.2771094C34.3605469 9.99023438 33.9723438 9.91335938 33.6855469 10.1053906 33.39875 10.2974219 33.3217969 10.685625 33.5138281 10.9724219 35.3038281 13.6464844 36.25 16.7682031 36.25 20 36.25 28.9602344 28.9602344 36.25 20 36.25 16.2825781 36.25 12.64875 34.9625781 9.76804688 32.6249219 9.5 32.4074219 9.10640625 32.4483594 8.88890625 32.7164063 8.67140625 32.9844531 8.71234375 33.3780469 8.98039063 33.5955469 12.083125 36.1133594 15.9966406 37.5 20 37.5 24.6744531 37.5 29.0690625 35.6796875 32.374375 32.374375 35.6796875 29.0690625 37.5 24.6744531 37.5 20 37.5 16.5197656 36.4807813 13.1575781 34.5525781 10.2771094zM30.8326563 7.88710937C31.2528906 8.263125 31.6580469 8.66554687 32.036875 9.08304687 32.1602344 9.21898437 32.3297656 9.28804687 32.4999219 9.28804687 32.6496875 9.28804687 32.8000781 9.23445312 32.9197656 9.12585937 33.1753125 8.89390625 33.1945312 8.49859375 32.9625781 8.24296875 32.5547656 7.79359375 32.1185938 7.36046875 31.66625 6.955625 31.4090625 6.72546875 31.0139063 6.74734375 30.78375 7.00453125 30.5535938 7.26171875 30.5753906 7.656875 30.8326563 7.88710937z"/>
      <path d="M20 8.125C20.3451562 8.125 20.625 7.84515625 20.625 7.5L20.625 5.625C20.625 5.27984375 20.3451562 5 20 5 19.6548437 5 19.375 5.27984375 19.375 5.625L19.375 7.5C19.375 7.84515625 19.6548437 8.125 20 8.125zM19.375 32.5L19.375 34.375C19.375 34.7201562 19.6548437 35 20 35 20.3451562 35 20.625 34.7201562 20.625 34.375L20.625 32.5C20.625 32.1548437 20.3451562 31.875 20 31.875 19.6548437 31.875 19.375 32.1548437 19.375 32.5zM8.125 20C8.125 19.6548437 7.84515625 19.375 7.5 19.375L5.625 19.375C5.27984375 19.375 5 19.6548437 5 20 5 20.3451562 5.27984375 20.625 5.625 20.625L7.5 20.625C7.84515625 20.625 8.125 20.3451562 8.125 20zM31.875 20C31.875 20.3451562 32.1548437 20.625 32.5 20.625L34.375 20.625C34.7201563 20.625 35 20.3451562 35 20 35 19.6548437 34.7201563 19.375 34.375 19.375L32.5 19.375C32.1548437 19.375 31.875 19.6548437 31.875 20zM14.29125 8.8621875L13.35375 7.23835938C13.1811719 6.939375 12.7989062 6.83710938 12.5 7.00960938 12.2010937 7.1821875 12.0986719 7.56445313 12.27125 7.86335938L13.20875 9.4871875C13.3245312 9.68765625 13.5346094 9.79976563 13.750625 9.79976563 13.8566406 9.79976563 13.9641406 9.77273438 14.0625781 9.7159375 14.3614062 9.54335938 14.4638281 9.16109375 14.29125 8.8621875zM26.79125 30.5128125C26.6186719 30.2139063 26.2363281 30.1116406 25.9375 30.2840625 25.6385938 30.4566406 25.5361719 30.8389063 25.70875 31.1378125L26.64625 32.7616406C26.7620313 32.9621094 26.9721094 33.0742188 27.188125 33.0742188 27.2941406 33.0742188 27.4016406 33.0471875 27.5000781 32.9903906 27.7989844 32.8178125 27.9014063 32.4355469 27.7288281 32.1366406L26.79125 30.5128125zM7.55148438 27.8125781C7.6575 27.8125781 7.765 27.7855469 7.8634375 27.72875L9.48726562 26.79125C9.78617187 26.6186719 9.88859375 26.2364063 9.71601562 25.9375 9.5434375 25.6385938 9.16109375 25.5363281 8.86226562 25.70875L7.2384375 26.64625C6.93953125 26.8188281 6.83710938 27.2010938 7.0096875 27.5 7.12539063 27.7004688 7.33546875 27.8125781 7.55148438 27.8125781zM30.8258594 14.3750781C30.931875 14.3750781 31.039375 14.3480469 31.1378125 14.29125L32.7616406 13.35375C33.0605469 13.1811719 33.1629688 12.7989062 32.9903906 12.5 32.8178125 12.2010938 32.4355469 12.0988281 32.1366406 12.27125L30.5128125 13.20875C30.2139063 13.3813281 30.1114844 13.7635937 30.2840625 14.0625 30.3998438 14.2629687 30.6099219 14.3750781 30.8258594 14.3750781zM27.5 7.00960937C27.2010938 6.83695312 26.8188281 6.939375 26.64625 7.23835937L25.70875 8.8621875C25.5361719 9.16109375 25.6385938 9.54335937 25.9375 9.7159375 26.0359375 9.7728125 26.1433594 9.79976562 26.2494531 9.79976562 26.4654688 9.79976562 26.6755469 9.68765625 26.7913281 9.4871875L27.7288281 7.86335937C27.9013281 7.56445312 27.7989063 7.1821875 27.5 7.00960937zM14.0625 30.2840625C13.7635937 30.1114844 13.3813281 30.2139063 13.20875 30.5128125L12.27125 32.1366406C12.0986719 32.4355469 12.2010937 32.8178125 12.5 32.9903906 12.5984375 33.0472656 12.7058594 33.0742188 12.8119531 33.0742188 13.0279687 33.0742188 13.2380469 32.9621094 13.3538281 32.7616406L14.2913281 31.1378125C14.4638281 30.8389063 14.3614062 30.4566406 14.0625 30.2840625zM30.5128125 26.79125L32.1366406 27.72875C32.2350781 27.785625 32.3425 27.8125781 32.4485937 27.8125781 32.6646094 27.8125781 32.8746875 27.7004687 32.9904687 27.5 33.1630469 27.2010937 33.060625 26.8188281 32.7617187 26.64625L31.1378906 25.70875C30.8389844 25.5360937 30.4567187 25.6385937 30.2841406 25.9375 30.1114844 26.2364062 30.2139062 26.6186719 30.5128125 26.79125zM9.4871875 13.20875L7.86335938 12.27125C7.56445313 12.0985937 7.1821875 12.2010937 7.00960938 12.5 6.83703125 12.7989062 6.93945313 13.1811719 7.23835938 13.35375L8.8621875 14.29125C8.960625 14.348125 9.06804688 14.3750781 9.17414062 14.3750781 9.39015625 14.3750781 9.60023437 14.2629687 9.71601563 14.0625 9.88851562 13.7635937 9.78609375 13.3813281 9.4871875 13.20875zM24.3509375 28.1602344C24.4569531 28.1602344 24.5644531 28.1332031 24.6628906 28.0764062 24.9617969 27.9038281 25.0642187 27.5215625 24.8916406 27.2226562L21.4244531 21.2172656C21.705 20.889375 21.875 20.4642969 21.875 20 21.875 19.1852344 21.3524219 18.4904687 20.625 18.2325L20.625 10C20.625 9.65484375 20.3451562 9.375 20 9.375 19.6548437 9.375 19.375 9.65484375 19.375 10L19.375 18.2325C18.6475781 18.4904687 18.125 19.1852344 18.125 20 18.125 21.0339062 18.9660937 21.875 20 21.875 20.1169531 21.875 20.2313281 21.8636719 20.3424219 21.843125L23.8091406 27.8476562C23.9249219 28.048125 24.135 28.1602344 24.3509375 28.1602344zM19.375 20C19.375 19.6553906 19.6553906 19.375 20 19.375 20.3446094 19.375 20.625 19.6553906 20.625 20 20.625 20.3446094 20.3446094 20.625 20 20.625 19.6553906 20.625 19.375 20.3446094 19.375 20z"/>
    </g>
  </g>
</svg>
