<svg xmlns="http://www.w3.org/2000/svg" width="41" height="39" viewBox="0 0 41 39">
  <g fill="none" fill-rule="evenodd">
    <path fill="#DAAAAB" d="M30.2444444,25.2910465 L40.2139434,25.2910465 L40.2139434,35.260814 C40.2139434,36.9176682 38.8707976,38.260814 37.2139434,38.260814 L33.2444444,38.260814 C31.5875902,38.260814 30.2444444,36.9176682 30.2444444,35.260814 L30.2444444,25.2910465 Z"/>
    <path fill="#DAAAAB" d="M16.6156299 35.6859337C11.1336738 33.5508395 4.98517561 28.6427209 4.88888889 20.457474 4.88871832 20.4429738 36.4222921 20.3977023 36.4202751 20.457474 36.1135791 29.5458996 29.7990794 34.0299242 25.6838916 35.7695868L25.6838916 37.9747162 16.4812772 37.9747162 16.4812772 35.6859337 16.6156299 35.6859337zM8.03203303 17.0967518C8.61603702 17.0967518 9.18639339 17.2584444 9.68147467 17.5643224L10.2140869 17.893401 10.4714723 17.3222816C10.7867889 16.6225626 11.7478081 15.8789332 12.9077839 15.8789332 13.1252216 15.8789332 13.3417353 15.9064751 13.5512119 15.9608471L14.2389235 16.139264 14.2389235 15.4279447C14.2389235 15.4212549 14.2388524 15.4145652 14.2386392 15.4078043 14.2425486 13.347647 15.9177928 11.6727907 17.9763073 11.6727907 19.5570133 11.6727907 20.9730951 12.675114 21.5003051 14.1669275L21.6878176 14.6976236 22.2135349 14.4981411C22.6476284 14.3333883 23.1553622 14.2417245 23.8113004 14.2098415 23.8906271 14.2059273 23.9705936 14.2039346 24.0489963 14.2039346 26.10943 14.2039346 27.7369075 15.5766136 28.0985692 17.6196907L28.2266577 18.3431085 28.8841598 18.0167343C29.4496115 17.7360496 30.0575699 17.5937857 30.6911887 17.5937857 32.3417676 17.5937857 33.8264428 18.6151819 34.4512474 20.102583L4.88888889 20.102583C4.9645194 18.4322814 6.34541587 17.0967518 8.03203303 17.0967518z"/>
    <g fill="#882027">
      <path fill-rule="nonzero" d="M8.00615213,19.2503405 L10.0464159,19.2503405 L10.0530041,19.2565048 L11.2233641,19.2565048 L11.2190596,19.2503405 L12.9175874,19.2503405 L12.9218384,19.2564282 L34.8701096,19.2564282 C35.2541304,19.2564282 35.565342,19.5691579 35.565342,19.9548808 C35.565342,21.4023375 35.3870929,22.8329437 35.0353216,24.2201982 L38.339715,24.2201982 C38.7237358,24.2201982 39.0349474,24.5329279 39.0349474,24.9186508 L39.0349474,27.0072684 C39.0349474,27.3929914 38.7237358,27.705721 38.339715,27.705721 C37.9556942,27.705721 37.6445588,27.393068 37.6447113,27.0074982 L37.6447113,25.6173332 L28.114561,25.6173332 L28.114561,26.8677158 L32.5880182,26.8677158 C32.972039,26.8677158 33.2832506,27.1804455 33.2832506,27.5661684 C33.2832506,27.9518913 32.972039,28.264621 32.5880182,28.264621 L28.114561,28.264621 C28.114561,31.9656003 28.114561,33.8165751 28.114561,33.8175452 L28.114561,34.9782373 L36.3933082,34.9782373 C36.777329,34.9782373 37.0885406,35.290967 37.0885406,35.6766899 C37.0885406,36.0624128 36.777329,36.3751425 36.3933082,36.3751425 L28.2555287,36.3751425 C28.5270955,37.0182949 29.1619459,37.4705007 29.9000251,37.4705007 L35.8591709,37.4705007 C36.8436578,37.4705007 37.644635,36.6658134 37.644635,35.6767665 L37.644635,29.1492715 C37.644635,28.7635486 37.9558467,28.4508189 38.3398674,28.4508189 C38.7238882,28.4508189 39.0350998,28.7635486 39.0351761,29.1491183 L39.0351761,35.6766133 C39.0351761,37.4359572 37.6104795,38.8672527 35.8592471,38.8672527 L29.9001014,38.8672527 C28.148869,38.8672527 26.7241724,37.4359572 26.7241724,35.6766133 L26.7241724,35.0433414 C26.0787247,35.4037886 25.4107862,35.7238713 24.7245501,35.9975385 L24.7245501,38.1687235 C24.7245501,38.5544464 24.4133385,38.8671761 24.0293177,38.8671761 L12.751747,38.8671761 C12.3678025,38.8671761 12.0565146,38.5544464 12.0565146,38.1687235 L12.0565146,35.9969257 C10.2116595,35.262168 8.51981806,34.2185102 7.02193112,32.8887771 C6.73420143,32.6334157 6.70706,32.1920096 6.96132034,31.9029471 C7.2154282,31.6138847 7.65487546,31.586541 7.94260515,31.8420556 C9.40191466,33.1375516 11.0607442,34.1382406 12.8751033,34.8176215 L19.5224674,34.8176215 C19.9064882,34.8176215 20.2176998,35.1303512 20.2176998,35.5160742 C20.2176998,35.9017971 19.9064882,36.2145268 19.5224674,36.2145268 L13.4467507,36.2145268 L13.4467507,37.4703475 L23.3338566,37.4703475 L23.3338566,36.2145268 L21.9789196,36.2145268 C21.5948989,36.2145268 21.2836872,35.9017971 21.2836872,35.5160742 C21.2836872,35.1303512 21.5948989,34.8176215 21.9789196,34.8176215 L23.9053515,34.8176215 C24.8879324,34.4494384 25.8336894,33.9811481 26.7239437,33.4240098 L26.7239437,24.9186508 C26.7239437,24.5329279 27.0351553,24.2201982 27.4191761,24.2201982 L33.5965969,24.2201982 C33.9188633,23.0605784 34.1075573,21.8653429 34.1599342,20.6533334 L2.62097812,20.6533334 C2.63858956,21.0533027 2.67190643,21.4515103 2.71948018,21.8472669 L11.7314273,21.8472669 C12.1153719,21.8472669 12.4266597,22.1599966 12.4266597,22.5457195 C12.4266597,22.9314424 12.1153719,23.2441721 11.7314273,23.2441721 L2.95025861,23.2441721 C3.47860169,25.7437884 4.60291271,28.0984139 6.24252978,30.0812565 C6.48787005,30.3780548 6.44731037,30.8183886 6.15195668,31.0648653 C6.02204375,31.1733211 5.86460819,31.2260938 5.70801126,31.2260938 C5.50841499,31.2260938 5.31034351,31.1403095 5.17288282,30.9739493 C2.62067316,27.8876297 1.21511284,23.9743343 1.21511284,19.955034 C1.21511284,19.5693111 1.52640069,19.2565814 1.91034525,19.2565814 L8.01282218,19.2565814 L8.00615213,19.2503405 Z M4.99888722,16.4365882 L0.22140091,11.9665253 C-0.0595434265,11.7036577 -0.0751726229,11.2616389 0.186482998,10.9793932 C0.448138618,10.6969944 0.888195798,10.6812928 1.16906389,10.9443136 L6.89641866,16.3030696 C6.38135426,16.3408597 5.74884378,16.3853659 4.99888722,16.4365882 Z M8.91937779,15.9570452 L2.99966212,7.47962403 C2.77925233,7.16383062 2.85526359,6.72816898 3.16960104,6.50673829 C3.48386225,6.28530759 3.91751527,6.36167093 4.1380013,6.67746434 L10.1287523,15.256567 C9.57811806,15.574407 9.17499321,15.8078998 8.91937779,15.9570452 Z"/>
      <path d="M34.6891921,19.3014649 L33.507182,19.3014649 C32.8574121,17.8720701 31.4045743,16.8992497 29.7937227,16.8992497 C29.160104,16.8992497 28.5521456,17.0415136 27.9866938,17.3221983 L27.3291918,17.6485725 L27.2011033,16.9251547 C26.8394416,14.8820776 25.2119641,13.5093986 23.1515303,13.5093986 C23.0731277,13.5093986 22.9931612,13.5113913 22.9138345,13.5153055 C22.2578962,13.5471885 21.7501624,13.6388523 21.3160689,13.8036051 L20.7903516,14.0030876 L20.6028391,13.4723915 C20.0756291,11.980578 18.6595474,10.9782547 17.0788414,10.9782547 C15.0203268,10.9782547 13.3450827,12.653111 13.3411732,14.7132683 C13.3413865,14.7200292 13.3414575,14.7267189 13.3414575,14.7334087 L13.3414575,15.444728 L12.6537459,15.2663111 C12.4442693,15.2119391 12.2277557,15.1843972 12.010318,15.1843972 C10.8503422,15.1843972 9.88932297,15.9280266 9.57400631,16.6277456 L9.31662092,17.198865 L8.78400871,16.8697864 C8.28892744,16.5639084 7.71857106,16.4022158 7.13456707,16.4022158 C5.48398187,16.4022158 4.12619438,17.6812919 3.99804753,19.3014649 L2.89711934,19.3014649 C3.02731728,17.0737756 4.8774839,15.3011831 7.13456707,15.3011831 C7.73463544,15.3011831 8.32432593,15.4277901 8.86667627,15.6706849 C9.48174278,14.8206601 10.6383777,14.0833646 12.0102469,14.0833646 C12.1009466,14.0833646 12.1914331,14.0867095 12.2817064,14.0933992 C12.5897017,11.7178275 14.623551,9.87715089 17.0787703,9.87715089 C18.9453653,9.87715089 20.6348968,10.9573315 21.4345615,12.613186 C21.8518087,12.5058654 22.3166804,12.4418147 22.8603102,12.4153404 C22.9574784,12.4106433 23.0553573,12.4082236 23.1514593,12.4082236 C24.4602793,12.4082236 25.6464841,12.8411356 26.5820562,13.6600602 C27.3016833,14.2899639 27.8361436,15.1307369 28.1252313,16.0737065 C28.6596205,15.8906637 29.2184617,15.7981459 29.7937227,15.7981459 C30.9754494,15.7981459 32.1310892,16.2076438 33.0476115,16.9510597 C33.8050745,17.5654119 34.375274,18.3861226 34.6891867,19.3014648 Z"/>
      <path fill-rule="nonzero" d="M31.7582985 21.8473435L13.9560338 21.8473435C13.5720892 21.8473435 13.2608014 22.1600732 13.2608014 22.5457961 13.2608014 22.931519 13.5720892 23.2442487 13.9560338 23.2442487L31.7582985 23.2442487C32.1423193 23.2442487 32.4535309 22.931519 32.4535309 22.5457961 32.4535309 22.1600732 32.1423193 21.8473435 31.7582985 21.8473435zM15.7851835 3.31947509C15.7851835 2.83126042 16.0745904 2.61292453 16.5125891 2.28245033 17.0144769 1.90377136 17.6391111 1.43247362 17.6391111.521844913 17.6391111.23691629 17.3278233.00590684562 16.9438787.00590684562 16.5599342.00590684562 16.2486463.23691629 16.2486463.521844913 16.2486463 1.01005958 15.9592393 1.22839548 15.5212406 1.55886968 15.0192766 1.93754864 14.3947186 2.40884638 14.3947186 3.31941851 14.3947186 4.22999064 15.0194291 4.70134496 15.5212406 5.08002393 15.9593156 5.41049813 16.2486463 5.62883402 16.2486463 6.11704869 16.2486463 6.60509363 15.9592393 6.82342952 15.5212406 7.15384714 15.0193528 7.53246953 14.3947186 8.00376727 14.3947186 8.91428282 14.3947186 9.19921144 14.7060065 9.43022089 15.0899511 9.43022089 15.4738956 9.43022089 15.7851835 9.19921144 15.7851835 8.91428282 15.7851835 8.42623789 16.0745904 8.20790199 16.5125891 7.87748437 17.0145532 7.49886198 17.6391111 7.02756424 17.6391111 6.11704869 17.6391111 5.20647656 17.0145532 4.73517882 16.5125891 4.35649986 16.0745142 4.02602565 15.7851835 3.80768976 15.7851835 3.31947509zM20.5318848 3.31947509C20.5318848 2.83126042 20.8212917 2.61292453 21.2592904 2.28245033 21.7612545 1.90377136 22.3858124 1.43247362 22.3858124.521844913 22.3858124.23691629 22.0746008.00590684562 21.69058.00590684562 21.3065592.00590684562 20.9953476.23691629 20.9953476.521844913 20.9953476 1.01005958 20.7059407 1.22839548 20.267942 1.55886968 19.7659779 1.93754864 19.14142 2.40884638 19.14142 3.31941851 19.14142 4.22999064 19.7659779 4.70134496 20.267942 5.08002393 20.7059407 5.41049813 20.9953476 5.62883402 20.9953476 6.11704869 20.9953476 6.60509363 20.7059407 6.82342952 20.267942 7.15384714 19.7659779 7.53246953 19.14142 8.00376727 19.14142 8.91428282 19.14142 9.19921144 19.4527078 9.43022089 19.8366524 9.43022089 20.2206732 9.43022089 20.5318848 9.19921144 20.5318848 8.91428282 20.5318848 8.42623789 20.8212917 8.20790199 21.2592904 7.87748437 21.7612545 7.49886198 22.3858124 7.02756424 22.3858124 6.11704869 22.3858124 5.20647656 21.7612545 4.73517882 21.2592904 4.35649986 20.8212155 4.02602565 20.5318848 3.80768976 20.5318848 3.31947509zM35.9296166 26.8675626L34.7198406 26.8675626C34.3358198 26.8675626 34.0246082 27.1802923 34.0246082 27.5660152 34.0246082 27.9517381 34.3358198 28.2644678 34.7198406 28.2644678L35.9296166 28.2644678C36.3136374 28.2644678 36.624849 27.9517381 36.624849 27.5660152 36.624849 27.1802923 36.3136374 26.8675626 35.9296166 26.8675626z"/>
    </g>
  </g>
</svg>
