<svg xmlns="http://www.w3.org/2000/svg" width="240" height="195" viewBox="0 0 240 195">
  <g fill="none" fill-rule="evenodd">
    <path fill="#FEDEBB" fill-rule="nonzero" d="M223.966167,192.907591 L238.043401,192.907591"/>
    <path fill="#A1A1A9" fill-rule="nonzero" d="M238.043401,194.692808 L223.965892,194.692808 C222.979694,194.692808 222.180676,193.893789 222.180676,192.907591 C222.180675,191.921393 222.979694,191.122375 223.965892,191.122375 L238.043401,191.122375 C239.029599,191.122375 239.828617,191.921393 239.828617,192.907591 C239.828617,193.893789 239.029599,194.692807 238.043401,194.692808 Z"/>
    <path fill="#FEDEBB" fill-rule="nonzero" d="M196.582956,192.907591 L210.08161,192.907591"/>
    <path fill="#A1A1A9" fill-rule="nonzero" d="M210.08161,194.692808 L196.582956,194.692808 C195.597033,194.692808 194.79774,193.893789 194.79774,192.907591 C194.79774,191.921393 195.597033,191.122375 196.582956,191.122375 L210.08161,191.122375 C211.067533,191.122375 211.866826,191.921393 211.866826,192.907591 C211.866826,193.893789 211.067532,194.692807 210.08161,194.692808 Z"/>
    <path fill="#FEDEBB" fill-rule="nonzero" d="M37.2963145,192.907591 L181.155609,192.907591"/>
    <path fill="#A1A1A9" fill-rule="nonzero" d="M181.155884,194.692808 L37.2965894,194.692808 C36.3106661,194.692808 35.5113732,193.893789 35.5113732,192.907591 C35.5113732,191.921393 36.3106664,191.122375 37.2965894,191.122375 L181.155884,191.122375 C182.141832,191.122375 182.9411,191.921644 182.9411,192.907591 C182.9411,193.893539 182.141832,194.692808 181.155884,194.692808 Z"/>
    <path fill="#FEDEBB" fill-rule="nonzero" d="M6.63484762,192.907591 L20.9050334,192.907591"/>
    <path fill="#A1A1A9" fill-rule="nonzero" d="M20.9053083 194.692808L6.63512251 194.692808C5.6491993 194.692808 4.84990631 193.893789 4.84990631 192.907591 4.84990631 191.921393 5.64919957 191.122375 6.63512251 191.122375L20.9053083 191.122375C21.8912561 191.122375 22.6905246 191.921644 22.6905246 192.907591 22.6905246 193.893539 21.8912561 194.692808 20.9053083 194.692808zM7.10265953 102.667178C7.10265953 104.556291 5.57058937 106.09001 3.6792771 106.09001 1.78741506 106.09001.255619784 104.556291.255619784 102.667178.255619784 100.774766 1.78768995 99.2443449 3.6792771 99.2443449 5.57058937 99.2443449 7.10265953 100.774766 7.10265953 102.667178zM54.9579991 112.028912C54.9581451 112.642021 54.7145966 113.230049 54.2809856 113.663505 53.8473745 114.096962 53.2592599 114.3403 52.6461508 114.339936 52.0329688 114.340373 51.4447554 114.097075 51.0110413 113.663619 50.5773272 113.230163 50.3336799 112.642094 50.333753 112.028912 50.333753 110.751087 51.3686011 109.71459 52.6461508 109.71459 53.9231507 109.714865 54.9579988 110.751088 54.9579991 112.028912zM172.876823 24.7564373C172.876823 25.8863872 171.957966 26.8052443 170.828016 26.8052446 169.698066 26.8052449 168.779209 25.8863872 168.779209 24.7564373 168.779209 23.6264874 169.698067 22.7103789 170.828016 22.7103789 171.957966 22.7106538 172.876823 23.6264876 172.876823 24.7564373zM152.895595 5.62012851C151.408602 5.62012851 150.20334 4.41459219 150.20334 2.92952326 150.20334 1.44390456 151.408602.238918016 152.895595.238917748 154.382313.238642857 155.5862 1.44390429 155.5862 2.92952326 155.5862 4.41486708 154.382588 5.62012851 152.895595 5.62012851zM219.663782 97.7768668C219.663782 99.4733032 218.286733 100.850077 216.589747 100.850077 214.892486 100.850077 213.516536 99.4733032 213.516536 97.7768668 213.516536 96.0807053 214.892486 94.7033813 216.589747 94.7033816 218.286458 94.7033816 219.663782 96.0804304 219.663782 97.7768668zM16.0158223 58.4388917C12.4583081 58.4388917 9.56403157 55.5443403 9.56403157 51.9862763 9.56403157 48.4282124 12.4583081 45.533661 16.0158223 45.533661 19.5730615 45.533661 22.4667886 48.4282124 22.4667886 51.9862763 22.4667886 55.5443403 19.5727866 58.4388917 16.0158223 58.4388917zM16.0158223 46.7235301C13.1143993 46.7235301 10.7541756 49.0843034 10.7541756 51.9862763 10.7541756 54.8882493 13.114674 57.2487474 16.0158223 57.2487474 18.9166957 57.2487474 21.2766443 54.8879741 21.2766443 51.9862763 21.2766443 49.0845785 18.9164208 46.7235304 16.0158223 46.7235301z"/>
    <path fill="#CCC" fill-rule="nonzero" d="M201.233589 47.3323452C198.206829 47.3323452 195.744083 44.8704234 195.744083 41.8439391 195.744083 38.8160803 198.206829 36.3527843 201.233589 36.3527843 204.260623 36.3527843 206.723644 38.8163552 206.723644 41.8439391 206.723644 44.8701485 204.260623 47.3323452 201.233589 47.3323452zM201.233589 37.5426537C198.862646 37.5426537 196.934227 39.4721715 196.934227 41.8439391 196.934227 44.2137826 198.86292 46.1422012 201.233589 46.1422012 203.604807 46.1422012 205.5335 44.2137829 205.5335 41.8439391 205.5335 39.4721715 203.604532 37.5426537 201.233589 37.5426537zM37.5233491 81.5301623C36.5911753 81.5301629 35.8352438 80.7749695 35.8343337 79.8427962L35.8343337 78.1554302C35.8348442 77.6667541 35.6411327 77.1979062 35.2958442 76.8521021 34.9505557 76.5062981 34.4819973 76.3118872 33.9933211 76.3116686 33.504569 76.3118872 33.0359259 76.5062717 32.6905064 76.852052 32.3450869 77.1978323 32.1511918 77.6666781 32.1514835 78.1554302L32.1514835 79.8427962C32.1505734 80.7749694 31.3946421 81.5301627 30.4624684 81.5301623L28.7745526 81.5301623C27.7578077 81.530314 26.9335685 82.3544301 26.9332648 83.3711749 26.9332648 84.3895314 27.7572953 85.2152113 28.7745526 85.2152113L30.4624684 85.2152113C30.9102461 85.2147006 31.3398587 85.3922218 31.6566659 85.7086681 31.9734732 86.0251144 32.1514838 86.4545245 32.1514835 86.9023024L32.1514835 88.5896685C32.1514835 89.6080251 32.9760638 90.4304065 33.9933211 90.4304065 34.4816745 90.4308444 34.9501561 90.2370594 35.2955 89.891767 35.6408439 89.5464746 35.8346987 89.078022 35.8343337 88.5896685L35.8343337 86.9023024C35.8342603 86.454502 36.0122476 86.0250494 36.3290707 85.7085873 36.6458939 85.3921251 37.0755491 85.2146275 37.5233491 85.2152113L39.2104403 85.2152113C40.2280384 85.2152113 41.0529648 84.390285 41.0529648 83.3726868 41.0529648 82.3550886 40.2280384 81.5301623 39.2104403 81.5301623L37.5233491 81.5301623zM190.395581 82.0721861C190.012314 82.0719677 189.644848 81.9194308 189.374095 81.6481626 189.103343 81.3768945 188.951505 81.0091389 188.952015 80.6258725L188.952015 79.1828571C188.952089 78.7645801 188.78583 78.3634417 188.489883 78.0678558 188.193936 77.7722698 187.792595 77.6065003 187.374319 77.6070841 186.956594 77.6072298 186.556044 77.7733477 186.260823 78.0688783 185.965602 78.3644089 185.799903 78.7651325 185.800195 79.1828571L185.800195 80.6258725C185.800341 81.0095035 185.648009 81.3774638 185.37674 81.6487318 185.105472 81.9199999 184.737512 82.072332 184.353881 82.0721861L182.910866 82.0721861C182.343383 82.0646914 181.81577 82.3631464 181.529843 82.8533901 181.243916 83.3436337 181.243916 83.9498107 181.529843 84.4400544 181.81577 84.9302981 182.343383 85.228753 182.910866 85.2212583L184.353881 85.2212583C184.737534 85.2210394 185.105537 85.3733481 185.376821 85.644632 185.648105 85.9159159 185.800414 86.2839186 185.800195 86.6675719L185.800195 88.1105874C185.799903 88.5283373 185.965593 88.9290891 186.260806 89.2246633 186.55602 89.5202376 186.956569 89.6864166 187.374319 89.6866353 187.79262 89.687146 188.193961 89.5213153 188.4899 89.2256857 188.785838 88.9300561 188.952089 88.5288896 188.952015 88.1105874L188.952015 86.6675719C188.951432 86.2842833 189.103246 85.9164852 189.374015 85.6452013 189.644783 85.3739173 190.012292 85.2214037 190.395581 85.2212583L191.840245 85.2212583C192.710547 85.2209549 193.41599 84.5155119 193.416293 83.6452105 193.416293 82.7774772 192.709628 82.0721861 191.840245 82.0721861L190.395581 82.0721861zM198.030369 115.370661C197.405062 115.370661 196.897671 114.858597 196.897671 114.234664L196.897671 113.098668C196.897671 112.414652 196.343167 111.860148 195.659151 111.860148 194.975136 111.860148 194.420632 112.414652 194.420632 113.098668L194.420632 114.234664C194.420632 114.858597 193.91324 115.370661 193.287933 115.370661L192.151937 115.370661C191.823787 115.369931 191.508827 115.499776 191.276532 115.731556 191.044236 115.963336 190.913691 116.278006 190.913692 116.606157 190.913692 116.93456 191.044149 117.249512 191.276365 117.481728 191.508581 117.713944 191.823534 117.844402 192.151937 117.844402L193.287933 117.844402C193.913129 117.84531 194.419723 118.351905 194.420632 118.9771L194.420632 120.113097C194.420632 120.797112 194.975136 121.351616 195.659151 121.351616 196.343167 121.351616 196.897671 120.797112 196.897671 120.113097L196.897671 118.9771C196.898428 118.351842 197.405111 117.845159 198.030369 117.844402L199.166366 117.844402C199.494791 117.844475 199.809786 117.714041 200.042018 117.481809 200.274249 117.249577 200.404684 116.934582 200.404611 116.606157 200.404538 116.278029 200.27397 115.963401 200.04169 115.731637 199.809411 115.499873 199.494493 115.370004 199.166366 115.370661L198.030369 115.370661z"/>
    <path fill="#A1A1A9" fill-rule="nonzero" d="M54.6468575,12.1524534 C54.372065,12.1524528 54.1085553,12.2617452 53.9144282,12.4562332 C53.720301,12.6507212 53.6114982,12.9144335 53.6120091,13.1892255 L53.6106349,17.7420081 C53.6106349,18.3115181 54.0754233,18.775482 54.6479568,18.7787802 C55.2182915,18.7787802 55.6814308,18.3115181 55.6822555,17.7420081 L55.6822555,13.1892255 C55.6825591,12.6170429 55.21904,12.1529087 54.6468575,12.1524534 Z M54.6463078,27.8870937 C54.3719218,27.8868019 54.108658,27.9955216 53.9144317,28.1893356 C53.7202053,28.3831496 53.6109263,28.6461817 53.6106349,28.9205677 L53.6120091,33.4766484 C53.6120089,33.750981 53.7210811,34.0140577 53.9151924,34.2079112 C54.1093038,34.4017647 54.3725251,34.5104872 54.6468575,34.5101224 C54.9212821,34.5107066 55.1846592,34.4020634 55.3788617,34.2081702 C55.5730643,34.0142771 55.6821273,33.7510736 55.6819806,33.4766484 L55.6819806,28.9205677 C55.6819081,28.6461144 55.5726993,28.382955 55.3784254,28.1890936 C55.1841515,27.9952321 54.9207606,27.8865829 54.6463078,27.8870937 Z M49.962417,20.1132261 C50.3659117,20.5167208 51.0214529,20.5139722 51.4257722,20.1102026 C51.6204753,19.9162719 51.7299235,19.6527814 51.7299235,19.3779753 C51.7299235,19.1031692 51.6204753,18.8396788 51.4257722,18.645748 L48.2057862,15.4246627 C47.800057,15.0240131 47.1476107,15.0240131 46.7418815,15.4246627 C46.3375624,15.8314556 46.3375624,16.4883712 46.7418815,16.8891173 L49.962417,20.1132261 Z M59.3299236,26.5523732 C59.1360923,26.3584283 58.8731324,26.2494617 58.5989332,26.2494617 C58.324734,26.2494617 58.0617742,26.3584283 57.8679428,26.5523732 C57.6733242,26.7462929 57.5639296,27.0097244 57.5639296,27.284463 C57.5639296,27.5592016 57.6733242,27.8226331 57.8679428,28.0165528 L61.0879286,31.2376381 C61.4930991,31.6386051 62.1455635,31.6386051 62.550734,31.2376381 C62.745285,31.0436823 62.8546328,30.7802644 62.8546328,30.5055483 C62.8546328,30.2308322 62.745285,29.9674142 62.550734,29.7734585 L59.3299236,26.5523732 Z M50.0924259,23.3312879 C50.091516,22.7599902 49.6280515,22.2973866 49.0567531,22.297539 L44.503421,22.297539 C44.2288982,22.2969549 43.9654231,22.4056183 43.7711254,22.5995551 C43.5768276,22.7934919 43.4676745,23.0567645 43.4677482,23.3312879 C43.4676024,23.6060859 43.5766445,23.8696827 43.7708787,24.0640716 C43.9651129,24.2584604 44.228623,24.3677122 44.503421,24.3677851 L49.0567531,24.3677851 C49.3315735,24.3677852 49.5951259,24.2585568 49.789376,24.0641521 C49.983626,23.8697475 50.0926446,23.6061082 50.0924259,23.3312879 Z M64.790569,22.297539 L60.2355876,22.297539 C59.6647267,22.2976908 59.2019904,22.760427 59.2018387,23.3312879 C59.2014739,23.6060576 59.3103702,23.8696984 59.5045329,24.0641189 C59.6986957,24.2585394 59.9621918,24.3677853 60.2369617,24.3677851 L64.7902941,24.3677851 C65.065064,24.3677853 65.3285601,24.2585394 65.5227229,24.0641189 C65.7168857,23.8696984 65.8257819,23.6060576 65.8254171,23.3312879 C65.8262249,23.0566831 65.7174206,22.7931085 65.5231417,22.599036 C65.3288628,22.4049635 65.0651727,22.2964394 64.790569,22.297539 Z M49.962417,26.5523732 L46.7421564,29.7734585 C46.3378711,30.1777957 46.3378711,30.8333008 46.7421564,31.2376381 C47.145926,31.6386591 47.8020169,31.6414077 48.2060611,31.2376381 L51.4260469,28.0165528 C51.6206655,27.8226331 51.7300601,27.5592016 51.7300601,27.284463 C51.7300601,27.0097244 51.6206655,26.7462929 51.4260469,26.5523732 C51.0217099,26.1486058 50.366754,26.1486058 49.962417,26.5523732 Z M59.3315727,20.1132261 L62.5510089,16.8891173 C62.9561527,16.4883712 62.9561527,15.8314556 62.5510089,15.4246627 C62.1457771,15.0238448 61.4934353,15.0238448 61.0882035,15.4246627 L57.8682177,18.645748 C57.6735342,18.8403033 57.5641514,19.1042537 57.5641514,19.3794871 C57.5641514,19.6547204 57.6735342,19.9186709 57.8682177,20.1132261 C58.2724604,20.516962 58.92733,20.516962 59.3315727,20.1132261 Z"/>
    <g transform="translate(73.333 64)">
      <path fill="#FFF" d="M87.4268105,83.6763112 C87.4268105,87.5039662 84.3150146,90.6157621 80.4873594,90.6157621 L12.8459739,90.6157621 C9.01831876,90.6157621 5.90652282,87.5039662 5.90652282,83.6763112 L5.90652282,12.820864 C5.90652282,8.99320893 9.01831876,5.88141299 12.8459739,5.88141299 L80.4873594,5.88141299 C84.3150145,5.88141299 87.4268104,8.99320893 87.4268105,12.820864 L87.4268105,83.6763112 Z"/>
      <path fill="#A1A1A9" fill-rule="nonzero" d="M80.4873594,0.0376647458 L12.8459739,0.0376647458 C5.78964791,0.0376647458 0.0627746893,5.77914746 0.0627746893,12.820864 L0.0627746893,83.6763112 C0.0627746893,90.7180278 5.78964791,96.4595104 12.8459739,96.4595104 L80.4873594,96.4595104 C87.529076,96.4595104 93.2705586,90.7326372 93.2705586,83.6763112 L93.2705586,12.820864 C93.2705586,5.77914734 87.5436854,0.0376647458 80.4873594,0.0376647458 Z M87.4268105,83.6763112 C87.4268105,87.5039662 84.3150146,90.6157621 80.4873594,90.6157621 L12.8459739,90.6157621 C9.01831876,90.6157621 5.90652282,87.5039662 5.90652282,83.6763112 L5.90652282,12.820864 C5.90652282,8.99320893 9.01831876,5.88141299 12.8459739,5.88141299 L80.4873594,5.88141299 C84.3150145,5.88141299 87.4268104,8.99320893 87.4268105,12.820864 L87.4268105,83.6763112 Z"/>
      <path fill="#A1A1A9" fill-rule="nonzero" d="M79.4939223,23.9970324 C78.8218912,23.6317982 62.8976773,14.8807852 46.5936198,14.8807852 C30.2895623,14.8807852 14.3799577,23.6317982 13.7079268,23.9970324 C12.3930834,24.7275009 11.8525367,26.3345318 12.4369115,27.7078125 L20.0776123,45.4435885 C20.3990184,46.2032757 21.0418307,46.7876505 21.8307367,47.0506192 C22.1375336,47.1528849 22.4589397,47.2113223 22.7657365,47.2113223 C23.2624551,47.2113223 23.7591737,47.079838 24.1974548,46.8314786 C24.2851111,46.7730411 33.5620614,41.6597615 46.6082292,41.6597615 C59.5083034,41.6597615 68.8583005,46.7438224 69.0190036,46.8314786 C69.7348628,47.240541 70.5968156,47.3135879 71.3857216,47.0506192 C72.1746276,46.7876505 72.8028305,46.2032757 73.1388461,45.4435885 L80.7795469,27.7078125 C81.3493123,26.3345318 80.8087656,24.7275009 79.4939223,23.9970324 Z M68.9605661,40.3595275 C64.8699424,38.6064029 56.7763511,35.8306226 46.6082292,35.8306226 C44.5190892,35.8306226 42.5176054,35.9474975 40.6183872,36.1520288 L37.6526851,26.2907036 C37.1851852,24.7421103 35.5635451,23.8655481 34.0149518,24.333048 C32.4663584,24.8005479 31.5897963,26.422188 32.0572962,27.9707812 L34.8038577,37.0724191 C30.2311247,38.0366375 26.5933915,39.3660903 24.2558922,40.3595275 L18.9088626,27.9269531 C23.7299549,25.6040632 35.2713576,20.7245334 46.5936198,20.7245334 C57.9158819,20.7245334 69.471894,25.6040632 74.2929863,27.9123437 L68.9605661,40.3595275 Z"/>
    </g>
  </g>
</svg>
