<svg xmlns="http://www.w3.org/2000/svg" width="169" height="169" viewBox="0 0 169 169">
  <path fill="#00CE7D" d="M76.1970831,129.636879 C74.0749569,129.653828 72.0349826,128.816558 70.5353666,127.313131 L38.0068717,94.7102396 C34.9091246,91.6087604 34.9091246,86.5802692 38.0068718,83.4787901 C41.104619,80.377311 46.1270595,80.377311 49.2248067,83.47879 L76.1970831,110.483561 L145.122326,41.4752812 C148.249206,38.3835248 153.287391,38.4150514 156.375427,41.545698 C159.463464,44.6763446 159.431975,49.720599 156.305095,52.8123557 L81.7884676,127.313131 C80.3060401,128.799194 78.2948582,129.63503 76.1970831,129.636879 Z M84.6017428,168.999765 C48.4555377,169.08481 16.2682625,146.11462 4.55740493,111.876768 C-7.15345261,77.6389162 4.21243173,39.7357071 32.8224469,17.6178645 C61.4324621,-4.49997807 100.93393,-5.92132276 131.05595,14.0832194 C133.057317,15.1796285 134.272255,17.3102109 134.197906,19.5931254 C134.123556,21.8760398 132.772568,23.9228538 130.704113,24.8863976 C128.635657,25.8499414 126.201677,25.5662703 124.409587,24.1527948 C96.7312309,5.88820831 60.1949418,8.7974589 35.7479715,31.2125938 C11.3010013,53.6277288 5.20048654,89.8116542 20.9440188,119.019139 C36.6875511,148.226623 70.2456154,162.982089 102.378458,154.825825 C134.511301,146.669561 156.994606,117.689141 156.938083,84.4998308 C156.940242,81.9715625 156.811126,79.4448912 156.551257,76.9300452 C156.211379,73.614671 158.620261,70.6511716 161.931646,70.310884 C165.243031,69.9705963 168.202964,72.3823803 168.542843,75.6977545 C168.844214,78.6221198 168.996797,81.559942 169,84.4998308 C169,106.910607 160.108066,128.403495 144.280323,144.250307 C128.452579,160.097119 106.985552,168.999765 84.6017428,168.999765 Z"/>
</svg>
