<svg xmlns="http://www.w3.org/2000/svg" width="150" height="131" viewBox="0 0 150 131">
  <path fill="#FFF" d="M75,37.4285714 C54.375,37.4285714 37.5,54.2714286 37.5,74.8571429 C37.5,95.4428571 54.375,112.285714 75,112.285714 C95.625,112.285714 112.5,95.4428571 112.5,74.8571429 C112.5,54.2714286 95.625,37.4285714 75,37.4285714 Z M75,102.928571 C59.53125,102.928571 46.875,90.2964286 46.875,74.8571429 C46.875,59.4178571 59.53125,46.7857143 75,46.7857143 C90.46875,46.7857143 103.125,59.4178571 103.125,74.8571429 C103.125,90.2964286 90.46875,102.928571 75,102.928571 Z M131.25,18.7142857 L117.1875,18.7142857 L112.5,9.35714286 C109.6875,3.74285714 108.28125,0 103.125,0 L46.875,0 C41.71875,0 39.84375,4.67857143 37.5,9.35714286 L32.8125,18.7142857 L18.75,18.7142857 C8.4375,18.7142857 0,27.1357143 0,37.4285714 L0,112.285714 C0,122.578571 8.4375,131 18.75,131 L131.25,131 C141.5625,131 150,122.578571 150,112.285714 L150,37.4285714 C150,27.1357143 141.5625,18.7142857 131.25,18.7142857 Z M140.625,112.285714 C140.625,117.432143 136.40625,121.642857 131.25,121.642857 L18.75,121.642857 C13.59375,121.642857 9.375,117.432143 9.375,112.285714 L9.375,37.4285714 C9.375,32.2821429 13.59375,28.0714286 18.75,28.0714286 L37.5,28.0714286 L42.1875,18.7142857 C45.46875,13.1 46.40625,9.35714286 51.5625,9.35714286 L98.4375,9.35714286 C103.59375,9.35714286 104.53125,13.1 107.8125,18.7142857 L112.5,28.0714286 L131.25,28.0714286 C136.40625,28.0714286 140.625,32.2821429 140.625,37.4285714 L140.625,112.285714 Z"/>
</svg>
