<svg xmlns="http://www.w3.org/2000/svg" width="98" height="99" viewBox="0 0 98 99">
  <path fill="#999" d="M96.672671,23.9615162 L50.4608862,0.351062913 C49.6554723,-0.117020971 48.6104639,-0.117020971 47.8050501,0.351062913 L1.59326528,23.7274404 L1.32732708,23.7274404 C0.530694444,24.1955921 0,24.8967794 0,25.8320426 L0,72.817833 C0,73.7520559 0.530694444,74.4542835 1.32732708,74.9213949 L47.5391119,98.7659241 C48.0709883,99 48.3357445,99 48.8676209,99 C49.3983153,99 49.6642535,99 50.194948,98.7659241 L96.672671,75.1554708 C97.4693036,74.687319 97.999998,73.9861317 97.999998,73.0519089 L97.999998,26.0640378 C98.00118,25.129815 97.4693036,24.4286277 96.672671,23.9615162 Z M46.2117848,51.077906 L46.2117848,92.4541982 L5.57761042,71.648494 L5.57761042,30.2722019 L46.2117848,51.077906 Z M69.051739,54.1167311 L69.051739,42.1944665 L74.8941056,39.1556414 L74.8941056,51.077906 L69.051739,54.1167311 Z M51.7893952,51.077906 L63.4753105,44.9992156 L63.4753105,58.3238548 C63.4753105,59.259118 64.0060049,59.9603053 64.8038195,60.4274167 C65.334514,60.6614926 66.1311466,60.8945281 66.9277792,60.6614926 C67.1937174,60.6614926 67.4584737,60.6614926 67.7244119,60.4274167 L79.4103272,54.5828022 C80.2069598,54.1156907 80.7376543,53.4145034 80.7376543,52.4792403 L80.7376543,36.3498519 L92.4235696,30.2722019 L92.4235696,71.648494 L51.7893952,92.4541982 L51.7893952,51.077906 Z M37.1817056,11.337024 L48.8676209,5.25937394 L89.7677334,26.0640378 L78.0830001,32.1427282 L37.1817056,11.337024 Z M25.7617285,17.1816386 L31.6040952,14.1428135 L72.2382695,34.9474774 L66.1299647,37.9863024 L25.7617285,17.1816386 L25.7617285,17.1816386 Z M60.8194744,40.7920919 L49.1335591,46.869742 L8.23226459,26.0640378 L20.1841181,19.9863877 L60.8194744,40.7920919 L60.8194744,40.7920919 Z"/>
</svg>
