<svg xmlns="http://www.w3.org/2000/svg" width="48" height="48" viewBox="0 0 48 48">
  <defs>
    <linearGradient id="card-icon-bottle-a" x1="50%" x2="50%" y1="0%" y2="100%">
      <stop offset="0%" stop-color="#CCE4FF"/>
      <stop offset="100%" stop-color="#ACD0F9"/>
    </linearGradient>
    <linearGradient id="card-icon-bottle-b" x1="50%" x2="50%" y1="0%" y2="100%">
      <stop offset="0%" stop-color="#A8CFF8"/>
      <stop offset="100%" stop-color="#79AAE2"/>
    </linearGradient>
  </defs>
  <g fill="none" fill-rule="evenodd" transform="translate(1 1)">
    <circle cx="23" cy="23" r="23" fill="#FFF" stroke="#333"/>
    <g transform="translate(15 6)">
      <path fill="#E9EAEB" d="M6.91662824,4.06860485 L11.3920936,4.06860485 C14.0885277,4.06860485 16.2744194,6.25449657 16.2744194,8.95093066 L16.2744194,30.9213968 C16.2744194,33.1684252 14.4528429,34.9900017 12.2058145,34.9900017 L6.50976775,34.9900017 L9.76465163,34.9900017 C12.01168,34.9900017 13.8332565,33.1684252 13.8332565,30.9213968 L13.8332565,8.95093066 C13.8332565,6.25449657 11.6473648,4.06860485 8.95093066,4.06860485 L6.91662824,4.06860485 Z"/>
      <path fill="url(#card-icon-bottle-a)" d="M0,10.8694129 C1.84971569,10.4350297 3.40123707,10.2282885 4.65456417,10.2491891 C5.98881832,10.2714393 8.92183136,11.2816373 12.1815967,11.12827 C13.1737144,11.0815922 14.5379887,10.8982931 16.2744194,10.5783726 L16.2744194,29.9900017 C16.2744194,32.7514254 14.0358431,34.9900017 11.2744194,34.9900017 L5,34.9900017 C2.23857625,34.9900017 2.79081386e-15,32.7514254 0,29.9900017 L0,10.8694129 Z"/>
      <circle cx="4.882" cy="13.833" r="1" fill="#FFF"/>
      <circle cx="11.799" cy="16.681" r="1" fill="#FFF"/>
      <path fill="#FFF" d="M2.44116291,22.7841871 L2.44116291,22.7841871 C2.89056859,22.7841871 3.25488388,23.1485024 3.25488388,23.5979081 L3.25488388,28.4802339 C3.25488388,28.9296396 2.89056859,29.2939549 2.44116291,29.2939549 L2.44116291,29.2939549 C1.99175723,29.2939549 1.62744194,28.9296396 1.62744194,28.4802339 L1.62744194,23.5979081 C1.62744194,23.1485024 1.99175723,22.7841871 2.44116291,22.7841871 Z"/>
      <circle cx="2.441" cy="30.921" r="1" fill="#FFF"/>
      <circle cx="6.917" cy="24.818" r="1" fill="#FFF"/>
      <circle cx="8.951" cy="20.343" r="1" fill="#FFF"/>
      <path fill="url(#card-icon-bottle-b)" d="M13.8332565,10.9686448 C14.2434663,10.9041684 14.5501347,10.8490065 14.7532618,10.803159 C14.9563889,10.7573116 15.1922011,10.6823828 15.4606984,10.5783726 L15.6851183,31.4939034 L14.9288793,33.564202 L14.2096531,34.328281 L10.9196745,34.1762807 C12.1489118,33.6419429 12.9002859,33.2006476 13.1737968,32.8523948 C13.4473077,32.5041421 13.6671276,32.0811899 13.8332565,31.5835384 L13.8332565,10.9686448 Z"/>
      <path stroke="#333" d="M6,3.75488388 C2.96243388,3.75488388 0.5,6.21731775 0.5,9.25488388 L0.5,30.9900017 C0.5,32.9229983 2.06700338,34.4900017 4,34.4900017 L12.2744194,34.4900017 C14.207416,34.4900017 15.7744194,32.9229983 15.7744194,30.9900017 L15.7744194,9.25488388 C15.7744194,6.21731775 13.3119855,3.75488388 10.2744194,3.75488388 L6,3.75488388 Z"/>
      <g transform="translate(4.069)">
        <path fill="#FF7B00" d="M0.713104918,0.525694233 C1.70221301,0.22948844 2.77495816,0.0675342957 3.93134039,0.0398318004 C5.12447166,0.0112489386 6.2913702,0.172945911 7.43203602,0.524922716 L7.43204011,0.524909475 C7.85125034,0.654265748 8.1371968,1.04175098 8.1371968,1.48046532 L8.13718077,3.39675528 C8.13718077,3.80480728 7.88924899,4.17192743 7.51073488,4.32435284 C6.66456969,4.66509858 5.59202005,4.86479727 4.29308594,4.92344892 C2.91357558,4.98573889 1.68403203,4.78440393 0.604455299,4.31944406 L0.604448648,4.3194595 C0.237636613,4.16147825 -1.17205675e-06,3.80039003 -1.17205675e-06,3.40100407 L-4.99629719e-05,1.48370753 C-4.99629719e-05,1.04189703 0.289865242,0.652440789 0.713104918,0.525694233 Z"/>
        <path fill="#FF9838" d="M8.00995746,0.992274046 C7.9008456,1.18728159 7.72713164,1.34458777 7.51074068,1.43172741 C6.66457459,1.77247457 5.59202302,1.97217405 4.29308594,2.03082583 C2.91357558,2.0931158 1.68403203,1.89178084 0.604455299,1.42682097 L0.604448648,1.42683641 C0.39782329,1.33784552 0.232185868,1.18440729 0.126923078,0.995979628 C0.250812373,0.774359963 0.457679365,0.602185902 0.713104918,0.525694233 C1.70221301,0.22948844 2.77495816,0.0675342957 3.93134039,0.0398318004 C5.12447166,0.0112489386 6.2913702,0.172945911 7.43203602,0.524922716 L7.43204011,0.524909475 C7.68373269,0.602574598 7.8873868,0.77328917 8.00995746,0.992274046 Z"/>
        <path stroke="#333" d="M0.856544874,1.00467751 C0.644914712,1.06805388 0.499950037,1.2627915 0.499950037,1.4836948 L0.499998828,3.40100407 C0.499998828,3.6006987 0.618816189,3.78123688 0.802235471,3.86022406 C1.80924167,4.29392874 2.9636879,4.48296668 4.27053208,4.42395786 C5.51708145,4.36767157 6.53552027,4.1780478 7.32396284,3.86054662 C7.51321687,3.78433514 7.63718077,3.60077801 7.63718077,3.39675109 L7.6371968,1.48046532 C7.6371968,1.26110639 7.49422471,1.06736802 7.28460948,1.00269402 C6.19553352,0.666636364 5.08246562,0.512398697 3.94331504,0.539688388 C2.83028511,0.566352328 1.80166396,0.721644995 0.856544874,1.00467751 Z"/>
      </g>
    </g>
  </g>
</svg>
