<svg xmlns="http://www.w3.org/2000/svg" width="180" height="147" viewBox="0 0 180 147">
  <defs>
    <filter id="empty-a" width="250%" height="340%" x="-75%" y="-120%" filterUnits="objectBoundingBox">
      <feGaussianBlur in="SourceGraphic" stdDeviation="2"/>
    </filter>
    <filter id="empty-b" width="250%" height="340%" x="-75%" y="-120%" filterUnits="objectBoundingBox">
      <feGaussianBlur in="SourceGraphic" stdDeviation="2"/>
    </filter>
  </defs>
  <g fill="none" fill-rule="evenodd">
    <g fill-rule="nonzero">
      <path fill="#FEDEBB" d="M167.974625,144.680693 L178.532551,144.680693"/>
      <path fill="#A1A1A9" d="M178.532551,146.019606 L167.974419,146.019606 C167.23477,146.019606 166.635507,145.420342 166.635507,144.680693 C166.635506,143.941045 167.23477,143.341781 167.974419,143.341781 L178.532551,143.341781 C179.272199,143.341781 179.871463,143.941045 179.871463,144.680693 C179.871463,145.420342 179.272199,146.019606 178.532551,146.019606 Z"/>
      <path fill="#FEDEBB" d="M147.437217,144.680693 L157.561207,144.680693"/>
      <path fill="#A1A1A9" d="M157.561207,146.019606 L147.437217,146.019606 C146.697775,146.019606 146.098305,145.420342 146.098305,144.680693 C146.098305,143.941045 146.697775,143.341781 147.437217,143.341781 L157.561207,143.341781 C158.30065,143.341781 158.900119,143.941045 158.900119,144.680693 C158.900119,145.420342 158.300649,146.019606 157.561207,146.019606 Z"/>
      <path fill="#FEDEBB" d="M27.9722358,144.680693 L135.866707,144.680693"/>
      <path fill="#A1A1A9" d="M135.866913,146.019606 L27.972442,146.019606 C27.2329996,146.019606 26.6335299,145.420342 26.6335299,144.680693 C26.6335299,143.941045 27.2329998,143.341781 27.972442,143.341781 L135.866913,143.341781 C136.606374,143.341781 137.205825,143.941233 137.205825,144.680693 C137.205825,145.420154 136.606374,146.019606 135.866913,146.019606 Z"/>
      <path fill="#FEDEBB" d="M4.97613572,144.680693 L15.6787751,144.680693"/>
      <path fill="#A1A1A9" d="M15.6789812 146.019606L4.97634188 146.019606C4.23689947 146.019606 3.63742973 145.420342 3.63742973 144.680693 3.63742973 143.941045 4.23689967 143.341781 4.97634188 143.341781L15.6789812 143.341781C16.418442 143.341781 17.0178935 143.941233 17.0178935 144.680693 17.0178935 145.420154 16.418442 146.019606 15.6789812 146.019606zM5.32699465 77.0003831C5.32699465 78.4172182 4.17794203 79.5675076 2.75945783 79.5675076 1.34056129 79.5675076.191714838 78.4172182.191714838 77.0003831.191714838 75.5810745 1.34076746 74.4332587 2.75945783 74.4332587 4.17794203 74.4332587 5.32699465 75.5810743 5.32699465 77.0003831zM41.2184993 84.021684C41.2186088 84.4815159 41.0359475 84.9225367 40.7107392 85.247629 40.3855309 85.5727213 39.9444449 85.7552253 39.4846131 85.7549517 39.0247266 85.7552799 38.5835665 85.5728066 38.258281 85.2477144 37.9329954 84.9226221 37.7502599 84.4815706 37.7503147 84.021684 37.7503147 83.0633156 38.5264508 82.2859426 39.4846131 82.2859426 40.442363 82.2861488 41.2184991 83.0633158 41.2184993 84.021684zM129.657618 18.567328C129.657618 19.4147904 128.968475 20.1039332 128.121012 20.1039334 127.27355 20.1039336 126.584407 19.4147904 126.584407 18.567328 126.584407 17.7198655 127.27355 17.0327842 128.121012 17.0327842 128.968475 17.0329904 129.657617 17.7198657 129.657618 18.567328zM114.671696 4.21509639C113.556451 4.21509639 112.652505 3.31094414 112.652505 2.19714245 112.652505 1.08292842 113.556451.179188512 114.671696.179188311 115.786735.178982143 116.68965 1.08292822 116.68965 2.19714245 116.68965 3.31115031 115.786941 4.21509639 114.671696 4.21509639zM164.747836 73.3326501C164.747836 74.6049774 163.71505 75.6375581 162.44231 75.6375581 161.169364 75.6375581 160.137402 74.6049774 160.137402 73.3326501 160.137402 72.060529 161.169364 71.027536 162.44231 71.0275362 163.714843 71.0275362 164.747836 72.0603228 164.747836 73.3326501zM12.0118667 43.8291688C9.3437311 43.8291688 7.17302368 41.6582552 7.17302368 38.9897072 7.17302368 36.3211593 9.3437311 34.1502457 12.0118667 34.1502457 14.6797961 34.1502457 16.8500914 36.3211593 16.8500914 38.9897072 16.8500914 41.6582552 14.67959 43.8291688 12.0118667 43.8291688zM12.0118667 35.0426476C9.83579951 35.0426476 8.06563171 36.8132275 8.06563171 38.9897072 8.06563171 41.166187 9.83600548 42.9365605 12.0118667 42.9365605 14.1875218 42.9365605 15.9574832 41.1659806 15.9574832 38.9897072 15.9574832 36.8134339 14.1873156 35.0426478 12.0118667 35.0426476z"/>
      <path fill="#CCC" d="M150.925191 35.4992589C148.655122 35.4992589 146.808062 33.6528175 146.808062 31.3829543 146.808062 29.1120602 148.655122 27.2645882 150.925191 27.2645882 153.195467 27.2645882 155.042733 29.1122664 155.042733 31.3829543 155.042733 33.6526114 153.195467 35.4992589 150.925191 35.4992589zM150.925191 28.1569903C149.146984 28.1569903 147.70067 29.6041286 147.70067 31.3829543 147.70067 33.160337 149.14719 34.6066509 150.925191 34.6066509 152.703605 34.6066509 154.150125 33.1603372 154.150125 31.3829543 154.150125 29.6041286 152.703399 28.1569903 150.925191 28.1569903zM28.1425118 61.1476217C27.4433815 61.1476221 26.8764329 60.5812272 26.8757503 59.8820972L26.8757503 58.6165726C26.8761332 58.2500656 26.7308495 57.8984296 26.4718831 57.6390766 26.2129168 57.3797236 25.861498 57.2339154 25.4949908 57.2337515 25.1284268 57.2339154 24.7769444 57.3797038 24.5178798 57.639039 24.2588152 57.8983742 24.1133939 58.2500086 24.1136127 58.6165726L24.1136127 59.8820972C24.1129301 60.5812271 23.5459816 61.147622 22.8468513 61.1476217L21.5809144 61.1476217C20.8183558 61.1477355 20.2001764 61.7658225 20.1999486 62.5283812 20.1999486 63.2921486 20.8179715 63.9114085 21.5809144 63.9114085L22.8468513 63.9114085C23.1826845 63.9110255 23.5048941 64.0441663 23.7424995 64.2815011 23.9801049 64.5188358 24.1136129 64.8408934 24.1136127 65.1767268L24.1136127 66.4422514C24.1136127 67.2060188 24.7320478 67.8228049 25.4949908 67.8228049 25.8612559 67.8231333 26.2126171 67.6777946 26.471625 67.4188253 26.7306329 67.159856 26.876024 66.8085165 26.8757503 66.4422514L26.8757503 65.1767268C26.8756952 64.8408765 27.0091857 64.5187871 27.246803 64.2814404 27.4844204 64.0440938 27.8066618 63.9109706 28.1425118 63.9114085L29.4078302 63.9114085C30.1710288 63.9114085 30.7897236 63.2927137 30.7897236 62.5295151 30.7897236 61.7663164 30.1710288 61.1476217 29.4078302 61.1476217L28.1425118 61.1476217zM142.796686 61.5541396C142.509236 61.5539758 142.233636 61.4395731 142.030571 61.236122 141.827507 61.0326709 141.713629 60.7568542 141.714012 60.4694044L141.714012 59.3871428C141.714067 59.0734351 141.589372 58.7725813 141.367412 58.5508918 141.145452 58.3292023 140.844446 58.2048752 140.530739 58.2053131 140.217445 58.2054224 139.917033 58.3300108 139.695617 58.5516587 139.474201 58.7733067 139.349927 59.0738493 139.350146 59.3871428L139.350146 60.4694044C139.350256 60.7571276 139.236006 61.0330978 139.032555 61.2365489 138.829104 61.4399999 138.553134 61.554249 138.265411 61.5541396L137.183149 61.5541396C136.757537 61.5485186 136.361827 61.7723598 136.147382 62.1400425 135.932937 62.5077253 135.932937 62.962358 136.147382 63.3300408 136.361827 63.6977236 136.757537 63.9215648 137.183149 63.9159438L138.265411 63.9159438C138.553151 63.9157795 138.829153 64.0300111 139.032616 64.233474 139.236079 64.4369369 139.35031 64.712939 139.350146 65.000679L139.350146 66.0829406C139.349927 66.396253 139.474195 66.6968168 139.695605 66.9184975 139.917015 67.1401782 140.217426 67.2648125 140.530739 67.2649765 140.844465 67.2653595 141.14547 67.1409865 141.367425 66.9192643 141.589379 66.6975421 141.714067 66.3966672 141.714012 66.0829406L141.714012 65.000679C141.713574 64.7132124 141.827435 64.4373639 142.030511 64.2339009 142.233587 64.030438 142.509219 63.9160528 142.796686 63.9159438L143.880184 63.9159438C144.53291 63.9157162 145.061992 63.3866339 145.06222 62.7339078 145.06222 62.0831079 144.532221 61.5541396 143.880184 61.5541396L142.796686 61.5541396zM148.522777 86.5279957C148.053797 86.5279957 147.673253 86.1439475 147.673253 85.6759982L147.673253 84.8240006C147.673253 84.310989 147.257375 83.8951109 146.744363 83.8951109 146.231352 83.8951109 145.815474 84.310989 145.815474 84.8240006L145.815474 85.6759982C145.815474 86.1439475 145.43493 86.5279957 144.96595 86.5279957L144.113952 86.5279957C143.86784 86.5274482 143.63162 86.6248324 143.457399 86.7986671 143.283177 86.9725018 143.185268 87.2085046 143.185269 87.4546177 143.185269 87.7009199 143.283112 87.9371342 143.457274 88.1112962 143.631436 88.2854582 143.86765 88.3833013 144.113952 88.3833013L144.96595 88.3833013C145.434846 88.3839826 145.814792 88.7639285 145.815474 89.232825L145.815474 90.0848225C145.815474 90.5978342 146.231352 91.0137122 146.744363 91.0137122 147.257375 91.0137122 147.673253 90.5978342 147.673253 90.0848225L147.673253 89.232825C147.673821 88.7638815 148.053833 88.3838693 148.522777 88.3833013L149.374774 88.3833013C149.621093 88.383356 149.857339 88.2855304 150.031513 88.1113566 150.205687 87.9371827 150.303513 87.7009366 150.303458 87.4546177 150.303404 87.2085215 150.205477 86.9725505 150.031268 86.7987277 149.857058 86.6249048 149.62087 86.527503 149.374774 86.5279957L148.522777 86.5279957z"/>
      <path fill="#A1A1A9" d="M40.9851432,9.11434004 C40.7790488,9.11433963 40.5814165,9.1963089 40.4358211,9.3421749 C40.2902258,9.4880409 40.2086237,9.6858251 40.2090068,9.89191913 L40.2079762,13.3065061 C40.2079762,13.7336385 40.5565675,14.0816115 40.9859676,14.0840851 C41.4137186,14.0840851 41.7610731,13.7336385 41.7616916,13.3065061 L41.7616916,9.89191913 C41.7619193,9.46278218 41.41428,9.1146815 40.9851432,9.11434004 Z M40.9847308,20.9153203 C40.7789413,20.9151014 40.5814935,20.9966412 40.4358237,21.1420017 C40.290154,21.2873622 40.2081947,21.4846363 40.2079762,21.6904258 L40.2090068,25.1074863 C40.2090067,25.3132358 40.2908108,25.5105433 40.4363943,25.6559334 C40.5819778,25.8013236 40.7793939,25.8828654 40.9851432,25.8825918 C41.1909616,25.8830299 41.3884944,25.8015476 41.5341463,25.6561277 C41.6797982,25.5107078 41.7615954,25.3133052 41.7614854,25.1074863 L41.7614854,21.6904258 C41.7614311,21.4845858 41.6795245,21.2872163 41.533819,21.1418202 C41.3881136,20.9964241 41.1905704,20.9149372 40.9847308,20.9153203 Z M37.4718128,15.0849196 C37.7744338,15.3875406 38.2660897,15.3854791 38.5693292,15.0826519 C38.7153565,14.9372039 38.7974426,14.7395861 38.7974426,14.5334815 C38.7974426,14.3273769 38.7153565,14.1297591 38.5693292,13.984311 L36.1543397,11.5684971 C35.8500427,11.2680099 35.360708,11.2680099 35.0564111,11.5684971 C34.7531718,11.8735917 34.7531718,12.3662784 35.0564111,12.666838 L37.4718128,15.0849196 Z M44.4974427,19.9142799 C44.3520692,19.7688212 44.1548493,19.6870962 43.9491999,19.6870962 C43.7435505,19.6870962 43.5463306,19.7688212 43.4009571,19.9142799 C43.2549931,20.0597197 43.1729472,20.2572933 43.1729472,20.4633472 C43.1729472,20.6694012 43.2549931,20.8669748 43.4009571,21.0124146 L45.8159464,23.4282286 C46.1198243,23.7289538 46.6091726,23.7289538 46.9130505,23.4282286 C47.0589637,23.2827617 47.1409746,23.0851983 47.1409746,22.8791612 C47.1409746,22.6731242 47.0589637,22.4755607 46.9130505,22.3300939 L44.4974427,19.9142799 Z M37.5693194,17.4984659 C37.568637,17.0699926 37.2210386,16.72304 36.7925648,16.7231543 L33.3775657,16.7231543 C33.1716737,16.7227162 32.9740673,16.8042137 32.828344,16.9496663 C32.6826207,17.0951189 32.6007559,17.2925734 32.6008111,17.4984659 C32.6007018,17.7045644 32.6824834,17.9022621 32.828159,18.0480537 C32.9738347,18.1938453 33.1714672,18.2757842 33.3775657,18.2758388 L36.7925648,18.2758388 C36.9986801,18.2758389 37.1963444,18.1939176 37.342032,18.0481141 C37.4877195,17.9023106 37.5694835,17.7045811 37.5693194,17.4984659 Z M48.5929267,16.7231543 L45.1766907,16.7231543 C44.748545,16.7232681 44.4014928,17.0703203 44.401379,17.4984659 C44.4011054,17.7045432 44.4827776,17.9022738 44.6283997,18.0480892 C44.7740218,18.1939046 44.9716438,18.275839 45.1777213,18.2758388 L48.5927206,18.2758388 C48.798798,18.275839 48.9964201,18.1939046 49.1420422,18.0480892 C49.2876643,17.9022738 49.3693364,17.7045432 49.3690629,17.4984659 C49.3696686,17.2925123 49.2880655,17.0948314 49.1423563,16.949277 C48.9966471,16.8037226 48.7988796,16.7223296 48.5929267,16.7231543 Z M37.4718128,19.9142799 L35.0566173,22.3300939 C34.7534033,22.6333468 34.7534033,23.1249756 35.0566173,23.4282286 C35.3594445,23.7289943 35.8515127,23.7310558 36.1545458,23.4282286 L38.5695351,21.0124146 C38.7154991,20.8669748 38.7975451,20.6694012 38.7975451,20.4633472 C38.7975451,20.2572933 38.7154991,20.0597197 38.5695351,19.9142799 C38.2662824,19.6114543 37.7750655,19.6114543 37.4718128,19.9142799 Z M44.4986795,15.0849196 L46.9132567,12.666838 C47.2171145,12.3662784 47.2171145,11.8735917 46.9132567,11.5684971 C46.6093328,11.2678836 46.1200765,11.2678836 45.8161526,11.5684971 L43.4011633,13.984311 C43.2551507,14.1302274 43.1731136,14.3281903 43.1731136,14.5346153 C43.1731136,14.7410403 43.2551507,14.9390032 43.4011633,15.0849196 C43.7043453,15.3877215 44.1954975,15.3877215 44.4986795,15.0849196 Z"/>
    </g>
    <g transform="translate(49 25)">
      <path fill="#FFF" stroke="#999" stroke-width="4" d="M0,58.4280764 C0,48.436725 6.76046923,36.5648608 18.0524786,22.8965964 C23.3870618,16.4653265 29.0946526,10.3390711 35.1470709,4.54807743 L39.9979068,0 L44.8548833,4.54807743 L46.3776774,6.00802834 C51.8673063,11.3665244 57.0650856,17.0038342 61.9494756,22.8965964 C65.618813,27.2816851 68.998737,31.8911786 72.0686881,36.6970379 C77.1467154,44.7658199 80.0019542,51.9634379 80.0019542,58.4280764 C80.0019542,80.2191956 62.109123,97.9128391 40.0040474,97.9128395 C17.8989718,97.9128399 0,80.219196 0,58.4280764 Z"/>
      <g transform="translate(19 52)">
        <path fill="#000" fill-rule="nonzero" d="M10.2747884,4.65728236 C10.2747884,7.01651578 8.42216803,8.92520978 6.13697943,8.92520978 C3.85469388,8.92520978 2,7.01608787 2,4.65728236 C2,2.29762102 3.85469388,0.388499114 6.13697943,0.388499114 C8.42175325,0.388927025 10.2747884,2.29804893 10.2747884,4.65728236 Z M41,4.26792742 C41,6.62758876 39.1453061,8.54098935 36.862191,8.54098935 C34.5753433,8.54098935 32.7227233,6.62716085 32.7227233,4.26792742 C32.7227233,1.9134006 34.5753437,0 36.862191,0 C39.1448913,0 41,1.9134006 41,4.26792742 Z M32.6571952,16.5616978 C33.0254796,15.0607564 31.7750543,13.7895773 30.2745439,13.7895773 L13.9779553,13.7895773 C12.4774449,13.7895773 11.2249457,15.0603285 11.5977923,16.5616978 C12.7934725,21.4115181 17.0532138,25 22.1270787,25 C27.1988706,25 31.4610997,21.4115181 32.6571952,16.5616978 Z" opacity=".6"/>
        <ellipse cx="40" cy="14.5" fill="#FF4500" filter="url(#empty-a)" rx="4" ry="2.5"/>
        <ellipse cx="4" cy="14.5" fill="#FF4500" filter="url(#empty-b)" rx="4" ry="2.5"/>
        <path fill="#F27E38" fill-rule="nonzero" d="M26,20.4978431 C26,21.8826576 23.7604859,23 21.0010051,23 C18.2391119,23 15.9999996,21.8822653 16,20.4978431 C16,19.117735 18.2391119,18 21.0010051,18 C23.7608877,18 25.9999996,19.1177347 26,20.4978431 Z" opacity=".6"/>
      </g>
    </g>
  </g>
</svg>
