<svg xmlns="http://www.w3.org/2000/svg" width="105" height="106" viewBox="0 0 105 106">
  <defs>
    <linearGradient id="header-icon-a" x1="50%" x2="50%" y1="0%" y2="100%">
      <stop offset="0%" stop-color="#96CFF9"/>
      <stop offset="100%" stop-color="#5DA1F1"/>
    </linearGradient>
  </defs>
  <g fill="none" fill-rule="evenodd" transform="translate(21 15)">
    <path fill="#F1F8FF" stroke="#333" stroke-width="3" d="M32.3395674,0 C14.4915468,21.3493353 5.10578596,36.4625815 4.18228486,45.3397384 C2.08969469,65.4547674 18.3988812,77 33.3326161,77 C48.2663509,77 64.9813408,59.9064262 60.1517721,43.2451028 C56.9320596,32.1375539 47.6613247,17.7225196 32.3395674,0 Z"/>
    <path fill="url(#header-icon-a)" d="M32.5,73 C19.5206719,73 9,62.4677249 9,49.4750835 C9,36.4837309 21.2131783,43.061892 32.5,49.4750835 C43.8333333,55.9153403 56,36.4837309 56,49.4750835 C56,62.4677249 45.4780362,73 32.498708,73 L32.5,73 Z"/>
    <path fill="#5DA1F1" d="M47 12.7412407C47 10.9044609 48.267557 8.72197332 50.3847571 6.20924097 51.384967 5.02693577 52.4551141 3.90070352 53.5899148 2.83610479L54.4994243 2 55.4100852 2.83610479 55.6956021 3.10449774C56.7248824 4.08958743 57.6994422 5.1259334 58.6152429 6.20924097 59.3032269 7.01538241 59.9369472 7.86277772 60.5125489 8.74627236 61.4646558 10.2296128 62 11.5528011 62 12.7412407 62 16.7472541 58.6451761 19.9999999 54.5005757 20 50.3559752 20.0000001 47 16.7472541 47 12.7412407zM0 24.7430149C0 23.3901624.892294871 21.8720094 2.38556979 20.1200435 3.07446419 19.315292 3.81161508 18.5487867 4.59336879 17.8243266L5.49942651 17 6.40663121 17.8243266C7.18795856 18.5484658 7.92472531 19.3146068 8.61328332 20.118956 9.12136377 20.7149072 9.56521739 21.2967208 9.92993434 21.8589593 10.6123449 22.9105739 11 23.8577881 11 24.7430149 11 27.643383 8.54102808 30 5.50057349 30 2.458972 30 3.43797559e-15 27.6433829 3.43797559e-15 24.7430149z"/>
  </g>
</svg>
