<svg xmlns="http://www.w3.org/2000/svg" width="940" height="300" viewBox="0 0 940 300">
  <defs>
    <linearGradient id="header-bg-a" x1="100%" x2="0%" y1="50%" y2="50%">
      <stop offset="0%" stop-color="#B9D8FA"/>
      <stop offset="100%" stop-color="#9BC6F5"/>
    </linearGradient>
    <linearGradient id="header-bg-b" x1="0%" y1="77.701%" y2="77.701%">
      <stop offset="0%" stop-color="#92C1F4"/>
      <stop offset="100%" stop-color="#AFD2F9"/>
    </linearGradient>
  </defs>
  <g fill="none" fill-rule="evenodd">
    <polygon fill="#C7DCF6" points="0 0 940 0 940 300 0 300"/>
    <path fill="url(#header-bg-a)" d="M939.124284,298.561719 L0,298.561719 L0,263.300466 C63.6288123,273.320779 107.187919,278.780935 130.677319,279.680935 C165.911419,281.030935 385.960654,273.280154 564.484334,241.088748 C683.500121,219.62781 808.380105,210.041873 939.124284,212.330935 L939.124284,298.561719 Z"/>
    <path fill="url(#header-bg-b)" d="M939.657541,299.717188 L0,299.717187 L0.342458624,217.237259 C71.3064085,207.193509 174.54953,202.463822 310.071823,203.048197 C513.355262,203.924759 640.030707,239.9375 760.683772,255.510036 C841.119149,265.891726 900.891225,270.270072 940,268.645072 L939.657541,299.717188 Z" opacity=".627"/>
  </g>
</svg>
