<svg xmlns="http://www.w3.org/2000/svg" xmlns:xlink="http://www.w3.org/1999/xlink" width="46" height="46" viewBox="0 0 46 46">
  <defs>
    <circle id="card-icon-after-a" cx="23" cy="23" r="23"/>
    <rect id="card-icon-after-b" width="10.645" height="2.172"/>
    <path id="card-icon-after-d" d="M0.635080645,9.41131802 C0.277926537,8.21377178 0.113919166,7.4483825 0.143058531,7.11515019 C0.186767578,6.61530172 0.192083543,4.17958648 2.48338269,4.13444572 C4.77468183,4.08930496 6.19770665,4.35119208 7.97595609,3.81787109 C9.75420552,3.28455011 9.82437626,1.5527007 10.9364762,1.24850148 C12.0485761,0.944302263 12.5033865,1.041184 12.9923371,0.86191743 C13.4812878,0.682650862 13.8917985,-0.0797918912 15.0549316,0.0731916756 C16.2180648,0.226175242 16.4363738,1.65358971 17.8314012,1.79891231 C19.2264286,1.94423491 20.1840112,1.14124798 21.7307208,2.00599407 C23.2774304,2.87074017 22.8464828,3.87515154 24.6934854,5.25153219 C26.540488,6.62791285 27.9923371,7.37444437 27.888853,7.68654027 C27.8198636,7.89460421 27.2609785,9.00084748 26.2121976,11.0052701 L3.85454732,10.1285022 L0.635080645,9.41131802 Z"/>
    <path id="card-icon-after-f" d="M20.2565445,13.7763707 C24.1312925,12.5705287 29.6710008,8.97021577 30,0.0269944726 C30.0019726,-0.0266278267 -0.000241931066,0.0139863011 5.68434189e-14,0.0269944726 C0.135852445,7.33152101 4.31620936,12.1844024 9.71900202,13.7763707 C10.7624474,14.0838287 19.3287325,14.0651107 20.2565445,13.7763707 Z"/>
  </defs>
  <g fill="none" fill-rule="evenodd">
    <use fill="#F47E85" xlink:href="#card-icon-after-a"/>
    <g transform="translate(8 9)">
      <g transform="translate(10 26)">
        <mask id="card-icon-after-c" fill="#fff">
          <use xlink:href="#card-icon-after-b"/>
        </mask>
        <use fill="#034751" xlink:href="#card-icon-after-b"/>
        <rect width="4.355" height="2.172" x="6.29" fill="#013A42" mask="url(#card-icon-after-c)"/>
      </g>
      <g transform="translate(1 5)">
        <mask id="card-icon-after-e" fill="#fff">
          <use xlink:href="#card-icon-after-d"/>
        </mask>
        <use fill="#FFF" xlink:href="#card-icon-after-d"/>
        <path fill="#E7E7E7" d="M20.8252459,0.876414332 C21.7124214,1.65795057 22.7784496,3.95435412 22.3485653,4.62875471 C21.9186809,5.30315531 21.0527692,5.04209321 21.1495198,5.76481681 C21.2462703,6.48754041 23.1303665,7.01378974 22.9736046,7.44162513 C22.8690967,7.72684873 24.412853,7.82706986 27.6048735,7.74228852 L26.9004491,4.90384227 L22.0696543,0 C20.6485983,0.0632520654 20.2337955,0.355390176 20.8252459,0.876414332 Z" mask="url(#card-icon-after-e)"/>
      </g>
      <g transform="translate(0 12)">
        <mask id="card-icon-after-g" fill="#fff">
          <use xlink:href="#card-icon-after-f"/>
        </mask>
        <use fill="#045464" xlink:href="#card-icon-after-f"/>
        <path fill="#014A58" d="M25.8119645,0 L30.7528588,0 L28.967167,14.0353583 L15.7258065,13.8349946 C20.3207759,11.4854823 23.1966343,8.90358009 24.3533817,6.08928812 C25.3317556,3.70896754 25.8179498,1.67920483 25.8119645,0 Z" mask="url(#card-icon-after-g)"/>
      </g>
      <g fill="#EBEBEB" transform="translate(3)">
        <path d="M0.577559005,1.51081375 L4.03838324,1.51081375 C4.31452562,1.51081375 4.53838324,1.73467137 4.53838324,2.01081375 L4.53838324,3.08094285 C4.53838324,3.35708523 4.31452562,3.58094285 4.03838324,3.58094285 L0.577559005,3.58094285 C0.301416631,3.58094285 0.0775590055,3.35708523 0.0775590055,3.08094285 L0.0775590055,2.01081375 C0.0775590055,1.73467137 0.301416631,1.51081375 0.577559005,1.51081375 Z" transform="rotate(50 2.308 2.546)"/>
        <path d="M10.0504427,10.862069 L8.11436925,10.862069 L2.66263745,4.12974086 L3.8319403,3.18285808 L10.0504427,10.862069 Z"/>
      </g>
    </g>
  </g>
</svg>
