<svg xmlns="http://www.w3.org/2000/svg" width="58" height="58" viewBox="0 0 58 58">
  <g fill="none" fill-rule="evenodd">
    <rect width="58" height="58" fill="#666" rx="8"/>
    <g transform="translate(12 11)">
      <path fill="#FFF" fill-opacity=".802" stroke="#333" d="M33.2257031,18.4804941 C33.2134628,18.4514343 33.1994945,18.4188895 33.1835389,18.3906937 C33.0926728,18.2069455 32.9946642,18.019338 32.8892538,17.8424155 C32.8590419,17.7916976 32.8245963,17.7310434 32.7866946,17.6888792 L25.6853161,5.4899856 C25.5286405,5.22104506 25.2406051,5 24.9295004,5 C24.9283484,5 24.9272251,5 24.9257851,5 C24.6132691,5 24.3252337,5.22501954 24.1699694,5.49623536 L17.1360996,17.8392475 C17.1022012,17.8794244 17.0714421,17.9232878 17.0443695,17.9705785 C16.9640445,18.1107513 16.8879531,18.2529113 16.8167579,18.3973466 L16.8090681,18.411603 C16.7971159,18.4343843 16.7859988,18.4571944 16.7760338,18.4805517 C16.2669533,19.5406176 16,20.7012554 16,21.8695829 C16,26.4631152 20.0374204,30.2000008 25.0001772,30.2000008 C29.962934,30.2000008 34.0003544,26.4613872 34.0003544,21.8678549 C34.0003256,20.6997865 33.7342363,19.54056 33.2257031,18.4804941 Z"/>
      <path fill="#FFF" stroke="#333" d="M24.6071584,19.265822 C24.5896822,19.2243315 24.5697387,19.1778654 24.546958,19.1376084 C24.417223,18.8752599 24.2772901,18.6074013 24.1267892,18.3547984 C24.0836539,18.2823852 24.0344738,18.1957856 23.9803593,18.1355852 L13.8412889,0.718482257 C13.6175936,0.334499467 13.206348,0.0188999843 12.7621648,0.0188999843 C12.76052,0.0188999843 12.7589163,0.0188999843 12.7568603,0.0188999843 C12.3106622,0.0188999843 11.8994166,0.34017408 11.6777362,0.727405418 L1.63505215,18.3502751 C1.58665339,18.4076381 1.54273675,18.4702646 1.50408352,18.5377844 C1.38939857,18.7379176 1.28075833,18.9408882 1.17910856,19.1471072 L1.16812939,19.1674619 C1.1510644,19.1999881 1.13519192,19.2325556 1.12096424,19.2659042 C0.394119103,20.7794248 0.0129735794,22.436538 0.0129735794,24.1046303 C0.0129735794,30.6630961 5.77744443,35.998475 12.8630744,35.998475 C19.9487044,35.998475 25.7131752,30.6606288 25.7131752,24.1021631 C25.7131341,22.4344409 25.3332222,20.7793426 24.6071584,19.265822 Z"/>
      <path fill="#0F0F0F" fill-rule="nonzero" d="M6 21.2538462C5.99999998 21.7018023 6.2389817 22.1157308 6.62692306 22.3397089 7.01486442 22.5636869 7.49282789 22.5636869 7.88076925 22.3397089 8.2687106 22.1157308 8.50769233 21.7018023 8.50769231 21.2538462 8.50769233 20.8058901 8.2687106 20.3919616 7.88076925 20.1679835 7.49282789 19.9440055 7.01486442 19.9440055 6.62692306 20.1679835 6.2389817 20.3919616 5.99999998 20.8058901 6 21.2538462zM17 21.2538462C17 21.9463263 17.561366 22.5076923 18.2538462 22.5076923 18.9463263 22.5076923 19.5076923 21.9463263 19.5076923 21.2538462 19.5076923 20.561366 18.9463263 20 18.2538462 20 17.561366 20 17 20.561366 17 21.2538462zM12.7 25.9769231C11.2115385 25.9769231 10 24.8 10 23.35L10 22.5C10 22.2230769 10.2230769 22 10.5 22 10.7769231 22 11 22.2230769 11 22.5L11 23.35C11 24.2461538 11.7615385 24.9769231 12.7 24.9769231 13.6384615 24.9769231 14.4 24.2461538 14.4 23.35L14.4 22.5C14.4 22.2230769 14.6230769 22 14.9 22 15.1769231 22 15.4 22.2230769 15.4 22.5L15.4 23.35C15.4 24.7961538 14.1884615 25.9769231 12.7 25.9769231z"/>
    </g>
  </g>
</svg>
