<svg xmlns="http://www.w3.org/2000/svg" xmlns:xlink="http://www.w3.org/1999/xlink" width="120" height="154" viewBox="0 0 120 154">
  <defs>
    <linearGradient id="icon-a" x1="5.517%" x2="0%" y1="50%" y2="50%">
      <stop offset="0%" stop-color="#FF936A"/>
      <stop offset="100%" stop-color="#CB5A29"/>
      <stop offset="100%" stop-color="#F6C9B5"/>
    </linearGradient>
    <path id="icon-b" d="M10.3311258,0 L111.212684,4.81263098e-14 C117.070895,0.440940196 120,3.44962013 120,9.02603979 C120,14.6024595 120,52.7702548 120,123.529426 C118.782233,130.111045 115.853127,133.917387 111.212684,134.948454 C106.278528,134.948454 72.651342,134.948454 10.3311258,134.948454 L10.3311258,0 Z"/>
  </defs>
  <g fill="none" fill-rule="evenodd">
    <path fill="url(#icon-a)" fill-rule="nonzero" d="M10.4049717,-5.68434189e-14 L111.2186,4.78638378e-14 C117.072867,0.439837645 120,3.44099451 120,9.00347059 C120,14.5659467 120,59.0900574 120,142.575803 C119.076567,150.169453 116.149434,153.966278 111.2186,153.966278 C106.287767,153.966278 72.6832243,153.966278 10.4049717,153.966278 C5.04575231,154.370712 1.65612745,151.137336 0.236097092,144.266147 C0.236097092,133.238404 -0.295121365,16.5398837 0.236097092,9.00347059 C0.59024273,3.97919515 3.97986759,0.978038285 10.4049717,-5.68434189e-14 Z"/>
    <mask id="icon-c" fill="#fff">
      <use xlink:href="#icon-b"/>
    </mask>
    <use fill="#C9CBC9" fill-rule="nonzero" xlink:href="#icon-b"/>
    <g mask="url(#icon-c)">
      <g transform="translate(10.331 -.794)">
        <rect width="109.669" height="137.33" fill="#FF936A" fill-rule="nonzero"/>
        <g transform="translate(11.92 34.928)">
          <ellipse cx="41.722" cy="82.557" fill="#213843" fill-rule="nonzero" opacity=".2" rx="40.132" ry="3.969"/>
          <polygon fill="#1F9EC7" fill-rule="nonzero" points="31.153 24.608 35.918 24.608 50.652 26.221 50.861 49.216 30.993 49.216"/>
          <polygon fill="#1F9EC7" fill-rule="nonzero" points="30.888 24.608 27.02 35.575 30.993 35.722"/>
          <polygon fill="#1F9EC7" fill-rule="nonzero" points="50.861 31.581 50.861 25.402 54.834 34.928 50.861 34.545"/>
          <polygon fill="#FFC781" fill-rule="nonzero" points="41.163 30.165 46.887 25.643 36.556 24.608"/>
          <polygon fill="#FFC781" fill-rule="nonzero" points="38.94 20.639 42.914 20.639 42.914 26.196 38.94 26.196"/>
          <path fill="#FFC781" fill-rule="nonzero" d="M49.1649735,14.1578377 C48.4403382,18.7906025 47.3384955,25.841864 39.5958171,24.4230126 C33.1932176,23.2513853 32.9549814,15.9421508 33.6399106,11.3201349 C34.0278944,8.24640769 35.9311261,5.64549357 38.6058289,4.53382127 C41.2805317,3.42214898 44.3020773,3.97620454 46.4896555,5.97946486 C48.6772336,7.98272518 49.6835506,11.1171582 49.1153409,14.1578377 L49.1649735,14.1578377 Z"/>
          <path fill="#FFC781" fill-rule="nonzero" d="M48.2231185,14.3632732 C48.2231185,14.3632732 49.0694026,13.1082986 50.4051039,13.6156288 C51.7408052,14.122959 49.9666676,18.0124902 47.3462459,17.3983537 L46.8874172,15.1910224 L48.2231185,14.3632732 Z"/>
          <path fill="#804234" fill-rule="nonzero" d="M37.151548,5.76332525 C37.151548,5.76332525 42.4289309,9.06189389 48.0022419,7.55874869 C48.0022419,7.55874869 49.1464969,13.3521208 48.5940979,17.277 C48.5940979,17.277 53.5952814,9.87609755 50.813558,7.318663 C50.813558,7.318663 50.9023364,1.54616788 43.5534574,0.262231348 C34.7742596,-1.28266789 27.7706299,3.87395524 34.4290103,19.0515464 L34.7643954,15.9199939 C34.863038,15.8573628 37.4967974,15.9721864 37.151548,5.76332525 Z"/>
          <ellipse cx="41.325" cy="15.876" fill="#804234" fill-rule="nonzero" rx="1" ry="1" transform="rotate(-80.37 41.325 15.876)"/>
          <ellipse cx="46.093" cy="16.67" fill="#804234" fill-rule="nonzero" rx="1" ry="1" transform="rotate(-80.43 46.093 16.67)"/>
          <polygon fill="#804234" fill-rule="nonzero" points="38.94 14.539 41.122 15.082 41.325 14.177 38.969 13.495"/>
          <polygon fill="#804234" fill-rule="nonzero" points="47.479 16.67 45.298 16.111 45.308 15.082 47.682 15.597"/>
          <path fill="#FFC781" fill-rule="nonzero" d="M36.2806309,12.7869966 C36.2806309,12.7869966 35.9171116,11.0201832 34.2812747,11.1172608 C32.6454378,11.2143385 33.1907167,16.4468245 36.2402399,16.6701031 L37.3509934,14.2140383 L36.2806309,12.7869966 Z"/>
          <path fill="#F8995D" fill-rule="nonzero" d="M35.1015827,11.9072165 C35.1015827,11.9072165 36.5428219,12.2486734 36.5562914,14.2886598 C36.3878838,13.7595271 35.7715812,13.3385556 34.9668874,13.2030018 C34.9668874,13.2030018 36.3138399,13.2030018 35.1015827,11.9072165 Z"/>
          <polygon fill="#1F9EC7" fill-rule="nonzero" points="30.993 48.423 35.627 80.969 37.091 80.969 40.411 52.774 42.467 52.774 46.548 80.969 48.103 80.969 50.861 48.423"/>
          <polygon fill="#1F9EC7" fill-rule="nonzero" points="36.844 80.969 36.556 82.557 38.146 82.557 38.146 80.969"/>
          <polygon fill="#1F9EC7" fill-rule="nonzero" points="48.19 80.969 48.477 82.557 46.887 82.557 46.887 80.969"/>
          <path fill="#FAB27B" fill-rule="nonzero" d="M5.85608141 45.2299976C5.85608141 45.2299976 4.44596996 42.919754 3.97350993 46.2696072L4.27152318 52.3917526 6.35761589 52.3917526C6.18065064 50.4605994 6.04705667 48.4919407 5.95784203 46.5006315 5.92876757 46.0154804 5.81973833 45.5072268 5.85608141 45.2299976zM52.2084163 52.3917526L25.4304636 52.3917526 25.4304636 46.4072415C41.1558236 41.3020867 54.7200854 47.8159666 54.7200854 47.8159666 54.7200854 47.8159666 55.6496007 52.3917526 52.2084163 52.3917526z"/>
          <path fill="#0C1845" fill-rule="nonzero" d="M32.5782172,44.4536082 L33.3774834,52.3450591 L7.05151577,52.3917526 C7.05151577,52.3917526 5.49024105,47.8858305 7.05151577,47.8041169 C8.61279048,47.7224033 21.9349833,47.150408 21.9349833,47.150408 C21.9349833,47.150408 27.2332836,45.2341472 32.5782172,44.4536082 Z"/>
          <path fill="#FFC781" fill-rule="nonzero" d="M51.9232391,52.3916803 L29.4527407,52.3916803 C29.4527407,52.3916803 29.16453,51.2284348 29.989409,51.0136818 C30.7179085,50.9201171 31.4606921,50.9845401 32.1559586,51.2015907 L51.9232391,50.0115011 C51.9232391,50.0115011 53.2450331,49.9399168 53.2450331,50.9063053 C53.2450331,52.4274724 51.9232391,52.3916803 51.9232391,52.3916803 Z"/>
          <ellipse cx="58.411" cy="44.057" fill="#FFC781" fill-rule="nonzero" rx="1.987" ry="1.985"/>
          <g fill-rule="nonzero" transform="matrix(1 0 0 -1 53.245 53.186)">
            <path fill="#FFC781" d="M17.4147037,6.7886774 C17.4147037,3.0393944 13.5162895,0 8.70735183,0 C3.8984142,0 0,3.0393944 0,6.7886774 C0.000817474534,7.11742136 0.031627052,7.44570363 0.09219549,7.77103895 C0.09219549,7.77103895 0.09219549,7.77103895 0.09219549,7.77103895 L0.09219549,7.77103895 C0.230124458,8.48321152 0.513730415,9.17351576 0.932198843,9.81562885 C2.57202099,12.7333546 6.66430067,14.3100953 10.6332132,13.5533948 C12.1092733,13.2704147 13.4520251,12.6666614 14.5054238,11.8122987 C16.3459166,10.5356805 17.4036198,8.70928329 17.4147037,6.7886774 L17.4147037,6.7886774 Z"/>
            <path fill="#FFC781" d="M2.59357564,6.87095035 C2.15105257,7.43594694 1.75368666,8.02239019 1.40381914,8.62682481 C1.08586697,9.25276154 1.99869739,13.6424477 3.03460606,13.6830929 C4.07051474,13.7237382 9.10646683,13.9107063 10.7167407,13.3010277"/>
            <ellipse cx="7.368" cy="11.681" fill="#5F2E21" rx="1" ry="1" transform="rotate(-43.28 7.368 11.68)"/>
            <polygon fill="#6F7173" points="9.979 13.742 8.038 11.668 8.554 10.994 10.717 13.192" transform="rotate(44 9.377 12.368)"/>
            <path fill="#6F7173" d="M9.48382704,8.48427648 C9.48382704,8.48427648 12.2706156,10.6420777 14.4166462,9.00737982 C16.3069985,7.8829729 16.3069985,0.731548205 12.9012028,1.51228984 C4.55264009,3.42610708 9.48382704,8.48427648 9.48382704,8.48427648 Z"/>
            <path fill="#F79D68" d="M5.28073089,6.87095035 C5.52545537,7.92262034 5.17778864,9.04977976 4.43300666,9.61933049 C4.43300666,9.61933049 4.72200356,8.0211535 4.01877777,7.51264263 L4.98210076,8.0332609 L5.28073089,6.87095035 Z"/>
          </g>
          <path fill="#00D8B1" fill-rule="nonzero" d="M81.8543046,56.3608247 C81.8543046,58.5528828 80.1856035,60.3298969 78.1271563,60.3298969 L3.72714835,60.3298969 C1.66870116,60.3298969 7.56516058e-15,58.5528828 0,56.3608247 L0,56.3608247 C-2.52087077e-16,54.1687667 1.66870116,52.3917526 3.72714835,52.3917526 L78.1271563,52.3917526 C80.1856035,52.3917526 81.8543046,54.1687667 81.8543046,56.3608247 L81.8543046,56.3608247 Z"/>
          <path fill="#00D8B1" fill-rule="nonzero" d="M11.910922 81.1524806C11.910922 81.9459683 11.6173713 82.7069569 11.0948476 83.2680375 10.5723239 83.8291181 9.86362963 84.1443299 9.12466952 84.1443299L9.12466952 84.1443299C7.59337417 84.1329897 6.35759612 82.7968089 6.35763254 81.1524806L6.35763254 58.5588597C6.35507863 57.766322 6.64648931 57.0053045 7.16748828 56.4439253 7.68848724 55.8825462 8.39619764 55.5670056 9.13427729 55.5670103L9.13427729 55.5670103C9.8732374 55.5670103 10.5819316 55.8822221 11.1044553 56.4433027 11.626979 57.0043833 11.9205298 57.7653719 11.9205298 58.5588597L11.910922 81.1524806zM73.9072848 81.1524806C73.9072939 82.8008128 72.6635433 84.138646 71.1258362 84.1443299L71.1258362 84.1443299C69.588129 84.138646 68.3443784 82.8008128 68.3443875 81.1524806L68.3443875 58.5588597C68.3418292 57.766322 68.6337441 57.0053045 69.1556444 56.4439253 69.6775447 55.8825462 70.3864795 55.5670056 71.1258362 55.5670103L71.1258362 55.5670103C72.6635433 55.5726942 73.9072939 56.9105274 73.9072848 58.5588597L73.9072848 81.1524806z"/>
          <path fill="#FFC781" fill-rule="nonzero" d="M54.8344371 35.4824888L53.9903087 34.6319678C51.6863347 33.0309872 50.6137951 35.8026849 50.6137951 35.8026849L49.0844331 37.8039106 48.975193 37.8039106 44.4466924 43.1271712 44.3076595 43.1271712 42.9769159 43.967686C42.9769159 43.967686 42.6889192 45.3085073 43.3443601 45.8588444 43.9998009 46.4091814 45.3305445 45.5386482 45.3305445 45.5386482L45.7377123 45.1183908C45.7847188 44.8603871 45.7847188 44.5959165 45.7377123 44.3379128L54.8344371 35.4824888zM37.8596533 46.6334091L36.0341433 45.6829124 31.5898389 37.5520326 30.863458 35.0518129 27.8145695 34.9278351 29.143082 38.027281 34.7438614 45.9308681C34.2755368 46.4474424 34.4762474 47.5529114 34.4762474 47.5529114L35.3364353 47.7285467C35.3364353 47.7285467 37.1906183 48.7616953 37.8500957 48.3071099 38.5095731 47.8525245 37.8596533 46.6334091 37.8596533 46.6334091z"/>
        </g>
      </g>
    </g>
    <path fill="#FFF" fill-rule="nonzero" d="M10.118615,133.545793 L112.690182,133.545793 C115.44376,132.90217 117.350565,131.252885 118.410596,128.597938 C118.410191,131.896508 118.409988,136.38633 118.409988,142.067404 C118.428177,143.931277 118.038319,145.424533 117.240416,146.54717 C116.442512,147.669807 115.321833,148.30185 113.87838,148.443299 L10.118615,148.443299 C6.02187829,148.024578 3.97350993,145.43698 3.97350993,140.680505 C3.97350993,135.924031 6.02187829,133.545793 10.118615,133.545793 Z"/>
  </g>
</svg>
