<svg xmlns="http://www.w3.org/2000/svg" width="46" height="44" viewBox="0 0 46 44">
  <g fill="none" fill-rule="evenodd">
    <path stroke="#FF4500" stroke-linecap="round" stroke-width="2" d="M32.2,38.3522727 L36.2888889,42.4431818"/>
    <path stroke="#FF4500" stroke-linecap="round" stroke-width="2" d="M9.71111111,38.3522727 L13.8,42.4431818" transform="matrix(-1 0 0 1 23.511 0)"/>
    <path stroke="#FF4500" stroke-linecap="round" stroke-width="2" d="M2.25748186,19.2033878 C1.99212694,20.541967 1.85298541,21.925995 1.85298541,23.3425373 C1.85298541,25.1414265 2.07737697,26.8878803 2.49968355,28.5554092 M43.366151,29.0588605 C43.8749438,27.2405739 44.1470146,25.323344 44.1470146,23.3425373 C44.1470146,21.8700753 43.9966707,20.4327453 43.7105033,19.0450751"/>
    <ellipse cx="23" cy="23.011" fill="#FF4500" opacity=".157" rx="16.867" ry="16.875"/>
    <ellipse cx="25.044" cy="23.011" fill="#FF4500" opacity=".485" rx="16.867" ry="16.875"/>
    <path fill="#FF4500" d="M21.9777778,39.8558812 C30.8169947,39.3272042 37.8222222,31.9877674 37.8222222,23.0113636 C37.8222222,14.0349599 30.8169947,6.69552303 21.9777778,6.16684608 C22.3159309,6.14662101 22.6567682,6.13636364 23,6.13636364 C32.3152028,6.13636364 39.8666667,13.6915585 39.8666667,23.0113636 C39.8666667,32.3311688 32.3152028,39.8863636 23,39.8863636 C22.6567682,39.8863636 22.3159309,39.8761063 21.9777778,39.8558812 Z" opacity=".362"/>
    <ellipse cx="23" cy="23.011" stroke="#FF4500" stroke-linecap="round" stroke-width="2" rx="17.889" ry="17.898"/>
    <ellipse cx="15.333" cy="20.455" fill="#333" rx="2.044" ry="2.045"/>
    <ellipse cx="31.689" cy="20.455" fill="#333" rx="2.044" ry="2.045"/>
    <path stroke="#FF4500" stroke-linecap="round" stroke-width="2" d="M19.9333333 1.53409091L26.0666667 1.53409091M23 1.53409091L23 4.60227273"/>
    <path stroke="#FF4500" stroke-width="2" d="M43.8465328,9.70312241 L43.8465328,8.73542167 C43.8465328,7.07856742 42.503387,5.73542167 40.8465328,5.73542167 L38.6243106,5.73542167 C36.9674563,5.73542167 35.6243106,7.07856742 35.6243106,8.73542167 L35.6243106,9.70312241 L43.8465328,9.70312241 Z" transform="rotate(45 39.735 7.735)"/>
    <path stroke="#FF4500" stroke-width="2" d="M9.84653278,9.73542167 L9.84653278,8.73542167 C9.84653278,7.07856742 8.50338703,5.73542167 6.84653278,5.73542167 L4.62431056,5.73542167 C2.96745631,5.73542167 1.62431056,7.07856742 1.62431056,8.73542167 L1.62431056,9.73542167 L9.84653278,9.73542167 Z" transform="rotate(-45 5.735 7.735)"/>
    <path fill="#333" stroke="#333" d="M26.0777778,26.5909091 C26.0777778,26.3022148 25.8437448,26.0681818 25.5550505,26.0681818 L21.4671717,26.0681818 C21.1784774,26.0681818 20.9444444,26.3022148 20.9444444,26.5909091 C20.9444444,28.009332 22.0936356,29.1590909 23.5111111,29.1590909 C24.9285867,29.1590909 26.0777778,28.009332 26.0777778,26.5909091 Z"/>
    <path fill="#FF4500" d="M26.3702344,27.7027245 C25.9251397,28.8476332 24.8128416,29.6590909 23.5111111,29.6590909 C22.2093806,29.6590909 21.0970826,28.8476332 20.6519879,27.7027245 C20.9791205,27.0438013 21.6588931,26.5909091 22.4444444,26.5909091 L24.5777778,26.5909091 C25.3633291,26.5909091 26.0431017,27.0438013 26.3702344,27.7027245 Z"/>
  </g>
</svg>
