<svg xmlns="http://www.w3.org/2000/svg" xmlns:xlink="http://www.w3.org/1999/xlink" width="940" height="300" viewBox="0 0 940 300">
  <defs>
    <polygon id="header-bg-a" points="0 0 940 0 940 300 0 300"/>
    <linearGradient id="header-bg-c" x1="-9.642%" x2="100%" y1="55.982%" y2="44.907%">
      <stop offset="0%" stop-color="#F1D8CA"/>
      <stop offset="100%" stop-color="#FDEDD3"/>
    </linearGradient>
    <linearGradient id="header-bg-d" x1="50%" x2="50%" y1="0%" y2="100%">
      <stop offset="0%" stop-color="#FF7B00" stop-opacity=".205"/>
      <stop offset="100%" stop-color="#FF7B00"/>
    </linearGradient>
    <linearGradient id="header-bg-e" x1="50%" x2="50%" y1="0%" y2="100%">
      <stop offset="0%" stop-color="#FF7B00" stop-opacity=".203"/>
      <stop offset="100%" stop-color="#FF7B00"/>
    </linearGradient>
  </defs>
  <g fill="none" fill-rule="evenodd">
    <mask id="header-bg-b" fill="#fff">
      <use xlink:href="#header-bg-a"/>
    </mask>
    <use fill="#D8D8D8" xlink:href="#header-bg-a"/>
    <g mask="url(#header-bg-b)">
      <g transform="translate(-2.4)">
        <polygon fill="url(#header-bg-c)" points="2.4 0 942.4 0 942.4 300 2.4 300"/>
        <path fill="#CDC579" d="M242.4,299.8 C199.57414,253.101306 137.981791,223 70.2852214,223 C46.9492231,223 23.323229,227.454803 2.0487643,233.914095 C2.0487643,254.276064 2.0487643,274.638032 2.0487643,295 C2.0487643,295 2.0487643,295 2.0487643,295 L2.0487643,295 C0.731080357,295.203352 -0.172263869,296.436396 0.0310885031,297.75408 C0.212757028,298.931257 1.22585395,299.8 2.41696634,299.8 L6.85578902,299.8 L206.5591,299.8 C230.426845,299.8 242.373811,299.8 242.4,299.8 Z"/>
        <path fill="#B8B84C" d="M53.8964729,248 C42.907957,248 34,256.024995 34,265.923844 C34,269.504594 35.1666636,272.83993 37.1744719,275.638991 L70.6184738,275.638991 C72.6262822,272.83993 73.7924147,269.504594 73.7924147,265.923844 C73.7924147,256.024995 64.8844577,248 53.8964729,248"/>
        <path fill="#7F8D00" d="M56.4865402,270.389206 C46.4082024,270.389206 38.0811876,263.637686 36.7711471,254.881711 C34.7144843,257.703256 33.5170213,261.078299 33.5170213,264.705931 C33.5170213,268.307252 34.6974915,271.660289 36.7265409,274.469396 L70.0999164,274.469396 C72.1294968,271.660289 73.309436,268.307252 73.309436,264.705931 C73.309436,263.886449 73.246775,263.079883 73.1288872,262.289582 C69.5736698,267.167727 63.4477568,270.389206 56.4865402,270.389206" opacity=".51"/>
        <g transform="translate(880 70)">
          <path fill="url(#header-bg-d)" d="M67.0212766,6.23827313 L67.0212766,86.4099048 C60.5578312,90.0708826 53.1163445,92.1561109 45.1968548,92.1561109 C20.3537518,92.1561109 0.214437632,71.6364157 0.214437632,46.3240889 C0.214437632,21.0117622 20.3537518,0.492066977 45.1968548,0.492066977 C53.1163445,0.492066977 60.5578312,2.57729529 67.0212857,6.23827829 Z" opacity=".203"/>
          <path fill="url(#header-bg-e)" d="M67.0212766,24.9003098 L67.0212766,67.7478681 C61.5087861,73.5762259 53.7683912,77.2019771 45.1968548,77.2019771 C28.4595929,77.2019771 14.8913613,63.3774757 14.8913613,46.3240889 C14.8913613,29.2707022 28.4595929,15.4462008 45.1968548,15.4462008 C53.7683912,15.4462008 61.5087861,19.071952 67.0212766,24.9003098 Z" opacity=".297"/>
          <ellipse cx="45.197" cy="46.324" fill="#F5A623" rx="15.505" ry="15.798"/>
        </g>
        <path fill="#CDC579" d="M946.688766,257 L946.688766,294.784172 C946.688766,295.605616 948.467184,297.2315 952.02402,299.661825 C946.226129,299.661825 942.847711,299.661825 941.888766,299.661825 L817,299.661825 C848.418805,274.030948 894.798112,257.610564 946.688766,257 Z" opacity=".597"/>
        <g transform="translate(889 230)">
          <rect width="2.4" height="34.144" x="6.2" y="13.414" fill="#9D7F5B"/>
          <ellipse cx="7.8" cy="12.194" fill="#7ED321" rx="7.8" ry="12.194"/>
        </g>
        <g transform="translate(75 194)">
          <polygon fill="#9D7F5B" points="6.2 13.414 8.6 13.414 8.6 47.557 6.2 47.557" opacity=".802"/>
          <ellipse cx="7.8" cy="12.194" fill="#7ED321" rx="7.8" ry="12.194"/>
        </g>
        <g opacity=".799" transform="translate(45 194)">
          <rect width="2.4" height="31.705" x="6.2" y="12.194" fill="#9D7F5B"/>
          <ellipse cx="7.2" cy="10.975" fill="#7ED321" rx="7.2" ry="10.975"/>
        </g>
        <g opacity=".651" transform="translate(20 202)">
          <polygon fill="#9D7F5B" points="5 12.194 7.4 12.194 7.4 35.363 5 35.363"/>
          <ellipse cx="6.6" cy="9.755" fill="#7ED321" rx="6.6" ry="9.755"/>
        </g>
        <g transform="matrix(-1 0 0 1 754 194)">
          <path fill="#CDC579" d="M396.298375,105.8 C390.928718,99.9447538 367.890654,77.6349034 348.928754,72.3281314 C326.661727,66.0963701 314.393766,77.7640636 300.813238,76.9421337 C296.71373,76.6940205 283.783366,68.3636041 281.407558,66.8161556 C244.902524,43.0391261 201.517365,29 155.285221,29 C131.949223,29 108.323229,33.4548034 87.0487643,39.9140953 C65.7742996,46.3733872 0.811120404,85.4380318 0.811120404,105.8 C19.1893119,105.8 37.5675034,105.8 55.9456948,105.8 L91.855789,105.8 L291.5591,105.8 C361.359094,105.8 396.272186,105.8 396.298375,105.8 Z"/>
          <g transform="translate(118 54)">
            <path fill="#B8B84C" d="M20.8964729,0 C9.90795699,0 1,8.02499467 1,17.9238435 C1,21.5045938 2.16666358,24.8399299 4.17447195,27.6389906 L37.6184738,27.6389906 C39.6262822,24.8399299 40.7924147,21.5045938 40.7924147,17.9238435 C40.7924147,8.02499467 31.8844577,0 20.8964729,0"/>
            <path fill="#7F8D00" d="M23.6600829,23.389206 C13.5817452,23.389206 5.25473034,16.6376859 3.94468981,7.88171107 C1.88802707,10.7032561 0.690564,14.0782986 0.690564,17.7059311 C0.690564,21.3072521 1.87103425,24.6602886 3.90008365,27.4693955 L37.2734591,27.4693955 C39.3030395,24.6602886 40.4829787,21.3072521 40.4829787,17.7059311 C40.4829787,16.8864488 40.4203177,16.079883 40.30243,15.2895825 C36.7472126,20.1677268 30.6212995,23.389206 23.6600829,23.389206" opacity=".51"/>
          </g>
          <g transform="translate(153 73)">
            <path fill="#B8B84C" d="M11.2127415,0 C5.31646473,0 0.536585366,4.29910429 0.536585366,9.60205904 C0.536585366,11.5203181 1.16259997,13.3071053 2.23996056,14.8066021 L20.1855225,14.8066021 C21.2628831,13.3071053 21.8886128,11.5203181 21.8886128,9.60205904 C21.8886128,4.29910429 17.1087334,0 11.2127415,0"/>
            <path fill="#7F8D00" d="M12.6956542,12.5299318 C7.28776569,12.5299318 2.8196114,8.91304601 2.11666282,4.22234521 C1.0130877,5.73388722 0.370546537,7.54194568 0.370546537,9.48532022 C0.370546537,11.4145993 1.0039696,13.2108689 2.09272781,14.7157476 L20.0003927,14.7157476 C21.0894358,13.2108689 21.7225739,11.4145993 21.7225739,9.48532022 C21.7225739,9.04631183 21.688951,8.61422302 21.6256941,8.19084774 C19.7180165,10.8041393 16.4309412,12.5299318 12.6956542,12.5299318" opacity=".51"/>
          </g>
          <g transform="translate(325 85)">
            <path fill="#B8B84C" d="M8.15472112,0 C3.8665198,0 0.390243902,3.15267648 0.390243902,7.04150996 C0.390243902,8.44823327 0.84552725,9.75854387 1.62906222,10.8581749 L14.68038,10.8581749 C15.463915,9.75854387 15.9189911,8.44823327 15.9189911,7.04150996 C15.9189911,3.15267648 12.4427152,0 8.15472112,0"/>
            <path fill="#7F8D00" d="M9.23320308,9.18861664 C5.30019323,9.18861664 2.05062647,6.53623374 1.53939114,3.09638649 C0.736791052,4.20485063 0.26948839,5.53076017 0.26948839,6.95590149 C0.26948839,8.37070617 0.730159706,9.68797052 1.52198386,10.7915482 L14.5457401,10.7915482 C15.3377715,9.68797052 15.7982356,8.37070617 15.7982356,6.95590149 C15.7982356,6.63396201 15.7737825,6.31709688 15.7277775,6.00662168 C14.3403756,7.92303551 11.9497754,9.18861664 9.23320308,9.18861664" opacity=".51"/>
          </g>
          <g transform="translate(168 66)">
            <path fill="#B8B84C" d="M3.05802042,0 C1.44994493,0 0.146341463,1.14642781 0.146341463,2.56054908 C0.146341463,3.07208482 0.317072719,3.54856141 0.610898333,3.94842723 L5.50514251,3.94842723 C5.79896812,3.54856141 5.96962167,3.07208482 5.96962167,2.56054908 C5.96962167,1.14642781 4.6660182,0 3.05802042,0"/>
            <path fill="#7F8D00" d="M3.46245116,3.34131514 C1.98757246,3.34131514 0.768984928,2.37681227 0.577271679,1.12595872 C0.276296645,1.52903659 0.101058146,2.01118551 0.101058146,2.52941872 C0.101058146,3.04389315 0.27380989,3.52289837 0.570743948,3.92419936 L5.45465255,3.92419936 C5.75166432,3.52289837 5.92433835,3.04389315 5.92433835,2.52941872 C5.92433835,2.41234982 5.91516844,2.29712614 5.89791658,2.18422606 C5.37764086,2.88110382 4.48116578,3.34131514 3.46245116,3.34131514" opacity=".51"/>
          </g>
          <g transform="translate(141 86)">
            <path fill="#B8B84C" d="M3.05802042,0 C1.44994493,0 0.146341463,1.14642781 0.146341463,2.56054908 C0.146341463,3.07208482 0.317072719,3.54856141 0.610898333,3.94842723 L5.50514251,3.94842723 C5.79896812,3.54856141 5.96962167,3.07208482 5.96962167,2.56054908 C5.96962167,1.14642781 4.6660182,0 3.05802042,0"/>
            <path fill="#7F8D00" d="M3.46245116,3.34131514 C1.98757246,3.34131514 0.768984928,2.37681227 0.577271679,1.12595872 C0.276296645,1.52903659 0.101058146,2.01118551 0.101058146,2.52941872 C0.101058146,3.04389315 0.27380989,3.52289837 0.570743948,3.92419936 L5.45465255,3.92419936 C5.75166432,3.52289837 5.92433835,3.04389315 5.92433835,2.52941872 C5.92433835,2.41234982 5.91516844,2.29712614 5.89791658,2.18422606 C5.37764086,2.88110382 4.48116578,3.34131514 3.46245116,3.34131514" opacity=".51"/>
          </g>
          <g transform="translate(161)">
            <polygon fill="#9D7F5B" points="6.2 13.414 8.6 13.414 8.6 47.557 6.2 47.557" opacity=".802"/>
            <ellipse cx="7.8" cy="12.194" fill="#7ED321" rx="7.8" ry="12.194"/>
          </g>
          <g transform="translate(251 29)">
            <polygon fill="#9D7F5B" points="6.2 13.414 8.6 13.414 8.6 47.557 6.2 47.557" opacity=".802"/>
            <ellipse cx="7.8" cy="12.194" fill="#7ED321" rx="7.8" ry="12.194"/>
          </g>
          <g transform="translate(354 56)">
            <polygon fill="#9D7F5B" points="4.615 8.462 6.154 8.462 6.154 30 4.615 30" opacity=".802"/>
            <ellipse cx="5" cy="7.692" fill="#7ED321" rx="5" ry="7.692"/>
          </g>
          <g opacity=".799" transform="translate(131)">
            <rect width="2.4" height="31.705" x="6.2" y="12.194" fill="#9D7F5B"/>
            <ellipse cx="7.2" cy="10.975" fill="#7ED321" rx="7.2" ry="10.975"/>
          </g>
          <g opacity=".651" transform="translate(104 8)">
            <polygon fill="#9D7F5B" points="6 12.194 8.4 12.194 8.4 35.363 6 35.363"/>
            <ellipse cx="6.6" cy="9.755" fill="#7ED321" rx="6.6" ry="9.755"/>
          </g>
        </g>
        <ellipse cx="830.6" cy="165.2" fill="#F5A623" opacity=".177" rx="33.6" ry="34.2"/>
        <ellipse cx="725.6" cy="213.8" fill="#F5A623" opacity=".201" rx="57.6" ry="58.8"/>
        <g opacity=".589" transform="translate(914 229)">
          <polygon fill="#9D7F5B" points="5 10.975 7.4 10.975 7.4 40.241 5 40.241"/>
          <ellipse cx="6.6" cy="10.365" fill="#7ED321" rx="6.6" ry="10.365"/>
        </g>
      </g>
    </g>
  </g>
</svg>
