<svg xmlns="http://www.w3.org/2000/svg" width="85" height="104" viewBox="0 0 85 104">
  <defs>
    <filter id="history-header-not-taken-a" width="241.4%" height="216.4%" x="-70.7%" y="-58.2%" filterUnits="objectBoundingBox">
      <feGaussianBlur in="SourceGraphic" stdDeviation="4.344"/>
    </filter>
  </defs>
  <g fill="none" fill-rule="evenodd" transform="translate(1.022 1.998)">
    <g transform="translate(24.978 16.002)">
      <ellipse cx="25" cy="82.5" fill="#DBC2A6" rx="16" ry="3.5"/>
      <g transform="translate(0 7.211)">
        <path fill="#FF7E33" d="M25.2145794,1.32893554 L25.2145794,1.32893554 C35.8943627,1.32893554 44.5520376,9.98661044 44.5520376,20.6663937 L44.5520376,47.8805439 C44.5520376,58.5603271 35.8943627,67.218002 25.2145794,67.218002 L25.2145794,67.218002 C14.5347962,67.218002 5.87712132,58.5603271 5.87712132,47.8805439 L5.87712132,20.6663937 C5.87712132,9.98661044 14.5347962,1.32893554 25.2145794,1.32893554 Z"/>
        <path fill="#FF4500" d="M22.7145794,66.1606862 C32.6933858,65.3951233 40.5520376,57.0555768 40.5520376,46.8805439 L40.5520376,19.6663937 C40.5520376,9.49136077 32.6933858,1.15181433 22.7145794,0.386251435 C23.2095956,0.348274347 23.7098291,0.328935543 24.2145794,0.328935543 C34.8943627,0.328935543 43.5520376,8.98661044 43.5520376,19.6663937 L43.5520376,46.8805439 C43.5520376,57.5603271 34.8943627,66.218002 24.2145794,66.218002 C23.7098291,66.218002 23.2095956,66.1986632 22.7145794,66.1606862 Z"/>
        <path fill="#FFF" d="M44.5520376,35.8531537 L44.5520376,52.2087818 C44.5520376,61.7437637 36.8224075,69.4733937 27.2874257,69.4733937 L23.2614117,69.4733937 C13.7264298,69.4733937 5.99679981,61.7437637 5.99679981,52.2087818 C5.99679981,52.1690269 5.99693713,52.1292721 5.99721175,52.0895181 L6.109375,35.8531537 L44.5520376,35.8531537 Z"/>
        <path fill="#E9EAEB" d="M23.2874257,68.4733937 C32.8224075,68.4733937 40.5520376,60.7437637 40.5520376,51.2087818 L40.5520376,36.0460849 L44.5520376,36.0460849 L44.5520376,51.2087818 C44.5520376,60.7437637 36.8224075,68.4733937 27.2874257,68.4733937 L23.2874257,68.4733937 Z"/>
        <path stroke="#333" stroke-linecap="round" stroke-linejoin="round" stroke-width="2" d="M14.3541001,3.68365448 C17.4499091,1.57844283 21.1885629,0.348096098 25.2145794,0.348096098 C35.8943627,0.348096098 44.5520376,9.005771 44.5520376,19.6855542 L44.5520376,50.1359356 C44.5520376,60.8157188 35.8943627,69.4733937 25.2145794,69.4733937 C14.5347962,69.4733937 5.87712132,60.8157188 5.87712132,50.1359356 L5.87712132,19.6855542 C5.87712132,16.4002081 6.69641322,13.3062179 8.1418295,10.596751 M10.5083428,7.12856296 C10.8425184,6.73756256 11.1920147,6.36004914 11.5559021,5.9969523"/>
        <path stroke="#333" stroke-linecap="round" d="M21.5,27.2885165 L28.5,27.2885165"/>
        <path stroke="#333" stroke-linecap="round" stroke-width="2" d="M6.99701131,36.2524296 L44.0038831,36.2524296"/>
        <circle cx="18.227" cy="22.023" r="1.5" fill="#333"/>
        <circle cx="31.746" cy="22.023" r="1.5" fill="#333"/>
        <path stroke="#333" stroke-width="2" d="M53.8705131,12.2230868 C45.3464245,24.935652 42.3433321,32.2780999 44.8612357,34.2504306 C48.1840665,36.8532789 52.3670092,37.2603759 57.4100639,35.4717215" transform="matrix(-1 0 0 1 101.41 0)"/>
        <g transform="translate(40 5)">
          <ellipse cx="6" cy="5.5" fill="#333" rx="3" ry="2.5"/>
          <path stroke="#333" stroke-linecap="round" d="M0.231933594,6.09137298 C1.12682897,5.92506645 1.69026484,5.92506645 1.92224121,6.09137298 C2.15421758,6.25767951 2.767214,6.40343147 3.76123047,6.52862884"/>
          <path stroke="#333" stroke-linecap="round" d="M4.26168384,0.348052974 C3.37378046,0.748620972 2.79251308,1.32436837 2.5178817,2.07529516 C2.24325033,2.82622195 2.13071132,3.77413543 2.18026468,4.9190356" transform="scale(-1 1) rotate(27 0 -10.76)"/>
          <path stroke="#333" stroke-linecap="round" d="M5.35205078,0.0153231746 C6.39811198,0.745791925 7.00528971,1.34564544 7.17358398,1.81488372 C7.34187826,2.284122 7.45068359,3.5124941 7.5,5.5"/>
        </g>
        <path stroke="#333" stroke-linecap="round" stroke-width="2" d="M13.5,65.2885165 C12.9430405,67.0775256 12.6097072,68.4108589 12.5,69.2885165 C12.3902928,70.1661741 12.3902928,71.4995075 12.5,73.2885165"/>
        <path stroke="#333" stroke-linecap="round" stroke-width="2" d="M38.5820807,65.2885165 C38.024855,67.0796557 37.6915216,68.412989 37.5820807,69.2885165 C37.4726398,70.164044 37.4726398,71.4973774 37.5820807,73.2885165" transform="matrix(-1 0 0 1 76.082 0)"/>
        <path stroke="#333" stroke-linecap="round" stroke-width="2" d="M5.90161133,36.1237216 C2.65714518,37.5657789 0.98421224,39.6363355 0.8828125,42.3353915 C0.78141276,45.0344475 1.61551146,48.3392978 3.38510861,52.2499423"/>
        <path stroke="#E9EAEB" stroke-linecap="round" stroke-width="2" d="M12.314209,13.3246493 C12.5489095,12.1229892 13.0340169,10.8729892 13.7695312,9.57464935 C14.5050456,8.2763095 15.5199382,7.0263095 16.814209,5.82464935" transform="rotate(10 14.564 9.575)"/>
      </g>
      <path stroke="#333" stroke-linecap="round" stroke-width="2" d="M37.5 3.5L37.5 0M40.5 5.5L44 2M42.5 8.5L46.5 7.5"/>
    </g>
    <g transform="rotate(-10 35.145 2.355)">
      <path fill="#FEDB01" d="M16.5015939,27.8788526 C18.9064549,27.8788526 20.1120157,27.8788526 20.1182763,27.8788526 C20.3694297,25.4034853 21.1217473,23.6020305 21.9083051,22.6613076 C23.6844167,20.5370789 25.3899195,19.0496147 25.5024634,15.001449 C25.6473138,9.79122897 21.9335761,5.54680043 16.5015939,5.47831237 C11.0696117,5.40982431 7.17924504,10.0323305 7.06910323,15.001449 C7.01526503,17.4303946 7.80469391,19.6817966 9.84195408,21.7797527 C11.2126309,23.191266 12.1681675,25.738326 12.403847,27.8788526 C12.4110142,27.8788526 13.7769299,27.8788526 16.5015939,27.8788526 Z" filter="url(#history-header-not-taken-a)"/>
      <path fill="#FEDB01" d="M16.5015939,27.8788526 C18.9064549,27.8788526 20.1120157,27.8788526 20.1182763,27.8788526 C20.3694297,25.4034853 21.1217473,23.6020305 21.9083051,22.6613076 C23.6844167,20.5370789 25.3899195,19.0496147 25.5024634,15.001449 C25.6473138,9.79122897 21.9335761,5.54680043 16.5015939,5.47831237 C11.0696117,5.40982431 7.17924504,10.0323305 7.06910323,15.001449 C7.01526503,17.4303946 7.80469391,19.6817966 9.84195408,21.7797527 C11.2126309,23.191266 12.1681675,25.738326 12.403847,27.8788526 C12.4110142,27.8788526 13.7769299,27.8788526 16.5015939,27.8788526 Z"/>
      <path fill="#FFFABE" d="M25.5024634,15.001449 C25.3899195,19.0496147 23.6844167,20.5370789 21.9083051,22.6613076 C21.1217473,23.6020305 20.3694297,25.4034853 20.1182763,27.8788526 L12.403847,27.8788526 C12.1681675,25.738326 11.2126309,23.191266 9.84195408,21.7797527 C7.80469391,19.6817966 7.01526503,17.4303946 7.06910323,15.001449 C7.17924504,10.0323305 11.0696117,5.40982431 16.5015939,5.47831237 C16.6643885,5.48036493 16.8256398,5.48616824 16.9852902,5.49563588 C11.9218456,5.81253745 8.35791678,10.2484332 8.25256496,15.001449 C8.19872675,17.4303946 8.98815563,19.6817966 11.0254158,21.7797527 C12.3960926,23.191266 13.3516293,25.738326 13.5873088,27.8788526 L17.6850557,27.8788526 L20.1182763,27.8788526 C20.3694297,25.4034853 21.1217473,23.6020305 21.9083051,22.6613076 C23.6844167,20.5370789 25.3899195,19.0496147 25.5024634,15.001449 C25.6473138,9.79122897 23.1170379,5.54680043 17.6850557,5.47831237 C17.4488234,5.47533388 17.2155069,5.4812275 16.9852902,5.49563588 C22.1527092,5.80207591 25.6429727,9.9473774 25.5024634,15.001449 Z"/>
      <path stroke="#333" d="M16.5015939,27.8788526 C18.9064549,27.8788526 20.1120157,27.8788526 20.1182763,27.8788526 C20.3694297,25.4034853 21.1217473,23.6020305 21.9083051,22.6613076 C23.6844167,20.5370789 25.3899195,19.0496147 25.5024634,15.001449 C25.6473138,9.79122897 21.9335761,5.54680043 16.5015939,5.47831237 C11.0696117,5.40982431 7.17924504,10.0323305 7.06910323,15.001449 C7.01526503,17.4303946 7.80469391,19.6817966 9.84195408,21.7797527 C11.2126309,23.191266 12.1681675,25.738326 12.403847,27.8788526 C12.4110142,27.8788526 13.7769299,27.8788526 16.5015939,27.8788526 Z"/>
      <path stroke="#F5A623" stroke-linecap="round" d="M15.1233064,26.4366668 C15.5215716,21.5867972 15.1319033,18.5100246 13.9543014,17.2063489 C12.1147656,15.1698728 10.0972349,18.0510992 11.4321206,19.3870544 C12.7670063,20.7230096 18.5470294,20.7887073 20.9118413,19.6156213 C23.2766532,18.4425353 21.3480435,15.812488 19.3601532,16.7651048 C18.0807536,17.3782057 17.5561849,20.5939846 17.7864468,26.4124416"/>
      <path stroke="#333" stroke-linecap="round" d="M12.375 29.7916667L20.625 29.7916667M12.8333333 31.625L20.1666667 31.625M13.75 33.4583333L18.3333333 33.4583333"/>
      <rect width="1.5" height="3.75" x="15.752" fill="#F5A623" rx=".75"/>
      <rect width="1.5" height="3.75" x="29.667" y="13.115" fill="#F5A623" rx=".75" transform="rotate(90 30.417 14.99)"/>
      <rect width="1.5" height="3.75" x="1.262" y="13.183" fill="#F5A623" rx=".75" transform="rotate(-90 2.012 15.058)"/>
      <rect width="1.5" height="3.75" x="4.532" y="3.908" fill="#F5A623" rx=".75" transform="rotate(-45 5.283 5.784)"/>
      <rect width="1.5" height="3.75" x="26.164" y="4.036" fill="#F5A623" rx=".75" transform="rotate(45 26.914 5.912)"/>
      <path stroke="#FFF" stroke-linecap="round" d="M10.6469625,11.7202861 C10.9693773,11.014211 11.378774,10.3761698 11.8751526,9.80616252 C12.3715312,9.23615519 12.8975627,8.78285726 13.4532471,8.44626872" transform="rotate(2 12.05 10.083)"/>
      <path stroke="#FFF" stroke-linecap="round" d="M9.96953449,13.0023759 L9.78939836,13.509393"/>
    </g>
  </g>
</svg>
