<svg xmlns="http://www.w3.org/2000/svg" width="18" height="18" viewBox="0 0 18 18">
  <g fill="#333">
    <path d="M0.0180650602,8.38780482 C0.0180650602,5.84911084 0.0157228916,4.89626024 0.0157228916,2.35754458 C0.0157228916,0.156946988 1.23729398,0.0135975904 2.41173976,0.0135975904 L11.9958289,0.0135975904 C13.8419783,0.0135975904 14.4128819,0.641819277 14.4128819,2.40957108 L14.4128819,3.60756867 C14.4128819,4.55228675 13.2110241,4.44402651 13.2110241,3.60756867 L13.2110241,2.40957108 C13.2110241,1.52219277 12.9223952,1.21159518 11.9958072,1.21159518 L2.41171807,1.21159518 C1.41963614,1.21159518 1.21372048,1.34611807 1.21372048,2.40957108 L1.21372048,14.3894819 C1.21372048,15.0461133 1.57311325,15.5874795 2.41171807,15.5874795 C3.86481687,15.5874795 3.3547012,15.5880434 4.80775663,15.5874795 C5.54011807,15.5874795 5.59394458,16.7854771 4.80775663,16.7854771 C4.02156867,16.7854771 3.42607229,16.7950193 1.96015663,16.7891639 C1.09557108,16.7856289 0.379561446,16.2735831 0.124525301,15.4809759 C0.0531325301,15.2592723 0.0227277108,15.0141687 0.0227277108,14.7796265 C0.0157228916,12.249694 0.0180650602,10.917759 0.0180650602,8.38780482"/>
    <path d="M11.9840747 17.9828458C8.68020723 17.9822602 6.0057759 15.3037301 6.0057759 11.9946578 6.0057759 8.68556386 8.69308916 6.0034988 12.0027904 6.00820482 15.3125349 6.01286747 17.9858169 8.69783855 17.9823036 12.012788 17.9788337 15.3142916 15.2973325 17.983453 11.9840747 17.9828458M12.0004482 7.20739518C9.37398795 7.20151807 7.21546265 9.35065301 7.20962892 11.9794554 7.20377349 14.6152843 9.34241205 16.7707952 11.9711928 16.7784506 14.6105566 16.7854771 16.7749157 14.6486386 16.7807711 12.0280337 16.7878193 9.36936867 14.6503735 7.21379277 12.0004482 7.20739518M10.7978313 3.59956627C11.7524819 3.60015181 11.6214506 4.81356867 10.7978313 4.81356867L3.60975904 4.81356867C2.71127711 4.81356867 2.74870843 3.59956627 3.60975904 3.59956627 5.96832289 3.59895904 9.88059036 3.59895904 10.7978313 3.59956627z"/>
    <path d="M12.0111398 11.0253687C12.0123325 11.0826867 12.0442554 11.1529084 12.0816867 11.1938313 12.3764964 11.5114988 13.8135036 13.0177301 14.1071855 13.3359398 14.4090434 13.6623687 14.2885084 14.1859084 13.8837036 14.3209952 13.6778096 14.3894602 13.4835831 14.3508361 13.327959 14.1917422 12.9372072 13.7904506 11.3543133 12.1841783 10.9694169 11.7758819 10.8664482 11.6670361 10.8173277 11.5290217 10.8173277 11.3740048 10.8173277 10.577906 10.8149855 9.78115663 10.8184988 8.98447229 10.8208193 8.65338072 11.0688723 8.40185783 11.3800771 8.40068675 11.6947952 8.39951566 12.0079301 8.65574458 12.0114434 8.99323373 12.0137855 9.32959518 12.0040916 10.6849518 12.0111398 11.0253687L12.0111398 11.0253687zM4.80775663 7.19349398C5.76242892 7.1941012 5.63139759 8.40751807 4.80775663 8.40751807L3.60973735 8.40751807C2.71125542 8.40751807 2.74868675 7.19349398 3.60973735 7.19349398 5.96832289 7.19293012 3.89053735 7.19293012 4.80775663 7.19349398z"/>
  </g>
</svg>
