<svg xmlns="http://www.w3.org/2000/svg" width="113" height="79" viewBox="0 0 113 79">
  <g fill="none" fill-rule="evenodd" transform="translate(1.36)">
    <g transform="translate(31.165 22.68)">
      <path stroke="#333" stroke-linecap="round" stroke-width="2" d="M35.9168498,39.5384255 L40.4777196,43.7558575"/>
      <path stroke="#333" stroke-linecap="round" stroke-linejoin="round" stroke-width="2" d="M15.3929356,39.5384255 L10.8320658,43.7558575 L15.3929356,39.5384255 Z"/>
      <path stroke="#333" stroke-linecap="round" stroke-width="2" d="M2.51806325,19.797307 C2.22207839,21.1772855 2.06687573,22.6041185 2.06687573,24.0644714 C2.06687573,25.9189964 2.31716883,27.7194643 2.78822232,29.4385662 M48.3719109,29.9575882 C48.9394337,28.0830658 49.2429096,26.1065402 49.2429096,24.0644714 C49.2429096,22.5464694 49.0752115,21.0646859 48.7560118,19.634098"/>
      <ellipse cx="25.655" cy="23.723" fill="#FDF5AC" opacity=".596" rx="18.814" ry="17.397"/>
      <ellipse cx="27.935" cy="23.723" fill="#FEDB01" rx="18.814" ry="17.397"/>
      <path fill="#FD8503" d="M24.5146752,41.0885373 C34.374204,40.5435095 42.1880457,32.9770798 42.1880457,23.7230553 C42.1880457,14.4690308 34.374204,6.90260106 24.5146752,6.35757328 C24.8918615,6.33672269 25.2720416,6.32614808 25.6548927,6.32614808 C36.0453504,6.32614808 44.4684806,14.1150087 44.4684806,23.7230553 C44.4684806,33.3311018 36.0453504,41.1199625 25.6548927,41.1199625 C25.2720416,41.1199625 24.8918615,41.1093879 24.5146752,41.0885373 Z"/>
      <ellipse cx="25.655" cy="23.723" stroke="#333" stroke-linecap="round" stroke-width="2" rx="19.954" ry="18.451"/>
      <ellipse cx="17.103" cy="22.087" fill="#333" rx="2.28" ry="2.109"/>
      <ellipse cx="35.347" cy="22.087" fill="#333" rx="2.28" ry="2.109"/>
      <path stroke="#333" stroke-linecap="round" stroke-width="2" d="M21.1188102 42.7014995L29.1003324 42.7014995M22.2342403 1.58153702L29.075545 1.58153702M25.6548927 1.58153702L25.6548927 4.74461106"/>
      <path fill="#FF7B00" stroke="#333" stroke-width="2" d="M49.0231733,10.0341468 L49.0231733,8.88187801 C49.0231733,7.22502376 47.6800275,5.88187801 46.0231733,5.88187801 L42.6209988,5.88187801 C40.9641445,5.88187801 39.6209988,7.22502376 39.6209988,8.88187801 L39.6209988,10.0341468 L49.0231733,10.0341468 Z" transform="rotate(45 44.322 7.975)"/>
      <path fill="#FF7B00" stroke="#333" stroke-width="2" d="M11.0985493,10.067445 L11.0985493,8.88187801 C11.0985493,7.22502376 9.75540357,5.88187801 8.09854932,5.88187801 L4.6963748,5.88187801 C3.03952055,5.88187801 1.6963748,7.22502376 1.6963748,8.88187801 L1.6963748,10.067445 L11.0985493,10.067445 Z" transform="rotate(-45 6.397 7.975)"/>
      <path fill="#333" stroke="#333" d="M29.1456538,27.4133083 C29.1456538,27.1071449 28.8974592,26.8589503 28.5912958,26.8589503 L23.8587071,26.8589503 C23.5525436,26.8589503 23.3043491,27.1071449 23.3043491,27.4133083 C23.3043491,28.8749611 24.6036056,30.0763824 26.2250014,30.0763824 C27.8463972,30.0763824 29.1456538,28.8749611 29.1456538,27.4133083 Z"/>
      <path fill="#FF4500" d="M29.4327191,28.5143465 C28.9491803,29.7184314 27.6954424,30.5763824 26.2250014,30.5763824 C24.7545604,30.5763824 23.5008225,29.7184314 23.0172837,28.5143465 C23.3464531,27.8612674 24.0230879,27.4133083 24.8043491,27.4133083 L27.6456538,27.4133083 C28.426915,27.4133083 29.1035497,27.8612674 29.4327191,28.5143465 Z"/>
    </g>
    <g transform="rotate(-17 91.304 2.906)">
      <path fill="#FF7E33" d="M10.7980386,2.06185567 L12.6428772,2.06185567 C17.0562671,2.06185567 20.6340265,5.63961509 20.6340265,10.053005 L20.6340265,22.1412924 C20.6340265,26.5546823 17.0562671,30.1324418 12.6428772,30.1324418 L10.7980386,30.1324418 C6.38464868,30.1324418 2.80688926,26.5546823 2.80688926,22.1412924 L2.80688926,10.053005 C2.80688926,5.63961509 6.38464868,2.06185567 10.7980386,2.06185567 Z"/>
      <path fill="#FFF" d="M20.6340265,15.8500673 L20.6340265,22.1412924 C20.6340265,26.5546823 17.0562671,30.1324418 12.6428772,30.1324418 L10.7980386,30.1324418 C6.38464868,30.1324418 2.80688926,26.5546823 2.80688926,22.1412924 L2.80688926,15.4639175 L20.6340265,15.8500673 Z"/>
      <path stroke="#333" stroke-width="2" d="M10.7980386,1.68313066 C6.93693343,1.68313066 3.80688926,4.81317483 3.80688926,8.67427999 L3.80688926,22.1412924 C3.80688926,26.0023976 6.93693343,29.1324418 10.7980386,29.1324418 L12.6428772,29.1324418 C16.5039823,29.1324418 19.6340265,26.0023976 19.6340265,22.1412924 L19.6340265,8.67427999 C19.6340265,4.81317483 16.5039823,1.68313066 12.6428772,1.68313066 L10.7980386,1.68313066 Z"/>
      <path stroke="#333" stroke-linecap="round" stroke-width="2" d="M1.10809614,15.9793814 L22.3175954,15.9793814"/>
      <ellipse cx="8.366" cy="22.165" fill="#333" rx="1" ry="1" transform="matrix(1 0 0 -1 0 44.33)"/>
      <ellipse cx="15.058" cy="22.165" fill="#333" rx="1" ry="1" transform="matrix(1 0 0 -1 0 44.33)"/>
      <path fill="#333" stroke="#333" d="M12.4693293,23.1804124 L10.5404006,23.1804124 C10.5685479,23.6225289 10.9818637,23.9878833 11.5048649,23.9878833 C12.0278661,23.9878833 12.441182,23.6225289 12.4693293,23.1804124 Z" transform="matrix(1 0 0 -1 0 47.168)"/>
      <path fill="#FF4500" d="M12.871551,23.6237313 C12.6587151,24.1294649 12.1270551,24.4878833 11.5048649,24.4878833 C10.8826748,24.4878833 10.3510148,24.1294649 10.1381788,23.6237313 C10.288036,23.3319251 10.5920064,23.1322801 10.9426065,23.1322801 L12.0671233,23.1322801 C12.4177234,23.1322801 12.7216939,23.3319251 12.871551,23.6237313 Z" transform="matrix(1 0 0 -1 0 47.62)"/>
      <ellipse cx="8.366" cy="9.794" fill="#333" rx="1" ry="1"/>
      <ellipse cx="15.058" cy="9.794" fill="#333" rx="1" ry="1"/>
      <g transform="translate(10.039 10.31)">
        <path fill="#333" stroke="#333" d="M2.43045821,0.5 L0.501529526,0.5 C0.529676816,0.942116533 0.94299266,1.30747088 1.46599387,1.30747088 C1.98899508,1.30747088 2.40231092,0.942116533 2.43045821,0.5 Z"/>
        <path fill="#FF4500" d="M2.83267995,0.943318954 C2.61984403,1.44905248 2.088184,1.80747088 1.46599387,1.80747088 C0.843803733,1.80747088 0.312143701,1.44905248 0.0993077879,0.943318954 C0.249164927,0.651512711 0.55313539,0.45186772 0.90373544,0.45186772 L2.0282523,0.45186772 C2.37885234,0.45186772 2.68282281,0.651512711 2.83267995,0.943318954 Z"/>
      </g>
    </g>
    <path stroke="#333" stroke-linecap="round" stroke-width="2" d="M18.3934426 77.8350515L93.629204 77.8350515M100.8795 77.8350515L101.99493 77.8350515M105.34122 77.8350515L109.802941 77.8350515"/>
    <path stroke="#333" stroke-linecap="round" stroke-width="2" d="M10.5965861,77.8350515 L11.7120162,77.8350515" transform="matrix(-1 0 0 1 22.309 0)"/>
    <path stroke="#333" stroke-linecap="round" stroke-width="2" d="M2.78857529,77.8350515 L7.25029576,77.8350515" transform="matrix(-1 0 0 1 10.039 0)"/>
    <path stroke="#333" stroke-linecap="round" stroke-width="2" d="M71.3206017 55.7070053C75.9889236 55.552299 78.8223412 55.8840282 79.8208545 56.7021929 80.8193678 57.5203577 81.6869851 58.9568442 82.4237063 61.0116525M25.0825376 51.2735583C26.7545935 53.7908076 28.6303461 55.3940816 30.7097954 56.0833803 32.7892447 56.7726791 35.976136 56.58928 40.2704694 55.533183"/>
    <path stroke="#FF7B00" stroke-linecap="round" d="M35.7531526 0L35.7531526 2.06185567M38.3260169.787558786L37.1140886 2.45563506M39.9161345 2.84941446L37.9551933 3.4865629M39.9161345 5.39800822L37.9551933 4.76085978M38.3260169 7.45986389L37.1140886 5.79178762M35.7531526 8.24742268L35.7531526 6.18556701M33.1802883 7.45986389L34.3922167 5.79178762M31.5901708 5.39800822L33.551112 4.76085978M31.5901708 2.84941446L33.551112 3.4865629M33.1802883.787558786L34.3922167 2.45563506M91.9560588 48.4536082L91.9560588 49.7067895M93.5198275 48.9322809L92.783226 49.9461258M94.4862897 50.1854622L93.2944435 50.5727165M94.4862897 51.7344794L93.2944435 51.3472251M93.5198275 52.9876607L92.783226 51.9738157M91.9560588 53.4663333L91.9560588 52.2131521M90.3922901 52.9876607L91.1288916 51.9738157M89.4258279 51.7344794L90.6176741 51.3472251M89.4258279 50.1854622L90.6176741 50.5727165M90.3922901 48.9322809L91.1288916 49.9461258"/>
    <path stroke="#4A90E2" stroke-linecap="round" d="M93.629204,16.4948454 L98.0909245,16.4948454"/>
    <path stroke="#FEDB01" stroke-linecap="round" d="M96.9754943,71.1340206 L101.437215,71.1340206"/>
    <path stroke="#4A90E2" stroke-linecap="round" d="M95.8600642,14.4329897 L95.8600642,18.556701"/>
    <path stroke="#FEDB01" stroke-linecap="round" d="M99.2063546,69.0721649 L99.2063546,71.1340206"/>
    <path stroke="#7ED321" stroke-linecap="round" d="M13.3182356 17.5257732L17.7799561 17.5257732M15.5490958 15.4639175L15.5490958 17.5257732"/>
    <ellipse cx="101.437" cy="30.928" stroke="#7ED321" rx="1.115" ry="1.031"/>
    <ellipse cx="73.551" cy="9.278" stroke="#FEDB01" rx="2.231" ry="2.062"/>
    <ellipse cx="11.969" cy="65.062" stroke="#FEDB01" rx="2.231" ry="2.062"/>
    <ellipse cx="1.082" cy="46" stroke="#4A90E2" rx="1.082" ry="1"/>
  </g>
</svg>
