<svg xmlns="http://www.w3.org/2000/svg" width="46" height="46" viewBox="0 0 46 46">
  <g fill="none" fill-rule="evenodd">
    <circle cx="23" cy="23" r="23" fill="#FD7E70"/>
    <g transform="translate(9 8)">
      <path fill="#FFF" d="M16.061678,28.9419989 C15.6634289,28.9415392 15.2743024,28.8231571 14.9433062,28.6018093 C13.6675865,27.7513177 14.2501624,26.2246901 14.4457688,25.7271881 C14.7731937,24.8767319 15.9936472,21.402527 16.3848599,20.2841197 C15.3515266,19.5994975 12.1112219,17.4392708 11.5498967,16.9502903 C10.6781543,16.1891157 11.0013362,14.7220328 11.158684,14.0204029 C11.3160319,13.3187376 13.4124355,10.1677499 14.4967919,8.55184065 L12.4428899,8.12661254 C12.0942142,8.36047739 11.2692518,8.8962733 10.3422432,9.40229688 L9.93826591,9.61918938 C8.85815257,10.2102515 7.63769909,10.8949091 6.82125829,9.86581885 C6.55984872,9.50338844 6.5174532,9.02706648 6.71069049,8.62411458 C6.8447367,8.27748967 7.0641397,7.97036083 7.34856802,7.7311214 C7.39106961,7.69710598 11.6476999,4.36324121 12.4216391,4.36324121 C12.9148981,4.36324121 16.2189905,5.103165 17.2225868,5.32854368 C17.2787017,5.34152045 17.3320231,5.36457456 17.3798639,5.39657452 L20.9603936,7.78214453 C21.0439824,7.83755219 21.1080176,7.91788798 21.1432706,8.01180166 L22.6358475,12.0430533 C23.1461495,12.1153272 24.2730075,12.2599104 25.2595608,12.3151766 C25.9654692,12.3577136 27.6196369,12.4555168 27.6196369,13.905592 C27.6196369,15.0026777 26.87547,15.6575629 25.6295227,15.6575629 C25.450924,15.6575629 21.2325169,15.6575629 20.5691809,14.8496083 C20.2672852,14.4881679 19.3700135,12.9572972 18.8427392,12.0387748 L16.5804662,15.5257443 C17.3628916,16.0530187 19.1319056,17.2266921 19.8292924,17.6519203 C20.8754257,18.3142663 21.2949964,19.6321693 20.8242965,20.7774141 C20.7392933,20.9942712 20.5606593,21.4663147 20.3352806,22.0531338 C19.7229677,23.7030584 18.7916807,26.1949178 18.2644063,27.3090466 C17.9735073,28.0574565 17.3614065,28.635259 16.5974386,28.8824542 C16.4223405,28.9261934 16.2421153,28.9462066 16.061678,28.9419989"/>
      <path fill="#FFF" stroke="#FFF" stroke-width="1.5" d="M21.6436243 5.94418234C23.0696496 5.94193098 24.225109 4.78629005 24.2270506 3.36123659 24.2270506 1.9347265 23.070624.778290788 21.6441428.778290788 20.2176281.778290788 19.061197 1.93472195 19.061197 3.36123659 19.061197 4.78757839 20.2173479 5.94390216 21.6436243 5.94418234zM21.6436243 5.94418234C21.6437971 5.94418237 21.6439699 5.94418239 21.6441428 5.94418239L21.6431058 5.94418311C21.6432786 5.94418287 21.6434515 5.94418261 21.6436243 5.94418234zM8.38043278 22.7085573L10.7126001 19.559942C9.91768633 19.1862135 9.27756107 18.5530152 8.90066816 17.782245L7.35698658 20.2708304 6.93964075 20.2708304 1.91822569 20.2695869C1.25335628 20.3079202.738436267 20.8661438.752320646 21.5993342.732804148 21.8908696.836844626 22.1772313 1.03896429 22.3882888 1.24108128 22.5993427 1.52266703 22.7156492 1.83251888 22.7085573L8.38043278 22.7085573z" transform="translate(0 .007)"/>
    </g>
  </g>
</svg>
