<?xml version="1.0" encoding="UTF-8"?>
<svg width="46px" height="46px" viewBox="0 0 46 46" version="1.1" xmlns="http://www.w3.org/2000/svg" xmlns:xlink="http://www.w3.org/1999/xlink">
    <!-- Generator: Sketch 52.1 (67048) - http://www.bohemiancoding.com/sketch -->
    <title>height</title>
    <desc>Created with Sketch.</desc>
    <g id="Page-1" stroke="none" stroke-width="1" fill="none" fill-rule="evenodd">
        <g id="iPad_1_1_1_Home-Page-" transform="translate(-429.000000, -779.000000)">
            <g id="Group-3-Copy-7" transform="translate(405.000000, 634.000000)">
                <g id="Group-44-Copy-4" transform="translate(12.000000, 104.000000)">
                    <g id="height" transform="translate(12.000000, 41.000000)">
                        <circle id="Oval-3" fill="#589CEB" cx="23" cy="23" r="23"></circle>
                        <g id="Group" transform="translate(17.000000, 7.000000)" fill="#FFFFFF" fill-rule="nonzero">
                            <path d="M6.20056099,0.00539034993 C4.09907087,0.00539034993 2.39422758,1.71554106 2.39422758,3.81172376 C2.39422758,5.91321387 4.10437829,7.62344751 6.20595134,7.62344751 C8.30752438,7.62344751 10.0176751,5.9132968 10.0176751,3.81172376 C10.0175922,1.71554106 8.30205111,0.00539034993 6.20056099,0.00539034993 Z M6.20056099,5.81668515 C5.09620268,5.81668515 4.20090702,4.92138949 4.20090702,3.81703118 C4.20090702,2.71267287 5.09620268,1.81737721 6.20056099,1.81737721 C7.3049193,1.81737721 8.20021496,2.71267287 8.20021496,3.81703118 C8.20560531,4.92138949 7.31030965,5.81668515 6.20056099,5.81668515 Z" id="Shape"></path>
                            <path d="M9.36892575,8.51335282 L8.31274888,8.51335282 C7.94819536,8.51335282 7.6158181,8.73850359 7.4818057,9.07088086 L6.21125876,12.158805 L4.93532147,9.07088086 C4.79591873,8.73311324 4.46893181,8.51335282 4.10437829,8.51335282 L3.042894,8.51335282 C1.36491953,8.51335282 0.0031512815,9.88042849 0.0031512815,11.5530955 L0.0031512815,22.3395175 C0.0031512815,22.8380834 0.405188458,23.2455109 0.909144712,23.2455109 L1.41310097,23.2455109 L1.41310097,31.6516372 C1.41310097,32.1502031 1.81513814,32.5576306 2.3190944,32.5576306 L10.1033402,32.5576306 C10.6019061,32.5576306 11.0093336,32.1555935 11.0093336,31.6516372 L11.0093336,23.245428 L11.5078995,23.245428 C12.0064654,23.245428 12.413893,22.8433908 12.413893,22.3394345 L12.413893,11.558403 C12.4139759,9.88034556 11.0469002,8.51335282 9.36892575,8.51335282 Z M9.19734676,30.7508683 L7.11725219,30.7508683 L7.11725219,26.5478051 C7.11725219,26.0492392 6.71521501,25.6418117 6.21125876,25.6418117 C5.71269286,25.6418117 5.30526533,26.0438489 5.30526533,26.5478051 L5.30526533,30.7508683 L3.22517076,30.7508683 L3.22517076,23.245428 L9.20273711,23.245428 L9.20273711,30.7508683 L9.19734676,30.7508683 Z M1.8045233,21.4387485 L1.8045233,11.558403 C1.8045233,10.8775603 2.35674392,10.3253397 3.03758658,10.3253397 L3.49327847,10.3253397 L5.36961781,14.887566 C5.67520919,15.6059753 6.72060536,15.6541567 7.04228486,14.887566 L8.91862421,10.3306471 L9.3743161,10.3306471 C10.0551588,10.3306471 10.6073794,10.8828677 10.6073794,11.5637104 L10.6073794,21.4440559 L1.8045233,21.4440559 L1.8045233,21.4387485 Z" id="Shape"></path>
                        </g>
                    </g>
                </g>
            </g>
        </g>
    </g>
</svg>