<?xml version="1.0" encoding="UTF-8"?>
<svg width="46px" height="46px" viewBox="0 0 46 46" version="1.1" xmlns="http://www.w3.org/2000/svg" xmlns:xlink="http://www.w3.org/1999/xlink">
    <!-- Generator: Sketch 52.1 (67048) - http://www.bohemiancoding.com/sketch -->
    <title>Water</title>
    <desc>Created with Sketch.</desc>
    <g id="Page-1" stroke="none" stroke-width="1" fill="none" fill-rule="evenodd">
        <g id="iPad_1_1_1_Home-Page-" transform="translate(-120.000000, -575.000000)">
            <g id="Group-3-Copy-5" transform="translate(96.000000, 430.000000)">
                <g id="Group-45" transform="translate(12.000000, 104.000000)">
                    <g id="Water" transform="translate(12.000000, 41.000000)">
                        <circle id="Oval-2" fill="#589CEB" cx="23" cy="23" r="23"></circle>
                        <g id="400ML" transform="translate(15.000000, 6.000000)">
                            <circle id="Oval" fill="#FFFFFF" cx="4.88232582" cy="13.8332565" r="1"></circle>
                            <circle id="Oval-Copy" fill="#FFFFFF" cx="11.8920936" cy="16.7744194" r="1"></circle>
                            <circle id="Oval-Copy-3" fill="#FFFFFF" cx="7.00976775" cy="24.9116291" r="1"></circle>
                            <circle id="Oval-Copy-2" fill="#FFFFFF" cx="8.95093066" cy="20.3430242" r="1"></circle>
                            <path d="M6,4.25488388 C3.23857625,4.25488388 1,6.49346013 1,9.25488388 L1,30.9900017 C1,32.6468559 2.34314575,33.9900017 4,33.9900017 L12.2744194,33.9900017 C13.9312736,33.9900017 15.2744194,32.6468559 15.2744194,30.9900017 L15.2744194,9.25488388 C15.2744194,6.49346013 13.0358431,4.25488388 10.2744194,4.25488388 L6,4.25488388 Z" id="Rectangle-4-Copy-2" stroke="#FFFFFF" stroke-width="2"></path>
                            <g id="Group" transform="translate(4.068605, 0.000000)" stroke="#FFFFFF">
                                <path d="M0.999984831,1.48366079 C0.999964182,1.48366697 0.999950037,1.48368597 0.999950037,1.48368208 L0.999998828,3.40100407 C0.999998828,3.40100377 0.999992454,3.40099408 1.00001564,3.40100407 C1.9344513,3.80345354 3.01380022,3.98019447 4.24797822,3.92446679 C5.44214285,3.87054587 6.40647084,3.69099703 7.13719081,3.3967404 C7.13718474,3.39674285 7.13718077,3.39674873 7.13718077,3.39674691 L7.1371968,1.48046532 C7.1371968,1.4804645 7.13720166,1.48047109 7.13718294,1.48046532 C6.09969684,1.16032682 5.04045958,1.01354845 3.95528969,1.03954497 C2.88561205,1.06517036 1.90111492,1.21380155 0.999984831,1.48366079 Z" id="Rectangle-5" stroke-width="2" fill="#FFFFFF"></path>
                                <path d="M7.25721987,0.994282245 C6.17687314,0.664063603 5.07291773,0.512627428 3.94331504,0.539688388 C2.83794505,0.566168825 1.81582604,0.719513618 0.876069863,0.998852112 C1.86556137,1.41036596 2.99551396,1.58890652 4.27053208,1.53133477 C5.48219213,1.47662386 6.47833198,1.29593491 7.25721987,0.994282245 Z" id="Combined-Shape"></path>
                            </g>
                        </g>
                    </g>
                </g>
            </g>
        </g>
    </g>
</svg>