<?xml version="1.0" encoding="UTF-8"?>
<svg width="46px" height="46px" viewBox="0 0 46 46" version="1.1" xmlns="http://www.w3.org/2000/svg" xmlns:xlink="http://www.w3.org/1999/xlink">
    <!-- Generator: Sketch 52.1 (67048) - http://www.bohemiancoding.com/sketch -->
    <title>Blood Glucose</title>
    <desc>Created with Sketch.</desc>
    <defs>
        <circle id="path-1" cx="23" cy="23" r="23"></circle>
        <rect id="path-3" x="0" y="0" width="10.6451613" height="2.17241379"></rect>
        <path d="M20.2565445,13.7763707 C24.1312925,12.5705287 29.6710008,8.97021577 30,0.0269944726 C30.0019726,-0.0266278267 -0.000241931066,0.0139863011 5.68434189e-14,0.0269944726 C0.135852445,7.33152101 4.31620936,12.1844024 9.71900202,13.7763707 C10.7624474,14.0838287 19.3287325,14.0651107 20.2565445,13.7763707 Z" id="path-5"></path>
    </defs>
    <g id="Page-1" stroke="none" stroke-width="1" fill="none" fill-rule="evenodd">
        <g id="iPad_1_1_1_Home-Page-" transform="translate(-118.000000, -351.000000)">
            <g id="Group-3" transform="translate(94.000000, 206.000000)">
                <g id="someday" transform="translate(12.000000, 104.000000)">
                    <g id="head-copy-3">
                        <g id="Blood-Glucose" transform="translate(12.000000, 41.000000)">
                            <g id="Path-40">
                                <mask id="mask-2" fill="white">
                                    <use xlink:href="#path-1"></use>
                                </mask>
                                <use id="Mask" fill="#FDB29B" xlink:href="#path-1"></use>
                            </g>
                            <g id="Group-14-Copy" transform="translate(8.000000, 11.000000)">
                                <g id="Rectangle-25-Copy" transform="translate(10.000000, 24.000000)">
                                    <mask id="mask-4" fill="white">
                                        <use xlink:href="#path-3"></use>
                                    </mask>
                                    <use id="Mask" fill="#034751" xlink:href="#path-3"></use>
                                    <rect fill="#013A42" mask="url(#mask-4)" x="6.29032258" y="0" width="4.35483871" height="2.17241379"></rect>
                                </g>
                                <g id="Group-13" transform="translate(3.000000, 0.000000)" fill="#EBEBEB">
                                    <path d="M0.577559005,1.51081375 L4.03838324,1.51081375 C4.31452562,1.51081375 4.53838324,1.73467137 4.53838324,2.01081375 L4.53838324,3.08094285 C4.53838324,3.35708523 4.31452562,3.58094285 4.03838324,3.58094285 L0.577559005,3.58094285 C0.301416631,3.58094285 0.0775590055,3.35708523 0.0775590055,3.08094285 L0.0775590055,2.01081375 C0.0775590055,1.73467137 0.301416631,1.51081375 0.577559005,1.51081375 Z" id="Rectangle-29" transform="translate(2.307971, 2.545878) rotate(50.000000) translate(-2.307971, -2.545878) "></path>
                                    <path d="M10.0504427,10.862069 L8.11436925,10.862069 L2.66263745,4.12974086 L3.8319403,3.18285808 L10.0504427,10.862069 Z" id="Combined-Shape"></path>
                                </g>
                                <g id="Path-41" transform="translate(0.000000, 10.000000)">
                                    <mask id="mask-6" fill="white">
                                        <use xlink:href="#path-5"></use>
                                    </mask>
                                    <use id="Mask" fill="#045464" xlink:href="#path-5"></use>
                                    <path d="M25.8119645,0 L30.7528588,0 L28.967167,14.0353583 L15.7258065,13.8349946 C20.3207759,11.4854823 23.1966343,8.90358009 24.3533817,6.08928812 C25.3317556,3.70896754 25.8179498,1.67920483 25.8119645,0 Z" fill="#014A58" mask="url(#mask-6)"></path>
                                </g>
                            </g>
                        </g>
                    </g>
                </g>
            </g>
        </g>
    </g>
</svg>