<?xml version="1.0" encoding="UTF-8"?>
<svg width="46px" height="46px" viewBox="0 0 46 46" version="1.1" xmlns="http://www.w3.org/2000/svg" xmlns:xlink="http://www.w3.org/1999/xlink">
    <!-- Generator: Sketch 52.1 (67048) - http://www.bohemiancoding.com/sketch -->
    <title>Temperature</title>
    <desc>Created with Sketch.</desc>
    <g id="Page-1" stroke="none" stroke-width="1" fill="none" fill-rule="evenodd">
        <g id="iPad_1_1_1_Home-Page-" transform="translate(-429.000000, -222.000000)">
            <g id="Group-3-Copy-2" transform="translate(405.000000, 77.000000)">
                <g id="Group-44-Copy-3" transform="translate(12.000000, 104.000000)">
                    <g id="Temperature" transform="translate(12.000000, 41.000000)">
                        <circle id="Oval-3" fill="#FF7B00" opacity="0.600996377" cx="23" cy="23" r="23"></circle>
                        <path d="M27.0018541,23.5615817 L27.0018541,12.3494018 C27.0018541,9.95106471 25.0225587,8 22.6066131,8 C20.1915946,8 18.2122991,9.95106471 18.2122991,12.3494018 L18.2122991,23.5588207 C16.236712,24.9549364 15,27.2097045 15,29.5758307 C15,33.6693853 18.3300371,37 22.421199,37 C26.5939431,37 30,33.6693853 30,29.5758307 C29.9990729,27.1130716 28.8782447,24.9070801 27.0018541,23.5615817 Z M22.4230532,34.9256133 C19.4851669,34.9256133 17.0942522,32.5254356 17.0942522,29.5758307 C17.0942522,28.4705341 17.4715698,27.3974485 18.1362794,26.5038241 L22.0902349,26.5038241 C22.3785538,26.5038241 22.6131026,26.2516582 22.6131026,25.9645203 C22.6131026,25.6783028 22.3794808,25.4252166 22.0902349,25.4252166 L19.1940667,25.4252166 C19.3850433,25.2770461 19.5741656,25.1399194 19.7864648,25.0147568 L20.2870828,24.7138142 L20.2870828,23.2680017 L22.0902349,23.2680017 C22.3785538,23.2680017 22.6131026,23.0646124 22.6131026,22.7774745 C22.6131026,22.491257 22.3794808,22.2869474 22.0902349,22.2869474 L20.2870828,22.2869474 L20.2870828,21.3068135 L22.0902349,21.3068135 C22.3785538,21.3068135 22.6131026,21.1034242 22.6131026,20.8162864 C22.6131026,20.5300689 22.3794808,20.3257593 22.0902349,20.3257593 L20.2870828,20.3257593 L20.2870828,19.1495986 L22.0902349,19.1495986 C22.3785538,19.1495986 22.6131026,18.9462093 22.6131026,18.6590714 C22.6131026,18.3719336 22.3794808,18.1685443 22.0902349,18.1685443 L20.2870828,18.1685443 L20.2870828,17.1884104 L22.0902349,17.1884104 C22.3785538,17.1884104 22.6131026,16.9850211 22.6131026,16.6978833 C22.6131026,16.4116658 22.3794808,16.2073562 22.0902349,16.2073562 L20.2870828,16.2073562 L20.2870828,15.0321158 L22.0902349,15.0321158 C22.3785538,15.0321158 22.6131026,14.8287265 22.6131026,14.5415887 C22.6131026,14.2544508 22.3794808,14.0510615 22.0902349,14.0510615 L20.2870828,14.0510615 L20.2870828,12.3484815 C20.2870828,11.0940941 21.3448702,10.0734664 22.6075402,10.0734664 C23.8711372,10.0734664 24.9289246,11.0940941 24.9289246,12.3484815 L24.9289246,24.7128939 L25.4239802,25.0138364 C27.0092707,25.9461141 27.9103832,27.6082003 27.9103832,29.5749103 C27.9094561,32.5254356 25.4434487,34.9256133 22.4230532,34.9256133 Z M19.0948702,28.8561455 C18.9817676,29.248199 18.9048208,29.5795119 18.9048208,29.9632827 C18.9048208,31.9327536 20.513288,33.5359398 22.4962917,33.5359398 C24.4802225,33.5359398 26.0877627,31.9281521 26.0877627,29.9596014 C26.0877627,29.5758307 26.0108158,29.2491194 25.8977132,28.8561455 L19.0948702,28.8561455 Z" id="Shape" fill="#FFFFFF" fill-rule="nonzero"></path>
                    </g>
                </g>
            </g>
        </g>
    </g>
</svg>