<?xml version="1.0" encoding="UTF-8"?>
<svg width="46px" height="46px" viewBox="0 0 46 46" version="1.1" xmlns="http://www.w3.org/2000/svg" xmlns:xlink="http://www.w3.org/1999/xlink">
    <!-- Generator: Sketch 52.1 (67048) - http://www.bohemiancoding.com/sketch -->
    <title>weight</title>
    <desc>Created with Sketch.</desc>
    <g id="Page-1" stroke="none" stroke-width="1" fill="none" fill-rule="evenodd">
        <g id="iPad_1_1_1_Home-Page-" transform="translate(-738.000000, -779.000000)">
            <g id="Group-3-Copy-8" transform="translate(714.000000, 634.000000)">
                <g id="Group-44-Copy" transform="translate(12.000000, 104.000000)">
                    <g id="weight" transform="translate(12.000000, 41.000000)">
                        <circle id="Oval-3" fill="#6BCE81" cx="23" cy="23" r="23"></circle>
                        <g id="体重_1" transform="translate(11.000000, 11.000000)">
                            <path d="M20.6967496,0.00968522034 L3.30325043,0.00968522034 C1.48876661,0.00968522034 0.016142063,1.48606649 0.016142063,3.29679359 L0.016142063,21.5167657 C0.016142063,23.3274929 1.48876661,24.8038741 3.30325043,24.8038741 L20.6967496,24.8038741 C22.5074767,24.8038741 23.9838579,23.3312496 23.9838579,21.5167657 L23.9838579,3.29679359 C23.9838579,1.48606646 22.5112334,0.00968522034 20.6967496,0.00968522034 Z" id="Path" stroke="#FFFFFF" stroke-width="2"></path>
                            <path d="M20.4412943,6.17066548 C20.2684863,6.07674811 16.1736884,3.82648762 11.9812165,3.82648762 C7.78874458,3.82648762 3.69770342,6.07674811 3.52489546,6.17066548 C3.18679287,6.35850023 3.04779516,6.77173674 3.19806296,7.12486608 L5.1628146,11.6854942 C5.24546188,11.8808423 5.41075647,12.0311101 5.61361801,12.0987307 C5.69250863,12.1250275 5.77515591,12.1400543 5.85404653,12.1400543 C5.98177418,12.1400543 6.1095018,12.106244 6.22220266,12.0423802 C6.24474285,12.0273534 8.63024435,10.7125101 11.9849732,10.7125101 C15.3021352,10.7125101 17.7064201,12.01984 17.7477438,12.0423802 C17.9318219,12.1475677 18.1534669,12.1663512 18.3563284,12.0987307 C18.5591899,12.0311101 18.7207278,11.8808423 18.8071319,11.6854942 L20.7718835,7.12486608 C20.9183946,6.77173674 20.7793969,6.35850023 20.4412943,6.17066548 Z M17.732717,10.3781642 C16.6808423,9.92736076 14.5996331,9.21358867 11.9849732,9.21358867 C11.4477658,9.21358867 10.9330985,9.24364222 10.4447281,9.29623598 L9.68211902,6.76046664 C9.56190477,6.36225693 9.14491159,6.13685523 8.74670188,6.25706949 C8.34849216,6.37728375 8.12309047,6.79427692 8.24330473,7.19248661 L8.94956342,9.53290777 C7.77371779,9.78084965 6.83830068,10.1227089 6.23722942,10.3781642 L4.86227895,7.18121651 C6.10198841,6.58390196 9.06977768,5.32916574 11.9812165,5.32916574 C14.8926554,5.32916574 17.8642013,6.58390196 19.1039108,7.17745982 L17.732717,10.3781642 Z" id="Shape" fill="#FFFFFF" fill-rule="nonzero"></path>
                            <path d="M5.8,15.4 L5.8,20.6 L18.2,20.6 L18.2,15.4 L5.8,15.4 Z" id="Rectangle-3" stroke="#FFFFFF" stroke-width="2" fill="#FFFFFF"></path>
                        </g>
                    </g>
                </g>
            </g>
        </g>
    </g>
</svg>