<svg xmlns="http://www.w3.org/2000/svg" width="180" height="147" viewBox="0 0 180 147">
  <g fill="none" fill-rule="evenodd">
    <g fill-rule="nonzero">
      <path fill="#FEDEBB" d="M167.974625,144.680693 L178.532551,144.680693"/>
      <path fill="#A1A1A9" d="M178.532551,146.019606 L167.974419,146.019606 C167.23477,146.019606 166.635507,145.420342 166.635507,144.680693 C166.635507,143.941045 167.23477,143.341781 167.974419,143.341781 L178.532551,143.341781 C179.272199,143.341781 179.871463,143.941045 179.871463,144.680693 C179.871463,145.420342 179.272199,146.019606 178.532551,146.019606 Z"/>
      <path fill="#FEDEBB" d="M147.437217,144.680693 L157.561207,144.680693"/>
      <path fill="#A1A1A9" d="M157.561207,146.019606 L147.437217,146.019606 C146.697775,146.019606 146.098305,145.420342 146.098305,144.680693 C146.098305,143.941045 146.697775,143.341781 147.437217,143.341781 L157.561207,143.341781 C158.30065,143.341781 158.900119,143.941045 158.900119,144.680693 C158.900119,145.420342 158.300649,146.019606 157.561207,146.019606 Z"/>
      <path fill="#FEDEBB" d="M27.9722358,144.680693 L135.866707,144.680693"/>
      <path fill="#A1A1A9" d="M135.866913,146.019606 L27.972442,146.019606 C27.2329996,146.019606 26.6335299,145.420342 26.6335299,144.680693 C26.6335299,143.941045 27.2329998,143.341781 27.972442,143.341781 L135.866913,143.341781 C136.606374,143.341781 137.205825,143.941233 137.205825,144.680693 C137.205825,145.420154 136.606374,146.019606 135.866913,146.019606 L135.866913,146.019606 Z"/>
      <path fill="#FEDEBB" d="M4.97613572,144.680693 L15.6787751,144.680693"/>
      <path fill="#A1A1A9" d="M15.6789812 146.019606L4.97634188 146.019606C4.23689947 146.019606 3.63742973 145.420342 3.63742973 144.680693 3.63742973 143.941045 4.23689967 143.341781 4.97634188 143.341781L15.6789812 143.341781C16.418442 143.341781 17.0178935 143.941233 17.0178935 144.680693 17.0178935 145.420154 16.418442 146.019606 15.6789812 146.019606L15.6789812 146.019606zM5.32699465 77.0003831C5.32699465 78.4172182 4.17794203 79.5675076 2.75945783 79.5675076 1.34056129 79.5675076.191714838 78.4172182.191714838 77.0003831.191714838 75.5810745 1.34076746 74.4332587 2.75945783 74.4332587 4.17794203 74.4332587 5.32699465 75.5810743 5.32699465 77.0003831zM41.2184994 84.021684C41.2186088 84.4815159 41.0359475 84.9225367 40.7107392 85.247629 40.3855309 85.5727213 39.9444449 85.7552253 39.4846131 85.7549522 39.0247266 85.7552799 38.5835665 85.5728066 38.258281 85.2477144 37.9329954 84.9226221 37.7502599 84.4815706 37.7503147 84.021684 37.7503147 83.0633156 38.5264508 82.2859426 39.4846131 82.2859426 40.442363 82.2861488 41.2184994 83.0633158 41.2184994 84.021684L41.2184994 84.021684zM129.657618 18.567328C129.657618 19.4147904 128.968475 20.1039334 128.121012 20.1039334 127.27355 20.1039334 126.584407 19.4147904 126.584407 18.567328 126.584407 17.7198655 127.27355 17.0327842 128.121012 17.0327842 128.968475 17.0329904 129.657618 17.7198657 129.657618 18.567328zM114.671696 4.21509639C113.556451 4.21509639 112.652505 3.31094414 112.652505 2.19714245 112.652505 1.08292842 113.556451.179188276 114.671696.179188276 115.786735.178982143 116.68965 1.08292822 116.68965 2.19714245 116.68965 3.31115031 115.786941 4.21509639 114.671696 4.21509639zM161.610434 74.305114C161.610434 75.5774412 160.577648 76.6100219 159.304908 76.6100219 158.031962 76.6100219 157 75.5774412 157 74.305114 157 73.0329928 158.031962 72 159.304908 72 160.577441 72 161.610434 73.0327867 161.610434 74.305114z"/>
    </g>
    <path fill="#E9EAEB" stroke="#979797" stroke-width="2" d="M116.985677 46.4122869C116.754222 46.4634319 107.066328 48.3075616 107.060652 49.014678 107.037259 52.3598035 109.212284 57.1451263 108.967803 60.4706439 108.549045 66.1682992 111.237894 71.335592 113.043324 76.6454782 113.61963 78.3405283 112.94849 82.0980237 114.871567 81.9923059 117.583346 81.8443558 129.729606 81.9923059 133.251065 81.9923059 128.41355 71.2263659 121.546489 56.562568 116.985677 46.4122869zM54.9861511 81.6851326C55.715892 81.6220584 64.5765294 78.3208958 64.8964252 77.4326468 66.7639694 72.2493203 69.3817772 65.7797283 68.9754972 60.1622869 68.7044153 56.4089618 63.3094041 53.3147742 63.2930871 49.5414299 63.2907561 48.7305153 64.9475701 47.7973399 64.8964252 46.986014 64.6760769 46.9430961 59.4411698 47.0297546 59.2208215 46.986014 54.7845127 57.5532703 48.4389542 70.5511685 43.7659801 81.6851326 47.5626344 81.6851326 52.0305773 81.9368808 54.9861511 81.6851326z"/>
    <path fill="#CCC" stroke="#979797" stroke-width="2" d="M120.616207,82.1330745 C119.264774,77.2043279 117.940626,69.7394302 116.655421,65.7209991 C116.416974,64.9768767 59.9944516,65.0812581 59.8064631,65.7209991 C58.5843323,69.8828058 56.0434219,77.1571604 54.7898911,82.0838636 C59.1477685,82.0838636 63.9044289,82.253292 67.6448649,82.0896531 C70.0577266,81.9845906 61.2746469,85.2377385 61.3914713,88.6429924 C61.7583985,99.3263422 79.2542164,105.197122 88.2152749,105.181827 C96.9954751,105.164939 113.283544,101.092643 113.675426,90.5511364 C113.798421,87.2586076 113.539793,86.0118763 116.035748,86.1356696 C119.786057,86.3234882 116.879025,82.1330745 121.454782,82.1330745"/>
    <path fill="#E9EAEB" stroke="#979797" stroke-width="2" d="M88.208419,65.8818045 C96.8018648,65.8852324 105.396133,65.8262718 113.988345,65.9251337 C116.189085,65.951049 117.046346,65.3379953 116.978061,63.0207048 C116.829974,57.9558481 116.886466,52.8822158 116.95242,47.8122858 C116.975045,46.0782943 116.400521,45.3625394 114.583299,45.3664994 C96.9668175,45.4088852 79.3508844,45.4054573 61.7342657,45.3680241 C60.0052105,45.3640477 59.2579186,45.9112848 59.2846565,47.7333059 C59.3606198,52.9744961 59.3751543,58.2174688 59.2776635,63.4572878 C59.2396819,65.4570136 60.1116139,65.9212944 61.9132044,65.9085424 C70.6773619,65.8505416 79.4439874,65.8818045 88.208419,65.8818045"/>
    <path fill="#CCC" d="M11 132.983228C13.4245167 133.437637 15.413273 134.032728 17.4188948 134.096076 18.5014397 134.131453 19.9241739 133.534167 20.6439051 132.730657 21.9787467 131.235662 23.2926094 130.764388 25.1704374 131.401986 34.0944742 134.428587 39.7697792 127.569818 43.2698478 121.278031 42.0102838 121.375385 40.9306184 121.360439 39.8903058 121.553775 35.3652818 122.392936 31.0545729 121.716945 26.7961059 120.074686 26.1447964 119.82376 24.7226107 120.239913 24.3512958 120.804564 21.1731798 125.640708 17.3089264 129.639474 11.8802962 131.929478 11.6805156 132.01408 11.5643768 132.294897 11 132.983228M37.7537365 28.5957768C35.3955848 22.9145756 34.8155766 17.3610311 34.7082134 11.6641985 34.6807898 10.2236391 32.8628822 8.81626217 31.752091 7.22967229 28.6082545 13.0654052 31.0431921 26.9284245 37.7537365 28.5957768M149 106.14082C151.160565 105.665158 153.267105 105.542712 155.043466 104.714932 156.846428 103.8744 158.323872 102.336487 160.081585 101 158.533937 106.679419 155.258878 110.211024 150.77403 111.125874 150.159605 109.397093 149.540107 107.657617 149 106.14082M57.9775127 24.8584944C58.3419718 26.5967366 58.5081585 28.020979 58.9565337 29.3506102 59.4183464 30.7231592 60.3229124 31.9572193 60.7061566 33.3432058 60.9236254 34.130399 60.4838887 35.0992733 60.2773893 36.3676128 57.1181955 32.7795146 56.1713972 28.1112025 57.9775127 24.8584944"/>
    <path fill="#F1F1F1" stroke="#979797" stroke-width="2" d="M88.4489236,114.874537 C102.359249,114.877005 116.269299,114.811189 130.180036,114.933224 C132.830385,114.956808 133.526532,114.103661 133.489648,111.552996 C133.355821,102.367613 133.36967,93.1775675 133.482655,83.9913616 C133.511449,81.6253942 132.744961,80.8768682 130.397916,80.9206088 C123.616893,81.0478541 116.82874,81.0832305 110.050048,80.9027835 C107.548608,80.8360071 106.630468,81.6583025 106.230769,84.0799397 C104.912793,92.0549842 98.9699712,97.7855478 90.9744961,99.1039353 C81.2473605,100.709585 71.7335801,94.1661868 70.080351,84.4374057 C69.6044152,81.6388318 68.5679419,80.810229 65.788153,80.8972988 C59.182778,81.1050322 52.5661593,81.026738 45.9552996,80.9340463 C43.9280132,80.9052516 43.2719046,81.6186754 43.2876731,83.6192239 C43.361991,93.1502811 43.3767997,102.682161 43.2794245,112.21267 C43.256136,114.468669 44.2070479,114.914027 46.2029343,114.906211 C60.2853421,114.847251 74.3662416,114.874674 88.4489236,114.874674"/>
    <path fill="#999" fill-rule="nonzero" d="M73.6363636,101.665662 C73.6363636,103.071427 74.7760226,104.210891 76.1815923,104.210891 C77.5873566,104.210891 78.726821,103.071427 78.726821,101.665662 C78.726821,100.260676 77.5873566,99.1212121 76.1815923,99.1212121 C74.7761199,99.1212121 73.6363636,100.260774 73.6363636,101.665662 Z M97.5205367,101.665662 C97.5204371,102.57487 98.0051592,103.415139 98.7922751,103.870229 C99.5798253,104.32469 100.549953,104.32469 101.337504,103.870229 C102.124965,103.415357 102.610074,102.57506 102.610215,101.665662 C102.610215,100.260676 101.470556,99.1212121 100.064987,99.1212121 C98.6592224,99.1212121 97.5205367,100.260774 97.5205367,101.665662 Z"/>
    <path stroke="#999" stroke-linecap="round" stroke-width="2" d="M83.5,107.5 C84.6389974,108.579753 86.1682943,109.135254 88.0878906,109.166504 C90.007487,109.197754 91.5367839,108.642253 92.6757812,107.5"/>
  </g>
</svg>
