<svg xmlns="http://www.w3.org/2000/svg" width="30" height="30" viewBox="0 0 30 30">
  <g fill="none">
    <rect width="30" height="30"/>
    <rect width="22" height="22" x="4" y="4" fill="#FF4500" rx="6"/>
    <g fill="#FFF" transform="translate(8 8)">
      <path d="M2.83660131 1.77272726C2.83660131 1.98383875 2.94996406 2.17891381 3.13398692 2.28446956 3.31800979 2.3900253 3.54473531 2.3900253 3.72875818 2.28446956 3.91278104 2.17891381 4.02614379 1.98383875 4.02614379 1.77272726 4.02614379 1.44637719 3.75985564 1.18181818 3.43137255 1.18181818 3.10288946 1.18181818 2.83660131 1.44637719 2.83660131 1.77272726L2.83660131 1.77272726zM9.51633987 1.5C9.51633987 1.82635008 9.78262802 2.09090909 10.1111111 2.09090909 10.4395942 2.09090909 10.7058824 1.82635008 10.7058824 1.5 10.7058824 1.17364992 10.4395942.909090909 10.1111111.909090909 9.78262802.909090909 9.51633987 1.17364992 9.51633987 1.5zM7 7.72727273C6.67215049 7.72727273 6.40522876 7.45621831 6.40522876 7.11999233L6.40522876.607280395C6.40522876.272535592 6.67069982 0 7 0 7.32784951 0 7.59477124.27105442 7.59477124.607280395L7.59477124 7.11999233C7.59477124 7.45473714 7.32784951 7.72727273 7 7.72727273z"/>
      <path d="M10.3808511,0.909090909 L9.70319149,1.92624979 C11.533617,2.89440686 12.7802128,4.81290216 12.7802128,7.02095364 C12.7802128,10.2031018 10.1917021,12.783864 7,12.783864 C3.80829787,12.783864 1.21978723,10.2031018 1.21978723,7.02095364 C1.21978723,5.02672826 2.23553191,3.27008744 3.78,2.23510972 L3.18425532,1.16894902 C1.26744681,2.41329814 0,4.56937799 0,7.02095364 C0,10.8757631 3.13361702,14 7,14 C10.866383,14 14,10.8757631 14,7.02095364 C14,4.38970467 12.5389362,2.0984986 10.3808511,0.909090909 Z"/>
    </g>
  </g>
</svg>
