<svg xmlns="http://www.w3.org/2000/svg" width="30" height="30" viewBox="0 0 30 30">
  <g fill="none">
    <rect width="30" height="30"/>
    <rect width="22" height="22" x="4" y="4" fill="#FC0" rx="6"/>
    <path fill="#FFF" d="M12.9696939,12.9725564 C11.5963486,14.3459017 9.36966034,14.3459017 7.99631508,12.9725564 L6.50432179,11.4805631 C6.05059665,11.026838 5.76160223,10.4766145 5.60763352,9.89818771 C6.07021229,9.84212514 6.52556425,9.72102123 6.96022123,9.53385922 C7.05235531,9.88187263 7.22608045,10.2129296 7.49897877,10.4858279 L8.99097207,11.9778838 C9.81500112,12.8018503 11.1509922,12.8018503 11.9750212,11.9778838 C12.7989877,11.1538547 12.7989877,9.81786369 11.9750212,8.99383464 L10.4829654,7.50184134 C9.83427263,6.8531486 8.87140112,6.72317542 8.08766704,7.09587263 L9.48829274,8.49649832 C9.76302123,8.77122682 9.76302123,9.21650503 9.48829274,9.49115531 C9.21364246,9.7658838 8.76828603,9.7658838 8.49363575,9.49115531 L6.95150838,7.94904358 C5.5861095,8.85361564 3.72867709,8.70485587 2.52561564,7.50185698 L1.03362235,6.00986369 C-0.339722905,4.63651844 -0.339722905,2.40983017 1.03362235,1.03648492 C2.4069676,-0.336860335 4.63365587,-0.336860335 6.00700112,1.03648492 L7.49899441,2.52847821 C7.95271955,2.98220335 8.24179218,3.53242682 8.39568268,4.11085363 C7.93310391,4.1669162 7.47775196,4.28802011 7.04309497,4.47518212 C6.95096089,4.12716872 6.77723575,3.79611173 6.50433743,3.52321341 L5.01234413,2.03115754 C4.18831508,1.20719106 2.85232402,1.20719106 2.02829497,2.03115754 C1.20432849,2.85518659 1.20432849,4.19117765 2.02829497,5.0152067 L3.52028827,6.5072 C4.16904358,7.15589274 5.13191508,7.28586592 5.91564916,6.91316872 L4.51502346,5.51254302 C4.24029497,5.23789274 4.24029497,4.79253631 4.51502346,4.51788603 C4.78967374,4.24315754 5.2349676,4.24315754 5.50968045,4.51788603 L7.05182346,6.06002905 C8.4172067,5.15547263 10.274733,5.30421676 11.4777162,6.50721564 L12.9697095,7.99920894 C14.3430235,9.37252291 14.3430235,11.5992268 12.9696939,12.9725564 Z" transform="translate(8 8)"/>
  </g>
</svg>
