<?xml version="1.0" encoding="utf-8"?>
<!-- Generator: Adobe Illustrator 23.0.3, SVG Export Plug-In . SVG Version: 6.00 Build 0)  -->
<svg version="1.1" id="Group_25" xmlns="http://www.w3.org/2000/svg" xmlns:xlink="http://www.w3.org/1999/xlink" x="0px" y="0px"
	 viewBox="0 0 30 30" style="enable-background:new 0 0 30 30;" xml:space="preserve">
<style type="text/css">
	.st0{fill:none;}
	.st1{fill:#7E57C2;}
	.st2{fill:#FFFFFF;}
</style>
<rect id="Rectangle_17" x="0.2" class="st0" width="30" height="30"/>
<path id="Rectangle_5" class="st1" d="M10.2,4h10c3.3,0,6,2.7,6,6v10c0,3.3-2.7,6-6,6h-10c-3.3,0-6-2.7-6-6V10C4.2,6.7,6.9,4,10.2,4
	z"/>
<path class="st2" d="M15.1,14.8c1.7,0,3.1-1.5,3.1-3.4s-1.4-3.3-3.1-3.3S12,9.6,12,11.5C11.9,13.3,13.4,14.8,15.1,14.8z M10.2,22H20
	c1.2,0,1.7-0.4,1.7-1c0-2-2.5-4.8-6.5-4.8S8.6,19,8.6,21C8.5,21.7,8.9,22,10.2,22z"/>
</svg>
