<svg xmlns="http://www.w3.org/2000/svg" width="30" height="30" viewBox="0 0 30 30">
  <g fill="none">
    <rect width="30" height="30"/>
    <rect width="22" height="22" x="4" y="4" fill="#4984FF" rx="6"/>
    <g fill="#FFF" transform="translate(9 7)">
      <path d="M5.9800331,1.46600923e-06 C4.39544822,1.46600923e-06 2.8757638,0.629608314 1.75529308,1.75007903 C0.63482236,2.87054975 0.00534847059,4.39023417 0.00534847059,5.97481906 C0.00534847059,8.77794193 4.30712139,13.9958332 5.62155203,15.5193777 C5.71611656,15.6282591 5.85324552,15.6907891 5.99745927,15.6907891 C6.14167302,15.6907891 6.27880198,15.6282591 6.37336651,15.5193777 C7.69277603,14.0157488 11.9945489,8.79785754 11.9945489,5.97481906 C11.9945489,4.38330877 11.3596457,2.85755675 10.2305454,1.73593398 C9.10144518,0.614311212 7.57150803,-0.0104756423 5.9800331,1.46600923e-06 Z M5.9800331,14.4389556 C3.61505377,11.6059593 1.00112925,7.85186581 1.00112925,5.97481906 C1.00112925,3.2140473 3.23917696,0.975999591 5.99994872,0.975999591 C8.76072048,0.975999591 10.9987682,3.2140473 10.9987682,5.97481906 C10.9987682,7.85186581 8.38982257,11.6059593 5.9800331,14.4389556 L5.9800331,14.4389556 Z"/>
      <path d="M5.9800331,3.60983972 C4.66295995,3.62088417 3.60420578,4.69752005 3.61521961,6.01459346 C3.62623344,7.33166687 4.70284471,8.39044607 6.01991837,8.37946285 C7.33699204,8.36847963 8.39579626,7.29189298 8.38484366,5.97481906 C8.37958371,5.34229865 8.12326008,4.73777666 7.67226579,4.29425226 C7.22127151,3.85072786 6.61255315,3.60453566 5.9800331,3.60983972 Z M5.9800331,7.38384884 C5.21814371,7.3728451 4.60732747,6.75015252 4.61097906,5.9881925 C4.61466353,5.22623248 5.23144652,4.60944948 5.99340654,4.60576502 C6.75536656,4.60211343 7.37805914,5.21292967 7.38906288,5.97481906 C7.39448371,6.35015256 7.24777416,6.71170303 6.98234562,6.97713157 C6.71691708,7.24256012 6.35536661,7.38926967 5.9800331,7.38384884 L5.9800331,7.38384884 Z"/>
    </g>
  </g>
</svg>
