<svg xmlns="http://www.w3.org/2000/svg" width="30" height="30" viewBox="0 0 30 30">
  <g fill="none" fill-rule="evenodd" transform="translate(-43 -3)">
    <rect width="375" height="60"/>
    <g fill-rule="nonzero" transform="translate(43 3)">
      <rect width="30" height="30"/>
      <rect width="22" height="22" x="4" y="4" fill="#00CE7D" rx="6"/>
      <path fill="#FFF" d="M13.9858907,14.3770792 L2.00718841,14.3770792 C0.906399108,14.3770792 0.0107380156,13.4810435 0.0107380156,12.3806109 L0.0107380156,1.99905463 C0.0107380156,0.897890747 0.906416945,0.00260423634 2.00718841,0.00260423634 L13.9859086,0.00260423634 C15.0866979,0.00260423634 15.9823768,0.897890747 15.9823768,1.99905463 L15.9823768,12.3806109 C15.9823768,13.4810256 15.08668,14.3770792 13.9858907,14.3770792 Z M15.183786,2.1487893 C15.183786,1.40567224 14.6464392,0.801177258 13.9858907,0.801177258 L2.00718841,0.801177258 C1.34665775,0.801177258 0.809328874,1.40567224 0.809328874,2.1487893 L0.809328874,13.8280401 C0.809328874,14.5711572 1.34665775,15.1756522 2.00718841,15.1756522 L13.9859086,15.1756522 C14.6464571,15.1756522 15.183786,14.5711572 15.183786,13.8280401 L15.183786,2.1487893 L15.183786,2.1487893 Z M13.5866042,13.0026042 L2.40645708,13.0026042 C2.18613155,13.0026042 2.00717057,12.8066322 2.00717057,12.5644661 L2.00717057,11.6881116 C2.00717057,11.5863368 2.03948274,11.4877406 2.09840803,11.4091469 C2.2793311,11.1686838 3.90886957,9.05916539 5.42610479,9.05916539 C6.21026533,9.05916539 6.71521962,9.40319307 7.20379933,9.73692498 C7.66351839,10.0510049 8.09790858,10.3736581 8.80877592,10.3736581 L8.80954292,10.3736581 C9.33165663,10.3736581 9.62996656,9.8969597 10.1154426,9.05403707 C10.7276343,7.99028374 11.5659666,6.53286378 13.4895162,6.00484314 C13.6088294,5.97148952 13.735563,6.00143731 13.8322943,6.08442988 C13.9292049,6.16764481 13.9859086,6.29514682 13.9859086,6.43018005 L13.9859086,12.5644661 C13.9859086,12.8066322 13.8069119,13.0026042 13.5866042,13.0026042 Z M13.1872999,6.93326198 C11.9227648,7.41524192 11.3245931,8.36200669 10.7903857,9.20890078 C10.2787781,10.019175 9.79565663,10.7842497 8.84034783,10.7842497 L8.78143144,10.78268 C7.85728428,10.7515006 7.28604682,10.3958439 6.78185953,10.0831215 C6.35294537,9.81563434 5.98210925,9.58556968 5.42606912,9.58556968 C4.51635229,9.58556968 3.30445485,10.7576901 2.80572575,11.3293378 L2.80572575,11.5820201 L13.1872999,11.5820201 L13.1872999,6.93326198 Z M6.00007135,7.18985061 C5.11919732,7.18985061 4.40290747,6.47313266 4.40290747,5.59270457 C4.40290747,4.71143813 5.11921516,3.99552285 6.00007135,3.99552285 C6.88092754,3.99552285 7.59723523,4.71143813 7.59723523,5.59270457 C7.59723523,6.47311483 6.88094537,7.18985061 6.00007135,7.18985061 Z M6.00007135,4.79413155 C5.55983055,4.79413155 5.20148049,5.15208919 5.20148049,5.59272241 C5.20148049,6.03255295 5.55983055,6.39131327 6.00007135,6.39131327 C6.44032999,6.39131327 6.79866221,6.03257079 6.79866221,5.59272241 C6.79866221,5.15207135 6.44032999,4.79413155 6.00007135,4.79413155 Z" transform="translate(7 7)"/>
    </g>
  </g>
</svg>
