<svg xmlns="http://www.w3.org/2000/svg" width="30" height="30" viewBox="0 0 30 30">
  <g fill="none">
    <polygon points="0 0 30 0 30 30 0 30"/>
    <rect width="22" height="22" x="4" y="4" fill="#FF4500" rx="6"/>
    <g fill="#FFF" transform="translate(8 8)">
      <path d="M7,0 C3.14041855,0 0,3.14039154 0,7 C0,10.8600944 3.13990558,14 7,14 C10.8600944,14 14,10.8600944 14,7 C14,3.14041855 10.8600944,0 7,0 Z M7,12.9955531 C3.69387,12.9955531 1.00444689,10.3056441 1.00444689,7 C1.00444689,3.69387 3.69384299,1.00444689 7,1.00444689 C10.305644,1.00444689 12.9955531,3.69384299 12.9955531,7 C12.9955531,10.305644 10.305644,12.9955531 7,12.9955531 Z"/>
      <path d="M7,4.46153846 C5.60030235,4.46153846 4.46153846,5.60028119 4.46153846,6.99998636 C4.46153846,8.39969153 5.60027507,9.53846154 7,9.53846154 C8.39972493,9.53846154 9.53846154,8.39971881 9.53846154,6.99998636 C9.53846154,5.6002539 8.39969765,4.46153846 7,4.46153846 Z"/>
    </g>
  </g>
</svg>
