<svg xmlns="http://www.w3.org/2000/svg" width="30" height="30" viewBox="0 0 30 30">
  <g fill="none">
    <rect width="22" height="22" x="4" y="4" fill="#4984FF" rx="6"/>
    <path fill="#FFF" d="M11.4293878,13.5384615 L9.61668691,13.5384615 L8.32173727,9.83230769 L3.03335953,9.83230769 L1.81041503,13.5384615 L0,13.5384615 L4.83691692,0 L6.59132795,0 L11.4293878,13.5384615 Z M7.81198657,8.30246154 L5.8941353,2.67384615 C5.83355954,2.49446154 5.76841203,2.1785641 5.69754982,1.73066667 L5.65640403,1.73066667 C5.59582827,2.13907692 5.52725195,2.45271795 5.45181799,2.67384615 L3.54882492,8.30246154 L7.81198657,8.30246154 L7.81198657,8.30246154 Z M11.9837131,8.39948718 C12.5494678,8.06441026 13.2032288,7.8974359 13.9427102,7.8974359 C15.3142367,7.8974359 16,8.57887179 16,9.94287179 L16,13.4109744 L15.0022144,13.4109744 L15.0022144,12.578359 L14.9770698,12.578359 C14.5827559,13.2191795 14.002143,13.5384615 13.2340881,13.5384615 C12.6809058,13.5384615 12.2431602,13.3974359 11.9174227,13.1142564 C11.5916851,12.8322051 11.4282449,12.4497436 11.4282449,11.9702564 C11.4282449,10.961641 12.0580041,10.3772308 13.3152368,10.2102564 L15.0022144,9.98687179 C15.0022144,9.10687179 14.618187,8.66687179 13.8501322,8.66687179 C13.1677977,8.66687179 12.546039,8.88348718 11.9837131,9.31897436 L11.9837131,8.39948718 L11.9837131,8.39948718 Z M13.6706908,10.8792821 C13.2043717,10.9379487 12.8832059,11.0473846 12.7060504,11.2109744 C12.5288949,11.3734359 12.4420316,11.6002051 12.4420316,11.8924103 C12.4420316,12.1485128 12.5380384,12.3572308 12.7300521,12.5208205 C12.9220659,12.6832821 13.1757983,12.7645128 13.4901064,12.7645128 C13.9301379,12.7645128 14.2913065,12.6178462 14.5758983,12.325641 C14.8593471,12.0334359 15.0022144,11.6667692 15.0022144,11.2245128 L15.0022144,10.7077949 L13.6706908,10.8792821 Z" transform="translate(7 8)"/>
  </g>
</svg>
