<svg xmlns="http://www.w3.org/2000/svg" width="30" height="30" viewBox="0 0 30 30">
  <g fill="none">
    <rect width="30" height="30"/>
    <rect width="22" height="22" x="4" y="4" fill="#5FA81A" rx="6"/>
    <path fill="#FFF" d="M8.92881355 11.6553672L21.0779661 11.6553672C21.6564972 11.6553672 21.9457627 11.9446328 21.9457627 12.5231639L21.9457627 12.5231639C21.9457627 13.1016949 21.6564972 13.3909605 21.0779661 13.3909605L8.92881355 13.3909605C8.35028248 13.3909605 8.06101694 13.1016949 8.06101694 12.5231639L8.06101694 12.5231639C8.06101694 11.9446328 8.35028248 11.6553672 8.92881355 11.6553672zM8.92881355 16.8621469L16.4497175 16.8621469C17.0282486 16.8621469 17.3175141 17.1514124 17.3175141 17.7299435L17.3175141 17.7299435C17.3175141 18.3084746 17.0282486 18.5977401 16.4497175 18.5977401L8.92881355 18.5977401C8.35028248 18.5977401 8.06101694 18.3084746 8.06101694 17.7299435L8.06101694 17.7299435C8.06101694 17.1514124 8.35028248 16.8621469 8.92881355 16.8621469z"/>
  </g>
</svg>
