<svg xmlns="http://www.w3.org/2000/svg" width="30" height="30" viewBox="0 0 30 30">
  <g fill="none">
    <rect width="30" height="30"/>
    <rect width="22" height="22" x="4" y="4" fill="#4984FF" rx="6"/>
    <g fill="#FFF" transform="translate(9 9)">
      <path d="M2.36618501,6.3112113 L6.28251903,6.3112113 L7.18003493,8.57076816 L8.64864865,8.57076816 L5.14021263,0 L3.50843602,0 L0,8.64864865 L1.46861372,8.64864865 L2.36612962,6.31119367 L2.36618501,6.3112113 Z M3.99798008,1.94782331 C4.07960769,1.71411132 4.1611799,1.48038169 4.24278904,1.16871867 L4.32441664,1.16871867 C4.32441664,1.24659916 4.40597039,1.40246593 4.56915174,1.7919918 C4.56915174,1.86994282 4.65077935,1.94780568 4.65077935,1.94780568 C4.65077935,2.0257567 5.14026802,3.11657725 5.95623017,5.29821835 L2.69256618,5.29821835 C3.59004516,3.11657725 3.99801701,2.0257567 3.99801701,1.94780568 L3.99801701,1.94780568 L3.99798008,1.94782331 Z"/>
      <polygon points="0 10 13 10 13 11.297 0 11.297"/>
      <polygon points="9 5 13 5 13 6.297 9 6.297"/>
      <polygon points="9 0 13 0 13 1.297 9 1.297"/>
    </g>
  </g>
</svg>
