<svg xmlns="http://www.w3.org/2000/svg" xmlns:xlink="http://www.w3.org/1999/xlink" width="30" height="31" viewBox="0 0 30 31">
  <defs>
    <rect id="form-icon-image-a" width="22" height="22" x="4" y="4" rx="6"/>
  </defs>
  <g fill="none" fill-rule="evenodd" transform="translate(0 .75)">
    <use fill="#FF7B00" fill-rule="nonzero" xlink:href="#form-icon-image-a"/>
    <path fill="#FFF" fill-rule="nonzero" d="M4.47678571,2.57142857 C3.4375,2.57142857 2.55714286,3.45178571 2.55714286,4.49107143 C2.55714286,5.53035714 3.4375,6.41071429 4.47678571,6.41071429 C5.59642857,6.49107143 6.39642857,5.61071429 6.39642857,4.49107143 C6.39642857,3.45 5.59642857,2.57142857 4.47678571,2.57142857 Z M4.47678571,5.68928571 C3.8375,5.68928571 3.27678571,5.13035714 3.27678571,4.48928571 C3.27678571,3.85 3.83571429,3.28928571 4.47678571,3.28928571 C5.11607143,3.28928571 5.67678571,3.84821429 5.67678571,4.48928571 C5.67678571,5.12857143 5.11785714,5.68928571 4.47678571,5.68928571 Z M14.5517857,0.0125 L1.43928571,0.0125 C0.639285714,0.0125 0,0.651785714 0,1.45178571 L0,11.4464286 C0,12.2464286 0.639285714,12.8857143 1.43928571,12.8857143 L14.5517857,12.8857143 C15.3517857,12.8857143 15.9910714,12.2464286 15.9910714,11.4464286 L15.9910714,1.45178571 C15.9910714,0.651785714 15.1910714,0.0125 14.4714286,0.0125 L14.5517857,0.0125 Z M15.0321429,11.2053571 C15.0321429,11.6053571 14.7125,12.0053571 14.2321429,12.0053571 L1.67857143,12.0053571 C1.27857143,12.0053571 0.878571429,11.6857143 0.878571429,11.2053571 L0.878571429,10.5660714 L4.31607143,8.64642857 L6.55535714,9.925 C6.71607143,10.0053571 7.11428571,10.0857143 7.43571429,9.76428571 L12.3928571,5.44821429 L15.0321429,6.8875 L15.0321429,11.2053571 Z M15.0321429,5.84821429 L12.5535714,4.48928571 C12.1535714,4.32857143 11.7535714,4.80892857 11.6732143,4.80892857 L6.79642857,8.96785714 L4.79821429,7.84821429 C4.71785714,7.76785714 4.39821429,7.52857143 4.07857143,7.6875 L0.878571429,9.44642857 L0.878571429,1.69107143 C0.878571429,1.29107143 1.19821429,0.891071429 1.67857143,0.891071429 L14.3125,0.891071429 C14.7125,0.891071429 15.1125,1.21071429 15.1125,1.69107143 L15.1125,5.84821429 L15.0321429,5.84821429 Z" transform="translate(7 9)"/>
  </g>
</svg>
