<?xml version="1.0" encoding="utf-8"?>
<!-- Generator: Adobe Illustrator 23.0.3, SVG Export Plug-In . SVG Version: 6.00 Build 0)  -->
<svg version="1.1" id="Слой_1" xmlns="http://www.w3.org/2000/svg" xmlns:xlink="http://www.w3.org/1999/xlink" x="0px" y="0px"
	 viewBox="0 0 30 30" style="enable-background:new 0 0 30 30;" xml:space="preserve">
<style type="text/css">
	.st0{fill:none;}
	.st1{fill:#4984FF;}
	.st2{fill:#FFFFFF;}
</style>
<g>
	<rect class="st0" width="30" height="30"/>
	<path class="st1" d="M9.8,4h10c3.3,0,6,2.7,6,6v10c0,3.3-2.7,6-6,6h-10c-3.3,0-6-2.7-6-6V10C3.8,6.7,6.5,4,9.8,4z"/>
	<g transform="translate(7 6)">
		<path class="st2" d="M7.8,16.1L7.8,16.1L1,13V4.2l6.8-3.1l6.8,3.1v8.7L7.8,16.1L7.8,16.1z M2.2,5.4v6.7l5,2.2V7.8L2.2,5.4z
			 M13.4,5.4l-5,2.3v6.7l5-2.3V5.4z M7.8,2.4L3.2,4.6l4.6,2.1l4.6-2.1L7.8,2.4L7.8,2.4z"/>
	</g>
</g>
</svg>
