<svg xmlns="http://www.w3.org/2000/svg" width="30" height="30" viewBox="0 0 30 30">
  <g fill="none" fill-rule="evenodd">
    <rect width="30" height="30"/>
    <rect width="22" height="22" x="4" y="4" fill="#FF7B00" fill-rule="nonzero" rx="6"/>
    <path fill="#FFF" d="M13.2352941,16.7647059 L16.7647059,16.7647059 L16.7647059,13.2352941 L13.2352941,13.2352941 L13.2352941,16.7647059 Z M13.2352941,18.1764706 L13.2352941,21 L11.8235294,21 L11.8235294,18.1764706 L9,18.1764706 L9,16.7647059 L11.8235294,16.7647059 L11.8235294,13.2352941 L9,13.2352941 L9,11.8235294 L11.8235294,11.8235294 L11.8235294,9 L13.2352941,9 L13.2352941,11.8235294 L16.7647059,11.8235294 L16.7647059,9 L18.1764706,9 L18.1764706,11.8235294 L21,11.8235294 L21,13.2352941 L18.1764706,13.2352941 L18.1764706,16.7647059 L21,16.7647059 L21,18.1764706 L18.1764706,18.1764706 L18.1764706,21 L16.7647059,21 L16.7647059,18.1764706 L13.2352941,18.1764706 Z"/>
  </g>
</svg>
