<svg xmlns="http://www.w3.org/2000/svg" width="30" height="30" viewBox="0 0 30 30">
  <g fill="none">
    <rect width="30" height="30"/>
    <g transform="translate(5 5)">
      <path fill="#2196F3" d="M14.9988746,2.19149431 L17.9990997,2.19149431 C19.1244655,2.19149431 20,2.965373 20,3.99721125 L20,18.1942831 C20,19.2261213 19.1244655,20 17.9990997,20 L2.00090029,20 C0.875534549,20 0,19.2261213 0,18.1942831 L0,3.99953521 C0,2.96769696 0.875534549,2.19381827 2.00090029,2.19381827 L5.00112537,2.19381827 L5.00112537,0.773878689 C5.00112537,0.385777365 5.25095656,0 5.75061895,0 C6.12649111,0 6.50011254,0.257959563 6.50011254,0.773878689 L6.50011254,2.19381827 L13.6259284,2.19381827 L13.6259284,0.773878689 C13.6259284,0.385777365 13.8757596,0 14.375422,0 C14.7512942,0 15.1249156,0.257959563 15.1249156,0.773878689 L15.1249156,2.19381827 L14.9988746,2.19381827 L14.9988746,2.19149431 Z"/>
      <path fill="#FFF" d="M5.37474679 8.12921218L14.6252532 8.12921218C15.0011254 8.12921218 15.3747468 8.38717174 15.3747468 8.90309087 15.3747468 9.41900999 15.1249156 9.67696956 14.6252532 9.67696956L5.37474679 9.67696956C4.99887463 9.67696956 4.62525321 9.41900999 4.62525321 8.90309087 4.62525321 8.38717174 4.99887463 8.12921218 5.37474679 8.12921218zM5.37474679 12.5168487L14.6252532 12.5168487C15.0011254 12.5168487 15.3747468 12.7748083 15.3747468 13.2907274 15.3747468 13.6788287 15.1249156 14.0646061 14.6252532 14.0646061L5.37474679 14.0646061C4.99887463 14.0646061 4.62525321 13.8066465 4.62525321 13.2907274 4.74904344 12.7748083 4.99887463 12.5168487 5.37474679 12.5168487z"/>
    </g>
  </g>
</svg>
