<svg xmlns="http://www.w3.org/2000/svg" width="30" height="30" viewBox="0 0 30 30">
  <g fill="none">
    <rect width="30" height="30"/>
    <path fill="#333" d="M19.5965297,0.0202494696 L19.5965297,0.0202494696 L20.0892927,0.0202494696 C20.9210076,0.0202494696 21.5957292,0.753165169 21.5957292,1.58525016 L21.5957292,4.0186732 L21.5925962,4.0186732 C21.5925962,4.41811347 21.3188691,4.55889937 21.041639,4.55889937 C20.7644089,4.55889937 20.4906818,4.37245116 20.4906818,4.09522107 C20.4906818,4.09013926 20.3961996,4.08624157 20.3961996,4.08115974 L20.3961996,2.08701736 C20.3961996,1.53255717 20.1416156,1.21977907 19.5871307,1.21977907 L18.7968597,1.21977907 L18.7968597,1.21977907 L18.1053139,1.21977907 C18.1002568,1.21977907 18.0725042,1.15260541 18.0678171,1.15260541 C17.790587,1.15260541 17.5418742,0.858181042 17.5418742,0.580950924 C17.5418742,0.303720806 17.9971404,0.0792083571 17.9971404,0.0792083571 L17.9971404,0.0202494696 L19.5965297,0.0202494696 Z M3.60281021,0.0792084059 L3.60281021,0.0202495184 L2.00344566,0.0202495184 L2.00344566,0.0202495184 L1.50754965,0.0202495184 C0.675859371,0.0202495184 0.00424615982,0.753165169 0.00424615982,1.58525016 L0.00424615982,4.0186732 L0.00424615982,4.0186732 C0.00424615982,4.41811347 0.229153339,4.55889938 0.506383433,4.55889938 C0.783613527,4.55889938 1.10732,4.35330802 1.10732,4.07607793 C1.10732,4.07099612 1.20377574,4.08624155 1.20377574,4.08115974 L1.20377574,2.08701736 C1.20377574,1.53255717 1.4552514,1.21977907 2.00971161,1.21977907 L3.20299992,1.21977907 L3.20299992,1.21977907 L3.52865524,1.21977907 C3.53334234,1.21977907 3.53763474,1.15260541 3.54271657,1.15260541 C3.81994667,1.15260541 4.07453063,0.892939637 4.07453063,0.615906884 C4.07453063,0.338676839 4.00266984,0.0792084059 3.60281021,0.0792084059 Z M4.00266984,12.1506327 L4.00266984,12.1357819 L4.00266984,4.41811349 L3.20297524,4.41811349 L3.20297524,12.1357819 L3.20297524,12.1506327 L3.20297524,17.2133259 L4.00266984,17.2133259 L4.00266984,12.1506327 Z M1.10731997,17.649819 C1.10731997,17.3725889 0.833222845,17.129698 0.555968065,17.129698 C0.278713286,17.129698 0.00422147411,17.2133012 0.00422147411,17.6131115 L0.00422147411,17.6131115 L0.00422147411,20.1597405 C0.00422147411,20.9914555 0.675834686,21.6115599 1.50752497,21.6115599 L3.20295055,21.6115599 L3.20295055,21.6115599 L3.52860587,21.6115599 C3.53329297,21.6115599 3.53758537,21.6279401 3.5426672,21.6279401 C3.8198973,21.6279401 4.07448126,21.4100636 4.07448126,21.1328335 C4.07448126,20.8556034 4.00264516,20.6377269 3.60278552,20.6377269 L3.60278552,20.8118653 L2.00342097,20.8118653 L2.00342097,20.6494446 C1.20372637,20.5861933 1.20372637,20.1691641 1.20372637,19.6576773 L1.20372637,17.6639296 C1.20375105,17.6587985 1.10731997,17.6545061 1.10731997,17.649819 Z M5.60203439,12.1506327 L5.60203439,12.1357819 L5.60203439,4.41811349 L5.20219942,4.41811349 L5.20219942,12.1357819 L5.20219942,12.1506327 L5.20219942,15.2140524 L5.60203439,15.2140524 L5.60203439,12.1506327 Z M6.00186937,16.0137716 L5.20217476,16.0137716 L5.20217476,17.2133012 L6.00186937,17.2133012 L6.00186937,16.0137716 Z M7.60123392,12.1506327 L7.60123392,12.1357819 L7.60123392,4.41811349 L7.20139895,4.41811349 L7.20139895,12.1357819 L7.20139895,12.1506327 L7.20139895,15.2140524 L7.60123392,15.2140524 L7.60123392,12.1506327 Z M8.00106889,16.0137716 L7.20139895,16.0137716 L7.20139895,17.2133012 L8.00106889,17.2133012 L8.00106889,16.0137716 Z M10.0002931,12.1506327 L10.0002931,12.1357819 L10.0002931,4.41811349 L8.4009285,4.41811349 L8.4009285,12.1357819 L8.4009285,12.1506327 L8.4009285,15.2140524 L10.0002931,15.2140524 L10.0002931,12.1506327 Z M10.0002931,17.2133012 L10.0002931,16.0137716 L9.20059844,16.0137716 L9.20059844,17.2133012 L10.0002931,17.2133012 Z M13.1990222,12.1506327 L13.1990222,12.1357819 L13.1990222,4.41811349 L11.9994926,4.41811349 L11.9994926,12.1357819 L11.9994926,12.1506327 L11.9994926,15.2140524 L13.1990222,15.2140524 L13.1990222,12.1506327 Z M11.1998226,17.2133012 L11.9994926,17.2133012 L11.9994926,16.0137716 L11.1998226,16.0137716 L11.1998226,17.2133012 Z M14.3985517,12.1357819 L14.3985517,4.41811349 L13.9987414,4.41811349 L13.9987414,12.1357819 L13.9987414,12.1506327 L13.9987414,15.2140524 L14.3985517,15.2140524 L14.3985517,12.1506327 L14.3985517,12.1357819 Z M13.5988818,17.2133012 L14.3985517,17.2133012 L14.3985517,16.0137716 L13.5988818,16.0137716 L13.5988818,17.2133012 Z M16.3978006,12.1357819 L16.3978006,4.41811349 L15.9979409,4.41811349 L15.9979409,12.1357819 L15.9979409,12.1506327 L15.9979409,15.2140524 L16.3978006,15.2140524 L16.3978006,12.1506327 L16.3978006,12.1357819 Z M15.5980813,17.2133012 L16.3978006,17.2133012 L16.3978006,16.0137716 L15.5980813,16.0137716 L15.5980813,17.2133012 Z M18.3970001,12.1506327 L18.3970001,12.1357819 L18.3970001,4.41811349 L17.5973302,4.41811349 L17.5973302,12.1357819 L17.5973302,12.1506327 L17.5973302,17.2133259 L18.3970001,17.2133259 L18.3970001,12.1506327 Z M20.089268,21.6115599 C20.920983,21.6115599 21.5957045,20.9914555 21.5957045,20.1597406 L21.5957045,17.6131115 L21.5925716,17.6131115 C21.5925716,17.2133012 21.3676644,17.129698 21.0904343,17.129698 C20.8132042,17.129698 20.4906571,17.3632393 20.4906571,17.6404694 C20.4906571,17.6459213 20.3961749,17.6587738 20.3961749,17.6638803 L20.3961749,19.657628 C20.3961749,20.156657 20.3961749,20.5673956 19.596505,20.6454976 L19.596505,20.811816 L17.9971158,20.811816 L17.9971158,20.6376776 C17.9971158,20.6376776 17.5418496,20.8625848 17.5418496,21.1398148 C17.5418496,21.4170449 17.7905623,21.6278908 18.0677924,21.6278908 C18.0724548,21.6278908 18.1002074,21.6115106 18.1052893,21.6115106 L18.796835,21.6115106 L18.796835,21.6115106 L20.089268,21.6115105 L20.089268,21.6115599 Z" transform="translate(4.2 4.2)"/>
  </g>
</svg>
