<svg xmlns="http://www.w3.org/2000/svg" width="50" height="50" viewBox="0 0 50 50">
  <path d="M18.5607994,20.6586323 C18.7117002,20.6586323 19.051227,20.507287 19.051227,20.507287 L22.1824188,17.3668722 C22.3333196,17.2155269 22.3333196,17.0641816 22.3333196,16.875 C22.3333196,16.3831278 22.031518,16.0804372 21.5410903,16.0804372 C21.3901895,16.0804372 21.0506627,16.2317825 21.0506627,16.2317825 L17.9194709,19.3721973 C17.7685701,19.5235426 17.7685701,19.6748879 17.7685701,19.8640695 C17.7685701,20.3559417 18.0703717,20.6586323 18.5607994,20.6586323 Z M7.05461277,4.57819507 C5.8096811,4.57819507 4.67792505,5.67544843 4.67792505,6.96188341 C4.67792505,8.24831839 5.7719559,9.34557175 7.05461277,9.34557175 C8.33726964,9.34557175 9.43130049,8.24831839 9.43130049,6.96188341 C9.28039969,5.52410314 8.33726964,4.57819507 7.05461277,4.57819507 Z M7.05461277,7.56726457 C6.56418514,7.56726457 6.26238353,7.26457399 6.26238353,6.77270179 C6.26238353,6.2808296 6.56418514,5.97813901 7.05461277,5.97813901 C7.5450404,5.97813901 7.84684201,6.2808296 7.84684201,6.77270179 C7.6959412,7.26457399 7.39413959,7.56726457 7.05461277,7.56726457 Z M17.7685701,27.5826794 C17.9194709,27.5826794 18.2589978,27.4313341 18.2589978,27.4313341 L22.8237472,22.853139 C22.974648,22.7017937 22.974648,22.5504484 22.974648,22.3612668 C22.974648,21.8693946 22.6728464,21.566704 22.1824188,21.566704 C22.031518,21.566704 21.6919911,21.7180493 21.6919911,21.7180493 L17.1272417,26.3340807 C16.9763409,26.485426 16.9763409,26.6367713 16.9763409,26.7881166 C16.9763409,27.2799888 17.2781425,27.5826794 17.7685701,27.5826794 Z M14.1469507,23.1936659 C13.9960499,23.3450112 13.9960499,23.4963565 13.9960499,23.6855381 C13.9960499,24.139574 14.2978515,24.4801009 14.7882792,24.4801009 C14.93918,24.4801009 15.2787068,24.3287556 15.2787068,24.3287556 L16.8631653,22.73963 C16.9763409,22.5504484 16.9763409,22.3991031 16.9763409,22.2477578 C16.9763409,21.7558857 16.6745393,21.4531951 16.1841116,21.4531951 C16.0332108,21.4531951 15.693684,21.6045404 15.693684,21.6045404 L14.1469507,23.1936659 Z M33.6508802,17.0263453 L16.8254401,0.151345291 C16.6745393,0 16.5236385,0 16.3350125,0 L2.37668772,0 C1.09403086,0 0,1.09725336 0,2.38368834 L0,16.2696188 C0,16.4209641 0.150900808,16.761491 0.150900808,16.761491 L16.9763409,33.5986547 C17.1272417,33.75 17.2781425,33.75 17.4667685,33.75 C17.6553945,33.75 17.9571961,33.5986547 17.9571961,33.5986547 L33.3490785,18.161435 C33.4999794,18.0100897 33.4999794,17.8587444 33.4999794,17.6695628 C33.801781,17.5182175 33.801781,17.1776906 33.6508802,17.0263453 Z M17.7685701,32.0095291 L1.58445848,15.7777466 L1.58445848,4.57819507 L1.58445848,4.42684978 L1.58445848,2.23234305 C1.58445848,1.74047085 1.8862601,1.43778027 2.37668772,1.43778027 L4.56474944,1.43778027 L4.71565025,1.43778027 L15.88231,1.43778027 L31.9155209,17.5182175 L17.7685701,32.0095291 Z" transform="translate(8.125 8.125)"/>
</svg>
