<svg xmlns="http://www.w3.org/2000/svg" width="50" height="50" viewBox="0 0 50 50">
  <g fill="none" transform="translate(7.5 9.5)">
    <path stroke="#000" stroke-width="1.5" d="M15.7153337,30.2484602 C23.7622573,30.1333082 30.25,23.5743009 30.25,15.5 C30.25,7.35379994 23.6462001,0.75 15.5,0.75 C11.3382999,0.75 7.45598638,2.48151312 4.68143963,5.47386909 C2.16948234,8.18302162 0.75,11.7294939 0.75,15.5 C0.75,17.6300541 1.20136713,19.6947056 2.06169098,21.5898739 L15.7153337,30.2484602 Z" transform="rotate(-180 15.5 15.5)"/>
    <g fill="#000" stroke="#000" transform="rotate(30 2.072 57.517)">
      <path d="M1.44758494,1.19728653 L1.44758494,1.87784209 L6.0494368,1.87784209 L6.0494368,1.19728653 L1.44758494,1.19728653 Z"/>
      <path d="M-0.513063204,3.17250004 L-0.513063204,3.8530556 L4.08878865,3.8530556 L4.08878865,3.17250004 L-0.513063204,3.17250004 Z" transform="rotate(90 1.788 3.513)"/>
    </g>
    <polyline stroke="#000" stroke-width="1.5" points="16 3 16 14.059 21 18"/>
    <polygon fill="#000" points="15 25 16 25 16 28 15 28"/>
    <polygon fill="#000" points="5 14 6 14 6 17 5 17" transform="rotate(-90 5.5 15.5)"/>
    <polygon fill="#000" points="7 7 8 7 8 10 7 10" transform="rotate(-45 7.5 8.5)"/>
    <polygon fill="#000" points="7 21 8 21 8 24 7 24" transform="rotate(-135 7.5 22.5)"/>
  </g>
</svg>
