<svg xmlns="http://www.w3.org/2000/svg" width="28" height="28" viewBox="0 0 28 28">
  <g fill="none" fill-rule="evenodd" transform="translate(.5 .5)">
    <rect width="27" height="27"/>
    <path fill="#000" fill-rule="nonzero" d="M11.6536,19.1867778 L11.6536,7.67795556 C11.6536,7.48813333 11.7296,7.30255556 11.8678,7.16235556 L17.2848,1.53975556 L2.6848,1.53975556 L8.1108,7.16615556 C8.23993333,7.29891111 8.31973333,7.48017778 8.3204,7.68006667 L8.32037778,14.6037333 L9.64117778,15.5895333 C9.99817778,15.8575333 10.0517778,16.3403333 9.76617778,16.6703333 C9.48057778,17.0003333 8.95417778,17.0497333 8.59697778,16.7857333 L6.9684,15.5607333 C6.78162222,15.4244667 6.66135556,15.2066889 6.6604,14.9608 L6.6604,7.96655556 L0.213,1.27975556 C-0.00582222222,1.05315556 -0.0594,0.731355556 0.0744222222,0.454933333 C0.208422222,0.178533333 0.507222222,0.00111111111 0.833022222,0.00111111111 L19.1544444,0.00111111111 C19.4846222,0.00111111111 19.7792667,0.178511111 19.9130444,0.459111111 C20.0470444,0.735511111 19.9890444,1.06131111 19.7702444,1.28411111 L13.3136444,7.97071111 L13.3136444,19.1867111 C13.3136444,19.6115333 12.9432444,19.9539111 12.4836444,19.9539111 C12.0240444,19.9539111 11.6536444,19.6115111 11.6536444,19.1867111 L11.6536,19.1867778 Z" transform="translate(4 4)"/>
  </g>
</svg>
