<svg id="Group_40" data-name="Group 40" xmlns="http://www.w3.org/2000/svg" width="50" height="50" viewBox="0 0 50 50">
  <rect id="Rectangle_28" data-name="Rectangle 28" width="50" height="50" fill="none"/>
  <g id="全部专场" transform="translate(8 8)">
    <path id="Shape" d="M12.423,15.692H3.269A3.273,3.273,0,0,1,0,12.423V3.269A3.273,3.273,0,0,1,3.269,0h9.154a3.273,3.273,0,0,1,3.27,3.269v9.154A3.273,3.273,0,0,1,12.423,15.692ZM3.269,1.308A1.963,1.963,0,0,0,1.308,3.269v9.154a1.964,1.964,0,0,0,1.961,1.962h9.154a1.964,1.964,0,0,0,1.962-1.962V3.269a1.964,1.964,0,0,0-1.962-1.961Z" fill="#333"/>
    <path id="Shape-2" data-name="Shape" d="M12.423,15.692H3.269A3.274,3.274,0,0,1,0,12.423V3.269A3.274,3.274,0,0,1,3.269,0h7.846a.654.654,0,0,1,0,1.308H3.269A1.962,1.962,0,0,0,1.308,3.269v9.154a1.962,1.962,0,0,0,1.962,1.962h9.154a1.962,1.962,0,0,0,1.962-1.962V4.577a.654.654,0,0,1,1.308,0v7.846A3.274,3.274,0,0,1,12.423,15.692Z" transform="translate(18.308)" fill="#333"/>
    <path id="Shape-3" data-name="Shape" d="M30.731,15.692H21.577a3.273,3.273,0,0,1-3.269-3.27V3.269A3.273,3.273,0,0,1,21.577,0h9.154A3.273,3.273,0,0,1,34,3.269v9.154A3.273,3.273,0,0,1,30.731,15.692ZM21.577,1.308a1.963,1.963,0,0,0-1.961,1.961v9.154a1.964,1.964,0,0,0,1.961,1.962h9.154a1.964,1.964,0,0,0,1.962-1.962V3.269a1.964,1.964,0,0,0-1.962-1.961ZM12.423,15.692H3.269A3.273,3.273,0,0,1,0,12.423V3.269A3.273,3.273,0,0,1,3.269,0h9.154a3.273,3.273,0,0,1,3.27,3.269v9.154A3.273,3.273,0,0,1,12.423,15.692ZM3.269,1.308A1.963,1.963,0,0,0,1.308,3.269v9.154a1.964,1.964,0,0,0,1.961,1.962h9.154a1.964,1.964,0,0,0,1.962-1.962V3.269a1.964,1.964,0,0,0-1.962-1.961Z" transform="translate(0 18.308)" fill="#333"/>
  </g>
</svg>
