<svg xmlns="http://www.w3.org/2000/svg" width="28" height="28" viewBox="0 0 28 28"><rect width="28" height="28" fill="none"/><g transform="translate(4 6)"><path d="M19.99,15.588a8.241,8.241,0,0,0-4.071-6.231A3.919,3.919,0,0,0,17.431,6.3a4.049,4.049,0,0,0-3.352-3.906A.669.669,0,1,0,13.826,3.7,2.712,2.712,0,0,1,16.093,6.3a2.671,2.671,0,0,1-1.841,2.471.669.669,0,0,0-.13,1.317,6.393,6.393,0,0,1,4.4,4.921H1.374A6.336,6.336,0,0,1,6.324,9.52a.675.675,0,0,0,.091-1.29A3.56,3.56,0,1,1,8.9,8.221a.67.67,0,0,0-.142.066l-.006,0-.016.01-.015.01-.006,0a.667.667,0,0,0-.19.214h0l-.015.029h0l-.014.029h0a.668.668,0,0,0-.045.391v0l0,.023,0,.01.005.019,0,.014.006.017,0,.014,0,.007,0,.011.005.014.007.017.006.012.009.018.005.01.011.02,0,.008.013.021,0,.006.014.021,0,.005.016.021,0,.006L8.6,9.3l.007.007.014.016.01.01.012.012.015.014.008.007.02.017,0,0a.664.664,0,0,0,.195.107h0l.028.009h0l.026.007H8.95l.016,0a6.311,6.311,0,0,1,4.693,4.261.669.669,0,0,0,.638.467.66.66,0,0,0,.2-.031.669.669,0,0,0,.436-.84,7.653,7.653,0,0,0-4.2-4.683,4.9,4.9,0,1,0-6.173.007A7.679,7.679,0,0,0,0,15.676a.669.669,0,0,0,.669.669H18.838a.668.668,0,0,0,.245-.046.664.664,0,0,0,.243.046.678.678,0,0,0,.088-.006A.669.669,0,0,0,19.99,15.588Z" transform="translate(0.002 0.021)" fill="#333" stroke="#fff" stroke-miterlimit="10" stroke-width="0.3"/></g></svg>