<svg xmlns="http://www.w3.org/2000/svg" width="50" height="51" viewBox="0 0 50 51">
  <g fill="none" transform="translate(8 6.5)">
    <path fill="#FF4500" d="M33.75,28.1142193 C33.75,28.3767062 33.6451165,28.5566972 33.4390955,28.6616919 L17.1859045,37.421254 L17.107242,37.421254 C17.058546,37.4737513 16.9798835,37.5 16.875,37.5 C16.7701165,37.5 16.6914539,37.4737513 16.6390122,37.421254 L16.5603496,37.421254 L0.310904548,28.6616919 C0.104883439,28.560447 0,28.3767062 0,28.1142193 L0,9.34640768 L0,9.26766163 C0,9.21891409 0.0262208598,9.16266687 0.0786625794,9.11016951 L0.0786625794,9.03517324 L0.235987775,8.87768112 L0.314650354,8.79893507 L16.5603496,0.0393730225 C16.7701165,-0.0131243408 16.9761376,-0.0131243408 17.1859045,0.0393730225 L33.4353496,8.79893503 L33.5140122,8.87768108 L33.6713374,9.03517321 L33.6713374,9.11391925 L33.75,9.26766163 L33.75,9.34640768 L33.75,28.1142193 Z M1.25110988,27.7242388 L16.2494451,35.8575821 L16.2494451,18.4959502 L1.25110988,10.3626069 L1.25110988,27.7242388 Z M23.9846004,13.5686966 L9.06118201,5.51409928 L1.95158155,9.34640768 L16.875,17.401005 L23.9846004,13.5686966 Z M10.3909545,4.80913455 L25.3106271,12.8637318 L31.7946726,9.34265786 L16.875,1.2918104 L10.3909545,4.80913455 Z M32.4988901,27.7242388 L32.4988901,10.3626068 L17.5005549,18.4959502 L17.5005549,35.8575821 L32.4988901,27.7242388 Z"/>
    <path stroke="#FF4500" d="M16.75 18.25L.75 28.25M1.25 10L16.25 36.25"/>
  </g>
</svg>
