<svg xmlns="http://www.w3.org/2000/svg" width="50" height="51" viewBox="0 0 50 51">
  <g fill="none" transform="translate(7.5 10)">
    <path stroke="#FF4500" stroke-width="1.5" d="M15.7153337,30.2484602 C23.7622573,30.1333082 30.25,23.5743009 30.25,15.5 C30.25,7.35379994 23.6462001,0.75 15.5,0.75 C11.3382999,0.75 7.45598638,2.48151312 4.68143963,5.47386909 C2.16948234,8.18302162 0.75,11.7294939 0.75,15.5 C0.75,17.6300541 1.20136713,19.6947056 2.06169098,21.5898739 L15.7153337,30.2484602 Z" transform="rotate(-180 15.5 15.5)"/>
    <g stroke="#FF4500" transform="rotate(30 2.072 57.517)">
      <path fill="#333" d="M1.47005986,1.36221879 L1.47005986,2.04277435 L6.07191172,2.04277435 L6.07191172,1.36221879 L1.47005986,1.36221879 Z"/>
      <path fill="#FF4500" d="M-0.490588284,3.3374323 L-0.490588284,4.01798786 L4.11126357,4.01798786 L4.11126357,3.3374323 L-0.490588284,3.3374323 Z" transform="rotate(90 1.81 3.678)"/>
    </g>
    <polyline stroke="#FF4500" stroke-width="1.5" points="16 3 16 14.059 21 18"/>
    <polygon fill="#FF4500" points="15 25 16 25 16 28 15 28"/>
    <polygon fill="#FF4500" points="5 14 6 14 6 17 5 17" transform="rotate(-90 5.5 15.5)"/>
    <polygon fill="#FF4500" points="7 7 8 7 8 10 7 10" transform="rotate(-45 7.5 8.5)"/>
    <polygon fill="#FF4500" points="7 21 8 21 8 24 7 24" transform="rotate(-135 7.5 22.5)"/>
  </g>
</svg>
