<svg xmlns="http://www.w3.org/2000/svg" width="29" height="29" viewBox="0 0 29 29">
  <path d="M18.7473467,0.0193719926 L18.7473467,0.0193719926 L19.2187567,0.0193719926 C20.0144306,0.0193719926 20.6599142,0.720528011 20.6599142,1.51655598 L20.6599142,3.8445307 L20.656917,3.8445307 C20.656917,4.22666188 20.3950514,4.36134707 20.1298346,4.36134707 C19.8646178,4.36134707 19.6027522,4.18297828 19.6027522,3.91776149 C19.6027522,3.91289989 19.5123642,3.9091711 19.5123642,3.90430948 L19.5123642,1.99657994 C19.5123642,1.46614636 19.2688122,1.16692198 18.7383551,1.16692198 L17.9823291,1.16692198 L17.9823291,1.16692198 L17.3207503,1.16692198 C17.3159123,1.16692198 17.2893623,1.10265918 17.2848783,1.10265918 C17.0196615,1.10265918 16.7817263,0.820993197 16.7817263,0.555776384 C16.7817263,0.290559571 17.2172643,0.075775995 17.2172643,0.075775995 L17.2172643,0.0193719926 L18.7473467,0.0193719926 Z M3.44668843,0.0757760416 L3.44668843,0.0193720392 L1.91662968,0.0193720392 L1.91662968,0.0193720392 L1.4422225,0.0193720392 C0.646572132,0.0193720392 0.00406215956,0.720528012 0.00406215956,1.51655598 L0.00406215956,3.8445307 L0.00406215956,3.8445307 C0.00406215956,4.22666188 0.219223361,4.36134707 0.484440151,4.36134707 C0.749656941,4.36134707 1.05933613,4.16466467 1.05933613,3.89944788 C1.05933613,3.89458628 1.15161212,3.90917108 1.15161212,3.90430948 L1.15161212,1.99657994 C1.15161212,1.46614636 1.39219051,1.16692198 1.92262411,1.16692198 L3.06420326,1.16692198 L3.06420326,1.16692198 L3.37574685,1.16692198 C3.38023084,1.16692198 3.38433724,1.10265918 3.38919886,1.10265918 C3.65441565,1.10265918 3.89796764,0.854245586 3.89796764,0.589217586 C3.89796764,0.324000843 3.82922082,0.0757760416 3.44668843,0.0757760416 Z M3.82922082,11.6241053 L3.82922082,11.6098981 L3.82922082,4.22666191 L3.06417964,4.22666191 L3.06417964,11.6098981 L3.06417964,11.6241053 L3.06417964,16.4674151 L3.82922082,16.4674151 L3.82922082,11.6241053 Z M1.05933611,16.8849935 C1.05933611,16.6197767 0.797116521,16.3874111 0.531876116,16.3874111 C0.26663571,16.3874111 0.00403854356,16.4673915 0.00403854356,16.8498767 L0.00403854356,16.8498767 L0.00403854356,19.2861518 C0.00403854356,20.0818257 0.646548516,20.6750589 1.44219889,20.6750589 L3.06415603,20.6750589 L3.06415603,20.6750589 L3.37569961,20.6750589 C3.38018361,20.6750589 3.38429,20.6907293 3.38915162,20.6907293 C3.65436841,20.6907293 3.89792041,20.4822941 3.89792041,20.2170773 C3.89792041,19.9518606 3.8291972,19.7434254 3.44666482,19.7434254 L3.44666482,19.9100178 L1.91660606,19.9100178 L1.91660606,19.7546354 C1.15156489,19.694125 1.15156489,19.295167 1.15156489,18.8058446 L1.15156489,16.8984927 C1.15158851,16.8935839 1.05933611,16.8894775 1.05933611,16.8849935 Z M5.35927957,11.6241053 L5.35927957,11.6098981 L5.35927957,4.22666191 L4.97677078,4.22666191 L4.97677078,11.6098981 L4.97677078,11.6241053 L4.97677078,14.5547768 L5.35927957,14.5547768 L5.35927957,11.6241053 Z M5.74178836,15.3198415 L4.97674719,15.3198415 L4.97674719,16.4673915 L5.74178836,16.4673915 L5.74178836,15.3198415 Z M7.27184711,11.6241053 L7.27184711,11.6098981 L7.27184711,4.22666191 L6.88933832,4.22666191 L6.88933832,11.6098981 L6.88933832,11.6241053 L6.88933832,14.5547768 L7.27184711,14.5547768 L7.27184711,11.6241053 Z M7.6543559,15.3198415 L6.88933832,15.3198415 L6.88933832,16.4673915 L7.6543559,16.4673915 L7.6543559,15.3198415 Z M9.56694704,11.6241053 L9.56694704,11.6098981 L9.56694704,4.22666191 L8.03688826,4.22666191 L8.03688826,11.6098981 L8.03688826,11.6241053 L8.03688826,14.5547768 L9.56694704,14.5547768 L9.56694704,11.6241053 Z M9.56694702,16.4673915 L9.56694702,15.3198415 L8.80190585,15.3198415 L8.80190585,16.4673915 L9.56694702,16.4673915 Z M12.6270645,11.6241053 L12.6270645,11.6098981 L12.6270645,4.22666191 L11.4795146,4.22666191 L11.4795146,11.6098981 L11.4795146,11.6241053 L11.4795146,14.5547768 L12.6270645,14.5547768 L12.6270645,11.6241053 Z M10.714497,16.4673915 L11.4795146,16.4673915 L11.4795146,15.3198415 L10.714497,15.3198415 L10.714497,16.4673915 Z M13.7746145,11.6098981 L13.7746145,4.22666191 L13.3921293,4.22666191 L13.3921293,11.6098981 L13.3921293,11.6241053 L13.3921293,14.5547768 L13.7746145,14.5547768 L13.7746145,11.6241053 L13.7746145,11.6098981 Z M13.0095969,16.4673915 L13.7746145,16.4673915 L13.7746145,15.3198415 L13.0095969,15.3198415 L13.0095969,16.4673915 Z M15.6872292,11.6098981 L15.6872292,4.22666191 L15.3046968,4.22666191 L15.3046968,11.6098981 L15.3046968,11.6241053 L15.3046968,14.5547768 L15.6872292,14.5547768 L15.6872292,11.6241053 L15.6872292,11.6098981 Z M14.9221645,16.4673915 L15.6872292,16.4673915 L15.6872292,15.3198415 L14.9221645,15.3198415 L14.9221645,16.4673915 Z M17.5997968,11.6241053 L17.5997968,11.6098981 L17.5997968,4.22666191 L16.8347792,4.22666191 L16.8347792,11.6098981 L16.8347792,11.6241053 L16.8347792,16.4674151 L17.5997968,16.4674151 L17.5997968,11.6241053 Z M19.2187331,20.675059 C20.014407,20.675059 20.6598907,20.0818258 20.6598907,19.2861518 L20.6598907,16.8498767 L20.6568935,16.8498767 C20.6568935,16.4673915 20.4417323,16.3874111 20.1765155,16.3874111 C19.9112987,16.3874111 19.6027287,16.6108323 19.6027287,16.8760491 C19.6027287,16.8812647 19.5123407,16.8935603 19.5123407,16.8984455 L19.5123407,18.8057974 C19.5123407,19.2832018 19.5123407,19.6761418 18.7473231,19.7508594 L18.7473231,19.9099706 L17.2172407,19.9099706 L17.2172407,19.7433782 C17.2172407,19.7433782 16.7817028,19.9585394 16.7817028,20.2237562 C16.7817028,20.488973 17.0196379,20.6906822 17.2848547,20.6906822 C17.2893151,20.6906822 17.3158651,20.6750118 17.3207267,20.6750118 L17.9823055,20.6750118 L17.9823055,20.6750118 L19.2187331,20.6750117 L19.2187331,20.675059 Z" transform="translate(4 4)"/>
</svg>
