<svg xmlns="http://www.w3.org/2000/svg" width="28" height="28" viewBox="0 0 28 28"><rect width="28" height="28" fill="none"/><g transform="translate(6 4)"><path d="M.625,20A.626.626,0,0,1,0,19.374H.062v-.688a8.022,8.022,0,0,1,5-7.445,6,6,0,1,1,5.875,0A8.02,8.02,0,0,1,16,18.661v.688a.629.629,0,0,1-.188.447.618.618,0,0,1-.437.178h-.013a.611.611,0,0,1-.612-.588V18.7a6.75,6.75,0,1,0-13.5,0v.676A.626.626,0,0,1,.625,20ZM8,1.667A4.584,4.584,0,1,0,12.632,6.25,4.613,4.613,0,0,0,8,1.667Z" fill="#333"/></g></svg>