<svg xmlns="http://www.w3.org/2000/svg" width="50" height="50" viewBox="0 0 50 50">
  <path d="M27.6615767,0 L6.0884233,0 L0,9.19369104 L0,24.5165094 L33.75,24.5165094 L33.75,9.19369104 L27.6615767,0 Z M31.9666193,9.19369104 L27.6136364,9.19369104 L27.6136364,2.68149322 L31.9666193,9.19369104 Z M7.67045455,1.53228184 L26.0795455,1.53228184 L26.0795455,9.19369104 L21.4772727,9.19369104 C21.4772727,11.7315328 19.4158381,13.7905366 16.875,13.7905366 C14.3341619,13.7905366 12.2727273,11.7315328 12.2727273,9.19369104 L7.67045455,9.19369104 L7.67045455,1.53228184 L7.67045455,1.53228184 Z M6.13636364,2.68149322 L6.13636364,9.19369104 L1.78338068,9.19369104 L6.13636364,2.68149322 Z M32.2159091,22.9842276 L1.53409091,22.9842276 L1.53409091,10.7259729 L10.9303977,10.7259729 C11.6111506,13.3691591 14.0177557,15.3228184 16.875,15.3228184 C19.7322443,15.3228184 22.1388494,13.3691591 22.8196023,10.7259729 L32.2159091,10.7259729 L32.2159091,22.9842276 Z" transform="translate(8.125 12.5)"/>
</svg>
