<svg xmlns="http://www.w3.org/2000/svg" width="22" height="12" viewBox="0 0 22 12">
  <g fill="none" fill-rule="evenodd" transform="translate(-3 -8)">
    <polygon points="0 0 27 0 27 27 0 27"/>
    <path fill="#FF5413" d="M0.75,0 L21.25,0 C21.6642136,-7.6089797e-17 22,0.335786438 22,0.75 C22,1.16421356 21.6642136,1.5 21.25,1.5 L0.75,1.5 C0.335786438,1.5 5.07265313e-17,1.16421356 0,0.75 C-5.07265313e-17,0.335786438 0.335786438,7.6089797e-17 0.75,0 Z M0.75,5 L21.25,5 C21.6642136,5 22,5.33578644 22,5.75 C22,6.16421356 21.6642136,6.5 21.25,6.5 L0.75,6.5 C0.335786438,6.5 5.07265313e-17,6.16421356 0,5.75 C-5.07265313e-17,5.33578644 0.335786438,5 0.75,5 Z M0.75,10 L21.25,10 C21.6642136,10 22,10.3357864 22,10.75 C22,11.1642136 21.6642136,11.5 21.25,11.5 L0.75,11.5 C0.335786438,11.5 5.07265313e-17,11.1642136 0,10.75 C-5.07265313e-17,10.3357864 0.335786438,10 0.75,10 Z" transform="translate(3 8)"/>
  </g>
</svg>
