<svg xmlns="http://www.w3.org/2000/svg" width="46" height="46" viewBox="0 0 46 46">
  <g fill="none" fill-rule="evenodd">
    <circle cx="23" cy="23" r="23" fill="#589CEB"/>
    <path fill="#FFF" fill-rule="nonzero" d="M6.20056099.00539034993C4.09907087.00539034993 2.39422758 1.71554106 2.39422758 3.81172376 2.39422758 5.91321387 4.10437829 7.62344751 6.20595134 7.62344751 8.30752438 7.62344751 10.0176751 5.9132968 10.0176751 3.81172376 10.0175922 1.71554106 8.30205111.00539034993 6.20056099.00539034993zM6.20056099 5.81668515C5.09620268 5.81668515 4.20090702 4.92138949 4.20090702 3.81703118 4.20090702 2.71267287 5.09620268 1.81737721 6.20056099 1.81737721 7.3049193 1.81737721 8.20021496 2.71267287 8.20021496 3.81703118 8.20560531 4.92138949 7.31030965 5.81668515 6.20056099 5.81668515zM9.36892575 8.51335282L8.31274888 8.51335282C7.94819536 8.51335282 7.6158181 8.73850359 7.4818057 9.07088086L6.21125876 12.158805 4.93532147 9.07088086C4.79591873 8.73311324 4.46893181 8.51335282 4.10437829 8.51335282L3.042894 8.51335282C1.36491953 8.51335282.0031512815 9.88042849.0031512815 11.5530955L.0031512815 22.3395175C.0031512815 22.8380834.405188458 23.2455109.909144712 23.2455109L1.41310097 23.2455109 1.41310097 31.6516372C1.41310097 32.1502031 1.81513814 32.5576306 2.3190944 32.5576306L10.1033402 32.5576306C10.6019061 32.5576306 11.0093336 32.1555935 11.0093336 31.6516372L11.0093336 23.245428 11.5078995 23.245428C12.0064654 23.245428 12.413893 22.8433908 12.413893 22.3394345L12.413893 11.558403C12.4139759 9.88034556 11.0469002 8.51335282 9.36892575 8.51335282zM9.19734676 30.7508683L7.11725219 30.7508683 7.11725219 26.5478051C7.11725219 26.0492392 6.71521501 25.6418117 6.21125876 25.6418117 5.71269286 25.6418117 5.30526533 26.0438489 5.30526533 26.5478051L5.30526533 30.7508683 3.22517076 30.7508683 3.22517076 23.245428 9.20273711 23.245428 9.20273711 30.7508683 9.19734676 30.7508683zM1.8045233 21.4387485L1.8045233 11.558403C1.8045233 10.8775603 2.35674392 10.3253397 3.03758658 10.3253397L3.49327847 10.3253397 5.36961781 14.887566C5.67520919 15.6059753 6.72060536 15.6541567 7.04228486 14.887566L8.91862421 10.3306471 9.3743161 10.3306471C10.0551588 10.3306471 10.6073794 10.8828677 10.6073794 11.5637104L10.6073794 21.4440559 1.8045233 21.4440559 1.8045233 21.4387485z" transform="translate(17 7)"/>
  </g>
</svg>
