<svg xmlns="http://www.w3.org/2000/svg" xmlns:xlink="http://www.w3.org/1999/xlink" width="940" height="300" viewBox="0 0 940 300">
  <defs>
    <linearGradient id="header-bg-b" x1="50%" x2="50%" y1="99.165%" y2="0%">
      <stop offset="0%" stop-color="#D2F3EC"/>
      <stop offset="100%" stop-color="#CAE8FF"/>
    </linearGradient>
    <rect id="header-bg-a" width="940" height="300"/>
    <linearGradient id="header-bg-c" x1="50%" x2="50%" y1="0%" y2="100%">
      <stop offset="0%" stop-color="#9CF4ED"/>
      <stop offset="100%" stop-color="#0072A9"/>
    </linearGradient>
    <linearGradient id="header-bg-e" x1="50%" x2="50%" y1="0%" y2="100%">
      <stop offset="0%" stop-color="#9CE8F4"/>
      <stop offset="100%" stop-color="#1F93CC"/>
    </linearGradient>
    <path id="header-bg-f" d="M0.18046875,0.483664773 C0.18046875,3.48632813 2.65439453,8.73899148 6.35561523,10.2272727 C6.28901367,10.2272727 41.7871094,10.2272727 41.8091309,10.2272727 C46.5040039,7.45738636 50.8288086,2.36345881 50.6102051,0.483664773 C50.5812012,-0.509765625 0.226123047,0.813920455 0.18046875,0.483664773 Z"/>
  </defs>
  <g fill="none" fill-rule="evenodd">
    <mask id="header-bg-d" fill="#fff">
      <use xlink:href="#header-bg-a"/>
    </mask>
    <use fill="url(#header-bg-b)" xlink:href="#header-bg-a"/>
    <path fill="url(#header-bg-c)" d="M154.845905,266.445417 C246.288874,261.928125 343.908064,262.498256 453.952253,266.445417 C563.996443,270.392578 786.287687,237.744458 861.400273,233.929688 C911.475331,231.386507 949.735119,233.189485 976.179638,239.33862 L976.179638,300.64445 L-29.8698957,303.072656 C-31.3788192,280.665666 -27.9040334,267.99301 -19.4455383,265.054687 C-10.11789,261.814438 -17.8902819,274.978602 154.845905,266.445417 Z" mask="url(#header-bg-d)" opacity=".4"/>
    <path fill="url(#header-bg-e)" d="M-38.8732616,233.425781 C130.343996,230.213169 278.269632,274.21955 408.573641,281.240188 C538.87765,288.260827 772.762302,270.943658 833.661097,271.351622 C873.520234,271.61864 915.47302,272.171286 944.89614,273.407356 C944.067792,285.682386 943.653618,297.054414 943.653618,307.523438 L-26.299472,307.523438 C-56.5741247,258.540625 -60.7653879,233.841406 -38.8732616,233.425781 Z" mask="url(#header-bg-d)" opacity=".5"/>
    <path fill="#FFF" d="M298.200005,79.2 L198.6,79.2 C202.201251,73.4348323 208.600056,69.6 215.893697,69.6 C216.28994,69.6 216.683542,69.6113183 217.074199,69.6336496 C219.414815,63.9782898 224.982812,60 231.47912,60 C233.10701,60 234.676609,60.2498122 236.151738,60.7132262 C238.975763,55.9742211 244.148408,52.8 250.061739,52.8 C256.773093,52.8 262.530354,56.8887731 264.9828,62.7133959 C265.971326,62.5079625 266.995526,62.4 268.044919,62.4 C273.521757,62.4 278.31239,65.3407374 280.926743,69.7307422 C281.616012,69.6444538 282.318271,69.6 283.030903,69.6 C289.726391,69.6 295.506206,73.524126 298.2,79.1999991 Z" mask="url(#header-bg-d)" opacity=".6"/>
    <path fill="#FFF" d="M406.200003 118.8L363 118.8C364.56337 116.708018 367.120792 115.311305 370.033188 115.206355 370.81457 112.432899 373.363033 110.4 376.386285 110.4 377.431303 110.4 378.419593 110.642893 379.297783 111.075305 380.573727 109.227134 382.823496 108 385.38592 108 388.235844 108 390.699019 109.517948 391.865823 111.719991 392.292259 111.641306 392.733625 111.6 393.185603 111.6 395.899703 111.6 398.23115 113.08945 399.24494 115.218311 399.423341 115.206176 399.603551 115.2 399.785335 115.2 402.583197 115.2 405.00831 116.662994 406.2 118.799999zM293.4 232.8L256.2 232.8C257.537384 230.685567 260.016719 229.25088 262.866731 229.201326 263.707486 227.081532 265.628566 225.6 267.863968 225.6 268.791957 225.6 269.665776 225.85532 270.430626 226.30563 271.461687 224.454135 273.451274 223.2 275.736504 223.2 278.259839 223.2 280.422713 224.729093 281.332703 226.903079 281.67719 226.835457 282.033356 226.8 282.397881 226.8 284.314551 226.8 286.000142 227.780249 286.971814 229.262356 287.257919 229.221269 287.550502 229.2 287.848098 229.2 290.331361 229.2 292.465522 230.680914 293.4 232.8zM51 130.8L4.2 130.8C5.74575825 128.158001 8.52841351 126.31195 11.7650851 126.035895 12.6720042 123.220699 15.1533388 121.2 18.0722409 121.2 19.2544566 121.2 20.364893 121.531479 21.3280175 122.112968 22.7558289 120.10909 25.1141996 118.8 27.7818147 118.8 31.0635901 118.8 33.8773361 120.781258 35.0662243 123.6 37.3744774 123.600746 39.4088719 124.759843 40.6070748 126.521303 41.5191387 126.185099 42.5158206 126 43.5598721 126 46.9948047 126 49.9170036 128.003538 51 130.8z" mask="url(#header-bg-d)"/>
    <g mask="url(#header-bg-d)">
      <g transform="translate(57 247.2)">
        <g transform="translate(3.6 7.2)">
          <g transform="translate(.825 1.636)">
            <mask id="header-bg-g" fill="#fff">
              <use xlink:href="#header-bg-f"/>
            </mask>
            <use fill="#D99359" xlink:href="#header-bg-f"/>
            <polygon fill="#BE8654" points="-.825 0 51.975 0 51.975 3.273 -.825 3.273" mask="url(#header-bg-g)"/>
            <polygon fill="#BE8654" points=".275 7.091 46.75 7.091 46.75 11.455 .275 11.455" mask="url(#header-bg-g)"/>
          </g>
          <rect width="52.8" height="3" fill="#E4B079"/>
        </g>
        <polygon fill="#9E5617" points="27.755 0 28.8 1.546 3.524 19.2 0 19.2"/>
      </g>
    </g>
  </g>
</svg>
