<svg xmlns="http://www.w3.org/2000/svg" width="58" height="58" viewBox="0 0 58 58">
  <g fill="none" fill-rule="evenodd">
    <rect width="58" height="58" fill="#666" rx="8"/>
    <g transform="translate(15 8)">
      <path stroke="#333" stroke-dasharray="2 2 2 2" stroke-linecap="square" d="M15.375.5L26.625.5M18.375 42.5L29.625 42.5"/>
      <path fill="#FFF" stroke="#333" d="M21.3000722,13.2769829 C19.9494897,11.8323483 18.020263,11 16.0034427,11 L11.9958014,11 C9.97913579,11 8.04975432,11.8323484 6.69932655,13.2769829 L0.237515809,20.2427683 C-0.0879425407,20.5864697 -0.0785022256,21.1228616 0.263205808,21.448056 L2.46403474,23.5914463 C2.64897183,23.763297 2.87693198,23.8586314 3.13971291,23.8491446 C3.38547032,23.8398134 3.62178746,23.7248834 3.7887725,23.5427683 L8.42752124,18.3861586 L8.42752124,41.1197512 C8.42752124,41.6076205 8.83097817,42 9.33023098,42 L12.4436742,42 C12.9430818,42 13.346384,41.6076205 13.346384,41.1197512 L13.346384,27.8771384 L14.6530149,27.8771384 L14.6530149,41.1197512 C14.6530149,41.6076205 15.0563171,42 15.5564984,42 L18.6693226,42 C19.1693492,42 19.5726514,41.6076205 19.5726513,41.1197512 L19.5726513,18.3861586 L24.2115549,23.5427683 C24.3814217,23.728876 24.6181763,23.839159 24.869281,23.8491446 C25.1055981,23.8586314 25.3598673,23.7632971 25.5355188,23.5914463 L27.7363477,21.448056 C28.0788296,21.1228616 28.0876509,20.5864697 27.7628116,20.2427683 L21.3000722,13.2769829 Z"/>
      <path fill="#FF4500" fill-rule="nonzero" d="M1.98803976,0.706608696 C2.14948298,0.290695652 2.51829032,8.69565217e-05 2.94725886,8.69565217e-05 C3.52511037,8.69565217e-05 3.94127866,0.537391304 3.9935997,1.17773913 C3.9935997,1.17773913 4.02184026,1.33669565 3.95967902,1.62286957 C3.87503734,2.0126087 3.67607338,2.35886957 3.40782803,2.62313043 L1.98803976,4 L0.592171966,2.62304348 C0.323926624,2.35886957 0.124962663,2.01252174 0.0403209771,1.62278261 C-0.0218402607,1.3366087 0.00640030161,1.17765217 0.00640030161,1.17765217 C0.0587213435,0.537304348 0.474889631,0 1.05274114,0 C1.48178968,0 1.82659655,0.290695652 1.98803976,0.706608696 Z" transform="translate(14 17)"/>
      <path fill="#FFF" stroke="#333" d="M14.0034901,9 C16.2030095,9 18,7.20025959 18,4.99544144 C18,2.79150967 16.2030095,0.999999958 14.0034901,1 C11.797113,1 10,2.79150971 10,4.99544144 C10,7.20849029 11.797113,9 14.0034901,9 Z"/>
    </g>
  </g>
</svg>
