<?xml version="1.0" encoding="UTF-8"?>
<svg width="10px" height="12px" viewBox="0 0 10 12" version="1.1" xmlns="http://www.w3.org/2000/svg" xmlns:xlink="http://www.w3.org/1999/xlink">
    <!-- Generator: Sketch 50.2 (55047) - http://www.bohemiancoding.com/sketch -->
    <title>锁 1 (1)</title>
    <desc>Created with Sketch.</desc>
    <defs></defs>
    <g id="Page-2" stroke="none" stroke-width="1" fill="none" fill-rule="evenodd">
        <g id="1_1_Availabilities" transform="translate(-331.000000, -141.000000)" fill="#FFFFFF" fill-rule="nonzero">
            <g id="Group" transform="translate(0.000000, 115.000000)">
                <g id="Cells/Editing/Select-Copy" transform="translate(325.000000, 21.000000)">
                    <g id="锁-(1)">
                        <g id="锁-1-(1)" transform="translate(6.000000, 5.000000)">
                            <path d="M9.19287335,5.03126372 L8.26742957,5.03126372 L8.26742957,3.03352563 C8.26742957,1.36050918 6.80264633,0 5.00048699,0 C3.19818229,0 1.73172728,1.36050918 1.73172728,3.03364657 L1.73172728,5.03123684 L0.807272019,5.03123684 C0.361463998,5.03123684 0,5.36652005 0,5.78038359 L0,11.2499395 C0,11.664448 0.361463998,12 0.807272019,12 L9.19370196,12 C9.63950998,12 10,11.6644749 10,11.2499395 L10,5.78038359 C10,5.36649318 9.63868137,5.03123684 9.19272798,5.03123684 L9.19287335,5.03126372 Z M5.45367984,8.65772948 L5.45367984,9.85202139 C5.45344725,9.90611927 5.40623087,9.94993774 5.34782097,9.95044835 L4.65392348,9.95044835 C4.59520829,9.95015274 4.54770118,9.90628051 4.54730868,9.8520617 L4.54730868,8.65774292 C4.22134418,8.50297408 3.99558364,8.19279143 3.99558364,7.82922307 C3.99558364,7.31474232 4.44543296,6.89635048 4.99965838,6.89635048 C5.55472694,6.89635048 6.00472164,7.31472888 6.00472164,7.82908869 C6.00555025,8.19279143 5.77978971,8.50298752 5.45369438,8.65760855 L5.45367984,8.65772948 Z M7.01366629,5.03126372 L2.98706056,5.03126372 L2.98706056,3.08306832 C2.98706056,2.05256156 3.89120755,1.21334576 5.00119931,1.21334576 C6.11133644,1.21334576 7.01381166,2.05254813 7.01381166,3.08306832 L7.01381166,5.03126372 L7.01366629,5.03126372 Z" id="Shape"></path>
                        </g>
                    </g>
                </g>
            </g>
        </g>
    </g>
</svg>