<?xml version="1.0" encoding="UTF-8"?>
<svg width="104px" height="79px" viewBox="0 0 104 79" version="1.1" xmlns="http://www.w3.org/2000/svg" xmlns:xlink="http://www.w3.org/1999/xlink">
    <!-- Generator: Sketch 50.2 (55047) - http://www.bohemiancoding.com/sketch -->
    <title>Pop-up window background （3-1）</title>
    <desc>Created with Sketch.</desc>
    <defs></defs>
    <g id="Page-1" stroke="none" stroke-width="1" fill="none" fill-rule="evenodd">
        <g id="3_1_coupons" transform="translate(-136.000000, -113.000000)">
            <g id="Group-4" transform="translate(35.000000, 86.000000)">
                <g id="Pop-up-window-background-（3-1）" transform="translate(102.000000, 27.000000)">
                    <g id="Group-10">
                        <path d="M17,77.8350515 L86.5360825,77.8350515" id="Line-8" stroke="#46287C" stroke-width="2" stroke-linecap="round"></path>
                        <path d="M93.2371134,77.8350515 L94.2680412,77.8350515" id="Line-9" stroke="#46287C" stroke-width="2" stroke-linecap="round"></path>
                        <path d="M97.3608247,77.8350515 L101.484536,77.8350515" id="Line-10" stroke="#46287C" stroke-width="2" stroke-linecap="round"></path>
                        <path d="M9.79381443,77.8350515 L10.8247423,77.8350515" id="Line-9-Copy" stroke="#46287C" stroke-width="2" stroke-linecap="round" transform="translate(10.309278, 77.835052) scale(-1, 1) translate(-10.309278, -77.835052) "></path>
                        <path d="M2.57731959,77.8350515 L6.70103093,77.8350515" id="Line-10-Copy" stroke="#46287C" stroke-width="2" stroke-linecap="round" transform="translate(4.639175, 77.835052) scale(-1, 1) translate(-4.639175, -77.835052) "></path>
                        <path d="M33.0445805,0 L33.0445805,2.06185567 M35.4684372,0.787558786 L34.2565088,2.45563506 M36.966463,2.84941446 L35.0055217,3.4865629 M36.966463,5.39800822 L35.0055217,4.76085978 M35.4684372,7.45986389 L34.2565088,5.79178762 M33.0445805,8.24742268 L33.0445805,6.18556701 M30.6207238,7.45986389 L31.8326521,5.79178762 M29.1226979,5.39800822 L31.0836392,4.76085978 M29.1226979,2.84941446 L31.0836392,3.4865629 M30.6207238,0.787558786 L31.8326521,2.45563506" id="Line-14" stroke="#FF7B00" stroke-linecap="round"></path>
                        <path d="M88.5773196,48 L88.5773196,49.2531813 M90.0505225,48.4786727 L89.3139211,49.4925176 M90.961012,49.7318539 L89.7691658,50.1191082 M90.961012,51.2808712 L89.7691658,50.8936169 M90.0505225,52.5340524 L89.3139211,51.5202075 M88.5773196,53.0127251 L88.5773196,51.7595438 M87.1041166,52.5340524 L87.8407181,51.5202075 M86.1936272,51.2808712 L87.3854734,50.8936169 M86.1936272,49.7318539 L87.3854734,50.1191082 M87.1041166,48.4786727 L87.8407181,49.4925176" id="Line-14-Copy" stroke="#FF7B00" stroke-linecap="round"></path>
                        <path d="M86.5360825,16.4948454 L90.6597938,16.4948454" id="Line-12" stroke="#4A90E2" stroke-linecap="round"></path>
                        <path d="M89.628866,71.1340206 L93.7525773,71.1340206" id="Line-12-Copy-2" stroke="#FEDB01" stroke-linecap="round"></path>
                        <path d="M88.5979381,14.4329897 L88.5979381,18.556701" id="Line-13" stroke="#4A90E2" stroke-linecap="round"></path>
                        <path d="M91.6907216,69.0721649 L91.6907216,71.1340206" id="Line-13-Copy-2" stroke="#FEDB01" stroke-linecap="round"></path>
                        <path d="M12.3092784,17.5257732 L16.4329897,17.5257732" id="Line-12-Copy" stroke="#7ED321" stroke-linecap="round"></path>
                        <path d="M14.371134,15.4639175 L14.371134,17.5257732" id="Line-13-Copy" stroke="#7ED321" stroke-linecap="round"></path>
                        <circle id="Oval-9" stroke="#7ED321" cx="93.7525773" cy="30.9278351" r="1.03092784"></circle>
                        <circle id="Oval-9-Copy-2" stroke="#FEDB01" cx="69.9793814" cy="4.27835052" r="2.06185567"></circle>
                        <circle id="Oval-9-Copy" stroke="#FEDB01" cx="11.0618557" cy="65.0618557" r="2.06185567"></circle>
                        <circle id="Oval-9-Copy-3" stroke="#4A90E2" cx="1" cy="46" r="1"></circle>
                    </g>
                    <g id="提醒-3" transform="translate(35.000000, 13.000000)" fill-rule="nonzero">
                        <path d="M4.74584718,50.3903654 C6.45681063,51.3787375 8.41694352,51.7026578 10.244186,51.3039867 C11.6146179,51.0049834 12.7940199,50.3239203 13.6578073,49.3521595 L2.53654485,48.5299003 C3.14285714,49.2607973 3.8820598,49.8920266 4.74584718,50.3903654 Z M1.14950166,45.9302326 L15.1777409,46.9684385 L17.4950166,42.948505 L1.32392027,41.7524917 C0.792358804,43.0481728 0.725913621,44.5016611 1.14950166,45.9302326 Z M25.1943522,14.9667774 C18.4169435,11.0548173 9.71262458,13.3887043 5.80066445,20.166113 C3.42524917,24.2774086 3.25913621,29.2857143 5.36877076,33.5548173 L5.65946844,34.1528239 L2.65282392,39.3521595 L22.345515,40.8056478 C25.7009967,39.7508306 28.5913621,37.4833887 30.3936877,34.3604651 C34.3056478,27.5830565 31.9717608,18.8787375 25.1943522,14.9667774 Z M16.6644518,21.8355482 C15.7009967,23.5049834 13.5747508,24.0697674 11.9053156,23.1146179 C10.2358804,22.1594684 9.67109635,20.0249169 10.6262458,18.3554817 C11.589701,16.6860465 13.7159468,16.1212625 15.3853821,17.076412 C17.0548173,18.0315615 17.627907,20.166113 16.6644518,21.8355482 Z" id="Shape" fill="#FFBC00"></path>
                        <path d="M11.8990997,23.1143394 C13.5675623,24.0776267 15.7010172,23.5059692 16.6643046,21.8375066 C17.6275919,20.1690439 17.0559344,18.035589 15.3874718,17.0723017 C14.3081657,16.449164 12.9784057,16.4491639 11.8990996,17.0723016 C10.8197935,17.6954393 10.1549135,18.8470452 10.1549135,20.0933205 C10.1549135,21.3395958 10.8197935,22.4912017 11.8990997,23.1143394 Z" id="Shape" fill="#FFFFFF"></path>
                        <path d="M30.8683275,16.0531476 C31.0178291,16.609626 31.5244736,16.9750745 32.0726464,16.9750745 C32.1806198,16.9750745 32.2885932,16.9584632 32.3965667,16.9335463 C33.0610185,16.7591277 33.4596896,16.0697589 33.2769653,15.4053071 L31.2420816,7.80563928 C31.067663,7.14118746 30.3782942,6.74251636 29.7138424,6.92524061 C29.0493906,7.09965922 28.6507195,7.78902799 28.8334437,8.45347982 L30.8683275,16.0531476 Z M61.3998889,25.2225828 C61.2254703,24.558131 60.5361015,24.1677655 59.8716497,24.3421841 L52.2719819,26.3770679 C51.6075301,26.5514865 51.208859,27.2408552 51.3915833,27.9053071 C51.5410849,28.4617855 52.0477295,28.827234 52.5959022,28.827234 C52.7038756,28.827234 52.8118491,28.8106227 52.9198225,28.7857057 L60.5194903,26.750822 C61.1839421,26.5680978 61.5743075,25.8870346 61.3998889,25.2225828 Z M43.0527128,20.1561376 C43.2520484,20.2724167 43.4596896,20.3222506 43.6756364,20.3222506 C44.1075301,20.3222506 44.5228125,20.0979981 44.7553706,19.699327 L48.6922477,12.8886958 C49.0327793,12.2906891 48.8334437,11.5348752 48.2354371,11.186038 C47.6374304,10.8455064 46.8816165,11.0448419 46.5327793,11.6428486 L42.5959022,18.4534798 C42.2553706,19.0514865 42.4630118,19.8156061 43.0527128,20.1561376 Z" id="Shape" fill="#46287C" transform="translate(45.115245, 17.854047) rotate(24.000000) translate(-45.115245, -17.854047) "></path>
                    </g>
                    <g id="加息券" transform="translate(30.000000, 8.000000)" fill-rule="nonzero">
                        <path d="M9.73957553,9.63046192 C9.45967541,9.82022472 9.14182272,9.96729089 8.79550562,10.0621723 C7.13033708,10.5081149 5.42247191,9.52134831 4.97652934,7.85617978 C4.93383271,7.70436954 4.91011236,7.54781523 4.89113608,7.39600499 L2.239201,8.10761548 C0.929837703,8.45867665 0.156554307,9.80124844 0.502871411,11.1106117 L6.69388265,34.2142322 C7.04494382,35.5235955 8.39225968,36.2968789 9.6968789,35.9505618 L20.9498127,32.9333333 C22.259176,32.5822722 23.0324594,31.2349563 22.6861423,29.9303371 L16.4951311,6.8267166" id="Shape" stroke="#333333" fill="#50BCFF"></path>
                        <path d="M14.4599251,28.5925094 C13.9665418,29.7927591 14.5405743,31.1590512 15.740824,31.6524345 L26.0449438,35.8794007 C27.2404494,36.372784 28.6114856,35.7987516 29.1048689,34.5985019 L37.7770287,13.4446941 C38.270412,12.2444444 37.6963795,10.8781523 36.4961298,10.384769 L34.067166,9.38851436 C34.0339576,9.53083645 33.9912609,9.67315855 33.9343321,9.81548065 C33.3081149,11.3383271 31.5670412,12.0641698 30.0441948,11.4426966 C28.5213483,10.8164794 27.7955056,9.07540574 28.4169788,7.55730337 C28.4739076,7.41498127 28.5450687,7.28689139 28.6209738,7.1588015 L26.5762797,6.31910112" id="Shape" stroke="#333333" fill="#64C7F9"></path>
                        <path d="M24.0097378,0.379525593 L21.2629213,0.379525593 C21.2866417,0.53133583 21.3008739,0.687890137 21.3008739,0.844444444 C21.3008739,2.56654182 19.9061174,3.96129838 18.18402,3.96129838 C16.4619226,3.96129838 15.067166,2.56654182 15.067166,0.844444444 C15.067166,0.687890137 15.0813983,0.53133583 15.1051186,0.379525593 L12.3583021,0.379525593 C11.0062422,0.379525593 9.90561798,1.47540574 9.90561798,2.83220974 L9.90561798,26.7518102 C9.90561798,28.1086142 11.0062422,29.2044944 12.3583021,29.2044944 L24.0097378,29.2044944 C25.3665418,29.2044944 26.462422,28.1086142 26.462422,26.7518102 L26.462422,2.83220974 C26.462422,1.47540574 25.3617978,0.379525593 24.0097378,0.379525593 Z" id="Shape" fill="#FFFFFF"></path>
                        <path d="M24.0097378,29.58402 L12.3535581,29.58402 C10.7927591,29.58402 9.52134831,28.3126092 9.52134831,26.7518102 L9.52134831,2.83220974 C9.52134831,1.27141074 10.7927591,0 12.3535581,0 L15.1003745,0 C15.2094881,0 15.3186017,0.0474406991 15.3897628,0.132833958 C15.4609238,0.218227216 15.4941323,0.327340824 15.4751561,0.436454432 C15.4514357,0.583520599 15.4419476,0.721098627 15.4419476,0.844444444 C15.4419476,2.35305868 16.6706617,3.58177278 18.1792759,3.58177278 C19.6878901,3.58177278 20.9166042,2.35305868 20.9166042,0.844444444 C20.9166042,0.721098627 20.9071161,0.593008739 20.8833958,0.436454432 C20.8691635,0.327340824 20.897628,0.213483146 20.9735331,0.132833958 C21.0446941,0.0474406991 21.1490637,1.34834577e-15 21.2629213,1.34834577e-15 L24.0097378,1.34834577e-15 C25.5705368,1.34834577e-15 26.8419476,1.27141074 26.8419476,2.83220974 L26.8419476,26.7518102 C26.8419476,28.3126092 25.5705368,29.58402 24.0097378,29.58402 Z M12.3535581,0.759051186 C11.2102372,0.759051186 10.2803995,1.68888889 10.2803995,2.83220974 L10.2803995,26.7518102 C10.2803995,27.8951311 11.2102372,28.8249688 12.3535581,28.8249688 L24.0049938,28.8249688 C25.1483146,28.8249688 26.0781523,27.8951311 26.0781523,26.7518102 L26.0781523,2.83220974 C26.0781523,1.68888889 25.1483146,0.759051186 24.0049938,0.759051186 L21.6803995,0.759051186 L21.6803995,0.844444444 C21.6803995,2.77053683 20.1101124,4.34082397 18.18402,4.34082397 C16.2579276,4.34082397 14.6876404,2.77053683 14.6876404,0.844444444 L14.6876404,0.759051186 L12.3535581,0.759051186 Z" id="Shape" fill="#282828"></path>
                        <path d="M14.9722846,7.7423221 C14.9722846,7.97478152 14.7113608,8.16454432 14.388764,8.16454432 L11.8032459,8.16454432 C11.4806492,8.16454432 11.2149813,7.97478152 11.2197253,7.7423221 C11.2197253,7.50986267 11.4806492,7.31535581 11.8032459,7.31535581 L14.388764,7.31535581 C14.7066167,7.32009988 14.9722846,7.50986267 14.9722846,7.7423221 Z M20.0579276,7.7423221 C20.0579276,7.97478152 19.7970037,8.16454432 19.474407,8.16454432 L16.8888889,8.16454432 C16.5662921,8.16454432 16.3006242,7.97478152 16.3006242,7.7423221 C16.3006242,7.50986267 16.5615481,7.31535581 16.8888889,7.31535581 L19.474407,7.31535581 C19.7970037,7.32009988 20.0626717,7.50986267 20.0579276,7.7423221 Z M25.1483146,7.7423221 C25.1483146,7.97478152 24.8873908,8.16454432 24.564794,8.16454432 L21.9792759,8.16454432 C21.6566792,8.16454432 21.3910112,7.97478152 21.3910112,7.7423221 C21.3910112,7.50986267 21.6519351,7.31535581 21.9792759,7.31535581 L24.564794,7.31535581 C24.8873908,7.32009988 25.1530587,7.50986267 25.1483146,7.7423221 Z" id="Shape" fill="#282828"></path>
                        <path d="M14.8726592,18.663171 C14.7730337,18.663171 14.6781523,18.6252185 14.6022472,18.5540574 C14.455181,18.4069913 14.455181,18.1650437 14.6022472,18.0179775 L21.9792759,10.6409488 C22.1263421,10.4938826 22.3682896,10.4938826 22.5153558,10.6409488 C22.662422,10.788015 22.662422,11.0299625 22.5153558,11.1770287 L15.1430712,18.5540574 C15.067166,18.6252185 14.9722846,18.663171 14.8726592,18.663171 Z" id="Shape" fill="#282828"></path>
                        <path d="M20.6082397,18.7627965 C20.0436954,18.7627965 19.5123596,18.5398252 19.1091136,18.1413233 C18.7106117,17.7428215 18.4876404,17.2114856 18.4876404,16.6421973 C18.4876404,16.0776529 18.7058677,15.5463171 19.1091136,15.1430712 C19.5076155,14.7445693 20.0436954,14.521598 20.6082397,14.521598 C21.172784,14.521598 21.7041199,14.7445693 22.1073658,15.1430712 C22.5058677,15.541573 22.728839,16.0776529 22.728839,16.6421973 C22.728839,17.2067416 22.5058677,17.7380774 22.1073658,18.1413233 C21.7088639,18.5445693 21.1775281,18.7627965 20.6082397,18.7627965 Z M20.6082397,15.2853933 C20.2476904,15.2853933 19.9061174,15.4277154 19.6451935,15.6838951 C19.3890137,15.9400749 19.2466916,16.2816479 19.2466916,16.6421973 C19.2466916,17.0027466 19.3890137,17.3443196 19.6451935,17.6004994 C19.9013733,17.8566792 20.2429463,17.9990012 20.6082397,17.9990012 C20.968789,17.9990012 21.310362,17.8566792 21.5665418,17.6004994 C21.8227216,17.3443196 21.9650437,17.0027466 21.9650437,16.6421973 C21.9650437,16.2769039 21.8227216,15.9400749 21.5665418,15.6791511 C21.3151061,15.4277154 20.9735331,15.2853933 20.6082397,15.2853933 Z" id="Shape" fill="#282828"></path>
                        <path d="M16.5141074,14.6639201 C15.9732834,14.6639201 15.4277154,14.455181 15.0149813,14.0424469 C14.1895131,13.2169788 14.1895131,11.874407 15.0149813,11.0441948 C15.4134831,10.6456929 15.949563,10.4227216 16.5141074,10.4227216 C17.0786517,10.4227216 17.6099875,10.6456929 18.0132335,11.0441948 C18.4117353,11.4426966 18.6347066,11.9787765 18.6347066,12.5433208 C18.6347066,13.1078652 18.4117353,13.639201 18.0132335,14.0424469 C17.5957553,14.4599251 17.0549313,14.6639201 16.5141074,14.6639201 Z M16.5141074,11.1865169 C16.1535581,11.1865169 15.811985,11.328839 15.5510612,11.5850187 C15.0197253,12.1163546 15.0197253,12.9750312 15.5510612,13.506367 C16.082397,14.0377029 16.9410737,14.0377029 17.4724095,13.506367 C17.7285893,13.2501873 17.8709114,12.9086142 17.8709114,12.5433208 C17.8709114,12.1780275 17.7285893,11.8411985 17.4724095,11.5850187 C17.2162297,11.328839 16.8746567,11.1865169 16.5141074,11.1865169 Z" id="Shape" fill="#282828"></path>
                    </g>
                    <path d="M66.9343284,27.3373134 L40.9343284,27.3373134 L40.9343284,26.1313433 C40.9343284,25.4029851 40.3432836,24.8119403 39.6149254,24.8119403 L25.5074627,24.8119403 C24.7791045,24.8119403 24.1880597,25.4029851 24.1880597,26.1313433 L24.1880597,27.3373134 L23.041791,27.3373134 C19.7223881,27.3373134 17.0298507,30.0298507 17.0298507,33.3552239 L17.0298507,66.5074627 C17.0298507,69.8268657 19.7223881,72.519403 23.041791,72.519403 L66.9343284,72.519403 C70.2537313,72.519403 72.9462687,69.8268657 72.9462687,66.5074627 L72.9462687,33.3552239 C72.9522388,30.0298507 70.2597015,27.3373134 66.9343284,27.3373134 Z" id="Shape" fill="#FFBC00" fill-rule="nonzero"></path>
                    <path d="M66.9343284,73.3134328 L23.041791,73.3134328 C19.2865672,73.3134328 16.2358209,70.2567164 16.2358209,66.5074627 L16.2358209,33.3552239 C16.2358209,29.6 19.2925373,26.5492537 23.041791,26.5492537 L23.3940299,26.5492537 L23.3940299,26.1373134 C23.3940299,24.9731343 24.3432836,24.0238806 25.5074627,24.0238806 L39.6149254,24.0238806 C40.7791045,24.0238806 41.7283582,24.9731343 41.7283582,26.1373134 L41.7283582,26.5492537 L66.9343284,26.5492537 C70.6895522,26.5492537 73.7402985,29.6059701 73.7402985,33.3552239 L73.7402985,66.5074627 C73.7462687,70.2567164 70.6895522,73.3134328 66.9343284,73.3134328 Z M23.041791,28.1373134 C20.1641791,28.1373134 17.8238806,30.4776119 17.8238806,33.3552239 L17.8238806,66.5074627 C17.8238806,69.3850746 20.1641791,71.7253731 23.041791,71.7253731 L66.9343284,71.7253731 C69.8119403,71.7253731 72.1522388,69.3850746 72.1522388,66.5074627 L72.1522388,33.3552239 C72.1522388,30.4776119 69.8119403,28.1373134 66.9343284,28.1373134 L40.1402985,28.1373134 L40.1402985,26.1313433 C40.1402985,25.8447761 39.9074627,25.6059701 39.6149254,25.6059701 L25.5074627,25.6059701 C25.2208955,25.6059701 24.9820896,25.838806 24.9820896,26.1313433 L24.9820896,28.1373134 L23.041791,28.1373134 Z" id="Shape" fill="#191919" fill-rule="nonzero"></path>
                    <path d="M72.9522388,67.4029851 L17.0298507,67.4029851 L17.0298507,32.8358209 C17.0298507,32.6268657 17.1970149,32.4597015 17.4059701,32.4597015 L72.5701493,32.4597015 C72.7791045,32.4597015 72.9462687,32.6268657 72.9462687,32.8358209 L72.9462687,67.4029851 L72.9522388,67.4029851 Z" id="Shape" fill="#FAFCFB" fill-rule="nonzero"></path>
                    <path d="M72.9522388,68.1970149 L17.0298507,68.1970149 C16.5880597,68.1970149 16.2358209,67.838806 16.2358209,67.4029851 L16.2358209,32.841791 C16.2358209,32.1910448 16.7671642,31.6597015 17.4179104,31.6597015 L72.5641791,31.6597015 C73.2149254,31.6597015 73.7462687,32.1910448 73.7462687,32.841791 L73.7462687,67.4029851 C73.7462687,67.838806 73.3880597,68.1970149 72.9522388,68.1970149 Z M17.8238806,66.6029851 L72.1522388,66.6029851 L72.1522388,33.2537313 L17.8238806,33.2537313 L17.8238806,66.6029851 Z" id="Shape" fill="#0F0F0F" fill-rule="nonzero"></path>
                    <polygon id="Shape" fill="#46287C" fill-rule="nonzero" points="15.8358209 64.6089552 74.1462687 64.6089552 74.1462687 68.4 15.8358209 68.4"></polygon>
                    <path d="M74.1462687,69.1940299 L15.8358209,69.1940299 C15.3940299,69.1940299 15.041791,68.8358209 15.041791,68.4 L15.041791,64.6089552 C15.041791,64.1671642 15.4,63.8149254 15.8358209,63.8149254 L74.1462687,63.8149254 C74.5880597,63.8149254 74.9402985,64.1731343 74.9402985,64.6089552 L74.9402985,68.4 C74.9402985,68.841791 74.5820896,69.1940299 74.1462687,69.1940299 Z M16.6298507,67.6059701 L73.3462687,67.6059701 L73.3462687,65.4089552 L16.6298507,65.4089552 L16.6298507,67.6059701 Z" id="Shape" fill="#111111" fill-rule="nonzero"></path>
                    <path d="M25.2626866,47.4029851 C25.2626866,45.5880597 26.5880597,44.1074627 28.2059701,44.1074627 C29.8238806,44.1074627 31.1492537,45.5880597 31.1492537,47.4029851" id="Shape" fill="#FAFCFB" fill-rule="nonzero"></path>
                    <g id="Group-14" transform="translate(24.000000, 43.000000)" fill-rule="nonzero">
                        <path d="M7.14328358,5.20298507 C6.70149254,5.20298507 6.34925373,4.84477612 6.34925373,4.40895522 C6.34925373,3.02985075 5.3880597,1.90746269 4.2,1.90746269 C3.01791045,1.90746269 2.05074627,3.02985075 2.05074627,4.40895522 C2.05074627,4.85074627 1.69253731,5.20298507 1.25671642,5.20298507 C0.814925373,5.20298507 0.462686567,4.84477612 0.462686567,4.40895522 C0.462686567,2.15223881 2.14029851,0.319402985 4.2,0.319402985 C6.25970149,0.319402985 7.93731343,2.15223881 7.93731343,4.40895522 C7.94328358,4.84477612 7.58507463,5.20298507 7.14328358,5.20298507 Z" id="Shape" fill="#0F0F0F"></path>
                        <path d="M34.5761194,4.40298507 C34.5761194,2.5880597 35.9014925,1.10746269 37.519403,1.10746269 C39.1373134,1.10746269 40.4626866,2.5880597 40.4626866,4.40298507" id="Shape" fill="#FAFCFB"></path>
                        <path d="M40.4626866,5.20298507 C40.0208955,5.20298507 39.6686567,4.84477612 39.6686567,4.40895522 C39.6686567,3.02985075 38.7074627,1.90746269 37.519403,1.90746269 C36.3373134,1.90746269 35.3701493,3.02985075 35.3701493,4.40895522 C35.3701493,4.85074627 35.0119403,5.20298507 34.5761194,5.20298507 C34.1402985,5.20298507 33.7820896,4.84477612 33.7820896,4.40895522 C33.7820896,2.15223881 35.4597015,0.319402985 37.519403,0.319402985 C39.5791045,0.319402985 41.2567164,2.15223881 41.2567164,4.40895522 C41.2567164,4.84477612 40.8985075,5.20298507 40.4626866,5.20298507 Z" id="Shape" fill="#0F0F0F"></path>
                        <path d="M13.0716418,7.54925373 C13.0716418,11.1791045 16.5761194,14.1462687 20.8567164,14.1462687 C25.1373134,14.1462687 28.641791,11.1791045 28.641791,7.54925373 L28.641791,5.35223881 L13.0716418,5.35223881 L13.0716418,7.54925373 Z" id="Shape" fill="#5B5143"></path>
                        <path d="M20.8626866,14.9402985 C16.1283582,14.9402985 12.2776119,11.6268657 12.2776119,7.54925373 L12.2776119,5.35223881 C12.2776119,4.91044776 12.6358209,4.55820896 13.0716418,4.55820896 L28.6477612,4.55820896 C29.0895522,4.55820896 29.441791,4.91641791 29.441791,5.35223881 L29.441791,7.54925373 C29.441791,11.6268657 25.5970149,14.9402985 20.8626866,14.9402985 Z M13.8716418,6.14626866 L13.8716418,7.54925373 C13.8716418,9.06567164 14.5820896,10.5044776 15.8776119,11.6029851 C17.2089552,12.7313433 18.9820896,13.3522388 20.8626866,13.3522388 C22.7432836,13.3522388 24.5164179,12.7313433 25.8477612,11.6029851 C27.1432836,10.5044776 27.8537313,9.06567164 27.8537313,7.54925373 L27.8537313,6.14626866 L13.8716418,6.14626866 Z" id="Shape" fill="#141414"></path>
                        <path d="M16.2537313,10.2537313 C16.2537313,11.3418147 18.2584265,12.2238806 20.7313433,12.2238806 C23.2042601,12.2238806 25.2089552,11.3418147 25.2089552,10.2537313 C25.2089552,9.16564796 23.2042601,8.28358209 20.7313433,8.28358209 C18.2584265,8.28358209 16.2537313,9.16564796 16.2537313,10.2537313 Z" id="Shape" fill="#FF4500"></path>
                    </g>
                </g>
            </g>
        </g>
    </g>
</svg>