<svg xmlns="http://www.w3.org/2000/svg" width="76" height="76" viewBox="0 0 76 76">
  <defs>
    <linearGradient id="icon-extras-a" x1="50%" x2="50%" y1="0%" y2="100%">
      <stop offset="0%" stop-color="#B4EC51"/>
      <stop offset="100%" stop-color="#429321"/>
    </linearGradient>
  </defs>
  <g fill="none" fill-rule="evenodd">
    <rect width="76" height="76" fill="url(#icon-extras-a)" rx="10.48"/>
    <g transform="translate(12 14)">
      <g transform="matrix(-1 0 0 1 53 .442)">
        <ellipse cx="14.344" cy="4.747" fill="#FFF" stroke="#231916" rx="4.781" ry="4.747"/>
        <path fill="#FFF" stroke="#231916" d="M21.3276958,33.4860159 C21.7386456,34.5824536 21.9375004,35.13244 21.92426,35.1359751 L24.9854049,43.6350534 C25.3490094,44.6445785 24.8353333,45.7613464 23.8380773,46.1294242 C23.7612428,46.1577831 23.6826985,46.1811487 23.6029235,46.1993784 L23.4989783,46.2231313 C22.3407056,46.4878128 21.1687924,45.8389216 20.7641426,44.708846 L17.5030125,35.601406 C17.0790413,34.9398662 15.8164944,33.0385545 14.0148816,31.4446904 C13.4698396,30.9624987 11.3526915,29.0925497 9.70151786,28.001379 C8.94128942,27.4055771 8.49658408,26.7743883 8.36740183,26.1078125 L17.0971298,26.1078125 L17.0971298,27.5808129 C17.5455754,28.2181666 18.2363696,29.1185196 19.1695124,30.281872 C19.8762977,30.9181665 21.281072,33.3729254 21.3276958,33.4860159 Z"/>
        <path fill="#FFF" stroke="#231916" d="M10.5496001,32.1333702 L10.7579508,34.7651417 L10.4480048,44.4516537 C10.414596,45.4957551 9.54110135,46.3150833 8.49699996,46.2816745 C8.44337198,46.2799585 8.3898413,46.2759614 8.33655316,46.2696941 L8.05736172,46.2368577 C7.05010444,46.1183917 6.29097437,45.2647443 6.29097646,44.2505444 L6.29099747,34.0589577 L5.97657835,29.6679403 L8.99051064,30.3390177 C9.84783002,30.5299071 10.4802831,31.2577959 10.5496001,32.1333702 Z" transform="rotate(24 8.367 37.975)"/>
        <path fill="#FF4500" d="M17.4538772,26.1078125 C17.6087427,21.4838091 17.8484339,18.5967038 18.1729508,17.4464966 C19.5184546,16.5060675 21.5161761,17.3196851 21.5161761,15.9108848 C21.5161761,13.0222058 18.0375494,10.6804688 13.7464459,10.6804688 C9.45534232,10.6804688 5.97671559,13.0222058 5.97671559,15.9108848 C5.97671559,16.9880941 8.0054073,15.2736693 8.83462456,16.1056917 C8.64216148,17.4464966 7.87854517,23.9728025 8.64216148,25.0865306 C9.10895236,25.7673413 12.046191,26.1077686 17.4538772,26.1078125 Z"/>
        <path fill="#FF4500" d="M6.55159518,11.8526189 L6.95498198,11.8613269 C7.67779322,11.8769304 8.25109839,12.4755338 8.23549492,13.198345 C8.23316099,13.306461 8.21743921,13.4138712 8.18868891,13.5181206 C7.68182855,15.3558672 7.42841668,16.7683352 7.42841668,17.7555147 C7.42841668,18.8196986 7.72290506,20.9389868 8.31188181,24.113379 L8.31189676,24.1133762 C8.48116152,25.025658 7.87882724,25.9024247 6.96654549,26.0716894 C6.90188311,26.0836869 6.83657205,26.0918771 6.77094949,26.0962178 L6.6625148,26.1034089 C5.64273842,26.1708632 4.73615974,25.4586314 4.56031716,24.4518676 C4.05655979,21.5676702 3.74137281,19.4620919 3.61475622,18.1351327 C3.48377053,16.7191866 3.83473139,15.0308693 4.66763879,13.0701809 L4.6676362,13.0701798 C4.98749988,12.3172114 5.73369387,11.8349627 6.55159518,11.8526189 Z" transform="rotate(27 5.964 18.98)"/>
        <path fill="#FF4500" d="M21.6439581,10.5288384 L22.850593,10.4860733 C23.6784986,10.4567291 24.373437,11.104091 24.4027813,11.9319966 C24.4088869,12.1042566 24.3852562,12.2762802 24.332927,12.440513 C23.5634766,14.8553979 23.0724393,16.592013 22.8598151,17.6503582 C22.8598151,18.8816263 23.0356967,21.0375791 23.38746,24.1182166 L23.3874667,24.1182158 C23.468222,24.8254466 23.0407966,25.4920398 22.3643845,25.7137681 L21.9489187,25.8499581 C21.203472,26.0943161 20.4010767,25.6881034 20.1567188,24.9426566 C20.1327725,24.8696053 20.1147962,24.7947304 20.1029672,24.7187699 C19.7135782,22.2182901 19.5195633,20.5376521 19.5209246,19.6768556 C19.4545559,18.6886858 19.6837406,16.0775347 20.2084784,11.8434022 L20.208489,11.8434035 C20.2991195,11.1121021 20.9075247,10.5549406 21.6439581,10.5288384 Z" transform="rotate(-42 21.957 18.203)"/>
        <path fill="#FF7B00" stroke="#231916" d="M18.3337783,17.4305598 C18.3262397,17.4358154 18.3187213,17.4411274 18.3112237,17.4464966 C17.9944918,18.5967038 17.7605507,21.4838091 17.6094005,26.1078125 C12.3314431,26.1077686 9.46466805,25.7673413 9.00907536,25.0865306 C8.26377799,23.9728025 9.00907536,17.4464966 9.1969213,16.1056917 C9.18606366,16.0945296 9.17499531,16.0838257 9.16372387,16.0735673 C8.55038422,16.8623265 8.10052327,17.5377375 7.81413887,18.0997985 C7.32660015,19.0566472 6.59015306,21.1033435 5.60479761,24.2398874 L5.60482601,24.2398964 C5.34973983,25.0518765 4.48471167,25.5033282 3.67273154,25.248242 C3.62681859,25.2338183 3.58160649,25.2172519 3.53724389,25.1985971 C2.64906065,24.8251096 2.1953311,23.8332474 2.49354137,22.9170416 C3.40062886,20.1301497 4.10431287,18.120046 4.60459241,16.8867303 C5.12908902,15.6033321 6.14457292,14.2764477 7.65104411,12.906077 C7.80356471,12.76734 7.97331924,12.6556604 8.15364291,12.571852 C9.54464412,11.4163111 11.6431871,10.6804688 13.9909093,10.6804688 C17.7754245,10.6804688 20.9124407,12.5925743 21.4819653,15.0925187 C22.1002488,16.5681919 22.5956441,17.6404987 22.9681513,18.309439 C23.6774246,19.0971668 25.0309,20.3491097 27.0285776,22.0652676 L27.0285672,22.0652797 C27.5903296,22.5478765 27.7157993,23.3682349 27.3239652,23.9966796 L27.1325502,24.3036812 C26.6951017,25.0052847 25.7717176,25.2194246 25.0701142,24.7819761 C25.0250565,24.7538827 24.9815254,24.7234121 24.9397054,24.6906934 C23.2535429,23.3714817 22.1636282,22.4367495 21.6699654,21.8864916 C21.1180672,21.3604536 20.0060048,19.875143 18.3337783,17.4305598 Z"/>
      </g>
      <g fill-rule="nonzero" transform="translate(0 3.267)">
        <path fill="#FFF" stroke="#333" d="M2.13427271,21.2777467 C2.58484224,21.26175 3.03429594,21.2222207 3.49871824,21.1571294 C4.32945178,21.0714427 5.1507893,20.9163543 5.95217732,20.6939747 C6.64322629,20.5003451 7.30780293,20.2287806 7.9292208,19.8865505 C8.51003932,19.561874 9.04534209,19.1677929 9.51956314,18.7164703 C10.0433821,18.210299 10.4999067,17.6441204 10.8785699,17.0312561 C11.3105254,16.3305985 11.6802065,15.5963263 11.9841373,14.8351717 C12.2998308,14.0497514 12.5853197,13.2210378 12.8836917,12.2448398 C13.0095116,11.8418882 13.1344175,11.4109896 13.3020084,10.8131325 C13.4424613,10.4290955 13.5301272,10.0292797 13.5612566,9.66960322 C13.5546828,9.08948637 13.2095358,8.55788026 12.6610334,8.29268466 C12.1058449,8.02425646 11.4392317,8.07600153 10.9357967,8.42678445 C10.6882172,8.59783093 10.4942989,8.82885933 10.3852604,9.06782302 C10.3164175,9.24756878 10.2589957,9.43111477 10.2100353,9.63007153 C10.1213527,9.954914 10.0811642,10.0998588 10.0295437,10.2777409 C9.78838599,11.1395023 9.57385093,11.8533245 9.3475852,12.531457 C9.11291788,13.2324455 8.89542511,13.8036685 8.65385018,14.3330449 C8.44034533,14.8249698 8.17933092,15.2964323 7.8707643,15.7462805 C7.5949046,16.1380849 7.26574327,16.4922351 6.88689378,16.8035797 C6.51765009,17.098745 6.10641398,17.341078 5.65690352,17.5268287 C5.17854316,17.7138846 4.68103956,17.8517184 4.17386325,17.937855 C3.57316995,18.0413584 2.96663808,18.1105594 2.32767033,18.1458958 C2.01388076,18.1449672 1.70314039,18.2036828 1.43582458,18.3090647 C0.743341191,18.6231972 0.374642597,19.3474699 0.53885602,20.0533312 C0.703733743,20.7620479 1.36391946,21.2730373 2.13427271,21.2777467 Z"/>
        <path fill="#FFF" d="M16.2831852 41.3599959C15.354203 41.3543718 14.5022304 40.8499218 14.0608083 40.0441344 13.9375468 39.7996092 13.8361457 39.5449565 13.7577569 39.2830686 13.6567397 38.9914452 13.5593304 38.6962655 13.461921 38.4010858 13.2815332 37.8439192 13.1119687 37.2820108 12.9532276 36.7153606 12.6718227 35.6982352 12.4337109 34.6704408 12.2569309 33.6319771 12.0995171 32.7255998 11.9923281 31.8114395 11.9358407 30.8935628 11.885332 30.0716063 11.885332 29.2473899 11.9358407 28.4254334 11.986264 27.6715621 12.0802179 26.9211349 12.2172456 26.1777998 12.3493368 25.4774047 12.5179218 24.784178 12.7223312 24.1008725 12.9207578 23.4393854 13.1480463 22.7850111 13.3969814 22.1413059 13.6459166 21.4976007 13.9237136 20.8574519 14.2051185 20.2279722 14.3545499 19.8358902 14.5884087 19.4803906 14.8905919 19.1859522 15.7173998 18.4205115 16.9604766 18.2923651 17.9300465 18.8726206 18.8996164 19.4528762 19.3577915 20.5991656 19.0503332 21.6754198 18.9239021 22.0398963 18.7744904 22.3962289 18.6029716 22.7423345 18.4622691 23.0695216 18.3251745 23.3967089 18.1952953 23.7274524 17.9391447 24.374714 17.7046407 25.0326447 17.5134296 25.7048009 17.3184462 26.3790851 17.1713745 27.0659456 17.0732836 27.7603899 16.9729089 28.504166 16.9282923 29.2542243 16.9397967 30.0044672 16.9595528 30.8541136 17.0391147 31.7013834 17.1779085 32.5401678 17.3442483 33.5379665 17.5670746 34.5258127 17.8453431 35.4990779 18.0040843 36.0609862 18.1772565 36.6157819 18.3648598 37.1705775 18.4622691 37.4657573 18.566894 37.760937 18.6679112 38.0525603 18.7435322 38.2635389 18.7896542 38.4836864 18.8050059 38.7069347 18.8509785 39.3950404 18.6053443 40.0711168 18.1266606 40.5739927 17.6479769 41.0768687 16.9791336 41.3614866 16.2795775 41.3599959L16.2831852 41.3599959zM23.0874108 41.3599959C22.0670387 41.3521473 21.1499 40.7447629 20.7568012 39.816526 20.6667742 39.5853907 20.5955959 39.3475441 20.5439437 39.1052495 20.4830918 38.8599116 20.4277594 38.6132753 20.377987 38.365522 20.2733621 37.8569593 20.186776 37.3483966 20.1146208 36.8327212 19.9667029 35.7658065 19.8801168 34.7273429 19.833216 33.6675409 19.7863152 32.607739 19.7899229 31.5337116 19.833216 30.4667969 19.862078 29.4638971 19.9185995 28.4621827 20.0027805 27.4616538 20.0785433 26.5690019 20.1687372 25.6834627 20.2805776 24.7908107 20.371974 24.0653087 20.4729912 23.3421777 20.583629 22.6214175 20.6629996 22.123524 20.7459779 21.6291868 20.8397796 21.1348497 20.8794649 20.9072412 20.9191502 20.6760764 20.9732665 20.4484679 21.2615277 19.2189488 22.4374491 18.39653 23.7099325 18.5344919 24.9824158 18.6724537 25.9488994 19.7271508 25.9591837 20.989038 25.9556031 21.1826456 25.933864 21.3755117 25.8942441 21.5651719 25.8329122 21.8639081 25.7787959 22.1662005 25.7282873 22.4684931 25.6128392 23.0730781 25.5046065 23.6420992 25.4216282 24.2289023 25.3085852 25.023161 25.2099732 25.823347 25.1257923 26.6294604 25.0247751 27.5612325 24.9490123 28.5001175 24.8985037 29.435446 24.8407797 30.4454586 24.816728 31.4554712 24.8263487 32.4654837 24.8263487 33.4754963 24.894896 34.4819525 25.0067364 35.4848523 25.1175595 36.4324542 25.2898824 37.3720797 25.5226454 38.2979507 25.7064751 39.0403007 25.5342633 39.8247501 25.0555235 40.4257577 24.5767836 41.0267653 23.8445577 41.3777425 23.0693721 41.3777778L23.0874108 41.3599959z"/>
        <path fill="#333" d="M17.4023459 39.8845232C17.6884652 39.5839437 17.8345135 39.1819646 17.8073618 38.7755376 17.7983229 38.6440902 17.7711513 38.514396 17.7229958 38.3798752 17.6729018 38.2356366 17.6729018 38.2356366 17.6216941 38.0886873 17.5292805 37.8232535 17.4730513 37.6591675 17.4175537 37.4909075 17.2211647 36.9101298 17.043707 36.3397825 16.8838695 35.7739751 16.5952185 34.7643964 16.3640736 33.7396714 16.1913238 32.7034181 16.0448691 31.8183362 15.9609141 30.9242826 15.9399142 30.0197995 15.9276456 29.219711 15.9752262 28.4198229 16.0831126 27.6205274 16.1877891 26.87946 16.3447297 26.1465094 16.5515912 25.4311828 16.7398248 24.7694931 16.9742745 24.0952668 17.2644904 23.3619361 17.3876128 23.048399 17.5214008 22.7261155 17.7069615 22.2983007 17.8598012 21.9898875 17.9929247 21.6724006 18.0887991 21.4007341 18.2714434 20.7613898 17.998745 20.0791367 17.4165183 19.7306934 16.8276765 19.378291 16.070517 19.4563451 15.5884608 19.9021776 15.3902125 20.0953449 15.2371565 20.3280125 15.1180472 20.6360912 14.7859685 21.3789241 14.5434621 21.9491576 14.3296671 22.5019962 14.0828823 23.140141 13.8659748 23.7687683 13.6803819 24.3874714 13.4859342 25.0374766 13.3255696 25.6969006 13.2006758 26.3590871 13.0706294 27.0645505 12.9814641 27.7767305 12.933958 28.4867671 12.8859596 29.267873 12.8859596 30.0511232 12.9339524 30.8321376 12.9881767 31.7132397 13.091072 32.5907819 13.2427489 33.4641591 13.4068783 34.4283094 13.6316472 35.4172398 13.9161567 36.445606 14.0713079 36.9994415 14.2370227 37.5485927 14.4115495 38.0877081 14.5561233 38.52581 14.6206359 38.7189257 14.7157617 38.9963166 14.7773024 39.2019169 14.8569347 39.4019007 14.9378323 39.5636879 15.2036007 40.0488309 15.7198435 40.3552221 16.2854733 40.3599869 16.7097394 40.3598848 17.114186 40.1872464 17.4023459 39.8845232zM16.2831852 40.3599959L16.2795775 40.3599959 16.2785121 41.3599634C15.3513466 41.352679 14.5014901 40.8485705 14.0608083 40.0441344 13.9375468 39.7996092 13.8361457 39.5449565 13.7577569 39.2830686 13.6567397 38.9914452 13.5593304 38.6962655 13.461921 38.4010858 13.2815332 37.8439192 13.1119687 37.2820108 12.9532276 36.7153606 12.6718227 35.6982352 12.4337109 34.6704408 12.2569309 33.6319771 12.0995171 32.7255998 11.9923281 31.8114395 11.9358407 30.8935628 11.885332 30.0716063 11.885332 29.2473899 11.9358407 28.4254334 11.986264 27.6715621 12.0802179 26.9211349 12.2172456 26.1777998 12.3493368 25.4774047 12.5179218 24.784178 12.7223312 24.1008725 12.9207578 23.4393854 13.1480463 22.7850111 13.3969814 22.1413059 13.6459166 21.4976007 13.9237136 20.8574519 14.2051185 20.2279722 14.3545499 19.8358902 14.5884087 19.4803906 14.8905919 19.1859522 15.7173998 18.4205115 16.9604766 18.2923651 17.9300465 18.8726206 18.8996164 19.4528762 19.3577915 20.5991656 19.0503332 21.6754198 18.9239021 22.0398963 18.7744904 22.3962289 18.6029716 22.7423345 18.4622691 23.0695216 18.3251745 23.3967089 18.1952953 23.7274524 17.9391447 24.374714 17.7046407 25.0326447 17.5134296 25.7048009 17.3184462 26.3790851 17.1713745 27.0659456 17.0732836 27.7603899 16.9729089 28.504166 16.9282923 29.2542243 16.9397967 30.0044672 16.9595528 30.8541136 17.0391147 31.7013834 17.1779085 32.5401678 17.3442483 33.5379665 17.5670746 34.5258127 17.8453431 35.4990779 18.0040843 36.0609862 18.1772565 36.6157819 18.3648598 37.1705775 18.4622691 37.4657573 18.566894 37.760937 18.6679112 38.0525603 18.7435322 38.2635389 18.7896542 38.4836864 18.8050059 38.7069347 18.8509785 39.3950404 18.6053443 40.0711168 18.1266606 40.5739927 17.6487998 41.0760041 16.9814327 41.3605073 16.2831852 41.360001L16.2831852 40.3599959zM24.2733446 39.8027038C24.5588481 39.4442841 24.6610387 38.9787912 24.5528229 38.541763 24.3095031 37.5738997 24.1293601 36.5916335 24.012897 35.5956823 23.8900683 34.4942478 23.8263487 33.4637613 23.826394 32.4750086 23.8165617 31.4427813 23.8411422 30.4105619 23.8999586 29.3815237 23.9516512 28.4242699 24.0290765 27.4675085 24.1312007 26.525597 24.2166706 25.7071405 24.3168045 24.8946052 24.4314788 24.0888878 24.5041666 23.5748564 24.5764431 23.1690566 24.7419604 22.3036925 24.8001042 21.9557037 24.855397 21.6527962 24.9153745 21.3606866 24.9422102 21.232224 24.9569305 21.1016286 24.9592169 20.9971877 24.9530905 20.2454685 24.3728065 19.6122205 23.6021447 19.5286658 22.8293113 19.4448757 22.119245 19.9414836 21.9461461 20.6797803 21.9251122 20.7682468 21.9050516 20.8643233 21.8837633 20.9771186 21.8673675 21.0639912 21.8584769 21.1141407 21.8222486 21.3212756 21.738961 21.7602035 21.6602777 22.219805 21.5720518 22.773142 21.4627803 23.4850013 21.3630082 24.1992197 21.27282 24.9151288 21.1668279 25.7611032 21.0771502 26.6277762 20.9992597 27.545494 20.9166203 28.5277006 20.861135 29.5110501 20.8323937 30.5073413 20.7888335 31.58084 20.7879543 32.62266 20.8322382 33.6233299 20.8800192 34.7030211 20.9675549 35.7029613 21.104973 36.6941476 21.1755556 37.1985849 21.2590129 37.685413 21.3583986 38.1685623 21.4052247 38.4016501 21.4572825 38.63369 21.5219672 38.8967551 21.5623938 39.0863914 21.6181155 39.2725891 21.677632 39.4265636 21.9145979 39.9861189 22.4719519 40.3552322 23.0951025 40.3600255L23.2938833 40.3615545C23.6794353 40.3055198 24.0311671 40.1067322 24.2733446 39.8027038zM25.0945934 40.3754054C25.0818059 40.392327 25.0687822 40.4091127 25.0555235 40.4257577 24.5767836 41.0267653 23.8445577 41.3777425 23.0693721 41.3777778L23.0874108 41.3599959C23.081394 41.3599496 23.0753808 41.3598825 23.0693713 41.3597946L23.0693265 40.3777778C23.1450636 40.3777743 23.2200929 40.3722789 23.2938833 40.3615545L25.0945934 40.3754054zM23.0874108 41.3599959C22.8710458 41.3599959 22.6552828 41.3285648 22.4401221 41.2657025 22.2249613 41.2028403 22.0595868 41.1419214 21.9439985 41.0829458 21.4196402 40.8174652 20.9933451 40.3750848 20.7568012 39.816526 20.6667742 39.5853907 20.5955959 39.3475441 20.5439437 39.1052495 20.4830918 38.8599116 20.4277594 38.6132753 20.377987 38.365522 20.2733621 37.8569593 20.186776 37.3483966 20.1146208 36.8327212 19.9667029 35.7658065 19.8801168 34.7273429 19.833216 33.6675409 19.7863152 32.607739 19.7899229 31.5337116 19.833216 30.4667969 19.862078 29.4638971 19.9185995 28.4621827 20.0027805 27.4616538 20.0785433 26.5690019 20.1687372 25.6834627 20.2805776 24.7908107 20.371974 24.0653087 20.4729912 23.3421777 20.583629 22.6214175 20.6629996 22.123524 20.7459779 21.6291868 20.8397796 21.1348497 20.8794649 20.9072412 20.9191502 20.6760764 20.9732665 20.4484679 21.2615277 19.2189488 22.4374491 18.39653 23.7099325 18.5344919 24.9824158 18.6724537 25.9488994 19.7271508 25.9591837 20.989038 25.9556031 21.1826456 25.933864 21.3755117 25.8942441 21.5651719 25.8329122 21.8639081 25.7787959 22.1662005 25.7282873 22.4684931 25.6128392 23.0730781 25.5046065 23.6420992 25.4216282 24.2289023 25.3085852 25.023161 25.2099732 25.823347 25.1257923 26.6294604 25.0247751 27.5612325 24.9490123 28.5001175 24.8985037 29.435446 24.8407797 30.4454586 24.816728 31.4554712 24.8263487 32.4654837 24.8263487 33.4754963 24.894896 34.4819525 25.0067364 35.4848523 25.1175595 36.4324542 25.2898824 37.3720797 25.5226454 38.2979507 25.7064751 39.0403007 25.5342633 39.8247501 25.0555235 40.4257577 24.5804706 41.0221367 23.8558211 41.3723216 23.0872745 41.3777146L23.0874108 41.3599959z"/>
        <path fill="#FFF" stroke="#333" d="M22.124787,25.3580851 L22.1276193,25.3579651 C22.9429098,25.3257382 23.7348881,25.0774015 24.4200893,24.6398275 C25.1070295,24.1963402 25.6649735,23.5802746 26.038113,22.8531362 C26.21092,22.5170703 26.3469237,22.1633884 26.4430931,21.8007937 C26.4779966,21.6663022 26.5037339,21.5296062 26.5182373,21.4106497 C26.5382973,21.1606811 26.5449979,20.9098229 26.5381769,20.6524421 C26.5322841,20.208272 26.5204404,19.8529589 26.4884126,19.0535622 C26.4478228,18.088169 26.4060392,17.1227758 26.363094,16.1580951 C26.29141,14.597969 26.2221156,13.0354586 26.155221,11.4708048 L26.0902716,9.96087817 C26.087609,9.55779199 26.0040217,9.15932279 25.8509112,8.80339702 C25.5491527,8.15978927 24.9866085,7.6751533 24.3304803,7.47827856 C23.874186,7.36829821 23.4091173,7.29842789 22.9151692,7.26724346 C22.4519358,7.21476491 21.9667269,7.17189709 21.4173583,7.1332731 C20.4714251,7.0670627 19.5092594,7.03433594 18.5315797,7.03431875 C16.9516026,7.0212156 15.3732541,7.13880801 13.8136591,7.38574097 C13.2643968,7.47376928 12.7219623,7.59997506 12.175535,7.76773321 C11.8442119,7.85854161 11.5290276,8.00013998 11.2604425,8.17432055 C10.6827139,8.58988213 10.3124877,9.23372586 10.2461024,9.91723854 C10.2251158,10.3530438 10.23309,10.7897585 10.2712885,11.2450222 L10.3465482,12.973136 L10.4719217,15.9056114 L10.6045222,18.9074557 L10.6863705,20.8714609 C10.6988464,20.9627996 10.705987,21.0549451 10.7094831,21.1561647 C10.7119892,21.2287222 10.7124683,21.2843643 10.7110159,21.369639 C10.7765318,22.227328 11.0788765,23.0501344 11.5811569,23.7421526 C12.1910695,24.5626863 13.0483643,25.1665678 14.0260484,25.4647931 C14.3618,25.566235 14.7100821,25.6204644 15.0690919,25.6261107 C15.4166986,25.6372539 15.7831887,25.6352643 16.2110835,25.6220674 C16.4719438,25.6140221 16.6839219,25.6049818 17.153373,25.5830908 C17.2650957,25.5778804 17.2650957,25.5778804 17.3773412,25.5727083 L22.124787,25.3580851 Z"/>
        <ellipse cx="16.224" cy="4.356" fill="#FFF" stroke="#333" rx="4.327" ry="4.356"/>
        <path fill="#FFF" stroke="#333" d="M25.7894679,25.6279844 C26.3266174,25.5836529 26.8076084,25.2669405 27.0517983,24.7967493 C27.1362759,24.617785 27.2066069,24.43243 27.2661983,24.2291909 C27.3310259,24.0281584 27.3812049,23.8706132 27.4914087,23.5232089 C27.780663,22.5780926 28.0091174,21.7473399 28.193755,20.9479071 C28.3736658,20.1881051 28.5103713,19.4186527 28.6031114,18.6440982 C28.6849517,17.9508455 28.7171089,17.2525935 28.6993291,16.5544853 C28.6830773,15.9043028 28.6134963,15.256568 28.4913516,14.6181589 C28.3685532,13.978538 28.1939682,13.3500343 27.9703675,12.741685 C27.7304097,12.1006542 27.4446838,11.4778271 27.1142964,10.8760031 C26.7507789,10.2064538 26.3491344,9.5584664 25.9092714,8.93226507 C25.6720512,8.58926933 25.4278816,8.25331152 25.156472,7.89578447 C24.9761252,7.62166098 24.7374583,7.39115456 24.4751482,7.23100153 C23.9656072,6.94835694 23.3425417,6.97017237 22.8538292,7.28780007 C22.3645376,7.60580418 22.0893168,8.16874493 22.1385261,8.75575432 C22.1604947,9.04180709 22.2617943,9.31593198 22.4340416,9.55142081 C22.5098932,9.6574617 22.5844915,9.757262 22.7123273,9.92518399 C22.7365755,9.95702577 22.7365755,9.95702577 22.7609741,9.98905354 C22.9266103,10.2065139 23.0115612,10.3202931 23.1011711,10.4472338 C23.5144272,11.0064317 23.8942757,11.5897116 24.2387068,12.1939833 C24.552912,12.7451655 24.8183949,13.3228874 25.0330962,13.9232982 C25.239812,14.5122479 25.3837387,15.1215065 25.4628026,15.7435621 C25.5431573,16.4043288 25.5581842,17.0714462 25.5076624,17.7352025 C25.4501364,18.4905057 25.337202,19.2405301 25.1705001,19.9759397 C24.9868622,20.8118405 24.7482236,21.6733969 24.4486151,22.6063447 C24.3805199,22.8243122 24.3072333,23.049963 24.2093366,23.3437337 C24.1466529,23.5132916 24.0999774,23.6883889 24.0732059,23.8441215 C24.0182023,24.2954425 24.1587385,24.7486967 24.4590105,25.0888404 C24.7589499,25.4286073 25.1894533,25.6228883 25.641425,25.6226367 L25.7804557,25.6225594 L25.7894679,25.6279844 Z"/>
        <path fill="#3C2C00" d="M1.98318522,41.3777778 C1.74047499,41.3740061 1.50913703,41.2692328 1.34007678,41.0865132 C1.17101653,40.9037936 1.07808667,40.6580996 1.08173622,40.4034955 L1.08173622,22.458075 C1.08251415,21.9208002 1.22427659,21.3941193 1.49148576,20.9357589 C2.09037919,19.9284567 3.22384487,19.4188649 4.33222778,19.6585973 C5.44061069,19.8983297 6.28947886,20.836681 6.45969889,22.010335 C6.4858425,22.2480793 6.49497359,22.4875439 6.48701552,22.7267191 L6.48701552,23.4431031 C6.49571879,23.7548983 6.36105462,24.0520852 6.1250701,24.2418713 C5.84758938,24.4574357 5.47710734,24.4877918 5.17108481,24.3200379 C4.86506227,24.1522839 4.67727367,23.8158978 4.68753218,23.4538488 L4.68753218,22.7374648 C4.70774,22.5069247 4.68453595,22.2744661 4.61924057,22.053318 C4.45367061,21.631962 4.02515274,21.3944358 3.60002359,21.4883691 C3.17489444,21.5823024 2.87411732,21.980968 2.88463418,22.4365835 L2.88463418,40.3855859 C2.89386361,40.6435245 2.80330935,40.8944246 2.63354762,41.0812751 C2.4637859,41.2681256 2.22923296,41.3750592 1.98318522,41.3777778 L1.98318522,41.3777778 Z"/>
        <path fill="#FFF" d="M3.10218582,20.6923407 C2.87560747,20.759878 2.66958153,20.8862533 2.50378047,21.0593995 C2.41975234,21.1464544 2.34733938,21.2446849 2.28845472,21.3514956 C2.26028231,21.3993146 2.23599595,21.4494613 2.21584486,21.501421 C2.18866022,21.5527796 2.17083837,21.6088538 2.16326531,21.6668559 C2.16570882,21.7043372 2.18516467,21.738422 2.21574052,21.7587876 C2.24631637,21.7791531 2.28441581,21.783404 2.31850016,21.7702528 C2.35288924,21.7571839 2.37962402,21.728631 2.39111002,21.6927051 C2.41364409,21.6358369 2.43117061,21.5763837 2.45871228,21.5195154 C2.59616656,21.238163 2.83830464,21.0264226 3.12972748,20.9327384 C3.17729945,20.9172288 3.21986386,20.9017193 3.23739038,20.8500209 C3.2525935,20.8086988 3.24433938,20.7620803 3.21595976,20.7289831 C3.18758013,20.6958858 3.14375944,20.6817728 3.10218582,20.6923407 L3.10218582,20.6923407 Z"/>
      </g>
    </g>
  </g>
</svg>
