<svg xmlns="http://www.w3.org/2000/svg" xmlns:xlink="http://www.w3.org/1999/xlink" width="76" height="76" viewBox="0 0 76 76">
  <defs>
    <linearGradient id="icon-elderservice-a" x1="0%" x2="100%" y1="0%" y2="100%">
      <stop offset="0%" stop-color="#FAD961"/>
      <stop offset="100%" stop-color="#F76B1C"/>
    </linearGradient>
    <polygon id="icon-elderservice-b" points="0 8.313 0 .085 8.227 .085 8.227 8.313 0 8.313"/>
  </defs>
  <g fill="none" fill-rule="evenodd">
    <rect width="76" height="76" fill="url(#icon-elderservice-a)" rx="8"/>
    <g transform="translate(10 11)">
      <g transform="translate(7 8)">
        <path fill="#FFF" stroke="#333" stroke-width="1.5" d="M31.9,-0.25 C31.2648725,-0.25 30.75,0.264872538 30.75,0.9 L30.75,34.1 C30.75,34.7351275 31.2648725,35.25 31.9,35.25 L33.1,35.25 C33.7351275,35.25 34.25,34.7351275 34.25,34.1 L34.25,0.9 C34.25,0.264872538 33.7351275,-0.25 33.1,-0.25 L31.9,-0.25 Z" transform="rotate(44 32.5 17.5)"/>
        <g transform="translate(0 21)">
          <path fill="#333" d="M22.4267089,0.315888861 C21.6838666,0.315888861 20.9841692,0.603568371 20.4579892,1.1258603 L19.1645808,2.40971158 C17.4106476,4.15068467 14.7366029,5.03327423 11.2137296,5.03327423 C7.26503512,5.03327423 3.72715492,3.8872112 3.69057556,3.87603918 L0.000750345748,2.66480603 L1.34011751,6.28547145 C1.38232445,6.40277766 2.36715325,9.02540932 4.67446643,12.3704983 L4.60505944,12.3807393 L5.41637078,13.4113581 L5.63678485,13.7167266 L5.65741936,13.7185886 L6.59628947,14.9102708 C7.79871854,16.4380445 9.41758949,18.0570563 11.2746952,19.5904161 L12.1329032,20.2989083 L12.1994963,20.2728403 L13.0980354,20.9757465 C14.6550028,22.1962897 16.3226462,23.0574662 17.8927447,23.8059915 C18.5708697,24.1262561 19.1917808,24.3971776 19.7986229,24.636445 L21.069521,25.1373239 L21.9380462,24.089947 C21.9886946,24.0294319 22.4520331,23.4652449 23.0841994,22.5007272 C24.1168627,20.9282654 25.5246989,18.422009 26.3613344,15.4279077 C26.7458866,14.0220952 26.9728662,12.6507297 27.0385215,11.3426724 C27.0844801,10.5094259 27.0647836,9.67990348 26.9822455,8.86900104 L27.6209773,8.23498891 C28.1471573,7.71269699 28.4369783,7.01816975 28.4369783,6.28081645 C28.4369783,5.54253214 28.1471573,4.8489359 27.6200394,4.32664398 L24.3963665,1.1258603 C23.8701865,0.603568371 23.1704891,0.315888861 22.4267089,0.315888861"/>
          <path fill="#FFF" d="M23.3055008,1.86114993 L26.7100023,5.24246145 C27.0854186,5.61412058 27.0854186,6.21585441 26.7100023,6.58849677 L25.3440414,7.94436434 C25.5272921,9.0229624 25.5758288,10.1123759 25.5173867,11.1624605 C25.4510202,12.509479 25.2093273,13.8171686 24.8735327,15.0491498 C24.0464281,18.0096409 22.6319305,20.4922845 21.6592158,21.9730217 C21.0341822,22.9287166 20.5824939,23.4734234 20.5824939,23.4734234 C19.927744,23.2148352 19.3027104,22.9375657 18.6964972,22.6514471 C16.9739403,21.8304541 15.4267097,21.0084778 14.0013162,19.8915339 C15.95467,18.6595527 17.724773,17.0460802 18.8312112,14.9734414 C19.0332823,14.5821178 19.216533,14.1711296 19.3700674,13.740477 C19.0907339,14.0570755 18.79258,14.3520431 18.4944261,14.6381616 C16.6084293,16.377487 14.2608389,17.6094682 12.1153194,18.4589748 C10.2877648,16.9497241 8.67713945,15.3529663 7.46867514,13.8171686 C9.86381177,13.474023 12.2312132,12.6530299 14.097399,10.981547 C12.1668278,11.7140498 10.0549869,11.963789 8.05111532,11.963789 C7.33792327,11.963789 6.63958939,11.9313426 5.96800021,11.8792317 C3.31235038,8.20196935 2.21581761,5.24246145 2.21581761,5.24246145 C2.21581761,5.24246145 6.21563634,6.56391614 10.7840276,6.56391614 C14.2123022,6.56391614 17.9595321,5.82059788 20.5824939,3.2170175 L21.9474643,1.86114993 C22.1356677,1.67532037 22.3813227,1.58191397 22.6259872,1.58191397 C22.8716423,1.58191397 23.1172973,1.67532037 23.3055008,1.86114993 Z"/>
          <path fill="#F5A623" d="M25.2856404,8.85657649 C25.2612136,8.6557 25.2320719,8.45485902 25.1980166,8.25441253 L26.4914251,6.97056126 C26.8469014,6.61771163 26.8469014,6.04793862 26.4914251,5.69601999 L23.2677521,2.49430531 C23.089545,2.318346 22.8569378,2.22990084 22.6243307,2.22990084 C22.3926614,2.22990084 22.1600542,2.318346 21.9818471,2.49430531 L20.6893766,3.77815659 C20.6022777,3.86461188 20.5138696,3.94890087 20.4242112,4.03106918 L25.2856404,8.85657649 L25.2856404,8.85657649 Z"/>
          <path stroke="#333" stroke-linecap="square" stroke-width="1.5" d="M20.0965764,2.97099057 L26.0827906,8.9129717"/>
        </g>
        <g transform="translate(27)">
          <path fill="#333" d="M3.19920835,0.0831077476 C3.19920835,1.85164702 1.76741943,3.28263605 -0.00031995283,3.28263605 C1.76741943,3.28263605 3.19920835,4.71442496 3.19920835,6.48216435 C3.19920835,4.71442496 4.63099726,3.28263605 6.39873665,3.28263605 C4.63099726,3.28263605 3.19920835,1.85164702 3.19920835,0.0831077476"/>
          <path fill="#FFF" d="M3.19920835,2.48035433 C3.42797462,2.78430952 3.69833476,3.05466966 4.00228995,3.28263605 C3.69833476,3.51140232 3.42797462,3.78176246 3.19920835,4.08571765 C2.97124196,3.78176246 2.70088182,3.51140232 2.39692663,3.28263605 C2.70088182,3.05466966 2.97124196,2.78430952 3.19920835,2.48035433"/>
        </g>
        <g transform="translate(35 25)">
          <mask id="icon-elderservice-c" fill="#fff">
            <use xlink:href="#icon-elderservice-b"/>
          </mask>
          <path fill="#333" d="M4.11335015,0.0854822547 C4.11335015,2.35870141 2.27289006,4.1991615 -0.00032909434,4.1991615 C2.27289006,4.1991615 4.11335015,6.04044433 4.11335015,8.31284075 C4.11335015,6.04044433 5.95463298,4.1991615 8.2270294,4.1991615 C5.95463298,4.1991615 4.11335015,2.35870141 4.11335015,0.0854822547" mask="url(#icon-elderservice-c)"/>
          <path fill="#FFF" d="M4.11335015,2.81120612 C4.47864487,3.36161641 4.95171798,3.83468952 5.50130553,4.1991615 C4.95171798,4.56445622 4.47864487,5.03835207 4.11335015,5.58711688 C3.74805543,5.03835207 3.27498232,4.56445622 2.72539477,4.1991615 C3.27498232,3.83468952 3.74805543,3.36161641 4.11335015,2.81120612" mask="url(#icon-elderservice-c)"/>
        </g>
        <path fill="#333" d="M24.5,10 C24.5,11.934625 22.93375,13.5 21,13.5 C22.93375,13.5 24.5,15.06625 24.5,17 C24.5,15.06625 26.06625,13.5 28,13.5 C26.06625,13.5 24.5,11.934625 24.5,10"/>
        <path fill="#FFF" d="M24.4997509,13 C24.6422521,13.1893373 24.8106627,13.3577479 25,13.4997509 C24.8106627,13.6422521 24.6422521,13.8106627 24.4997509,14 C24.3577479,13.8106627 24.1893373,13.6422521 24,13.4997509 C24.1893373,13.3577479 24.3577479,13.1893373 24.4997509,13"/>
      </g>
      <g fill="#FFF">
        <rect width="7" height="23" x="8" rx="1.28"/>
        <rect width="7" height="22" x="8" y="1" rx="1.28" transform="rotate(90 11.5 12)"/>
      </g>
    </g>
  </g>
</svg>
