<?xml version="1.0" encoding="UTF-8"?>
<svg width="17px" height="17px" viewBox="0 0 17 17" version="1.1" xmlns="http://www.w3.org/2000/svg" xmlns:xlink="http://www.w3.org/1999/xlink">
    <!-- Generator: Sketch 50.2 (55047) - http://www.bohemiancoding.com/sketch -->
    <title>clouse</title>
    <desc>Created with Sketch.</desc>
    <defs></defs>
    <g id="Page-1" stroke="none" stroke-width="1" fill="none" fill-rule="evenodd">
        <g id="7_1_1_Location(Select)" transform="translate(-329.000000, -105.000000)">
            <g id="Group-7-Copy-16" transform="translate(12.000000, 76.000000)">
                <g id="titlr-bar-icon/close/33" transform="translate(312.000000, 24.000000)">
                    <g id="close">
                        <rect id="Rectangle-3" x="0" y="0" width="27" height="27"></rect>
                        <path d="M14.9268395,13.5000116 L21.704471,6.72239399 C22.0985097,6.32840263 22.0985097,5.68958938 21.704471,5.29555157 C21.3104789,4.90151377 20.6716643,4.90151377 20.2776257,5.29555157 L13.4999942,12.073146 L6.72236271,5.29552835 C6.32837054,4.90149055 5.68955598,4.90149055 5.29551737,5.29552835 C4.9015252,5.68956616 4.9015252,6.3283794 5.29551737,6.72237077 L12.0731489,13.4999884 L5.29549413,20.2776292 C4.90150196,20.671667 4.90150196,21.3104803 5.29549413,21.7044716 C5.68953274,22.0985095 6.32834729,22.0985095 6.72233946,21.7044716 L13.499971,14.926854 L20.2776025,21.7044716 C20.6716411,22.0985095 21.3104556,22.0985095 21.7044478,21.7044716 C22.0984864,21.3104803 22.0984864,20.671667 21.7044478,20.2776292 L14.9268395,13.5000116 Z" id="Shape" fill="#999999" fill-rule="nonzero"></path>
                    </g>
                </g>
            </g>
        </g>
    </g>
</svg>