<?xml version="1.0" encoding="UTF-8"?>
<svg width="80px" height="80px" viewBox="0 0 80 80" version="1.1" xmlns="http://www.w3.org/2000/svg" xmlns:xlink="http://www.w3.org/1999/xlink">
    <!-- Generator: Sketch 50.2 (55047) - http://www.bohemiancoding.com/sketch -->
    <title>Group 21</title>
    <desc>Created with Sketch.</desc>
    <defs>
        <linearGradient x1="55.2510262%" y1="100%" x2="55.2510262%" y2="-2.40404622%" id="linearGradient-1">
            <stop stop-color="#4D88E8" offset="0%"></stop>
            <stop stop-color="#77A5D2" offset="100%"></stop>
        </linearGradient>
    </defs>
    <g id="Page-1" stroke="none" stroke-width="1" fill="none" fill-rule="evenodd">
        <g id="1_1_Elder's-Home-Page-(shanyuan)" transform="translate(-148.000000, -557.000000)">
            <g id="massage-copy-2" transform="translate(148.000000, 557.000000)">
                <g id="Group-21">
                    <rect id="Rectangle-11" fill="url(#linearGradient-1)" x="0" y="0" width="80" height="80" rx="8"></rect>
                    <g id="扳手-23" transform="translate(17.000000, 17.000000)">
                        <path d="M36.9589698,29.7580105 L36.4926312,29.8003038 L36.1615315,29.4691946 L31.2249117,24.5324339 L28.5532429,21.8575743 L34.4720762,15.9385716 L34.886322,15.9385885 L38.3457767,15.9387291 C38.4964787,15.9387291 38.6400816,15.8572519 38.7174773,15.7278442 L44.7421251,5.64903861 C44.843863,5.47919654 44.8169177,5.26190317 44.6958599,5.14059822 L41.1298794,1.76602621 C40.9901352,1.62599642 40.7730053,1.59908339 40.6024051,1.70129425 L30.5260128,7.72404687 C30.3945701,7.80286002 30.3140443,7.94479252 30.3138207,8.09658647 L30.3138207,11.9707175 L24.3586598,17.9258783 L21.4872217,14.7550515 L21.6277883,14.2291193 C21.8633893,13.3476141 21.9828899,12.4391207 21.98326,11.5266475 C21.9844504,8.77120287 20.9073173,6.1078673 18.9267119,4.12726185 C16.9461867,2.14661174 14.2827647,1.06950174 11.5266575,1.07075841 C10.3289888,1.07075841 9.14121877,1.27433022 8.01532171,1.67565547 C7.87639441,1.72490007 7.77256259,1.84213906 7.73964754,1.98964504 C7.70699502,2.13347512 7.75060137,2.28398916 7.85636198,2.38936555 L14.0969011,8.62960517 L13.1858997,13.18613 L8.62934357,14.0974223 L8.25091058,13.7189621 L2.38740504,7.8550322 C2.28329094,7.75054189 2.1327616,7.7069311 1.98556914,7.74033672 C1.84159143,7.77249978 1.7242745,7.87644846 1.67439966,8.01722784 C1.27376038,9.14160465 1.07019572,10.3292978 1.07019564,11.5269711 C1.06913733,14.2831614 2.14627246,16.9465976 4.12745485,18.9274676 C6.10744816,20.9080231 8.77055662,21.9850175 11.5265872,21.983893 C11.9334449,21.983893 12.3655281,21.9518151 12.8592525,21.8887651 L15.7629011,21.517961 L13.6930313,23.5878184 L2.03299132,35.2477879 C1.40957235,35.8707878 1.06929264,36.7134104 1.0704059,37.5818791 C1.06929272,38.4476002 1.40968439,39.2901742 2.03371861,39.9134225 L6.08633092,43.9668085 C6.70960096,44.590393 7.55218184,44.9307072 8.42069224,44.9295941 C9.28656804,44.9307072 10.129156,44.5903956 10.7523091,43.9667709 L24.0130651,30.7060149 L24.7201719,31.4130012 L26.3713648,33.0639127 L29.7992645,36.4923573 L29.7577158,36.9578363 C29.7551398,36.9864433 29.7551398,36.9864433 29.7526396,37.0136652 C29.7521712,37.0187592 29.7521712,37.0187592 29.7517069,37.0238053 C29.7369784,37.1838971 29.7325471,37.249998 29.7322751,37.330621 C29.7343263,41.5248773 33.1371319,44.9276829 37.33041,44.9297341 C41.5245449,44.9276829 44.9273312,41.5248581 44.9293824,37.3315695 C44.9274555,33.1375592 41.5246045,29.7346698 37.3350694,29.7325482 C37.2479495,29.7329054 37.1808865,29.7374603 37.0161741,29.7527434 C37.015691,29.7527882 37.015691,29.7527882 37.0152074,29.7528331 C36.9877856,29.7553773 36.9877856,29.7553773 36.9589698,29.7580105 Z" id="Path" stroke="#333333" stroke-width="2" fill="#FFFFFF"></path>
                        <path d="M40.1970367,37.3313211 C40.1931682,35.7461498 38.9161407,34.4689817 37.3309694,34.4651131 C35.7457982,34.4689817 34.46863,35.7461498 34.4647615,37.3313211 C34.46863,38.9164924 35.7457982,40.1935199 37.3309694,40.1973884 C38.9161407,40.1935199 40.1931682,38.9164924 40.1970367,37.3313211 Z" id="Shape" stroke="#333333" fill="#FF7B00" fill-rule="nonzero"></path>
                        <path d="M14.6155282,26.523793 C14.6155282,25.0142904 15.8690387,23.7905966 17.4153224,23.7905966 L23.315734,23.7905966 C24.8620176,23.7905966 26.1155282,25.0142904 26.1155282,26.523793" id="Rectangle-5" stroke="#FF7B00" stroke-width="2" stroke-linecap="round" transform="translate(20.365528, 25.157195) rotate(45.000000) translate(-20.365528, -25.157195) "></path>
                        <path d="M6.96523031,39.1274211 L18.6875,27.3125" id="Line-8" stroke="#FF7B00" stroke-width="2" stroke-linecap="round"></path>
                        <path d="M20.6041667,23.4791667 L24.9166667,19.1666667" id="Line-9" stroke="#FF7B00" stroke-width="2" stroke-linecap="round"></path>
                        <path d="M23.4791667,25.3958333 L27.7916667,21.0833333" id="Line-9-Copy" stroke="#FF7B00" stroke-width="2" stroke-linecap="round"></path>
                    </g>
                </g>
            </g>
        </g>
    </g>
</svg>