<?xml version="1.0" encoding="UTF-8"?>
<svg width="80px" height="80px" viewBox="0 0 80 80" version="1.1" xmlns="http://www.w3.org/2000/svg" xmlns:xlink="http://www.w3.org/1999/xlink">
    <!-- Generator: Sketch 50.2 (55047) - http://www.bohemiancoding.com/sketch -->
    <title>Group 20</title>
    <desc>Created with Sketch.</desc>
    <defs>
        <linearGradient x1="100%" y1="51.9695699%" x2="0%" y2="51.9695699%" id="linearGradient-1">
            <stop stop-color="#EC673A" offset="0%"></stop>
            <stop stop-color="#F29537" offset="100%"></stop>
        </linearGradient>
    </defs>
    <g id="Page-1" stroke="none" stroke-width="1" fill="none" fill-rule="evenodd">
        <g id="1_1_Elder's-Home-Page-(shanyuan)" transform="translate(-269.000000, -421.000000)">
            <g id="wallet" transform="translate(269.000000, 421.000000)">
                <g id="Group-20">
                    <rect id="Rectangle-11" fill="url(#linearGradient-1)" x="0" y="0" width="80" height="80" rx="11"></rect>
                    <g id="钱包-01" transform="translate(17.000000, 19.000000)">
                        <path d="M50.0689655,23.8973262 L50.0689655,15.4137931 C50.0689655,13.7569389 48.7258198,12.4137931 47.0689655,12.4137931 L4.37931034,12.4137931 C2.7224561,12.4137931 1.37931034,13.7569389 1.37931034,15.4137931 L1.37931034,42.1724138 C1.37931034,43.829268 2.7224561,45.1724138 4.37931034,45.1724138 L47.0689655,45.1724138 C48.7258198,45.1724138 50.0689655,43.829268 50.0689655,42.1724138 L50.0689655,34.5869814 L42.4461375,34.5869814 C39.4942708,34.5869814 37.1013099,32.1940206 37.1013099,29.2421538 C37.1013099,26.2902871 39.4942708,23.8973262 42.4461375,23.8973262 L50.0689655,23.8973262 Z" id="Combined-Shape" stroke="#333333" stroke-width="2" fill="#FFFFFF"></path>
                        <g id="Group-37" transform="translate(6.172414, 25.896552)" fill-rule="nonzero">
                            <path d="M0.669516405,3.03654684 C0.669516405,1.7396883 1.57626303,0.674788187 2.6833374,0.674788187 C3.79041177,0.674788187 4.6971584,1.73441651 4.6971584,3.03654684" id="Shape" fill="#FAFCFB"></path>
                            <path d="M4.70243018,3.71133503 C4.32813361,3.71133503 4.02764199,3.41084342 4.02764199,3.03654684 C4.02764199,2.12452843 3.4161152,1.34957637 2.68860918,1.34957637 C1.96110317,1.34957637 1.34957637,2.11925665 1.34957637,3.03654684 C1.34957637,3.41084342 1.04908476,3.71133503 0.674788187,3.71133503 C0.300491615,3.71133503 0,3.41084342 0,3.03654684 C0,1.36011994 1.20723824,0 2.69388097,0 C4.18052369,0 5.38776193,1.36011994 5.38776193,3.03654684 C5.37721837,3.41084342 5.07145497,3.71133503 4.70243018,3.71133503 Z" id="Shape" fill="#0F0F0F"></path>
                            <path d="M23.4963356,3.03654684 C23.4963356,1.7396883 24.4030822,0.674788187 25.5101565,0.674788187 C26.6172309,0.674788187 27.5239775,1.73441651 27.5239775,3.03654684" id="Shape" fill="#FAFCFB"></path>
                            <path d="M27.5292493,3.71133503 C27.1549528,3.71133503 26.8544611,3.41084342 26.8544611,3.03654684 C26.8544611,2.12452843 26.2429343,1.34957637 25.5154283,1.34957637 C24.7879223,1.34957637 24.1763955,2.11925665 24.1763955,3.03654684 C24.1763955,3.41084342 23.8759039,3.71133503 23.5016073,3.71133503 C23.1273108,3.71133503 22.8268191,3.41084342 22.8268191,3.03654684 C22.8268191,1.36011994 24.0340574,0 25.5207001,0 C27.0073428,0 28.2145811,1.36011994 28.2145811,3.03654684 C28.2040375,3.41084342 27.9035459,3.71133503 27.5292493,3.71133503 Z" id="Shape" fill="#0F0F0F"></path>
                            <path d="M9.08328162,4.70770196 C9.08328162,7.14853736 11.3396046,9.14654301 14.096747,9.14654301 C16.8538893,9.14654301 19.1102123,7.14853736 19.1102123,4.70770196 L19.1102123,3.22633102 L9.08328162,3.22633102 L9.08328162,4.70770196 Z" id="Shape" fill="#FF4500"></path>
                            <path d="M14.096747,9.82133119 C10.9600363,9.82133119 8.40322164,7.52810571 8.40322164,4.70770196 L8.40322164,3.22633102 C8.40322164,2.85203445 8.70371326,2.55154283 9.07800983,2.55154283 L19.1154841,2.55154283 C19.4897807,2.55154283 19.7902723,2.85203445 19.7902723,3.22633102 L19.7902723,4.70770196 C19.7902723,7.52810571 17.2387295,9.82133119 14.096747,9.82133119 Z M9.7580698,3.90111921 L9.7580698,4.70770196 C9.7580698,5.69352533 10.2008996,6.62663087 11.0022105,7.33832154 C11.8298804,8.07109933 12.9264112,8.47175482 14.096747,8.47175482 C15.2670827,8.47175482 16.3636135,8.07109933 17.1912834,7.33832154 C17.9925944,6.62663087 18.4354241,5.69352533 18.4354241,4.70770196 L18.4354241,3.90111921 L9.7580698,3.90111921 Z" id="Shape" fill="#141414"></path>
                        </g>
                        <path d="M42.7413793,25.8965517 L50.0689655,25.8965517 C50.6212503,25.8965517 51.0689655,26.344267 51.0689655,26.8965517 L51.0689655,31.4137931 C51.0689655,31.9660779 50.6212503,32.4137931 50.0689655,32.4137931 L42.7413793,32.4137931 C40.9416928,32.4137931 39.4827586,30.9548589 39.4827586,29.1551724 L39.4827586,29.1551724 C39.4827586,27.3554859 40.9416928,25.8965517 42.7413793,25.8965517 Z" id="Rectangle-44-Copy" fill="#FFFFFF"></path>
                        <circle id="Oval-24" fill="#F08241" cx="43.1034483" cy="29.0827763" r="2.17241379"></circle>
                        <path d="M13.2630015,9.63648484 C13.9970618,9.63648484 14.928122,9.63648484 16.2258044,9.63648484 C27.6075554,9.63648484 27.9012025,9.63648484 44.8665886,9.63648484 L42.7913561,3.35424361 C42.4563765,2.34017371 41.3837691,1.76820324 40.3550561,2.05508071 C28.9470535,5.23643353 20.4174416,7.62240806 14.7665167,9.2129204 C14.2403761,9.36100821 13.739203,9.50219674 13.2630015,9.63648484 Z M6.54502644,11.5617345 C6.54422138,11.561934 6.54741511,11.560756 6.55282775,11.5587595 C6.55590572,11.5578628 6.55856653,11.5570877 6.56124335,11.5562065 Z" id="Combined-Shape" stroke="#333333" stroke-width="2" fill="#FFFFFF"></path>
                    </g>
                </g>
            </g>
        </g>
    </g>
</svg>