<?xml version="1.0" encoding="UTF-8"?>
<svg width="24px" height="29px" viewBox="0 0 24 29" version="1.1" xmlns="http://www.w3.org/2000/svg" xmlns:xlink="http://www.w3.org/1999/xlink">
    <!-- Generator: Sketch 50.2 (55047) - http://www.bohemiancoding.com/sketch -->
    <title>location(5_1_2)</title>
    <desc>Created with Sketch.</desc>
    <defs></defs>
    <g id="Page-1" stroke="none" stroke-width="1" fill="none" fill-rule="evenodd">
        <g id="7_1_1_Location(Select)" transform="translate(-26.000000, -104.000000)">
            <g id="Group-7-Copy-16" transform="translate(12.000000, 76.000000)">
                <g id="location(5_1_2)" transform="translate(12.000000, 28.000000)">
                    <rect id="Rectangle-5" x="0" y="1" width="27" height="27"></rect>
                    <g id="定位" transform="translate(2.000000, 0.000000)" fill="#666666" fill-rule="nonzero">
                        <path d="M11.7479188,9.05980939 C13.1807753,9.06189479 14.4130117,10.0749596 14.6921497,11.4803649 C14.9712877,12.8857703 14.2197342,14.2928503 12.8964334,14.8423566 C11.5731326,15.3918629 10.0459274,14.931047 9.247422,13.7413112 C8.44891662,12.5515754 8.60107461,10.9636349 9.61097906,9.94718266 C10.1763688,9.37812721 10.9457416,9.0586419 11.7479188,9.05980939 Z M11.7479188,7.24884354 C9.44133643,7.25234133 7.45837305,8.88457088 7.01156,11.1474656 C6.56474696,13.4103603 7.77850493,15.6737888 9.91065196,16.5537225 C12.042799,17.4336562 14.4996121,16.6850665 15.7788129,14.765697 C17.0580137,12.8463274 16.8033927,10.2906503 15.1706442,8.66139692 C14.2646296,7.75164418 13.0318491,7.24287761 11.7479188,7.24884354 Z" id="Shape"></path>
                        <path d="M20.0421424,3.51825389 C17.8685928,1.26970958 14.875261,-8.71294864e-06 11.7479188,-8.71294864e-06 C8.62057658,-8.71294864e-06 5.62724475,1.26970958 3.45369519,3.51825389 C-1.12092794,8.2495458 -1.12092794,15.755712 3.45369519,20.4870039 L11.7479188,28.9804337 L20.0421424,20.4870039 C24.6167655,15.755712 24.6167655,8.2495458 20.0421424,3.51825389 Z M18.7925759,19.2917664 L11.7479188,26.5356298 L4.70326162,19.2917664 C0.813800023,15.2807734 0.813800023,8.90558098 4.70326162,4.89458795 C6.55180561,2.98930783 9.09326112,1.91403182 11.7479188,1.91403182 C14.4025764,1.91403182 16.9440319,2.98930783 18.7925759,4.89458795 C22.6820375,8.90558098 22.6820375,15.2807734 18.7925759,19.2917664 Z" id="Shape"></path>
                    </g>
                </g>
            </g>
        </g>
    </g>
</svg>