<?xml version="1.0" encoding="UTF-8"?>
<svg width="46px" height="46px" viewBox="0 0 46 46" version="1.1" xmlns="http://www.w3.org/2000/svg" xmlns:xlink="http://www.w3.org/1999/xlink">
    <!-- Generator: Sketch 50.2 (55047) - http://www.bohemiancoding.com/sketch -->
    <title>Need to be paid</title>
    <desc>Created with Sketch.</desc>
    <defs></defs>
    <g id="Page-1" stroke="none" stroke-width="1" fill="none" fill-rule="evenodd">
        <g id="9_3_order-details-details(unpaid)" transform="translate(-287.000000, -108.000000)" fill="#FFFFFF" fill-rule="nonzero">
            <g id="Group" transform="translate(12.000000, 76.000000)">
                <g id="Need-to-be-paid" transform="translate(275.000000, 32.000000)">
                    <path d="M35.8606611,3.95897383 C35.1272611,3.46335099 34.1297638,3.65594729 33.6344036,4.38987251 C33.1385181,5.12379779 33.3311144,6.12050715 34.0650397,6.61634013 C39.5254541,10.3056673 42.7857213,16.4365438 42.7857213,23.0163386 C42.7857213,33.9214592 33.9136839,42.7932864 23.0087735,42.7932864 C12.1038631,42.7932864 3.23214092,33.9215118 3.23214092,23.0163386 C3.23214092,16.436281 6.49214552,10.3054046 11.9525599,6.61634013 C12.6864852,6.12045463 12.8796068,5.12374527 12.3837213,4.3900827 C11.8883612,3.65615742 10.8911264,3.46329847 10.1574639,3.95892131 C3.8128192,8.24521291 0.0250924353,15.3696465 0.0250924353,23.0163386 C0.0250924353,35.689657 10.3354552,46.0002824 23.0087735,46.0002824 C35.6820919,46.0002824 45.9927697,35.6897095 45.9927697,23.0163386 C45.9927697,15.3696465 42.2047803,8.24547556 35.8606611,3.95897383 Z M17.2858376,0.0326575871 C16.4002941,0.0326575871 15.6823397,0.750611982 15.6823397,1.63615557 L15.6823397,3.20051438 C15.6823397,4.08605797 16.4003466,4.80401236 17.2858376,4.80401236 C18.1713812,4.80401236 18.8893356,4.08600545 18.8893356,3.20051438 L18.8893356,1.63615557 C18.8893356,0.750664502 18.1713812,0.0326575871 17.2858376,0.0326575871 Z M28.7320245,0.0326575871 C27.8464809,0.0326575871 27.1285265,0.750611982 27.1285265,1.63615557 L27.1285265,3.20051438 C27.1285265,4.08605797 27.8465335,4.80401236 28.7320245,4.80401236 C29.6175681,4.80401236 30.3355225,4.08600545 30.3355225,3.20051438 L30.3355225,1.63615557 C30.3355225,0.750664502 29.6175156,0.0326575871 28.7320245,0.0326575871 Z M18.5691824,8.4020323 C19.1446597,9.32855383 20.7241488,10.8965376 22.9924348,10.8965376 C25.2492156,10.8965376 26.8480379,9.3402693 27.4370694,8.42078757 C27.9146724,7.67488417 27.6972793,6.68311313 26.9516385,6.20551012 C26.2049471,5.72816977 25.2139641,5.94556294 24.7363611,6.69094099 C24.7301093,6.70113291 24.0494553,7.68948912 22.9924349,7.68948912 C21.9652022,7.68948912 21.3267871,6.75881727 21.2840229,6.69488117 C20.8134597,5.9541788 19.8318806,5.72974583 19.0851891,6.1937946 C18.3327187,6.66125825 18.1017188,7.64987711 18.5691824,8.4020323 Z M14.9912311,27.0588115 C14.1056875,27.0588115 13.3877331,27.7767659 13.3877331,28.6623095 C13.3877331,29.5478531 14.1056875,30.2658075 14.9912311,30.2658075 L21.4052755,30.2658075 L21.4052755,35.3099282 C21.4052755,36.1954717 22.1232299,36.9136888 23.0087735,36.9136888 C23.8943171,36.9136888 24.6122715,36.1954717 24.6122715,35.3099282 L24.6122715,30.2658075 L31.0263159,30.2658075 C31.9118594,30.2658075 32.6300765,29.5478531 32.6300765,28.6623095 C32.6300765,27.7767659 31.9118594,27.0588115 31.0263159,27.0588115 L24.612324,27.0588115 L24.612324,22.7827644 L31.0263684,22.7827644 C31.911912,22.7827644 32.630129,22.0647575 32.630129,21.1792665 C32.630129,20.2937229 31.911912,19.5757685 31.0263684,19.5757685 L26.8801372,19.5757685 L30.3733483,16.082715 C30.9997327,15.4563306 30.9997327,14.4410761 30.373611,13.8150068 C29.7474892,13.1886224 28.731972,13.1888851 28.1059028,13.8147441 L23.0089311,18.9115057 L17.9119594,13.8147441 C17.2861003,13.188885 16.2705831,13.1886224 15.6442512,13.8150068 C15.0181294,14.4411286 15.0181294,15.4563831 15.6445139,16.082715 L19.1377249,19.5757685 L14.9912311,19.5757685 C14.1056876,19.5757685 13.3877332,20.2937229 13.3877332,21.1792665 C13.3877332,22.06481 14.1056876,22.7827644 14.9912311,22.7827644 L21.4052755,22.7827644 L21.4052755,27.0588115 L14.9912311,27.0588115 Z" id="Shape"></path>
                </g>
            </g>
        </g>
    </g>
</svg>