<?xml version="1.0" encoding="UTF-8"?>
<svg width="80px" height="80px" viewBox="0 0 80 80" version="1.1" xmlns="http://www.w3.org/2000/svg" xmlns:xlink="http://www.w3.org/1999/xlink">
    <!-- Generator: Sketch 50.2 (55047) - http://www.bohemiancoding.com/sketch -->
    <title>Group 18</title>
    <desc>Created with Sketch.</desc>
    <defs>
        <linearGradient x1="94.7265625%" y1="0%" x2="0%" y2="95.2450707%" id="linearGradient-1">
            <stop stop-color="#C7F17C" offset="0%"></stop>
            <stop stop-color="#86B833" offset="100%"></stop>
        </linearGradient>
    </defs>
    <g id="Page-1" stroke="none" stroke-width="1" fill="none" fill-rule="evenodd">
        <g id="1_1_Elder's-Home-Page-(shanyuan)" transform="translate(-26.000000, -421.000000)">
            <g id="massage" transform="translate(24.000000, 421.000000)">
                <g id="Group-18" transform="translate(2.000000, 0.000000)">
                    <rect id="Rectangle-11" fill="url(#linearGradient-1)" x="0" y="0" width="80" height="80" rx="8"></rect>
                    <g id="Group-14" transform="translate(16.000000, 17.000000)">
                        <path d="M15.3468668,9.12694806 L16.3043253,9.12694625 C18.305281,9.12694625 19.9984066,10.6055196 20.2678862,12.5882461 C20.7706816,16.2876205 21.0071118,18.7767606 20.9771767,20.0556665 C20.9666755,20.5043059 25.055289,16.5945002 33.2430173,8.32624939 L48.9470229,33.4335196 L37.3870469,44.9934956 C34.9542437,47.127928 33.1274432,48.4915197 31.9066455,49.0842704 C26.7451318,51.5904114 21.5486921,50.327008 16.3173264,45.2940602 C6.64043805,35.9842019 9.77195723,27.1401895 9.98684234,24.8007651 C10.232802,22.1230366 10.6964956,18.0659342 11.3779233,12.6294579 L11.3779317,12.6294589 C11.6287587,10.6283442 13.3300935,9.12694806 15.3468668,9.12694806 Z" id="Rectangle-14-Copy-4" fill="#FFFFFF" transform="translate(29.141096, 29.330078) rotate(-45.000000) translate(-29.141096, -29.330078) "></path>
                        <g id="Group-15" transform="translate(23.000000, 34.000000)" fill-rule="nonzero" stroke="#A8D659" stroke-linecap="round" stroke-width="3">
                            <path d="M15,0 C15,0.187387444 14.9909161,0.372986978 14.9731157,0.556480162 M12.7997431,4.63279804 C11.4396248,5.82381712 9.56292369,6.5625 7.5,6.5625 C3.37004405,6.5625 0,3.60648403 0,0" id="Shape"></path>
                        </g>
                        <path d="M15.4510048,9.0998047 L15.5787043,9.09494815 C17.4971339,9.02181503 19.1969641,10.3219673 19.6286394,12.1926295 C20.5405531,16.1444013 20.9811303,18.7773441 20.9503711,20.091458 C20.9398699,20.5400973 25.0284834,16.6302916 33.2162117,8.36204083 L48.8606147,33.5289136 C47.8598016,34.6797641 47.1013813,35.5042331 46.5853536,36.0023205 C37.9934696,44.2954982 32.8143882,48.4398429 31.6944826,48.9836061 C26.532969,51.4897471 21.5218865,50.3627994 16.2905208,45.3298517 C6.61363246,36.0199934 9.74515164,27.1759809 9.96003675,24.8365565 C10.2096088,22.1195003 10.7739343,17.9968865 11.6530134,12.4687153 L11.6530199,12.4687163 C11.9528374,10.583286 13.5432708,9.17253009 15.4510048,9.0998047 Z" id="Rectangle-14-Copy-9" stroke="#333333" stroke-width="2" stroke-linecap="round" transform="translate(29.084489, 29.315616) rotate(-45.000000) translate(-29.084489, -29.315616) "></path>
                        <path d="M27.3888889,0 L27.3888889,0 C29.4650704,-3.81388365e-16 31.1481481,1.6830777 31.1481481,3.75925926 L31.1481481,24.7037037 L23.6296296,24.7037037 L23.6296296,3.75925926 C23.6296296,1.6830777 25.3127073,3.81388365e-16 27.3888889,0 Z" id="Rectangle-14" fill="#FFFFFF"></path>
                        <path d="M34.9074074,2.14814815 L34.9074074,2.14814815 C36.983589,2.14814815 38.6666667,3.83122585 38.6666667,5.90740741 L38.6666667,24.7037037 L31.1481481,24.7037037 L31.1481481,5.90740741 C31.1481481,3.83122585 32.8312258,2.14814815 34.9074074,2.14814815 Z" id="Rectangle-14-Copy-2" fill="#FFFFFF"></path>
                        <path d="M38.6666667,21.4814815 L38.6666667,11.2777778 C38.6666667,9.20159622 40.3497444,7.51851852 42.4259259,7.51851852 C44.5021075,7.51851852 46.1851852,9.20159622 46.1851852,11.2777778 L46.1851852,21.4814815" id="Rectangle-14-Copy-3" stroke="#333333" stroke-width="2" fill="#FFFFFF" stroke-linecap="round"></path>
                        <path d="M20.9444444,1.07407407 L20.9444444,1.07407407 C22.4274313,1.07407407 23.6296296,2.27627243 23.6296296,3.75925926 L23.6296296,24.7037037 L18.2592593,24.7037037 L18.2592593,3.75925926 C18.2592593,2.27627243 19.4614576,1.07407407 20.9444444,1.07407407 Z" id="Rectangle-14-Copy" fill="#FFFFFF"></path>
                        <g id="Group-11" transform="translate(17.185185, 0.000000)" stroke="#333333" stroke-width="2">
                            <path d="M6.44444444,21.4814815 L6.44444444,3.75925926 C6.44444444,1.6830777 8.12752214,3.81388365e-16 10.2037037,0 C12.2798853,-3.81388365e-16 13.962963,1.6830777 13.962963,3.75925926 L13.962963,21.4814815" id="Rectangle-14-Copy-8" stroke-linecap="round"></path>
                            <path d="M13.962963,21.4814815 L13.962963,5.90740741 C13.962963,3.83122585 15.6460407,2.14814815 17.7222222,2.14814815 C19.7984038,2.14814815 21.4814815,3.83122585 21.4814815,5.90740741 L21.4814815,21.4814815" id="Rectangle-14-Copy-7"></path>
                            <path d="M0,21.4814815 L0,4.2962963 C-2.17936209e-16,2.5167121 1.44263803,1.07407407 3.22222222,1.07407407 C5.00180642,1.07407407 6.44444444,2.5167121 6.44444444,4.2962963 L6.44444444,21.4814815" id="Rectangle-14-Copy-5"></path>
                        </g>
                    </g>
                </g>
            </g>
        </g>
    </g>
</svg>