<?xml version="1.0" encoding="UTF-8"?>
<svg width="46px" height="51px" viewBox="0 0 46 51" version="1.1" xmlns="http://www.w3.org/2000/svg" xmlns:xlink="http://www.w3.org/1999/xlink">
    <!-- Generator: Sketch 50.2 (55047) - http://www.bohemiancoding.com/sketch -->
    <title>Order in progress</title>
    <desc>Created with Sketch.</desc>
    <defs></defs>
    <g id="Page-1" stroke="none" stroke-width="1" fill="none" fill-rule="evenodd">
        <g id="9_5_order-details-details(in-prograss)" transform="translate(-287.000000, -107.000000)" fill="#FFFFFF" fill-rule="nonzero">
            <g id="Group" transform="translate(12.000000, 76.000000)">
                <g id="Order-in-progress" transform="translate(275.000000, 31.000000)">
                    <path d="M40.2614791,12.4208715 L40.2614791,7.07404997 C40.2614791,6.09810033 39.4701701,5.30684924 38.4942783,5.30684924 C37.5183287,5.30684924 36.7270776,6.09815821 36.7270776,7.07404997 L36.7270776,12.4208715 C36.7270776,17.6480152 33.5173752,22.4089542 28.5496779,24.5500682 C27.9016696,24.8290847 27.4819579,25.4670185 27.4819579,26.1728682 C27.4819579,26.8787179 27.9016116,27.5167097 28.5496779,27.7956682 C33.5173752,29.9367822 36.7270776,34.6977212 36.7270776,39.9245755 L36.7270776,44.1216916 C36.7270776,45.0979308 37.5183866,45.8888923 38.4942783,45.8888923 C39.470228,45.8888923 40.2614791,45.0979308 40.2614791,44.1216916 L40.2614791,39.9245755 C40.2614791,34.3962399 37.4547553,29.2867474 32.8989534,26.1728103 C37.4547553,23.058989 40.2614791,17.9494965 40.2614791,12.4208715 Z M17.4886644,24.5501261 C12.5209671,22.4090121 9.31126466,17.6480731 9.31126466,12.4209293 L9.31126466,7.07410785 C9.31126466,6.09815821 8.51995569,5.30690712 7.54406394,5.30690712 C6.5681143,5.30690712 5.77686321,6.0982161 5.77686321,7.07410785 L5.77686321,12.4209293 C5.77686321,17.9495544 8.58358693,23.0590469 13.1393889,26.172984 C8.58358693,29.2869211 5.77686321,34.3964135 5.77686321,39.9247492 L5.77686321,44.1218653 C5.77686321,45.0981045 6.5681143,45.889066 7.54406394,45.889066 C8.52001357,45.889066 9.31126466,45.0981045 9.31126466,44.1218653 L9.31126466,39.9247492 C9.31126466,34.6978949 12.5209671,29.9369559 17.4886644,27.7958419 C18.1367306,27.5168254 18.5563843,26.8788916 18.5563843,26.1730419 C18.5563843,25.4671922 18.1367306,24.8290846 17.4886644,24.5501261 Z M1.8125599,3.57045097 L44.2257824,3.57045097 C45.201732,3.57045097 45.9929831,2.77919988 45.9929831,1.80325024 C45.9929831,0.827300608 45.2016741,0.0360495154 44.2257824,0.0360495154 L1.8125599,0.0360495154 C0.836610261,0.0360495154 0.0453591685,0.827300608 0.0453591685,1.80325024 C0.0453591685,2.77919988 0.836610261,3.57045097 1.8125599,3.57045097 Z M44.2257824,47.1620968 L1.8125599,47.1620968 C0.836610261,47.1620968 0.0453591685,47.9530583 0.0453591685,48.9292975 C0.0453591685,49.9055366 0.836610261,50.6964982 1.8125599,50.6964982 L44.2257824,50.6964982 C45.201732,50.6964982 45.9929831,49.9055366 45.9929831,48.9292975 C45.9929831,47.9530583 45.2016741,47.1620968 44.2257824,47.1620968 Z M16.1227054,8.6805224 C15.1467557,8.6805224 14.3555047,9.47183137 14.3555047,10.4477231 L14.3555047,12.1717889 C14.3555047,13.1477386 15.1468136,13.9389897 16.1227054,13.9389897 C17.098655,13.9389897 17.8899061,13.1477386 17.8899061,12.1717889 L17.8899061,10.4477231 C17.8899061,9.47177349 17.098655,8.6805224 16.1227054,8.6805224 Z M29.915579,8.6805224 C28.9396294,8.6805224 28.1483783,9.47183137 28.1483783,10.4477231 L28.1483783,12.1717889 C28.1483783,13.1477386 28.9396294,13.9389897 29.915579,13.9389897 C30.8915286,13.9389897 31.6827797,13.1477386 31.6827797,12.1717889 L31.6827797,10.4477231 C31.6827797,9.47177349 30.8915286,8.6805224 29.915579,8.6805224 Z M27.3774498,16.684456 C26.5700449,16.1517829 25.478181,16.3784005 24.9354334,17.179784 C24.9279644,17.190727 24.1651419,18.2975289 23.0016566,18.2975289 C21.8704211,18.2975289 21.1668296,17.2730018 21.1191205,17.20167 C20.600517,16.3847695 19.5187275,16.136845 18.6958056,16.6494269 C17.8665726,17.164267 17.6119896,18.2538729 18.1271771,19.0828164 C18.7614054,20.1039274 20.5021462,21.8319883 23.0017144,21.8319883 C25.4891818,21.8319883 27.2512294,20.1171285 27.9003958,19.1034864 C28.4218365,18.2889019 28.1853759,17.2160289 27.3774498,16.684456 Z M13.8610451,41.6349191 C14.2159675,41.6349191 14.5740743,41.5285003 14.8849932,41.3070357 C14.9166062,41.2845708 18.1105022,39.0491389 22.9723596,39.0491389 C27.7643326,39.0491389 31.1092298,41.2760017 31.1759297,41.3214526 C31.9766763,41.8719586 33.0749091,41.6735379 33.6305681,40.8738914 C34.1868641,40.0719869 33.988096,38.970917 33.1861915,38.4140421 C33.0156203,38.2955223 28.9398609,35.5146795 22.9723595,35.5146795 C16.9927572,35.5146795 13.0012992,38.3093023 12.8341441,38.4284011 C12.0391296,38.994482 11.8539099,40.098389 12.4202224,40.8928245 C12.7651862,41.3772096 13.3090916,41.6349191 13.8610451,41.6349191 Z" id="Shape"></path>
                </g>
            </g>
        </g>
    </g>
</svg>