<?xml version="1.0" encoding="UTF-8"?>
<svg width="32px" height="32px" viewBox="0 0 32 32" version="1.1" xmlns="http://www.w3.org/2000/svg" xmlns:xlink="http://www.w3.org/1999/xlink">
    <!-- Generator: Sketch 50.2 (55047) - http://www.bohemiancoding.com/sketch -->
    <title>Name</title>
    <desc>Created with Sketch.</desc>
    <defs></defs>
    <g id="Page-1" stroke="none" stroke-width="1" fill="none" fill-rule="evenodd">
        <g id="7_1_0_Confirm-Order" transform="translate(-14.000000, -330.000000)">
            <g id="Group-4" transform="translate(0.000000, 316.000000)">
                <g id="Group-6">
                    <g id="Name" transform="translate(12.000000, 12.000000)">
                        <rect id="Rectangle-6" x="0" y="0" width="36" height="36"></rect>
                        <path d="M18,34 C9.164,34 2,26.836 2,18 C2,9.164 9.164,2 18,2 C26.836,2 34,9.164 34,18 C34,26.836 26.836,34 18,34 Z M18.1666667,4.66666666 C10.7106167,4.66666666 4.66666666,10.7106167 4.66666666,18.1666667 C4.66666666,25.6227167 10.7106167,31.6666667 18.1666667,31.6666667 C25.6227167,31.6666667 31.6666667,25.6227167 31.6666667,18.1666667 C31.6666667,10.7106167 25.6227167,4.66666666 18.1666667,4.66666666 Z M18,28.6666667 C14.7627279,28.6677584 11.7008622,27.1957076 9.68,24.6666667 C11.7008622,22.1376257 14.7627279,20.6655749 18,20.6666667 C21.2369824,20.6651997 24.298595,22.1373648 26.3186667,24.6666667 C24.298595,27.1959685 21.2369824,28.6681336 18,28.6666667 Z M18,19.3333333 C16.0945835,19.3333334 14.333906,18.3168058 13.3811978,16.6666667 C12.4284895,15.0165276 12.4284895,12.9834724 13.3811978,11.3333333 C14.333906,9.68319421 16.0945835,8.66666663 18,8.66666666 C20.9455186,8.6666667 23.3333333,11.0544814 23.3333333,14 C23.3333333,16.9455186 20.9455186,19.3333333 18,19.3333333 Z" id="Shape" fill="#666666" fill-rule="nonzero"></path>
                    </g>
                </g>
            </g>
        </g>
    </g>
</svg>