<?xml version="1.0" encoding="UTF-8"?>
<svg width="37px" height="29px" viewBox="0 0 37 29" version="1.1" xmlns="http://www.w3.org/2000/svg" xmlns:xlink="http://www.w3.org/1999/xlink">
    <!-- Generator: Sketch 50.2 (55047) - http://www.bohemiancoding.com/sketch -->
    <title>Coupons (1_1)</title>
    <desc>Created with Sketch.</desc>
    <defs></defs>
    <g id="Page-1" stroke="none" stroke-width="1" fill="none" fill-rule="evenodd">
        <g id="1_1_Home-page-(have-coupons)" transform="translate(-32.000000, -498.000000)" fill-rule="nonzero">
            <g id="Group" transform="translate(20.000000, 115.000000)">
                <g id="Coupons-(1_1)" transform="translate(12.000000, 383.000000)">
                    <polygon id="Shape" fill="#FF4500" points="1.74056338 2.61605634 13.768169 2.61605634 13.768169 26.6712676 1.74056338 26.6712676 1.74056338 19.8028169 4.73704225 14.643662 1.74056338 10.3443662"></polygon>
                    <polygon id="Shape" fill="#FFFFFF" points="14.4091549 1.54253521 34.3839437 1.54253521 34.3839437 26.6712676 14.4091549 26.6712676"></polygon>
                    <path d="M34.3891549,28.3909859 L2.60042254,28.3909859 C1.17774648,28.3909859 0.0208450704,27.2340845 0.0208450704,25.8114085 L0.0208450704,19.161831 C0.0208450704,18.4009859 0.354366197,17.681831 0.938028169,17.1919718 C2.00633803,16.2904225 2.54309859,15.4514085 2.54309859,14.6957746 C2.54309859,13.9349296 2.00112676,13.0959155 0.938028169,12.1995775 C0.354366197,11.7097183 0.0208450704,10.9905634 0.0208450704,10.2297183 L0.0208450704,2.61605634 C0.0208450704,1.19338028 1.17774648,0.0364788732 2.60042254,0.0364788732 L34.3891549,0.0364788732 C35.811831,0.0364788732 36.9687324,1.19338028 36.9687324,2.61605634 L36.9687324,10.2297183 C36.9687324,10.9905634 36.6352113,11.7097183 36.0515493,12.1995775 C34.9884507,13.0959155 34.4464789,13.9401408 34.4464789,14.6957746 C34.4464789,15.4514085 34.9884507,16.2956338 36.0515493,17.1919718 C36.6352113,17.681831 36.9687324,18.4009859 36.9687324,19.161831 L36.9687324,25.8114085 C36.9635211,27.2340845 35.8066197,28.3909859 34.3891549,28.3909859 Z M34.3891549,2.61605634 L2.60042254,2.61605634 L2.60042254,10.2297183 C4.27323944,11.6419718 5.12267606,13.1428169 5.12267606,14.6957746 C5.12267606,16.2487324 4.27323944,17.7495775 2.60042254,19.161831 L2.60042254,25.8114085 L34.3891549,25.8114085 L34.3891549,19.161831 C32.716338,17.7495775 31.8669014,16.2487324 31.8669014,14.6957746 C31.8669014,13.1428169 32.716338,11.6419718 34.3891549,10.2297183 L34.3891549,2.61605634 Z" id="Shape" fill="#333333"></path>
                    <path d="M21.7153521,10.3495775 L26.6556338,10.3495775 C27.3695775,10.3495775 27.9428169,10.9280282 27.9428169,11.6367606 C27.9428169,12.3507042 27.3643662,12.9239437 26.6556338,12.9239437 L21.7153521,12.9239437 C21.0014085,12.9239437 20.428169,12.3507042 20.428169,11.6367606 C20.428169,10.9280282 21.0014085,10.3495775 21.7153521,10.3495775 Z M21.7153521,16.3633803 L26.6556338,16.3633803 C27.3695775,16.3633803 27.9428169,16.941831 27.9428169,17.6505634 C27.9428169,18.364507 27.3643662,18.9377465 26.6556338,18.9377465 L21.7153521,18.9377465 C21.0014085,18.9377465 20.428169,18.3592958 20.428169,17.6505634 C20.428169,16.941831 21.0014085,16.3633803 21.7153521,16.3633803 Z M13.163662,1.32887324 L15.7484507,1.54774648 L15.7484507,26.0198592 L13.163662,25.8009859 L13.163662,1.32887324 Z" id="Shape" fill="#333333"></path>
                </g>
            </g>
        </g>
    </g>
</svg>