<?xml version="1.0" encoding="UTF-8"?>
<svg width="80px" height="80px" viewBox="0 0 80 80" version="1.1" xmlns="http://www.w3.org/2000/svg" xmlns:xlink="http://www.w3.org/1999/xlink">
    <!-- Generator: Sketch 50.2 (55047) - http://www.bohemiancoding.com/sketch -->
    <title>Group 27 Copy 18</title>
    <desc>Created with Sketch.</desc>
    <defs>
        <linearGradient x1="94.7265625%" y1="0%" x2="0%" y2="95.2450707%" id="linearGradient-1">
            <stop stop-color="#FAB860" offset="0%"></stop>
            <stop stop-color="#F76E1E" offset="100%"></stop>
        </linearGradient>
    </defs>
    <g id="Page-1" stroke="none" stroke-width="1" fill="none" fill-rule="evenodd">
        <g id="1_1_Elder's-Home-Page-(shanyuan)" transform="translate(-26.000000, -557.000000)">
            <g id="massage-copy" transform="translate(26.000000, 557.000000)">
                <g id="Group-27-Copy-18">
                    <rect id="Rectangle-11" fill="url(#linearGradient-1)" x="0" y="0" width="80" height="80" rx="8"></rect>
                    <g id="rice" transform="translate(15.000000, 14.000000)">
                        <path d="M40.3692196,19.9676862 C38.9712673,19.9676862 37.6804378,20.3586843 36.6359907,21.0121333 C36.6145662,15.0507506 34.1560984,10.2302255 31.1191676,10.2302255 C29.6301609,10.2302255 28.28577,11.3925076 27.2895282,13.2725124 C25.2702638,11.3925076 22.5225645,10.2302255 19.4963459,10.2302255 C13.8402632,10.2302255 9.1750661,14.2633981 8.3930698,19.5124144 C5.05619521,21.3549262 2.98872556,23.9098045 2.98872556,26.743202 C2.98872556,32.3457234 11.0872077,36.8877293 21.0817631,36.8877293 C28.8053155,36.8877293 35.3933665,34.1721668 37.9910939,30.3532397 C38.7302411,30.6103344 39.5336619,30.749594 40.3745757,30.749594 C43.8721345,30.749594 46.7108882,28.3339753 46.7108882,25.355962 C46.7108882,22.3779487 43.8667784,19.9676862 40.3692196,19.9676862 Z" id="Shape" stroke="#333333" stroke-width="2" fill="#FFFFFF" fill-rule="nonzero"></path>
                        <path d="M0.723078764,26.9467353 C0.723078764,38.7141727 10.3534167,49.09437 22.120854,49.09437 L27.5734035,49.09437 C39.3408409,49.09437 48.9711788,38.7141727 48.9711788,26.9467353 L0.723078764,26.9467353 Z" id="Shape" stroke="#333333" stroke-width="2" fill="#FCFCFC" fill-rule="nonzero"></path>
                        <g id="Group-38" transform="translate(13.068979, 33.398502)" fill-rule="nonzero">
                            <path d="M0.575389982,2.60964275 C0.575389982,1.49510783 1.3546583,0.579920612 2.30609056,0.579920612 C3.25752281,0.579920612 4.03679113,1.4905772 4.03679113,2.60964275" id="Shape" fill="#FAFCFB"></path>
                            <path d="M4.04132176,3.18956336 C3.71964705,3.18956336 3.46140115,2.93131747 3.46140115,2.60964275 C3.46140115,1.8258438 2.9358481,1.15984122 2.31062119,1.15984122 C1.68539428,1.15984122 1.15984122,1.82131317 1.15984122,2.60964275 C1.15984122,2.93131747 0.901595326,3.18956336 0.579920612,3.18956336 C0.258245897,3.18956336 0,2.93131747 0,2.60964275 C0,1.16890248 1.03751422,0 2.31515182,0 C3.59278941,0 4.63030363,1.16890248 4.63030363,2.60964275 C4.62124237,2.93131747 4.35846585,3.18956336 4.04132176,3.18956336 Z" id="Shape" fill="#0F0F0F"></path>
                            <path d="M20.1930169,2.60964275 C20.1930169,1.49510783 20.9722852,0.579920612 21.9237175,0.579920612 C22.8751497,0.579920612 23.6544181,1.4905772 23.6544181,2.60964275" id="Shape" fill="#FAFCFB"></path>
                            <path d="M23.6589487,3.18956336 C23.337274,3.18956336 23.0790281,2.93131747 23.0790281,2.60964275 C23.0790281,1.8258438 22.553475,1.15984122 21.9282481,1.15984122 C21.3030212,1.15984122 20.7774682,1.82131317 20.7774682,2.60964275 C20.7774682,2.93131747 20.5192223,3.18956336 20.1975475,3.18956336 C19.8758728,3.18956336 19.6176269,2.93131747 19.6176269,2.60964275 C19.6176269,1.16890248 20.6551412,0 21.9327788,0 C23.2104164,0 24.2479306,1.16890248 24.2479306,2.60964275 C24.2388693,2.93131747 23.9806234,3.18956336 23.6589487,3.18956336 Z" id="Shape" fill="#0F0F0F"></path>
                            <path d="M7.80627511,4.04585239 C7.80627511,6.14353398 9.74538465,7.86064266 12.114904,7.86064266 C14.4844234,7.86064266 16.4235329,6.14353398 16.4235329,4.04585239 L16.4235329,2.77274542 L7.80627511,2.77274542 L7.80627511,4.04585239 Z" id="Shape" fill="#4F423B"></path>
                            <path d="M12.114904,8.44056328 C9.41917931,8.44056328 7.22182387,6.46973932 7.22182387,4.04585239 L7.22182387,2.77274542 C7.22182387,2.45107071 7.48006976,2.19282481 7.80174448,2.19282481 L16.4280636,2.19282481 C16.7497383,2.19282481 17.0079842,2.45107071 17.0079842,2.77274542 L17.0079842,4.04585239 C17.0079842,6.46973932 14.8151594,8.44056328 12.114904,8.44056328 Z M8.38619572,3.35266604 L8.38619572,4.04585239 C8.38619572,4.89308016 8.76676862,5.69500163 9.45542435,6.30663665 C10.1667332,6.93639419 11.1091042,7.28072205 12.114904,7.28072205 C13.1207038,7.28072205 14.0630748,6.93639419 14.7743837,6.30663665 C15.4630394,5.69500163 15.8436123,4.89308016 15.8436123,4.04585239 L15.8436123,3.35266604 L8.38619572,3.35266604 Z" id="Shape" fill="#141414"></path>
                            <path d="M9.56869009,5.38691881 C9.56869009,6.07752538 10.6782424,6.63737262 12.0469446,6.63737262 C13.4156467,6.63737262 14.5251991,6.07752538 14.5251991,5.38691881 C14.5251991,4.69631223 13.4156467,4.13646499 12.0469446,4.13646499 C10.6782424,4.13646499 9.56869009,4.69631223 9.56869009,5.38691881 Z" id="Shape" fill="#FF4500"></path>
                        </g>
                        <path d="M10.1589977,47.358981 L39.5299038,47.358981 C40.0821885,47.358981 40.5299038,47.8066962 40.5299038,48.358981 L40.5299038,51.5796185 L9.15899768,51.5796185 L9.15899768,48.358981 C9.15899768,47.8066962 9.60671293,47.358981 10.1589977,47.358981 Z" id="Shape" stroke="#333333" stroke-width="2" fill="#FFFFFF" fill-rule="nonzero"></path>
                        <path d="M4.7755102,0.530612245 L12.2040816,27.0612245" id="Line-7" stroke="#333333" stroke-width="2" stroke-linecap="round"></path>
                        <path d="M11.2825851,1.06122449 L15.5547655,26.5873632" id="Line-7-Copy" stroke="#333333" stroke-width="2" stroke-linecap="round"></path>
                    </g>
                </g>
            </g>
        </g>
    </g>
</svg>