<?xml version="1.0" encoding="UTF-8"?>
<svg width="46px" height="46px" viewBox="0 0 46 46" version="1.1" xmlns="http://www.w3.org/2000/svg" xmlns:xlink="http://www.w3.org/1999/xlink">
    <!-- Generator: Sketch 50.2 (55047) - http://www.bohemiancoding.com/sketch -->
    <title>Order cancelled</title>
    <desc>Created with Sketch.</desc>
    <defs></defs>
    <g id="Page-1" stroke="none" stroke-width="1" fill="none" fill-rule="evenodd">
        <g id="9_4_order-details-details(Cancelled)" transform="translate(-287.000000, -108.000000)" fill="#FFFFFF" fill-rule="nonzero">
            <g id="Group" transform="translate(12.000000, 76.000000)">
                <g id="Order-cancelled" transform="translate(275.000000, 32.000000)">
                    <path d="M35.8610288,3.95897383 C35.1276289,3.46335099 34.1301315,3.65594729 33.6347714,4.38987251 C33.1388859,5.12379779 33.3314821,6.12050715 34.0654074,6.61634013 C39.5258218,10.3056673 42.786089,16.4365438 42.786089,23.0163386 C42.786089,33.9215118 33.9140517,42.7932864 23.0091413,42.7932864 C12.1042308,42.7932864 3.23250866,33.9215118 3.23250866,23.0163386 C3.23250866,16.436281 6.49251326,10.3054046 11.9529277,6.61634013 C12.6868529,6.12045463 12.8799745,5.12374527 12.384089,4.3900827 C11.8887289,3.65615742 10.8914942,3.46329847 10.1578316,3.95892131 C3.81323946,8.24521291 0.0255126987,15.3696465 0.0255126987,23.0163386 C0.0255126987,35.689657 10.3358754,46.0002824 23.0091938,46.0002824 C35.6825121,46.0002824 45.9931375,35.6897095 45.9931375,23.0163386 C45.9931375,15.3696465 42.2051481,8.24547556 35.8610288,3.95897383 Z M17.2862579,0.0326575871 C16.4007143,0.0326575871 15.6827599,0.750611982 15.6827599,1.63615557 L15.6827599,3.20077703 C15.6827599,4.08632062 16.4007143,4.80427501 17.2862579,4.80427501 C18.1718015,4.80427501 18.8897559,4.08632062 18.8897559,3.20077703 L18.8897559,1.63615557 C18.8897559,0.750664502 18.171749,0.0326575871 17.2862579,0.0326575871 Z M28.7323923,0.0326575871 C27.8468487,0.0326575871 27.1288943,0.750611982 27.1288943,1.63615557 L27.1288943,3.20077703 C27.1288943,4.08632062 27.8469013,4.80427501 28.7323923,4.80427501 C29.6178834,4.80427501 30.3358903,4.08632062 30.3358903,3.20077703 L30.3358903,1.63615557 C30.3359428,0.750664502 29.6179359,0.0326575871 28.7323923,0.0326575871 Z M18.5695501,8.4020323 C19.1450274,9.32855383 20.7245165,10.8965376 22.9928026,10.8965376 C25.2495833,10.8965376 26.8484056,9.3402693 27.4374371,8.42078757 C27.9150402,7.67488417 27.697647,6.68311313 26.9520063,6.20551012 C26.2053148,5.72816977 25.2143318,5.94556294 24.7367288,6.69094099 C24.7304771,6.70113291 24.0498231,7.68948912 22.9928026,7.68948912 C21.96557,7.68948912 21.3271548,6.75881727 21.2843907,6.69488117 C20.8138274,5.9541788 19.8322484,5.72974583 19.0855569,6.1937946 C18.3330864,6.66125825 18.102139,7.64987711 18.5695501,8.4020323 Z M10.1811049,24.8422207 C10.1811049,25.7277643 10.8990593,26.4457187 11.7846029,26.4457187 L34.2340474,26.4457187 C35.1198536,26.4457187 35.8375453,25.7277643 35.8375453,24.8422207 C35.8375453,23.9566771 35.1198536,23.2387227 34.2340474,23.2387227 L11.7846029,23.2387227 C10.8990593,23.2387227 10.1811049,23.9566771 10.1811049,24.8422207 Z" id="Shape"></path>
                </g>
            </g>
        </g>
    </g>
</svg>