<?xml version="1.0" encoding="UTF-8"?>
<svg width="27px" height="27px" viewBox="0 0 27 27" version="1.1" xmlns="http://www.w3.org/2000/svg" xmlns:xlink="http://www.w3.org/1999/xlink">
    <!-- Generator: Sketch 50.2 (55047) - http://www.bohemiancoding.com/sketch -->
    <title>time (home page)</title>
    <desc>Created with Sketch.</desc>
    <defs></defs>
    <g id="Page-1" stroke="none" stroke-width="1" fill="none" fill-rule="evenodd">
        <g id="1_1_Home-page-(have-coupons)" transform="translate(-32.000000, -450.000000)" fill-rule="nonzero">
            <g id="Group" transform="translate(20.000000, 115.000000)">
                <g id="time-(home-page)" transform="translate(12.000000, 335.000000)">
                    <path d="M4.42155385,13.4868293 C4.42137923,16.7265976 6.1496748,19.7203418 8.95536742,21.3402764 C11.76106,22.960211 15.2178663,22.960211 18.0235589,21.3402764 C20.8292515,19.7203418 22.5575471,16.7265976 22.5573725,13.4868293 C22.5575471,10.2470609 20.8292515,7.25331675 18.0235589,5.63338215 C15.2178663,4.01344756 11.76106,4.01344756 8.95536742,5.63338215 C6.1496748,7.25331675 4.42137923,10.2470609 4.42155385,13.4868293 Z" id="Shape" fill="#FFC824"></path>
                    <path d="M13.4894632,26.9736585 C8.92428238,26.9745365 4.66853769,24.665938 2.18000444,20.8386572 C-0.308528801,17.0113763 -0.692011922,12.1849977 1.16091452,8.01276326 C1.24602558,7.82015015 1.40422223,7.66927694 1.60065034,7.59338426 C1.79707845,7.51749158 2.01562057,7.52280663 2.20812714,7.60815839 C2.40074025,7.69326944 2.55161346,7.8514661 2.62750614,8.04789421 C2.70339882,8.24432232 2.69808378,8.46286444 2.61273202,8.65537101 C1.93292353,10.1750889 1.5840703,11.8220006 1.5893197,13.4868293 C1.59058606,18.5739384 4.82535056,23.0976723 9.63877116,24.7437776 C14.4521918,26.3898829 19.7796611,24.7942825 22.8957504,20.7732543 C26.0118397,16.7522261 26.2273486,11.1951202 23.4320268,6.94484287 C20.6367051,2.69456559 15.4488075,0.691171203 10.5223607,1.95955695 C10.2474296,2.03041548 9.95558026,1.94921748 9.75674943,1.74654943 C9.55791859,1.54388138 9.48231344,1.2505334 9.5584137,0.977006823 C9.63451395,0.703480245 9.85075818,0.491330269 10.1256893,0.420471738 C11.2252333,0.141688087 12.3551276,0.000451293621 13.4894632,0 C20.9380333,4.56093378e-16 26.9762924,6.03825914 26.9762924,13.4868293 C26.9762924,20.9353994 20.9380333,26.9736585 13.4894632,26.9736585 Z" id="Shape" fill="#333333"></path>
                    <path d="M13.4894632,6.44987777 C13.2790556,6.44987777 13.0772657,6.36629367 12.928485,6.21751302 C12.7797044,6.06873236 12.6961203,5.86694249 12.6961203,5.65653488 L12.6961203,4.41891994 C12.6961203,3.98076876 13.051312,3.62557704 13.4894632,3.62557704 C13.9276144,3.62557704 14.2828061,3.98076876 14.2828061,4.41891994 L14.2828061,5.65653488 C14.2828061,6.09468606 13.9276144,6.44987777 13.4894632,6.44987777 Z M5.65916876,14.2801722 L4.42155385,14.2801722 C3.98340267,14.2801722 3.62821095,13.9249805 3.62821095,13.4868293 C3.62821095,13.0486781 3.98340267,12.6934864 4.42155385,12.6934864 L5.65916876,12.6934864 C6.09731994,12.6934864 6.45251166,13.0486781 6.45251166,13.4868293 C6.45251166,13.9249805 6.09731994,14.2801722 5.65916876,14.2801722 Z M13.4894632,23.3480815 C13.2790556,23.3480815 13.0772657,23.2644974 12.928485,23.1157167 C12.7797044,22.9669361 12.6961203,22.7651462 12.6961203,22.5547386 L12.6961203,21.3171237 C12.6961203,20.8789725 13.051312,20.5237808 13.4894632,20.5237808 C13.9276144,20.5237808 14.2828061,20.8789725 14.2828061,21.3171237 L14.2828061,22.5547386 C14.2828061,22.9928898 13.9276144,23.3480815 13.4894632,23.3480815 Z M22.5573725,14.2801722 L21.3197576,14.2801722 C20.8816064,14.2801722 20.5264147,13.9249805 20.5264147,13.4868293 C20.5264147,13.0486781 20.8816064,12.6934864 21.3197576,12.6934864 L22.5573725,12.6934864 C22.9955237,12.6934864 23.3507154,13.0486781 23.3507154,13.4868293 C23.3507154,13.9249805 22.9955237,14.2801722 22.5573725,14.2801722 Z M19.3998678,17.6360126 C19.2614539,17.6327268 19.125682,17.5974262 19.0031963,17.532878 L13.1007252,14.1770376 C12.9200979,14.0756705 12.7862765,13.9076819 12.727854,13.7089653 L11.4902391,9.42491363 C11.3955799,9.01375899 11.6392871,8.60043901 12.0448844,8.48425229 C12.4504816,8.36806557 12.8760658,8.58966144 13.0134574,8.98857503 L14.1638046,12.9552895 L19.7886058,16.1286611 C20.1692385,16.3437932 20.3040653,16.826331 20.0900761,17.2076075 C19.9561145,17.4663034 19.6911439,17.630768 19.3998678,17.6360126 Z M5.47669989,4.4347868 C5.13936336,4.4362143 4.83801475,4.22415956 4.72546105,3.9061507 C4.61290736,3.58814183 4.713766,3.23373285 4.97689388,3.02263643 C5.22283019,2.8243007 5.46876647,2.64183183 5.7226362,2.45936299 C6.07893799,2.24452544 6.5406808,2.34144154 6.78053386,2.68140719 C7.02038693,3.02137285 6.95685696,3.48888016 6.63498053,3.75251192 C6.41284452,3.91118049 6.19070851,4.0777825 5.97650592,4.25231793 C5.83587514,4.36886074 5.65933906,4.43331042 5.47669989,4.4347868 Z" id="Shape" fill="#333333"></path>
                </g>
            </g>
        </g>
    </g>
</svg>