<?xml version="1.0" encoding="UTF-8"?>
<svg width="29px" height="34px" viewBox="0 0 29 34" version="1.1" xmlns="http://www.w3.org/2000/svg" xmlns:xlink="http://www.w3.org/1999/xlink">
    <!-- Generator: Sketch 50.2 (55047) - http://www.bohemiancoding.com/sketch -->
    <title>nurse-2</title>
    <desc>Created with Sketch.</desc>
    <defs></defs>
    <g id="Page-1" stroke="none" stroke-width="1" fill="none" fill-rule="evenodd">
        <g id="7_1_0_Confirm-Order" transform="translate(-16.000000, -198.000000)">
            <g id="Group-5" transform="translate(0.000000, 185.000000)">
                <g id="Group-9">
                    <g id="nurse-2" transform="translate(12.000000, 12.000000)">
                        <rect id="Rectangle-4" x="0" y="0" width="36" height="36"></rect>
                        <path d="M10.3463135,11.5388184 C11.3366699,10.2498779 17.0700684,8.3704834 18.1347656,8.5501709 C19.1994629,8.7298584 26.3270264,10.5195313 26.5546875,11.0931396 C26.7823486,11.666748 30.1256104,25.5882568 27.8964844,26.0837402 C25.6673584,26.5792236 25.0864258,26.2279053 23.9530029,25.8266602 C22.8195801,25.425415 22.6616211,24.0179443 21.9277344,23.5491943 C21.1938477,23.0804443 18.324707,24.0374756 16.8702393,23.793335 C15.4157715,23.5491943 15.6131592,23.5697021 14.8067627,24.5883789 C14.0003662,25.6070557 9.95349121,27.5085449 9.42028809,26.5828857 C8.88708496,25.6572266 8.49816895,15.9328613 9.16784668,14.4626465 C9.83752441,12.9924316 9.35595703,12.8277588 10.3463135,11.5388184 Z" id="Path-3" fill="#333333"></path>
                        <path d="M11.9289551,10.8911133 C12.2355957,10.4530029 13.5515137,9.4921875 14.0235596,9.99633789 C14.4956055,10.5004883 15.7943115,12.5876465 19.248291,12.6494141 C22.7022705,12.7111816 24.9083252,13.2154541 25.1851807,14.3809814 C25.4620361,15.5465088 24.0939941,22.1831055 20.388916,23.6817627 C16.6838379,25.1804199 12.810791,20.5629883 12.451416,19.5533447 C12.092041,18.5437012 11.6223145,11.3292236 11.9289551,10.8911133 Z" id="Path-2" fill="#FFECE5"></path>
                        <path d="M31.92775,31.8723125 C31.789125,29.4621875 30.21375,27.431 28.047375,26.623625 C29.032,23.1261875 29.2004375,19.33725 28.5325625,15.640375 C27.995625,12.6679375 27.0821875,10.6481875 26.8549375,10.24575 L29.1035,7.9971875 C29.3954375,7.7053125 29.5523125,7.301 29.5339375,6.8880625 C29.51575,6.479 29.326,6.0944375 29.0134375,5.8330625 C26.0574375,3.36125 22.3126875,2 18.4689375,2 C14.6251875,2 10.8804375,3.36125 7.9245,5.833 C7.6119375,6.094375 7.4221875,6.478875 7.404,6.888 C7.385625,7.3009375 7.5425,7.7051875 7.8344375,7.997125 L10.1318125,10.2945 C9.867125,10.792125 8.9988125,12.77275 8.4808125,15.640375 C7.8145625,19.3285 7.98075,23.1080625 8.959125,26.5985625 C6.7575,27.3883125 5.1503125,29.436875 5.0101875,31.872375 C5.0036875,31.9035 5.00025,31.93575 5.00025,31.9688125 L5.00025,32.2188125 C5.00025,32.301 5.021375,32.3783125 5.0585625,32.4454375 C5.2721875,33.301375 6.0476875,33.9375 6.9689375,33.9375 L14.21025,33.9375 C14.212375,33.9375 14.2144375,33.9379375 14.2165625,33.9379375 C14.219,33.9379375 14.2214375,33.9375625 14.2238125,33.9375 L22.6853125,33.9375 C22.687875,33.9375 22.6904375,33.9379375 22.693,33.9379375 C22.6951875,33.9379375 22.6973125,33.9375625 22.6994375,33.9375 L29.968875,33.9375 C30.890125,33.9375 31.665625,33.301375 31.8793125,32.445375 C31.9165,32.37825 31.937625,32.3009375 31.937625,32.21875 L31.937625,31.96875 C31.9376875,31.9356875 31.9343125,31.9034375 31.92775,31.8723125 Z M27.6100625,15.8069375 C28.06125,18.3043125 28.336375,22.1375 27.1454375,26.366625 C26.7799375,26.29325 26.4025,26.253625 26.0164375,26.250625 C25.9045625,26.03825 25.71625,25.8713125 25.4886875,25.7879375 L23.0375,24.8965 C22.94575,24.862875 22.8505625,24.8445625 22.755125,24.8395 C22.46575,24.261125 22.464875,23.5086875 22.464875,22.835875 C22.464875,22.800875 22.46075,22.766875 22.4535,22.734125 C22.8005,22.4055625 23.1393125,22.0405 23.46425,21.6411875 C25.0130625,19.737875 25.93775,17.4304375 25.93775,15.4688125 C25.93775,13.9648125 25.291,13.1405 23.6310625,12.5289375 C22.689875,12.1821875 21.606625,12.1235 20.45975,12.061375 C18.3134375,11.945125 16.0960625,11.8239375 14.4590625,9.8305 C15.7055,9.2465625 17.06975,8.9375 18.4689375,8.9375 C20.8749375,8.9375 23.1784375,9.849625 24.955125,11.5058125 C25.04525,11.589875 25.1600625,11.6316875 25.2746875,11.6316875 C25.3948125,11.6316875 25.5148125,11.58575 25.6061875,11.494375 L26.1574375,10.943125 C26.4690625,11.6089375 27.1715625,13.379625 27.6100625,15.8069375 Z M20.903875,33 C21.6148125,30.2983125 22.3551875,27.290125 22.67375,25.79975 C22.674625,25.79575 22.676875,25.785125 22.689125,25.778375 C22.7011875,25.77175 22.710875,25.77525 22.716,25.777125 L25.1671875,26.6685625 C25.1796875,26.673125 25.18575,26.681875 25.188625,26.6884375 C25.193,26.6983125 25.1906875,26.704 25.1895625,26.7066875 C24.4240625,28.572 23.4241875,30.94975 22.40375,33 L20.903875,33 Z M16.9109375,33 C16.401,31.0708125 15.869375,28.9565625 15.485125,27.340625 C16.2768125,27.9675625 17.33575,28.34375 18.4689375,28.34375 C19.54875,28.34375 20.5613125,28.00225 21.3393125,27.427625 C20.9568125,29.032 20.435125,31.1050625 19.93425,33 L16.9109375,33 Z M14.502,33 C13.62025,31.2775625 12.6635625,29.16275 11.655625,26.7066875 C11.6545,26.704 11.6521875,26.6983125 11.6565625,26.6884375 C11.6594375,26.681875 11.6655,26.673125 11.6769375,26.6689375 L14.1301875,25.77675 C14.1343125,25.77525 14.144,25.77175 14.1560625,25.778375 C14.1683125,25.785125 14.1705625,25.79575 14.1714375,25.7996875 C14.49,27.2900625 15.230375,30.2983125 15.9413125,33 L14.502,33 Z M11.9376875,11.542375 C11.9531875,11.531125 11.968375,11.5191875 11.98275,11.5058125 C12.4878125,11.035 13.0355625,10.6245 13.6160625,10.2778125 C15.524375,12.73225 18.118875,12.8734375 20.409,12.9975 C21.483375,13.0556875 22.4981875,13.1106875 23.306875,13.408625 C24.7468125,13.939125 25.0001875,14.495625 25.0001875,15.46875 C25.0001875,17.2216875 24.154125,19.3079375 22.7370625,21.0494375 C21.3815625,22.7151875 19.746125,23.75 18.4689375,23.75 C17.19175,23.75 15.5563125,22.7151875 14.2008125,21.0494375 C12.78375,19.3079375 11.9376875,17.22175 11.9376875,15.46875 L11.9376875,11.542375 Z M18.4689375,24.6875 C19.4289375,24.6875 20.4971875,24.2640625 21.5365625,23.5023125 C21.5580625,24.0580625 21.63225,24.649875 21.8819375,25.186375 C21.838375,25.233625 21.8035625,25.290375 21.781875,25.3553125 C21.37875,26.562875 20.0164375,27.40625 18.469,27.40625 C16.9215625,27.40625 15.5591875,26.562875 15.156125,25.3553125 C15.1373125,25.2990625 15.1085625,25.2490625 15.0729375,25.205875 C15.3278125,24.670375 15.405,24.0785 15.4278125,23.5216875 C16.4588125,24.2713125 17.5170625,24.6875 18.4689375,24.6875 Z M8.3405625,6.9296875 C8.3471875,6.780625 8.413,6.6465625 8.525875,6.5521875 C11.3135,4.22125 14.8446875,2.9375 18.4689375,2.9375 C22.0931875,2.9375 25.6244375,4.22125 28.4120625,6.5521875 C28.5249375,6.6465625 28.5906875,6.780625 28.597375,6.9296875 C28.6041875,7.082625 28.5485,7.2263125 28.440625,7.3341875 L25.256625,10.5181875 C23.3558125,8.8909375 20.9629375,8 18.4689375,8 C15.9749375,8 13.5820625,8.8909375 11.6813125,10.51825 L8.4973125,7.3341875 C8.389375,7.2263125 8.33375,7.082625 8.3405625,6.9296875 Z M9.4033125,15.8069375 C9.8309375,13.4399375 10.5095625,11.6973125 10.832,10.9946875 L11.0001875,11.162875 L11.0001875,15.46875 C11.0001875,17.430375 11.9248125,19.7378125 13.4736875,21.641125 C13.80575,22.04925 14.1523125,22.4218125 14.5073125,22.7559375 C14.5029375,22.781625 14.5001875,22.8078125 14.5001875,22.8346875 C14.5001875,23.508 14.4993125,24.2609375 14.20825,24.8398125 C14.074,24.8305 13.9378125,24.848875 13.8086875,24.896125 L11.3554375,25.7883125 C11.1284375,25.8715 10.94,26.038875 10.8281875,26.25175 C10.4995625,26.2594375 10.1775625,26.2940625 9.864,26.353 C8.6775,22.1291875 8.952625,18.301625 9.4033125,15.8069375 Z M5.940625,32.0465625 C6.0301875,29.394125 8.1831875,27.2574375 10.84125,27.1906875 C11.7580625,29.417875 12.634,31.3679375 13.4510625,33 L6.9689375,33 C6.4265,33 5.9805,32.579 5.940625,32.0465625 Z M29.9689375,33 L23.448625,33 C24.38725,31.0706875 25.2924375,28.92275 26.005125,27.188375 C28.70525,27.2075625 30.90675,29.3636875 30.9973125,32.0465625 C30.957375,32.579 30.5114375,33 29.9689375,33 Z" id="Shape" stroke="#333333" stroke-width="0.4" fill="#333333" fill-rule="nonzero"></path>
                        <path d="M16.9689375,5.9375 L18.0001875,5.9375 L18.0001875,6.96875 C18.0001875,7.227625 18.2100625,7.4375 18.4689375,7.4375 C18.7278125,7.4375 18.9376875,7.227625 18.9376875,6.96875 L18.9376875,5.9375 L19.9689375,5.9375 C20.2278125,5.9375 20.4376875,5.727625 20.4376875,5.46875 C20.4376875,5.209875 20.2278125,5 19.9689375,5 L18.9376875,5 L18.9376875,3.96875 C18.9376875,3.709875 18.7278125,3.5 18.4689375,3.5 C18.2100625,3.5 18.0001875,3.709875 18.0001875,3.96875 L18.0001875,5 L16.9689375,5 C16.7100625,5 16.5001875,5.209875 16.5001875,5.46875 C16.5001875,5.727625 16.7100625,5.9375 16.9689375,5.9375 Z" id="Shape" stroke="#FF5413" stroke-width="0.4" fill="#FF5413" fill-rule="nonzero"></path>
                    </g>
                </g>
            </g>
        </g>
    </g>
</svg>