<?xml version="1.0" encoding="UTF-8"?>
<svg width="245px" height="199px" viewBox="0 0 245 199" version="1.1" xmlns="http://www.w3.org/2000/svg" xmlns:xlink="http://www.w3.org/1999/xlink">
    <!-- Generator: Sketch 50.2 (55047) - http://www.bohemiancoding.com/sketch -->
    <title>successful</title>
    <desc>Created with Sketch.</desc>
    <defs></defs>
    <g id="Page-1" stroke="none" stroke-width="1" fill="none" fill-rule="evenodd">
        <g id="8_1_Appointment-is-successful" transform="translate(-78.000000, -220.000000)" fill-rule="nonzero">
            <g id="successful" transform="translate(78.000000, 220.000000)">
                <g id="水滴">
                    <path d="M229,197 L243,197" id="Shape" fill="#FEDEBB"></path>
                    <path d="M243.179171,199 L228.82083,199 C227.814958,199 227,198.10485 227,197 C227,195.89515 227.814958,195 228.82083,195 L243.179171,195 C244.185042,195 245,195.89515 245,197 C245,198.10485 244.185042,199 243.179171,199 Z" id="Shape" fill="#A1A1A9"></path>
                    <path d="M201,197 L215,197" id="Shape" fill="#FEDEBB"></path>
                    <path d="M214.222009,199 L200.777991,199 C199.796058,199 199,198.10485 199,197 C199,195.89515 199.796058,195 200.777991,195 L214.222009,195 C215.203942,195 216,195.89515 216,197 C216,198.10485 215.203942,199 214.222009,199 Z" id="Shape" fill="#A1A1A9"></path>
                    <path d="M38,197 L185,197" id="Shape" fill="#FEDEBB"></path>
                    <path d="M185.171551,199 L37.8284484,199 C36.8186493,199 36,198.10485 36,197 C36,195.89515 36.8186496,195 37.8284484,195 L185.171551,195 C186.181376,195 187,195.895431 187,197 C187,198.104569 186.181376,199 185.171551,199 Z" id="Shape" fill="#A1A1A9"></path>
                    <path d="M7,197 L22,197" id="Shape" fill="#FEDEBB"></path>
                    <path d="M21.1988352,199 L6.80116468,199 C5.80643358,199 5,198.10485 5,197 C5,195.89515 5.80643385,195 6.80116468,195 L21.1988352,195 C22.193591,195 23,195.895431 23,197 C23,198.104569 22.193591,199 21.1988352,199 Z" id="Shape" fill="#A1A1A9"></path>
                    <path d="M7,104.5 C7,106.431703 5.43370397,108 3.50014052,108 C1.566015,108 0,106.431703 0,104.5 C0,102.564924 1.56629603,101 3.50014052,101 C5.43370397,101 7,102.564924 7,104.5 Z" id="Shape" fill="#A5EDD8"></path>
                    <path d="M155.500766,5 C154.119537,5 153,3.87986518 153,2.50000015 C153,1.11962428 154.119536,2.93113146e-07 155.500766,4.36821815e-08 C156.88174,-0.000255373619 158,1.11962403 158,2.50000015 C158,3.8801206 156.881995,5 155.500766,5 Z" id="Shape" fill="#A1A1A9"></path>
                    <path d="M224,100.000134 C224,101.656084 222.655936,103 220.999598,103 C219.342991,103 218,101.656084 218,100.000134 C218,98.3444528 219.342991,96.9999997 220.999598,97 C222.655667,97 224,98.3441845 224,100.000134 Z" id="Shape" fill="#A5EDD8"></path>
                    <path d="M16.5004153,59 C12.9160896,59 10,56.0841925 10,52.5 C10,48.9158075 12.9160896,46 16.5004153,46 C20.0844641,46 23,48.9158075 23,52.5 C23,56.0841925 20.0841871,59 16.5004153,59 Z M16.5004153,47.1986069 C13.5771255,47.1986069 11.1991137,49.5767165 11.1991137,52.5 C11.1991137,55.4232835 13.5774022,57.8011159 16.5004153,57.8011159 C19.4231515,57.8011159 21.800886,55.4230064 21.800886,52.5 C21.800886,49.5769936 19.4228745,47.1986072 16.5004153,47.1986069 Z" id="Shape" fill="#4A90E2"></path>
                    <path d="M205.3814,48.1668342 C202.283772,48.1668342 199.763363,45.6629205 199.763363,42.5848149 C199.763363,39.5053113 202.283772,37 205.3814,37 C208.47931,37 211,39.5055909 211,42.5848149 C211,45.6626409 208.47931,48.1668342 205.3814,48.1668342 Z M205.3814,38.2101645 C202.954944,38.2101645 200.981374,40.1725932 200.981374,42.5848149 C200.981374,44.9950798 202.955225,46.9563904 205.3814,46.9563904 C207.808138,46.9563904 209.78199,44.99508 209.78199,42.5848149 C209.78199,40.1725932 207.807857,38.2101645 205.3814,38.2101645 Z M37.838041,82.9479477 C36.8840413,82.9479483 36.1104104,82.179874 36.109479,81.231801 L36.109479,79.5156543 C36.1100014,79.0186431 35.9117543,78.5417983 35.5583812,78.190096 C35.2050082,77.8383938 34.7254789,77.6406669 34.2253608,77.6404446 C33.7251651,77.6406669 33.2455491,77.8383669 32.8920419,78.190045 C32.5385348,78.5417231 32.3400998,79.0185659 32.3403984,79.5156543 L32.3403984,81.231801 C32.3394669,82.1798739 31.5658362,82.9479481 30.6118366,82.9479477 L28.8843998,82.9479477 C27.8438488,82.948102 27.0003108,83.7862746 27,84.8203616 C27,85.8560878 27.8433244,86.6958509 28.8843998,86.6958509 L30.6118366,86.6958509 C31.0700985,86.6953315 31.5097701,86.8758805 31.8339951,87.1977243 C32.15822,87.5195682 32.3403987,87.9563025 32.3403984,88.411718 L32.3403984,90.1278646 C32.3403984,91.1635909 33.1842854,91.9999992 34.2253608,91.9999992 C34.7251485,92.0004446 35.2045992,91.8033544 35.558029,91.4521725 C35.9114588,91.1009906 36.1098525,90.6245477 36.109479,90.1278646 L36.109479,88.411718 C36.1094039,87.9562796 36.2915586,87.5195021 36.6157998,87.1976421 C36.940041,86.8757822 37.3797562,86.6952571 37.838041,86.6958509 L39.5646339,86.6958509 C40.6060581,86.6958509 41.4502993,85.8568542 41.4502993,84.8218993 C41.4502993,83.7869444 40.6060581,82.9479477 39.5646339,82.9479477 L37.838041,82.9479477 Z" id="Shape" fill="#F8E71C"></path>
                    <path d="M194.004474,83.4356972 C193.624403,83.4354802 193.260001,83.2839478 192.991506,83.0144662 C192.723011,82.7449846 192.572439,82.379651 192.572945,81.9989087 L192.572945,80.5653967 C192.573018,80.1498745 192.408145,79.7513779 192.114666,79.4577386 C191.821186,79.1640994 191.423192,78.9994216 191.008403,79.0000015 C190.594161,79.0001463 190.196951,79.1651702 189.904191,79.4587545 C189.611431,79.7523388 189.447115,80.1504232 189.447404,80.5653967 L189.447404,81.9989087 C189.447549,82.3800132 189.296486,82.7455501 189.02748,83.0150317 C188.758474,83.2845132 188.393582,83.4358421 188.013149,83.4356972 L186.582165,83.4356972 C186.019414,83.4282518 185.4962,83.7247412 185.212657,84.2117562 C184.929114,84.6987712 184.929114,85.300956 185.212657,85.7879711 C185.4962,86.2749861 186.019414,86.5714755 186.582165,86.5640301 L188.013149,86.5640301 C188.393604,86.5638126 188.758538,86.7151182 189.02756,86.9846155 C189.296582,87.2541128 189.447621,87.6196919 189.447404,88.0008185 L189.447404,89.4343305 C189.447115,89.8493292 189.611423,90.2474417 189.904175,90.5410694 C190.196927,90.834697 190.594136,90.9997816 191.008403,90.9999988 C191.423217,91.0005062 191.821211,90.8357676 192.114682,90.542085 C192.408154,90.2484024 192.573018,89.8498778 192.572945,89.4343305 L192.572945,88.0008185 C192.572366,87.6200541 192.722915,87.2546784 192.991426,86.985181 C193.259936,86.7156837 193.624381,86.5641746 194.004474,86.5640301 L195.437093,86.5640301 C196.300138,86.5637287 196.999699,85.8629316 197,84.9983618 C197,84.1363433 196.299227,83.4356972 195.437093,83.4356972 L194.004474,83.4356972 Z" id="Shape" fill="#CCCCCC"></path>
                    <path d="M202.498407,117.698598 C201.83956,117.698598 201.304952,117.159099 201.304952,116.501738 L201.304952,115.304877 C201.304952,114.584213 200.720705,114 200,114 C199.279295,114 198.695048,114.584213 198.695048,115.304877 L198.695048,116.501738 C198.695048,117.159099 198.16044,117.698598 197.501593,117.698598 L196.304663,117.698598 C195.958911,117.697829 195.627057,117.834632 195.382302,118.07883 C195.137547,118.323027 194.999999,118.654557 195,119.000289 C195,119.346288 195.137455,119.678114 195.382127,119.922772 C195.626799,120.16743 195.958645,120.304877 196.304663,120.304877 L197.501593,120.304877 C198.160323,120.305834 198.694091,120.839571 198.695048,121.498262 L198.695048,122.695123 C198.695048,123.415787 199.279295,124 200,124 C200.720705,124 201.304952,123.415787 201.304952,122.695123 L201.304952,121.498262 C201.30575,120.839504 201.839611,120.305675 202.498407,120.304877 L203.695337,120.304877 C204.041379,120.304954 204.37327,120.167531 204.617958,119.922857 C204.862646,119.678183 205.000077,119.346311 205,119.000289 C204.999924,118.654581 204.862352,118.323096 204.617613,118.078915 C204.372874,117.834734 204.041065,117.697906 203.695337,117.698598 L202.498407,117.698598 Z" id="Shape" fill="#F8E71C"></path>
                    <path d="M55.5002806,12 C55.2175934,11.9999994 54.9465131,12.1124317 54.7468088,12.3125073 C54.5471045,12.5125829 54.4351758,12.7838715 54.4357014,13.0665582 L54.4342877,17.7501408 C54.4342877,18.3360126 54.9124293,18.8133061 55.5014114,18.816699 C56.0881316,18.816699 56.5645767,18.3360126 56.565425,17.7501408 L56.565425,13.0665582 C56.5657374,12.477937 56.0889016,12.0004684 55.5002806,12 Z M55.499715,28.1866915 C55.217446,28.1863913 54.9466188,28.2982345 54.7468124,28.4976167 C54.547006,28.6969989 54.4345875,28.9675878 54.4342877,29.2498568 L54.4357014,33.9368322 C54.4357011,34.2190464 54.5479069,34.4896811 54.747595,34.689104 C54.9472831,34.8885269 55.2180667,35.0003729 55.5002806,34.9999976 C55.7825893,35.0005986 56.053533,34.8888342 56.2533149,34.6893705 C56.4530969,34.4899068 56.5652932,34.2191416 56.5651423,33.9368322 L56.5651423,29.2498568 C56.5650677,28.9675186 56.4527214,28.6967987 56.252866,28.4973677 C56.0530107,28.2979367 55.7820527,28.186166 55.499715,28.1866915 Z M50.6812581,20.1894832 C51.096345,20.6045701 51.7707196,20.6017425 52.1866549,20.1863728 C52.3869516,19.9868705 52.4995442,19.71581 52.4995442,19.4331088 C52.4995442,19.1504077 52.3869516,18.8793472 52.1866549,18.6798449 L48.87416,15.3662189 C48.4567744,14.9540587 47.7855836,14.9540587 47.3681979,15.3662189 C46.9522629,15.7846988 46.9522629,16.4604874 47.3681979,16.8727467 L50.6812581,20.1894832 Z M60.3178891,26.8136248 C60.1184891,26.614108 59.8479745,26.5020108 59.5658977,26.5020108 C59.2838209,26.5020108 59.0133063,26.614108 58.8139063,26.8136248 C58.6136963,27.0131158 58.5011588,27.2841156 58.5011588,27.5667474 C58.5011588,27.8493791 58.6136963,28.1203789 58.8139063,28.3198699 L62.1264008,31.6334959 C62.5432117,32.0459826 63.2144211,32.0459826 63.631232,31.6334959 C63.8313724,31.4339679 63.9438617,31.162982 63.9438617,30.8803734 C63.9438617,30.5977648 63.8313724,30.3267789 63.631232,30.1272509 L60.3178891,26.8136248 Z M50.815002,23.4999988 C50.814066,22.9122879 50.3372864,22.4363939 49.7495748,22.4365507 L45.0654274,22.4365507 C44.7830177,22.4359498 44.5119731,22.547735 44.3120933,22.7472436 C44.1122134,22.9467521 43.9999244,23.2175885 44.0000002,23.4999988 C43.9998502,23.7826916 44.112025,24.0538616 44.3118395,24.2538351 C44.511654,24.4538087 44.7827346,24.5661993 45.0654274,24.5662743 L49.7495748,24.5662743 C50.0322907,24.5662743 50.3034149,24.4539079 50.5032456,24.253918 C50.7030764,24.0539282 50.8152271,23.7827146 50.815002,23.4999988 Z M65.9354165,22.4365507 L61.2495724,22.4365507 C60.662311,22.4367068 60.1862805,22.9127373 60.1861244,23.4999988 C60.1857491,23.7826626 60.2977739,24.0538776 60.4975149,24.2538838 C60.6972559,24.45389 60.9683221,24.5662745 61.2509861,24.5662743 L65.9351337,24.5662743 C66.2177977,24.5662745 66.4888639,24.45389 66.6886049,24.2538838 C66.8883459,24.0538776 67.0003707,23.7826626 66.9999954,23.4999988 C67.0008263,23.2175047 66.8888962,22.9463577 66.6890357,22.7467096 C66.4891753,22.5470614 66.2179095,22.4354195 65.9354165,22.4365507 Z M50.6812581,26.8136248 L47.3684807,30.1272509 C46.9525805,30.5432046 46.9525805,31.2175422 47.3684807,31.6334959 C47.7838504,32.0460381 48.4587906,32.0488657 48.8744428,31.6334959 L52.1869374,28.3198699 C52.3871474,28.1203789 52.4996848,27.8493791 52.4996848,27.5667474 C52.4996848,27.2841156 52.3871474,27.0131158 52.1869374,26.8136248 C51.770984,26.3982573 51.0972115,26.3982573 50.6812581,26.8136248 Z M60.3195856,20.1894832 L63.6315148,16.8727467 C64.0482982,16.4604874 64.0482982,15.7846988 63.6315148,15.3662189 C63.2146409,14.9538856 62.5435576,14.9538856 62.1266836,15.3662189 L58.8141891,18.6798449 C58.6139124,18.8799896 58.5013871,19.1515233 58.5013871,19.434664 C58.5013871,19.7178047 58.6139124,19.9893384 58.8141891,20.1894832 C59.2300455,20.6048182 59.9037291,20.6048182 60.3195856,20.1894832 Z" id="Shape" fill="#FF7B00"></path>
                    <path d="M148.000244,40 C147.754429,39.9999995 147.518707,40.0977667 147.345051,40.2717455 C147.171395,40.4457243 147.074066,40.6816274 147.074523,40.927442 L147.073294,45.0001224 C147.073294,45.5095762 147.489069,45.924614 148.001227,45.9275644 C148.511419,45.9275644 148.925719,45.5095762 148.926457,45.0001224 L148.926457,40.927442 C148.926728,40.4155974 148.512088,40.0004073 148.000244,40 Z M147.999752,54.0753839 C147.754301,54.0751229 147.518799,54.1723778 147.345054,54.3457536 C147.17131,54.5191295 147.073554,54.7544242 147.073294,54.9998755 L147.074523,59.0755063 C147.074523,59.3209099 147.172093,59.5562445 147.345735,59.7296557 C147.519377,59.9030669 147.754841,60.0003243 148.000244,59.9999979 C148.24573,60.0005205 148.481333,59.903334 148.655056,59.7298874 C148.82878,59.5564407 148.926342,59.3209927 148.926211,59.0755063 L148.926211,54.9998755 C148.926146,54.754364 148.828453,54.5189554 148.654666,54.3455371 C148.480879,54.1721188 148.245263,54.0749269 147.999752,54.0753839 Z M143.80979,47.1212897 C144.170735,47.4822349 144.757147,47.4797761 145.11883,47.118585 C145.293001,46.9451048 145.390908,46.7094 145.390908,46.4635729 C145.390908,46.2177458 145.293001,45.982041 145.11883,45.8085608 L142.2384,42.9271469 C141.875456,42.5687467 141.291812,42.5687467 140.928868,42.9271469 C140.567185,43.2910424 140.567185,43.8786847 140.928868,44.2371711 L143.80979,47.1212897 Z M152.189469,52.8814129 C152.016077,52.70792 151.780847,52.6104441 151.535563,52.6104441 C151.290279,52.6104441 151.055049,52.70792 150.881658,52.8814129 C150.707562,53.0548833 150.609703,53.2905353 150.609703,53.536302 C150.609703,53.7820688 150.707562,54.0177208 150.881658,54.1911912 L153.762088,57.0726051 C154.124532,57.4312892 154.708192,57.4312892 155.070637,57.0726051 C155.244672,56.8991025 155.342488,56.6634626 155.342488,56.417716 C155.342488,56.1719694 155.244672,55.9363295 155.070637,55.7628268 L152.189469,52.8814129 Z M143.926089,49.999999 C143.925275,49.488946 143.510684,49.0751251 142.99963,49.0752614 L138.926459,49.0752614 C138.680885,49.0747389 138.445194,49.1719435 138.271385,49.3454292 C138.097577,49.5189149 137.999934,49.7544247 138,49.999999 C137.99987,50.2458188 138.097413,50.4816188 138.271165,50.6555088 C138.444917,50.8293989 138.680639,50.9271298 138.926459,50.927195 L142.99963,50.927195 C143.24547,50.9271951 143.48123,50.8294851 143.654996,50.6555809 C143.828762,50.4816767 143.926284,50.2458388 143.926089,49.999999 Z M157.074275,49.0752614 L152.999628,49.0752614 C152.488966,49.0753972 152.075027,49.4893368 152.074891,49.999999 C152.074564,50.2457935 152.171977,50.4816327 152.345665,50.6555511 C152.519353,50.8294696 152.755063,50.9271952 153.000857,50.927195 L157.074029,50.927195 C157.319824,50.9271952 157.555534,50.8294696 157.729222,50.6555511 C157.902909,50.4816327 158.000322,50.2457935 157.999996,49.999999 C158.000719,49.7543519 157.903388,49.5185719 157.729596,49.3449648 C157.555805,49.1713577 157.319921,49.0742778 157.074275,49.0752614 Z M143.80979,52.8814129 L140.929114,55.7628268 C140.567461,56.1245258 140.567461,56.7109062 140.929114,57.0726051 C141.290305,57.4313375 141.877209,57.4337962 142.238646,57.0726051 L145.119076,54.1911912 C145.293172,54.0177208 145.39103,53.7820688 145.39103,53.536302 C145.39103,53.2905353 145.293172,53.0548833 145.119076,52.8814129 C144.757377,52.5202237 144.171488,52.5202237 143.80979,52.8814129 Z M152.190944,47.1212897 L155.070882,44.2371711 C155.433303,43.8786847 155.433303,43.2910424 155.070882,42.9271469 C154.708383,42.5685962 154.124833,42.5685962 153.762334,42.9271469 L150.881904,45.8085608 C150.70775,45.9825997 150.609902,46.2187159 150.609902,46.4649252 C150.609902,46.7111345 150.70775,46.9472508 150.881904,47.1212897 C151.243518,47.4824506 151.82933,47.4824506 152.190944,47.1212897 Z" id="Shape-Copy" fill="#A5EDD8"></path>
                </g>
                <g id="完成" transform="translate(60.000000, 63.000000)" fill="#F5A623">
                    <path d="M33.7703386,18.9864527 C36.0101383,18.9864527 37.825006,17.170918 37.825006,14.9317853 L37.825006,13.5802739 L62.1532771,13.5802739 L62.1532771,14.9317853 C62.1532771,17.1710514 63.9681446,18.9864527 66.2079445,18.9864527 C68.4477443,18.9864527 70.2626119,17.170918 70.2626119,14.9317853 L70.2626117,4.11916102 C70.2626117,1.87989492 68.4477442,0.0644936115 66.2079443,0.0644936115 C63.9681445,0.0644936115 62.1532769,1.88002829 62.1532769,4.11916102 L62.1532769,5.47067236 L37.825006,5.47067236 L37.825006,4.11916102 C37.825006,1.87989492 36.0101385,0.0644936115 33.7703386,0.0644936115 C31.5305387,0.0644936115 29.7156712,1.88002829 29.7156712,4.11916102 L29.7156712,14.9317853 C29.7156713,17.170918 31.5304055,18.9864527 33.7703386,18.9864527 Z M35.5171638,32.5873527 C33.277364,32.5873527 31.4624963,34.4028874 31.4624963,36.6420201 L31.4624963,40.5976922 C31.4624963,42.8369583 33.2773639,44.6523596 35.5171638,44.6523596 C37.7569636,44.6523596 39.5718312,42.8368249 39.5718312,40.5976922 L39.571831,36.6420201 C39.5719644,34.402754 37.7570969,32.5873527 35.5171638,32.5873527 Z M64.4611193,32.5873527 C62.2213196,32.5873527 60.4064519,34.4028874 60.4064519,36.6420201 L60.4064519,40.5976922 C60.4064519,42.8369583 62.2213194,44.6523596 64.4611193,44.6523596 C66.7009192,44.6523596 68.5157867,42.8368249 68.5157867,40.5976922 L68.5157867,36.6420201 C68.5159201,34.402754 66.7010525,32.5873527 64.4611193,32.5873527 Z M49.948316,62.7614104 C55.6554828,62.7614104 59.6984095,58.826151 61.1885408,56.5010979 C62.385689,54.6327302 61.8432167,52.1711919 59.9887243,50.9509626 C58.1355661,49.7280649 55.6304004,50.2487904 54.3857559,52.086072 C54.3685452,52.1118214 52.6183847,54.6519422 49.948316,54.6519422 C47.3533609,54.6519422 45.737818,52.299939 45.6296169,52.1369038 C44.4364713,50.2660012 41.956388,49.6951111 40.0689417,50.8698452 C38.1669531,52.051784 37.582321,54.5524134 38.7649267,56.4542687 C40.22077,58.7963991 44.2133986,62.7614104 49.948316,62.7614104 Z M43.7592481,108.691715 L18.0147587,108.691715 C12.5846984,108.691715 8.16700417,104.16582 8.16700417,98.6038108 L8.16700417,23.6476325 C8.16700417,18.0849559 12.5846984,13.5597279 18.0147587,13.5597279 C20.2545584,13.5597279 22.0694261,11.7441932 22.0694261,9.5050605 C22.0694261,7.26592777 20.2545585,5.45039309 18.0147587,5.45039309 C8.1129704,5.45039309 0.0576694915,13.613895 0.0576694915,23.6477658 L0.0576694915,98.6039442 C0.0576694915,108.637815 8.1129704,116.801317 18.0147587,116.801317 L43.7592481,116.801317 C45.9990478,116.801317 47.8139155,114.986449 47.8139155,112.74665 C47.8139155,110.50685 45.9991812,108.691715 43.7592481,108.691715 Z M81.9636579,5.45025958 C79.7238581,5.45025958 77.9089905,7.26579426 77.9089905,9.50492699 C77.9089905,11.7440597 79.723858,13.5595944 81.9636579,13.5595944 C87.3937181,13.5595944 91.8114124,18.0848226 91.8114124,23.647499 L91.8114124,63.4160863 C91.8114124,65.6553524 93.6262799,67.4707537 95.8660798,67.4707537 C98.1058797,67.4707537 99.9207472,65.655219 99.9207472,63.4160863 L99.9207471,23.6476323 C99.9207471,13.6137615 91.8654462,5.45025958 81.9636579,5.45025958 Z M92.9570617,76.3715163 L63.2845173,106.926345 L48.850163,92.0623892 C47.2887872,90.4553849 44.7229169,90.4177613 43.1165797,91.9779364 C41.5102424,93.5381115 41.4719518,96.1051824 43.0321269,97.7115197 L60.3754992,115.570948 C60.3896413,115.585357 60.4065853,115.594829 60.4208609,115.608972 C60.4354033,115.623514 60.4451428,115.640992 60.459952,115.655401 C60.5605482,115.753062 60.6743527,115.826441 60.7820199,115.911427 C60.8738107,115.984006 60.959731,116.06579 61.0560579,116.129297 C61.190542,116.218019 61.3339649,116.28406 61.4757868,116.355038 C61.5710464,116.402801 61.6617698,116.461504 61.759831,116.501263 C61.9228662,116.567437 62.0920386,116.608663 62.2606773,116.652824 C62.344463,116.674704 62.4253136,116.708859 62.5100331,116.725269 C62.765793,116.7749 63.0250216,116.80105 63.2843837,116.80105 C63.5437458,116.80105 63.8029744,116.7749 64.0587343,116.725269 C64.1435874,116.708726 64.2243044,116.674704 64.3080901,116.652824 C64.4767288,116.608663 64.6459012,116.567437 64.8089364,116.501263 C64.9069977,116.461505 64.997721,116.402801 65.0929806,116.355038 C65.2348025,116.28406 65.3782256,116.218019 65.5127095,116.129297 C65.6090364,116.06579 65.6949567,115.984006 65.7867475,115.911427 C65.8944147,115.826441 66.0082192,115.752928 66.1088154,115.655401 C66.1236246,115.640992 66.133364,115.623514 66.1479065,115.608972 C66.1621821,115.594829 66.1791261,115.585357 66.1932682,115.570948 L98.7748305,82.0205133 C100.335006,80.414176 100.296715,77.8469717 98.6903777,76.28693 C97.0844412,74.7275555 94.5184375,74.763845 92.9570617,76.3715163 Z" id="Shape"></path>
                </g>
            </g>
        </g>
    </g>
</svg>