<svg xmlns="http://www.w3.org/2000/svg" width="147" height="147" viewBox="0 0 147 147">
  <g fill="none" fill-rule="evenodd">
    <path fill="#D9D9D9" stroke="#999" stroke-width="3" d="M72.3233227,3.05252495 L53.3576985,22.0181492 L25.3540762,22.0181492 C23.9733643,22.0181492 22.8540762,23.1374373 22.8540762,24.5181492 L22.8540762,52.5217715 L3.05252495,72.3233227 C2.07621422,73.2996334 2.07621422,74.8825459 3.05252495,75.8588566 L22.8540762,95.6604079 L22.8540762,122.481851 C22.8540762,123.862563 23.9733643,124.981851 25.3540762,124.981851 L51.5541988,124.981851 L52.1755192,124.981851 L71.1411434,143.947475 C72.1174541,144.923786 73.7003666,144.923786 74.6766773,143.947475 L93.6423015,124.981851 L121.645924,124.981851 C123.026636,124.981851 124.145924,123.862563 124.145924,122.481851 L124.145924,94.4782285 L143.947475,74.6766773 C144.923786,73.7003666 144.923786,72.1174541 143.947475,71.1411434 L124.145924,51.3395921 L124.145924,24.5181492 C124.145924,23.1374373 123.026636,22.0181492 121.645924,22.0181492 L94.8244808,22.0181492 L75.8588566,3.05252495 C74.8825459,2.07621422 73.2996334,2.07621422 72.3233227,3.05252495 Z"/>
    <circle cx="74.5" cy="73.5" r="43.5" fill="#FFF"/>
    <g transform="translate(54 69)">
      <ellipse cx="3.587" cy="3.363" fill="#666" rx="3.587" ry="3.363"/>
      <ellipse cx="35.914" cy="3.363" fill="#666" rx="3.587" ry="3.363"/>
      <path fill="#666" stroke="#666" d="M26.2831196,7.80258444 C26.2831196,6.76552471 25.4424166,5.92482169 24.4053569,5.92482169 L13.9507157,5.92482169 C12.913656,5.92482169 12.0729529,6.76552471 12.0729529,7.80258444 C12.0729529,11.4586367 15.2471031,14.4358727 19.1780363,14.4358727 C23.1089695,14.4358727 26.2831196,11.4586367 26.2831196,7.80258444 Z"/>
      <path fill="#B9744A" d="M26.9969311,9.29078853 C26.3370127,12.5401787 23.2314699,15 19.5,15 C15.7685301,15 12.6629873,12.5401787 12.0030689,9.29078853 C12.289277,8.53629763 13.0188486,8 13.8736791,8 L25.1263209,8 C25.9811514,8 26.710723,8.53629763 26.9969311,9.29078853 Z"/>
    </g>
  </g>
</svg>
