<svg xmlns="http://www.w3.org/2000/svg" width="106" height="89" viewBox="0 0 106 89">
  <g fill="none" fill-rule="evenodd" transform="translate(0 1)">
    <path stroke="#FF7B00" stroke-linecap="round" d="M22.2404568 2L22.2404568 4.06185567M24.6643135 2.78755879L23.4523851 4.45563506M26.1623393 4.84941446L24.201398 5.4865629M26.1623393 7.39800822L24.201398 6.76085978M24.6643135 9.45986389L23.4523851 7.79178762M22.2404568 10.2474227L22.2404568 8.18556701M19.8166001 9.45986389L21.0285284 7.79178762M18.3185742 7.39800822L20.2795155 6.76085978M18.3185742 4.84941446L20.2795155 5.4865629M19.8166001 2.78755879L21.0285284 4.45563506M94.9896907 42.4536082L94.9896907 43.7067895M96.4628937 42.9322809L95.7262922 43.9461258M97.3733832 44.1854622L96.1815369 44.5727165M97.3733832 45.7344794L96.1815369 45.3472251M96.4628937 46.9876607L95.7262922 45.9738157M94.9896907 47.4663333L94.9896907 46.2131521M93.5164878 46.9876607L94.2530893 45.9738157M92.6059983 45.7344794L93.7978445 45.3472251M92.6059983 44.1854622L93.7978445 44.5727165M93.5164878 42.9322809L94.2530893 43.9461258"/>
    <path stroke="#4A90E2" stroke-linecap="round" d="M82,74.0309278 L86.1237113,74.0309278"/>
    <path stroke="#FEDB01" stroke-linecap="round" d="M99.628866,65.1340206 L103.752577,65.1340206"/>
    <path stroke="#4A90E2" stroke-linecap="round" d="M84.0309278,72 L84.0309278,76.1237113"/>
    <path stroke="#FEDB01" stroke-linecap="round" d="M101.690722,63.0721649 L101.690722,65.1340206"/>
    <path stroke="#4A90E2" stroke-linecap="round" d="M42 2.03092784L46.1237113 2.03092784M44.0309278 0L44.0309278 2.06185567"/>
    <circle cx="103.753" cy="24.928" r="1.031" stroke="#7ED321"/>
    <circle cx="16.062" cy="35.062" r="2.062" stroke="#FEDB01"/>
    <circle cx="20" cy="76" r="1" stroke="#4A90E2"/>
    <circle cx="1" cy="69" r="1" fill="#FF7B00"/>
    <polygon fill="#7ED321" points="10.5 54 13 58 8 58"/>
    <rect width="3" height="3" x="2.621" y="41.621" fill="#FF4500" transform="rotate(45 4.121 43.121)"/>
    <g transform="translate(28 1)">
      <ellipse cx="23" cy="83.5" fill="#DBC2A6" rx="16" ry="3.5"/>
      <g transform="translate(0 8.211)">
        <path fill="#FF7E33" d="M23.2145794,1.32893554 L23.2145794,1.32893554 C33.8943627,1.32893554 42.5520376,9.98661044 42.5520376,20.6663937 L42.5520376,47.8805439 C42.5520376,58.5603271 33.8943627,67.218002 23.2145794,67.218002 L23.2145794,67.218002 C12.5347962,67.218002 3.87712132,58.5603271 3.87712132,47.8805439 L3.87712132,20.6663937 C3.87712132,9.98661044 12.5347962,1.32893554 23.2145794,1.32893554 Z"/>
        <path fill="#FF4500" d="M20.7145794,66.1606862 C30.6933858,65.3951233 38.5520376,57.0555768 38.5520376,46.8805439 L38.5520376,19.6663937 C38.5520376,9.49136077 30.6933858,1.15181433 20.7145794,0.386251435 C21.2095956,0.348274347 21.7098291,0.328935543 22.2145794,0.328935543 C32.8943627,0.328935543 41.5520376,8.98661044 41.5520376,19.6663937 L41.5520376,46.8805439 C41.5520376,57.5603271 32.8943627,66.218002 22.2145794,66.218002 C21.7098291,66.218002 21.2095956,66.1986632 20.7145794,66.1606862 Z"/>
        <path fill="#FFF" d="M42.5520376,35.8531537 L42.5520376,52.2087818 C42.5520376,61.7437637 34.8224075,69.4733937 25.2874257,69.4733937 L21.2614117,69.4733937 C11.7264298,69.4733937 3.99679981,61.7437637 3.99679981,52.2087818 C3.99679981,52.1690269 3.99693713,52.1292721 3.99721175,52.0895181 L4.109375,35.8531537 L42.5520376,35.8531537 Z"/>
        <path fill="#E9EAEB" d="M21.2874257,68.4733937 C30.8224075,68.4733937 38.5520376,60.7437637 38.5520376,51.2087818 L38.5520376,36.0460849 L42.5520376,36.0460849 L42.5520376,51.2087818 C42.5520376,60.7437637 34.8224075,68.4733937 25.2874257,68.4733937 L21.2874257,68.4733937 Z"/>
        <path stroke="#333" stroke-linecap="round" stroke-linejoin="round" stroke-width="2" d="M12.3541001,3.68365448 C15.4499091,1.57844283 19.1885629,0.348096098 23.2145794,0.348096098 C33.8943627,0.348096098 42.5520376,9.005771 42.5520376,19.6855542 L42.5520376,50.1359356 C42.5520376,60.8157188 33.8943627,69.4733937 23.2145794,69.4733937 C12.5347962,69.4733937 3.87712132,60.8157188 3.87712132,50.1359356 L3.87712132,19.6855542 C3.87712132,16.4002081 4.69641322,13.3062179 6.1418295,10.596751 M8.50834277,7.12856296 C8.84251841,6.73756256 9.19201472,6.36004914 9.5559021,5.9969523"/>
        <path stroke="#333" stroke-linecap="round" stroke-width="2" d="M4.99701131,36.2524296 L42.0038831,36.2524296"/>
        <circle cx="16.227" cy="22.023" r="1.5" fill="#333"/>
        <circle cx="29.746" cy="22.023" r="1.5" fill="#333"/>
        <g transform="translate(19.566 22.943)">
          <path fill="#333" stroke="#333" d="M5.86077338,1.06065268 C5.86077338,0.751012753 5.60976063,0.5 5.3001207,0.5 L1.06065268,0.5 C0.751012753,0.5 0.5,0.751012753 0.5,1.06065268 C0.5,2.54191247 1.7001053,3.7426107 3.18038669,3.7426107 C4.66066808,3.7426107 5.86077338,2.54191247 5.86077338,1.06065268 Z"/>
          <path fill="#FF4500" d="M6.15777798,2.18168855 C5.70459544,3.38590947 4.5424883,4.2426107 3.18038669,4.2426107 C1.81828508,4.2426107 0.656177944,3.38590947 0.202995399,2.18168855 C0.528346063,1.51777358 1.21078988,1.06065268 2,1.06065268 L4.36077338,1.06065268 C5.1499835,1.06065268 5.83242732,1.51777358 6.15777798,2.18168855 Z"/>
        </g>
        <path stroke="#333" stroke-width="2" d="M42,19.8964267 C43.023112,26.8365309 45.1922201,31.6211988 48.5073242,34.2504306 C51.8224284,36.8796624 56.0053711,37.2867593 61.0561523,35.4717215" transform="matrix(-1 0 0 1 103.056 0)"/>
        <ellipse cx="61" cy="18.289" fill="#333" rx="3" ry="2.5"/>
        <path stroke="#333" stroke-linecap="round" d="M56.5 15.2885165L58.5 18.2885165M60.4936523 10.7885165C60.1645508 12.1442566 60 13.1442566 60 13.7885165 60 14.4327765 60.1645508 15.4327765 60.4936523 16.7885165M64.5 13.2885165L62.5 18.2885165"/>
        <path stroke="#333" stroke-linecap="round" stroke-width="2" d="M11.5,65.2885165 C10.9430405,67.0775256 10.6097072,68.4108589 10.5,69.2885165 C10.3902928,70.1661741 10.3902928,71.4995075 10.5,73.2885165"/>
        <path stroke="#333" stroke-linecap="round" stroke-width="2" d="M36.5820807,65.2885165 C36.024855,67.0796557 35.6915216,68.412989 35.5820807,69.2885165 C35.4726398,70.164044 35.4726398,71.4973774 35.5820807,73.2885165" transform="matrix(-1 0 0 1 72.082 0)"/>
        <path stroke="#333" stroke-linecap="round" stroke-width="2" d="M3.82275391,35.7035556 C1.56315104,36.9250725 0.41780599,38.6727939 0.38671875,40.9467197 C0.35563151,43.2206454 2.32796224,46.2452223 6.30371094,50.0204501"/>
        <path stroke="#E9EAEB" stroke-linecap="round" stroke-width="2" d="M10.314209,13.3246493 C10.5489095,12.1229892 11.0340169,10.8729892 11.7695312,9.57464935 C12.5050456,8.2763095 13.5199382,7.0263095 14.814209,5.82464935" transform="rotate(10 12.564 9.575)"/>
      </g>
      <g transform="rotate(-21 41.87 -114.332)">
        <text fill="#333" font-family="AlTarikh, Al Tarikh" font-size="20" transform="matrix(-1 0 0 1 33 0)">
          <tspan x="13" y="11">!</tspan>
        </text>
        <path stroke="#333" stroke-linecap="round" stroke-width="1.5" d="M10.7080516.575212477L10.7080516 10.5752125M6.5.5L6.5 10.5"/>
        <path stroke="#333" stroke-linecap="square" stroke-width="1.5" d="M2.01040411,5.56641957 L5.85836795,5.56641957"/>
        <path stroke="#333" stroke-linecap="round" stroke-width="1.5" d="M1.7255288,0.283155473 L1.7255288,10.2831555"/>
      </g>
    </g>
  </g>
</svg>
