<svg xmlns="http://www.w3.org/2000/svg" width="58" height="58" viewBox="0 0 58 58">
  <g fill="none" fill-rule="evenodd">
    <rect width="58" height="58" fill="#666" rx="8"/>
    <g transform="rotate(45 7.984 46.935)">
      <path fill="#FFF" d="M12.1388889,0.117958768 C17.2174444,0.881891115 21.1111111,5.26401604 21.1111111,10.5555556 L21.1111111,27.4444444 C21.1111111,32.735984 17.2174444,37.1181089 12.1388889,37.8820412 C7.0603334,37.1181089 3.16666667,32.735984 3.16666667,27.4444444 L3.16666667,10.5555556 C3.16666667,5.26401604 7.0603334,0.881891115 12.1388889,0.117958768 L12.1388889,0.117958768 Z"/>
      <path fill="#FFF" d="M10.0277778,37.3354141 C10.7015525,37.5871898 11.4079483,37.7720908 12.1388889,37.8820412 C17.2174444,37.1181089 21.1111111,32.735984 21.1111111,27.4444444 L21.1111111,10.5555556 C21.1111111,5.26401604 17.2174444,0.881891115 12.1388889,0.117958768 C11.4079483,0.227909164 10.7015525,0.412810224 10.0277778,0.664585894 C14.0353716,2.16214069 16.8888889,6.02561079 16.8888889,10.5555556 L16.8888889,27.4444444 C16.8888889,31.9743892 14.0353716,35.8378593 10.0277778,37.3354141 L10.0277778,37.3354141 Z"/>
      <path stroke="#FFF" stroke-linecap="round" d="M6.36612617 5.79093085C5.89482851 6.44154754 5.55532498 7.03699409 5.34761556 7.57727051 5.13990614 8.11754693 5.01992346 8.70036598 4.98766751 9.32572767M7.91404244 3.76453664L7.19415528 4.5365211"/>
      <path fill="#FFF" stroke="#141414" d="M10,0.5 C4.75329488,0.5 0.5,4.75329488 0.5,10 L0.5,28 C0.5,33.2467051 4.75329488,37.5 10,37.5 L11.1111111,37.5 C16.3578162,37.5 20.6111111,33.2467051 20.6111111,28 L20.6111111,10 C20.6111111,4.75329488 16.3578162,0.5 11.1111111,0.5 L10,0.5 Z"/>
      <path stroke="#6E6E6E" stroke-linecap="round" d="M3.09165064,27.1710117 C3.05067896,28.4910825 3.20984704,29.7285193 3.56915488,30.8833223 C3.92846272,32.0381253 4.7166497,33.0581015 5.93371581,33.9432509"/>
      <g transform="translate(5 9)">
        <path fill="#5B5143" fill-rule="nonzero" d="M2.91193124,4.68938322 C2.91193124,5.95338726 4.08038423,6.98806876 5.50819009,6.98806876 C6.93599596,6.98806876 8.10444894,5.95338726 8.10444894,4.68938322 L8.10444894,3.92224469 L2.91193124,3.92224469 L2.91193124,4.68938322 Z"/>
        <path fill="#141414" fill-rule="nonzero" d="M5.50819009,7.33751264 C3.88382204,7.33751264 2.55975733,6.14994944 2.55975733,4.68938322 L2.55975733,3.92224469 C2.55975733,3.72841254 2.71536906,3.57280081 2.90920121,3.57280081 L8.10717897,3.57280081 C8.30101112,3.57280081 8.45662285,3.72841254 8.45662285,3.92224469 L8.45662285,4.68938322 C8.45662285,6.14994944 7.13528817,7.33751264 5.50819009,7.33751264 Z M3.26137513,4.27168857 L3.26137513,4.68938322 C3.26137513,5.19989889 3.49069767,5.68311426 3.90566229,6.05166835 C4.33427705,6.43114257 4.90212336,6.63862487 5.50819009,6.63862487 C6.11425683,6.63862487 6.68210313,6.43114257 7.1107179,6.05166835 C7.52568251,5.68311426 7.75500506,5.19989889 7.75500506,4.68938322 L7.75500506,4.27168857 L3.26137513,4.27168857 L3.26137513,4.27168857 Z"/>
        <circle cx="1" cy="2" r="1" fill="#141414"/>
        <circle cx="10" cy="1" r="1" fill="#141414"/>
        <path fill="#FF4500" fill-rule="nonzero" d="M3.97391304,5.49747219 C3.97391304,5.91361233 4.64249813,6.25096057 5.46723964,6.25096057 C6.29198114,6.25096057 6.96056623,5.91361233 6.96056623,5.49747219 C6.96056623,5.08133206 6.29198114,4.74398382 5.46723964,4.74398382 C4.64249813,4.74398382 3.97391304,5.08133206 3.97391304,5.49747219 L3.97391304,5.49747219 Z"/>
      </g>
      <path stroke="#141414" stroke-linecap="square" d="M0.527777778,19.5277778 L20.6110919,19.5277778"/>
    </g>
  </g>
</svg>
