<svg xmlns="http://www.w3.org/2000/svg" width="40" height="40" viewBox="0 0 40 40">
  <path fill="#009FE8" d="M11.0736842,30.9263158 C5.23157895,30.9263158 4.30526316,27.2315789 4.61052633,25.6842105 C4.92631582,24.1578947 6.61052633,22.1473684 9.86315789,22.1473684 C13.6,22.1473684 16.9473684,23.1052632 20.9578947,25.0631579 C18.1368421,28.7368421 14.6736842,30.9263158 11.0736842,30.9263158 L11.0736842,30.9263158 Z M40,27.3894737 L40,7.69473684 C40,3.44210527 36.5578947,0 32.3052632,0 L7.69473684,0 C3.44210527,0 0,3.44210527 0,7.69473684 L0,32.3052632 C0,36.5578947 3.44210527,40 7.69473684,40 L32.3052632,40 C36.0947368,40 39.2421053,37.2631579 39.8842105,33.6631579 C37.8421052,32.7894737 29,28.9684211 24.4,26.7684211 C20.8947368,31.0105263 17.2210526,33.5578947 11.6842105,33.5578947 C6.15789473,33.5578947 2.46315789,30.1578947 2.90526316,25.9789474 C3.2,23.2421053 5.07368422,18.7684211 13.2315789,19.5368421 C17.5263158,19.9368421 19.4947368,20.7473684 23,21.9052632 C23.9052632,20.2421053 24.6631579,18.4105263 25.2315789,16.4631579 L9.69473684,16.4631579 L9.69473684,14.9157895 L17.3789474,14.9157895 L17.3789474,12.1578947 L8,12.1578947 L8,10.4631579 L17.3789474,10.4631579 L17.3789474,6.47368422 C17.3789474,6.47368422 17.4631579,5.84210527 18.1578947,5.84210527 L22,5.84210527 L22,10.4631579 L32,10.4631579 L32,12.1578947 L22,12.1578947 L22,14.9157895 L30.1578947,14.9157895 C29.4105263,17.9684211 28.2736842,20.7789474 26.8421053,23.2315789 C29.2105263,24.0842105 40,27.3894737 40,27.3894737 Z"/>
</svg>
