<?xml version="1.0" encoding="UTF-8"?>
<svg width="55px" height="50px" viewBox="0 0 55 50" version="1.1" xmlns="http://www.w3.org/2000/svg" xmlns:xlink="http://www.w3.org/1999/xlink">
    <!-- Generator: Sketch 50.2 (55047) - http://www.bohemiancoding.com/sketch -->
    <title>余额2</title>
    <desc>Created with Sketch.</desc>
    <defs></defs>
    <g id="Page-1" stroke="none" stroke-width="1" fill="none" fill-rule="evenodd">
        <g id="1_Home-page_2_Balance" transform="translate(-160.000000, -80.000000)" fill="#FFFFFF" stroke="#FFFFFF">
            <g id="Group-3" transform="translate(160.000000, 80.000000)">
                <g id="余额" transform="translate(4.000000, 5.000000)">
                    <path d="M5.04289762,9.75576267 L5.04289762,7.13096543 C5.86988855,7.6846898 6.97733725,8.1736931 8.36524373,8.59078416 C11.3208373,9.48968733 15.232864,9.98588186 19.3750097,9.98588186 C23.5243468,9.98588186 27.4363734,9.48968729 30.3847758,8.59078416 C31.7870647,8.16650184 32.9017046,7.67030732 33.7358868,7.10939172 L33.7358868,9.76295389 C33.5848711,9.75576267 33.4266641,9.75576267 33.2756484,9.75576267 C29.083164,9.75576267 25.1423725,11.3881708 22.1795876,14.3509557 C21.9135123,14.617031 21.6546282,14.8974888 21.4029353,15.1851378 C14.4562116,15.4871693 7.48072299,13.6534068 5.51751848,11.7836883 C5.22986948,11.5104217 5.0716625,11.2587288 5.0716625,11.0717569 L5.03570635,11.0717569 L5.03570635,9.87801355 C5.04289758,9.87082232 5.05728002,9.87082232 5.06447124,9.87082232 L5.04289762,9.75576267 Z M8.86143829,2.04676911 C11.658825,1.19820452 15.3910709,0.730774875 19.3750098,0.730774875 C23.3589486,0.730774875 27.0911946,1.19820452 29.8885813,2.04676911 C32.7291153,2.90971614 33.7358868,3.90210527 33.7358868,4.49178574 C33.7358868,5.08146622 32.7291153,6.07385531 29.8885813,6.93680238 C27.0911946,7.78536697 23.3589487,8.25279661 19.3750098,8.25279661 C15.3910709,8.25279661 11.658825,7.78536697 8.86143829,6.93680238 C6.02090426,6.07385535 5.01413273,5.08146622 5.01413273,4.49178574 C5.01413273,3.90210523 6.02090426,2.90971614 8.86143829,2.04676911 Z M3.30981233,10.5467974 L3.30981233,11.0573745 L3.34576848,11.0573745 C3.34576848,11.7477321 3.67656484,12.4093248 4.32377513,13.0277702 C6.70407074,15.2930062 13.3919103,16.9326056 19.8352482,16.9397968 C14.6503747,17.5654334 10.6160973,17.0908125 8.1207421,16.5802355 C5.19391338,15.9761726 2.69855819,14.9550186 1.43290251,13.8475699 C0.922325502,13.4017139 0.742544858,13.0349614 0.742544858,12.8479895 C0.749736079,12.0929109 1.89314093,11.2227727 3.30981233,10.5467974 Z M1.31784289,20.1111272 C1.00142897,19.8090957 0.821648328,19.5142555 0.771309783,19.2266064 L0.771309783,15.5231254 C2.33180569,16.6809127 4.84154335,17.6661106 7.77556329,18.2701735 C10.0192256,18.7304119 12.4426686,18.9605311 14.945215,18.9605311 C16.2971653,18.9605311 17.6706894,18.8958101 19.0585959,18.7591768 C18.4041944,20.1542745 17.9583384,21.635667 17.7354104,23.1745892 C14.4849765,23.3327962 10.8965551,23.1098682 7.87624043,22.5633351 C4.71210125,21.9952282 2.38214423,21.1178987 1.31784289,20.1111272 Z M17.6131595,26.5113178 C13.2624682,26.6191862 9.17785217,25.4182515 6.87666008,24.1310222 C9.62370815,24.6847465 12.7518912,24.9580131 15.6787199,24.9580131 C16.3259302,24.9580131 16.958758,24.9436306 17.5843946,24.9148657 C17.5772034,25.0874551 17.5772034,25.2672357 17.5772034,25.4398252 C17.5772034,25.7993865 17.5915859,26.1589477 17.6131595,26.5113178 Z M5.60381321,29.1864536 C5.2011046,28.8125099 4.99255907,28.4529486 4.97098537,28.1077698 L4.98536781,28.1077698 L4.98536781,24.9580131 C6.27978838,25.9144461 8.25737533,26.7845843 10.5369938,27.3886472 C12.1262546,27.8129296 14.4130643,28.2444031 17.0522439,28.2444031 C17.3111281,28.2444031 17.5700122,28.2372118 17.8288963,28.2300206 C18.0949716,29.7257955 18.5767837,31.1640406 19.2599501,32.5087997 C13.8018101,32.5447558 7.63892997,31.0921283 5.60381321,29.1864536 Z M33.2756484,39.412376 C25.573846,39.412376 19.3102887,33.1488188 19.3102887,25.4470164 C19.3102887,17.745214 25.573846,11.4816567 33.2756484,11.4816567 C40.9774507,11.4816567 47.241008,17.745214 47.241008,25.4470164 C47.241008,33.1488188 40.9774508,39.412376 33.2756484,39.412376 Z M31.256,27.216 L29,27.216 C29.1066672,28.474673 29.4959966,29.4293301 30.168,30.08 C30.8400034,30.7306699 31.7733274,31.0986662 32.968,31.184 L32.968,32.544 L33.912,32.544 L33.912,31.184 C34.712004,31.1306664 35.3679974,30.970668 35.88,30.704 C36.3920026,30.437332 36.7999985,30.133335 37.104,29.792 C37.4080015,29.450665 37.6186661,29.1013351 37.736,28.744 C37.8533339,28.3866649 37.912,28.0906678 37.912,27.856 C37.912,27.589332 37.8933335,27.285335 37.856,26.944 C37.8186665,26.602665 37.6986677,26.261335 37.496,25.92 C37.2933323,25.578665 36.9786688,25.2506682 36.552,24.936 C36.1253312,24.6213318 35.5173373,24.3573344 34.728,24.144 C34.5786659,24.1013331 34.437334,24.0640002 34.304,24.032 C34.170666,23.9999998 34.0400006,23.9680002 33.912,23.936 L33.912,21.104 C34.2746685,21.104 34.5839987,21.2533318 34.84,21.552 C35.0960013,21.8506682 35.2293333,22.2133312 35.24,22.64 L37.512,22.64 C37.4799998,22.0853306 37.3626677,21.6053354 37.16,21.2 C36.9573323,20.7946646 36.6960016,20.4560014 36.376,20.184 C36.0559984,19.9119986 35.6853354,19.6986674 35.264,19.544 C34.8426646,19.3893326 34.3920024,19.2853336 33.912,19.232 L33.912,18 L32.968,18 L32.968,19.232 C32.4879976,19.2640002 32.0240022,19.3573326 31.576,19.512 C31.1279978,19.6666674 30.733335,19.8853319 30.392,20.168 C30.050665,20.4506681 29.776001,20.7999979 29.568,21.216 C29.359999,21.6320021 29.256,22.1119973 29.256,22.656 C29.256,23.189336 29.3466658,23.6346649 29.528,23.992 C29.7093342,24.3493351 29.9519985,24.6479988 30.256,24.888 C30.5600015,25.1280012 30.9039981,25.3199993 31.288,25.464 C31.6720019,25.6080007 32.0613314,25.7333328 32.456,25.84 C32.5626672,25.8613334 32.6613329,25.8853332 32.752,25.912 C32.8426671,25.9386668 32.9146664,25.9626666 32.968,25.984 L32.968,29.328 C32.4773309,29.2319995 32.0666683,29.0080018 31.736,28.656 C31.4053317,28.3039982 31.2453333,27.824003 31.256,27.216 Z" id="Combined-Shape" stroke-width="0.1" fill-rule="nonzero"></path>
                    <path d="M33.912,29.328 C34.104001,29.3066666 34.303999,29.2613337 34.512,29.192 C34.720001,29.1226663 34.9066658,29.0240006 35.072,28.896 C35.2373342,28.7679994 35.3733328,28.6106676 35.48,28.424 C35.5866672,28.2373324 35.64,28.0160013 35.64,27.76 C35.64,27.3439979 35.5093346,27.032001 35.248,26.824 C34.9866654,26.615999 34.5413365,26.4266675 33.912,26.256 L33.912,29.328 Z" id="$" stroke-width="0.5"></path>
                    <path d="M32.968,21.104 C32.7866658,21.104 32.6106675,21.1306664 32.44,21.184 C32.2693325,21.2373336 32.1146674,21.3199994 31.976,21.432 C31.8373326,21.5440006 31.7280004,21.6826658 31.648,21.848 C31.5679996,22.0133342 31.528,22.2079989 31.528,22.432 C31.528,22.7840018 31.6399989,23.055999 31.864,23.248 C32.0880011,23.440001 32.4559974,23.5946661 32.968,23.712 L32.968,21.104 Z" id="$" stroke-width="0.5"></path>
                </g>
            </g>
        </g>
    </g>
</svg>