<?xml version="1.0" encoding="UTF-8"?>
<svg width="55px" height="50px" viewBox="0 0 55 50" version="1.1" xmlns="http://www.w3.org/2000/svg" xmlns:xlink="http://www.w3.org/1999/xlink">
    <!-- Generator: Sketch 50.2 (55047) - http://www.bohemiancoding.com/sketch -->
    <title>转账1</title>
    <desc>Created with Sketch.</desc>
    <defs></defs>
    <g id="Page-1" stroke="none" stroke-width="1" fill="none" fill-rule="evenodd">
        <g id="1_Home-page_1_Wallets" transform="translate(-283.000000, -80.000000)" fill="#FFFFFF">
            <g id="Group-11" transform="translate(283.000000, 80.000000)">
                <g id="转账" transform="translate(1.000000, 6.000000)">
                    <path d="M2,6 L44,6 C45.1045695,6 46,6.8954305 46,8 L46,35.4736842 C46,36.5782537 45.1045695,37.4736842 44,37.4736842 L2,37.4736842 C0.8954305,37.4736842 2.09738034e-15,36.5782537 0,35.4736842 L0,8 C-1.3527075e-16,6.8954305 0.8954305,6 2,6 Z M3.42105263,8.42105263 C2.86876788,8.42105263 2.42105263,8.86876788 2.42105263,9.42105263 L2.42105263,34.0526316 C2.42105263,34.6049163 2.86876788,35.0526316 3.42105263,35.0526316 L42.5789474,35.0526316 C43.1312321,35.0526316 43.5789474,34.6049163 43.5789474,34.0526316 L43.5789474,9.42105263 C43.5789474,8.86876788 43.1312321,8.42105263 42.5789474,8.42105263 L3.42105263,8.42105263 Z" id="Combined-Shape"></path>
                    <path d="M45,31.4736842 L45,29.0526316 L49.5789474,29.0526316 C50.1312321,29.0526316 50.5789474,28.6049163 50.5789474,28.0526316 L50.5789474,3.42105263 C50.5789474,2.86876788 50.1312321,2.42105263 49.5789474,2.42105263 L10.4210526,2.42105263 C9.86876788,2.42105263 9.42105263,2.86876788 9.42105263,3.42105263 L9.42105263,8 L7,8 L7,2 C7,0.8954305 7.8954305,2.02906125e-16 9,0 L51,0 C52.1045695,-2.02906125e-16 53,0.8954305 53,2 L53,29.4736842 C53,30.5782537 52.1045695,31.4736842 51,31.4736842 L45,31.4736842 Z" id="Combined-Shape"></path>
                    <g id="Group" transform="translate(23.142544, 15.815789) rotate(-90.000000) translate(-23.142544, -15.815789) translate(19.642544, 3.315789)">
                        <path d="M1.21052632,0.252192982 L1.21052632,0.252192982 C1.87908154,0.252192982 2.42105263,0.794164075 2.42105263,1.4627193 L2.42105263,23.252193 C2.42105263,23.9207482 1.87908154,24.4627193 1.21052632,24.4627193 L1.21052632,24.4627193 C0.541971092,24.4627193 3.41254348e-15,23.9207482 3.33066907e-15,23.252193 L0,1.4627193 C-8.18744014e-17,0.794164075 0.541971092,0.252192982 1.21052632,0.252192982 Z" id="Rectangle-7"></path>
                        <path d="M1.57334582,0.759589258 L3.79741702,0.446460287 L4.84081321,5.82119109 C4.95155448,6.39164027 4.57888758,6.94385424 4.0084384,7.05459551 C3.97039102,7.06198165 3.93196459,7.06725988 3.89333481,7.07040608 L3.89333481,7.07040608 C3.22891832,7.12451937 2.6320936,6.66507088 2.51445673,6.00891611 L1.57334582,0.759589258 Z" id="Rectangle-7-Copy" transform="translate(3.216819, 3.760595) rotate(-30.000000) translate(-3.216819, -3.760595) "></path>
                    </g>
                    <g id="Group-Copy" transform="translate(22.857456, 27.657895) rotate(-270.000000) translate(-22.857456, -27.657895) translate(19.357456, 15.157895)">
                        <path d="M1.21052632,0.252192982 L1.21052632,0.252192982 C1.87908154,0.252192982 2.42105263,0.794164075 2.42105263,1.4627193 L2.42105263,23.252193 C2.42105263,23.9207482 1.87908154,24.4627193 1.21052632,24.4627193 L1.21052632,24.4627193 C0.541971092,24.4627193 4.07867729e-15,23.9207482 3.99680289e-15,23.252193 L0,1.4627193 C-8.18744014e-17,0.794164075 0.541971092,0.252192982 1.21052632,0.252192982 Z" id="Rectangle-7"></path>
                        <path d="M1.57334582,0.759589258 L3.79741702,0.446460287 L4.84081321,5.82119109 C4.95155448,6.39164027 4.57888758,6.94385424 4.0084384,7.05459551 C3.97039102,7.06198165 3.93196459,7.06725988 3.89333481,7.07040608 L3.89333481,7.07040608 C3.22891832,7.12451937 2.6320936,6.66507088 2.51445673,6.00891611 L1.57334582,0.759589258 Z" id="Rectangle-7-Copy" transform="translate(3.216819, 3.760595) rotate(-30.000000) translate(-3.216819, -3.760595) "></path>
                    </g>
                </g>
            </g>
        </g>
    </g>
</svg>