<svg xmlns="http://www.w3.org/2000/svg" width="40" height="40" viewBox="0 0 40 40">
  <path fill="#06BF04" d="M11.3294531,11.3725781 C10.4380078,11.3725781 9.53902344,11.9621484 9.53902344,12.8557422 C9.53902344,13.7483984 10.4380078,14.3442578 11.3294531,14.3442578 C12.2211328,14.3442578 12.8137891,13.7483594 12.8137891,12.8557422 C12.8137891,11.9609766 12.2200391,11.3725781 11.3294531,11.3725781 L11.3294531,11.3725781 Z M23.5189453,19.9980078 C22.9263281,19.9980078 22.3295703,20.5936719 22.3295703,21.1874219 C22.3295703,21.7883984 22.9263672,22.3768359 23.5189453,22.3768359 C24.4179297,22.3768359 25.0073828,21.7883984 25.0073828,21.1874219 C25.0075,20.5936719 24.4179297,19.9980078 23.5189453,19.9980078 L23.5189453,19.9980078 Z M40,6.08941406 C40,2.72636719 37.2736328,0 33.9105859,0 L6.08941406,0 C2.72640625,0 0,2.72636719 0,6.08941406 L0,33.910625 C0,37.2736328 2.72640625,40 6.08941406,40 L33.910625,40 C37.2736328,40 40,37.2736328 40,33.9105859 L40,6.08941406 L40,6.08941406 Z M15.1926172,26.5475391 C13.7084766,26.5475391 12.5147266,26.2442578 11.0273438,25.9504688 L6.87042969,28.0348047 L8.06,24.4579297 C5.08304688,22.376875 3.30097656,19.6968359 3.30097656,16.4295313 C3.30097656,10.7705859 8.65578125,6.31578125 15.1925781,6.31578125 C21.0399219,6.31578125 26.1621484,9.87585938 27.190625,14.6673047 C26.8125781,14.6251172 26.4305078,14.5978906 26.0451953,14.5978906 C20.3967578,14.5978906 15.935625,18.8137109 15.935625,24.0083984 C15.935625,24.8725781 16.0705078,25.7053125 16.3032422,26.4999219 C15.9356641,26.5283984 15.5653516,26.5475391 15.1926172,26.5475391 L15.1926172,26.5475391 Z M32.73375,30.7127344 L33.6273438,33.6842188 L30.3651953,31.8979297 C29.1757813,32.1959375 27.9810156,32.4947656 26.7969141,32.4947656 C21.1389453,32.4947656 16.6831641,28.6274219 16.6831641,23.8653125 C16.6831641,19.1105078 21.1389453,15.2357031 26.7969141,15.2357031 C32.1399219,15.2357031 36.8978906,19.1116797 36.8978906,23.8653125 C36.8990234,26.5475391 35.1200391,28.9221875 32.73375,30.7127344 L32.73375,30.7127344 Z M30.0600391,19.9980078 C29.4716406,19.9980078 28.8789844,20.5936719 28.8789844,21.1874219 C28.8789844,21.7883984 29.4716797,22.3768359 30.0600391,22.3768359 C30.9515234,22.3768359 31.5484766,21.7883984 31.5484766,21.1874219 C31.5485938,20.5936719 30.950625,19.9980078 30.0600391,19.9980078 L30.0600391,19.9980078 Z M19.6516406,14.3442578 C20.5473437,14.3442578 21.1399219,13.7483594 21.1399219,12.8557031 C21.1399219,11.9609766 20.5473047,11.3725391 19.6516406,11.3725391 C18.7599219,11.3725391 17.8662891,11.9621094 17.8662891,12.8557031 C17.8662891,13.7483594 18.7599219,14.3442578 19.6516406,14.3442578 L19.6516406,14.3442578 Z"/>
</svg>
