<?xml version="1.0" encoding="UTF-8"?>
<svg width="120px" height="98px" viewBox="0 0 120 98" version="1.1" xmlns="http://www.w3.org/2000/svg" xmlns:xlink="http://www.w3.org/1999/xlink">
    <!-- Generator: Sketch 50.2 (55047) - http://www.bohemiancoding.com/sketch -->
    <title>钱包4</title>
    <desc>Created with Sketch.</desc>
    <defs></defs>
    <g id="Page-1" stroke="none" stroke-width="1" fill="none" fill-rule="evenodd">
        <g id="2_Pay（loading）" transform="translate(-128.000000, -286.000000)" fill="#FFFFFF">
            <g id="Group-13" transform="translate(88.000000, 234.000000)">
                <g id="Group">
                    <path d="M100,193.035444 L100,192.998677 C150.856286,192.729509 192,151.419569 192,100.5 C192,49.4136606 150.586339,8 99.5,8 C48.5804308,8 7.27049086,49.1437142 7.00132291,100 L6.96455557,100 C6.72194074,101.696147 5.26323595,103 3.5,103 C1.73676405,103 0.27805926,101.696147 0.0354444293,100 L0,100 C0,99.859516 0.000289687173,99.7190997 0.000868496751,99.5787517 C0.000290509474,99.552571 0,99.5263194 0,99.5 C0,99.4615465 0.000620125682,99.4232378 0.00185092205,99.3850834 C0.332704623,44.4395822 44.976642,0 100,0 C155.228475,0 200,44.771525 200,100 C200,155.023358 155.560418,199.667295 100.614917,199.998149 C100.576762,199.99938 100.538454,200 100.5,200 C100.473681,200 100.447429,199.999709 100.421248,199.999132 C100.2809,199.99971 100.140484,200 100,200 L100,199.964556 C98.3038529,199.721941 97,198.263236 97,196.5 C97,194.736764 98.3038529,193.278059 100,193.035444 Z" id="Combined-Shape"></path>
                </g>
                <g id="钱包" transform="translate(40.000000, 51.000000)">
                    <path d="M83.0769231,67.6923077 C77.97891,67.6923077 73.8461538,63.5595515 73.8461538,58.4615385 C73.8461538,53.3635254 77.97891,49.2307692 83.0769231,49.2307692 C88.1749362,49.2307692 92.3076923,53.3635254 92.3076923,58.4615385 C92.3076923,63.5595515 88.1749362,67.6923077 83.0769231,67.6923077 Z M83.0769231,61.5384615 C84.7762608,61.5384615 86.1538462,60.1608762 86.1538462,58.4615385 C86.1538462,56.7622008 84.7762608,55.3846154 83.0769231,55.3846154 C81.3775854,55.3846154 80,56.7622008 80,58.4615385 C80,60.1608762 81.3775854,61.5384615 83.0769231,61.5384615 Z" id="Combined-Shape"></path>
                    <path d="M116.923077,43.0769231 L110.769231,43.0769231 L110.769231,25.6153846 C110.769231,25.0630999 110.321516,24.6153846 109.769231,24.6153846 L7.15384615,24.6153846 C6.6015614,24.6153846 6.15384615,25.0630999 6.15384615,25.6153846 L6.15384615,91.3076923 C6.15384615,91.8599771 6.6015614,92.3076923 7.15384615,92.3076923 L109.769231,92.3076923 C110.321516,92.3076923 110.769231,91.8599771 110.769231,91.3076923 L110.769231,76.9230769 L116.923077,76.9230769 L116.923077,96.4615385 C116.923077,97.566108 116.027646,98.4615385 114.923077,98.4615385 L2,98.4615385 C0.8954305,98.4615385 1.3527075e-16,97.566108 0,96.4615385 L0,20.4615385 C-1.3527075e-16,19.356969 0.8954305,18.4615385 2,18.4615385 L114.923077,18.4615385 C116.027646,18.4615385 116.923077,19.356969 116.923077,20.4615385 L116.923077,43.0769231 Z" id="Combined-Shape"></path>
                    <path d="M93.8461538,23.0769231 L87.740943,23.0769231 L87.740943,10.2325744 C87.740943,10.1810409 87.7369594,10.1295846 87.7290279,10.0786651 C87.6440262,9.53296083 87.1327379,9.15948767 86.5870336,9.24448945 L6.95130156,21.6489712 C6.46431315,21.7248271 6.10521089,22.1441953 6.10521089,22.6370562 L6.10521089,23.0769231 L8.8817842e-16,23.0769231 L8.8817842e-16,17.5016129 C7.67935934e-16,16.5197585 0.712723678,15.6831087 1.68209501,15.5270405 L91.5282489,1.06186339 C92.6187751,0.886289311 93.6451522,1.62800461 93.8207263,2.71853087 C93.837651,2.82365339 93.8461538,2.92995961 93.8461538,3.03643585 L93.8461538,23.0769231 Z" id="Combined-Shape-Copy"></path>
                    <path d="M83.0769231,36.9230769 L119,36.9230769 C119.552285,36.9230769 120,37.3707922 120,37.9230769 L120,79 C120,79.5522847 119.552285,80 119,80 L83.0769231,80 C71.1815592,80 61.5384615,70.3569023 61.5384615,58.4615385 C61.5384615,46.5661746 71.1815592,36.9230769 83.0769231,36.9230769 Z M83.0769231,43.0769231 C74.5802346,43.0769231 67.6923077,49.96485 67.6923077,58.4615385 C67.6923077,66.9582269 74.5802346,73.8461538 83.0769231,73.8461538 L112.846154,73.8461538 C113.398439,73.8461538 113.846154,73.3984386 113.846154,72.8461538 L113.846154,44.0769231 C113.846154,43.5246383 113.398439,43.0769231 112.846154,43.0769231 L83.0769231,43.0769231 Z" id="Combined-Shape"></path>
                </g>
            </g>
        </g>
    </g>
</svg>