<svg xmlns="http://www.w3.org/2000/svg" width="80" height="80" viewBox="0 0 80 80">
  <defs>
    <filter id="header-icon-a" width="340%" height="500%" x="-120%" y="-200%" filterUnits="objectBoundingBox">
      <feGaussianBlur in="SourceGraphic" stdDeviation="2"/>
    </filter>
    <filter id="header-icon-b" width="340%" height="500%" x="-120%" y="-200%" filterUnits="objectBoundingBox">
      <feGaussianBlur in="SourceGraphic" stdDeviation="2"/>
    </filter>
  </defs>
  <g fill="none" fill-rule="evenodd" transform="translate(17 7)">
    <path stroke="#333" stroke-linecap="round" stroke-width="2" d="M0.5,65.5 L36.6308594,65.5 M39.9111328,65.5 L45.5,65.5"/>
    <path fill="#EEB57E" d="M23.947764,1.09090126 C11.0414729,20.1714306 4.40277887,32.8997226 4.03168209,39.2757771 C3.46449493,49.0209877 10.519144,61.6410355 24.6877829,60.9746738 C38.8564219,60.3083121 53.3270293,47.8074361 41.4943252,26.686677 C34.2555087,13.7657675 28.9419137,5.21096088 25.5535402,1.02225719 L25.5535402,1.02225721 C25.2061973,0.592872339 24.5765351,0.526364146 24.1471502,0.873707003 C24.0703218,0.935855898 24.0031296,1.00904933 23.947764,1.09090126 Z"/>
    <path fill="#FFC15B" d="M26.3272519,2.01054078 C26.059066,1.65779501 25.8011621,1.32836714 25.5535402,1.02225719 C25.2061973,0.592872339 24.5765351,0.526364146 24.1471502,0.873707003 C24.0703218,0.935855898 24.0031296,1.00904933 23.947764,1.09090126 C11.0414729,20.1714306 4.40277887,32.8997226 4.03168209,39.2757771 C3.46449493,49.0209877 10.519144,61.6410355 24.6877829,60.9746738 C24.8379281,60.9676123 24.9881071,60.9592219 25.1382883,60.9495064 C12.6748922,60.0895185 6.4996077,48.4176925 7.03168209,39.2757771 C7.39678462,33.0027137 13.8286412,20.5809682 26.3272519,2.01054078 Z"/>
    <path stroke="#333" stroke-linecap="round" stroke-width="2" d="M10.1231036,23.3760065 C9.46147578,24.6022114 8.85360023,25.7739382 8.29947695,26.8911868 M6.43510518,30.9153912 C4.95496672,34.3903534 4.15382569,37.1771487 4.03168209,39.2757771 C3.46449493,49.0209877 10.519144,61.6410355 24.6877829,60.9746738 C38.8564219,60.3083121 53.3270293,47.8074361 41.4943252,26.686677 C34.2638863,13.7807212 28.9542154,5.23076807 25.5653123,1.03681778 C25.2181944,0.607259326 24.5885752,0.540414681 24.1590094,0.887523453 C24.0788284,0.952313366 24.0091477,1.02911173 23.9524368,1.11519664 C18.622768,9.20543561 15.0331571,14.8217155 13.1836039,17.9640363"/>
    <ellipse cx="35.5" cy="43.5" fill="#FF4500" filter="url(#header-icon-a)" rx="2.5" ry="1.5"/>
    <ellipse cx="16.5" cy="43.5" fill="#FF4500" filter="url(#header-icon-b)" rx="2.5" ry="1.5"/>
    <ellipse cx="16.093" cy="37.536" fill="#333" rx="2.093" ry="1.982"/>
    <ellipse cx="34.234" cy="37.536" fill="#333" rx="2.093" ry="1.982"/>
    <path fill="#333" stroke="#333" d="M29.3534281,41.5982973 C29.3534281,41.1003268 28.9497432,40.6966419 28.4517727,40.6966419 L22.3789216,40.6966419 C21.8809511,40.6966419 21.4772662,41.1003268 21.4772662,41.5982973 C21.4772662,43.6382805 23.2345524,45.3032634 25.4153471,45.3032634 C27.5961419,45.3032634 29.3534281,43.6382805 29.3534281,41.5982973 Z"/>
    <path fill="#FF4500" d="M29.7164998,42.6957227 C29.1790085,44.444906 27.4744489,45.7231107 25.4547981,45.7231107 C23.4351474,45.7231107 21.7305878,44.444906 21.1930964,42.6957227 C21.506734,42.0013583 22.2052953,41.5181446 23.0167172,41.5181446 L27.892879,41.5181446 C28.704301,41.5181446 29.4028623,42.0013583 29.7164998,42.6957227 Z"/>
  </g>
</svg>
