<svg xmlns="http://www.w3.org/2000/svg" xmlns:xlink="http://www.w3.org/1999/xlink" width="58" height="58" viewBox="0 0 58 58">
  <defs>
    <path id="settings-icon-a" d="M1.6543223,0.0784843566 C0.799974563,0.0784843566 0.107516188,0.771065748 0.107516188,1.6255365 L0.107516188,12.2938733 C0.107516188,17.5327656 4.35305242,21.779532 9.5909606,21.779532 C14.8286228,21.779532 19.074159,17.5327656 19.074159,12.2938733 L19.074159,1.6255365 C19.074159,0.771065748 18.3819466,0.0784843566 17.5272299,0.0784843566 L1.6543223,0.0784843566 Z"/>
    <path id="settings-icon-c" d="M0.107516188,0.118833681 L0.107516188,8.41972305 C0.107516188,13.0804391 4.35305242,16.8587596 9.5909606,16.8587596 C14.8286228,16.8587596 19.074159,13.0804391 19.074159,8.41972305 L19.074159,0.118833681 L0.107516188,0.118833681 Z"/>
    <path id="settings-icon-e" d="M0.722597352,0.0193135486 L19.6892402,0.0193135486 C20.0835072,0.0193135486 20.4037184,0.339032738 20.4037184,0.733914846 L20.4037184,9.03480421 C20.4037184,14.0822833 15.8294828,18.1884421 10.2060418,18.1884421 C4.58260071,18.1884421 0.00824208761,14.0822833 0.00824208761,9.03480421 L0.00824208761,0.733914846 C0.00824208761,0.339032738 0.328453342,0.0193135486 0.722597352,0.0193135486 Z M1.43695262,9.03480421 C1.43695262,13.2943643 5.3706427,16.7593625 10.2060418,16.7593625 C15.0411948,16.7593625 18.9750079,13.2943643 18.9750079,9.03480421 L18.9750079,1.44839313 L1.43695262,1.44839313 L1.43695262,9.03480421 Z"/>
    <path id="settings-icon-g" d="M0.0824208761,1.41444065 L0.0824208761,7.20161631 C0.0824208761,7.94377324 0.689505986,8.55110439 1.43178594,8.55110439 C2.17369684,8.55110439 2.78078195,7.94377324 2.78078195,7.20161631 L2.78078195,1.41444065 C2.78078195,0.672406729 2.17369684,0.064952571 1.43178594,0.064952571 C0.689505986,0.064952571 0.0824208761,0.672406729 0.0824208761,1.41444065 Z"/>
  </defs>
  <g fill="none" fill-rule="evenodd">
    <rect width="58" height="58" fill="#666" rx="8"/>
    <g transform="translate(17 17)">
      <g transform="translate(.615 .776)">
        <mask id="settings-icon-b" fill="#fff">
          <use xlink:href="#settings-icon-a"/>
        </mask>
        <polygon fill="#FFF" points="-1.218 23.105 20.4 23.105 20.4 -1.247 -1.218 -1.247" mask="url(#settings-icon-b)"/>
      </g>
      <g transform="translate(.615 5.697)">
        <mask id="settings-icon-d" fill="#fff">
          <use xlink:href="#settings-icon-c"/>
        </mask>
        <polygon fill="#E32E44" points="-1.218 18.184 20.4 18.184 20.4 -1.206 -1.218 -1.206" mask="url(#settings-icon-d)"/>
      </g>
      <g transform="translate(0 5.082)">
        <mask id="settings-icon-f" fill="#fff">
          <use xlink:href="#settings-icon-e"/>
        </mask>
        <polygon fill="#2E2D30" points="-1.317 19.514 21.729 19.514 21.729 -1.306 -1.317 -1.306" mask="url(#settings-icon-f)"/>
      </g>
      <g transform="translate(26.572 10.248)">
        <mask id="settings-icon-h" fill="#fff">
          <use xlink:href="#settings-icon-g"/>
        </mask>
        <polygon fill="#E32E44" points="-1.243 9.876 4.106 9.876 4.106 -1.26 -1.243 -1.26" mask="url(#settings-icon-h)"/>
      </g>
      <g stroke="#141414" transform="translate(0 1)">
        <path stroke-linecap="round" d="M28,6.7434082 C28,10.7197663 28,16.6843034 28,24.6370195 C28,29.2557661 23.9705627,33 19,33 C14.0294373,33 10,29.2557661 10,24.6370195 L10,10.7572486"/>
        <rect width="4" height="5.6" x="8" y="19" fill="#FFF" rx="2"/>
        <path fill="#FFF" d="M2,0 L18,0 C19.1045695,-2.02906125e-16 20,0.8954305 20,2 L20,12 C20,17.5228475 15.5228475,22 10,22 L10,22 C4.4771525,22 6.76353751e-16,17.5228475 0,12 L0,2 C-1.3527075e-16,0.8954305 0.8954305,2.02906125e-16 2,0 Z"/>
      </g>
      <g transform="translate(8 10)">
        <path fill="#FF4500" stroke="#141414" d="M2.77732956,-0.176819573 C3.9599562,1.47431391 4.79721923,2.93192149 4.7970305,3.84815126 C4.7970305,5.3109062 3.61119559,6.49666651 2.14831957,6.49666651 C0.685625166,6.49666651 -0.5,5.31089215 -0.5,3.84815126 C-0.5,2.93174092 0.339042241,1.47069983 1.51961508,-0.176972877 C1.66497146,-0.379808577 1.89905213,-0.5 2.14851525,-0.5 C2.3978564,-0.5 2.63218381,-0.37954321 2.77732956,-0.176819571 Z M2.77732956,-0.176819571 C2.77734262,-0.176801335 2.77735567,-0.176783097 2.77736873,-0.176764859 L2.77729038,-0.176874276 C2.77730344,-0.176856042 2.7773165,-0.176837807 2.77732956,-0.176819573 Z"/>
        <path fill="#FFF" d="M1.39399113 5.06427351C1.33528853 5.13432528 1.25075678 5.17032954 1.16563801 5.17032954 1.09813002 5.17032954 1.02964365 5.14723985.973680499 5.10027777.126601946 4.38684548.418940906 3.33313376.431855478 3.28832411.477643508 3.13021844.64181512 3.0392294.800899172 3.08443041.959004848 3.12982708 1.05018956 3.2947814 1.0053799 3.45249572.996183163 3.48654323.813226719 4.18490853 1.35837822 4.6437672 1.48400179 4.75001891 1.50024284 4.93825859 1.39399113 5.06427351zM1.98043013 5.65697412C1.80569205 5.65697412 1.66343608 5.51491382 1.66343608 5.33998007 1.66343608 5.16485063 1.80569205 5.02279034 1.98043013 5.02279034 2.15575524 5.02279034 2.29742418 5.16485063 2.29742418 5.33998007 2.29742418 5.5151095 2.15555956 5.65697412 1.98043013 5.65697412z"/>
      </g>
      <path fill="#FF7B00" stroke="#141414" d="M2,1 L18,1 C19.1045695,1 20,1.8954305 20,3 L20,6 L0,6 L0,3 C-1.3527075e-16,1.8954305 0.8954305,1 2,1 Z"/>
      <rect width="3" height="9" x="26.5" y="9.748" fill="#FFF" stroke="#141414" rx="1.5"/>
    </g>
  </g>
</svg>
