<svg xmlns="http://www.w3.org/2000/svg" width="34" height="32" viewBox="0 0 34 32">
  <g fill="none" fill-rule="evenodd" transform="translate(.161 .097)">
    <rect width="31.477" height="29.606" x="1.1" y="1.1" stroke="#00B4F1" stroke-width="2.2" rx=".935"/>
    <path stroke="#00B4F1" stroke-width="2" d="M18.7741935,15.0322581 L18.7741935,18.6451613 L28,18.6451613 L28,15.0322581 L18.7741935,15.0322581 Z"/>
    <rect width="22.123" height="5.284" x="5.777" y="4.842" stroke="#00B4F1" stroke-width="2.2" rx=".935"/>
    <rect width="9.226" height="3.613" x="18.774" y="22.516" stroke="#00B4F1" stroke-width="2" rx=".935"/>
    <path fill="#00B4F1" d="M5.61290323 14.0309533L13.517832 14.0309533C14.0344855 14.0309533 14.4533159 14.4497837 14.4533159 14.9664372L14.4533159 15.2954695C14.4533159 15.812123 14.0344855 16.2309533 13.517832 16.2309533L5.61290323 16.2309533C5.09624975 16.2309533 4.67741935 15.812123 4.67741935 15.2954695L4.67741935 14.9664372C4.67741935 14.4497837 5.09624975 14.0309533 5.61290323 14.0309533zM5.61290323 19.4732331L13.517832 19.4732331C14.0344855 19.4732331 14.4533159 19.8920635 14.4533159 20.408717L14.4533159 20.7377493C14.4533159 21.2544028 14.0344855 21.6732332 13.517832 21.6732332L5.61290323 21.6732332C5.09624975 21.6732332 4.67741935 21.2544028 4.67741935 20.7377493L4.67741935 20.408717C4.67741935 19.8920635 5.09624975 19.4732331 5.61290323 19.4732331zM5.61290323 24.9227501L13.517832 24.9227501C14.0344855 24.9227501 14.4533159 25.3415805 14.4533159 25.8582339L14.4533159 26.1872662C14.4533159 26.7039197 14.0344855 27.1227501 13.517832 27.1227501L5.61290323 27.1227501C5.09624975 27.1227501 4.67741935 26.7039197 4.67741935 26.1872662L4.67741935 25.8582339C4.67741935 25.3415805 5.09624975 24.9227501 5.61290323 24.9227501z"/>
  </g>
</svg>
