<svg xmlns="http://www.w3.org/2000/svg" width="37" height="32" viewBox="0 0 37 32">
  <g fill="none" fill-rule="evenodd" transform="translate(1.694 .161)">
    <g stroke="#00B4F1" stroke-width="2.245" transform="translate(15.502 6.692)">
      <ellipse cx="9.088" cy="6.38" rx="6.361" ry="6.38"/>
      <path d="M18.1751152,21.8759305 C18.1751152,16.841871 14.1064771,12.7609595 9.0875576,12.7609595 C4.06863813,12.7609595 0,16.841871 0,21.8759305"/>
    </g>
    <g stroke="#00B4F1" stroke-width="2.245" transform="translate(0 6.692)">
      <ellipse cx="9.088" cy="6.38" rx="6.361" ry="6.38"/>
      <path d="M18.1751152,21.8759305 C18.1751152,16.841871 14.1064771,12.7609595 9.0875576,12.7609595 C4.06863813,12.7609595 0,16.841871 0,21.8759305"/>
    </g>
    <ellipse cx="16.839" cy="11.298" fill="#FFF" rx="11.146" ry="11.298"/>
    <path fill="#FFF" d="M30.8709677,30.8709677 C30.8709677,22.8663456 24.468846,16.3773172 16.5714286,16.3773172 C8.67401116,16.3773172 2.2718894,22.8663456 2.2718894,30.8709677 C9.60756668,30.8709677 21.1151242,30.8709677 30.8709677,30.8709677 Z"/>
    <g stroke="#00B4F1" stroke-width="2.245" transform="translate(5.48 3.238)">
      <ellipse cx="11.359" cy="8.06" rx="7.952" ry="8.06"/>
      <path d="M22.718894,27.6327543 C22.718894,21.2739423 17.6330964,16.1191067 11.359447,16.1191067 C5.08579766,16.1191067 0,21.2739423 0,27.6327543"/>
    </g>
  </g>
</svg>
