<svg xmlns="http://www.w3.org/2000/svg" width="20" height="20" viewBox="0 0 20 20">
  <g fill="none" fill-rule="evenodd" transform="translate(-12 -183)">
    <rect width="351" height="215" rx="4"/>
    <g stroke="#333" stroke-width="2" transform="translate(15 189)">
      <path d="M7,9 C9.57732883,9 11.9106622,7.5 14,4.5 C11.9106622,1.5 9.57732883,0 7,0 C4.42267117,0 2.08933783,1.5 0,4.5 C2.08933783,7.5 4.42267117,9 7,9 Z"/>
      <path d="M7,6.21368652 C7.95981318,6.21368652 8.73789551,5.4356042 8.73789551,4.47579101 C8.73789551,3.51597783 7.95981318,2.73789551 7,2.73789551 C6.04018682,2.73789551 5.26210449,3.51597783 5.26210449,4.47579101 C5.26210449,5.4356042 6.04018682,6.21368652 7,6.21368652 Z"/>
    </g>
  </g>
</svg>
