<svg xmlns="http://www.w3.org/2000/svg" width="32" height="32" viewBox="0 0 32 32">
  <path fill="#FFF" fill-rule="evenodd" d="M28,28 L28,16 C28,14.8954305 28.8954305,14 30,14 C31.1045695,14 32,14.8954305 32,16 L32,28 L44,28 C45.1045695,28 46,28.8954305 46,30 C46,31.1045695 45.1045695,32 44,32 L32,32 L32,44 C32,45.1045695 31.1045695,46 30,46 C28.8954305,46 28,45.1045695 28,44 L28,32 L16,32 C14.8954305,32 14,31.1045695 14,30 C14,28.8954305 14.8954305,28 16,28 L28,28 Z" transform="translate(-14 -14)"/>
</svg>
