<svg xmlns="http://www.w3.org/2000/svg" width="24" height="24" viewBox="0 0 24 24">
  <path fill="#FFF" fill-rule="evenodd" d="M31,31 L31,19 C31,17.8954305 31.8954305,17 33,17 C34.1045695,17 35,17.8954305 35,19 L35,31 L47,31 C48.1045695,31 49,31.8954305 49,33 C49,34.1045695 48.1045695,35 47,35 L35,35 L35,47 C35,48.1045695 34.1045695,49 33,49 C31.8954305,49 31,48.1045695 31,47 L31,35 L19,35 C17.8954305,35 17,34.1045695 17,33 C17,31.8954305 17.8954305,31 19,31 L31,31 Z" transform="rotate(45 47.85 -2.85)"/>
</svg>
