<svg xmlns="http://www.w3.org/2000/svg" width="56" height="56" viewBox="0 0 56 56">
  <g fill="none" fill-rule="evenodd">
    <circle cx="28" cy="28" r="28" fill="#6BCE81"/>
    <g transform="translate(13.391 12.174)">
      <path stroke="#FFF" stroke-width="2.435" d="M25.196043,0.011790703 L4.02134835,0.011790703 C1.81241152,0.011790703 0.0196512071,1.80912442 0.0196512071,4.01348785 L0.0196512071,26.1943235 C0.0196512071,28.398687 1.81241152,30.1960206 4.02134835,30.1960206 L25.196043,30.1960206 C27.4004064,30.1960206 29.1977401,28.4032603 29.1977401,26.1943235 L29.1977401,4.01348785 C29.1977401,1.80912439 27.4049798,0.011790703 25.196043,0.011790703 Z"/>
      <path fill="#FFF" fill-rule="nonzero" d="M24.8850539,7.5121145 C24.674679,7.3977803 19.6897077,4.65833276 14.5858288,4.65833276 C9.48194992,4.65833276 4.50155199,7.3977803 4.29117708,7.5121145 C3.87957393,7.74078289 3.71035932,8.24385342 3.89329404,8.67375001 L6.28516559,14.225819 C6.38577968,14.4636341 6.58700788,14.6465689 6.83396976,14.7288895 C6.93001051,14.7609031 7.03062459,14.7791965 7.12666534,14.7791965 C7.28215987,14.7791965 7.43765437,14.7380362 7.57485542,14.660289 C7.60229564,14.6419955 10.5063844,13.0413166 14.5904022,13.0413166 C18.6286863,13.0413166 21.5556419,14.6328487 21.605949,14.660289 C21.830044,14.7883433 22.0998727,14.8112101 22.3468346,14.7288895 C22.5937965,14.6465689 22.7904513,14.4636341 22.8956388,14.225819 L25.2875103,8.67375001 C25.4658717,8.24385342 25.2966571,7.74078289 24.8850539,7.5121145 Z M21.5876555,12.6342869 C20.3071124,12.0854827 17.7734664,11.2165427 14.5904022,11.2165427 C13.9364105,11.2165427 13.3098591,11.2531297 12.7153212,11.3171568 L11.7869275,8.23013331 C11.6405797,7.74535626 11.1329359,7.4709542 10.6481588,7.61730199 C10.1633818,7.76364978 9.8889797,8.27129364 10.0353275,8.75607065 L10.8951207,11.605279 C9.46365644,11.9071213 8.32488778,12.3232978 7.59314886,12.6342869 L5.91929612,8.74235054 C7.42850763,8.01518499 11.0414685,6.48768004 14.5858288,6.48768004 C18.1301891,6.48768004 21.7477233,8.01518499 23.2569349,8.73777717 L21.5876555,12.6342869 Z"/>
      <path fill="#FFF" stroke="#FFF" stroke-width="2.435" d="M7.06086957,18.7478261 L7.06086957,25.0782609 L22.1565217,25.0782609 L22.1565217,18.7478261 L7.06086957,18.7478261 Z"/>
    </g>
  </g>
</svg>
