<?xml version="1.0" encoding="UTF-8"?>
<svg width="80px" height="80px" viewBox="0 0 80 80" version="1.1" xmlns="http://www.w3.org/2000/svg" xmlns:xlink="http://www.w3.org/1999/xlink">
    <!-- Generator: Sketch 50.2 (55047) - http://www.bohemiancoding.com/sketch -->
    <title>Group 19</title>
    <desc>Created with Sketch.</desc>
    <defs>
        <linearGradient x1="0%" y1="100%" x2="100%" y2="0%" id="linearGradient-1">
            <stop stop-color="#96DDFF" offset="0%"></stop>
            <stop stop-color="#69BAF9" offset="100%"></stop>
        </linearGradient>
    </defs>
    <g id="Page-1" stroke="none" stroke-width="1" fill="none" fill-rule="evenodd">
        <g id="1_1_Elder's-Home-Page-(shanyuan)" transform="translate(-148.000000, -421.000000)">
            <g id="booking" transform="translate(148.000000, 421.000000)">
                <g id="Group-19">
                    <rect id="Rectangle-11-Copy" fill="url(#linearGradient-1)" x="0" y="0" width="80" height="80" rx="8"></rect>
                    <g id="telephone" transform="translate(20.000000, 16.000000)">
                        <path d="M5.65324366,48.6936064 L41.1796648,48.6936064 C43.0538132,48.6936064 44.566647,47.2174083 44.5707268,45.4121036 L44.5707268,4.98032413 C44.5707268,3.17018077 43.0600485,1.69360638 41.1850003,1.69360638 L11.9788363,1.69360638 C10.1037881,1.69360638 8.59310977,3.17018077 8.59310977,4.98032413 L8.59310977,46.3590886 L5.65324366,48.6936064 Z" id="Shape" stroke="#333333" stroke-width="2" fill="#FAFCFB" fill-rule="nonzero"></path>
                        <path d="M15.5268997,13.6533748 C15.5268997,14.8025795 16.4585141,15.7341939 17.6077188,15.7341939 C18.7569235,15.7341939 19.6885379,14.8025795 19.6885379,13.6533748 C19.6885379,12.5041701 18.7569235,11.5725557 17.6077188,11.5725557 C16.4585141,11.5725557 15.5268997,12.5041701 15.5268997,13.6533748 Z" id="Shape" fill="#0F0F0F" fill-rule="nonzero"></path>
                        <path d="M32.4295536,13.6533748 C32.4295536,14.8025795 33.3611681,15.7341939 34.5103727,15.7341939 C35.6595774,15.7341939 36.5911919,14.8025795 36.5911919,13.6533748 C36.5911919,12.5041701 35.6595774,11.5725557 34.5103727,11.5725557 C33.3611681,11.5725557 32.4295536,12.5041701 32.4295536,13.6533748 Z" id="Shape" fill="#0F0F0F" fill-rule="nonzero"></path>
                        <path d="M30.9036196,18.0337659 C30.9036196,20.7014827 28.7214272,22.8783397 26.0590458,22.8783397 C23.3913289,22.8783397 21.214472,20.6961473 21.214472,18.0337659" id="Shape" fill="#FAFCFB" fill-rule="nonzero"></path>
                        <path d="M26.0590458,23.5612752 C23.0125131,23.5612752 20.5315365,21.0802985 20.5315365,18.0337659 C20.5315365,17.6602855 20.8356562,17.3561658 21.2091365,17.3561658 C21.5826169,17.3561658 21.8867366,17.6602855 21.8867366,18.0337659 C21.8867366,20.3333378 23.7541384,22.2007396 26.0537103,22.2007396 C28.3532823,22.2007396 30.220684,20.3333378 30.220684,18.0337659 C30.220684,17.6602855 30.5248038,17.3561658 30.8982841,17.3561658 C31.2717645,17.3561658 31.5758842,17.6602855 31.5758842,18.0337659 C31.5865551,21.0856339 29.1055784,23.5612752 26.0590458,23.5612752 Z" id="Shape" fill="#141414" fill-rule="nonzero"></path>
                        <path d="M12.988102,30.5 L24.0113455,30.5" id="Line-6" stroke="#333333" stroke-width="2" stroke-linecap="round"></path>
                        <path d="M12.988102,35.5 L24.0113455,35.5" id="Line-6-Copy" stroke="#333333" stroke-width="2" stroke-linecap="round"></path>
                        <path d="M12.988102,42.5 L24.0113455,42.5" id="Line-6-Copy-2" stroke="#333333" stroke-width="2" stroke-linecap="round"></path>
                        <path d="M28.988102,42.5 L40.0113455,42.5" id="Line-6-Copy-3" stroke="#333333" stroke-width="2" stroke-linecap="round"></path>
                        <path d="M37.7916645,37.9509398 L31.0103282,37.9509398 C30.183336,37.9509398 29.5164068,37.2840106 29.5164068,36.4570184 L29.5164068,31.5110714 C29.5164068,30.6840791 30.183336,30.0171499 31.0103282,30.0171499 L37.7969999,30.0171499 C38.6239921,30.0171499 39.2909213,30.6840791 39.2909213,31.5110714 L39.2909213,36.4570184 C39.2909213,37.2840106 38.6186567,37.9509398 37.7916645,37.9509398 Z" id="Shape" stroke="#333333" stroke-width="2" fill="#FECC85" fill-rule="nonzero"></path>
                        <path d="M8.59310977,9.52602304 L3.43068386,9.52602304 C2.46617968,9.52602304 1.69894181,10.2696935 1.69894181,11.1738535 L1.69894181,45.3629302 C1.69894181,47.1048803 3.1651215,48.526023 4.99396593,48.526023 L5.29808565,48.526023 C7.12362316,48.526023 8.59310977,47.1028966 8.59310977,45.3629302 L8.59310977,9.52602304 Z" id="Shape" stroke="#333333" stroke-width="2" fill="#FFFFFF" fill-rule="nonzero"></path>
                    </g>
                </g>
            </g>
        </g>
    </g>
</svg>