<?xml version="1.0" encoding="UTF-8"?>
<svg width="80px" height="80px" viewBox="0 0 80 80" version="1.1" xmlns="http://www.w3.org/2000/svg" xmlns:xlink="http://www.w3.org/1999/xlink">
    <!-- Generator: Sketch 50.2 (55047) - http://www.bohemiancoding.com/sketch -->
    <title>Group 23</title>
    <desc>Created with Sketch.</desc>
    <defs>
        <linearGradient x1="50%" y1="0%" x2="50%" y2="100%" id="linearGradient-1">
            <stop stop-color="#B4EC51" offset="0%"></stop>
            <stop stop-color="#85B732" offset="100%"></stop>
        </linearGradient>
        <polygon id="path-2" points="6.66079605e-16 10.1039 6.66079605e-16 0.1039 9.9996 0.1039 9.9996 10.1039 0 10.1039"></polygon>
    </defs>
    <g id="Page-1" stroke="none" stroke-width="1" fill="none" fill-rule="evenodd">
        <g id="1_1_Elder's-Home-Page-(shanyuan)" transform="translate(-268.000000, -285.000000)">
            <g id="cleaning" transform="translate(268.000000, 285.000000)">
                <g id="Group-23">
                    <rect id="Rectangle-11-Copy-2" fill="url(#linearGradient-1)" x="0" y="0" width="80" height="80" rx="8"></rect>
                    <g id="Page-1" transform="translate(14.000000, 16.000000)">
                        <rect id="Rectangle-2" stroke="#333333" stroke-width="2" fill="#FFFFFF" transform="translate(37.973145, 18.692871) rotate(44.000000) translate(-37.973145, -18.692871) " x="35.9731445" y="-1.80712891" width="4" height="41" rx="2"></rect>
                        <g id="Group-3" transform="translate(0.000000, 22.895600)">
                            <path d="M26.2247484,0.372135484 C25.3561032,0.372135484 24.5379097,0.71103871 23.9226194,1.32632903 L22.4101677,2.83878065 C20.3592,4.88974839 17.2322968,5.92949032 13.1128129,5.92949032 C8.49539355,5.92949032 4.35836129,4.57936129 4.3155871,4.5662 L0.000877419355,3.13929677 L1.56707097,7.40465161 C1.61642581,7.54284516 2.76803871,10.6324581 5.46610323,14.5731677 L5.38494194,14.5852323 L6.33365161,15.7993613 L6.59139355,16.1591032 L6.61552258,16.1612968 L7.71339355,17.5651677 C9.11945806,19.3649742 11.0124903,21.2722645 13.1841032,23.0786516 L14.1876516,23.9132968 L14.2655226,23.8825871 L15.3162323,24.7106516 C17.1368774,26.1485226 19.0869419,27.1630387 20.9229419,28.0448452 C21.7159097,28.4221355 22.4419742,28.7412968 23.1515871,29.0231677 L24.6377161,29.6132323 L25.653329,28.3793613 C25.7125548,28.308071 26.2543613,27.6434258 26.9935871,26.5071677 C28.2011355,24.6547161 29.8473935,21.7022 30.8257161,18.1749742 C31.2753935,16.5188452 31.5408129,14.9032968 31.6175871,13.362329 C31.671329,12.3807161 31.6482968,11.4034903 31.5517806,10.4482 L32.2986839,9.70129677 C32.9139742,9.08600645 33.2528774,8.2678129 33.2528774,7.39916774 C33.2528774,6.52942581 32.9139742,5.71232903 32.2975871,5.09703871 L28.5279742,1.32632903 C27.9126839,0.71103871 27.0944903,0.372135484 26.2247484,0.372135484" id="Path" fill="#333333"></path>
                            <path d="M26.9771355,2.87716774 L30.7467484,6.64897419 C31.1624258,7.06355484 31.1624258,7.73478065 30.7467484,8.15045806 L29.2342968,9.66290968 C29.4372,10.866071 29.4909419,12.0812968 29.4262323,13.2526516 C29.3527484,14.7552323 29.0851355,16.2139419 28.713329,17.5882 C27.7975226,20.8905871 26.231329,23.6599419 25.1542968,25.3116839 C24.4622323,26.3777484 23.9621032,26.9853613 23.9621032,26.9853613 C23.2371355,26.6969097 22.545071,26.3876194 21.8738452,26.0684581 C19.9665548,25.1526516 18.2533935,24.2357484 16.6751355,22.9898129 C18.8379742,21.6155548 20.7979097,19.8157484 22.0230065,17.5037484 C22.2467484,17.0672323 22.4496516,16.6087806 22.6196516,16.1283935 C22.3103613,16.4815548 21.9802323,16.8105871 21.6501032,17.1297484 C19.5618452,19.0699419 16.9624903,20.4442 14.5868774,21.3918129 C12.563329,19.7082645 10.7799742,17.9271032 9.44190968,16.2139419 C12.0939097,15.8311677 14.7152,14.9153613 16.7815226,13.0508452 C14.6439097,13.8679419 12.3055871,14.1465226 10.0868129,14.1465226 C9.29713548,14.1465226 8.52390968,14.110329 7.78029677,14.0522 C4.83984516,9.95026452 3.62571613,6.64897419 3.62571613,6.64897419 C3.62571613,6.64897419 8.05449032,8.12303871 13.1128129,8.12303871 C16.9087484,8.12303871 21.0578452,7.29387742 23.9621032,4.38961935 L25.4734581,2.87716774 C25.6818452,2.66987742 25.9538452,2.56568387 26.2247484,2.56568387 C26.4967484,2.56568387 26.7687484,2.66987742 26.9771355,2.87716774 Z" id="Path" fill="#FFFFFF"></path>
                            <path d="M29.33676,10.3722939 C29.3081965,10.1356497 29.2741194,9.89904732 29.2342968,9.66290968 L30.7467484,8.15045806 C31.1624258,7.73478065 31.1624258,7.06355484 30.7467484,6.64897419 L26.9771355,2.87716774 C26.7687484,2.66987742 26.4967484,2.56568387 26.2247484,2.56568387 C25.9538452,2.56568387 25.6818452,2.66987742 25.4734581,2.87716774 L23.9621032,4.38961935 C23.8602539,4.49146872 23.7568735,4.59076606 23.6520312,4.68756512 L29.33676,10.3722939 Z" id="Combined-Shape" fill="#F5A623"></path>
                            <path d="M23.5,3.5 L30.5,10.5" id="Line-2" stroke="#333333" stroke-width="2" stroke-linecap="square"></path>
                        </g>
                        <g id="Group-10" transform="translate(7.000000, 0.895600)">
                            <path d="M3.9996,0.1039 C3.9996,2.3149 2.2096,4.1039 -0.0004,4.1039 C2.2096,4.1039 3.9996,5.8939 3.9996,8.1039 C3.9996,5.8939 5.7896,4.1039 7.9996,4.1039 C5.7896,4.1039 3.9996,2.3149 3.9996,0.1039" id="Path" fill="#333333"></path>
                            <path d="M3.9996,3.1009 C4.2856,3.4809 4.6236,3.8189 5.0036,4.1039 C4.6236,4.3899 4.2856,4.7279 3.9996,5.1079 C3.7146,4.7279 3.3766,4.3899 2.9966,4.1039 C3.3766,3.8189 3.7146,3.4809 3.9996,3.1009" id="Path" fill="#FFFFFF"></path>
                        </g>
                        <g id="Group-13" transform="translate(0.000000, 11.895600)">
                            <mask id="mask-3" fill="white">
                                <use xlink:href="#path-2"></use>
                            </mask>
                            <g id="Clip-12"></g>
                            <path d="M4.9996,0.1039 C4.9996,2.8669 2.7626,5.1039 -0.0004,5.1039 C2.7626,5.1039 4.9996,7.3419 4.9996,10.1039 C4.9996,7.3419 7.2376,5.1039 9.9996,5.1039 C7.2376,5.1039 4.9996,2.8669 4.9996,0.1039" id="Path" fill="#333333" mask="url(#mask-3)"></path>
                            <path d="M4.9996,3.4169 C5.4436,4.0859 6.0186,4.6609 6.6866,5.1039 C6.0186,5.5479 5.4436,6.1239 4.9996,6.7909 C4.5556,6.1239 3.9806,5.5479 3.3126,5.1039 C3.9806,4.6609 4.5556,4.0859 4.9996,3.4169" id="Path" fill="#FFFFFF" mask="url(#mask-3)"></path>
                        </g>
                        <path d="M22.9996,5.9995 C22.9996,8.2105 21.2096,9.9995 18.9996,9.9995 C21.2096,9.9995 22.9996,11.7895 22.9996,13.9995 C22.9996,11.7895 24.7896,9.9995 26.9996,9.9995 C24.7896,9.9995 22.9996,8.2105 22.9996,5.9995" id="Path" fill="#333333"></path>
                        <path d="M22.9996,8.9965 C23.2856,9.3765 23.6236,9.7145 24.0036,9.9995 C23.6236,10.2855 23.2856,10.6235 22.9996,11.0035 C22.7146,10.6235 22.3766,10.2855 21.9966,9.9995 C22.3766,9.7145 22.7146,9.3765 22.9996,8.9965" id="Path" fill="#FFFFFF"></path>
                    </g>
                </g>
            </g>
        </g>
    </g>
</svg>