<?xml version="1.0" encoding="UTF-8"?>
<svg width="35px" height="36px" viewBox="0 0 35 36" version="1.1" xmlns="http://www.w3.org/2000/svg" xmlns:xlink="http://www.w3.org/1999/xlink">
    <!-- Generator: Sketch 50.2 (55047) - http://www.bohemiancoding.com/sketch -->
    <title>money (1_1)</title>
    <desc>Created with Sketch.</desc>
    <defs></defs>
    <g id="Page-1" stroke="none" stroke-width="1" fill="none" fill-rule="evenodd">
        <g id="1_1_Home-page（no-coupons）-" transform="translate(-32.000000, -493.000000)" fill-rule="nonzero" stroke="#333333">
            <g id="Group" transform="translate(20.000000, 115.000000)">
                <g id="money-(1_1)" transform="translate(14.000000, 379.000000)">
                    <g id="钱袋">
                        <path d="M8.54774526,6.77414388 C8.60310245,6.77295427 8.60310245,6.77295427 8.85783184,6.76762564 C9.2018796,6.76052303 9.3910062,6.7566769 9.70383136,6.75046352 C10.5975595,6.73271215 11.5454445,6.71496109 12.5060465,6.69839226 C13.2806933,6.68503086 14.0315828,6.67300439 14.7472335,6.6626409 C18.5483674,6.60759591 20.6635383,6.60293491 21.0996016,6.68285483 C22.0550491,6.86293916 24.2193114,8.06904595 25.9985128,9.65713988 C28.6747182,12.045889 30.5851993,15.1820529 31.2974451,19.0805625 C32.4633964,25.4655336 29.9488089,29.6398331 25.1295935,31.8689519 C23.806167,32.4811003 22.4001714,32.8993946 20.9830261,33.1643242 C20.4801425,33.2583362 20.0082049,33.3266964 19.5678247,33.3750767 C19.3057562,33.4038676 18.8289261,33.4435436 18.9459009,33.4320275 C18.8321821,33.442348 18.6278502,33.4570239 18.3433362,33.4714436 C15.6006881,33.6104454 12.4385463,33.4276998 9.4066112,32.6635572 C5.03031417,31.5605932 1.80476081,29.4186302 0.314567091,25.9653274 C-2.23323448,20.0591579 -0.592620512,14.8007404 3.62851221,10.4408859 C4.59658958,9.44099398 5.6312328,8.56808514 6.66677204,7.82502437 C7.29266651,7.37590799 7.78576185,7.06650433 8.08068913,6.90137246 L8.29834832,6.77950354 L8.54774526,6.77414388 Z" id="Shape" stroke-width="2" fill="#FF4500"></path>
                        <path d="M6.83143813,8.88561873 C6.83143813,8.88561873 7.0361204,10.9685619 10.4635452,12.5137124 C13.8909699,14.0588629 19.4254181,13.8140468 21.8294314,10.9003344 C24.2294314,7.98662207 23.2421405,7.62140468 23.2421405,7.62140468 L6.83143813,8.88561873 Z" id="Shape" fill="#FFFFFF"></path>
                        <path d="M24.819398,3.42341137 C29.0133779,1.8180602 22.2307692,8.88561873 22.2307692,8.88561873 C13.3210702,14.9177258 7.08428094,8.34782609 7.08428094,8.34782609 L3.48829431,3.62006689 C3.48829431,3.62006689 15.8735786,6.85083612 24.819398,3.42341137 Z" id="Shape" fill="#FF4500"></path>
                        <path d="M3.34782609,2.55652174 C3.78929766,1.51304348 6.52240803,0.702341137 8.38862876,1.26020067 C12.7150502,2.55652174 12.5665552,1.20401338 13.4093645,0.726421405 C14.2521739,0.244816054 16.2588629,0.19264214 19.0521739,1.39665552 C21.7491639,2.55652174 23.735786,1.08361204 24.2816054,1.09565217 C28.567893,1.19197324 26.1277592,4.22207358 25.1605351,5.13712375 C22.2668896,7.86622074 19.2086957,6.0361204 19.2086957,6.0361204 C19.2086957,6.0361204 17.7117057,4.7638796 15.9137124,5.8916388 C14.0033445,7.08762542 12.3177258,8.5083612 10.2267559,6.67023411 C8.50501672,5.15317726 7.62207358,5.8916388 6.26555184,5.56655518 C5.56722408,5.39397993 2.37257525,4.85217391 3.34782609,2.55652174 Z" id="Shape" stroke-width="2" fill="#EE3E2B"></path>
                        <path d="M14.8421405,28.5591973 C14.6173913,28.5591973 14.4367893,28.3785953 14.4367893,28.1538462 L14.4367893,26.2073579 L11.7317726,26.2073579 C11.5070234,26.2073579 11.3264214,26.0267559 11.3264214,25.8020067 L11.3264214,24.4173913 C11.3264214,24.1926421 11.5070234,24.0120401 11.7317726,24.0120401 L14.4367893,24.0120401 L14.4367893,23.8555184 L11.7317726,23.8555184 C11.5070234,23.8555184 11.3264214,23.6749164 11.3264214,23.4501672 L11.3264214,22.0655518 C11.3264214,21.8408027 11.5070234,21.6602007 11.7317726,21.6602007 L13.509699,21.6602007 L10.1625418,16.322408 C10.0862876,16.1979933 10.0782609,16.0414716 10.1505017,15.9090301 C10.2227425,15.780602 10.3591973,15.7003344 10.5036789,15.7003344 L13.8869565,15.7003344 C14.0474916,15.7003344 14.1919732,15.7926421 14.2561873,15.9371237 L15.4802676,18.6421405 C15.8695652,19.49699 16.0702341,19.9505017 16.2668896,20.3879599 L16.3070234,20.4802676 C16.4595318,20.1471572 18.3137124,15.9371237 18.3137124,15.9371237 C18.3779264,15.7886288 18.5264214,15.6963211 18.6869565,15.6963211 L22.0100334,15.6963211 C22.1585284,15.6963211 22.2949833,15.7765886 22.3632107,15.9050167 C22.4354515,16.0334448 22.4314381,16.1899666 22.3511706,16.3183946 L19.0040134,21.6561873 L20.7819398,21.6561873 C21.006689,21.6561873 21.187291,21.8367893 21.187291,22.0615385 L21.187291,23.4461538 C21.187291,23.670903 21.006689,23.851505 20.7819398,23.851505 L18.1090301,23.851505 L18.1090301,24.0080268 L20.7819398,24.0080268 C21.006689,24.0080268 21.187291,24.1886288 21.187291,24.4133779 L21.187291,25.7979933 C21.187291,26.0227425 21.006689,26.2033445 20.7819398,26.2033445 L18.1090301,26.2033445 L18.1090301,28.1498328 C18.1090301,28.3745819 17.9284281,28.5551839 17.7036789,28.5551839 L14.8421405,28.5551839 L14.8421405,28.5591973 Z" id="Shape" fill="#FFFFFF"></path>
                    </g>
                </g>
            </g>
        </g>
    </g>
</svg>