<?xml version="1.0" encoding="UTF-8"?>
<svg width="153px" height="85px" viewBox="0 0 153 85" version="1.1" xmlns="http://www.w3.org/2000/svg" xmlns:xlink="http://www.w3.org/1999/xlink">
    <!-- Generator: Sketch 50.2 (55047) - http://www.bohemiancoding.com/sketch -->
    <title>9_6</title>
    <desc>Created with Sketch.</desc>
    <defs></defs>
    <g id="Page-1" stroke="none" stroke-width="1" fill="none" fill-rule="evenodd">
        <g id="9_6_order-details-details(in-prograss)-copy" transform="translate(-114.000000, -214.000000)" fill-rule="nonzero">
            <g id="Group-4" transform="translate(35.000000, 183.000000)">
                <g id="9_6" transform="translate(79.000000, 31.530612)">
                    <g id="successful" transform="translate(0.000000, -0.000000)">
                        <g id="水滴">
                            <path d="M151.924492,83.3040185 L144.891835,83.3040185 C144.399163,83.3040185 144,82.9152977 144,82.4355143 C144,81.955731 144.399163,81.5670103 144.891835,81.5670103 L151.924492,81.5670103 C152.417164,81.5670103 152.816327,81.9557311 152.816327,82.4355143 C152.816327,82.9152976 152.417163,83.3040184 151.924492,83.3040185 Z" id="Shape" fill="#333333"></path>
                            <path d="M137.455678,83.3040185 L130.870853,83.3040185 C130.389906,83.3040185 130,82.9152977 130,82.4355143 C130,81.955731 130.389906,81.5670103 130.870853,81.5670103 L137.455678,81.5670103 C137.936625,81.5670103 138.326531,81.9557311 138.326531,82.4355143 C138.326531,82.9152976 137.936625,83.3040184 137.455678,83.3040185 Z" id="Shape" fill="#333333"></path>
                            <path d="M118.42176,83.7563644 L20.843546,83.7563644 C20.1748049,83.7563644 19.6326531,83.3676436 19.6326531,82.8878602 C19.6326531,82.4080769 20.1748051,82.0193562 20.843546,82.0193562 L118.42176,82.0193562 C119.090518,82.0193562 119.632653,82.4081987 119.632653,82.8878603 C119.632653,83.3675219 119.090518,83.7563644 118.42176,83.7563644 Z" id="Shape" fill="#333333"></path>
                            <path d="M7.93412336,83.3040185 L0.882203109,83.3040185 C0.394987877,83.3040185 0,82.9152977 0,82.4355143 C0,81.955731 0.394988009,81.5670103 0.882203109,81.5670103 L7.93412336,81.5670103 C8.42135072,81.5670103 8.81632653,81.9558528 8.81632653,82.4355144 C8.81632653,82.915176 8.42135072,83.3040185 7.93412336,83.3040185 Z" id="Shape" fill="#333333"></path>
                            <path d="M17.4285714,45.3793394 C17.4285714,46.2181855 16.661406,46.8992215 15.7143545,46.8992215 C14.7670278,46.8992215 14,46.2181855 14,45.3793394 C14,44.5390288 14.7671654,43.8594572 15.7143545,43.8594572 C16.661406,43.8594572 17.4285714,44.5390286 17.4285714,45.3793394 Z" id="Shape" fill="#A5EDD8"></path>
                            <path d="M90.1636405,2.17126026 C89.48712,2.17126026 88.9387755,1.68483941 88.9387755,1.08563019 C88.9387755,0.48619914 89.4871198,1.27284988e-07 90.1636405,1.89690802e-08 C90.8400361,-0.000110896518 91.3877551,0.486199032 91.3877551,1.08563019 C91.3877551,1.68495033 90.840161,2.17126026 90.1636405,2.17126026 Z" id="Shape" fill="#A1A1A9"></path>
                            <path d="M123.714286,43.4252633 C123.714286,44.1443628 123.055969,44.7279613 122.244701,44.7279613 C121.433302,44.7279613 120.77551,44.1443628 120.77551,43.4252633 C120.77551,42.7062804 121.433302,42.1224489 122.244701,42.122449 C123.055837,42.122449 123.714286,42.7061639 123.714286,43.4252633 Z" id="Shape" fill="#A5EDD8"></path>
                            <path d="M22.0818361,25.620871 C20.326248,25.620871 18.8979592,24.3546756 18.8979592,22.7982327 C18.8979592,21.2417898 20.326248,19.9755944 22.0818361,19.9755944 C23.8372885,19.9755944 25.2653061,21.2417898 25.2653061,22.7982327 C25.2653061,24.3546756 23.8371529,25.620871 22.0818361,25.620871 Z M22.0818361,20.4960919 C20.6500207,20.4960919 19.4852802,21.5287908 19.4852802,22.7982327 C19.4852802,24.0676746 20.6501562,25.1002531 22.0818361,25.1002531 C23.5133803,25.1002531 24.677985,24.0675542 24.677985,22.7982327 C24.677985,21.5289112 23.5132447,20.496092 22.0818361,20.4960919 Z" id="Shape" fill="#4A90E2"></path>
                            <path d="M149.183877,25.620871 C147.428289,25.620871 146,24.3546756 146,22.7982327 C146,21.2417898 147.428289,19.9755944 149.183877,19.9755944 C150.939329,19.9755944 152.367347,21.2417898 152.367347,22.7982327 C152.367347,24.3546756 150.939194,25.620871 149.183877,25.620871 Z M149.183877,20.4960919 C147.752061,20.4960919 146.587321,21.5287908 146.587321,22.7982327 C146.587321,24.0676746 147.752197,25.1002531 149.183877,25.1002531 C150.615421,25.1002531 151.780026,24.0675542 151.780026,22.7982327 C151.780026,21.5289112 150.615285,20.496092 149.183877,20.4960919 Z" id="Shape-Copy-3" fill="#4A90E2"></path>
                            <path d="M114.594972,20.9165466 C113.077766,20.9165466 111.84328,19.8292169 111.84328,18.4925432 C111.84328,17.1552625 113.077766,16.0673259 114.594972,16.0673259 C116.112315,16.0673259 117.346939,17.1553839 117.346939,18.4925432 C117.346939,19.8290955 116.112315,20.9165466 114.594972,20.9165466 Z M114.594972,16.5928423 C113.406503,16.5928423 112.439856,17.445031 112.439856,18.4925432 C112.439856,19.5392057 113.406641,20.3909089 114.594972,20.3909089 C115.783578,20.3909089 116.750362,19.5392058 116.750362,18.4925432 C116.750362,17.445031 115.78344,16.5928423 114.594972,16.5928423 Z M32.5329181,36.0203164 C32.0656529,36.0203167 31.6867316,35.6867789 31.6862754,35.2750762 L31.6862754,34.529836 C31.6865313,34.3140079 31.5894307,34.106937 31.41635,33.9542096 C31.2432693,33.8014822 31.0083979,33.7156189 30.763442,33.7155223 C30.5184482,33.7156189 30.2835342,33.8014705 30.1103879,33.9541875 C29.9372415,34.1069044 29.8400489,34.3139743 29.8401951,34.529836 L29.8401951,35.2750762 C29.8397389,35.6867788 29.4608177,36.0203166 28.9935526,36.0203164 L28.1474611,36.0203164 C27.6378035,36.0203834 27.224642,36.3843616 27.2244898,36.833416 C27.2244898,37.2831822 27.6375466,37.6478511 28.1474611,37.6478511 L28.9935526,37.6478511 C29.2180074,37.6476255 29.4333568,37.7260293 29.5921609,37.8657907 C29.7509649,38.005552 29.8401953,38.1952048 29.8401951,38.3929699 L29.8401951,39.1382101 C29.8401951,39.5879763 30.2535275,39.9511884 30.763442,39.9511884 C31.008236,39.9513818 31.243069,39.865795 31.4161775,39.7132935 C31.5892859,39.560792 31.6864584,39.3538958 31.6862754,39.1382101 L31.6862754,38.3929699 C31.6862386,38.1951949 31.7754573,38.0055233 31.9342693,37.865755 C32.0930813,37.7259866 32.308452,37.6475932 32.5329181,37.6478511 L33.3785962,37.6478511 C33.8886815,37.6478511 34.3021874,37.283515 34.3021874,36.8340838 C34.3021874,36.3846525 33.8886815,36.0203164 33.3785962,36.0203164 L32.5329181,36.0203164 Z" id="Shape" fill="#F8E71C"></path>
                            <path d="M109.0226,36.2321226 C108.836442,36.2320284 108.65796,36.1662252 108.526452,36.0492022 C108.394944,35.9321793 108.321195,35.7735324 108.321443,35.6081943 L108.321443,34.9856888 C108.321478,34.8052474 108.240724,34.6321995 108.096979,34.504686 C107.953234,34.3771725 107.758298,34.3056609 107.555136,34.3059127 C107.352242,34.3059756 107.15769,34.3776376 107.014298,34.5051271 C106.870905,34.6326167 106.790424,34.8054857 106.790565,34.9856888 L106.790565,35.6081943 C106.790636,35.7736897 106.716646,35.9324249 106.584888,36.0494478 C106.45313,36.1664707 106.274407,36.2321856 106.088073,36.2321226 L105.387183,36.2321226 C105.11155,36.2288895 104.855282,36.3576406 104.716404,36.5691279 C104.577525,36.7806152 104.577525,37.0421151 104.716404,37.2536024 C104.855282,37.4650897 105.11155,37.5938408 105.387183,37.5906076 L106.088073,37.5906076 C106.274418,37.5905132 106.453162,37.656218 106.584927,37.7732477 C106.716693,37.8902775 106.790671,38.0490309 106.790565,38.214536 L106.790565,38.8370415 C106.790424,39.0172555 106.870901,39.1901367 107.01429,39.3176451 C107.157678,39.4451535 107.35223,39.5168418 107.555136,39.5169362 C107.75831,39.5171565 107.953246,39.4456184 108.096987,39.3180861 C108.240728,39.1905539 108.321478,39.0174938 108.321443,38.8370415 L108.321443,38.214536 C108.321159,38.0491882 108.394897,37.8905231 108.526413,37.7734933 C108.657928,37.6564635 108.836431,37.5906704 109.0226,37.5906076 L109.724291,37.5906076 C110.147006,37.5904768 110.489649,37.2861542 110.489796,36.910713 C110.489796,36.5363797 110.14656,36.2321226 109.724291,36.2321226 L109.0226,36.2321226 Z" id="Shape" fill="#CCCCCC"></path>
                            <path d="M113.182893,51.1108578 C112.860193,51.1108578 112.598344,50.8765791 112.598344,50.5911185 L112.598344,50.0713792 C112.598344,49.7584296 112.312182,49.5047339 111.959184,49.5047339 C111.606185,49.5047339 111.320023,49.7584296 111.320023,50.0713792 L111.320023,50.5911185 C111.320023,50.8765791 111.058175,51.1108578 110.735474,51.1108578 L110.149223,51.1108578 C109.979875,51.1105238 109.817334,51.1699305 109.697454,51.2759739 C109.577574,51.3820174 109.510204,51.5259849 109.510204,51.6761198 C109.510204,51.8263702 109.577529,51.9704667 109.697368,52.0767098 C109.817207,52.1829528 109.979744,52.2426395 110.149223,52.2426395 L110.735474,52.2426395 C111.058117,52.2430551 111.319555,52.4748314 111.320023,52.7608697 L111.320023,53.280609 C111.320023,53.5935586 111.606185,53.8472544 111.959184,53.8472544 C112.312182,53.8472544 112.598344,53.5935586 112.598344,53.280609 L112.598344,52.7608697 C112.598735,52.4748027 112.860218,52.242986 113.182893,52.2426395 L113.769145,52.2426395 C113.938635,52.2426729 114.101193,52.1829969 114.221041,52.0767466 C114.340888,51.9704963 114.408201,51.8263804 114.408163,51.6761198 C114.408126,51.5259951 114.340744,51.3820471 114.220872,51.2760109 C114.101,51.1699748 113.938481,51.1105573 113.769145,51.1108578 L113.182893,51.1108578 Z" id="Shape" fill="#F8E71C"></path>
                            <path d="M41.6327905,5.31958763 C41.4943315,5.31958738 41.3615574,5.36841134 41.2637431,5.45529457 C41.1659287,5.5421778 41.1111065,5.65998544 41.1113639,5.78274274 L41.1106715,7.81659806 C41.1106715,8.07101411 41.3448633,8.27827979 41.6333444,8.27975317 C41.9207175,8.27975317 42.1540784,8.07101411 42.1544939,7.81659806 L42.1544939,5.78274274 C42.1546469,5.52713277 41.9210947,5.31979102 41.6327905,5.31958763 Z M41.6325135,12.3486916 C41.4942593,12.3485613 41.3616092,12.3971294 41.2637449,12.4837115 C41.1658805,12.5702937 41.1108184,12.6877974 41.1106715,12.8103733 L41.1113639,14.845702 C41.1113638,14.9682541 41.1663218,15.0857778 41.2641282,15.1723776 C41.3619346,15.2589774 41.4945633,15.3075467 41.6327905,15.3073838 C41.7710641,15.3076448 41.9037713,15.2591108 42.0016236,15.1724933 C42.099476,15.0858758 42.1544293,14.9682954 42.1543554,14.845702 L42.1543554,12.8103733 C42.1543189,12.6877674 42.0992921,12.5702067 42.0014038,12.4836034 C41.9035155,12.3970001 41.7708013,12.3484634 41.6325135,12.3486916 Z M39.2724529,8.87588749 C39.4757608,9.05613985 39.8060667,9.05491196 40.0097901,8.87453679 C40.1078947,8.78790252 40.1630421,8.67019396 40.1630421,8.54743039 C40.1630421,8.42466682 40.1078947,8.30695826 40.0097901,8.22032399 L38.3873437,6.78137508 C38.1829099,6.6023937 37.8541634,6.6023937 37.6497296,6.78137508 C37.4460063,6.96310083 37.4460063,7.25656341 37.6497296,7.43558789 L39.2724529,8.87588749 Z M43.9924355,11.7524346 C43.8947702,11.665794 43.7622732,11.6171156 43.6241132,11.6171156 C43.4859531,11.6171156 43.3534561,11.665794 43.2557908,11.7524346 C43.1577288,11.839064 43.1026084,11.9567462 43.1026084,12.0794796 C43.1026084,12.202213 43.1577288,12.3198952 43.2557908,12.4065246 L44.8782371,13.8454735 C45.0823894,14.0245967 45.411145,14.0245967 45.6152973,13.8454735 C45.7133252,13.758828 45.768422,13.6411519 45.768422,13.5184285 C45.768422,13.3957052 45.7133252,13.278029 45.6152973,13.1913835 L43.9924355,11.7524346 Z M39.3379602,10.3134857 C39.3375017,10.058271 39.103977,9.85161308 38.8161183,9.85168116 L36.521842,9.85168116 C36.3835189,9.85142023 36.2507623,9.89996321 36.152862,9.9866002 C36.0549617,10.0732372 35.999963,10.1908484 36.0000001,10.3134857 C35.9999266,10.4362456 36.0548694,10.5540017 36.1527377,10.6408407 C36.250606,10.7276796 36.3833802,10.7764854 36.521842,10.776518 L38.8161183,10.776518 C38.9545913,10.776518 39.0873869,10.7277227 39.1852632,10.6408767 C39.2831395,10.5540307 39.3380704,10.4362556 39.3379602,10.3134857 Z M46.7438775,9.85168116 L44.4487702,9.85168116 C44.1611319,9.85174895 43.9279741,10.0584662 43.9278977,10.3134857 C43.9277139,10.436233 43.9825831,10.5540087 44.0804155,10.6408618 C44.1782478,10.7277149 44.3110149,10.7765181 44.4494626,10.776518 L46.743739,10.776518 C46.8821866,10.7765181 47.0149537,10.7277149 47.1127861,10.6408618 C47.2106184,10.5540087 47.2654877,10.436233 47.2653039,10.3134857 C47.2657109,10.1908121 47.2108879,10.0730659 47.1129971,9.9863683 C47.0151063,9.89967068 46.8822414,9.85118995 46.7438775,9.85168116 Z M39.2724529,11.7524346 L37.6498681,13.1913835 C37.4461619,13.3720123 37.4461619,13.6648447 37.6498681,13.8454735 C37.8533145,14.0246208 38.1838974,14.0258487 38.3874822,13.8454735 L40.0099285,12.4065246 C40.1079905,12.3198952 40.1631109,12.202213 40.1631109,12.0794796 C40.1631109,11.9567462 40.1079905,11.839064 40.0099285,11.7524346 C39.8061962,11.5720604 39.4761852,11.5720604 39.2724529,11.7524346 Z M43.9932664,8.87588749 L45.6154358,7.43558789 C45.8195746,7.25656341 45.8195746,6.96310083 45.6154358,6.78137508 C45.4112527,6.6023185 45.0825588,6.6023185 44.8783756,6.78137508 L43.2559293,8.22032399 C43.1578346,8.30723724 43.1027202,8.42515131 43.1027202,8.54810574 C43.1027202,8.67106017 43.1578346,8.78897423 43.2559293,8.87588749 C43.4596141,9.05624759 43.7895816,9.05624759 43.9932664,8.87588749 Z" id="Shape" fill="#FF7B00"></path>
                            <path d="M8.63279048,61.1752577 C8.49433145,61.1752575 8.36155745,61.2240814 8.26374308,61.3109647 C8.16592872,61.3978479 8.11110653,61.5156555 8.11136395,61.6384128 L8.11067154,63.6722682 C8.11067154,63.9266842 8.34486332,64.1339499 8.63334438,64.1354233 C8.92071751,64.1354233 9.15407837,63.9266842 9.1544939,63.6722682 L9.1544939,61.6384128 C9.15464688,61.3828029 8.92109467,61.1754611 8.63279048,61.1752577 Z M8.63251346,68.2043617 C8.49425927,68.2042314 8.36160922,68.2527995 8.26374486,68.3393816 C8.16588049,68.4259638 8.11081837,68.5434675 8.11067154,68.6660434 L8.11136395,70.7013721 C8.11136383,70.8239242 8.16632177,70.9414479 8.26412817,71.0280477 C8.36193457,71.1146475 8.49456329,71.1632169 8.63279048,71.1630539 C8.77106413,71.1633149 8.90377127,71.1147809 9.00162365,71.0281634 C9.09947602,70.9415459 9.1544293,70.8239655 9.15435539,70.7013721 L9.15435539,68.6660434 C9.15431886,68.5434375 9.09929209,68.4258768 9.00140377,68.3392735 C8.90351546,68.2526702 8.77080133,68.2041335 8.63251346,68.2043617 Z M6.27245293,64.7315576 C6.47576081,64.91181 6.80606673,64.9105821 7.00979014,64.7302069 C7.10789468,64.6435726 7.16304206,64.5258641 7.16304206,64.4031005 C7.16304206,64.2803369 7.10789468,64.1626284 7.00979014,64.0759941 L5.38734369,62.6370452 C5.1829099,62.4580638 4.85416339,62.4580638 4.6497296,62.6370452 C4.44600633,62.8187709 4.44600633,63.1122335 4.6497296,63.291258 L6.27245293,64.7315576 Z M10.9924355,67.6081047 C10.8947702,67.5214641 10.7622732,67.4727857 10.6241132,67.4727857 C10.4859531,67.4727857 10.3534561,67.5214641 10.2557908,67.6081047 C10.1577288,67.6947341 10.1026084,67.8124163 10.1026084,67.9351497 C10.1026084,68.0578831 10.1577288,68.1755653 10.2557908,68.2621947 L11.8782371,69.7011436 C12.0823894,69.8802668 12.411145,69.8802668 12.6152973,69.7011436 C12.7133252,69.6144981 12.768422,69.496822 12.768422,69.3740986 C12.768422,69.2513753 12.7133252,69.1336991 12.6152973,69.0470536 L10.9924355,67.6081047 Z M6.33796018,66.1691558 C6.33750172,65.9139411 6.10397699,65.7072832 5.81611826,65.7073513 L3.521842,65.7073513 C3.38351889,65.7070903 3.25076232,65.7556333 3.152862,65.8422703 C3.05496168,65.9289073 2.99996297,66.0465185 3.00000007,66.1691558 C2.99992662,66.2919157 3.05486939,66.4096718 3.15273772,66.4965108 C3.25060604,66.5833497 3.38338019,66.6321555 3.521842,66.6321881 L5.81611826,66.6321881 C5.95459134,66.6321881 6.08738687,66.5833928 6.18526316,66.4965468 C6.28313946,66.4097008 6.33807041,66.2919257 6.33796018,66.1691558 Z M13.7438775,65.7073513 L11.4487702,65.7073513 C11.1611319,65.7074191 10.9279741,65.9141363 10.9278977,66.1691558 C10.9277139,66.2919031 10.9825831,66.4096788 11.0804155,66.4965319 C11.1782478,66.583385 11.3110149,66.6321882 11.4494626,66.6321881 L13.743739,66.6321881 C13.8821866,66.6321882 14.0149537,66.583385 14.1127861,66.4965319 C14.2106184,66.4096788 14.2654877,66.2919031 14.2653039,66.1691558 C14.2657109,66.0464822 14.2108879,65.928736 14.1129971,65.8420384 C14.0151063,65.7553408 13.8822414,65.70686 13.7438775,65.7073513 Z M6.27245293,67.6081047 L4.64986811,69.0470536 C4.44616188,69.2276824 4.44616188,69.5205148 4.64986811,69.7011436 C4.8533145,69.8802909 5.18389744,69.8815188 5.3874822,69.7011436 L7.00992851,68.2621947 C7.10799054,68.1755653 7.16311092,68.0578831 7.16311092,67.9351497 C7.16311092,67.8124163 7.10799054,67.6947341 7.00992851,67.6081047 C6.80619622,67.4277305 6.47618521,67.4277305 6.27245293,67.6081047 Z M10.9932664,64.7315576 L12.6154358,63.291258 C12.8195746,63.1122335 12.8195746,62.8187709 12.6154358,62.6370452 C12.4112527,62.4579886 12.0825588,62.4579886 11.8783756,62.6370452 L10.2559293,64.0759941 C10.1578346,64.1629073 10.1027202,64.2808214 10.1027202,64.4037758 C10.1027202,64.5267303 10.1578346,64.6446443 10.2559293,64.7315576 C10.4596141,64.9119177 10.7895816,64.9119177 10.9932664,64.7315576 Z" id="Shape-Copy-2" fill="#FF7B00"></path>
                            <path d="M86.4899154,17.3700821 C86.3695163,17.3700818 86.2540606,17.4125375 86.1690046,17.4880881 C86.0839487,17.5636387 86.0362772,17.6660802 86.036501,17.7728256 L86.0358989,19.5413955 C86.0358989,19.7626268 86.239544,19.9428578 86.4903971,19.944139 C86.7402867,19.944139 86.9432092,19.7626268 86.9435706,19.5413955 L86.9435706,17.7728256 C86.9437036,17.5505561 86.7406147,17.3702589 86.4899154,17.3700821 Z M86.4896745,23.4823464 C86.3694535,23.482233 86.2541056,23.5244662 86.1690062,23.599755 C86.0839067,23.6750438 86.0360266,23.777221 86.0358989,23.8838087 L86.036501,25.6536598 C86.0365009,25.7602268 86.0842904,25.8624213 86.1693395,25.9377255 C86.2543885,26.0130297 86.3697179,26.0552639 86.4899154,26.0551222 C86.6101534,26.0553491 86.7255509,26.0131457 86.8106399,25.9378261 C86.8957289,25.8625065 86.9435144,25.7602628 86.9434501,25.6536598 L86.9434501,23.8838087 C86.9434183,23.7771949 86.895569,23.6749682 86.8104487,23.599661 C86.7253284,23.5243537 86.6099248,23.4821479 86.4896745,23.4823464 Z M84.437448,20.4625167 C84.6142374,20.6192579 84.90146,20.6181902 85.0786108,20.4613422 C85.1639191,20.386008 85.2118733,20.2836528 85.2118733,20.1769018 C85.2118733,20.0701509 85.1639191,19.9677956 85.0786108,19.8924615 L83.6677878,18.6412016 C83.4900193,18.4855656 83.2041527,18.4855656 83.0263842,18.6412016 C82.8492335,18.799224 82.8492335,19.0544088 83.0263842,19.2100823 L84.437448,20.4625167 Z M88.5417806,22.963862 C88.4568543,22.8885224 88.3416395,22.8461933 88.2215004,22.8461933 C88.1013612,22.8461933 87.9861464,22.8885224 87.9012201,22.963862 C87.8159487,23.0391919 87.768018,23.1415243 87.768018,23.248249 C87.768018,23.3549737 87.8159487,23.457306 87.9012201,23.5326359 L89.3120429,24.7838959 C89.4895667,24.9396551 89.7754411,24.9396551 89.9529648,24.7838959 C90.0382065,24.708552 90.0861168,24.6062249 90.0861168,24.4995089 C90.0861168,24.3927929 90.0382065,24.2904658 89.9529648,24.2151219 L88.5417806,22.963862 Z M84.4944108,21.7126021 C84.4940121,21.4906763 84.2909472,21.3109738 84.0406352,21.311033 L82.0456124,21.311033 C81.9253314,21.3108061 81.8098909,21.3530173 81.7247602,21.4283539 C81.6396295,21.5036904 81.5918045,21.605961 81.5918368,21.7126021 C81.5917729,21.8193499 81.6395492,21.9217465 81.7246521,21.9972586 C81.809755,22.0727707 81.9252108,22.1152106 82.0456124,22.1152389 L84.0406352,22.1152389 C84.1610466,22.1152389 84.276521,22.0728082 84.3616308,21.9972899 C84.4467406,21.9217716 84.4945067,21.8193586 84.4944108,21.7126021 Z M90.9343389,21.311033 L88.9385934,21.311033 C88.6884732,21.3110919 88.4857273,21.490846 88.4856608,21.7126021 C88.485501,21.8193389 88.5332134,21.9217526 88.618285,21.997277 C88.7033566,22.0728014 88.8188062,22.115239 88.9391955,22.1152389 L90.9342184,22.1152389 C91.0546077,22.115239 91.1700574,22.0728014 91.255129,21.997277 C91.3402006,21.9217526 91.387913,21.8193389 91.3877531,21.7126021 C91.388107,21.6059294 91.3404349,21.5035414 91.2553125,21.4281522 C91.17019,21.352763 91.0546553,21.3106058 90.9343389,21.311033 Z M84.437448,22.963862 L83.0265047,24.2151219 C82.8493688,24.3721904 82.8493688,24.6268274 83.0265047,24.7838959 C83.2034146,24.9396761 83.490878,24.9407438 83.6679082,24.7838959 L85.0787311,23.5326359 C85.1640024,23.457306 85.2119332,23.3549737 85.2119332,23.248249 C85.2119332,23.1415243 85.1640024,23.0391919 85.0787311,22.963862 C84.9015726,22.8070149 84.6146065,22.8070149 84.437448,22.963862 Z M88.5425032,20.4625167 L89.9530853,19.2100823 C90.1305973,19.0544088 90.1305973,18.799224 89.9530853,18.6412016 C89.7755347,18.4855002 89.489714,18.4855002 89.3121634,18.6412016 L87.9013405,19.8924615 C87.8160408,19.9680382 87.7681152,20.0705722 87.7681152,20.1774891 C87.7681152,20.284406 87.8160408,20.38694 87.9013405,20.4625167 C88.0784577,20.6193516 88.365386,20.6193516 88.5425032,20.4625167 Z" id="Shape-Copy" fill="#A5EDD8"></path>
                        </g>
                    </g>
                    <g id="哭的副本" transform="translate(44.000000, 12.000000)">
                        <path d="M26.5681492,8.43961441 L25.7420399,8.95101541 C25.309316,9.22638518 24.6798994,9.10836953 24.4045297,8.63630715 C24.1291599,8.20358325 24.2471755,7.57416667 24.719238,7.29879689 L25.5453472,6.78739589 C25.9780711,6.51202612 26.6074877,6.63004176 26.8828575,7.10210415 C27.1582273,7.5741666 27.0402116,8.16424463 26.5681492,8.43961441" id="Shape" fill="#FFFFFF"></path>
                        <path d="M65.9460247,30.5478723 C65.9460247,46.9913808 52.6102607,60.3271448 36.1667522,60.3271448 C19.7232437,60.3271448 6.38747967,46.9913808 6.38747967,30.5478723 C6.34814119,14.1043638 19.6839052,0.768599733 36.1274137,0.768599733 C52.6102607,0.768599733 65.9460248,14.1043638 65.9460247,30.5478723" id="Shape" fill="#F5E435"></path>
                        <path d="M33.2557005,1.24066218 C31.8395131,1.24066218 30.5020029,1.35867776 29.1251541,1.51603189 C43.6410743,3.52229728 54.8132188,15.953275 54.8132188,31.0199347 C54.8132188,46.0865945 43.6410743,58.5175721 29.1251541,60.5238375 C30.4626644,60.7205302 31.8395132,60.7992073 33.2557005,60.7992073 C49.699209,60.7992073 63.034973,47.4634432 63.034973,31.0199347 C63.034973,14.5764262 49.699209,1.24066218 33.2557005,1.24066218" id="Shape" fill="#E6C61F"></path>
                        <path d="M22.2015716,11.0752964 L16.3401296,15.0091501 C15.5533589,15.5205511 14.5305569,15.2845199 14.0584944,14.4584106 C13.586432,13.6323014 13.8224632,12.5308223 14.5698954,12.0194213 L20.4313374,8.0855676 C21.2181082,7.5741666 22.2409102,7.81019783 22.7129725,8.63630715 C23.185035,9.46241641 22.9490038,10.5638954 22.2015716,11.0752964 M26.5681492,8.40027592 L25.7420399,8.91167686 C25.309316,9.18704663 24.6798994,9.06903099 24.4045297,8.5969686 C24.1291599,8.1642447 24.2471755,7.53482812 24.719238,7.25945834 L25.5453472,6.74805734 C25.9780711,6.47268757 26.6074877,6.59070321 26.8828575,7.06276567 C27.1582273,7.49548957 27.0008731,8.0855676 26.5681492,8.40027592" id="Shape" fill="#FFFFFF"></path>
                        <path d="M2.76833432,24.0176751 C3.3977509,24.0176751 3.9091519,23.5849512 4.10584458,22.9948731 C5.04996948,19.8084516 6.58417242,16.8187228 8.55109925,14.2223794 C9.29853148,13.238916 8.55109925,11.8620672 7.33160458,11.9407442 L7.29226603,11.9407442 C6.89888067,11.9800828 6.50549532,12.1767755 6.26946409,12.4914837 C4.10584458,15.3631969 2.453626,18.6282955 1.43082406,22.1687639 C1.11611574,23.0735502 1.78487087,24.0176751 2.76833432,24.0176751 C2.72899577,24.0176751 2.72899577,24.0176751 2.76833432,24.0176751 M61.7761398,27.3221122 C60.0845828,12.9242076 48.2830216,1.47669334 33.8457786,0.178521636 C26.1747638,-0.490233493 18.9758115,1.63404747 13.2323852,5.68591686 C12.0915676,6.51202612 12.7209842,8.32159883 14.1371715,8.24292173 L14.1765101,8.24292173 C14.4518798,8.24292173 14.6879111,8.12490615 14.8846037,8.0068905 C20.5100145,4.07303683 27.6302897,2.10610992 35.2226274,3.20758902 C47.1815427,4.97782318 56.8194842,14.4584106 58.7470725,26.4173258 C59.6518588,32.0033981 58.865088,37.3534391 56.8588227,42.034725 C56.5441144,42.7821573 56.8588227,43.6082665 57.6062549,43.9229748 L57.6455934,43.9229748 C58.3536871,44.1983446 59.1797964,43.8836363 59.4551661,43.2148812 C61.5401086,38.4549182 62.444895,33.0262001 61.7761398,27.3221122 M55.7180051,47.5814588 L55.639328,47.5027817 C55.0099115,46.9913807 54.1051251,47.1093964 53.6330627,47.7388129 C52.8856304,48.7616149 52.0595212,49.7450783 51.1547348,50.6498647 C50.6039953,51.2399427 50.6433338,52.1840676 51.2727505,52.6954686 L51.312089,52.6954686 C51.8628286,53.1675311 52.6889378,53.1281925 53.2003387,52.6167915 C54.1838022,51.5939896 55.127927,50.531849 55.9540364,49.3910315 C56.3474217,48.8402919 56.2294061,48.0535212 55.7180051,47.5814588 M46.3947719,54.5443798 C42.7756265,56.9440305 38.5270645,58.517572 34.0031327,58.9896345 C20.7460457,60.4058219 6.78086509,50.3744949 3.63378213,37.3927777 C2.965027,34.6390801 2.80767287,31.9640596 2.965027,29.3677161 C3.00436555,28.5809454 2.37494897,27.8728518 1.54883964,27.8728518 C0.801407418,27.8728518 0.171990838,28.4235913 0.132652289,29.1710235 C0.0146367089,30.823242 0.0146367089,32.5541377 0.211329386,34.2850333 C1.70619377,48.7222763 13.3504007,60.4058218 27.7876439,61.8613477 C35.2619659,62.60878 42.2642255,60.6811916 47.9683134,56.9440306 C48.676407,56.4719682 48.8337612,55.4885048 48.2830216,54.8590881 L48.2830216,54.8197496 C47.8109592,54.26901 47.0241885,54.1509944 46.3947719,54.5443798" id="Shape" fill="#3A3A3A"></path>
                        <path d="M46.9455114,56.3539525 C45.2146158,56.3539525 43.7984284,54.9377652 43.7984284,53.2068695 L43.7984284,30.2331639 C43.7984284,28.5022683 45.2146158,27.086081 46.9455114,27.086081 C48.676407,27.086081 50.0925943,28.5022683 50.0925943,30.2331639 L50.0925943,53.2068695 C50.0925943,54.9771037 48.676407,56.3539525 46.9455114,56.3539525 Z M19.8412593,56.3539525 C18.1103637,56.3539525 16.6941764,54.9377652 16.6941764,53.2068695 L16.6941764,30.2331639 C16.6941764,28.5022683 18.1103637,27.086081 19.8412593,27.086081 C21.572155,27.086081 22.9883423,28.5022683 22.9883423,30.2331639 L22.9883423,53.2068695 C22.9883423,54.9771037 21.572155,56.3539525 19.8412593,56.3539525 Z" id="Shape" fill="#8ED2EA"></path>
                        <path d="M24.3651911,27.3614508 L16.7728535,28.698961 C15.9074057,28.8563151 15.0812964,28.2662371 14.9239422,27.4007893 C14.7665881,26.5353415 15.3566661,25.7092322 16.2221139,25.551878 L23.8144516,24.2143678 C24.6798994,24.0570137 25.5060087,24.6470917 25.6633628,25.5125395 C25.820717,26.4173258 25.2306389,27.2434351 24.3651911,27.3614508 Z M49.6205319,28.7382996 L42.0281942,27.4007893 C41.1627464,27.2434352 40.5726684,26.4173258 40.7300225,25.551878 C40.8873767,24.6864302 41.713486,24.0963522 42.5789338,24.2537063 L50.1712714,25.5912166 C51.0367192,25.7485707 51.6267973,26.57468 51.4694431,27.4401278 C51.2727505,28.3055757 50.4466412,28.8563152 49.6205319,28.7382996 Z" id="Shape" fill="#5A5B5B"></path>
                        <path d="M24.6405609,61.1925926 L15.0419579,61.1925926 C14.8059266,61.1925926 14.609234,60.9958999 14.609234,60.7598687 L14.609234,57.4160931 C14.609234,57.1800618 14.8059266,56.9833692 15.0419579,56.9833692 L24.6405609,56.9833692 C24.8765921,56.9833692 25.0732848,57.1800618 25.0732848,57.4160931 L25.0732848,60.7598687 C25.0732848,60.9958999 24.8765921,61.1925926 24.6405609,61.1925926 Z" id="Shape" fill="#8ED2EA"></path>
                        <path d="M22.3982643,57.9668325 L17.2449159,57.9668325 C16.3794681,57.9668325 15.6320359,57.2587389 15.6320359,56.3539525 C15.6320359,55.4885047 16.3401296,54.7410725 17.2449159,54.7410725 L22.3982643,54.7410725 C23.2637121,54.7410725 24.0111443,55.4491662 24.0111443,56.3539525 C24.0111443,57.2587388 23.3030506,57.9668325 22.3982643,57.9668325 Z M51.7448129,61.1925926 L42.1462099,61.1925926 C41.9101787,61.1925926 41.713486,60.9958999 41.713486,60.7598687 L41.713486,57.4160931 C41.713486,57.1800618 41.9101787,56.9833692 42.1462099,56.9833692 L51.7448129,56.9833692 C51.9808441,56.9833692 52.1775368,57.1800618 52.1775368,57.4160931 L52.1775368,60.7598687 C52.1775368,60.9958999 51.9808441,61.1925926 51.7448129,61.1925926 Z" id="Shape" fill="#8ED2EA"></path>
                        <path d="M49.5025163,57.9668325 L44.3491679,57.9668325 C43.4837201,57.9668325 42.7362879,57.2587389 42.7362879,56.3539525 C42.7362879,55.4885047 43.4443816,54.7410725 44.3491679,54.7410725 L49.5025163,54.7410725 C50.3679641,54.7410725 51.1153963,55.4491662 51.1153963,56.3539525 C51.1153963,57.2587388 50.4073027,57.9668325 49.5025163,57.9668325 Z" id="Shape" fill="#8ED2EA"></path>
                        <path d="M33.0983463,48.1715368 C32.5082683,48.1715368 32.0362059,47.6994744 32.0362059,47.1093964 L32.0362059,41.0119231 C32.0362059,40.4218451 32.5082683,39.9497826 33.0983463,39.9497826 C33.6884244,39.9497826 34.1604868,40.4218451 34.1604868,41.0119231 L34.1604868,47.1093964 C34.1604868,47.6994744 33.6884244,48.1715368 33.0983463,48.1715368 Z" id="Shape" fill="#5A5B5B"></path>
                    </g>
                </g>
            </g>
        </g>
    </g>
</svg>