<?xml version="1.0" encoding="UTF-8"?>
<svg width="80px" height="80px" viewBox="0 0 80 80" version="1.1" xmlns="http://www.w3.org/2000/svg" xmlns:xlink="http://www.w3.org/1999/xlink">
    <!-- Generator: Sketch 50.2 (55047) - http://www.bohemiancoding.com/sketch -->
    <title>Rectangle 11</title>
    <desc>Created with Sketch.</desc>
    <defs>
        <linearGradient x1="50%" y1="0%" x2="50%" y2="100%" id="linearGradient-1">
            <stop stop-color="#FAD961" offset="0%"></stop>
            <stop stop-color="#F76B1C" offset="100%"></stop>
        </linearGradient>
    </defs>
    <g id="Page-1" stroke="none" stroke-width="1" fill="none" fill-rule="evenodd">
        <g id="1_1_Elder's-Home-Page-(shanyuan)" transform="translate(-26.000000, -285.000000)">
            <g id="vip" transform="translate(26.000000, 285.000000)">
                <rect id="Rectangle-11" fill="url(#linearGradient-1)" x="0" y="0" width="80" height="80" rx="8"></rect>
                <g id="皇冠_1" transform="translate(15.000000, 17.000000)">
                    <path d="M14.4535114,18.4079945 L25.3681575,5.29996816 L36.2830108,18.4079959 L46.124672,16.2746571 L41.9900789,37.5929597 L8.74644954,37.5929597 L4.61185641,16.2746571 L14.4535114,18.4079945 Z" id="Shape" stroke="#333333" stroke-width="2" fill="#FFFFFF" fill-rule="nonzero"></path>
                    <path d="M1.27724285,16.8252826 C1.27724285,19.1132784 3.13202993,20.9680655 5.42002575,20.9680655 C7.70802157,20.9680655 9.56280865,19.1132784 9.56280865,16.8252826 C9.56280865,14.5372868 7.70802157,12.6824997 5.42002575,12.6824997 C3.13202993,12.6824997 1.27724285,14.5372868 1.27724285,16.8252826 Z" id="Shape" fill="#FFFFFF" fill-rule="nonzero"></path>
                    <path d="M41.368145,16.8252826 C41.368145,19.1132784 43.222932,20.9680655 45.5109279,20.9680655 C47.7989237,20.9680655 49.6537108,19.1132784 49.6537108,16.8252826 C49.6537108,14.5372868 47.7989237,12.6824997 45.5109279,12.6824997 C43.222932,12.6824997 41.368145,14.5372868 41.368145,16.8252826 Z" id="Shape" fill="#FFFFFF" fill-rule="nonzero"></path>
                    <path d="M21.3226939,5.4664755 C21.3226939,7.75447132 23.177481,9.60925841 25.4654768,9.60925841 C27.7534726,9.60925841 29.6082597,7.75447132 29.6082597,5.4664755 C29.6082597,3.17847969 27.7534726,1.3236926 25.4654768,1.3236926 C23.177481,1.3236926 21.3226939,3.17847969 21.3226939,5.4664755 Z" id="Shape" fill="#FFFFFF" fill-rule="nonzero"></path>
                    <path d="M29.2087732,20.6193106 C27.1112698,20.6193106 25.4655763,22.9580377 25.4655763,22.9580378 C25.4655763,22.9580378 23.9132885,20.6193106 21.7214841,20.6193106 C19.5895629,20.6193106 17.8486729,22.3776084 17.7347755,24.5065455 C17.6707145,25.7092825 18.0583636,26.6246399 18.6045739,27.4535545 C19.6961987,29.1097923 24.4686504,33.0972967 25.4726389,33.0972967 C26.4974174,33.0972967 31.2272944,29.1243155 32.3260813,27.4535545 C32.8734853,26.6207604 33.2601397,25.709183 33.1956807,24.5065455 C33.0817833,22.3778074 31.3407939,20.6193106 29.2087732,20.6193106" id="Shape" fill="#ADDFFE" fill-rule="nonzero"></path>
                    <path d="M25.4651784,2.60083598 C27.0453188,2.60083598 28.3309174,3.88633517 28.3309174,5.46657498 C28.3309174,7.04681479 27.0454182,8.33211503 25.4651784,8.33211508 C23.8849386,8.33211513 22.5994394,7.04671537 22.5994394,5.46657498 C22.5994394,3.88643459 23.885038,2.60083598 25.4651784,2.60083598 Z" id="Path" fill="#000000"></path>
                    <path d="M2.55418728,16.82578 C2.55418728,15.2456396 3.83968647,13.960041 5.41992628,13.960041 C7.00016609,13.960041 8.28566528,15.2455401 8.28566533,16.82578 C8.28566538,18.4060198 7.00016614,19.69132 5.41992628,19.6913201 C3.83968642,19.6913201 2.55418728,18.4060198 2.55418728,16.82578 Z" id="Path" fill="#000000"></path>
                    <path d="M45.5106294,19.691519 C43.930489,19.691519 42.6448904,18.4061193 42.6448904,16.8259789 C42.6448903,15.2458385 43.9303896,13.9602399 45.5106294,13.9602399 C47.0907698,13.9602399 48.3763684,15.2457391 48.3763684,16.8259789 C48.3763684,18.4062187 47.0907698,19.691519 45.5106294,19.691519 Z" id="Path" fill="#000000"></path>
                    <path d="M8.84313725,37.2745098 L8.84313725,44.0784314 C8.84313725,44.6307161 9.29085251,45.0784314 9.84313725,45.0784314 L41.1372549,45.0784314 C41.6895397,45.0784314 42.1372549,44.6307161 42.1372549,44.0784314 L42.1372549,37.2745098 L8.84313725,37.2745098 Z" id="Rectangle-7" stroke="#333333" stroke-width="2" fill="#FECC85"></path>
                    <path d="M11.7647059,41.1764706 L25.9497549,41.1764706 M29.0469899,41.1764706 L29.9085838,41.1764706" id="Line-3" stroke="#333333" stroke-width="2" stroke-linecap="round"></path>
                    <circle id="Oval-4" stroke="#333333" stroke-width="2" fill="#FFFFFF" cx="4.90196078" cy="16.6666667" r="5.90196078"></circle>
                    <circle id="Oval-4-Copy" stroke="#333333" stroke-width="2" fill="#FFFFFF" cx="24.5098039" cy="4.90196078" r="5.90196078"></circle>
                    <circle id="Oval-4-Copy-2" stroke="#333333" stroke-width="2" fill="#FFFFFF" cx="45.0980392" cy="15.6862745" r="5.90196078"></circle>
                </g>
            </g>
        </g>
    </g>
</svg>