<?xml version="1.0" encoding="UTF-8"?>
<svg width="80px" height="80px" viewBox="0 0 80 80" version="1.1" xmlns="http://www.w3.org/2000/svg" xmlns:xlink="http://www.w3.org/1999/xlink">
    <!-- Generator: Sketch 50.2 (55047) - http://www.bohemiancoding.com/sketch -->
    <title>Group 22</title>
    <desc>Created with Sketch.</desc>
    <defs>
        <linearGradient x1="100%" y1="0%" x2="0%" y2="100%" id="linearGradient-1">
            <stop stop-color="#C2EBFF" offset="0%"></stop>
            <stop stop-color="#6CBCFA" offset="100%"></stop>
        </linearGradient>
    </defs>
    <g id="Page-1" stroke="none" stroke-width="1" fill="none" fill-rule="evenodd">
        <g id="1_1_Elder's-Home-Page-(shanyuan)" transform="translate(-147.000000, -285.000000)">
            <g id="nursing" transform="translate(147.000000, 285.000000)">
                <g id="Group-22">
                    <rect id="Rectangle-11-Copy" fill="url(#linearGradient-1)" x="0" y="0" width="80" height="80" rx="8"></rect>
                    <g id="Page-1" transform="translate(13.000000, 24.000000)">
                        <path d="M13.4314744,9.5106383 L40.6492557,9.5106383 L39.2474514,4.01187937 C38.7957419,2.23998997 37.1999808,1 35.3714203,1 L19.0645533,1 C17.3227071,1 15.7811106,2.12719086 15.2529035,3.78701779 L13.4314744,9.5106383 Z" id="Rectangle-8" stroke="#333333" stroke-width="2" fill="#FECC85"></path>
                        <path d="M18.5,4.5 L33.5,4.5" id="Line-5" stroke="#333333" stroke-width="2" stroke-linecap="round"></path>
                        <path d="M8.5,14.5 L13.3369555,23.2065199 M14.8986724,26.0176104 L16,28" id="Line" stroke="#333333" stroke-width="2" stroke-linecap="round"></path>
                        <path d="M2.4652302,11.8940952 C2.42284875,11.9100119 2.38159705,11.9287881 2.34175981,11.9502944 C1.85576787,12.2126589 1.67448202,12.8193216 1.9368463,13.3053132 L10.0166065,28.2718724 C11.2736136,30.6002947 13.9075238,31.8303795 16.4998087,31.2996481 C20.0458547,30.5736484 23.523545,30.2102909 26.9321122,30.2102909 C30.3862537,30.2102909 33.9718903,30.5834284 37.6886026,31.3287178 C40.3000347,31.8523722 42.9441024,30.5918274 44.1814618,28.2332826 L52.0122333,13.306962 C52.0315556,13.2701315 52.0485614,13.2321314 52.0631515,13.1931832 C52.2568937,12.6759912 51.9946865,12.0996692 51.4774895,11.9059305 C43.5424066,8.93341705 35.3624915,7.44775391 26.9321122,7.44775391 C18.5128253,7.44775391 10.3590959,8.9295063 2.4652302,11.8940952 Z" id="Rectangle-9" stroke="#333333" stroke-width="2" fill="#FFFFFF"></path>
                        <rect id="Rectangle-10" fill="#89CCFB" x="25" y="11" width="6" height="15" rx="2"></rect>
                        <rect id="Rectangle-10-Copy" fill="#89CCFB" transform="translate(27.840332, 18.623779) rotate(-270.000000) translate(-27.840332, -18.623779) " x="24.840332" y="11.1237793" width="6" height="15" rx="2"></rect>
                    </g>
                </g>
            </g>
        </g>
    </g>
</svg>