<?xml version="1.0" encoding="UTF-8"?>
<svg width="46px" height="54px" viewBox="0 0 46 54" version="1.1" xmlns="http://www.w3.org/2000/svg" xmlns:xlink="http://www.w3.org/1999/xlink">
    <!-- Generator: Sketch 50.2 (55047) - http://www.bohemiancoding.com/sketch -->
    <title>Order completed！</title>
    <desc>Created with Sketch.</desc>
    <defs></defs>
    <g id="Page-1" stroke="none" stroke-width="1" fill="none" fill-rule="evenodd">
        <g id="9_2_order-details-details(completed)" transform="translate(-287.000000, -104.000000)" fill="#FFFFFF" fill-rule="nonzero">
            <g id="Group" transform="translate(12.000000, 76.000000)">
                <g id="Order-completed！" transform="translate(275.000000, 28.000000)">
                    <path d="M15.5343558,8.73376823 C16.5646636,8.73376823 17.3995028,7.89862228 17.3995028,6.86862122 L17.3995028,6.24692601 L28.5905074,6.24692601 L28.5905074,6.86862122 C28.5905074,7.89868363 29.4253465,8.73376823 30.4556545,8.73376823 C31.4859624,8.73376823 32.3208015,7.89862228 32.3208015,6.86862122 L32.3208014,1.89481407 C32.3208014,0.864751661 31.4859623,0.0296670613 30.4556544,0.0296670613 C29.4253465,0.0296670613 28.5905074,0.864813014 28.5905074,1.89481407 L28.5905074,2.51650929 L17.3995028,2.51650929 L17.3995028,1.89481407 C17.3995028,0.864751661 16.5646637,0.0296670613 15.5343558,0.0296670613 C14.5040478,0.0296670613 13.6692087,0.864813014 13.6692087,1.89481407 L13.6692087,6.86862122 C13.6692088,7.89862228 14.5039865,8.73376823 15.5343558,8.73376823 Z M16.3378953,14.9901822 C15.3075874,14.9901822 14.4727483,15.8253282 14.4727483,16.8553292 L14.4727483,18.6749384 C14.4727483,19.7050008 15.3075874,20.5400854 16.3378953,20.5400854 C17.3682033,20.5400854 18.2030423,19.7049395 18.2030423,18.6749384 L18.2030423,16.8553292 C18.2031036,15.8252668 17.3682646,14.9901822 16.3378953,14.9901822 Z M29.6521149,14.9901822 C28.621807,14.9901822 27.7869679,15.8253282 27.7869679,16.8553292 L27.7869679,18.6749384 C27.7869679,19.7050008 28.6218069,20.5400854 29.6521149,20.5400854 C30.6824228,20.5400854 31.5172619,19.7049395 31.5172619,18.6749384 L31.5172619,16.8553292 C31.5173232,15.8252668 30.6824842,14.9901822 29.6521149,14.9901822 Z M22.9762254,28.8702488 C25.6015221,28.8702488 27.4612684,27.0600294 28.1467288,25.990505 C28.697417,25.1310559 28.4478797,23.9987483 27.5948132,23.4374428 C26.7423604,22.8749099 25.5899842,23.1144436 25.0174477,23.9595931 C25.0095308,23.9714378 24.204457,25.1398934 22.9762254,25.1398934 C21.782546,25.1398934 21.0393963,24.0579719 20.9896238,23.9829757 C20.4407768,23.1223605 19.2999385,22.8597511 18.4317132,23.4001288 C17.5567984,23.9438206 17.2878677,25.0941102 17.8318663,25.9689636 C18.5015542,27.0463436 20.3381633,28.8702488 22.9762254,28.8702488 Z M20.1292541,49.9981891 L8.28678899,49.9981891 C5.78896128,49.9981891 3.75682192,47.9162773 3.75682192,45.357753 L3.75682192,10.8779109 C3.75682192,8.31907973 5.78896128,6.23747483 8.28678899,6.23747483 C9.31709687,6.23747483 10.151936,5.40232888 10.151936,4.37232783 C10.151936,3.34232677 9.31709693,2.50718082 8.28678899,2.50718082 C3.73196639,2.50718082 0.0265279661,6.26239172 0.0265279661,10.8779723 L0.0265279661,45.3578143 C0.0265279661,49.9733949 3.73196639,53.7286058 8.28678899,53.7286058 L20.1292541,53.7286058 C21.159562,53.7286058 21.9944011,52.8937667 21.9944011,51.8634588 C21.9944011,50.8331509 21.1596234,49.9981891 20.1292541,49.9981891 Z M37.7032826,2.50711941 C36.6729747,2.50711941 35.8381356,3.34226536 35.8381356,4.37226641 C35.8381356,5.40226747 36.6729747,6.23741342 37.7032826,6.23741342 C40.2011103,6.23741342 42.2332497,8.31901838 42.2332497,10.8778495 L42.2332497,29.1713997 C42.2332497,30.2014621 43.0680888,31.0365467 44.0983967,31.0365467 C45.1287046,31.0365467 45.9635437,30.2014008 45.9635437,29.1713997 L45.9635437,10.8779109 C45.9635437,6.26233031 42.2581052,2.50711941 37.7032826,2.50711941 Z M42.7602484,35.1308975 L29.110878,49.1861189 L22.471075,42.348699 C21.7528421,41.609477 20.5725418,41.5921702 19.8336266,42.3098507 C19.0947115,43.0275313 19.0770978,44.2083839 19.7947784,44.9472991 L27.7727296,53.162636 C27.779235,53.1692641 27.7870292,53.1736216 27.793596,53.1801269 C27.8002855,53.1868164 27.8047657,53.1948561 27.8115779,53.2014843 C27.8578522,53.2464084 27.9102022,53.2801628 27.9597292,53.3192566 C28.0019529,53.3526428 28.0414763,53.3902636 28.0857866,53.4194766 C28.1476493,53.4602888 28.2136239,53.4906677 28.2788619,53.5233175 C28.3226814,53.5452885 28.3644141,53.572292 28.4095223,53.5905808 C28.4845185,53.6210212 28.5623378,53.639985 28.6399116,53.6602991 C28.678453,53.670364 28.7156442,53.6860752 28.7546152,53.6936239 C28.8722648,53.7164542 28.99151,53.728483 29.1108165,53.728483 C29.2301231,53.728483 29.3493682,53.7164542 29.4670178,53.6936239 C29.5060502,53.6860138 29.54318,53.670364 29.5817214,53.6602991 C29.6592953,53.6399851 29.7371145,53.6210212 29.8121107,53.5905808 C29.8572189,53.5722921 29.8989517,53.5452885 29.9427711,53.5233175 C30.0080091,53.4906677 30.0739838,53.4602888 30.1358464,53.4194766 C30.1801567,53.3902636 30.2196801,53.3526428 30.2619038,53.3192566 C30.3114308,53.2801628 30.3637808,53.246347 30.4100551,53.2014843 C30.4168673,53.1948562 30.4213474,53.1868165 30.428037,53.1801269 C30.4346038,53.1736216 30.442398,53.1692641 30.4489034,53.162636 L45.436422,37.7294361 C46.1541026,36.990521 46.1364889,35.809607 45.3975737,35.0919878 C44.658843,34.3746755 43.4784813,34.3913687 42.7602484,35.1308975 Z" id="Shape"></path>
                </g>
            </g>
        </g>
    </g>
</svg>