<?xml version="1.0" encoding="UTF-8"?>
<svg width="41px" height="41px" viewBox="0 0 41 41" version="1.1" xmlns="http://www.w3.org/2000/svg" xmlns:xlink="http://www.w3.org/1999/xlink">
    <!-- Generator: Sketch 50.2 (55047) - http://www.bohemiancoding.com/sketch -->
    <title>Crown</title>
    <desc>Created with Sketch.</desc>
    <defs></defs>
    <g id="Page-1" stroke="none" stroke-width="1" fill="none" fill-rule="evenodd">
        <g id="6_1_Nurse(VIP)" transform="translate(-18.000000, -208.000000)" fill="#FFC824">
            <g id="Group-6" transform="translate(15.000000, 204.000000)">
                <path d="M48.659843,19.8209728 C48.2244388,18.2167437 46.9599854,17.5188199 45.3051051,17.7583194 C43.4750303,18.0242509 42.624877,19.1700556 42.7785182,20.9686079 C42.847668,21.7800945 42.9915055,22.5201925 42.0784888,23.0574005 C39.0344011,24.8487774 36.0224187,26.6908951 32.998088,28.513683 C31.6917256,26.9076967 30.4212104,25.2720567 29.0721907,23.7026799 C28.0074036,22.4659372 26.9289213,21.4092401 28.0851597,19.5584093 C28.7816718,18.4406476 28.0269362,17.2911087 27.0273325,16.5248715 C26.0010867,15.7395242 24.8577203,15.6273526 23.7006586,16.3218351 C22.5616328,17.0042366 21.7518917,18.2269944 22.318486,19.2486928 C23.645279,21.6470555 21.9402575,22.8386953 20.7287142,24.311423 C19.6416255,25.6341981 18.5615716,26.9637093 17.4771023,28.2897792 C13.8501805,27.1420708 11.152665,24.470894 7.90921038,22.6985541 C7.15103228,22.2840612 7.47036359,21.6470555 7.50793201,21.0367749 C7.62849511,19.1122858 6.65283939,17.9211586 4.73378297,17.7111663 C3.07336466,17.530901 1.86279423,18.3655981 1.56322001,20.0099511 C1.22068908,21.872863 2.03724033,23.2392034 4.00509085,23.5399872 C5.24237822,23.7325532 5.63587348,24.3604065 5.9388903,25.4064868 C6.93018703,28.8425097 8.08335714,32.2362852 9.02054643,35.6879769 C9.35319885,36.9141029 9.78194253,37.5142793 11.1704764,37.4827219 C15.6515178,37.377799 20.1360017,37.3725273 24.6179411,37.3288887 C29.5455375,37.3777991 34.4762772,37.3622766 39.4017033,37.5107649 C40.8774976,37.5543302 41.2852119,36.8337085 41.601026,35.7121393 C42.5496654,32.3623684 43.5176128,29.0191141 44.4984323,25.6776902 C44.7947886,24.6663156 45.0564203,23.7619874 46.4538598,23.4751884 C48.3456755,23.083613 49.1628254,21.673634 48.659843,19.8209728 Z" id="Crown" transform="translate(25.146297, 26.687389) rotate(-45.000000) translate(-25.146297, -26.687389) "></path>
            </g>
        </g>
    </g>
</svg>