<?xml version="1.0" encoding="UTF-8"?>
<svg width="245px" height="199px" viewBox="0 0 245 199" version="1.1" xmlns="http://www.w3.org/2000/svg" xmlns:xlink="http://www.w3.org/1999/xlink">
    <!-- Generator: Sketch 50.2 (55047) - http://www.bohemiancoding.com/sketch -->
    <title>Cancel order successfully</title>
    <desc>Created with Sketch.</desc>
    <defs></defs>
    <g id="Page-1" stroke="none" stroke-width="1" fill="none" fill-rule="evenodd">
        <g id="10_1_Cancel-order-successfully" transform="translate(-78.000000, -202.000000)" fill-rule="nonzero">
            <g id="Cancel-order-successfully" transform="translate(78.000000, 202.000000)">
                <path d="M89.8628321,150.335289 L76.2992449,150.335289 C76.2992449,150.335289 77.0131179,149.462778 77.0131179,144.326858 C77.0131179,138.576214 73.7808596,138.060639 73.7808596,130.545143 C73.7808596,124.635861 76.0017979,122.077816 76.0017978,116.882407 C76.0017978,112.361211 74.1774557,107.919334 74.1774557,107.919334 L89.8628321,107.919334 C89.8628321,107.919334 87.4435957,125.131606 87.4435957,130.227866 C87.4435957,135.343956 89.8628321,150.335289 89.8628321,150.335289 Z M152.088763,150.335289 L141.16254,150.672396 C141.16254,150.672396 138.802793,150.870694 138.802793,145.754604 C138.802793,140.00396 141.975562,138.060639 141.975562,130.564973 C141.975562,124.655691 138.663984,121.423432 138.663984,116.228023 C138.663984,111.706827 139.814113,107.939164 139.814113,107.939164 L152.088763,107.939164 C152.088763,107.939164 154.547659,125.151436 154.547659,130.247696 C154.547659,135.343956 152.088763,150.335289 152.088763,150.335289 Z" id="Shape" fill="#EACE62"></path>
                <path d="M157.998045,77.004667 L62.0217846,77.004667 C58.1946321,77.004667 55.0813525,80.1179465 55.0813526,83.9450991 L55.0813526,149.978353 C55.0813526,153.805505 58.1946321,156.918785 62.0217846,156.918785 L67.2370236,156.918785 C67.5543004,157.890445 68.1293649,158.862106 69.0018763,159.754447 C69.2200042,159.972575 69.4777916,160.131213 69.7752388,160.210533 C78.4805236,162.471131 80.6419724,165.267133 81.1575473,166.734539 C81.7326117,168.360583 80.7807809,169.66935 80.7212915,169.748669 C80.1462271,170.482372 80.2850358,171.493692 80.9989088,172.068756 C81.7326117,172.643821 82.7637616,172.524842 83.338826,171.791139 C84.1121884,170.799649 85.2226575,168.400242 84.3303162,165.703389 C83.0810384,162.054704 78.6391619,159.159553 71.1038358,157.136913 C70.4891117,156.40321 70.2908137,155.768656 70.2908137,155.272911 L70.2908137,155.253081 C70.2908137,154.598697 70.7072397,153.924484 71.4607723,153.32959 C71.4806021,153.30976 71.5202617,153.30976 71.5202616,153.2701 C71.7383895,153.111462 71.9763472,152.952824 72.2539645,152.814015 C72.313454,152.774355 72.3729433,152.754525 72.4522625,152.714866 C72.7695394,152.556227 73.1463058,152.437249 73.5032423,152.29844 C74.0783067,152.159631 75.1292863,151.981163 76.79499,151.981163 C79.7099714,151.981163 83.1008682,152.556227 86.8883612,153.666697 C87.522915,153.944314 88.1574687,154.241761 88.7920226,154.578868 C88.9903207,154.678017 89.1886187,154.796996 89.3670869,154.896145 C90.180109,155.3324 90.9733012,155.847975 91.7863233,156.38338 C91.8458128,156.442869 91.925132,156.462699 91.9846213,156.522189 C104.715357,165.465431 103.287611,169.986627 103.30744,169.986627 C102.871185,170.799649 103.188462,171.810969 104.001484,172.247225 C104.239441,172.386033 104.517059,172.445523 104.774846,172.445523 C105.36974,172.445523 105.944805,172.128246 106.242252,171.553181 C106.777657,170.561691 108.50285,165.58441 97.9533929,156.918785 L127.420485,156.918785 C116.851198,165.60424 118.596221,170.581521 119.111796,171.573011 C119.429073,172.148076 120.023967,172.485182 120.638691,172.485182 C120.896478,172.485182 121.154266,172.425693 121.372394,172.286884 C122.185416,171.850629 122.522522,170.898798 122.086267,170.085776 C122.066437,170.046116 120.579201,165.524921 133.369426,156.542018 C134.261768,155.927294 135.154109,155.39189 136.04645,154.876315 C136.205088,154.777166 136.363727,154.697846 136.522365,154.598698 C137.176749,154.241761 137.850962,153.944314 138.505346,153.646867 C142.273009,152.536398 145.663906,151.961333 148.578887,151.961333 C150.244591,151.961333 151.295571,152.159631 151.850805,152.27861 C152.207742,152.417419 152.584508,152.536398 152.921615,152.695036 C152.981104,152.714866 153.040594,152.754526 153.100083,152.774355 C153.3777,152.913164 153.635488,153.091632 153.873446,153.250271 L153.893275,153.2701 C154.666638,153.845165 155.083064,154.519378 155.083064,155.193592 L155.083064,155.213421 C155.083064,155.709167 154.884766,156.323891 154.270042,157.057593 C146.714886,159.080234 142.273009,161.975385 141.043561,165.663729 C140.13139,168.360583 141.241859,170.759989 142.035051,171.75148 C142.610116,172.485182 143.661095,172.604161 144.374968,172.029097 C145.108671,171.454032 145.22765,170.403053 144.652586,169.68918 C144.632756,169.66935 143.661095,168.360583 144.21633,166.714709 C144.712075,165.227473 146.853694,162.411641 155.598639,160.151043 C155.896086,160.071724 156.173703,159.913085 156.372001,159.694958 C157.244513,158.782786 157.819577,157.811126 158.136854,156.839466 C161.904517,156.760146 164.938477,153.686526 164.938477,149.918863 L164.938477,83.8856096 C164.938477,80.1377763 161.825198,77.004667 157.998045,77.004667 Z M72.7497096,108.950484 L87.5625746,108.950484 C88.1772986,111.151593 89.2679378,116.743598 86.7495526,123.803009 L86.5710843,124.298754 C85.3614661,127.689651 83.8544009,131.89357 87.2056381,140.579025 C89.2481081,145.873583 87.9988303,148.887713 87.1461487,150.196481 L87.1263189,150.196481 C86.9875102,150.136991 86.8288717,150.097332 86.6900631,150.018012 C84.7070826,149.26448 82.7835914,148.788564 80.9790791,148.550607 L80.5031637,148.491117 C79.6504821,148.391968 78.8374601,148.332479 78.024438,148.332479 C77.8459697,148.332479 77.6675015,148.352309 77.4890332,148.352309 C76.8346496,148.372139 76.1802661,148.411798 75.565542,148.491117 C75.4069036,148.510947 75.2482651,148.510947 75.0896267,148.550607 C74.950818,148.570437 74.8318392,148.610096 74.7128603,148.610096 C75.2879248,145.853753 75.6845209,141.768813 73.8800085,139.05213 C71.9366876,136.117318 71.480602,127.074927 73.8403489,120.253474 C74.851669,117.298833 73.622221,111.984445 72.7497096,108.950484 Z M138.188069,140.559195 C141.539306,131.87374 140.032241,127.649991 138.802793,124.278924 L138.624325,123.803009 C136.125769,116.743598 137.196579,111.151593 137.811303,108.950484 L152.624168,108.950484 C151.751656,111.984445 150.542038,117.298833 151.553358,120.253474 C153.913105,127.094757 153.45702,136.137148 151.533529,139.05213 C149.709186,141.788643 150.105783,145.853753 150.680847,148.610096 C150.542038,148.590266 150.423059,148.550607 150.30408,148.550607 C150.204931,148.530777 150.085953,148.530777 149.966974,148.510947 C149.272931,148.411798 148.559058,148.372138 147.805525,148.352309 C147.706376,148.352309 147.607227,148.332479 147.508078,148.332479 C144.731905,148.312649 141.578966,148.867884 138.267388,150.196481 C137.394877,148.907543 136.125769,145.873583 138.188069,140.559195 Z M161.60707,149.998183 C161.60707,151.941503 160.060345,153.527888 158.136854,153.607207 C157.898896,152.972653 157.561789,152.357929 157.066044,151.782865 C157.006555,151.703546 156.927236,151.644056 156.828087,151.544907 L156.748767,151.465588 C156.51081,151.207801 156.213363,150.969843 155.935745,150.731885 C155.836596,150.672396 155.737447,150.593077 155.638298,150.513757 C155.400341,150.355119 155.142553,150.196481 154.864936,150.037842 C154.765787,149.978353 154.646808,149.899033 154.547659,149.839544 C154.507999,149.819714 154.46834,149.819714 154.42868,149.780055 C154.42868,149.780055 154.40885,149.780055 154.40885,149.760225 C153.774297,147.638436 152.822466,143.037921 154.289872,140.856642 C157.046215,136.672553 157.264342,126.519692 154.686468,119.123175 C153.992424,117.120364 155.063234,112.222402 156.094384,108.910825 L156.748767,108.910825 C157.660938,108.910825 158.414471,108.177122 158.414471,107.245121 C158.414471,106.33295 157.680768,105.579417 156.748767,105.579417 L135.173939,105.579417 C134.261768,105.579417 133.508235,106.31312 133.508235,107.245121 C133.508235,107.899505 133.885001,108.434909 134.420406,108.712527 C133.666873,111.686998 132.873681,117.53679 135.471386,124.873818 L135.649854,125.369564 C136.720663,128.383694 137.969941,131.794421 135.05496,139.309917 C132.695213,145.417497 133.944491,149.403288 135.193768,151.525078 C134.083299,152.119972 132.97283,152.774355 131.842531,153.547718 L93.551176,153.547718 C93.4520269,153.488228 93.3330481,153.428739 93.2338991,153.34942 C92.3217281,152.734696 91.409557,152.199291 90.5172157,151.683716 C90.4180667,151.624227 90.2990878,151.544907 90.180109,151.485418 C91.4293868,149.363629 92.6786646,145.377838 90.3189177,139.290087 C87.4039362,131.774591 88.6333842,128.363864 89.7041937,125.369564 L89.9024917,124.853989 C92.5001963,117.497131 91.7070041,111.647338 90.9534715,108.692697 C91.4888763,108.415079 91.8656425,107.879675 91.8656425,107.225291 C91.8656425,106.31312 91.1319397,105.559588 90.1999389,105.559588 L68.6251099,105.559588 C67.7129389,105.559588 66.9594063,106.29329 66.9594063,107.225291 C66.9594063,108.137462 67.6931091,108.890995 68.6251099,108.890995 L69.2794936,108.890995 C70.2908137,112.202572 71.3616232,117.100534 70.6874098,119.103345 C68.1888542,126.361054 68.3673225,136.732042 71.0840059,140.836812 C72.5315818,142.998261 71.5995808,147.598776 70.9650271,149.740395 C70.9253675,149.760225 70.865878,149.780055 70.8262185,149.799884 C70.6874098,149.859374 70.5882608,149.938693 70.4692819,150.037842 C70.2114944,150.176651 69.9933666,150.315459 69.7554089,150.474098 L69.438132,150.712056 C69.1605147,150.950013 68.8828975,151.168141 68.6449398,151.406099 L68.5457907,151.505248 L68.3276629,151.723376 C68.1293649,151.961333 67.9707264,152.199291 67.7922581,152.457078 C67.7922581,152.476908 67.7724282,152.476908 67.7724284,152.476908 C67.5543004,152.833845 67.3758322,153.190781 67.2370236,153.567548 L62.0019548,153.567548 C59.9991444,153.567548 58.3929301,151.941503 58.3929301,149.958523 L58.3929301,83.9649288 C58.3929301,81.9621184 60.0189742,80.3559042 62.0019548,80.3559042 L157.978215,80.3559042 C159.981026,80.3559042 161.58724,81.9819482 161.58724,83.9649288 L161.60707,149.998183 Z M106.480209,101.19703 C106.480209,100.284859 105.746507,99.5313266 104.814506,99.5313265 C99.1630111,99.5313265 94.384028,96.0412806 92.0837704,94.3755769 C91.5483656,93.9789808 91.1319398,93.6815337 90.8543224,93.5228953 C90.0611302,93.0469799 89.04981,93.3047673 88.5738947,94.0979597 C88.0979794,94.8911519 88.3557668,95.902472 89.1489591,96.3783873 C89.3869168,96.517196 89.7041937,96.7551537 90.1206196,97.0724306 C92.7183242,98.9562622 98.0723718,102.882564 104.794676,102.882564 C105.746507,102.862734 106.480209,102.109201 106.480209,101.19703 Z M130.355296,93.5228953 C130.077679,93.7013636 129.661253,93.9988106 129.106018,94.3755769 C126.80576,96.0412806 122.026777,99.5313265 116.375283,99.5313265 C115.463112,99.5313265 114.709579,100.265029 114.709579,101.19703 C114.709579,102.109201 115.443282,102.862734 116.375283,102.862734 C123.097587,102.862734 128.491294,98.9364323 131.069169,97.0724306 C131.485595,96.7551537 131.822701,96.517196 132.040829,96.3783873 C132.834021,95.902472 133.091809,94.8911519 132.615894,94.0979597 C132.159808,93.3047675 131.128658,93.0271502 130.355296,93.5228953 Z M121.887969,138.754683 L110.684128,133.717912 C110.228043,133.519614 109.692638,133.539444 109.256382,133.737742 L99.3414793,138.774512 C98.5284572,139.190938 98.1913506,140.182429 98.6077766,141.01528 C99.0242025,141.828303 100.015693,142.145579 100.848545,141.748983 L110.049575,137.088979 L120.519712,141.788643 C120.73784,141.887792 120.975798,141.927452 121.213755,141.927451 C121.848309,141.927451 122.463033,141.570515 122.74065,140.935961 C123.097587,140.103109 122.72082,139.131449 121.887969,138.754683 Z" id="Shape" fill="#78C6FF"></path>
                <path d="M157.998045,77.004667 L62.0217846,77.004667 C58.1946321,77.004667 55.0813525,80.1179465 55.0813526,83.9450991 L55.0813526,149.978353 C55.0813526,153.805505 58.1946321,156.918785 62.0217846,156.918785 L67.2370236,156.918785 C67.5543004,157.890445 68.1293649,158.862106 69.0018763,159.754447 C69.2200042,159.972575 69.4777916,160.131213 69.7752388,160.210533 C78.4805236,162.471131 80.6419724,165.267133 81.1575473,166.734539 C81.7326117,168.360583 80.7807809,169.66935 80.7212915,169.748669 C80.1462271,170.482372 80.2850358,171.493692 80.9989088,172.068756 C81.7326117,172.643821 82.7637616,172.524842 83.338826,171.791139 C84.1121884,170.799649 85.2226575,168.400242 84.3303162,165.703389 C83.0810384,162.054704 78.6391619,159.159553 71.1038358,157.136913 C70.4891117,156.40321 70.2908137,155.768656 70.2908137,155.272911 L70.2908137,155.253081 C70.2908137,154.598697 70.7072397,153.924484 71.4607723,153.32959 C71.4806021,153.30976 71.5202617,153.30976 71.5202616,153.2701 C71.7383895,153.111462 71.9763472,152.952824 72.2539645,152.814015 C72.313454,152.774355 72.3729433,152.754525 72.4522625,152.714866 C72.7695394,152.556227 73.1463058,152.437249 73.5032423,152.29844 C74.0783067,152.159631 75.1292863,151.981163 76.79499,151.981163 C79.7099714,151.981163 83.1008682,152.556227 86.8883612,153.666697 C87.522915,153.944314 88.1574687,154.241761 88.7920226,154.578868 C88.9903207,154.678017 89.1886187,154.796996 89.3670869,154.896145 C90.180109,155.3324 90.9733012,155.847975 91.7863233,156.38338 C91.8458128,156.442869 91.925132,156.462699 91.9846213,156.522189 C104.715357,165.465431 103.287611,169.986627 103.30744,169.986627 C102.871185,170.799649 103.188462,171.810969 104.001484,172.247225 C104.239441,172.386033 104.517059,172.445523 104.774846,172.445523 C105.36974,172.445523 105.944805,172.128246 106.242252,171.553181 C106.777657,170.561691 108.50285,165.58441 97.9533929,156.918785 L127.420485,156.918785 C116.851198,165.60424 118.596221,170.581521 119.111796,171.573011 C119.429073,172.148076 120.023967,172.485182 120.638691,172.485182 C120.896478,172.485182 121.154266,172.425693 121.372394,172.286884 C122.185416,171.850629 122.522522,170.898798 122.086267,170.085776 C122.066437,170.046116 120.579201,165.524921 133.369426,156.542018 C134.261768,155.927294 135.154109,155.39189 136.04645,154.876315 C136.205088,154.777166 136.363727,154.697846 136.522365,154.598698 C137.176749,154.241761 137.850962,153.944314 138.505346,153.646867 C142.273009,152.536398 145.663906,151.961333 148.578887,151.961333 C150.244591,151.961333 151.295571,152.159631 151.850805,152.27861 C152.207742,152.417419 152.584508,152.536398 152.921615,152.695036 C152.981104,152.714866 153.040594,152.754526 153.100083,152.774355 C153.3777,152.913164 153.635488,153.091632 153.873446,153.250271 L153.893275,153.2701 C154.666638,153.845165 155.083064,154.519378 155.083064,155.193592 L155.083064,155.213421 C155.083064,155.709167 154.884766,156.323891 154.270042,157.057593 C146.714886,159.080234 142.273009,161.975385 141.043561,165.663729 C140.13139,168.360583 141.241859,170.759989 142.035051,171.75148 C142.610116,172.485182 143.661095,172.604161 144.374968,172.029097 C145.108671,171.454032 145.22765,170.403053 144.652586,169.68918 C144.632756,169.66935 143.661095,168.360583 144.21633,166.714709 C144.712075,165.227473 146.853694,162.411641 155.598639,160.151043 C155.896086,160.071724 156.173703,159.913085 156.372001,159.694958 C157.244513,158.782786 157.819577,157.811126 158.136854,156.839466 C161.904517,156.760146 164.938477,153.686526 164.938477,149.918863 L164.938477,83.8856096 C164.938477,80.1377763 161.825198,77.004667 157.998045,77.004667 Z M72.7497096,108.950484 L87.5625746,108.950484 C88.1772986,111.151593 89.2679378,116.743598 86.7495526,123.803009 L86.5710843,124.298754 C85.3614661,127.689651 83.8544009,131.89357 87.2056381,140.579025 C89.2481081,145.873583 87.9988303,148.887713 87.1461487,150.196481 L87.1263189,150.196481 C86.9875102,150.136991 86.8288717,150.097332 86.6900631,150.018012 C84.7070826,149.26448 82.7835914,148.788564 80.9790791,148.550607 L80.5031637,148.491117 C79.6504821,148.391968 78.8374601,148.332479 78.024438,148.332479 C77.8459697,148.332479 77.6675015,148.352309 77.4890332,148.352309 C76.8346496,148.372139 76.1802661,148.411798 75.565542,148.491117 C75.4069036,148.510947 75.2482651,148.510947 75.0896267,148.550607 C74.950818,148.570437 74.8318392,148.610096 74.7128603,148.610096 C75.2879248,145.853753 75.6845209,141.768813 73.8800085,139.05213 C71.9366876,136.117318 71.480602,127.074927 73.8403489,120.253474 C74.851669,117.298833 73.622221,111.984445 72.7497096,108.950484 Z M138.188069,140.559195 C141.539306,131.87374 140.032241,127.649991 138.802793,124.278924 L138.624325,123.803009 C136.125769,116.743598 137.196579,111.151593 137.811303,108.950484 L152.624168,108.950484 C151.751656,111.984445 150.542038,117.298833 151.553358,120.253474 C153.913105,127.094757 153.45702,136.137148 151.533529,139.05213 C149.709186,141.788643 150.105783,145.853753 150.680847,148.610096 C150.542038,148.590266 150.423059,148.550607 150.30408,148.550607 C150.204931,148.530777 150.085953,148.530777 149.966974,148.510947 C149.272931,148.411798 148.559058,148.372138 147.805525,148.352309 C147.706376,148.352309 147.607227,148.332479 147.508078,148.332479 C144.731905,148.312649 141.578966,148.867884 138.267388,150.196481 C137.394877,148.907543 136.125769,145.873583 138.188069,140.559195 Z M161.60707,149.998183 C161.60707,151.941503 160.060345,153.527888 158.136854,153.607207 C157.898896,152.972653 157.561789,152.357929 157.066044,151.782865 C157.006555,151.703546 156.927236,151.644056 156.828087,151.544907 L156.748767,151.465588 C156.51081,151.207801 156.213363,150.969843 155.935745,150.731885 C155.836596,150.672396 155.737447,150.593077 155.638298,150.513757 C155.400341,150.355119 155.142553,150.196481 154.864936,150.037842 C154.765787,149.978353 154.646808,149.899033 154.547659,149.839544 C154.507999,149.819714 154.46834,149.819714 154.42868,149.780055 C154.42868,149.780055 154.40885,149.780055 154.40885,149.760225 C153.774297,147.638436 152.822466,143.037921 154.289872,140.856642 C157.046215,136.672553 157.264342,126.519692 154.686468,119.123175 C153.992424,117.120364 155.063234,112.222402 156.094384,108.910825 L156.748767,108.910825 C157.660938,108.910825 158.414471,108.177122 158.414471,107.245121 C158.414471,106.33295 157.680768,105.579417 156.748767,105.579417 L135.173939,105.579417 C134.261768,105.579417 133.508235,106.31312 133.508235,107.245121 C133.508235,107.899505 133.885001,108.434909 134.420406,108.712527 C133.666873,111.686998 132.873681,117.53679 135.471386,124.873818 L135.649854,125.369564 C136.720663,128.383694 137.969941,131.794421 135.05496,139.309917 C132.695213,145.417497 133.944491,149.403288 135.193768,151.525078 C134.083299,152.119972 132.97283,152.774355 131.842531,153.547718 L93.551176,153.547718 C93.4520269,153.488228 93.3330481,153.428739 93.2338991,153.34942 C92.3217281,152.734696 91.409557,152.199291 90.5172157,151.683716 C90.4180667,151.624227 90.2990878,151.544907 90.180109,151.485418 C91.4293868,149.363629 92.6786646,145.377838 90.3189177,139.290087 C87.4039362,131.774591 88.6333842,128.363864 89.7041937,125.369564 L89.9024917,124.853989 C92.5001963,117.497131 91.7070041,111.647338 90.9534715,108.692697 C91.4888763,108.415079 91.8656425,107.879675 91.8656425,107.225291 C91.8656425,106.31312 91.1319397,105.559588 90.1999389,105.559588 L68.6251099,105.559588 C67.7129389,105.559588 66.9594063,106.29329 66.9594063,107.225291 C66.9594063,108.137462 67.6931091,108.890995 68.6251099,108.890995 L69.2794936,108.890995 C70.2908137,112.202572 71.3616232,117.100534 70.6874098,119.103345 C68.1888542,126.361054 68.3673225,136.732042 71.0840059,140.836812 C72.5315818,142.998261 71.5995808,147.598776 70.9650271,149.740395 C70.9253675,149.760225 70.865878,149.780055 70.8262185,149.799884 C70.6874098,149.859374 70.5882608,149.938693 70.4692819,150.037842 C70.2114944,150.176651 69.9933666,150.315459 69.7554089,150.474098 L69.438132,150.712056 C69.1605147,150.950013 68.8828975,151.168141 68.6449398,151.406099 L68.5457907,151.505248 L68.3276629,151.723376 C68.1293649,151.961333 67.9707264,152.199291 67.7922581,152.457078 C67.7922581,152.476908 67.7724282,152.476908 67.7724284,152.476908 C67.5543004,152.833845 67.3758322,153.190781 67.2370236,153.567548 L62.0019548,153.567548 C59.9991444,153.567548 58.3929301,151.941503 58.3929301,149.958523 L58.3929301,83.9649288 C58.3929301,81.9621184 60.0189742,80.3559042 62.0019548,80.3559042 L157.978215,80.3559042 C159.981026,80.3559042 161.58724,81.9819482 161.58724,83.9649288 L161.60707,149.998183 Z M106.480209,101.19703 C106.480209,100.284859 105.746507,99.5313266 104.814506,99.5313265 C99.1630111,99.5313265 94.384028,96.0412806 92.0837704,94.3755769 C91.5483656,93.9789808 91.1319398,93.6815337 90.8543224,93.5228953 C90.0611302,93.0469799 89.04981,93.3047673 88.5738947,94.0979597 C88.0979794,94.8911519 88.3557668,95.902472 89.1489591,96.3783873 C89.3869168,96.517196 89.7041937,96.7551537 90.1206196,97.0724306 C92.7183242,98.9562622 98.0723718,102.882564 104.794676,102.882564 C105.746507,102.862734 106.480209,102.109201 106.480209,101.19703 Z M130.355296,93.5228953 C130.077679,93.7013636 129.661253,93.9988106 129.106018,94.3755769 C126.80576,96.0412806 122.026777,99.5313265 116.375283,99.5313265 C115.463112,99.5313265 114.709579,100.265029 114.709579,101.19703 C114.709579,102.109201 115.443282,102.862734 116.375283,102.862734 C123.097587,102.862734 128.491294,98.9364323 131.069169,97.0724306 C131.485595,96.7551537 131.822701,96.517196 132.040829,96.3783873 C132.834021,95.902472 133.091809,94.8911519 132.615894,94.0979597 C132.159808,93.3047675 131.128658,93.0271502 130.355296,93.5228953 Z M121.887969,138.754683 L110.684128,133.717912 C110.228043,133.519614 109.692638,133.539444 109.256382,133.737742 L99.3414793,138.774512 C98.5284572,139.190938 98.1913506,140.182429 98.6077766,141.01528 C99.0242025,141.828303 100.015693,142.145579 100.848545,141.748983 L110.049575,137.088979 L120.519712,141.788643 C120.73784,141.887792 120.975798,141.927452 121.213755,141.927451 C121.848309,141.927451 122.463033,141.570515 122.74065,140.935961 C123.097587,140.103109 122.72082,139.131449 121.887969,138.754683 Z" id="Shape" fill="#444444"></path>
                <g id="successful">
                    <g id="水滴">
                        <path d="M229,197 L243,197" id="Shape" fill="#FEDEBB"></path>
                        <path d="M243.179171,199 L228.82083,199 C227.814958,199 227,198.10485 227,197 C227,195.89515 227.814958,195 228.82083,195 L243.179171,195 C244.185042,195 245,195.89515 245,197 C245,198.10485 244.185042,199 243.179171,199 Z" id="Shape" fill="#A1A1A9"></path>
                        <path d="M201,197 L215,197" id="Shape" fill="#FEDEBB"></path>
                        <path d="M214.222009,199 L200.777991,199 C199.796058,199 199,198.10485 199,197 C199,195.89515 199.796058,195 200.777991,195 L214.222009,195 C215.203942,195 216,195.89515 216,197 C216,198.10485 215.203942,199 214.222009,199 Z" id="Shape" fill="#A1A1A9"></path>
                        <path d="M38,197 L185,197" id="Shape" fill="#FEDEBB"></path>
                        <path d="M185.171551,199 L37.8284484,199 C36.8186493,199 36,198.10485 36,197 C36,195.89515 36.8186496,195 37.8284484,195 L185.171551,195 C186.181376,195 187,195.895431 187,197 C187,198.104569 186.181376,199 185.171551,199 Z" id="Shape" fill="#A1A1A9"></path>
                        <path d="M7,197 L22,197" id="Shape" fill="#FEDEBB"></path>
                        <path d="M21.1988352,199 L6.80116468,199 C5.80643358,199 5,198.10485 5,197 C5,195.89515 5.80643385,195 6.80116468,195 L21.1988352,195 C22.193591,195 23,195.895431 23,197 C23,198.104569 22.193591,199 21.1988352,199 Z" id="Shape" fill="#A1A1A9"></path>
                        <path d="M7,104.5 C7,106.431703 5.43370397,108 3.50014052,108 C1.566015,108 0,106.431703 0,104.5 C0,102.564924 1.56629603,101 3.50014052,101 C5.43370397,101 7,102.564924 7,104.5 Z" id="Shape" fill="#A5EDD8"></path>
                        <path d="M155.500766,5 C154.119537,5 153,3.87986518 153,2.50000015 C153,1.11962428 154.119536,2.93113146e-07 155.500766,4.36821815e-08 C156.88174,-0.000255373619 158,1.11962403 158,2.50000015 C158,3.8801206 156.881995,5 155.500766,5 Z" id="Shape" fill="#A1A1A9"></path>
                        <path d="M224,100.000134 C224,101.656084 222.655936,103 220.999598,103 C219.342991,103 218,101.656084 218,100.000134 C218,98.3444528 219.342991,96.9999997 220.999598,97 C222.655667,97 224,98.3441845 224,100.000134 Z" id="Shape" fill="#A5EDD8"></path>
                        <path d="M16.5004153,59 C12.9160896,59 10,56.0841925 10,52.5 C10,48.9158075 12.9160896,46 16.5004153,46 C20.0844641,46 23,48.9158075 23,52.5 C23,56.0841925 20.0841871,59 16.5004153,59 Z M16.5004153,47.1986069 C13.5771255,47.1986069 11.1991137,49.5767165 11.1991137,52.5 C11.1991137,55.4232835 13.5774022,57.8011159 16.5004153,57.8011159 C19.4231515,57.8011159 21.800886,55.4230064 21.800886,52.5 C21.800886,49.5769936 19.4228745,47.1986072 16.5004153,47.1986069 Z" id="Shape" fill="#4A90E2"></path>
                        <path d="M205.3814,48.1668342 C202.283772,48.1668342 199.763363,45.6629205 199.763363,42.5848149 C199.763363,39.5053113 202.283772,37 205.3814,37 C208.47931,37 211,39.5055909 211,42.5848149 C211,45.6626409 208.47931,48.1668342 205.3814,48.1668342 Z M205.3814,38.2101645 C202.954944,38.2101645 200.981374,40.1725932 200.981374,42.5848149 C200.981374,44.9950798 202.955225,46.9563904 205.3814,46.9563904 C207.808138,46.9563904 209.78199,44.99508 209.78199,42.5848149 C209.78199,40.1725932 207.807857,38.2101645 205.3814,38.2101645 Z M37.838041,82.9479477 C36.8840413,82.9479483 36.1104104,82.179874 36.109479,81.231801 L36.109479,79.5156543 C36.1100014,79.0186431 35.9117543,78.5417983 35.5583812,78.190096 C35.2050082,77.8383938 34.7254789,77.6406669 34.2253608,77.6404446 C33.7251651,77.6406669 33.2455491,77.8383669 32.8920419,78.190045 C32.5385348,78.5417231 32.3400998,79.0185659 32.3403984,79.5156543 L32.3403984,81.231801 C32.3394669,82.1798739 31.5658362,82.9479481 30.6118366,82.9479477 L28.8843998,82.9479477 C27.8438488,82.948102 27.0003108,83.7862746 27,84.8203616 C27,85.8560878 27.8433244,86.6958509 28.8843998,86.6958509 L30.6118366,86.6958509 C31.0700985,86.6953315 31.5097701,86.8758805 31.8339951,87.1977243 C32.15822,87.5195682 32.3403987,87.9563025 32.3403984,88.411718 L32.3403984,90.1278646 C32.3403984,91.1635909 33.1842854,91.9999992 34.2253608,91.9999992 C34.7251485,92.0004446 35.2045992,91.8033544 35.558029,91.4521725 C35.9114588,91.1009906 36.1098525,90.6245477 36.109479,90.1278646 L36.109479,88.411718 C36.1094039,87.9562796 36.2915586,87.5195021 36.6157998,87.1976421 C36.940041,86.8757822 37.3797562,86.6952571 37.838041,86.6958509 L39.5646339,86.6958509 C40.6060581,86.6958509 41.4502993,85.8568542 41.4502993,84.8218993 C41.4502993,83.7869444 40.6060581,82.9479477 39.5646339,82.9479477 L37.838041,82.9479477 Z" id="Shape" fill="#F8E71C"></path>
                        <path d="M194.004474,83.4356972 C193.624403,83.4354802 193.260001,83.2839478 192.991506,83.0144662 C192.723011,82.7449846 192.572439,82.379651 192.572945,81.9989087 L192.572945,80.5653967 C192.573018,80.1498745 192.408145,79.7513779 192.114666,79.4577386 C191.821186,79.1640994 191.423192,78.9994216 191.008403,79.0000015 C190.594161,79.0001463 190.196951,79.1651702 189.904191,79.4587545 C189.611431,79.7523388 189.447115,80.1504232 189.447404,80.5653967 L189.447404,81.9989087 C189.447549,82.3800132 189.296486,82.7455501 189.02748,83.0150317 C188.758474,83.2845132 188.393582,83.4358421 188.013149,83.4356972 L186.582165,83.4356972 C186.019414,83.4282518 185.4962,83.7247412 185.212657,84.2117562 C184.929114,84.6987712 184.929114,85.300956 185.212657,85.7879711 C185.4962,86.2749861 186.019414,86.5714755 186.582165,86.5640301 L188.013149,86.5640301 C188.393604,86.5638126 188.758538,86.7151182 189.02756,86.9846155 C189.296582,87.2541128 189.447621,87.6196919 189.447404,88.0008185 L189.447404,89.4343305 C189.447115,89.8493292 189.611423,90.2474417 189.904175,90.5410694 C190.196927,90.834697 190.594136,90.9997816 191.008403,90.9999988 C191.423217,91.0005062 191.821211,90.8357676 192.114682,90.542085 C192.408154,90.2484024 192.573018,89.8498778 192.572945,89.4343305 L192.572945,88.0008185 C192.572366,87.6200541 192.722915,87.2546784 192.991426,86.985181 C193.259936,86.7156837 193.624381,86.5641746 194.004474,86.5640301 L195.437093,86.5640301 C196.300138,86.5637287 196.999699,85.8629316 197,84.9983618 C197,84.1363433 196.299227,83.4356972 195.437093,83.4356972 L194.004474,83.4356972 Z" id="Shape" fill="#CCCCCC"></path>
                        <path d="M202.498407,117.698598 C201.83956,117.698598 201.304952,117.159099 201.304952,116.501738 L201.304952,115.304877 C201.304952,114.584213 200.720705,114 200,114 C199.279295,114 198.695048,114.584213 198.695048,115.304877 L198.695048,116.501738 C198.695048,117.159099 198.16044,117.698598 197.501593,117.698598 L196.304663,117.698598 C195.958911,117.697829 195.627057,117.834632 195.382302,118.07883 C195.137547,118.323027 194.999999,118.654557 195,119.000289 C195,119.346288 195.137455,119.678114 195.382127,119.922772 C195.626799,120.16743 195.958645,120.304877 196.304663,120.304877 L197.501593,120.304877 C198.160323,120.305834 198.694091,120.839571 198.695048,121.498262 L198.695048,122.695123 C198.695048,123.415787 199.279295,124 200,124 C200.720705,124 201.304952,123.415787 201.304952,122.695123 L201.304952,121.498262 C201.30575,120.839504 201.839611,120.305675 202.498407,120.304877 L203.695337,120.304877 C204.041379,120.304954 204.37327,120.167531 204.617958,119.922857 C204.862646,119.678183 205.000077,119.346311 205,119.000289 C204.999924,118.654581 204.862352,118.323096 204.617613,118.078915 C204.372874,117.834734 204.041065,117.697906 203.695337,117.698598 L202.498407,117.698598 Z" id="Shape" fill="#F8E71C"></path>
                        <path d="M55.5002806,12 C55.2175934,11.9999994 54.9465131,12.1124317 54.7468088,12.3125073 C54.5471045,12.5125829 54.4351758,12.7838715 54.4357014,13.0665582 L54.4342877,17.7501408 C54.4342877,18.3360126 54.9124293,18.8133061 55.5014114,18.816699 C56.0881316,18.816699 56.5645767,18.3360126 56.565425,17.7501408 L56.565425,13.0665582 C56.5657374,12.477937 56.0889016,12.0004684 55.5002806,12 Z M55.499715,28.1866915 C55.217446,28.1863913 54.9466188,28.2982345 54.7468124,28.4976167 C54.547006,28.6969989 54.4345875,28.9675878 54.4342877,29.2498568 L54.4357014,33.9368322 C54.4357011,34.2190464 54.5479069,34.4896811 54.747595,34.689104 C54.9472831,34.8885269 55.2180667,35.0003729 55.5002806,34.9999976 C55.7825893,35.0005986 56.053533,34.8888342 56.2533149,34.6893705 C56.4530969,34.4899068 56.5652932,34.2191416 56.5651423,33.9368322 L56.5651423,29.2498568 C56.5650677,28.9675186 56.4527214,28.6967987 56.252866,28.4973677 C56.0530107,28.2979367 55.7820527,28.186166 55.499715,28.1866915 Z M50.6812581,20.1894832 C51.096345,20.6045701 51.7707196,20.6017425 52.1866549,20.1863728 C52.3869516,19.9868705 52.4995442,19.71581 52.4995442,19.4331088 C52.4995442,19.1504077 52.3869516,18.8793472 52.1866549,18.6798449 L48.87416,15.3662189 C48.4567744,14.9540587 47.7855836,14.9540587 47.3681979,15.3662189 C46.9522629,15.7846988 46.9522629,16.4604874 47.3681979,16.8727467 L50.6812581,20.1894832 Z M60.3178891,26.8136248 C60.1184891,26.614108 59.8479745,26.5020108 59.5658977,26.5020108 C59.2838209,26.5020108 59.0133063,26.614108 58.8139063,26.8136248 C58.6136963,27.0131158 58.5011588,27.2841156 58.5011588,27.5667474 C58.5011588,27.8493791 58.6136963,28.1203789 58.8139063,28.3198699 L62.1264008,31.6334959 C62.5432117,32.0459826 63.2144211,32.0459826 63.631232,31.6334959 C63.8313724,31.4339679 63.9438617,31.162982 63.9438617,30.8803734 C63.9438617,30.5977648 63.8313724,30.3267789 63.631232,30.1272509 L60.3178891,26.8136248 Z M50.815002,23.4999988 C50.814066,22.9122879 50.3372864,22.4363939 49.7495748,22.4365507 L45.0654274,22.4365507 C44.7830177,22.4359498 44.5119731,22.547735 44.3120933,22.7472436 C44.1122134,22.9467521 43.9999244,23.2175885 44.0000002,23.4999988 C43.9998502,23.7826916 44.112025,24.0538616 44.3118395,24.2538351 C44.511654,24.4538087 44.7827346,24.5661993 45.0654274,24.5662743 L49.7495748,24.5662743 C50.0322907,24.5662743 50.3034149,24.4539079 50.5032456,24.253918 C50.7030764,24.0539282 50.8152271,23.7827146 50.815002,23.4999988 Z M65.9354165,22.4365507 L61.2495724,22.4365507 C60.662311,22.4367068 60.1862805,22.9127373 60.1861244,23.4999988 C60.1857491,23.7826626 60.2977739,24.0538776 60.4975149,24.2538838 C60.6972559,24.45389 60.9683221,24.5662745 61.2509861,24.5662743 L65.9351337,24.5662743 C66.2177977,24.5662745 66.4888639,24.45389 66.6886049,24.2538838 C66.8883459,24.0538776 67.0003707,23.7826626 66.9999954,23.4999988 C67.0008263,23.2175047 66.8888962,22.9463577 66.6890357,22.7467096 C66.4891753,22.5470614 66.2179095,22.4354195 65.9354165,22.4365507 Z M50.6812581,26.8136248 L47.3684807,30.1272509 C46.9525805,30.5432046 46.9525805,31.2175422 47.3684807,31.6334959 C47.7838504,32.0460381 48.4587906,32.0488657 48.8744428,31.6334959 L52.1869374,28.3198699 C52.3871474,28.1203789 52.4996848,27.8493791 52.4996848,27.5667474 C52.4996848,27.2841156 52.3871474,27.0131158 52.1869374,26.8136248 C51.770984,26.3982573 51.0972115,26.3982573 50.6812581,26.8136248 Z M60.3195856,20.1894832 L63.6315148,16.8727467 C64.0482982,16.4604874 64.0482982,15.7846988 63.6315148,15.3662189 C63.2146409,14.9538856 62.5435576,14.9538856 62.1266836,15.3662189 L58.8141891,18.6798449 C58.6139124,18.8799896 58.5013871,19.1515233 58.5013871,19.434664 C58.5013871,19.7178047 58.6139124,19.9893384 58.8141891,20.1894832 C59.2300455,20.6048182 59.9037291,20.6048182 60.3195856,20.1894832 Z" id="Shape" fill="#FF7B00"></path>
                        <path d="M148.000244,40 C147.754429,39.9999995 147.518707,40.0977667 147.345051,40.2717455 C147.171395,40.4457243 147.074066,40.6816274 147.074523,40.927442 L147.073294,45.0001224 C147.073294,45.5095762 147.489069,45.924614 148.001227,45.9275644 C148.511419,45.9275644 148.925719,45.5095762 148.926457,45.0001224 L148.926457,40.927442 C148.926728,40.4155974 148.512088,40.0004073 148.000244,40 Z M147.999752,54.0753839 C147.754301,54.0751229 147.518799,54.1723778 147.345054,54.3457536 C147.17131,54.5191295 147.073554,54.7544242 147.073294,54.9998755 L147.074523,59.0755063 C147.074523,59.3209099 147.172093,59.5562445 147.345735,59.7296557 C147.519377,59.9030669 147.754841,60.0003243 148.000244,59.9999979 C148.24573,60.0005205 148.481333,59.903334 148.655056,59.7298874 C148.82878,59.5564407 148.926342,59.3209927 148.926211,59.0755063 L148.926211,54.9998755 C148.926146,54.754364 148.828453,54.5189554 148.654666,54.3455371 C148.480879,54.1721188 148.245263,54.0749269 147.999752,54.0753839 Z M143.80979,47.1212897 C144.170735,47.4822349 144.757147,47.4797761 145.11883,47.118585 C145.293001,46.9451048 145.390908,46.7094 145.390908,46.4635729 C145.390908,46.2177458 145.293001,45.982041 145.11883,45.8085608 L142.2384,42.9271469 C141.875456,42.5687467 141.291812,42.5687467 140.928868,42.9271469 C140.567185,43.2910424 140.567185,43.8786847 140.928868,44.2371711 L143.80979,47.1212897 Z M152.189469,52.8814129 C152.016077,52.70792 151.780847,52.6104441 151.535563,52.6104441 C151.290279,52.6104441 151.055049,52.70792 150.881658,52.8814129 C150.707562,53.0548833 150.609703,53.2905353 150.609703,53.536302 C150.609703,53.7820688 150.707562,54.0177208 150.881658,54.1911912 L153.762088,57.0726051 C154.124532,57.4312892 154.708192,57.4312892 155.070637,57.0726051 C155.244672,56.8991025 155.342488,56.6634626 155.342488,56.417716 C155.342488,56.1719694 155.244672,55.9363295 155.070637,55.7628268 L152.189469,52.8814129 Z M143.926089,49.999999 C143.925275,49.488946 143.510684,49.0751251 142.99963,49.0752614 L138.926459,49.0752614 C138.680885,49.0747389 138.445194,49.1719435 138.271385,49.3454292 C138.097577,49.5189149 137.999934,49.7544247 138,49.999999 C137.99987,50.2458188 138.097413,50.4816188 138.271165,50.6555088 C138.444917,50.8293989 138.680639,50.9271298 138.926459,50.927195 L142.99963,50.927195 C143.24547,50.9271951 143.48123,50.8294851 143.654996,50.6555809 C143.828762,50.4816767 143.926284,50.2458388 143.926089,49.999999 Z M157.074275,49.0752614 L152.999628,49.0752614 C152.488966,49.0753972 152.075027,49.4893368 152.074891,49.999999 C152.074564,50.2457935 152.171977,50.4816327 152.345665,50.6555511 C152.519353,50.8294696 152.755063,50.9271952 153.000857,50.927195 L157.074029,50.927195 C157.319824,50.9271952 157.555534,50.8294696 157.729222,50.6555511 C157.902909,50.4816327 158.000322,50.2457935 157.999996,49.999999 C158.000719,49.7543519 157.903388,49.5185719 157.729596,49.3449648 C157.555805,49.1713577 157.319921,49.0742778 157.074275,49.0752614 Z M143.80979,52.8814129 L140.929114,55.7628268 C140.567461,56.1245258 140.567461,56.7109062 140.929114,57.0726051 C141.290305,57.4313375 141.877209,57.4337962 142.238646,57.0726051 L145.119076,54.1911912 C145.293172,54.0177208 145.39103,53.7820688 145.39103,53.536302 C145.39103,53.2905353 145.293172,53.0548833 145.119076,52.8814129 C144.757377,52.5202237 144.171488,52.5202237 143.80979,52.8814129 Z M152.190944,47.1212897 L155.070882,44.2371711 C155.433303,43.8786847 155.433303,43.2910424 155.070882,42.9271469 C154.708383,42.5685962 154.124833,42.5685962 153.762334,42.9271469 L150.881904,45.8085608 C150.70775,45.9825997 150.609902,46.2187159 150.609902,46.4649252 C150.609902,46.7111345 150.70775,46.9472508 150.881904,47.1212897 C151.243518,47.4824506 151.82933,47.4824506 152.190944,47.1212897 Z" id="Shape-Copy" fill="#A5EDD8"></path>
                    </g>
                </g>
            </g>
        </g>
    </g>
</svg>