<?xml version="1.0" encoding="UTF-8"?>
<svg width="375px" height="181px" viewBox="0 0 375 181" version="1.1" xmlns="http://www.w3.org/2000/svg" xmlns:xlink="http://www.w3.org/1999/xlink">
    <!-- Generator: Sketch 50.2 (55047) - http://www.bohemiancoding.com/sketch -->
    <title>Group 21</title>
    <desc>Created with Sketch.</desc>
    <defs>
        <linearGradient x1="0%" y1="0%" x2="100%" y2="100%" id="linearGradient-1">
            <stop stop-color="#FFE8B7" offset="0%"></stop>
            <stop stop-color="#FF5069" offset="100%"></stop>
        </linearGradient>
        <rect id="path-2" x="0" y="0" width="375" height="181"></rect>
        <linearGradient x1="50%" y1="201.957361%" x2="50%" y2="18.4167661%" id="linearGradient-4">
            <stop stop-color="#FCEFF0" offset="0%"></stop>
            <stop stop-color="#FCC7CB" offset="100%"></stop>
        </linearGradient>
        <linearGradient x1="50%" y1="125.224696%" x2="50%" y2="28.0518643%" id="linearGradient-5">
            <stop stop-color="#FFE8E9" offset="0%"></stop>
            <stop stop-color="#FDADB2" offset="100%"></stop>
        </linearGradient>
        <linearGradient x1="50%" y1="265.141754%" x2="50%" y2="0%" id="linearGradient-6">
            <stop stop-color="#FAB5BB" offset="0%"></stop>
            <stop stop-color="#FA9096" offset="100%"></stop>
        </linearGradient>
        <linearGradient x1="50%" y1="100%" x2="50%" y2="2.65465561%" id="linearGradient-7">
            <stop stop-color="#FB9EA4" offset="0%"></stop>
            <stop stop-color="#EB7C83" offset="100%"></stop>
        </linearGradient>
        <linearGradient x1="50%" y1="100%" x2="50%" y2="2.65465561%" id="linearGradient-8">
            <stop stop-color="#FB989E" offset="0%"></stop>
            <stop stop-color="#F0858C" offset="100%"></stop>
        </linearGradient>
        <linearGradient x1="50%" y1="100%" x2="50%" y2="2.65465561%" id="linearGradient-9">
            <stop stop-color="#FFB8BD" offset="0%"></stop>
            <stop stop-color="#F2A3A9" offset="100%"></stop>
        </linearGradient>
        <linearGradient x1="50%" y1="100%" x2="50%" y2="2.65465561%" id="linearGradient-10">
            <stop stop-color="#FDADB3" offset="0%"></stop>
            <stop stop-color="#F69DA4" offset="100%"></stop>
        </linearGradient>
    </defs>
    <g id="Page-1" stroke="none" stroke-width="1" fill="none" fill-rule="evenodd">
        <g id="1_1_Home">
            <g id="Group-21">
                <mask id="mask-3" fill="white">
                    <use xlink:href="#path-2"></use>
                </mask>
                <use id="Mask" fill="url(#linearGradient-1)" xlink:href="#path-2"></use>
                <g opacity="0.7" style="mix-blend-mode: multiply;" mask="url(#mask-3)">
                    <g transform="translate(-22.000000, 74.000000)">
                        <g id="Group-7" opacity="0.6" stroke-width="1" fill="none" transform="translate(65.000000, 2.000000)">
                            <g id="Group-17" fill="#D39576">
                                <circle id="Oval-15" cx="7" cy="7" r="7"></circle>
                                <rect id="Rectangle-30" x="6.3" y="11.7333333" width="1.4" height="10.2666667"></rect>
                            </g>
                            <g id="Group-20" transform="translate(14.000000, 11.000000)" fill="#D39576">
                                <path d="M0,8.41585243 C0.545454545,4.08782044 1.0546875,1.99937178 1.52769886,2.15050645 C2.00071023,2.30164113 2.60037879,4.39008979 3.32670455,8.41585243 L0,8.41585243 Z" id="Path-48"></path>
                                <path d="M3.63636364,10 C4.30603648,3.10053365 4.93123886,-0.228735008 5.51197077,0.012194031 C6.09270269,0.25312307 6.82893589,3.58239173 7.72067039,10 L3.63636364,10 Z" id="Path-48-Copy"></path>
                            </g>
                            <g id="Group-16" transform="translate(33.000000, 12.000000)" fill="#BE8264">
                                <rect id="Rectangle-31" x="1.5" y="0" width="9" height="1.5"></rect>
                                <rect id="Rectangle-32" x="0" y="3" width="12" height="1.5"></rect>
                                <rect id="Rectangle-33" x="1.5" y="3.75" width="1" height="2.25"></rect>
                                <rect id="Rectangle-33-Copy" x="9.75" y="3.75" width="1" height="2.25"></rect>
                            </g>
                        </g>
                        <path d="M12.7321342,27.8387368 C22.8956665,24.9513785 47.1715834,17.0118559 100.825084,19.4631176 C154.478584,21.9143793 257.842419,39.9297276 280.638583,43.0137568 C295.836025,45.0697763 292.529679,62.0651907 270.719544,94 L31.6419902,94 L0,68.0935843 C1.71240121,43.1819248 5.95644593,29.7636423 12.7321342,27.8387368 Z" id="Path-47" fill="url(#linearGradient-4)"></path>
                        <g id="Group-20-Copy" stroke-width="1" fill="none" transform="translate(189.000000, 36.000000)">
                            <path d="M0,14.0434783 C0.877681218,6.90403047 1.69707892,3.45896117 2.4581931,3.70827035 C3.21930728,3.95757952 4.18422331,7.40264883 5.35294118,14.0434783 L0,14.0434783 Z" id="Path-48" fill="#D09676"></path>
                            <path d="M6.11764706,17 C7.24609434,5.2709072 8.29960567,-0.388849513 9.27818104,0.0207298527 C10.2567564,0.430309219 11.4973627,6.09006593 13,17 L6.11764706,17 Z" id="Path-48-Copy" fill="#D09676"></path>
                        </g>
                        <path d="M96.3528392,89.2332653 C120.768408,89.2332653 149.682031,73.0026999 155.799441,71.5649251 C161.916852,70.1271503 221.766158,47.6780317 243.539245,33.4008569 C265.312331,19.1236822 299.798361,4.12549519 328.071641,1.31652231 C356.344921,-1.49245056 389.470578,0.27537503 397.34822,5.83807623 C405.225863,11.4007774 413.062239,64.7825942 412.999627,66.2614483 C412.937016,67.7403024 401.933077,108.075906 400.612547,108.506531 C399.292017,108.937155 200.067067,113.37655 194.375129,112.974256 C188.683191,112.571963 71.9372706,89.2332653 96.3528392,89.2332653 Z" id="Path-45" fill="url(#linearGradient-5)"></path>
                        <g id="Group-17-Copy" stroke-width="1" fill="none" transform="translate(250.000000, 26.000000)">
                            <circle id="Oval-15" fill="#FB9977" cx="12" cy="12" r="12"></circle>
                            <rect id="Rectangle-30" fill="#FB9977" x="11.2202381" y="18.8571429" width="2.58928571" height="17.1428571"></rect>
                        </g>
                        <g id="Group-17-Copy-2" stroke-width="1" fill="none" transform="translate(370.000000, 36.000000)">
                            <circle id="Oval-15" fill="#FB9977" cx="8" cy="8" r="8"></circle>
                            <rect id="Rectangle-30" fill="#FB9977" x="7" y="12" width="2" height="12"></rect>
                        </g>
                        <g id="Group-18" stroke-width="1" fill="none" transform="translate(51.000000, 51.000000)">
                            <path d="M0,8.41585243 C0.480641982,4.08782044 0.929366332,1.99937178 1.34617305,2.15050645 C1.76297977,2.30164113 2.29139389,4.39008979 2.93141542,8.41585243 L0,8.41585243 Z" id="Path-48-Copy-2" fill="#73A23A"></path>
                            <path d="M3.20427988,10 C3.79438016,3.10053365 4.34529409,-0.228735008 4.85702168,0.012194031 C5.36874927,0.25312307 6.01750101,3.58239173 6.80327691,10 L3.20427988,10 Z" id="Path-48-Copy-3" fill="#73A23A"></path>
                        </g>
                        <g id="Group-18-Copy" stroke-width="1" fill="none" transform="translate(269.000000, 50.000000)">
                            <path d="M0,10.0990229 C0.549305122,4.90538453 1.06213295,2.39924614 1.53848349,2.58060774 C2.01483402,2.76196935 2.61873588,5.26810774 3.35018905,10.0990229 L0,10.0990229 Z" id="Path-48-Copy-2" fill="#73A23A"></path>
                            <path d="M3.66203415,12 C4.33643447,3.72064038 4.96605039,-0.274482009 5.55088192,0.0146328372 C6.13571345,0.303747684 6.87714402,4.29887007 7.77517361,12 L3.66203415,12 Z" id="Path-48-Copy-3" fill="#73A23A"></path>
                        </g>
                        <g id="Group-18-Copy-2" stroke-width="1" fill="none" transform="translate(277.000000, 52.000000)">
                            <path d="M0,7.36363636 C0.421617665,3.41212382 0.815237282,1.50536086 1.18085885,1.64334749 C1.54648042,1.78133412 2.01000366,3.68809708 2.57142857,7.36363636 L0,7.36363636 Z" id="Path-48-Copy-2" fill="#73A23A"></path>
                            <path d="M2.57142857,9 C3.13358546,2.79048028 3.65841161,-0.205861507 4.14590704,0.0109746279 C4.63340246,0.227810763 5.25143345,3.22415255 6,9 L2.57142857,9 Z" id="Path-48-Copy-3" fill="#73A23A"></path>
                        </g>
                        <path d="M15.8306049,64.2842127 C21.4918148,64.2842127 55.7056446,53 103.407183,53 C151.108721,53 171.650623,60.825148 216.549189,62.3208836 C261.447756,63.8166193 294.989892,56.3266738 328.143751,54.6633369 C361.29761,53 412.541833,60.825148 416.970188,64.2842127 C419.922425,66.5902559 416.527116,80.8288516 406.784262,107 L15.8306049,107 C12.056465,78.5228085 12.056465,64.2842127 15.8306049,64.2842127 Z" id="Path-44" fill="url(#linearGradient-6)"></path>
                        <path d="M20,97.252034 C24.0034973,93.1873429 29.5196847,90.6756757 35.6101333,90.6756757 C38.0393055,90.6756757 40.3771237,91.075234 42.5640453,91.8135252 C46.2876392,87.53365 51.7134515,84.8378378 57.7547411,84.8378378 C63.0518981,84.8378378 67.875862,86.9104403 71.4940348,90.3061888 C73.6859885,89.1432012 76.1735193,88.4864865 78.8102698,88.4864865 C83.6563272,88.4864865 87.9983445,90.7047636 90.9277199,94.2073601 C95.0423197,91.5305717 100.146061,89.9459459 105.67422,89.9459459 C111.732196,89.9459459 117.280505,91.8488672 121.575993,95.00665 C125.51889,87.6430921 133.176483,82.6486486 141.976856,82.6486486 C146.891714,82.6486486 151.450135,84.2064313 155.20411,86.8646837 C158.010489,82.1478163 163.068022,79 168.840806,79 C176.007839,79 182.072402,83.8519627 184.095315,90.5346866 C187.083837,88.7678553 190.552823,87.7567568 194.252651,87.7567568 C201.32708,87.7567568 207.557523,91.4534476 211.198915,97.061608 C214.530527,94.4326347 218.73048,92.8648649 223.29476,92.8648649 C228.632273,92.8648649 233.471562,95.0088201 237.006613,98.4866347 C242.542419,90.6623646 251.573972,85.5675676 261.775554,85.5675676 C269.305408,85.5675676 276.197829,88.3432195 281.517596,92.943376 C285.047925,89.7175533 289.705677,87.7567568 294.810952,87.7567568 C301.810899,87.7567568 307.969513,91.4429971 311.534239,97.0220198 C314.369143,94.8682061 317.877121,93.5945946 321.674902,93.5945946 C329.366972,93.5945946 335.870185,98.8193196 338,106 L20,106 L20,97.252034 Z" id="Combined-Shape" fill="url(#linearGradient-7)"></path>
                        <path d="M337.045636,82 C337.015431,81.7804253 337,81.5580598 337,81.3333333 C337,77.2832452 342.011923,74 348.194444,74 C351.489201,74 354.451511,74.9324357 356.5,76.4164575 C358.548489,74.9324357 361.510799,74 364.805556,74 C370.988077,74 376,77.2832452 376,81.3333333 C376,81.5580598 375.984569,81.7804253 375.954364,82 L337.045636,82 Z" id="Combined-Shape-Copy-4" fill="url(#linearGradient-8)"></path>
                        <path d="M290.045636,48 C290.015431,47.7804253 290,47.5580598 290,47.3333333 C290,43.2832452 295.011923,40 301.194444,40 C304.489201,40 307.451511,40.9324357 309.5,42.4164575 C311.548489,40.9324357 314.510799,40 317.805556,40 C323.988077,40 329,43.2832452 329,47.3333333 C329,47.5580598 328.984569,47.7804253 328.954364,48 L290.045636,48 Z" id="Combined-Shape-Copy-5" fill="url(#linearGradient-9)"></path>
                        <path d="M346.045636,19 C346.015431,18.7804253 346,18.5580598 346,18.3333333 C346,14.2832452 351.011923,11 357.194444,11 C360.489201,11 363.451511,11.9324357 365.5,13.4164575 C367.548489,11.9324357 370.510799,11 373.805556,11 C379.988077,11 385,14.2832452 385,18.3333333 C385,18.5580598 384.984569,18.7804253 384.954364,19 L346.045636,19 Z" id="Combined-Shape-Copy-6" fill="url(#linearGradient-10)"></path>
                    </g>
                </g>
            </g>
        </g>
    </g>
</svg>