<?xml version="1.0" encoding="UTF-8"?>
<svg width="10px" height="10px" viewBox="0 0 10 10" version="1.1" xmlns="http://www.w3.org/2000/svg" xmlns:xlink="http://www.w3.org/1999/xlink">
    <!-- Generator: Sketch 50.2 (55047) - http://www.bohemiancoding.com/sketch -->
    <title>Shape</title>
    <desc>Created with Sketch.</desc>
    <defs></defs>
    <g id="Page-2" stroke="none" stroke-width="1" fill="none" fill-rule="evenodd">
        <g id="1_1_Availabilities" transform="translate(-191.000000, -91.000000)" fill="#FFFFFF" fill-rule="nonzero">
            <g id="Group" transform="translate(0.000000, 64.000000)">
                <g id="Cells/Editing/Select" transform="translate(185.000000, 21.000000)">
                    <g id="Float">
                        <path d="M11.8393174,11.0000068 L15.8261594,7.01317293 C16.0579469,6.78141331 16.0579469,6.40564081 15.8261594,6.17385387 C15.5943993,5.94206692 15.2186261,5.94206692 14.9868387,6.17385387 L10.9999966,10.1606741 L7.01315453,6.17384021 C6.78139443,5.94205326 6.40562117,5.94205326 6.17383375,6.17384021 C5.94207365,6.40562715 5.94207365,6.78139965 6.17383375,7.01315928 L10.1606758,10.9999932 L6.17382007,14.9868407 C5.94205998,15.2186277 5.94205998,15.5944002 6.17382007,15.8261598 C6.40560749,16.0579467 6.78138076,16.0579467 7.01314086,15.8261598 L10.9999829,11.8393259 L14.986825,15.8261598 C15.2186124,16.0579467 15.5943857,16.0579467 15.8261458,15.8261598 C16.0579332,15.5944002 16.0579332,15.2186277 15.8261458,14.9868407 L11.8393174,11.0000068 Z" id="Shape"></path>
                    </g>
                </g>
            </g>
        </g>
    </g>
</svg>