<?xml version="1.0" standalone="no"?><!DOCTYPE svg PUBLIC "-//W3C//DTD SVG 1.1//EN" "http://www.w3.org/Graphics/SVG/1.1/DTD/svg11.dtd"><svg class="icon" width="200px" height="200.00px" viewBox="0 0 1024 1024" version="1.1" xmlns="http://www.w3.org/2000/svg"><path fill="#cccccc" d="M768 352a224 224 0 0 1 0 448h-32a32 32 0 0 1 0-64h32a160 160 0 0 0 0-320 147.2 147.2 0 0 0-27.84 2.56 32 32 0 0 1-38.08-27.52 192 192 0 0 0-380.16 0 32 32 0 0 1-38.08 27.52A147.2 147.2 0 0 0 256 416a160 160 0 0 0 0 320h32a32 32 0 0 1 0 64H256a224 224 0 0 1 0-448h8.32a256 256 0 0 1 495.36 0z"  /><path fill="#cccccc" d="M480 608a32 32 0 0 1 64 0v288a32 32 0 0 1-64 0z"  /><path fill="#cccccc" d="M600 746.88a32 32 0 0 1 48 42.24l-112 128a32 32 0 0 1-48 0l-112-128a32 32 0 1 1 48-42.24L512 847.36z"  /></svg>