<svg xmlns="http://www.w3.org/2000/svg" xmlns:xlink="http://www.w3.org/1999/xlink" width="245" height="199" viewBox="0 0 245 199">
  <defs>
    <path id="feedback-image-b" d="M111,113.526309 C111,118.578927 108.740379,129.500657 103.035581,131.695546 C97.3307839,133.890435 92.3490208,134.351395 83.5931278,124.600571 C77.7558659,118.100022 81.7735829,114.408601 95.646279,113.526309 C105.882093,110.157897 111,110.157897 111,113.526309 Z"/>
    <filter id="feedback-image-a" width="146.7%" height="163.6%" x="-23.3%" y="-22.7%" filterUnits="objectBoundingBox">
      <feOffset dy="2" in="SourceAlpha" result="shadowOffsetOuter1"/>
      <feGaussianBlur in="shadowOffsetOuter1" result="shadowBlurOuter1" stdDeviation="2"/>
      <feColorMatrix in="shadowBlurOuter1" values="0 0 0 0 0   0 0 0 0 0   0 0 0 0 0  0 0 0 0.153759058 0"/>
    </filter>
    <path id="feedback-image-d" d="M110.488281,113.886719 C116.609375,110.115234 113.183594,134.357422 95.0517578,134.265625 C79.3640683,134.186202 69.8056641,120.961914 63.2724609,110.115234 C64.7348633,108.726074 70.3944225,101.148995 72.1552734,103.254883 C78.2620443,110.558268 84.5058594,115.354492 90.8867188,117.643555 C99.8736979,117.65332 106.407552,116.401042 110.488281,113.886719 Z"/>
    <filter id="feedback-image-c" width="128%" height="144.6%" x="-14%" y="-15.9%" filterUnits="objectBoundingBox">
      <feOffset dy="2" in="SourceAlpha" result="shadowOffsetOuter1"/>
      <feGaussianBlur in="shadowOffsetOuter1" result="shadowBlurOuter1" stdDeviation="2"/>
      <feColorMatrix in="shadowBlurOuter1" values="0 0 0 0 0   0 0 0 0 0   0 0 0 0 0  0 0 0 0.153759058 0"/>
    </filter>
  </defs>
  <g fill="none" fill-rule="evenodd">
    <g fill-rule="nonzero">
      <path fill="#FEDEBB" d="M229,197 L243,197"/>
      <path fill="#666" d="M243.179171,199 L228.82083,199 C227.814958,199 227,198.10485 227,197 C227,195.89515 227.814958,195 228.82083,195 L243.179171,195 C244.185042,195 245,195.89515 245,197 C245,198.10485 244.185042,199 243.179171,199 Z"/>
      <path fill="#FEDEBB" d="M201,197 L215,197"/>
      <path fill="#666" d="M214.222009,199 L200.777991,199 C199.796058,199 199,198.10485 199,197 C199,195.89515 199.796058,195 200.777991,195 L214.222009,195 C215.203942,195 216,195.89515 216,197 C216,198.10485 215.203942,199 214.222009,199 Z"/>
      <path fill="#FEDEBB" d="M38,197 L185,197"/>
      <path fill="#666" d="M185.171551 199L37.8284484 199C36.8186493 199 36 198.10485 36 197 36 195.89515 36.8186496 195 37.8284484 195L185.171551 195C186.181376 195 187 195.895431 187 197 187 198.104569 186.181376 199 185.171551 199L185.171551 199zM21.1988352 199L6.80116468 199C5.80643358 199 5 198.10485 5 197 5 195.89515 5.80643385 195 6.80116468 195L21.1988352 195C22.193591 195 23 195.895431 23 197 23 198.104569 22.193591 199 21.1988352 199L21.1988352 199z"/>
      <path fill="#A5EDD8" d="M7,130.5 C7,132.431703 5.43370397,134 3.50014052,134 C1.566015,134 0,132.431703 0,130.5 C0,128.564924 1.56629603,127 3.50014052,127 C5.43370397,127 7,128.564924 7,130.5 Z"/>
      <path fill="#FF7B00" d="M155.500766,5 C154.119537,5 153,3.87986518 153,2.50000015 C153,1.11962428 154.119536,2.93113146e-07 155.500766,4.36821813e-08 C156.88174,-0.000255373619 158,1.11962403 158,2.50000015 C158,3.8801206 156.881995,5 155.500766,5 Z"/>
      <path fill="#A5EDD8" d="M224,100.000134 C224,101.656084 222.655936,103 220.999598,103 C219.342991,103 218,101.656084 218,100.000134 C218,98.3444528 219.342991,96.9999997 220.999598,97 C222.655667,97 224,98.3441845 224,100.000134 Z"/>
      <path fill="#4A90E2" d="M16.5004153,65 C12.9160896,65 10,62.0841925 10,58.5 C10,54.9158075 12.9160896,52 16.5004153,52 C20.0844641,52 23,54.9158075 23,58.5 C23,62.0841925 20.0841871,65 16.5004153,65 L16.5004153,65 Z M16.5004153,53.1986069 C13.5771255,53.1986069 11.1991137,55.5767165 11.1991137,58.5 C11.1991137,61.4232835 13.5774022,63.8011159 16.5004153,63.8011159 C19.4231515,63.8011159 21.800886,61.4230064 21.800886,58.5 C21.800886,55.5769936 19.4228745,53.1986072 16.5004153,53.1986069 L16.5004153,53.1986069 Z"/>
      <path fill="#F8E71C" d="M205.3814,56.1668342 C202.283772,56.1668342 199.763363,53.6629205 199.763363,50.5848149 C199.763363,47.5053113 202.283772,45 205.3814,45 C208.47931,45 211,47.5055909 211,50.5848149 C211,53.6626409 208.47931,56.1668342 205.3814,56.1668342 Z M205.3814,46.2101645 C202.954944,46.2101645 200.981374,48.1725932 200.981374,50.5848149 C200.981374,52.9950798 202.955225,54.9563904 205.3814,54.9563904 C207.808138,54.9563904 209.78199,52.99508 209.78199,50.5848149 C209.78199,48.1725932 207.807857,46.2101645 205.3814,46.2101645 Z M37.838041,90.9479477 C36.8840413,90.9479483 36.1104104,90.179874 36.109479,89.231801 L36.109479,87.5156543 C36.1100014,87.0186431 35.9117543,86.5417983 35.5583812,86.190096 C35.2050082,85.8383938 34.7254789,85.6406669 34.2253608,85.6404446 C33.7251651,85.6406669 33.2455491,85.8383669 32.8920419,86.190045 C32.5385348,86.5417231 32.3400998,87.0185659 32.3403984,87.5156543 L32.3403984,89.231801 C32.3394669,90.1798739 31.5658362,90.9479481 30.6118366,90.9479477 L28.8843998,90.9479477 C27.8438488,90.948102 27.0003108,91.7862746 27,92.8203616 C27,93.8560878 27.8433244,94.6958509 28.8843998,94.6958509 L30.6118366,94.6958509 C31.0700985,94.6953315 31.5097701,94.8758805 31.8339951,95.1977243 C32.15822,95.5195682 32.3403987,95.9563025 32.3403984,96.411718 L32.3403984,98.1278646 C32.3403984,99.1635909 33.1842854,99.9999992 34.2253608,99.9999992 C34.7251485,100.000445 35.2045992,99.8033544 35.558029,99.4521725 C35.9114588,99.1009906 36.1098525,98.6245477 36.109479,98.1278646 L36.109479,96.411718 C36.1094039,95.9562796 36.2915586,95.5195021 36.6157998,95.1976421 C36.940041,94.8757822 37.3797562,94.6952571 37.838041,94.6958509 L39.5646339,94.6958509 C40.6060581,94.6958509 41.4502993,93.8568542 41.4502993,92.8218993 C41.4502993,91.7869444 40.6060581,90.9479477 39.5646339,90.9479477 L37.838041,90.9479477 L37.838041,90.9479477 Z"/>
      <path fill="#CCC" d="M199.004474,99.4356972 C198.624403,99.4354802 198.260001,99.2839478 197.991506,99.0144662 C197.723011,98.7449846 197.572439,98.379651 197.572945,97.9989087 L197.572945,96.5653967 C197.573018,96.1498745 197.408145,95.7513779 197.114666,95.4577386 C196.821186,95.1640994 196.423192,94.9994216 196.008403,95.0000015 C195.594161,95.0001463 195.196951,95.1651702 194.904191,95.4587545 C194.611431,95.7523388 194.447115,96.1504232 194.447404,96.5653967 L194.447404,97.9989087 C194.447549,98.3800132 194.296486,98.7455501 194.02748,99.0150317 C193.758474,99.2845132 193.393582,99.4358421 193.013149,99.4356972 L191.582165,99.4356972 C191.019414,99.4282518 190.4962,99.7247412 190.212657,100.211756 C189.929114,100.698771 189.929114,101.300956 190.212657,101.787971 C190.4962,102.274986 191.019414,102.571475 191.582165,102.56403 L193.013149,102.56403 C193.393604,102.563813 193.758538,102.715118 194.02756,102.984616 C194.296582,103.254113 194.447621,103.619692 194.447404,104.000819 L194.447404,105.434331 C194.447115,105.849329 194.611423,106.247442 194.904175,106.541069 C195.196927,106.834697 195.594136,106.999782 196.008403,106.999999 C196.423217,107.000506 196.821211,106.835768 197.114682,106.542085 C197.408154,106.248402 197.573018,105.849878 197.572945,105.434331 L197.572945,104.000819 C197.572366,103.620054 197.722915,103.254678 197.991426,102.985181 C198.259936,102.715684 198.624381,102.564175 199.004474,102.56403 L200.437093,102.56403 C201.300138,102.563729 201.999699,101.862932 202,100.998362 C202,100.136343 201.299227,99.4356972 200.437093,99.4356972 L199.004474,99.4356972 L199.004474,99.4356972 Z"/>
      <path fill="#F8E71C" d="M205.498407,134.698598 C204.83956,134.698598 204.304952,134.159099 204.304952,133.501738 L204.304952,132.304877 C204.304952,131.584213 203.720705,131 203,131 C202.279295,131 201.695048,131.584213 201.695048,132.304877 L201.695048,133.501738 C201.695048,134.159099 201.16044,134.698598 200.501593,134.698598 L199.304663,134.698598 C198.958911,134.697829 198.627057,134.834632 198.382302,135.07883 C198.137547,135.323027 197.999999,135.654557 198,136.000289 C198,136.346288 198.137455,136.678114 198.382127,136.922772 C198.626799,137.16743 198.958645,137.304877 199.304663,137.304877 L200.501593,137.304877 C201.160323,137.305834 201.694091,137.839571 201.695048,138.498262 L201.695048,139.695123 C201.695048,140.415787 202.279295,141 203,141 C203.720705,141 204.304952,140.415787 204.304952,139.695123 L204.304952,138.498262 C204.30575,137.839504 204.839611,137.305675 205.498407,137.304877 L206.695337,137.304877 C207.041379,137.304954 207.37327,137.167531 207.617958,136.922857 C207.862646,136.678183 208.000077,136.346311 208,136.000289 C207.999924,135.654581 207.862352,135.323096 207.617613,135.078915 C207.372874,134.834734 207.041065,134.697906 206.695337,134.698598 L205.498407,134.698598 L205.498407,134.698598 Z"/>
      <path fill="#FF7B00" d="M55.5002806,12 C55.2175934,11.9999994 54.9465131,12.1124317 54.7468088,12.3125073 C54.5471045,12.5125829 54.4351758,12.7838715 54.4357014,13.0665582 L54.4342877,17.7501408 C54.4342877,18.3360126 54.9124293,18.8133061 55.5014114,18.816699 C56.0881316,18.816699 56.5645767,18.3360126 56.565425,17.7501408 L56.565425,13.0665582 C56.5657374,12.477937 56.0889016,12.0004684 55.5002806,12 L55.5002806,12 Z M55.499715,28.1866915 C55.217446,28.1863913 54.9466188,28.2982345 54.7468124,28.4976167 C54.547006,28.6969989 54.4345875,28.9675878 54.4342877,29.2498568 L54.4357014,33.9368322 C54.4357011,34.2190464 54.5479069,34.4896811 54.747595,34.689104 C54.9472831,34.8885269 55.2180667,35.0003729 55.5002806,34.9999976 C55.7825893,35.0005986 56.053533,34.8888342 56.2533149,34.6893705 C56.4530969,34.4899068 56.5652932,34.2191416 56.5651423,33.9368322 L56.5651423,29.2498568 C56.5650677,28.9675186 56.4527214,28.6967987 56.252866,28.4973677 C56.0530107,28.2979367 55.7820527,28.186166 55.499715,28.1866915 L55.499715,28.1866915 Z M50.6812581,20.1894832 C51.096345,20.6045701 51.7707196,20.6017425 52.1866549,20.1863728 C52.3869516,19.9868705 52.4995442,19.71581 52.4995442,19.4331088 C52.4995442,19.1504077 52.3869516,18.8793472 52.1866549,18.6798449 L48.87416,15.3662189 C48.4567744,14.9540587 47.7855836,14.9540587 47.3681979,15.3662189 C46.9522629,15.7846988 46.9522629,16.4604874 47.3681979,16.8727467 L50.6812581,20.1894832 L50.6812581,20.1894832 Z M60.3178891,26.8136248 C60.1184891,26.614108 59.8479745,26.5020108 59.5658977,26.5020108 C59.2838209,26.5020108 59.0133063,26.614108 58.8139063,26.8136248 C58.6136963,27.0131158 58.5011588,27.2841156 58.5011588,27.5667474 C58.5011588,27.8493791 58.6136963,28.1203789 58.8139063,28.3198699 L62.1264008,31.6334959 C62.5432117,32.0459826 63.2144211,32.0459826 63.631232,31.6334959 C63.8313724,31.4339679 63.9438617,31.162982 63.9438617,30.8803734 C63.9438617,30.5977648 63.8313724,30.3267789 63.631232,30.1272509 L60.3178891,26.8136248 L60.3178891,26.8136248 Z M50.815002,23.4999988 C50.814066,22.9122879 50.3372864,22.4363939 49.7495748,22.4365507 L45.0654274,22.4365507 C44.7830177,22.4359498 44.5119731,22.547735 44.3120933,22.7472436 C44.1122134,22.9467521 43.9999244,23.2175885 44.0000002,23.4999988 C43.9998502,23.7826916 44.112025,24.0538616 44.3118395,24.2538351 C44.511654,24.4538087 44.7827346,24.5661993 45.0654274,24.5662743 L49.7495748,24.5662743 C50.0322907,24.5662743 50.3034149,24.4539079 50.5032456,24.253918 C50.7030764,24.0539282 50.8152271,23.7827146 50.815002,23.4999988 L50.815002,23.4999988 Z M65.9354165,22.4365507 L61.2495724,22.4365507 C60.662311,22.4367068 60.1862805,22.9127373 60.1861244,23.4999988 C60.1857491,23.7826626 60.2977739,24.0538776 60.4975149,24.2538838 C60.6972559,24.45389 60.9683221,24.5662745 61.2509861,24.5662743 L65.9351337,24.5662743 C66.2177977,24.5662745 66.4888639,24.45389 66.6886049,24.2538838 C66.8883459,24.0538776 67.0003707,23.7826626 66.9999954,23.4999988 C67.0008263,23.2175047 66.8888962,22.9463577 66.6890357,22.7467096 C66.4891753,22.5470614 66.2179095,22.4354195 65.9354165,22.4365507 L65.9354165,22.4365507 Z M50.6812581,26.8136248 L47.3684807,30.1272509 C46.9525805,30.5432046 46.9525805,31.2175422 47.3684807,31.6334959 C47.7838504,32.0460381 48.4587906,32.0488657 48.8744428,31.6334959 L52.1869374,28.3198699 C52.3871474,28.1203789 52.4996848,27.8493791 52.4996848,27.5667474 C52.4996848,27.2841156 52.3871474,27.0131158 52.1869374,26.8136248 C51.770984,26.3982573 51.0972115,26.3982573 50.6812581,26.8136248 L50.6812581,26.8136248 Z M60.3195856,20.1894832 L63.6315148,16.8727467 C64.0482982,16.4604874 64.0482982,15.7846988 63.6315148,15.3662189 C63.2146409,14.9538856 62.5435576,14.9538856 62.1266836,15.3662189 L58.8141891,18.6798449 C58.6139124,18.8799896 58.5013871,19.1515233 58.5013871,19.434664 C58.5013871,19.7178047 58.6139124,19.9893384 58.8141891,20.1894832 C59.2300455,20.6048182 59.9037291,20.6048182 60.3195856,20.1894832 L60.3195856,20.1894832 Z"/>
      <path fill="#A5EDD8" d="M148.000244,33 C147.754429,32.9999995 147.518707,33.0977667 147.345051,33.2717455 C147.171395,33.4457243 147.074066,33.6816274 147.074523,33.927442 L147.073294,38.0001224 C147.073294,38.5095762 147.489069,38.924614 148.001227,38.9275644 C148.511419,38.9275644 148.925719,38.5095762 148.926457,38.0001224 L148.926457,33.927442 C148.926728,33.4155974 148.512088,33.0004073 148.000244,33 L148.000244,33 Z M147.999752,47.0753839 C147.754301,47.0751229 147.518799,47.1723778 147.345054,47.3457536 C147.17131,47.5191295 147.073554,47.7544242 147.073294,47.9998755 L147.074523,52.0755063 C147.074523,52.3209099 147.172093,52.5562445 147.345735,52.7296557 C147.519377,52.9030669 147.754841,53.0003243 148.000244,52.9999979 C148.24573,53.0005205 148.481333,52.903334 148.655056,52.7298874 C148.82878,52.5564407 148.926342,52.3209927 148.926211,52.0755063 L148.926211,47.9998755 C148.926146,47.754364 148.828453,47.5189554 148.654666,47.3455371 C148.480879,47.1721188 148.245263,47.0749269 147.999752,47.0753839 L147.999752,47.0753839 Z M143.80979,40.1212897 C144.170735,40.4822349 144.757147,40.4797761 145.11883,40.118585 C145.293001,39.9451048 145.390908,39.7094 145.390908,39.4635729 C145.390908,39.2177458 145.293001,38.982041 145.11883,38.8085608 L142.2384,35.9271469 C141.875456,35.5687467 141.291812,35.5687467 140.928868,35.9271469 C140.567185,36.2910424 140.567185,36.8786847 140.928868,37.2371711 L143.80979,40.1212897 L143.80979,40.1212897 Z M152.189469,45.8814129 C152.016077,45.70792 151.780847,45.6104441 151.535563,45.6104441 C151.290279,45.6104441 151.055049,45.70792 150.881658,45.8814129 C150.707562,46.0548833 150.609703,46.2905353 150.609703,46.536302 C150.609703,46.7820688 150.707562,47.0177208 150.881658,47.1911912 L153.762088,50.0726051 C154.124532,50.4312892 154.708192,50.4312892 155.070637,50.0726051 C155.244672,49.8991025 155.342488,49.6634626 155.342488,49.417716 C155.342488,49.1719694 155.244672,48.9363295 155.070637,48.7628268 L152.189469,45.8814129 L152.189469,45.8814129 Z M143.926089,42.999999 C143.925275,42.488946 143.510684,42.0751251 142.99963,42.0752614 L138.926459,42.0752614 C138.680885,42.0747389 138.445194,42.1719435 138.271385,42.3454292 C138.097577,42.5189149 137.999934,42.7544247 138,42.999999 C137.99987,43.2458188 138.097413,43.4816188 138.271165,43.6555088 C138.444917,43.8293989 138.680639,43.9271298 138.926459,43.927195 L142.99963,43.927195 C143.24547,43.9271951 143.48123,43.8294851 143.654996,43.6555809 C143.828762,43.4816767 143.926284,43.2458388 143.926089,42.999999 L143.926089,42.999999 Z M157.074275,42.0752614 L152.999628,42.0752614 C152.488966,42.0753972 152.075027,42.4893368 152.074891,42.999999 C152.074564,43.2457935 152.171977,43.4816327 152.345665,43.6555511 C152.519353,43.8294696 152.755063,43.9271952 153.000857,43.927195 L157.074029,43.927195 C157.319824,43.9271952 157.555534,43.8294696 157.729222,43.6555511 C157.902909,43.4816327 158.000322,43.2457935 157.999996,42.999999 C158.000719,42.7543519 157.903388,42.5185719 157.729596,42.3449648 C157.555805,42.1713577 157.319921,42.0742778 157.074275,42.0752614 L157.074275,42.0752614 Z M143.80979,45.8814129 L140.929114,48.7628268 C140.567461,49.1245258 140.567461,49.7109062 140.929114,50.0726051 C141.290305,50.4313375 141.877209,50.4337962 142.238646,50.0726051 L145.119076,47.1911912 C145.293172,47.0177208 145.39103,46.7820688 145.39103,46.536302 C145.39103,46.2905353 145.293172,46.0548833 145.119076,45.8814129 C144.757377,45.5202237 144.171488,45.5202237 143.80979,45.8814129 L143.80979,45.8814129 Z M152.190944,40.1212897 L155.070882,37.2371711 C155.433303,36.8786847 155.433303,36.2910424 155.070882,35.9271469 C154.708383,35.5685962 154.124833,35.5685962 153.762334,35.9271469 L150.881904,38.8085608 C150.70775,38.9825997 150.609902,39.2187159 150.609902,39.4649252 C150.609902,39.7111345 150.70775,39.9472508 150.881904,40.1212897 C151.243518,40.4824506 151.82933,40.4824506 152.190944,40.1212897 L152.190944,40.1212897 Z"/>
    </g>
    <g transform="translate(42 44)">
      <path fill="#F97800" d="M54,115.149536 C49.291863,120.510478 45.1705902,126.284619 42.3219523,133.287378 C41.7323855,134.7367 41.2427925,136.221715 40.8531733,137.742423 C39.7586852,139.393357 39.0056567,140.518881 38.5940878,141.118996 C36.4395163,144.260611 30.7369341,143.354695 27.9417824,141.118996 C25.1466307,138.883297 25.5673808,135.690628 27.9417824,134.651734 C30.316184,133.61284 29.1650306,130.76449 30.7369341,126.063941 C32.3088376,121.363392 34.6915124,121.453627 38.5940878,118.532851 C41.1958048,116.585668 44.3021855,114.741384 47.91323,113 L54,115.149536 Z"/>
      <path fill="#FF7B00" d="M73.279518,124 C110.006454,124 140,101.81692 140,70.9284761 C140,40.0400317 110.226936,15 73.5,15 C36.7730641,15 7,40.0400317 7,70.9284761 C7,101.81692 36.5525822,124 73.279518,124 Z" transform="rotate(7 73.5 69.5)"/>
      <path fill="#FF7B00" d="M56.2026048,111.347869 C50.2485962,117.588134 44.9161661,124.139239 41.4974847,132.536372 C39.2183638,138.13446 38.4991299,144.289003 39.3397832,151 L109.99874,151 C110.062606,137.903753 107.698083,128.169714 102.905171,121.797882 C95.7158034,112.240134 62.1566133,105.107603 56.2026048,111.347869 Z"/>
      <use fill="#000" filter="url(#feedback-image-a)" xlink:href="#feedback-image-b"/>
      <use fill="#F97800" xlink:href="#feedback-image-b"/>
      <path fill="#FFF" d="M19.4845882,74.7150133 C40.020873,72.5816342 56.910002,71.7067939 70.1519753,72.0904924 C83.2789922,72.4708599 98.8129948,74.0763654 116.753983,76.9070091 L116.753984,76.9070005 C118.936135,77.2512899 120.426016,79.299374 120.081726,81.4815246 C120.063428,81.5975028 120.040032,81.712619 120.011606,81.826539 C114.56415,103.65794 97.0191077,114.715016 67.3764781,114.997768 C37.5839989,115.28195 20.4471289,103.425316 15.965868,79.4278661 L15.9658682,79.4278661 C15.5603457,77.2562662 16.9920343,75.1670957 19.1636342,74.7615732 C19.2699454,74.7417208 19.3770181,74.726188 19.4845882,74.7150133 Z" transform="rotate(11 68.014 93.503)"/>
      <path fill="#FF7B00" d="M56 20.5891092C52.916975 6.92019121 48.4785057.0573525257 42.6845922.000593182148 36.8906786-.0561661614 28.9958146 3.96038876 19 12.050258 28.3894217 13.3418952 34.3372297 14.6918744 36.8434239 16.1001958 39.3496181 17.5085171 42.0316163 20.1417852 44.8894183 24L56 20.5891092zM122 40.8236678C124.022466 30.5555275 126.90045 24.9763768 130.633953 24.0862157 136.234207 22.7509741 156.820787 37.2877378 159.709821 42.5744357 162.598854 47.8611336 143.045005 42.5744357 139.643069 42.5744357 137.375112 42.5744357 134.768855 43.3829572 131.8243 45L122 40.8236678z"/>
      <g transform="rotate(16 -198.365 268.192)">
        <ellipse cx="8" cy="6.5" fill="#333" rx="8" ry="6.5"/>
        <path stroke="#FFF" stroke-linecap="round" d="M4.85714286,3.20833333 L3.14285714,4.95833333"/>
      </g>
      <path stroke="#333" stroke-linecap="round" stroke-width="2" d="M51.4532259,101.676052 C52.6039159,104.814439 57.6039159,106.481105 66.4532259,106.676052 C75.3025359,106.870998 82.295528,103.538902 87.4322022,96.6797622" transform="rotate(12 69.443 101.682)"/>
      <path stroke="#333" stroke-linecap="round" d="M87,96 C87.7027995,97.9135742 88.5086263,99.281901 89.4174805,100.10498 C90.3263346,100.92806 91.6191406,101.836589 93.2958984,102.830566"/>
      <path stroke="#333" stroke-linecap="round" stroke-linejoin="round" stroke-width="2" d="M54,38 C56.9935966,38 63.846318,39.0157819 64,42"/>
      <path stroke="#333" stroke-linecap="round" stroke-linejoin="round" stroke-width="2" d="M97.9052734,44.1298828 C100.89887,44.1298828 107.751591,45.1456647 107.905273,48.1298828" transform="scale(-1 1) rotate(-21 0 601.357)"/>
      <path stroke="#333" stroke-linecap="round" stroke-linejoin="round" stroke-width="2" d="M40,46 C44.342379,46 60.4384994,51.5476118 58.8962634,53.9179025 C58.8250408,54.0273658 53.5946406,54.0273658 43.2050629,53.9179025"/>
      <g transform="translate(90 49)">
        <circle cx="10.5" cy="10.5" r="10.5" fill="#333"/>
        <circle cx="13.5" cy="7.5" r="4.5" fill="#F2DDC9"/>
        <circle cx="6.5" cy="14.5" r="1.5" fill="#F2DDC9"/>
        <circle cx="4" cy="8" r="1" fill="#F2DDC9"/>
      </g>
      <path fill="#F97800" fill-rule="nonzero" d="M5.1303924,30.4379133 C3.07687292,26.4746203 2.22968742,23.7290777 2.5888359,22.2012854 C3.33815231,19.0137462 3.17448839,19.0804371 4.64909643,17.195856 C6.12370448,15.3112748 8.93314183,12.245967 9.04469509,7.802449 C8.90662144,6.2111826 9.79231742,3.26784928 11.175684,2.52472332 C12.5590506,1.78159735 14.4000863,1.72859109 15.4801709,2.91313124 C16.1667422,3.66610127 16.6107488,4.94194623 16.8121906,6.74066612 C17.3770047,9.36096147 17.199508,12.0813326 16.3150709,14.6081259 L16.683359,14.0187418 C22.0878104,13.1807925 25.8913974,13.6829239 28.0941198,15.5251361 C31.3982034,18.2884545 30.5564746,23.3543737 30.521984,23.4855905 C28.1458676,32.5323125 23.8493432,36.6694045 17.6324106,35.8968665 C8.30701176,34.7380594 5.82173049,31.5441368 5.1303924,30.4379133 Z" transform="scale(-1 1) rotate(-32 111.45 200.484)"/>
      <use fill="#000" filter="url(#feedback-image-c)" xlink:href="#feedback-image-d"/>
      <use fill="#F97800" xlink:href="#feedback-image-d"/>
    </g>
  </g>
</svg>
