<?xml version="1.0" encoding="UTF-8"?>
<svg width="23px" height="25px" viewBox="0 0 23 25" version="1.1" xmlns="http://www.w3.org/2000/svg" xmlns:xlink="http://www.w3.org/1999/xlink">
    <!-- Generator: Sketch 52.1 (67048) - http://www.bohemiancoding.com/sketch -->
    <title>Group 3</title>
    <desc>Created with Sketch.</desc>
    <g id="Page-1" stroke="none" stroke-width="1" fill="none" fill-rule="evenodd">
        <g id="1_1_Latest-Orders" transform="translate(-48.000000, -174.000000)" fill="#999999" fill-rule="nonzero">
            <g id="Group-6-+-Group-2-+-Group-2-Copy-+-Group-2-Copy-2-Mask" transform="translate(24.000000, 72.000000)">
                <g id="Group-2" transform="translate(6.000000, 44.000000)">
                    <g id="用户" transform="translate(12.000000, 53.000000)">
                        <g id="Group-3" transform="translate(6.000000, 5.000000)">
                            <path d="M6,5.5 C6,8.53757279 8.46245533,11 11.5,11 C14.5375447,11 17,8.53754467 17,5.5 C17,2.46242721 14.5375447,0 11.5,0 C8.46242721,0 6,2.46245533 6,5.5 Z" id="Shape"></path>
                            <path d="M15.1368524,12.0000344 C14.087422,12.7415481 12.8393167,13.1715257 11.5000624,13.1715257 C10.1608081,13.1715257 8.91270276,12.7415137 7.86327239,12 C3.29437286,13.6769127 0,18.4266357 0,24.0242499 C0,24.3525589 0.0113234417,24.6779808 0.0335648023,25 L22.9664352,25 C22.9887389,24.6779808 23,24.3525589 23,24.0242499 C23,18.4266013 19.7056895,13.676947 15.1366964,12.0000344 L15.1368524,12.0000344 Z" id="Shape"></path>
                        </g>
                    </g>
                </g>
            </g>
        </g>
    </g>
</svg>