<?xml version="1.0" encoding="UTF-8"?>
<svg width="25px" height="29px" viewBox="0 0 25 29" version="1.1" xmlns="http://www.w3.org/2000/svg" xmlns:xlink="http://www.w3.org/1999/xlink">
    <!-- Generator: Sketch 52.1 (67048) - http://www.bohemiancoding.com/sketch -->
    <title>定位</title>
    <desc>Created with Sketch.</desc>
    <g id="Page-1" stroke="none" stroke-width="1" fill="none" fill-rule="evenodd">
        <g id="1_1_Latest-Orders" transform="translate(-47.000000, -483.000000)" fill="#999999" fill-rule="nonzero" stroke="#979797">
            <g id="Group-6-+-Group-2-+-Group-2-Copy-+-Group-2-Copy-2-Mask" transform="translate(24.000000, 72.000000)">
                <g id="Group-2-Copy" transform="translate(6.000000, 235.000000)">
                    <g id="Group-Copy" transform="translate(12.000000, 173.000000)">
                        <g id="定位" transform="translate(6.000000, 4.000000)">
                            <path d="M11.3504763,8.75330802 C12.734858,8.75532286 13.9254068,9.73411479 14.1951013,11.091974 C14.4647958,12.4498333 13.738668,13.8093106 12.4601356,14.3402265 C11.1816033,14.8711425 9.70606476,14.4259165 8.93457353,13.2764305 C8.16308229,12.1269445 8.31009264,10.5927254 9.28583113,9.61066066 C9.8320932,9.06085686 10.5754374,8.75218002 11.3504763,8.75330802 Z M11.3504763,7.00360875 C9.12192766,7.0069882 7.20604968,8.58399798 6.77435272,10.7703369 C6.34265576,12.9566759 7.51535122,15.1435306 9.57536583,15.9936954 C11.6353804,16.8438602 14.0090774,16.120596 15.2450017,14.2661603 C16.480926,12.4117247 16.2349191,9.94250849 14.6574079,8.36837419 C13.7820445,7.4893992 12.5909701,6.99784465 11.3504763,7.00360875 Z" id="Shape"></path>
                            <path d="M19.3640989,3.39922825 C17.2640825,1.22675418 14.3720177,-8.41818189e-06 11.3504763,-8.41818189e-06 C8.32893484,-8.41818189e-06 5.43687008,1.22675418 3.33685362,3.39922825 C-1.08300596,7.97045636 -1.08300596,15.2226823 3.33685362,19.7939104 L11.3504763,28 L19.3640989,19.7939104 C23.7839585,15.2226823 23.7839585,7.97045636 19.3640989,3.39922825 Z M18.1568064,18.6391089 L11.3504763,25.637906 L4.54414611,18.6391089 C0.786268448,14.7638113 0.786268448,8.60429729 4.54414611,4.72899971 C6.33015222,2.8881769 8.78562805,1.84927843 11.3504763,1.84927843 C13.9153245,1.84927843 16.3708003,2.8881769 18.1568064,4.72899971 C21.9146841,8.60429729 21.9146841,14.7638113 18.1568064,18.6391089 Z" id="Shape"></path>
                        </g>
                    </g>
                </g>
            </g>
        </g>
    </g>
</svg>