<?xml version="1.0" encoding="UTF-8"?>
<svg width="20px" height="27px" viewBox="0 0 20 27" version="1.1" xmlns="http://www.w3.org/2000/svg" xmlns:xlink="http://www.w3.org/1999/xlink">
    <!-- Generator: Sketch 52.1 (67048) - http://www.bohemiancoding.com/sketch -->
    <title>Shape</title>
    <desc>Created with Sketch.</desc>
    <g id="Page-1" stroke="none" stroke-width="1" fill="none" fill-rule="evenodd">
        <g id="1_1_Latest-Orders" transform="translate(-49.000000, -253.000000)" fill="#999999" fill-rule="nonzero" stroke="#999999" stroke-width="0.6">
            <g id="Group-6-+-Group-2-+-Group-2-Copy-+-Group-2-Copy-2-Mask" transform="translate(24.000000, 72.000000)">
                <g id="Group-2" transform="translate(6.000000, 44.000000)">
                    <g id="Group-Copy" transform="translate(12.000000, 133.000000)">
                        <path d="M23.8333333,11.6666667 L23,11.6666667 L23,10.8333333 C23,7.6171875 20.3828125,5 17.1666667,5 C13.9505208,5 11.3333333,7.6171875 11.3333333,10.8333333 L11.3333333,11.6666667 L10.5,11.6666667 C9.12239583,11.6666667 8,12.7890625 8,14.1666667 L8,27.5 C8,28.8776042 9.12239583,30 10.5,30 L23.8333333,30 C25.2109375,30 26.3333333,28.8776042 26.3333333,27.5 L26.3333333,14.1666667 C26.3333333,12.7864583 25.2109375,11.6666667 23.8333333,11.6666667 Z M13,10.8333333 C13,8.53645833 14.8697917,6.66666667 17.1666667,6.66666667 C19.4635417,6.66666667 21.3333333,8.53645833 21.3333333,10.8333333 L21.3333333,11.6666667 L13,11.6666667 L13,10.8333333 Z M24.6666667,27.5 C24.6666667,27.9583333 24.2916667,28.3333333 23.8333333,28.3333333 L10.5,28.3333333 C10.0416667,28.3333333 9.66666667,27.9583333 9.66666667,27.5 L9.66666667,14.1666667 C9.66666667,13.7083333 10.0416667,13.3333333 10.5,13.3333333 L11.3333333,13.3333333 L11.3333333,15 C11.3333333,15.4609375 11.7057292,15.8333333 12.1666667,15.8333333 C12.6276042,15.8333333 13,15.4609375 13,15 L13,13.3333333 L21.3333333,13.3333333 L21.3333333,15 C21.3333333,15.4609375 21.7057292,15.8333333 22.1666667,15.8333333 C22.6276042,15.8333333 23,15.4609375 23,15 L23,13.3333333 L23.8333333,13.3333333 C24.2916667,13.3333333 24.6666667,13.7083333 24.6666667,14.1666667 L24.6666667,27.5 Z" id="Shape"></path>
                    </g>
                </g>
            </g>
        </g>
    </g>
</svg>