<?xml version="1.0" encoding="UTF-8"?>
<svg width="17px" height="20px" viewBox="0 0 17 20" version="1.1" xmlns="http://www.w3.org/2000/svg" xmlns:xlink="http://www.w3.org/1999/xlink">
    <!-- Generator: Sketch 52.1 (67048) - http://www.bohemiancoding.com/sketch -->
    <title>¥</title>
    <desc>Created with Sketch.</desc>
    <g id="Page-1" stroke="none" stroke-width="1" fill="none" fill-rule="evenodd">
        <g id="1_1_Latest-Orders" transform="translate(-51.000000, -448.000000)" fill="#999999">
            <g id="Group-6-+-Group-2-+-Group-2-Copy-+-Group-2-Copy-2-Mask" transform="translate(24.000000, 72.000000)">
                <g id="Group-2-Copy" transform="translate(6.000000, 235.000000)">
                    <g id="Group" transform="translate(12.000000, 133.000000)">
                        <polygon id="¥" points="15.228 28 15.228 24.136 10.832 24.136 10.832 21.476 15.228 21.476 15.228 20.188 14.836 19.376 10.832 19.376 10.832 16.716 13.492 16.716 9.208 8.008 13.744 8.008 17.44 16.716 21.052 8.008 25.588 8.008 21.248 16.716 23.908 16.716 23.908 19.376 19.904 19.376 19.484 20.188 19.484 21.476 23.908 21.476 23.908 24.136 19.484 24.136 19.484 28"></polygon>
                    </g>
                </g>
            </g>
        </g>
    </g>
</svg>