<?xml version="1.0" encoding="UTF-8"?>
<svg width="19px" height="19px" viewBox="0 0 19 19" version="1.1" xmlns="http://www.w3.org/2000/svg" xmlns:xlink="http://www.w3.org/1999/xlink">
    <!-- Generator: Sketch 46 (44423) - http://www.bohemiancoding.com/sketch -->
    <title>plus</title>
    <desc>Created with Sketch.</desc>
    <defs></defs>
    <g id="Design-Chart" stroke="none" stroke-width="1" fill="none" fill-rule="evenodd">
        <g id="Task-Detail-edit" transform="translate(-340.000000, -33.000000)">
            <g id="head-bar">
                <g id="title">
                    <g id="titlr-bar-icon/plus-33" transform="translate(336.000000, 29.000000)">
                        <g id="plus">
                            <rect id="Rectangle-3" x="0" y="0" width="27" height="27"></rect>
                            <path d="M14,13 L14,5.5 C14,5.22385763 13.7761424,5 13.5,5 C13.2238576,5 13,5.22385763 13,5.5 L13,5.5 L13,13 L5.5,13 C5.22385763,13 5,13.2238576 5,13.5 C5,13.7761424 5.22385763,14 5.5,14 L5.5,14 L13,14 L13,21.5 C13,21.7761424 13.2238576,22 13.5,22 C13.7761424,22 14,21.7761424 14,21.5 L14,21.5 L14,14 L21.5,14 C21.7761424,14 22,13.7761424 22,13.5 C22,13.2238576 21.7761424,13 21.5,13 L14,13 Z" id="Rectangle-path" stroke="#FFFFFF" stroke-width="0.5" fill="#FFFFFF" fill-rule="nonzero" transform="translate(13.500000, 13.500000) rotate(90.000000) translate(-13.500000, -13.500000) "></path>
                        </g>
                    </g>
                </g>
            </g>
        </g>
    </g>
</svg>