<svg xmlns="http://www.w3.org/2000/svg" width="35" height="45" viewBox="0 0 35 45">
  <path fill="#FFF" d="M32.1750567,18.8672389 L28.9360035,18.8672389 L28.9360035,11.3757211 C28.9360035,5.10190942 23.8092621,0 17.5017045,0 C11.193638,0 6.06104548,5.10190942 6.06104548,11.3761746 L6.06104548,18.8671382 L2.82545207,18.8671382 C1.26512399,18.8671382 0,20.1244502 0,21.6764384 L0,42.1872732 C0,43.7416802 1.26512399,45 2.82545207,45 L32.1779569,45 C33.7382849,45 35,43.741781 35,42.1872732 L35,21.6764384 C35,20.1243494 33.7353848,18.8671382 32.1745479,18.8671382 L32.1750567,18.8672389 Z M18.1715427,33.3951418 L18.1715427,37.9573419 C18.1707709,38.163996 18.014099,38.3313828 17.8202851,38.3333333 L15.5178161,38.3333333 C15.3229892,38.3322041 15.1653526,38.164612 15.1640502,37.9574959 L15.1640502,33.3951932 C14.0824449,32.8039756 13.3333333,31.6190765 13.3333333,30.2302439 C13.3333333,28.2649253 14.8260093,26.6666667 16.6650229,26.6666667 C18.5068341,26.6666667 19.9999925,28.2648739 19.9999925,30.2297306 C20.0027419,31.6190765 19.2536303,32.8040269 18.171591,33.3946799 L18.1715427,33.3951418 Z M23.332852,20 L10,20 L10,12.3458463 C10,8.2971471 12.9938014,5 16.6691938,5 C20.3450674,5 23.3333333,8.29709431 23.3333333,12.3458463 L23.3333333,20 L23.332852,20 Z"/>
</svg>
