<svg xmlns="http://www.w3.org/2000/svg" width="50" height="50" viewBox="0 0 50 50">
  <g fill="#FF4500">
    <path d="M25,2.85208408 C27.9912088,2.85208408 30.891436,3.43727468 33.6200819,4.59139906 C36.2571188,5.70679208 38.6260028,7.30413031 40.6609077,9.33903524 C42.6958697,11.3739973 44.2932079,13.7428812 45.4085439,16.3798611 C46.5626682,19.1085641 47.1478589,22.0087343 47.1478589,24.999943 C47.1478589,27.9911517 46.5626683,30.891379 45.4085439,33.6200248 C44.2931509,36.2570047 42.6958127,38.6259458 40.6609077,40.6608507 C38.6259457,42.6958127 36.2570617,44.2931509 33.6200819,45.4084869 C30.8913789,46.5626112 27.9912087,47.1478019 25,47.1478019 C22.0087913,47.1478019 19.108564,46.5626113 16.3799181,45.4084869 C13.7428812,44.2930939 11.3739972,42.6957556 9.33909227,40.6608507 C7.30413026,38.6258887 5.70679208,36.2570047 4.59145608,33.6200248 C3.43733176,30.8913219 2.85214111,27.9911517 2.85214111,24.999943 C2.85214111,22.0087343 3.4373317,19.108507 4.59145608,16.3798611 C5.7068491,13.7428242 7.30418734,11.3739402 9.33909227,9.33903524 C11.3740543,7.30407323 13.7429383,5.70673505 16.3799181,4.59139906 C19.108564,3.43727468 22.0087912,2.85208408 25,2.85208408 L25,2.85208408 Z M25,0 C11.1928899,0 0,11.1928899 0,25 C0,38.8071101 11.1928899,50 25,50 C38.8071101,50 50,38.8071101 50,25 C50,11.1928899 38.8071101,0 25,0 L25,0 Z"/>
    <path d="M28.9953531,10.1015997 L28.0161108,29.2825526 C27.9897552,30.1672114 27.6892118,30.9048674 27.1150961,31.4941995 C26.5404207,32.084221 25.8420811,32.3788583 25.0195736,32.3788583 C24.197066,32.3788583 23.5048257,32.097376 22.9436359,31.5344113 C22.3817746,30.9714466 22.0751319,30.2212675 22.0231482,29.2825526 L21.0047362,10.1015997 C20.9521369,9.08309324 21.3376786,8.14501029 22.1602421,7.28677639 C22.9828056,6.42911693 23.9290334,6 25.0000447,6 C26.0704404,6 27.0172278,6.42222352 27.8398473,7.26667051 C28.6623548,8.11111756 29.0473928,9.05609396 28.9953531,10.1015997 Z M25.0000447,36.1185521 C26.0440848,36.1185521 26.9450996,36.5005639 27.7026974,37.2645874 C28.4598475,38.0286108 28.8386743,38.9465305 28.8386743,40.019093 C28.8386743,41.0909663 28.4598475,42.0227302 27.7026974,42.813753 C26.9450996,43.6042014 26.0440848,44 25.0000447,44 C23.955389,44 23.061145,43.6110374 22.3169209,42.8338589 C21.5726968,42.0559911 21.2005847,41.124859 21.2005847,40.0391414 C21.2005847,38.9534813 21.5726967,38.0285533 22.3169209,37.2645299 C23.061145,36.5006214 23.955333,36.1185521 25.0000447,36.1185521 Z"/>
  </g>
</svg>
