<svg xmlns="http://www.w3.org/2000/svg" width="193" height="151" viewBox="0 0 193 151">
  <g fill="none" fill-rule="evenodd">
    <g fill-rule="nonzero" transform="translate(53 33)">
      <polygon fill="#3789C9" points="25.876 50.956 .125 99.471 23.509 97.314 34.827 117.889 60.578 69.377"/>
      <g fill="#4B9FD8" transform="translate(21.198 50.92)">
        <path d="M7.62749789,52.8450307 C8.35006415,51.2929879 7.59431883,49.4386469 6.08282819,48.6349763 L4.60083005,47.8460519 C3.11883191,47.0018291 2.55478784,45.1253687 3.36214503,43.606505 C4.18056192,42.0618353 6.10494756,41.4719853 7.64961727,42.2904022 L11.8375523,44.5133994 C13.1315358,45.1991 14.7536233,44.7014141 15.4208911,43.4000575 L15.5241148,43.2009831 C16.2909199,41.9733578 15.8374727,40.3512703 14.561922,39.6766293 L2.03498252,33.0260705 C0.50874563,32.2150267 -0.239626565,30.3680589 0.471880005,28.8123295 C1.25711783,27.1570629 3.24048847,26.5045414 4.83677005,27.3524508 L16.4568152,33.5200699 C17.7507986,34.2057705 19.3728861,33.7080846 20.0585868,32.4141011 L20.1249449,32.2445192 L20.1433777,32.2076536 C20.8843768,30.8509986 20.3645715,29.1478067 18.9968568,28.4215539 L12.4790142,24.9635582 C10.9527773,24.1525145 10.2044051,22.3055466 10.9269714,20.7313844 C11.7048361,19.0945507 13.6955798,18.4235963 15.2918614,19.2715057 L22.491718,23.094471 C23.8373134,23.8096642 25.4446546,23.212441 26.141415,21.855786 C26.1524746,21.8373532 26.1524746,21.8373532 26.1598478,21.8189204 C26.1709075,21.8004876 26.1709075,21.8004876 26.1782806,21.7820548 C26.9119065,20.4438326 26.5063846,18.7775063 25.1571028,18.0659997 L17.3895155,13.9444228 C15.8817114,13.1444387 15.1333392,11.2974709 15.8448458,9.74174151 C16.6300836,8.08647493 18.6134543,7.43395336 20.2097358,8.28186274 L39.3724879,18.4530888 L13.6218486,66.9682518 L6.53627538,54.0689695 C6.98234945,53.7592982 7.3804982,53.3758957 7.62749789,52.8450307 Z"/>
        <polygon points="52.847 .035 78.598 48.55 55.214 46.394 43.896 66.968 18.145 18.457"/>
      </g>
      <path fill="#3789C9" d="M71.0953585,103.765676 C70.3727923,102.213633 71.1285376,100.359292 72.6400283,99.5556213 L74.1220264,98.766697 C75.6040245,97.9224741 76.1680686,96.0460138 75.3607114,94.52715 C74.5422945,92.9824803 72.6179089,92.3926303 71.0732392,93.2110472 L66.8853041,95.4340444 C65.5913207,96.1197451 63.9692332,95.6220591 63.3019653,94.3207025 L63.1987416,94.1216282 C62.4319366,92.8940028 62.8853838,91.2719153 64.1609344,90.5972744 L76.6915605,83.9467156 C78.2177974,83.1356718 78.9661696,81.288704 78.254663,79.7329746 C77.4694252,78.077708 75.4860545,77.4251864 73.889773,78.2730958 L62.2697278,84.4407149 C60.9757444,85.1264156 59.3536569,84.6287296 58.6679562,83.3347462 L58.6015981,83.1651643 L58.5831653,83.1282987 C57.8421662,81.7716437 58.3619715,80.0684518 59.7296862,79.3421989 L66.2475288,75.8842033 C67.7737657,75.0731595 68.5221379,73.2261917 67.7995716,71.6520295 C67.0217069,70.0151957 65.0309632,69.3442413 63.4346816,70.1921507 L56.2274518,74.0188026 C54.8818565,74.7339958 53.2745152,74.1367726 52.5777549,72.7801176 C52.5666952,72.7616848 52.5666952,72.7616848 52.5593221,72.743252 C52.551949,72.7248192 52.5482624,72.7248192 52.5408893,72.7063864 C51.8072633,71.3681642 52.2127852,69.7018379 53.5620671,68.9903313 L61.3296544,64.8687544 C62.8374585,64.0687704 63.5858307,62.2218025 62.8743241,60.6660731 C62.0890863,59.0108065 60.1057156,58.358285 58.509434,59.2061944 L39.346682,69.3774204 L65.0973213,117.892583 L72.1939542,104.993301 C71.740507,104.679943 71.3423582,104.296541 71.0953585,103.765676 Z"/>
      <path fill="#FFDB70" d="M92.9640475,43.003752 C92.9640475,46.7050608 89.2258731,49.8681315 88.3116056,53.2818884 C87.3678456,56.8136153 88.9973062,61.4181319 87.2056368,64.5111579 C85.3918481,67.6484226 80.5735108,68.529511 78.0260961,71.0732392 C75.4786814,73.6206539 74.6012795,78.4353046 71.4640148,80.2527799 C68.3709888,82.0407627 63.7701588,80.4113021 60.2347453,81.3587487 C56.8209884,82.2730162 53.6579177,86.0111906 49.956609,86.0111906 C46.2553002,86.0111906 43.0922295,82.2730162 39.6784726,81.3587487 C36.1467457,80.4149886 31.5422291,82.0444493 28.4492031,80.2527799 C25.3119384,78.4389911 24.4308499,73.6206539 21.8871218,71.0732392 C19.3397071,68.5258245 14.5250564,67.6484226 12.7075811,64.5111579 C10.9195982,61.4181319 12.5490589,56.8173018 11.6016123,53.2818884 C10.6873448,49.8681315 6.94917038,46.7050608 6.94917038,43.003752 C6.94917038,39.3024432 10.6873448,36.1393726 11.6016123,32.7256157 C12.5453723,29.1938887 10.9159117,24.5893721 12.7075811,21.4963462 C14.5213698,18.3590814 19.3397071,17.477993 21.8871218,14.9342648 C24.4345365,12.3868501 25.3119384,7.57219945 28.4492031,5.75472412 C31.5422291,3.96674129 36.1430591,5.59620193 39.6784726,4.64875536 C43.0959161,3.73817441 46.2589867,0 49.9602955,0 C53.6616043,0 56.824675,3.73817441 60.2384319,4.65244192 C63.7701588,5.59620193 68.3746754,3.96674129 71.4677014,5.75841068 C74.6049661,7.57219945 75.4860545,12.3905367 78.0297827,14.9379514 C80.5771974,17.4853661 85.3918481,18.362768 87.2093234,21.5000327 C88.9973062,24.5930587 87.3678456,29.1938887 88.3152922,32.7293022 C89.2258731,36.1393726 92.9640475,39.3024432 92.9640475,43.003752 Z"/>
      <path fill="#FFF" d="M55.6154825,38.2702057 L29.4630078,38.2702057 C27.4280253,38.2702057 25.761699,36.6038794 25.761699,34.5688969 L25.7911915,34.3145241 L25.7911915,34.2592257 C25.761699,32.1136463 27.5165028,30.3588425 29.6620822,30.3588425 L47.7889102,30.3588425 C50.192549,30.3588425 52.3086359,28.5782328 52.4524118,26.1782806 C52.5666952,23.6640449 50.5575186,21.5442715 48.043283,21.5442715 L28.8436653,21.5442715 C26.7238918,21.5442715 25.1423565,19.7636618 25.1681624,17.6438883 C25.1681624,17.6143958 25.1681624,17.6143958 25.1681624,17.5885899 C25.1681624,17.5627839 25.1681624,17.5590974 25.1681624,17.5332914 C25.1386699,15.413518 26.7238918,13.6329083 28.8436653,13.6329083 L48.9354311,13.6329083 C51.3095774,13.6329083 53.4293509,11.8522986 53.5694402,9.47815229 C53.6837237,6.93442413 51.6745471,4.84414318 49.1603114,4.84414318 L38.6093695,4.84414318 C35.2545976,5.2939038 31.2436175,4.14369629 28.4528897,5.75841068 C25.3156249,7.57219945 24.4382231,12.3905367 21.8908084,14.9379514 C19.3433936,17.4853661 14.528743,18.362768 12.7112676,21.5000327 C10.9232848,24.5930587 12.5490589,29.1938887 11.6052989,32.7293022 C10.6910314,36.1430591 6.95285695,39.3061298 6.95285695,43.0074386 C6.95285695,46.7087474 10.6910314,49.871818 11.6052989,53.2855749 C12.5490589,56.8173018 10.9195982,61.4218184 12.7112676,64.5148444 C14.5250564,67.6521091 19.3433936,68.5331976 21.8908084,71.0769257 C24.4382231,73.6243404 25.3156249,78.4389911 28.4528897,80.2564665 C31.2436175,81.8711808 35.2545976,80.7209733 38.6093695,81.170734 L53.1307393,81.170734 C55.5048856,81.170734 57.624659,79.3901243 57.7647484,77.015978 C57.8790318,74.4722498 55.8698553,72.3819689 53.3556196,72.3819689 L32.1025866,72.3782823 C29.5957241,72.3782823 27.5791743,70.2806282 27.7118906,67.7442732 C27.8372337,65.3664404 29.9717534,63.5821441 32.3532728,63.5821441 L40.5927401,63.5821441 C42.9631998,63.5120994 44.8728392,61.5729675 44.8728392,59.1877615 C44.8728392,56.7583168 42.8931551,54.7786328 40.4637104,54.7786328 L27.9736365,54.7786328 C25.938654,54.7786328 24.2723278,53.1123065 24.3018203,51.077324 L24.3018203,50.7602796 C24.1617309,48.7547896 25.7727587,47.0589708 27.7782487,47.0589708 L55.3611096,47.0589708 C57.7610618,47.0589708 59.8808353,45.2783611 60.0246112,42.9042148 C60.1352081,40.3604867 58.1297181,38.2702057 55.6154825,38.2702057 Z" opacity=".25"/>
      <path fill="#EC9922" d="M49.9602955,73.7165045 C33.0242272,73.7165045 19.247543,59.9361337 19.247543,43.003752 C19.247543,26.0713703 33.0242272,12.2909995 49.9602955,12.2909995 C66.8963638,12.2909995 80.673048,26.0713703 80.673048,43.003752 C80.673048,59.9361337 66.8963638,73.7165045 49.9602955,73.7165045 Z"/>
      <path fill="#E18B26" d="M80.673048,43.003752 C80.673048,26.6649068 67.8364373,13.3011176 51.7224724,12.379477 L48.8616999,12.379477 C46.9741799,12.379477 45.2894208,13.795117 45.1751373,15.682637 C45.0866598,17.7028733 46.6792549,19.3691996 48.6810583,19.3691996 L65.580261,19.3728861 C67.5746913,19.3728861 69.178346,21.0392124 69.0714357,23.0594487 C68.9718985,24.9506553 67.2760798,26.3699818 65.3811866,26.3699818 L58.830165,26.3699818 C56.9463315,26.4252803 55.4237812,27.9662634 55.4237812,29.8648431 C55.4237812,31.7966019 56.9979434,33.3707641 58.9297022,33.3707641 L68.8613017,33.3707641 C70.4797026,33.3707641 71.8031786,34.6979266 71.7810592,36.312641 L71.7810592,36.5596407 C71.8916561,38.1559223 70.6124189,39.5015176 69.0161373,39.5015176 L47.0847767,39.5015176 C45.1751373,39.5015176 43.4903783,40.9171576 43.3760948,42.8046776 C43.2876173,44.8249139 44.8802123,46.4912402 46.8820158,46.4912402 L67.6742285,46.4912402 C69.2926295,46.4912402 70.6161054,47.8184027 70.6161054,49.4331171 L70.593986,49.635878 L70.593986,49.6801168 C70.6161054,51.3869952 69.2225848,52.7805159 67.5157063,52.7805159 L53.1012468,52.7805159 C51.1916074,52.7805159 49.5068483,54.1961559 49.3925649,56.1057953 C49.3040874,58.1039122 50.8966824,59.7923578 52.8984859,59.7923578 L68.1645413,59.7923578 C69.8493004,59.7923578 71.1064182,61.2079978 71.0842989,62.8927569 C71.0842989,62.9148763 71.0842989,62.9148763 71.0842989,62.9369957 C71.0842989,62.959115 71.0842989,62.959115 71.0842989,62.9812344 C71.1064182,64.6659935 69.8493004,66.0816335 68.1645413,66.0816335 L52.1906659,66.0816335 C50.3031458,66.0816335 48.6183868,67.4972735 48.5041033,69.3847935 C48.4156258,71.4087164 50.0082208,73.0713561 52.0100243,73.0713561 L56.2237653,73.0713561 C70.1700314,70.1626582 80.673048,57.7868678 80.673048,43.003752 Z"/>
    </g>
    <path fill="#F8E71C" fill-rule="nonzero" d="M33,101.5 C33,103.431703 31.433704,105 29.5001405,105 C27.566015,105 26,103.431703 26,101.5 C26,99.5649242 27.566296,98 29.5001405,98 C31.433704,98 33,99.564924 33,101.5 Z"/>
    <path fill="#A5EDD8" fill-rule="nonzero" d="M94 3.5C94 5.43170324 92.433704 7 90.5001405 7 88.566015 7 87 5.43170324 87 3.5 87 1.56492425 88.566296 0 90.5001405 0 92.433704 0 94 1.56492397 94 3.5zM33 54.5C33 56.4317032 31.433704 58 29.5001405 58 27.566015 58 26 56.4317032 26 54.5 26 52.5649242 27.566296 51 29.5001405 51 31.433704 51 33 52.564924 33 54.5z"/>
    <polygon fill="#4A90E2" points="31.849 14.183 26.702 24.205 38.3 24.205" transform="rotate(29 32.501 19.194)"/>
    <polygon fill="#FF7B00" points="163.266 51.109 157.925 57.475 166.399 57.337" transform="rotate(50 162.162 54.292)"/>
    <polygon fill="#4A90E2" points="188 102.923 188 110.381 193.846 110.381 189.503 99" transform="rotate(32 190.923 104.69)"/>
    <polygon fill="#4A90E2" points="154 10.923 154 18.381 159.846 18.381 155.503 7"/>
    <polygon fill="#4A90E2" points="10 132.381 15.846 132.381 11.503 121" transform="rotate(-79 12.923 126.69)"/>
    <polygon fill="#FF7B00" points="4.12 75 0 83.021 9.283 83.021"/>
  </g>
</svg>
