<svg xmlns="http://www.w3.org/2000/svg" width="36" height="42" viewBox="0 0 36 42">
  <g fill="none">
    <polygon fill="#3188CB" points="9.371 18 0 35.396 8.51 34.623 12.629 42 22 24.605"/>
    <g fill="#2C9EEB" transform="translate(8 18)">
      <path d="M2.70341697,18.9295632 C2.95951641,18.3736076 2.69165731,17.7093661 2.1559391,17.421484 L1.63067394,17.1388843 C1.10540878,16.8364761 0.905494424,16.1643112 1.19164634,15.6202406 C1.48171815,15.0669261 2.16377888,14.8556365 2.71125675,15.1488008 L4.19558816,15.9450983 C4.65421521,16.1907224 5.2291323,16.0124468 5.46563229,15.5462892 L5.50221792,15.474979 C5.77399691,15.0352326 5.61328145,14.4541864 5.16118755,14.2125239 L0.721259628,11.8302342 C0.180314907,11.5397111 -0.0849309344,10.8781107 0.167248609,10.3208345 C0.445560748,9.72790314 1.14852756,9.49416407 1.71429825,9.79789281 L5.83279525,12.0071892 C6.2914223,12.2528133 6.86633939,12.0745378 7.10937253,11.6110213 L7.13289186,11.5502755 C7.40205759,11.051104 7.2178228,10.4410054 6.73306316,10.1808551 L4.42294174,8.94217011 C3.88199702,8.65164697 3.61675118,7.99004656 3.87285061,7.42616756 C4.14854949,6.83983904 4.85412956,6.59949718 5.41990025,6.90322591 L7.97174817,8.27264634 C8.44866803,8.52883492 9.01835861,8.31490425 9.26531163,7.82893827 C9.53839725,7.3231639 9.39466798,6.72627091 8.91644148,6.47140288 L6.16337258,4.99501712 C5.62896101,4.70845566 5.36371517,4.04685525 5.61589471,3.48957905 C5.89420685,2.89664774 6.59717366,2.66290867 7.16294435,2.9666374 L13.9548058,6.61006165 L4.82799696,23.9886275 L2.31665457,19.3679891 C2.47475677,19.257062 2.61587278,19.1197238 2.70341697,18.9295632 Z"/>
      <polygon points="18.731 .013 27.857 17.391 19.569 16.619 15.558 23.989 6.431 6.611"/>
    </g>
    <path fill="#3188CB" d="M25.3449251,36.9767049 C25.0867266,36.4248241 25.3567811,35.7654511 25.8968902,35.4796791 L26.4264606,35.1991506 C26.9560309,34.8989589 27.1575838,34.2317206 26.8690865,33.6916377 C26.5766372,33.1423787 25.8889862,32.9326377 25.3370211,33.2236533 L23.8405237,34.0141144 C23.3781377,34.2579382 22.7985084,34.0809693 22.56007,33.6182284 L22.5231845,33.5474408 C22.249178,33.1109175 22.4112107,32.53413 22.8670101,32.2942388 L27.344646,29.9294099 C27.8900244,29.6410161 28.1574443,28.9842649 27.9031978,28.4310732 C27.6226045,27.8424877 26.9138761,27.6104618 26.3434682,27.9119644 L22.1912151,30.1050679 C21.728829,30.3488917 21.1491998,30.1719228 20.9041747,29.7118037 L20.8804626,29.6515032 L20.8738759,29.6383944 C20.6090907,29.1559902 20.7948355,28.5503633 21.2835684,28.2921198 L23.6126241,27.0625137 C24.1580025,26.7741199 24.4254223,26.1173686 24.1672239,25.5576225 C23.8892653,24.9755915 23.1779021,24.7370112 22.6074943,25.0385137 L20.0320961,26.399208 C19.5512673,26.6535189 18.9769075,26.4411562 18.7279303,25.958752 C18.7239783,25.9521976 18.7239783,25.9521976 18.7213437,25.9456432 C18.718709,25.9390888 18.7173916,25.9390888 18.714757,25.9325344 C18.4526065,25.4566847 18.5975138,24.8641666 19.0796599,24.6111666 L21.8552936,23.1456019 C22.3940853,22.8611408 22.6615052,22.2043895 22.4072587,21.6511978 C22.1266655,21.0626124 21.417937,20.8305865 20.8475291,21.1320891 L14,24.7488091 L23.2016142,42 L25.7374922,37.4132282 C25.5754594,37.3018033 25.4331868,37.1654717 25.3449251,36.9767049 Z"/>
    <path fill="#FAED5F" d="M34,14.9993571 C34,16.2903433 32.6527516,17.3935965 32.323247,18.584287 C31.9831133,19.8161245 32.5703755,21.4221422 31.9246528,22.5009644 C31.2709583,23.5952167 29.5344163,23.9025331 28.6163209,24.7897647 C27.6982256,25.6782821 27.3820075,27.3575929 26.2513286,27.9915134 C25.1365935,28.6151472 23.4784416,28.0468047 22.2042688,28.3772663 C20.9739414,28.6961553 19.8339619,30 18.5,30 C17.1660381,30 16.0260586,28.6961553 14.7957312,28.3772663 C13.522887,28.0480905 11.8634065,28.6164331 10.7486714,27.9915134 C9.61799246,27.3588787 9.30044574,25.6782821 8.38367907,24.7897647 C7.46558375,23.9012473 5.73037031,23.5952167 5.07534716,22.5009644 C4.4309532,21.4221422 5.01821533,19.8174103 4.67675296,18.584287 C4.34724841,17.3935965 3,16.2903433 3,14.9993571 C3,13.7083708 4.34724841,12.6051177 4.67675296,11.4144272 C5.01688668,10.1825897 4.42962455,8.57657194 5.07534716,7.49774977 C5.72904166,6.40349749 7.46558375,6.09618105 8.38367907,5.20894947 C9.30177439,4.32043204 9.61799246,2.64112125 10.7486714,2.00720072 C11.8634065,1.38356693 13.5215584,1.95190948 14.7957312,1.62144786 C16.0273873,1.30384467 17.1673667,0 18.5013286,0 C19.8352906,0 20.97527,1.30384467 22.2055975,1.6227337 C23.4784416,1.95190948 25.1379222,1.38356693 26.2526573,2.00848656 C27.3833362,2.64112125 27.7008829,4.32171789 28.6176496,5.21023531 C29.5357449,6.09875273 31.2709583,6.40478334 31.9259815,7.49903562 C32.5703755,8.57785779 31.9831133,10.1825897 32.3245757,11.415713 C32.6527516,12.6051177 34,13.7083708 34,14.9993571 Z"/>
    <path fill="#FFF" d="M20.4200734,12.8242369 L11.0581037,12.8242369 C10.3296279,12.8242369 9.73312232,12.2347855 9.73312232,11.5149247 L9.74367994,11.424942 L9.74367994,11.4053806 C9.73312232,10.6463968 10.3613007,10.0256472 11.1293676,10.0256472 L17.618345,10.0256472 C18.478791,10.0256472 19.2363003,9.39576893 19.2877687,8.54680255 C19.3286794,7.6574092 18.6094416,6.9075541 17.7094044,6.9075541 L10.8363936,6.9075541 C10.0775647,6.9075541 9.5114123,6.27767581 9.52065021,5.52782071 C9.52065021,5.51738794 9.52065021,5.51738794 9.52065021,5.50825927 C9.52065021,5.4991306 9.52065021,5.49782651 9.52065021,5.48869784 C9.51009259,4.73884274 10.0775647,4.10896445 10.8363936,4.10896445 L18.0287724,4.10896445 C18.8786609,4.10896445 19.6374898,3.47908617 19.6876385,2.63924845 C19.7285493,1.73942233 19.0093114,1 18.1092743,1 L14.3322856,1 C13.1313563,1.15909969 11.69552,0.752221793 10.6965052,1.32341577 C9.57343832,1.96503091 9.25934911,3.66948416 8.34743466,4.57061437 C7.43552021,5.47174459 5.7119887,5.7821194 5.06137536,6.89190495 C4.42131963,7.98604134 5.00330844,9.61355294 4.6654646,10.8641808 C4.33817837,12.0717736 3,13.1906878 3,14.5 C3,15.8093122 4.33817837,16.9282264 4.6654646,18.1358192 C5.00330844,19.385143 4.41999993,21.0139587 5.06137536,22.1080951 C5.710669,23.2178806 7.43552021,23.5295595 8.34743466,24.4293856 C9.25934911,25.3305158 9.57343832,27.033665 10.6965052,27.6765842 C11.69552,28.2477782 13.1313563,27.8409003 14.3322856,28 L19.5305939,28 C20.3804824,28 21.1393113,27.3701217 21.18946,26.530284 C21.2303708,25.6304579 20.5111329,24.8910355 19.6110958,24.8910355 L12.0030107,24.8897315 C11.105613,24.8897315 10.3837357,24.1477009 10.431245,23.250483 C10.4761148,22.4093412 11.2402226,21.7781588 12.0927505,21.7781588 L15.0422856,21.7781588 C15.8908543,21.753381 16.5744603,21.0674266 16.5744603,20.2236766 C16.5744603,19.3642774 15.86578,18.663978 14.996096,18.663978 L10.5249438,18.663978 C9.79646804,18.663978 9.1999625,18.0745267 9.21052012,17.3546658 L9.21052012,17.2425135 C9.16037142,16.5330854 9.73708143,15.9332013 10.4549996,15.9332013 L20.329014,15.9332013 C21.1881403,15.9332013 21.9469693,15.303323 21.9984377,14.4634853 C22.0380287,13.5636592 21.3201106,12.8242369 20.4200734,12.8242369 Z" opacity=".3"/>
    <path fill="#F1A712" d="M18,26 C11.9342216,26 7,21.064458 7,15 C7,8.93554195 11.9342216,4 18,4 C24.0657784,4 29,8.93554195 29,15 C29,21.064458 24.0657784,26 18,26 Z"/>
    <path fill="#EF9321" d="M28,15.1008929 C28,9.17827856 23.5261705,4.33408249 17.910114,4 L16.9130744,4 C16.2552339,4 15.6680599,4.5131507 15.6282297,5.19735164 C15.5973934,5.92966045 16.1524463,6.53368159 16.8501171,6.53368159 L22.7398455,6.53501792 C23.4349465,6.53501792 23.993854,7.13903906 23.9565935,7.87134787 C23.9219027,8.55688514 23.3308741,9.07137217 22.6704639,9.07137217 L20.3872947,9.07137217 C19.730739,9.09141712 19.2000981,9.65000304 19.2000981,10.338213 C19.2000981,11.0384499 19.7487269,11.6090627 20.4219855,11.6090627 L23.8833573,11.6090627 C24.4474042,11.6090627 24.9086635,12.0901415 24.9009544,12.675454 L24.9009544,12.7649882 C24.9394997,13.343619 24.4936586,13.8313795 23.9373208,13.8313795 L16.2937793,13.8313795 C15.6282297,13.8313795 15.0410556,14.3445302 15.0012254,15.0287311 C14.9703891,15.7610399 15.5254421,16.365061 16.2231128,16.365061 L23.4696373,16.365061 C24.0336842,16.365061 24.4949435,16.8461398 24.4949435,17.4314523 L24.4872344,17.5049505 L24.4872344,17.5209865 C24.4949435,18.1397072 24.0092721,18.6448399 23.414389,18.6448399 L18.3906459,18.6448399 C17.7250963,18.6448399 17.1379223,19.1579906 17.0980921,19.8502096 C17.0672558,20.5745004 17.6223088,21.1865395 18.3199795,21.1865395 L23.6405217,21.1865395 C24.2276957,21.1865395 24.6658278,21.6996902 24.6581187,22.310393 C24.6581187,22.318411 24.6581187,22.318411 24.6581187,22.326429 C24.6581187,22.3344469 24.6581187,22.3344469 24.6581187,22.3424649 C24.6658278,22.9531677 24.2276957,23.4663184 23.6405217,23.4663184 L18.0732893,23.4663184 C17.4154488,23.4663184 16.8282747,23.9794691 16.7884445,24.66367 C16.7576082,25.3973152 17.3126612,26 18.0103319,26 L19.4789095,26 C24.3394772,24.9456357 28,20.459576 28,15.1008929 Z"/>
  </g>
</svg>
