<svg xmlns="http://www.w3.org/2000/svg" width="40" height="40" viewBox="0 0 40 40"><rect width="40" height="40" fill="none"/><g transform="translate(4.856 6.522)"><g transform="translate(4.621)"><path d="M10.144,22.167h0L0,17.549V4.618L10.144,0,20.289,4.618V17.549L10.144,22.167ZM1.844,6.473v9.885l7.378,3.363V9.828Zm16.6,0L11.066,9.828V19.72l7.377-3.362Zm-8.3-4.445-6.8,3.1,6.8,3.1,6.8-3.1-6.8-3.1Z" fill="#fff"/></g><path d="M3.333,0,0,1.876,12.573,7.514,25.548,1.687,22.119,0" transform="translate(2.367 15.78)" fill="none" stroke="#fff" stroke-miterlimit="10" stroke-width="1.5"/><path d="M0,.45,13.315,6.8,27.908,0" transform="translate(1.216 20.253)" fill="none" stroke="#fff" stroke-miterlimit="10" stroke-width="1.5"/><path d="M.864,0V3.347" transform="translate(27.884 17.493)" fill="none" stroke="#fff" stroke-miterlimit="10" stroke-width="1.5"/><path d="M.864,0V3.6" transform="translate(0.722 17.692)" fill="none" stroke="#fff" stroke-miterlimit="10" stroke-width="1.5"/><path d="M.376,0V3.381" transform="translate(14.39 23.67)" fill="none" stroke="#fff" stroke-miterlimit="10" stroke-width="1.5"/><path d="M.25,0V3.381" transform="translate(7.627 20.288)" fill="none" stroke="#fff" stroke-miterlimit="10" stroke-width="1.5"/><path d="M.25,0V3.381" transform="translate(22.655 19.913)" fill="none" stroke="#fff" stroke-miterlimit="10" stroke-width="1.5"/></g></svg>