<svg xmlns="http://www.w3.org/2000/svg" width="40" height="40" viewBox="0 0 40 40"><rect width="40" height="40" fill="none"/><g transform="translate(7 7)"><path d="M13.456,26a.455.455,0,0,1-.378-.117L.116,12.912A1.452,1.452,0,0,1,0,12.533V1.836A1.858,1.858,0,0,1,1.831,0H12.584a.455.455,0,0,1,.378.117l12.962,13a.293.293,0,0,1,.072.251.333.333,0,0,1-.188.245.46.46,0,0,1-.116.379L13.834,25.883A1.131,1.131,0,0,1,13.456,26ZM1.831,1.108a.567.567,0,0,0-.61.612V12.155l12.468,12.5L24.587,13.5,12.235,1.108H1.831ZM13.688,21.249a.567.567,0,0,1-.61-.612.433.433,0,0,1,.116-.35l3.517-3.556a1.4,1.4,0,0,1,.377-.117.568.568,0,0,1,.611.613.458.458,0,0,1-.117.379l-3.516,3.526A1.445,1.445,0,0,1,13.688,21.249Zm-2.3-2.39a.579.579,0,0,1-.61-.612.46.46,0,0,1,.116-.379l1.192-1.224a1.4,1.4,0,0,1,.378-.117.567.567,0,0,1,.61.612.654.654,0,0,1-.087.379l-1.22,1.225A1.412,1.412,0,0,1,11.392,18.859ZM14.3,15.915a.567.567,0,0,1-.61-.612.46.46,0,0,1,.116-.379L16.217,12.5a1.437,1.437,0,0,1,.377-.117.567.567,0,0,1,.611.612.456.456,0,0,1-.117.379L14.676,15.8A1.44,1.44,0,0,1,14.3,15.915ZM5.435,7.2A1.859,1.859,0,0,1,3.6,5.363,1.882,1.882,0,0,1,5.435,3.527a1.836,1.836,0,0,1,0,3.673Zm0-2.595a.567.567,0,0,0-.611.612.567.567,0,0,0,.611.612c.26,0,.494-.234.61-.612a.567.567,0,0,0-.61-.612Z" fill="#fff"/></g></svg>