<svg xmlns="http://www.w3.org/2000/svg" width="90" height="90" viewBox="0 0 90 90"><rect width="90" height="90" fill="none"/><g transform="translate(18 11)"><path d="M2.11,68A2.121,2.121,0,0,1,0,65.873H.211V63.534a27.335,27.335,0,0,1,4.6-15.257A26.992,26.992,0,0,1,17.086,38.223,20.5,20.5,0,0,1,7.409,15.252a20.208,20.208,0,0,1,39.182,0,20.5,20.5,0,0,1-9.677,22.971A26.985,26.985,0,0,1,49.289,48.2,27.327,27.327,0,0,1,54,63.448v2.34a2.149,2.149,0,0,1-.633,1.519,2.091,2.091,0,0,1-1.476.608h-.043a2.071,2.071,0,0,1-2.067-2v-2.34a22.782,22.782,0,1,0-45.563,0v2.3A2.121,2.121,0,0,1,2.11,68ZM27,4.319A16.038,16.038,0,1,0,42.9,20.356,15.989,15.989,0,0,0,27,4.319Z" fill="#fff"/></g></svg>