<?xml version="1.0" encoding="UTF-8"?>
<svg width="17px" height="11px" viewBox="0 0 17 11" version="1.1" xmlns="http://www.w3.org/2000/svg" xmlns:xlink="http://www.w3.org/1999/xlink">
    <!-- Generator: Sketch 46 (44423) - http://www.bohemiancoding.com/sketch -->
    <title>menu</title>
    <desc>Created with Sketch.</desc>
    <defs></defs>
    <g id="Design-Chart" stroke="none" stroke-width="1" fill="none" fill-rule="evenodd">
        <g id="Home-page-(Task-List)more-task" transform="translate(-17.000000, -37.000000)">
            <g id="head-bar">
                <g id="title">
                    <g id="titlr-bar-icon/menu" transform="translate(12.000000, 29.000000)">
                        <g id="menu">
                            <rect id="Rectangle-3" x="0" y="0" width="27" height="27"></rect>
                            <path d="M5.5,18 L21.5,18 C21.7761424,18 22,18.2238576 22,18.5 C22,18.7761424 21.7761424,19 21.5,19 L5.5,19 C5.22385763,19 5,18.7761424 5,18.5 C5,18.2238576 5.22385763,18 5.5,18 L5.5,18 Z M5.5,13 L21.5,13 C21.7761424,13 22,13.2238576 22,13.5 C22,13.7761424 21.7761424,14 21.5,14 L5.5,14 C5.22385763,14 5,13.7761424 5,13.5 C5,13.2238576 5.22385763,13 5.5,13 L5.5,13 Z M5.5,8 L21.5,8 C21.7761424,8 22,8.22385763 22,8.5 L22,8.5 C22,8.77614237 21.7761424,9 21.5,9 L5.5,9 C5.22385763,9 5,8.77614237 5,8.5 L5,8.5 L5,8.5 C5,8.22385763 5.22385763,8 5.5,8 L5.5,8 Z" id="Rectangle-path" fill="#333333" fill-rule="nonzero"></path>
                        </g>
                    </g>
                </g>
            </g>
        </g>
    </g>
</svg>