<?xml version="1.0" encoding="UTF-8"?>
<svg width="247px" height="201px" viewBox="0 0 247 201" version="1.1" xmlns="http://www.w3.org/2000/svg" xmlns:xlink="http://www.w3.org/1999/xlink">
    <title>Group 2</title>
    <g id="Page-1" stroke="none" stroke-width="1" fill="none" fill-rule="evenodd">
        <g id="2_1_Time-sheets-(blank-timesheet-only-visible-is-user-is-approved-to-add-timesheets)1" transform="translate(-64.000000, -303.000000)" fill-rule="nonzero">
            <g id="Group-2" transform="translate(64.000000, 303.000000)">
                <g id="Cancel-order-successfully">
                    <g>
                        <path d="M99.5798719,151.171814 L85.948126,151.171814 C85.948126,151.171814 86.6655863,150.294918 86.6655863,145.13319 C86.6655863,139.353648 83.4170854,138.835482 83.4170854,131.28222 C83.4170854,125.343243 85.6491842,122.772343 85.6491841,117.550826 C85.6491841,113.006911 83.8156745,108.542714 83.8156745,108.542714 L99.5798719,108.542714 C99.5798719,108.542714 97.1484786,125.841479 97.1484786,130.963348 C97.1484786,136.105147 99.5798719,151.171814 99.5798719,151.171814 L99.5798719,151.171814 Z M162.118496,151.171814 L151.137367,151.510615 C151.137367,151.510615 148.765762,151.709909 148.765762,146.56811 C148.765762,140.788569 151.954475,138.835482 151.954475,131.302149 C151.954475,125.363172 148.626256,122.114671 148.626256,116.893154 C148.626256,112.349239 149.782164,108.562643 149.782164,108.562643 L162.118496,108.562643 C162.118496,108.562643 164.589748,125.861408 164.589748,130.983278 C164.589748,136.105147 162.118496,151.171814 162.118496,151.171814 Z" id="Shape" fill="#999999"></path>
                        <path d="M171.433862,77 L74.9753085,77 C71.1289241,77 68,80.1289241 68,83.9753086 L68,150.340388 C68,154.186772 71.1289241,157.315696 74.9753085,157.315696 L80.2167548,157.315696 C80.535626,158.29224 81.1135802,159.268783 81.9904761,160.165608 C82.2097001,160.384832 82.468783,160.544268 82.7677248,160.623986 C91.5167548,162.895943 93.6890652,165.705996 94.2072308,167.180776 C94.785185,168.814991 93.8285712,170.130335 93.7687829,170.210052 C93.1908287,170.947442 93.3303349,171.963844 94.0477952,172.541798 C94.785185,173.119753 95.8215166,173.000176 96.3994707,172.262786 C97.1767195,171.266313 98.2927688,168.85485 97.3959434,166.144444 C96.1403878,162.477425 91.6761903,159.567724 84.1029982,157.53492 C83.4851851,156.79753 83.2858906,156.159788 83.2858906,155.661552 L83.2858906,155.641622 C83.2858906,154.98395 83.7044091,154.306349 84.4617283,153.708465 C84.4816578,153.688536 84.5215167,153.688536 84.5215166,153.648677 C84.7407407,153.489241 84.9798941,153.329806 85.2589064,153.190299 C85.3186949,153.150441 85.3784832,153.130511 85.458201,153.090652 C85.7770722,152.931217 86.1557319,152.81164 86.514462,152.672134 C87.0924162,152.532627 88.1486771,152.353262 89.8227512,152.353262 C92.7523807,152.353262 96.1603172,152.931217 99.9668428,154.047266 C100.604585,154.326278 101.242328,154.62522 101.88007,154.964021 C102.079365,155.063668 102.278659,155.183245 102.458024,155.282892 C103.275132,155.72134 104.07231,156.239506 104.889418,156.777601 C104.949206,156.837389 105.028924,156.857319 105.088712,156.917107 C117.883421,165.905291 116.448501,170.449206 116.46843,170.449206 C116.029982,171.266313 116.348853,172.282716 117.165961,172.721164 C117.405114,172.86067 117.684127,172.920458 117.94321,172.920458 C118.541093,172.920458 119.119047,172.601587 119.417989,172.023633 C119.956084,171.02716 121.689947,166.024867 111.087478,157.315696 L140.702645,157.315696 C130.080247,166.044797 131.834038,171.04709 132.352204,172.043562 C132.671075,172.621516 133.268959,172.960317 133.886772,172.960317 C134.145855,172.960317 134.404938,172.900529 134.624162,172.761022 C135.44127,172.322575 135.78007,171.365961 135.341622,170.548853 C135.321693,170.508994 133.826984,165.965079 146.681481,156.937037 C147.578306,156.319224 148.475132,155.781128 149.371957,155.262963 C149.531393,155.163315 149.690828,155.083597 149.850264,154.98395 C150.507936,154.62522 151.185538,154.326278 151.843209,154.027336 C155.629806,152.911287 159.037742,152.333333 161.967372,152.333333 C163.641446,152.333333 164.697707,152.532628 165.255731,152.652204 C165.614462,152.79171 165.993121,152.911287 166.331922,153.070723 C166.39171,153.090652 166.451499,153.130511 166.511287,153.150441 C166.790299,153.289947 167.049382,153.469312 167.288536,153.628747 L167.308465,153.648677 C168.085714,154.226631 168.504232,154.904232 168.504232,155.581834 L168.504232,155.601763 C168.504232,156.1 168.304938,156.717813 167.687125,157.455202 C160.094003,159.488007 155.629806,162.397707 154.39418,166.104585 C153.477425,168.814991 154.593474,171.226455 155.390652,172.222927 C155.968606,172.960317 157.024867,173.079894 157.742328,172.50194 C158.479717,171.923985 158.599294,170.867724 158.02134,170.150264 C158.00141,170.130335 157.024867,168.814991 157.582892,167.160846 C158.081128,165.666137 160.233509,162.836155 169.022398,160.564197 C169.32134,160.484479 169.600352,160.325044 169.799647,160.10582 C170.676543,159.189065 171.254497,158.212522 171.573368,157.235978 C175.359964,157.156261 178.409171,154.067195 178.409171,150.280599 L178.409171,83.9155202 C178.409171,80.1488536 175.280246,77 171.433862,77 Z M85.7571427,109.106349 L100.644444,109.106349 C101.262257,111.318518 102.358377,116.938624 99.8273367,124.033509 L99.6479716,124.531746 C98.4322749,127.939682 96.9176365,132.164726 100.285714,140.893827 C102.338448,146.214991 101.082892,149.244268 100.225926,150.559612 L100.205996,150.559612 C100.06649,150.499823 99.9070544,150.459964 99.7675483,150.380247 C97.774603,149.622927 95.8414461,149.14462 94.0278658,148.905467 L93.549559,148.845679 C92.6925924,148.746031 91.8754849,148.686243 91.0583773,148.686243 C90.8790122,148.686243 90.6996472,148.706173 90.520282,148.706173 C89.8626101,148.726102 89.2049382,148.765961 88.5871251,148.845679 C88.4276895,148.865608 88.2682538,148.865608 88.1088182,148.905467 C87.969312,148.925397 87.8497353,148.965255 87.7301586,148.965255 C88.3081127,146.195061 88.7067018,142.089594 86.8931216,139.359259 C84.9400352,136.4097 84.4816577,127.321869 86.8532627,120.466137 C87.8696648,117.496649 86.6340386,112.155555 85.7571427,109.106349 L85.7571427,109.106349 Z M151.524338,140.873897 C154.892416,132.144797 153.377777,127.899823 152.142151,124.511816 L151.962786,124.033509 C149.451675,116.938624 150.527866,111.318518 151.145679,109.106349 L166.03298,109.106349 C165.156084,112.155555 163.940387,117.496649 164.95679,120.466137 C167.328395,127.341799 166.870017,136.429629 164.93686,139.359259 C163.103351,142.109524 163.50194,146.195061 164.079894,148.965255 C163.940387,148.945326 163.820811,148.905467 163.701234,148.905467 C163.601587,148.885538 163.48201,148.885538 163.362433,148.865608 C162.664903,148.765961 161.947442,148.726102 161.190123,148.706173 C161.090476,148.706173 160.990829,148.686243 160.891181,148.686243 C158.101058,148.666314 154.932275,149.224338 151.604056,150.559612 C150.72716,149.264197 149.451675,146.214991 151.524338,140.873897 L151.524338,140.873897 Z M175.061022,150.360317 C175.061022,152.313404 173.506525,153.90776 171.573368,153.987478 C171.334215,153.349735 170.995414,152.731922 170.497178,152.153968 C170.437389,152.07425 170.357671,152.014462 170.258024,151.914814 L170.178306,151.835097 C169.939153,151.576014 169.640211,151.33686 169.361199,151.097707 C169.261552,151.037918 169.161904,150.958201 169.062257,150.878483 C168.823104,150.719047 168.564021,150.559612 168.285008,150.400176 C168.185361,150.340388 168.065784,150.26067 167.966137,150.200882 C167.926278,150.180952 167.886419,150.180952 167.84656,150.141093 C167.84656,150.141093 167.826631,150.141093 167.826631,150.121164 C167.188888,147.988712 166.232275,143.365079 167.707054,141.172839 C170.477248,136.967725 170.696472,126.763845 168.105643,119.330159 C167.408112,117.317284 168.484303,112.394709 169.520634,109.06649 L170.178306,109.06649 C171.095061,109.06649 171.85238,108.3291 171.85238,107.392416 C171.85238,106.475661 171.114991,105.718342 170.178306,105.718342 L148.495061,105.718342 C147.578306,105.718342 146.820987,106.455732 146.820987,107.392416 C146.820987,108.050088 147.199647,108.588183 147.737742,108.867196 C146.980423,111.856614 146.183245,117.735802 148.794003,125.1097 L148.973368,125.607936 C150.049559,128.637213 151.305114,132.065079 148.375485,139.618342 C146.00388,145.756613 147.259435,149.762434 148.514991,151.894885 C147.398941,152.492769 146.282892,153.150441 145.146913,153.927689 L106.663139,153.927689 C106.563492,153.867901 106.443915,153.808113 106.344268,153.728395 C105.427513,153.110582 104.510758,152.572486 103.613933,152.054321 C103.514286,151.994532 103.394709,151.914814 103.275132,151.855026 C104.530688,149.722575 105.786243,145.716755 103.414638,139.598412 C100.485009,132.04515 101.720635,128.617284 102.796825,125.607936 L102.99612,125.089771 C105.606878,117.695943 104.8097,111.816755 104.052381,108.847266 C104.590476,108.568254 104.969136,108.030158 104.969136,107.372487 C104.969136,106.455732 104.231746,105.698413 103.295062,105.698413 L81.6118164,105.698413 C80.6950616,105.698413 79.9377424,106.435802 79.9377424,107.372487 C79.9377424,108.289241 80.6751322,109.046561 81.6118164,109.046561 L82.2694884,109.046561 C83.2858906,112.374779 84.362081,117.297354 83.6844796,119.310229 C81.1733685,126.604409 81.3527336,137.027513 84.0830687,141.15291 C85.5379188,143.32522 84.6012344,147.948853 83.963492,150.101234 C83.9236331,150.121164 83.8638446,150.141093 83.8239858,150.161023 C83.6844796,150.220811 83.5848324,150.300529 83.4652556,150.400176 C83.2061726,150.539682 82.9869487,150.679188 82.7477953,150.838624 L82.4289241,151.077777 C82.1499117,151.316931 81.8708994,151.536155 81.6317459,151.775308 L81.5320986,151.874956 L81.3128747,152.09418 C81.1135802,152.333333 80.9541446,152.572486 80.7747794,152.831569 C80.7747794,152.851499 80.7548499,152.851499 80.75485,152.851499 C80.535626,153.210229 80.356261,153.568959 80.2167548,153.947619 L74.9553791,153.947619 C72.9425044,153.947619 71.3282186,152.313404 71.3282186,150.320458 L71.3282186,83.995238 C71.3282186,81.9823633 72.9624338,80.3680776 74.9553791,80.3680776 L171.413933,80.3680776 C173.426807,80.3680776 175.041093,82.0022927 175.041093,83.995238 L175.061022,150.360317 Z" id="Shape" fill="#444444"></path>
                        <g id="successful">
                            <g id="水滴">
                                <line x1="230.150754" y1="197.98995" x2="244.221106" y2="197.98995" id="Shape" fill="#FEDEBB"></line>
                                <path d="M244.401176,200 L229.970683,200 C228.959757,200 228.140704,199.100352 228.140704,197.98995 C228.140704,196.879548 228.959757,195.979899 229.970683,195.979899 L244.401176,195.979899 C245.412103,195.979899 246.231156,196.879548 246.231156,197.98995 C246.231156,199.100351 245.412103,200 244.401176,200 Z" id="Shape" fill="#A1A1A9"></path>
                                <line x1="202.01005" y1="197.98995" x2="216.080402" y2="197.98995" id="Shape" fill="#FEDEBB"></line>
                                <path d="M215.298502,200 L201.786925,200 C200.800058,200 200,199.100352 200,197.98995 C200,196.879548 200.800058,195.979899 201.786925,195.979899 L215.298502,195.979899 C216.285369,195.979899 217.085427,196.879548 217.085427,197.98995 C217.085427,199.100351 216.285369,200 215.298502,200 Z" id="Shape" fill="#A1A1A9"></path>
                                <line x1="38.1909548" y1="197.98995" x2="185.929648" y2="197.98995" id="Shape" fill="#FEDEBB"></line>
                                <path d="M186.102062,200 L38.0185411,200 C37.0036676,200 36.1809045,199.100352 36.1809045,197.98995 C36.1809045,196.879548 37.0036679,195.979899 38.0185411,195.979899 L186.102062,195.979899 C187.116961,195.979899 187.939698,196.87983 187.939698,197.98995 C187.939698,199.10007 187.116961,200 186.102062,200 L186.102062,200 Z" id="Shape" fill="#A1A1A9"></path>
                                <line x1="7.03517588" y1="197.98995" x2="22.1105528" y2="197.98995" id="Shape" fill="#FEDEBB"></line>
                                <path d="M21.305362,200 L6.83534139,200 C5.83561164,200 5.02512563,199.100352 5.02512563,197.98995 C5.02512563,196.879548 5.83561191,195.979899 6.83534139,195.979899 L21.305362,195.979899 C22.3051166,195.979899 23.1155779,196.87983 23.1155779,197.98995 C23.1155779,199.10007 22.3051166,200 21.305362,200 L21.305362,200 Z" id="Shape" fill="#A1A1A9"></path>
                                <path d="M7.03517588,105.025126 C7.03517588,106.966536 5.46100902,108.542714 3.51772916,108.542714 C1.57388442,108.542714 0,106.966536 0,105.025126 C0,103.080326 1.57416686,101.507538 3.51772916,101.507538 C5.46100902,101.507538 7.03517588,103.080326 7.03517588,105.025126 Z" id="Shape" fill="#A5EDD8"></path>
                                <path d="M156.282177,5.02512563 C154.894007,5.02512563 153.768844,3.89936199 153.768844,2.51256296 C153.768844,1.12525053 154.894006,0 156.282177,0 C157.670091,-0.000256656904 158.79397,1.12525028 158.79397,2.51256296 C158.79397,3.89961869 157.670347,5.02512563 156.282177,5.02512563 Z" id="Shape" fill="#A1A1A9"></path>
                                <path d="M68.0301508,40.0152101 C68.0301508,41.679481 66.6793324,43.0301508 65.014671,43.0301508 C63.34974,43.0301508 62,41.679481 62,40.0152101 C62,38.3512089 63.34974,37 65.014671,37 C66.6790627,37 68.0301508,38.3509392 68.0301508,40.0152101 Z" id="Shape" fill="#A5EDD8"></path>
                                <path d="M16.583332,59.2964824 C12.9809946,59.2964824 10.0502513,56.3660226 10.0502513,52.7638191 C10.0502513,49.1616156 12.9809946,46.2311558 16.583332,46.2311558 C20.185391,46.2311558 23.1155779,49.1616156 23.1155779,52.7638191 C23.1155779,56.3660226 20.1851127,59.2964824 16.583332,59.2964824 L16.583332,59.2964824 Z M16.583332,47.4357859 C13.6453523,47.4357859 11.2553906,49.8258457 11.2553906,52.7638191 C11.2553906,55.7017925 13.6456303,58.0915738 16.583332,58.0915738 C19.5207552,58.0915738 21.9104382,55.7015139 21.9104382,52.7638191 C21.9104382,49.8261243 19.5204769,47.4357859 16.583332,47.4357859 L16.583332,47.4357859 Z" id="Shape" fill="#4A90E2"></path>
                                <path d="M206.413468,48.4088786 C203.300274,48.4088786 200.767199,45.8923824 200.767199,42.7988089 C200.767199,39.7038305 203.300274,37.1859296 206.413468,37.1859296 C209.526944,37.1859296 212.060302,39.7041114 212.060302,42.7988089 C212.060302,45.8921014 209.526944,48.4088786 206.413468,48.4088786 Z M206.413468,38.4021754 C203.974818,38.4021754 201.99133,40.3744655 201.99133,42.7988089 C201.99133,45.2211857 203.975101,47.1923522 206.413468,47.1923522 C208.8524,47.1923522 210.836171,45.221186 210.836171,42.7988089 C210.836171,40.3744655 208.852117,38.4021754 206.413468,38.4021754 Z M38.028182,83.3647715 C37.0693882,83.3647721 36.2918697,82.5928382 36.2909336,81.640001 L36.2909336,79.9152305 C36.2914587,79.4157217 36.0922154,78.9364807 35.7370666,78.5830111 C35.3819178,78.2295415 34.8999788,78.030821 34.3973475,78.0305976 C33.8946383,78.030821 33.4126121,78.2295145 33.0573286,78.5829598 C32.702045,78.9364052 32.5026129,79.4156441 32.5029129,79.9152305 L32.5029129,81.640001 C32.5019768,82.5928381 31.7244585,83.364772 30.7656649,83.3647715 L29.0295475,83.3647715 C27.9837676,83.3649266 27.1359907,84.2073112 27.1356784,85.2465946 C27.1356784,86.2875254 27.9832406,87.1315084 29.0295475,87.1315084 L30.7656649,87.1315084 C31.2262296,87.1309864 31.6681107,87.3124428 31.9939649,87.6359039 C32.3198191,87.959365 32.5029132,88.3982939 32.5029129,88.855998 L32.5029129,90.5807685 C32.5029129,91.6216994 33.3510406,92.4623116 34.3973475,92.4623116 C34.8996468,92.4627584 35.3815067,92.2646778 35.7367126,91.9117311 C36.0919184,91.5587845 36.2913091,91.0799475 36.2909336,90.5807685 L36.2909336,88.855998 C36.2908582,88.398271 36.4739282,87.9592986 36.7997988,87.6358212 C37.1256694,87.3123439 37.5675942,87.1309117 38.028182,87.1315084 L39.7634511,87.1315084 C40.8101087,87.1315084 41.6585923,86.2882956 41.6585923,85.24814 C41.6585923,84.2079843 40.8101087,83.3647715 39.7634511,83.3647715 L38.028182,83.3647715 L38.028182,83.3647715 Z" id="Shape" fill="#F8E71C"></path>
                                <path d="M194.979371,83.854972 C194.59739,83.854754 194.231157,83.7024601 193.961312,83.4316243 C193.691468,83.1607886 193.540139,82.7936191 193.540648,82.4109635 L193.540648,80.970248 C193.540721,80.5526377 193.37502,80.1521386 193.080066,79.8570238 C192.785112,79.5619089 192.385117,79.3964036 191.968244,79.3969849 C191.551921,79.397132 191.152715,79.5629851 190.858484,79.8580447 C190.564253,80.1531043 190.39911,80.5531891 190.399401,80.970248 L190.399401,82.4109635 C190.399546,82.7939831 190.247725,83.1613569 189.977367,83.4321926 C189.707009,83.7030283 189.340283,83.8551177 188.957939,83.854972 L187.519764,83.854972 C186.954185,83.8474893 186.428342,84.1454685 186.143374,84.6349309 C185.858406,85.1243932 185.858406,85.7296041 186.143374,86.2190664 C186.428342,86.7085287 186.954185,87.006508 187.519764,86.9990252 L188.957939,86.9990252 C189.340305,86.9988066 189.707073,87.1508726 189.977447,87.4217241 C190.247821,87.6925756 190.399619,88.0599919 190.399401,88.4430337 L190.399401,89.8837493 C190.39911,90.3008334 190.564244,90.7009465 190.858467,90.9960496 C191.15269,91.2911528 191.551895,91.457067 191.968244,91.4572864 C192.385143,91.4577952 192.785136,91.2922288 193.080083,90.9970704 C193.375029,90.7019119 193.540721,90.3013848 193.540648,89.8837493 L193.540648,88.4430337 C193.540067,88.0603559 193.691372,87.6931441 193.961232,87.4222925 C194.231092,87.1514409 194.597368,86.9991704 194.979371,86.9990252 L196.419189,86.9990252 C197.286571,86.9987223 197.989647,86.2944036 197.98995,85.4254893 C197.98995,84.559139 197.285655,83.854972 196.419189,83.854972 L194.979371,83.854972 L194.979371,83.854972 Z" id="Shape" fill="#CCCCCC"></path>
                                <path d="M203.515987,118.290049 C202.853829,118.290049 202.316535,117.747838 202.316535,117.087173 L202.316535,115.884298 C202.316535,115.160013 201.729352,114.572864 201.005025,114.572864 C200.280698,114.572864 199.693515,115.160013 199.693515,115.884298 L199.693515,117.087173 C199.693515,117.747838 199.156221,118.290049 198.494063,118.290049 L197.291118,118.290049 C196.943629,118.289276 196.610108,118.426766 196.364123,118.67219 C196.118137,118.917615 195.979899,119.250811 195.979899,119.598281 C195.979899,119.946018 196.118045,120.279512 196.363947,120.525399 C196.609848,120.771286 196.943361,120.909424 197.291118,120.909424 L198.494063,120.909424 C199.156103,120.910386 199.692553,121.446805 199.693515,122.108806 L199.693515,123.311682 C199.693515,124.035967 200.280698,124.623116 201.005025,124.623116 C201.729352,124.623116 202.316535,124.035967 202.316535,123.311682 L202.316535,122.108806 C202.317337,121.446738 202.85388,120.910226 203.515987,120.909424 L204.718932,120.909424 C205.066712,120.909501 205.400271,120.771388 205.646189,120.525484 C205.892107,120.27958 206.030151,119.946041 206.030151,119.598281 C206.030151,119.250835 205.891811,118.917684 205.645842,118.672276 C205.399874,118.426868 205.066397,118.289353 204.718932,118.290049 L203.515987,118.290049 L203.515987,118.290049 Z" id="Shape" fill="#F8E71C"></path>
                                <path d="M176.558071,17 C176.273963,17 176.001521,17.1129967 175.800813,17.3140777 C175.600105,17.5151587 175.487614,17.7878106 175.488142,18.0719178 L175.486721,22.779036 C175.486721,23.3678519 175.967266,23.8475439 176.559207,23.8509538 C177.148876,23.8509538 177.627715,23.3678519 177.628568,22.779036 L177.628568,18.0719178 C177.628882,17.4803387 177.14965,17.0004707 176.558071,17 L176.558071,17 Z M176.557503,33.2680298 C176.273815,33.2677299 176.001627,33.3801351 175.800816,33.5805193 C175.600006,33.7809034 175.487023,34.0528521 175.486721,34.3365395 L175.488142,39.0470676 C175.488142,39.3306999 175.600912,39.6026946 175.801603,39.8031196 C176.002295,40.0035446 176.274439,40.1159527 176.558071,40.1155779 C176.841798,40.1161795 177.114104,40.0038534 177.314889,39.8033874 C177.515675,39.6029214 177.628435,39.3307956 177.628284,39.0470676 L177.628284,34.3365395 C177.628209,34.0527825 177.515298,33.7807022 177.314438,33.580269 C177.113579,33.3798358 176.841259,33.2675035 176.557503,33.2680298 L176.557503,33.2680298 Z M171.714832,25.2306363 C172.132005,25.6478092 172.809768,25.6449673 173.227794,25.2275103 C173.429097,25.0270055 173.542255,24.7545829 173.542255,24.4704611 C173.542255,24.1863393 173.429097,23.9139168 173.227794,23.713412 L169.898653,20.3831346 C169.47917,19.9689033 168.804607,19.9689033 168.385124,20.3831346 C167.967098,20.8037173 167.967098,21.4829019 168.385124,21.8972329 L171.714832,25.2306363 L171.714832,25.2306363 Z M181.399889,31.8880652 C181.199487,31.6875457 180.927613,31.5748852 180.644118,31.5748852 C180.360624,31.5748852 180.08875,31.6875457 179.888348,31.8880652 C179.687132,32.0885586 179.574029,32.3609202 179.574029,32.6449722 C179.574029,32.9290242 179.687132,33.2013858 179.888348,33.4018793 L183.217488,36.7321567 C183.636394,37.1467162 184.310976,37.1467162 184.729881,36.7321567 C184.931028,36.531626 185.044082,36.2592784 185.044082,35.9752496 C185.044082,35.6912209 184.931028,35.4188733 184.729881,35.2183426 L181.399889,31.8880652 L181.399889,31.8880652 Z M171.849249,28.5577877 C171.848308,27.9671235 171.369132,27.4888381 170.778467,27.4889932 L166.070781,27.4889932 C165.786952,27.4883917 165.514546,27.6007387 165.313662,27.8012498 C165.112777,28.0017609 164.999924,28.2739582 165,28.5577877 C164.999849,28.8419011 165.112588,29.1144337 165.313407,29.3154122 C165.514225,29.5163907 165.786668,29.629346 166.070781,29.6294214 L170.778467,29.6294214 C171.062604,29.6294214 171.33509,29.5164903 171.535925,29.3154955 C171.73676,29.1145007 171.849474,28.8419242 171.849249,28.5577877 L171.849249,28.5577877 Z M187.045645,27.4889871 L182.336254,27.4889871 C181.746041,27.4891525 181.267619,27.9675752 181.267461,28.5577877 C181.267085,28.8418719 181.379672,29.1144499 181.580417,29.3154611 C181.781162,29.5164724 182.05359,29.6294214 182.337674,29.6294214 L187.045361,29.6294214 C187.329445,29.6294214 187.601873,29.5164724 187.802618,29.3154611 C188.003363,29.1144499 188.11595,28.8418719 188.115578,28.5577877 C188.116408,28.2738741 188.003916,28.0013645 187.803051,27.8007131 C187.602186,27.6000617 187.329557,27.4878588 187.045645,27.4889871 L187.045645,27.4889871 Z M171.714832,31.8880652 L168.385408,35.2183426 C167.967418,35.6363866 167.967418,36.3141127 168.385408,36.7321567 C168.802865,37.1467719 169.481197,37.1496137 169.898938,36.7321567 L173.228078,33.4018793 C173.429294,33.2013858 173.542397,32.9290242 173.542397,32.6449722 C173.542397,32.3609202 173.429294,32.0885586 173.228078,31.8880652 C172.810034,31.4706104 172.132876,31.4706104 171.714832,31.8880652 L171.714832,31.8880652 Z M181.401594,25.2306363 L184.730166,21.8972329 C185.149043,21.4829019 185.149043,20.8037173 184.730166,20.3831346 C184.311197,19.9687292 183.636741,19.9687292 183.217772,20.3831346 L179.888632,23.713412 C179.687349,23.9145625 179.574258,24.1874606 179.574258,24.4720242 C179.574258,24.7565877 179.687349,25.0294859 179.888632,25.2306363 C180.306578,25.6480585 180.983647,25.6480585 181.401594,25.2306363 L181.401594,25.2306363 Z" id="Shape" fill="#FF7B00"></path>
                                <path d="M148.743964,40.201005 C148.496914,40.201005 148.260007,40.299263 148.085479,40.4741161 C147.91095,40.6489691 147.813132,40.8860577 147.813591,41.1331075 L147.812355,45.2262537 C147.812355,45.7382675 148.23022,46.155391 148.744952,46.1583562 C149.257707,46.1583562 149.674089,45.7382675 149.674831,45.2262537 L149.674831,41.1331075 C149.675104,40.6186909 149.25838,40.2014143 148.743964,40.201005 L148.743964,40.201005 Z M148.74347,54.3471179 C148.496785,54.3468572 148.260099,54.4446008 148.085482,54.6188479 C147.910864,54.793095 147.812617,55.029572 147.812355,55.2762568 L147.813591,59.3723681 C147.813591,59.6190049 147.911651,59.8555221 148.086166,60.0298047 C148.26068,60.2040873 148.497327,60.3018334 148.743964,60.3015075 C148.990683,60.3020307 149.22747,60.2043558 149.402067,60.0300376 C149.576663,59.8557193 149.674715,59.6190881 149.674584,59.3723681 L149.674584,55.2762568 C149.674518,55.0295115 149.576335,54.79292 149.401674,54.6186303 C149.227014,54.4443405 148.990214,54.3466602 148.74347,54.3471179 L148.74347,54.3471179 Z M144.532452,47.3580801 C144.895211,47.7208391 145.48457,47.7183679 145.848071,47.3553618 C146.023117,47.1810098 146.121516,46.9441206 146.121516,46.6970582 C146.121516,46.4499958 146.023117,46.2131066 145.848071,46.0387546 L142.953166,43.1428612 C142.588398,42.78266 142.001821,42.78266 141.637053,43.1428612 C141.273553,43.5085853 141.273553,44.0991806 141.637053,44.4594684 L144.532452,47.3580801 L144.532452,47.3580801 Z M152.95424,53.1471486 C152.779977,52.9727839 152.543565,52.8748182 152.297048,52.8748182 C152.050532,52.8748182 151.81412,52.9727839 151.639857,53.1471486 C151.464886,53.3214908 151.366536,53.5583269 151.366536,53.8053287 C151.366536,54.0523304 151.464886,54.2891666 151.639857,54.4635087 L154.534761,57.3594022 C154.899027,57.7198886 155.48562,57.7198886 155.849886,57.3594022 C156.024796,57.1850276 156.123104,56.9482036 156.123104,56.7012221 C156.123104,56.4542406 156.024796,56.2174166 155.849886,56.0430421 L152.95424,53.1471486 L152.95424,53.1471486 Z M144.649336,50.2512552 C144.648517,49.7376342 144.231843,49.3217338 143.718221,49.3218687 L139.624582,49.3218687 C139.377774,49.3213457 139.140898,49.4190387 138.966217,49.5933962 C138.791535,49.7677536 138.693401,50.004447 138.693467,50.2512552 C138.693336,50.4983104 138.79137,50.7352952 138.965995,50.9100591 C139.14062,51.084823 139.377526,51.183045 139.624582,51.1831106 L143.718221,51.1831106 C143.965297,51.1831106 144.202242,51.0849097 144.376881,50.9101315 C144.55152,50.7353534 144.649532,50.4983304 144.649336,50.2512552 L144.649336,50.2512552 Z M157.863593,49.3218634 L153.768471,49.3218634 C153.255242,49.3220072 152.839223,49.7380269 152.839085,50.2512552 C152.838758,50.498285 152.936661,50.7353093 153.111221,50.9101017 C153.285782,51.084894 153.522676,51.1831106 153.769706,51.1831106 L157.863346,51.1831106 C158.110376,51.1831106 158.34727,51.084894 158.521831,50.9101017 C158.696391,50.7353093 158.794294,50.498285 158.79397,50.2512552 C158.794692,50.0043738 158.696872,49.767409 158.522207,49.5929295 C158.347542,49.41845 158.110474,49.3208822 157.863593,49.3218634 L157.863593,49.3218634 Z M144.532452,53.1471486 L141.6373,56.0430421 C141.27383,56.4065586 141.27383,56.9958857 141.6373,57.3594022 C142.000306,57.7199371 142.59016,57.7224083 142.953413,57.3594022 L145.848318,54.4635087 C146.023288,54.2891666 146.121638,54.0523304 146.121638,53.8053287 C146.121638,53.5583269 146.023288,53.3214908 145.848318,53.1471486 C145.484801,52.7841445 144.895968,52.7841445 144.532452,53.1471486 L144.532452,53.1471486 Z M152.955723,47.3580801 L155.850133,44.4594684 C156.214375,44.0991806 156.214375,43.5085853 155.850133,43.1428612 C155.485812,42.7825087 154.899329,42.7825087 154.535009,43.1428612 L151.640104,46.0387546 C151.465075,46.213668 151.366735,46.4509708 151.366735,46.6984173 C151.366735,46.9458639 151.465075,47.1831666 151.640104,47.3580801 C152.003536,47.7210559 152.592291,47.7210559 152.955723,47.3580801 L152.955723,47.3580801 Z" id="Shape-Copy" fill="#A5EDD8"></path>
                            </g>
                        </g>
                    </g>
                </g>
                <g id="好房拓-4.0.0-iconfont_表情失望" transform="translate(108.000000, 89.000000)" fill="#333333">
                    <g id="Group">
                        <path d="M11,5.5 C11,2.4673 8.5327,0 5.5,0 C2.4673,0 0,2.4673 0,5.5 C0,8.5327 2.4673,11 5.5,11 C8.5327,11 11,8.5327 11,5.5 Z M3.66666667,5.5 C3.66666667,4.4891 4.4891,3.66666667 5.5,3.66666667 C6.5109,3.66666667 7.33333333,4.4891 7.33333333,5.5 C7.33333333,6.5109 6.5109,7.33333333 5.5,7.33333333 C4.4891,7.33333333 3.66666667,6.5109 3.66666667,5.5 Z" id="Shape"></path>
                        <path d="M34,5.5 C34,2.4673 31.5327,0 28.5,0 C25.4673,0 23,2.4673 23,5.5 C23,8.5327 25.4673,11 28.5,11 C31.5327,11 34,8.5327 34,5.5 Z M28.5,7.33333333 C27.4891,7.33333333 26.6666667,6.5109 26.6666667,5.5 C26.6666667,4.4891 27.4891,3.66666667 28.5,3.66666667 C29.5109,3.66666667 30.3333333,4.4891 30.3333333,5.5 C30.3333333,6.5109 29.5109,7.33333333 28.5,7.33333333 Z" id="Shape"></path>
                        <path d="M4.89735985,30 C5.13915858,30 5.38497717,29.9549949 5.62230095,29.8600006 C9.33127197,28.3753467 13.231983,27.6379674 17.2074787,27.6656008 C21.0511532,27.6932342 24.8094245,28.4314931 28.377776,29.859854 C29.3452743,30.2474545 30.4544539,29.8032678 30.8551511,28.8681301 C31.2559242,27.933139 30.7965218,26.861227 29.8289476,26.473993 C25.8071855,24.8640726 21.5700951,24.0320654 17.2356178,24.0008404 C12.7492199,23.969762 8.35141069,24.800743 4.17097766,26.4741396 C3.20347936,26.8613736 2.74407694,27.9333589 3.14484999,28.86835 C3.44717425,29.5740645 4.15322957,30 4.89735985,30 Z" id="Shape"></path>
                    </g>
                </g>
            </g>
        </g>
    </g>
</svg>