<svg xmlns="http://www.w3.org/2000/svg" width="46" height="46" viewBox="0 0 46 46">
  <g fill="none" fill-rule="evenodd">
    <circle cx="23" cy="23" r="23" fill="#FD7E70"/>
    <path fill="#FFF" d="M22.5670786,14.2931174 C21.091761,14.2950839 19.7606205,13.4078883 19.1946708,12.0454367 C18.6287596,10.6829852 18.9395172,9.11373471 19.9820338,8.06986848 C21.0245504,7.02596369 22.5933767,6.71308531 23.9565224,7.27722269 C25.3197837,7.84132151 26.2087146,9.17130526 26.2087146,10.6466228 C26.2087146,12.6548825 24.5849783,14.2851354 22.5767572,14.2931174 L22.5670786,14.2931174 Z M33.9763425,30.8550031 C34.4605829,31.3392049 27.637297,25.1551719 27.637297,25.1551719 C27.637297,25.1551719 27.1821311,24.8791572 27.1821311,26.719371 L27.1821311,30.9809025 L31.9085458,30.9809025 C33.5390686,31.0486144 34.8233584,32.3949863 34.8141039,34.0269359 C34.8198494,35.6467004 33.5279247,36.9730594 31.9085458,37.0100002 L13.1045321,37.0100002 C11.4851532,36.9730594 10.1932285,35.6467004 10.1988968,34.0269359 C10.1897195,32.3949863 11.4740092,31.0486144 13.1045321,30.9809025 L18.0634269,30.9809025 L18.0634269,26.719371 C18.0634269,24.8791572 17.3806008,25.1551719 17.3806008,25.1551719 C17.3806008,25.1551719 10.5572764,31.3392049 11.0415553,30.8550031 C8.06816962,33.1067711 7.28366005,29.5329628 8.64927353,28.0075168 C9.53546664,27.2036114 15.2691924,22.5837389 15.2691924,22.5837389 C15.2691924,22.5837389 16.7219907,15.6539108 22.5816158,15.6345535 C22.5816158,15.6054791 22.5816158,15.600659 22.5816158,15.6345535 C22.5816158,15.600659 22.5816158,15.6054791 22.5816158,15.6345535 C28.4508811,15.6345535 29.7341683,22.5837389 29.7341683,22.5837389 C29.7341683,22.5837389 35.467894,27.2036114 36.3540871,28.0075168 C37.7197391,29.5329628 36.935191,33.1116297 33.9618439,30.8550031 L33.9763425,30.8550031 Z"/>
  </g>
</svg>
