<svg xmlns="http://www.w3.org/2000/svg" width="46" height="46" viewBox="0 0 46 46">
  <g fill="none" fill-rule="evenodd">
    <circle cx="23" cy="23" r="23" fill="#FD7E70"/>
    <g fill="#FFF" stroke="#FFF" transform="translate(15 8)">
      <path stroke-width="1.5" d="M3.81011411,5.66010525 C5.15807037,5.65796184 6.25026848,4.56558269 6.25210377,3.21859777 C6.25210377,1.87020133 5.15900127,0.777090228 3.81063259,0.777090228 C2.46223185,0.777090228 1.36912505,1.87019703 1.36912505,3.21859777 C1.36912505,4.56682566 2.46195164,5.65982507 3.81011409,5.66010525 Z M3.81011409,5.66010525 C3.81028692,5.66010529 3.81045975,5.6601053 3.81063259,5.6601053 L3.80959561,5.66010602 C3.80976845,5.66010578 3.80994128,5.66010553 3.81011411,5.66010525 Z" transform="translate(5.745 .007)"/>
      <path d="M3.28029606,21.0411506 C3.81479739,22.5457765 4.5278958,24.6454898 5.41959127,27.3402904 C5.41959127,27.3402904 5.96740529,29.1385783 4.63091316,29.5863322 C4.27319336,29.5863322 3.78566048,29.2955551 3.26538086,28.2565918 L1,23.026123 C1.26151286,22.6486123 1.6339474,22.2455361 2.11730362,21.8168944 C2.78889398,21.2213261 3.22172732,20.8762791 3.28029606,21.0411506 Z" transform="matrix(-1 0 0 1 6.53 0)"/>
      <path d="M11.6740595,19.0601105 C10.5167987,20.6181433 7.80744519,22.2700376 7.22435433,23.4703811 C6.64126347,24.6707246 6.10083061,29.2714688 4.22361485,29.2766113 C2.97213767,29.2800397 2.78150021,27.8849076 3.65170245,25.0912151 C4.2509063,21.9247449 6.13818827,19.4455013 6.98687116,17.9437126 C7.55265976,16.9425201 7.34597135,15.5810465 6.36680592,13.8592919 C6.36680592,13.8592919 6.54882055,13.6197744 3.98776819,15.7244837 C2.30376343,16.7782299 1.16797917,16.9516565 0.58041543,16.2447633 C-0.00714831033,15.5378701 0.525294007,14.6628738 2.17774238,13.6197744 C2.17774238,13.6197744 3.6742293,12.4955847 4.22361485,10.6117021 C4.92510359,8.55390833 7.4657504,7.28261095 9.22169289,7.55126953 C10.9776354,7.81992811 13.8856619,9.12259098 14.6143437,11.1616633 C15.3430256,13.2007355 16.1150254,16.4672977 14.8021242,16.7024913 C13.9268568,16.859287 13.1608785,15.5097607 12.5041896,12.6539125 C12.5041896,12.6539125 12.45479,12.2455483 11.8485941,11.7628511 C10.8458221,10.7843254 10.4018903,10.5839294 10.5167987,11.1616633 C10.5167987,11.2191174 12.8313203,17.5020778 11.6740595,19.0601105 Z" transform="matrix(-1 0 0 1 15.862 0)"/>
    </g>
  </g>
</svg>
