<svg xmlns="http://www.w3.org/2000/svg" width="107" height="107" viewBox="0 0 107 107">
  <g fill="none" fill-rule="evenodd" transform="translate(14 21)">
    <path fill="#FFF" d="M36.3696925,64.4223078 C38.0644118,65.235449 41.3362975,65.1780508 42.913464,64.3266441 L43.2661223,64.1640159 C43.5306161,64.0492195 44.0987879,63.7813612 44.9314534,63.3508747 C46.3616789,62.6046981 47.9682336,61.6958932 49.7119332,60.6148937 C54.7079263,57.496258 59.7137156,53.6218793 64.3766426,48.9534922 C68.804464,44.5242642 72.7032979,39.6071515 75.9164072,34.173455 C80.8144397,25.888981 79.5311552,13.4909692 71.8510402,5.96223831 C63.7496944,-1.98741277 50.6327633,-1.98741277 42.5412135,5.96223831 L39.3476963,9.10000673 L36.1541791,5.96223831 C28.0528333,-1.98741277 14.9359022,-1.98741277 6.83455634,5.96223831 C-0.80637441,13.4622701 -1.93292189,24.6836188 2.91613032,34.4508796 C6.20760818,41.0612393 11.0272722,46.9636878 17.012668,52.1486588 C21.2249759,55.803011 25.750758,58.8833812 30.2765401,61.3993358 C31.8635026,62.2794416 33.3133202,63.0160518 34.6161969,63.6282993 C35.38029,63.9822549 35.8896853,64.2118477 36.134587,64.3075114 L36.3696925,64.4223078 Z"/>
    <polygon fill="#FF4500" points="37.856 48.179 28.474 29.388 24.55 37.246 4.528 37.017 4.552 34.695 23.126 34.909 28.474 24.206 37.619 42.531 46.756 19.651 56.518 34.703 75.472 34.917 75.448 37.239 55.252 37.009 47.246 24.666"/>
  </g>
</svg>
