<svg xmlns="http://www.w3.org/2000/svg" width="58" height="58" viewBox="0 0 58 58">
  <g fill="none" fill-rule="evenodd">
    <rect width="58" height="58" fill="#666" rx="8"/>
    <g transform="translate(11 14)">
      <path fill="#0F0F0F" fill-rule="nonzero" d="M16.9279423,11.6487931 C16.9279423,12.2430796 17.4097068,12.724844 18.0039933,12.724844 C18.5982798,12.724844 19.0800442,12.2430796 19.0800442,11.6487931 C19.0800442,11.0545066 18.5982798,10.5727421 18.0039933,10.5727421 C17.4097068,10.5727421 16.9279423,11.0545066 16.9279423,11.6487931 Z"/>
      <path fill="#FAFCFB" fill-rule="nonzero" d="M25.6302335,0.487472742 C22.6151243,0.487472742 19.9105533,2.84900736 18.0039933,4.89278197 C16.1010441,2.84900736 13.3928622,0.487472742 10.377753,0.487472742 C4.61835287,0.487472742 0.487472742,5.15637834 0.487472742,10.9193894 C0.487472742,16.6787896 15.2127605,29.3205827 18.0039933,29.3205827 C20.7952261,29.3205827 35.5205138,16.6787896 35.5205138,10.9157785 C35.5241247,5.15637834 31.3896337,0.487472742 25.6302335,0.487472742 Z"/>
      <path fill="#141414" fill-rule="nonzero" d="M18.0039933,29.7900009 C17.2095933,29.7900009 15.8013387,29.0642082 13.8153386,27.637899 C11.9557204,26.3018626 9.84694939,24.5180735 7.87178206,22.6187352 C5.51024744,20.3438624 0.018054546,14.6530695 0.018054546,10.9193894 C0.018054546,7.98010934 1.05077458,5.24665107 2.92844736,3.22454192 C4.84945106,1.15910185 7.49263659,0.018054546 10.377753,0.018054546 C11.8221167,0.018054546 13.3314768,0.527192743 14.8625023,1.5310255 C15.8771678,2.19543279 16.9062769,3.07649464 18.0003824,4.21032013 C19.0944879,3.07288373 20.1272079,2.19543279 21.1382625,1.5310255 C22.6728989,0.527192743 24.1822589,0.018054546 25.6230117,0.018054546 C28.5081281,0.018054546 31.1549246,1.15549094 33.0723174,3.22454192 C34.9499902,5.24665107 35.9827102,7.98010934 35.9827102,10.9193894 C35.9827102,14.6530695 30.4905173,20.3438624 28.1289827,22.6187352 C26.1574263,24.5180735 24.0450444,26.3018626 22.1854261,27.637899 C20.2066479,29.0642082 18.7983933,29.7900009 18.0039933,29.7900009 Z M10.377753,0.956890938 C7.75623297,0.956890938 5.35497835,1.98961097 3.61452011,3.86006194 C1.89933824,5.70884745 0.953280029,8.21481843 0.953280029,10.9157785 C0.953280029,13.2556477 3.78062193,17.3756951 8.52174572,21.9398843 C10.4644149,23.8103353 12.5370767,25.5616262 14.3605859,26.8723863 C16.386306,28.3311936 17.5706842,28.8511645 18.0039933,28.8511645 C18.4373024,28.8511645 19.6180697,28.3311936 21.6474007,26.8723863 C23.4709098,25.5616262 25.5471826,23.8067244 27.4862408,21.9398843 C32.2237537,17.3756951 35.0547065,13.2556477 35.0547065,10.9157785 C35.0547065,8.21120753 34.1086483,5.70884745 32.3934665,3.86006194 C30.6530082,1.98600006 28.2517536,0.956890938 25.6302335,0.956890938 C23.3986916,0.956890938 21.0154916,2.34709098 18.3470297,5.21415289 C18.2567569,5.30803653 18.133986,5.36220016 18.0039933,5.36220016 C17.8740005,5.36220016 17.7476187,5.30803653 17.6609569,5.21415289 C14.992495,2.34709098 12.6092949,0.956890938 10.377753,0.956890938 Z"/>
      <path fill="#FFF" stroke="#0F0F0F" d="M16.6142885,29.3864831 C17.3884649,29.7574006 18.8831174,29.7312182 19.6035936,29.3428458 L19.7646939,29.2686623 C19.8855191,29.2162974 20.1450696,29.0941129 20.5254452,28.8977448 C21.1787963,28.5573734 21.9126976,28.1428186 22.7092489,27.6497165 C24.9915028,26.2271389 27.2782317,24.4598262 29.4083354,22.3303234 C31.4310388,20.3099141 33.2120919,18.0669543 34.6798944,15.5883527 C36.9173982,11.8093581 36.3311722,6.15395743 32.8227662,2.7196979 C29.1219349,-0.906565967 23.1298997,-0.906565967 19.4335434,2.7196979 L17.9746909,4.15100302 L16.5158384,2.7196979 C12.8150071,-0.906565967 6.82297184,-0.906565967 3.12214053,2.7196979 C-0.368365421,6.14086622 -0.882991299,11.2595275 1.33213748,15.714901 C2.83574004,18.730242 5.0374438,21.4226665 7.77167346,23.787811 C9.69592674,25.4547578 11.7633803,26.8598805 13.8308338,28.0075428 C14.555785,28.4090064 15.2180862,28.745014 15.8132622,29.0242931 C16.1623128,29.1857513 16.3950132,29.2904809 16.5068884,29.3341183 L16.6142885,29.3864831 Z"/>
      <path fill="#0F0F0F" fill-rule="nonzero" d="M10.2696476 12.3599203C10.2696476 13.0339769 10.8160784 13.5804077 11.4901349 13.5804077 12.1641915 13.5804077 12.7106222 13.0339769 12.7106222 12.3599203 12.7106222 11.6858638 12.1641915 11.139433 11.4901349 11.139433 10.8160784 11.139433 10.2696476 11.6858638 10.2696476 12.3599203zM23.2973643 12.3599203C23.2973643 13.0339769 23.8437951 13.5804077 24.5178516 13.5804077 25.1919082 13.5804077 25.7383389 13.0339769 25.7383389 12.3599203 25.7383389 11.6858638 25.1919082 11.139433 24.5178516 11.139433 23.8437951 11.139433 23.2973643 11.6858638 23.2973643 12.3599203z"/>
      <path fill="#5B5143" fill-rule="nonzero" d="M14.5736295,15.7977278 C14.5736295,17.6862333 16.1190987,19.2280915 18.0039933,19.2280915 C19.8924988,19.2280915 21.434357,17.6826224 21.434357,15.7977278 L21.434357,14.6530695 L14.5736295,14.6530695 L14.5736295,15.7977278 Z"/>
      <path fill="#141414" fill-rule="nonzero" d="M18.0039933,19.6975097 C15.8518914,19.6975097 14.1042113,17.9462187 14.1042113,15.7977278 L14.1042113,14.6530695 C14.1042113,14.3930841 14.3136441,14.1836513 14.5736295,14.1836513 L21.4379679,14.1836513 C21.6979534,14.1836513 21.9073861,14.3930841 21.9073861,14.6530695 L21.9073861,15.7977278 C21.9073861,17.9462187 20.1560952,19.6975097 18.0039933,19.6975097 Z M15.0430477,15.1224877 L15.0430477,15.7977278 C15.0430477,17.4298587 16.3718623,18.7586733 18.0039933,18.7586733 C19.6361242,18.7586733 20.9649388,17.4298587 20.9649388,15.7977278 L20.9649388,15.1224877 L15.0430477,15.1224877 Z"/>
      <path fill="#FF4500" fill-rule="nonzero" d="M15.9746623 17.2565351C15.9746623 17.8049538 16.8589748 18.2495351 17.9498296 18.2495351 19.0406844 18.2495351 19.924997 17.8049538 19.924997 17.2565351 19.924997 16.7081163 19.0406844 16.263535 17.9498296 16.263535 16.8589748 16.263535 15.9746623 16.7081163 15.9746623 17.2565351zM8.95505482 15.5050223C8.95505481 15.859787 9.17597837 16.1876032 9.53460574 16.3649855 9.8932331 16.5423679 10.3350802 16.5423679 10.6937076 16.3649855 11.052335 16.1876032 11.2732585 15.859787 11.2732585 15.5050223 11.2732585 15.1502575 11.052335 14.8224414 10.6937076 14.645059 10.3350802 14.4676766 9.8932331 14.4676766 9.53460574 14.645059 9.17597837 14.8224414 8.95505481 15.1502575 8.95505482 15.5050223zM25.1066517 15.5050223C25.1066517 16.053441 25.6255993 16.4980223 26.2657535 16.4980223 26.9059078 16.4980223 27.4248554 16.053441 27.4248554 15.5050223 27.4248554 14.9566035 26.9059078 14.5120222 26.2657535 14.5120222 25.6255993 14.5120222 25.1066517 14.9566035 25.1066517 15.5050223z"/>
    </g>
  </g>
</svg>
