<svg xmlns="http://www.w3.org/2000/svg" width="48" height="48" viewBox="0 0 48 48">
  <g fill="none" fill-rule="evenodd" transform="translate(1 1)">
    <circle cx="23" cy="23" r="23" fill="#FFF" stroke="#333"/>
    <path fill="#FF7B00" stroke="#333" d="M32.0918985,24.8853558 C32.5029162,25.2333691 33.0346434,25.4432234 33.6153846,25.4432234 C34.9182102,25.4432234 35.974359,24.3870746 35.974359,23.0842491 C35.974359,21.7814235 34.9182102,20.7252747 33.6153846,20.7252747 M31.309174,27.2010903 C31.9910669,27.5838998 32.7777327,27.8021978 33.6153846,27.8021978 C36.2210357,27.8021978 38.3333333,25.6899002 38.3333333,23.0842491 C38.3333333,20.478598 36.2210357,18.3663004 33.6153846,18.3663004"/>
    <path fill="#FF7B00" d="M7.66666667,15.4175824 L33.6153846,15.4175824 L33.6153846,23.4688645 C33.6153846,30.0962815 28.2428016,35.4688645 21.6153846,35.4688645 L19.6666667,35.4688645 C13.0392497,35.4688645 7.66666667,30.0962815 7.66666667,23.4688645 L7.66666667,15.4175824 Z"/>
    <path fill="#E16D00" d="M28.8793135,16.4175824 L32.6110259,16.4175824 L32.6110259,23.1239869 C32.6110259,29.7514039 27.2384429,35.1239869 20.6110259,35.1239869 L20.4027378,35.1239869 C19.8042567,35.1239869 19.2160086,35.0801747 18.6410256,34.9955825 C24.4332478,34.1434245 28.8793135,29.1529228 28.8793135,23.1239869 L28.8793135,16.4175824 Z"/>
    <path stroke="#333" d="M8.16666667,15.9175824 L8.16666667,23.4688645 C8.16666667,29.8201391 13.315392,34.9688645 19.6666667,34.9688645 L21.6153846,34.9688645 C27.9666592,34.9688645 33.1153846,29.8201391 33.1153846,23.4688645 L33.1153846,15.9175824 L8.16666667,15.9175824 Z"/>
    <rect width="2" height="3" x="9.875" y="18.093" fill="#FFF" rx="1"/>
    <path fill="#FFF" d="M11.1944961,22.1416016 L11.2036133,22.1416016 C11.7148649,22.1416016 12.1293162,22.5560529 12.1293162,23.0673045 C12.1293162,23.0804109 12.1290378,23.093516 12.1284813,23.1066106 C12.060008,24.71843 12.2996078,26.1274728 12.8473085,27.3337402 C13.3836328,28.5149521 14.1848181,29.549829 15.2508642,30.438371 L15.2508593,30.4383768 C15.5774287,30.71057 15.6215092,31.195963 15.349316,31.5225323 C15.3192997,31.5585449 15.2860562,31.5917401 15.25,31.6217041 L15.1559011,31.6998478 C14.7746318,32.0166958 14.2187745,32.0063654 13.8495413,31.6755698 C12.3051659,30.2919654 11.3104783,28.9507273 10.8654785,27.6518555 C10.4398641,26.4095659 10.2162286,24.9102542 10.1945721,23.1539203 L10.1945829,23.1539202 C10.1877735,22.6016834 10.6299298,22.1484869 11.1821666,22.1416776 C11.1862762,22.1416269 11.1903861,22.1416016 11.1944961,22.1416016 Z" transform="rotate(-4 12.861 27.036)"/>
  </g>
</svg>
