<svg xmlns="http://www.w3.org/2000/svg" width="48" height="48" viewBox="0 0 48 48">
  <defs>
    <linearGradient id="card-icon-glass-a" x1="50%" x2="50%" y1="26.255%" y2="100%">
      <stop offset="0%" stop-color="#CCE4FF"/>
      <stop offset="100%" stop-color="#ABD0F9"/>
    </linearGradient>
  </defs>
  <g fill="none" fill-rule="evenodd" transform="translate(1 1)">
    <circle cx="23" cy="23" r="23" fill="#FFF" stroke="#333"/>
    <g transform="translate(12.048 7.667)">
      <path fill="url(#card-icon-glass-a)" d="M1.06349395,2.19047619 L19.6328339,2.19047619 C20.1851186,2.19047619 20.6328339,2.63819144 20.6328339,3.19047619 C20.6328339,3.20958715 20.6322861,3.22869417 20.631191,3.24777373 L19.2739844,26.8958568 C19.1525074,29.0124819 17.4006638,30.6666667 15.2805558,30.6666667 L5.51527961,30.6666667 C3.40164124,30.6666667 1.65279761,29.0222345 1.52284685,26.9125948 L0.0653857618,3.25195822 C0.031430177,2.70071828 0.450771995,2.22632358 1.00201193,2.192368 C1.02248169,2.19110709 1.04298539,2.19047619 1.06349395,2.19047619 Z"/>
      <path fill="#FFF" d="M0.695340862,0.977386445 L1.2273298,8.86752465 C3.47232914,9.01304112 4.61308537,8.44905599 7.04631696,8.44905599 C9.58205721,8.44905599 11.9414682,9.1504255 14.476609,9.1504255 C17.0123492,9.1504255 17.0109515,9.27289109 19.7057292,8.86752465 L19.7057292,0.977386445 L0.695340862,0.977386445 Z"/>
      <path stroke="#FFF" stroke-linecap="round" d="M17.1803241 20.7114875L16.8406056 27.193703M13.4325592 27.3081358L16.6781149 27.3081358"/>
      <path stroke="#333" d="M1.06082369,1.5952381 C1.04607481,1.59538314 1.04607481,1.59538314 1.03134305,1.59610796 C0.755681084,1.61238967 0.545411844,1.84905678 0.561693554,2.12471874 L2.08811811,27.9682693 C2.19736414,29.8178892 3.72918569,31.2619048 5.58202905,31.2619048 L15.2602171,31.2619048 C17.1208536,31.2619048 18.6562677,29.8061182 18.75526,27.948117 L20.131257,2.12183984 C20.1318471,2.10854525 20.1318471,2.10854525 20.1319652,2.0952381 C20.1319652,1.81909572 19.9081075,1.5952381 19.6319652,1.5952381 L1.06082369,1.5952381 Z"/>
    </g>
  </g>
</svg>
