<svg xmlns="http://www.w3.org/2000/svg" width="58" height="58" viewBox="0 0 58 58">
  <g fill="none" fill-rule="evenodd">
    <rect width="58" height="58" fill="#666" rx="8"/>
    <g transform="translate(13 16)">
      <path fill="#FFF" stroke="#141414" d="M26.3471393,7.16447855 C28.6412592,5.06497542 32.1888385,5.16969808 34.3551192,7.40086988 C36.5213999,9.63204169 36.5213999,13.1811663 34.3551192,15.4123381 C32.1888385,17.6435099 28.6412592,17.7482326 26.3471393,15.6487295 L26.3471393,17.1570407 C26.3471393,21.3221273 22.9706695,24.6985971 18.8055829,24.6985971 L9.09582911,24.6985971 C4.93074254,24.6985971 1.55427275,21.3221273 1.55427275,17.1570407 L1.55427275,0.942694532 C1.55427275,0.692676393 1.65359207,0.452898346 1.83038159,0.276108826 C2.00717112,0.099319307 2.24694917,-7.15383959e-09 2.49696731,0 L25.4044447,0 C25.6544629,-7.15384051e-09 25.8942409,0.099319307 26.0710304,0.276108826 C26.24782,0.452898346 26.3471393,0.692676393 26.3471393,0.942694532 L26.3471393,7.16447855 Z M30.0155735,14.1671333 C31.2504838,14.1671333 32.3637969,13.4232412 32.8363766,12.2823329 C33.3089563,11.1414245 33.0477361,9.82818224 32.1745227,8.95496879 C31.3013092,8.08175535 29.9880669,7.82053522 28.8471586,8.29311494 C27.7062502,8.76569466 26.9623582,9.87900774 26.9623582,11.113918 C26.9623582,12.8001622 28.3293293,14.1671333 30.0155735,14.1671333 Z"/>
      <g fill-rule="nonzero" transform="translate(4.246 9.77)">
        <path fill="#0F0F0F" d="M2.99470588 1.24543603C2.99470588 1.86284384 3.4952138 2.36335176 4.11262161 2.36335176 4.73002942 2.36335176 5.23053734 1.86284384 5.23053734 1.24543603 5.23053734.628028223 4.73002942.127520302 4.11262161.127520302 3.4952138.127520302 2.99470588.628028223 2.99470588 1.24543603zM13.0956368 1.24543603C13.0956368 1.86284384 13.5961447 2.36335176 14.2135525 2.36335176 14.8309603 2.36335176 15.3314682 1.86284384 15.3314682 1.24543603 15.3314682.628028223 14.8309603.127520302 14.2135525.127520302 13.5961447.127520302 13.0956368.628028223 13.0956368 1.24543603z"/>
        <path fill="#5B5143" d="M6.02101622,5.31028347 C6.02101622,7.04007615 7.43660182,8.45235431 9.16308706,8.45235431 C10.8928797,8.45235431 12.3051579,7.03676871 12.3051579,5.31028347 L12.3051579,4.26182404 L6.02101622,4.26182404 L6.02101622,5.31028347 Z"/>
        <path fill="#141414" d="M9.16308706,8.8823219 C7.19185104,8.8823219 5.59104863,7.27821205 5.59104863,5.31028347 L5.59104863,4.26182404 C5.59104863,4.02368814 5.78288032,3.83185645 6.02101622,3.83185645 L12.3084653,3.83185645 C12.5466012,3.83185645 12.7384329,4.02368814 12.7384329,4.26182404 L12.7384329,5.31028347 C12.7384329,7.27821205 11.1343231,8.8823219 9.16308706,8.8823219 Z M6.45098381,4.69179163 L6.45098381,5.31028347 C6.45098381,6.8052477 7.66812283,8.02238672 9.16308706,8.02238672 C10.6580513,8.02238672 11.8751903,6.8052477 11.8751903,5.31028347 L11.8751903,4.69179163 L6.45098381,4.69179163 Z"/>
        <path fill="#FF4500" d="M7.3043041 6.64649044C7.3043041 7.14881927 8.11429769 7.55603726 9.11347541 7.55603726 10.1126531 7.55603726 10.9226467 7.14881927 10.9226467 6.64649044 10.9226467 6.1441616 10.1126531 5.73694361 9.11347541 5.73694361 8.11429769 5.73694361 7.3043041 6.1441616 7.3043041 6.64649044zM.874634924 4.12621888C.874634913 4.45116867 1.07699173 4.75143466 1.40547951 4.91390955 1.7339673 5.07638445 2.13868095 5.07638445 2.46716873 4.91390955 2.79565652 4.75143466 2.99801334 4.45116867 2.99801332 4.12621888 2.99801334 3.80126909 2.79565652 3.5010031 2.46716873 3.3385282 2.13868095 3.1760533 1.7339673 3.1760533 1.40547951 3.3385282 1.07699173 3.5010031.874634913 3.80126909.874634924 4.12621888zM15.6688274 4.12621888C15.6688274 4.62854772 16.1441619 5.0357657 16.7305166 5.0357657 17.3168714 5.0357657 17.7922058 4.62854772 17.7922058 4.12621888 17.7922058 3.62389004 17.3168714 3.21667205 16.7305166 3.21667205 16.1441619 3.21667205 15.6688274 3.62389004 15.6688274 4.12621888z"/>
      </g>
      <path fill="#FFF" d="M0,28.2727273 L30.5454545,28.2727273 C30.5454545,27.0677424 29.900376,26.0909091 29.1046312,26.0909091 L1.44082333,26.0909091 C0.645078578,26.0909091 0,27.0677424 0,28.2727273 Z"/>
      <path fill="#656AFF" d="M3.43966184,1.88538909 L3.43966184,5.75043671 C3.43966184,5.75043671 6.55055384,3.86504762 14.0921102,5.75043671 C21.6336666,7.63582581 24.4617502,5.75043671 24.4617502,5.75043671 L24.4617502,1.97965853 L3.43966184,1.88538909 Z"/>
    </g>
  </g>
</svg>
