<?xml version="1.0" encoding="UTF-8"?>
<svg width="23px" height="23px" viewBox="0 0 23 23" version="1.1" xmlns="http://www.w3.org/2000/svg" xmlns:xlink="http://www.w3.org/1999/xlink">
    <!-- Generator: Sketch 50.2 (55047) - http://www.bohemiancoding.com/sketch -->
    <title>时间 (1)</title>
    <desc>Created with Sketch.</desc>
    <defs></defs>
    <g id="Page-1" stroke="none" stroke-width="1" fill="none" fill-rule="evenodd">
        <g id="6_1_Nurse(VIP)" transform="translate(-125.000000, -539.000000)" fill="#000000" fill-rule="nonzero">
            <g id="Group-5-Copy" transform="translate(12.000000, 460.000000)">
                <g id="Group-3" transform="translate(113.000000, 18.000000)">
                    <g id="时间-(1)" transform="translate(0.000000, 61.000000)">
                        <path d="M11.5090593,22.9767104 C5.16356879,22.9767104 0.0202422205,17.8381625 0.0202422205,11.4995571 C0.0202422205,5.16004243 5.16354546,0.0219608203 11.5090593,0.0219608203 C17.8550165,0.0219608203 22.9983198,5.16004243 22.9983198,11.4995571 C22.9983198,17.8381625 17.8550165,22.9767104 11.5090593,22.9767104 Z M11.5090593,1.45659332 C5.95720141,1.45659332 1.456356,5.95286932 1.456356,11.4995571 C1.456356,17.0457785 5.95720139,21.5420546 11.5090593,21.5420546 C17.0613606,21.5420546 21.5622293,17.0457786 21.5622293,11.4995571 C21.5622293,5.95289264 17.0613839,1.45659332 11.5090593,1.45659332 Z M17.6229569,12.9342129 L11.4989545,12.9342129 C11.2825071,12.9342129 11.0913333,12.8341304 10.9617449,12.6794256 C10.8569634,12.5563798 10.7912474,12.3998333 10.7912474,12.226758 L10.7912474,12.2203236 C10.7912474,12.2189482 10.7907807,12.218039 10.7907807,12.2166402 C10.7907807,12.2152414 10.7912474,12.2147984 10.7912474,12.2129567 L10.7907807,5.03284692 C10.7912474,4.64216846 11.1124763,4.32585831 11.5090593,4.32585831 C11.9056422,4.32585831 12.2278046,4.64263471 12.2278046,5.03284692 L12.2273379,11.4995337 L17.6220234,11.4995337 C18.0135657,11.4995337 18.3311074,11.8204365 18.330664,12.2166168 C18.330664,12.6132634 18.0140324,12.9341662 17.6229569,12.9341662 L17.6229569,12.9342129 Z" id="Shape"></path>
                    </g>
                </g>
            </g>
        </g>
    </g>
</svg>