<?xml version="1.0" encoding="UTF-8"?>
<svg width="32px" height="32px" viewBox="0 0 32 32" version="1.1" xmlns="http://www.w3.org/2000/svg" xmlns:xlink="http://www.w3.org/1999/xlink">
    <!-- Generator: Sketch 50.2 (55047) - http://www.bohemiancoding.com/sketch -->
    <title>phone</title>
    <desc>Created with Sketch.</desc>
    <defs></defs>
    <g id="Page-1" stroke="none" stroke-width="1" fill="none" fill-rule="evenodd">
        <g id="7_1_0_Confirm-Order" transform="translate(-14.000000, -390.000000)">
            <g id="Group-4" transform="translate(0.000000, 316.000000)">
                <g id="Group-7" transform="translate(0.000000, 60.000000)">
                    <g id="phone" transform="translate(12.000000, 12.000000)">
                        <rect id="Rectangle-6" x="0" y="0" width="36" height="36"></rect>
                        <path d="M25.5276522,34 C23.4629565,34 20.7979131,32.6246957 18.9252174,31.4706087 C16.418087,29.9248696 13.7161739,27.7878261 11.3182609,25.4511304 L11.3092174,25.4427826 L10.5481739,24.6810435 C8.21217394,22.2838261 6.07443481,19.5819131 4.52869569,17.074087 C3.37530434,15.202087 2,12.5363478 2,10.4723478 C2,8.2629565 3.57982609,5.91791303 4.25947825,5.01217391 C4.78886956,4.30539131 6.64069566,2 8.21426088,2 C8.86052175,2 9.55617391,2.42295653 10.4702609,3.37113044 C11.2793043,4.21008697 12.0549565,5.25217391 12.5641739,5.97913044 C13.2466087,6.95513044 13.8789565,7.97634784 14.3429565,8.85565219 C15.0949565,10.2796522 15.1812174,10.8897392 15.1812174,11.2257392 C15.1812174,11.9026087 14.8278261,12.4897392 14.1307826,12.9704348 C13.6716522,13.2869566 13.1206956,13.5255653 12.5871304,13.7558261 C12.2274782,13.9109566 11.6542608,14.1593044 11.4351304,14.3339131 C11.5109565,14.6573913 11.8448695,15.4386088 12.7471304,16.7631305 C13.5874782,17.9972175 14.6747826,19.3349566 15.6570434,20.3429566 C16.6657391,21.3252175 18.0027826,22.4118262 19.2368695,23.2528696 C20.5606956,24.1544348 21.341913,24.4883479 21.6660869,24.5648696 C21.8406956,24.3464348 22.0883478,23.7718262 22.2441739,23.4128696 C22.4751304,22.8793044 22.7130435,22.3283479 23.0295652,21.8692174 C23.5102609,21.172174 24.0973913,20.8187827 24.7742609,20.8187827 C25.1095652,20.8187827 25.7203478,20.9057392 27.1443478,21.6570435 C28.0236522,22.1210435 29.0448696,22.7526957 30.0208696,23.4358261 C30.7471305,23.9443479 31.7899131,24.7206957 32.6288696,25.5290435 C33.5770435,26.4438261 34,27.1401739 34,27.7857391 C34,29.3593043 31.6946087,31.2104348 30.9871304,31.7405217 C30.082087,32.4201739 27.7370435,34 25.5276522,34 Z M12.6413913,24.1022609 C14.9412174,26.3429565 17.5248696,28.3881739 19.9165218,29.8615652 C22.2351304,31.2904348 24.2803478,32.109913 25.5276522,32.109913 C26.6386087,32.109913 28.2226087,31.4316522 29.7641739,30.2956522 C30.4403478,29.7975652 31.0553044,29.2424348 31.4970435,28.7332174 C31.9109565,28.2553043 32.0626087,27.9436522 32.1008696,27.8177391 C31.9415653,27.4740869 30.9906087,26.3993043 28.7728696,24.8695652 C27.9033044,24.269913 27.0038261,23.7182609 26.24,23.3168696 C25.2813913,22.8125217 24.882087,22.7255652 24.7909566,22.7116522 C24.7554783,22.736 24.6511305,22.8236522 24.4925218,23.0893913 C24.3151305,23.3871304 24.144,23.7815652 23.9791305,24.1634782 C23.776,24.6330435 23.5659131,25.1193043 23.3078261,25.5116522 C22.8883479,26.1495652 22.3735653,26.4730435 21.7773913,26.4730435 C21.7662609,26.4730435 21.7551305,26.4730435 21.744,26.4730435 C21.4539131,26.4667826 20.5704348,26.448 18.1739131,24.8153043 C16.8507826,23.9137391 15.4135653,22.7443478 14.3297392,21.6883478 L14.3130435,21.6716522 C13.2563478,20.5878261 12.0876522,19.1506087 11.186087,17.8281739 C9.55339131,15.4309565 9.53460872,14.5481739 9.52834784,14.2573913 C9.51513044,13.6507826 9.83513044,13.1269565 10.48,12.7005218 C10.8737392,12.4396522 11.3641739,12.2274783 11.8379131,12.0229565 C12.2191305,11.858087 12.6142609,11.6869565 12.912,11.5095652 C13.1777392,11.3509565 13.2653913,11.2466087 13.2897392,11.2111304 C13.2751305,11.12 13.1881739,10.72 12.6845218,9.76208697 C12.2831304,8.99895653 11.7314783,8.09947828 11.1318261,7.22921741 C9.60069566,5.00939131 8.52591303,4.05913044 8.18226088,3.89913044 C8.05634781,3.93808697 7.74469566,4.08904347 7.26608697,4.50295653 C6.75686956,4.944 6.20243478,5.55965219 5.70434781,6.23582609 C4.56834781,7.77739131 3.88939128,9.36139131 3.88939128,10.4723478 C3.88939128,11.7196522 4.70886953,13.7648696 6.13773909,16.0834783 C7.61182606,18.4751305 9.65704344,21.0587826 11.8970434,23.3586087 L12.6413913,24.1022609 Z" id="Shape" fill="#666666" fill-rule="nonzero"></path>
                    </g>
                </g>
            </g>
        </g>
    </g>
</svg>