<?xml version="1.0" encoding="UTF-8"?>
<svg width="80px" height="80px" viewBox="0 0 80 80" version="1.1" xmlns="http://www.w3.org/2000/svg" xmlns:xlink="http://www.w3.org/1999/xlink">
    <!-- Generator: Sketch 50.2 (55047) - http://www.bohemiancoding.com/sketch -->
    <title>Group</title>
    <desc>Created with Sketch.</desc>
    <defs>
        <linearGradient x1="50%" y1="0%" x2="50%" y2="100%" id="linearGradient-1">
            <stop stop-color="#FAD961" offset="0%"></stop>
            <stop stop-color="#F76B1C" offset="100%"></stop>
        </linearGradient>
    </defs>
    <g id="Page-1" stroke="none" stroke-width="1" fill="none" fill-rule="evenodd">
        <g id="1_1_Elder's-Home-Page-(shanyuan)" transform="translate(-269.000000, -557.000000)">
            <g id="Group" transform="translate(269.000000, 557.000000)">
                <rect id="Rectangle-11" fill="url(#linearGradient-1)" x="0" y="0" width="80" height="80" rx="8"></rect>
                <g id="排行榜" transform="translate(18.000000, 15.000000)">
                    <path d="M39.6610253,19.1576683 C39.1951737,26.9981208 33.2447858,32.4663902 24.8095238,33.5649151 L24.8095238,46.0295585 L19.8333333,46.0295585 L19.8333333,33.5649151 C11.3980714,32.4663902 5.44768345,26.9981207 4.98183184,19.1576683 L4.46428571,19.1576683 C1.44994739,19.1576683 -1,16.7077209 -1,13.6933826 L-1,10.7171922 C-1,7.70285384 1.44994739,5.25290645 4.46428571,5.25290645 L4.95238094,5.25290645 L4.95238094,2.97909688 C4.95238097,0.783107535 6.73258208,-0.997093549 8.92857143,-0.997093549 L35.7142857,-0.997093549 C37.9102751,-0.997093549 39.6904762,0.783107535 39.6904762,2.9790969 L39.6904762,5.25290645 L40.1785714,5.25290645 C43.8895849,5.25290645 45.6428571,6.03805611 45.6428571,8.93147788 L45.6428571,13.6933826 C45.6428571,16.7077209 43.1929097,19.1576683 40.1785714,19.1576683 L39.6610253,19.1576683 Z" id="Path" stroke="#333333" stroke-width="2" fill="#FFFFFF"></path>
                    <path d="M8.14285714,49 L37.6554622,49 L37.6554622,47.8571429 C37.6554622,45.6480039 35.8646012,43.8571429 33.6554622,43.8571429 L12.1428571,43.8571429 C9.93371814,43.8571429 8.14285714,45.6480039 8.14285714,47.8571429 L8.14285714,49 Z" id="Rectangle-7" stroke="#333333" stroke-width="2" fill="#FFFFFF"></path>
                    <path d="M11.6071429,46.4110644 L24.2723652,46.4110644 M27.0377536,46.4110644 L27.8070339,46.4110644" id="Line-3" stroke="#84D0FF" stroke-width="2" stroke-linecap="round"></path>
                    <path d="M4.46428571,15.1814779 C3.64360121,15.1814779 2.97619049,14.5140672 2.97619049,13.6933826 L2.97619049,10.7171922 C2.97619049,9.89650766 3.64360121,9.22909694 4.46428571,9.2290969 L5.95238094,9.2290969 L5.95238094,15.1814779 L4.46428571,15.1814779 Z" id="Path" stroke="#333333" stroke-width="2" fill="#F9AA44"></path>
                    <path d="M41.6666667,13.6933826 C41.6666667,14.5140671 40.9992559,15.1814778 40.1785714,15.1814779 L38.6904762,15.1814779 L38.6904762,9.2290969 L40.1785714,9.2290969 C40.9992559,9.2290969 41.6666667,9.89650761 41.6666667,10.7171922 L41.6666667,13.6933826 Z" id="Path" stroke="#333333" stroke-width="2" fill="#F8A641"></path>
                    <path d="M29.3388757,13.1026669 L26.4126417,16.0941701 L27.0725854,20.202501 C27.1561466,20.4539289 27.1138567,20.7301913 26.9589081,20.9451085 C26.8039594,21.1600257 26.5552119,21.2874385 26.290262,21.2876008 L26.2793838,21.2876008 C26.1461328,21.2868606 26.0148713,21.2552089 25.8959275,21.1951361 L22.3142824,19.2026137 L18.7344503,21.1715667 C18.6719913,21.5522138 18.3540876,21.8387574 17.9690205,21.8614892 C17.5839535,21.8842211 17.2345439,21.6370714 17.127733,21.2664168 C17.020922,20.8957623 17.1852303,20.5005753 17.5233448,20.314909 L18.2213623,16.0787593 L15.3023804,13.0754715 C15.0859194,12.8549439 15.0122678,12.5312274 15.112012,12.2387571 C15.2084782,11.9447009 15.4630147,11.7305392 15.7692362,11.6857823 L19.7796634,11.0820426 L21.5854435,7.25563811 C21.7222681,6.96629703 22.0139569,6.78206879 22.3340173,6.78284516 C22.6540776,6.78362154 22.9448693,6.96926272 23.0802885,7.2592642 L24.8715643,11.0965468 L28.8756459,11.7129778 C29.1811419,11.7583035 29.4322468,11.9713348 29.5310571,12.2677656 C29.6291542,12.5600596 29.5548926,12.8826771 29.3388757,13.1026669 Z" id="Path" fill="#84D0FF"></path>
                </g>
            </g>
        </g>
    </g>
</svg>