<svg xmlns="http://www.w3.org/2000/svg" width="73" height="100" viewBox="0 0 73 100">
  <g fill="none" fill-rule="evenodd">
    <ellipse cx="36.035" cy="39.638" fill="#FF7B00" rx="36.035" ry="30.63"/>
    <path fill="#FF7B00" d="M29.2634814 86.7576052C26.3051393 89.5100833 24.3638006 91.8687219 23.4394654 93.8335208 22.5151301 95.7983198 22.0529624 97.3293968 22.0529624 98.4267517L28.1875341 98.4267517C31.0649382 93.3446671 33.2174195 90.7232734 34.6449779 90.5625704 36.0725363 90.4018675 34.2787042 89.1335457 29.2634814 86.7576052zM45.7739512 92.47605C44.4566561 96.32471 43.4437583 98.414435 42.7352576 98.745225 42.026757 99.0760151 44.5701453 99.2414101 50.3654225 99.2414101 52.1416594 94.1534605 53.1654077 91.0011311 53.4366673 89.784422 53.7079268 88.5677129 54.0454617 86.2971971 54.4492719 82.9728745L45.7739512 92.47605z"/>
    <circle cx="22.819" cy="24.621" r="3" fill="#333"/>
    <circle cx="48.044" cy="24.621" r="3" fill="#333"/>
    <ellipse cx="36.077" cy="82.619" stroke="#333" stroke-width="3" rx="22.071" ry="6.306" transform="rotate(-8 36.077 82.619)"/>
    <path fill="#FF7B00" d="M20.6400667,67.5110795 C17.8758584,69.4315972 15.7198581,70.0717698 14.1720657,69.4315972 C12.6242733,68.7914247 9.53514014,67.5424577 4.90466612,65.6846963 L1.57565148,71.7585644 C6.90054998,74.7057629 11.0993547,76.1858137 14.1720657,76.1987168 C17.2447767,76.21162 20.5353752,75.638016 24.043861,74.4779048 C26.67024,84.5570304 30.722418,90.2839795 36.2003949,91.6587523 C40.3539077,92.4218139 43.5477324,92.4218139 45.7818691,91.6587523 C52.0580822,87.8493883 54.8349003,84.3203747 54.1123235,81.0717116 C53.3897467,77.8230484 52.2627732,74.718666 50.731403,71.7585644 C54.8903252,72.42425 58.0084906,73.3306968 60.0858989,74.4779048 C62.1633073,75.6251128 64.3196008,77.1948992 66.5547796,79.1872641 C68.9811597,75.2435899 70.4377503,73.2128089 70.9245512,73.094921 C71.6547526,72.918089 66.2530217,69.3374628 63.1694603,67.5110795 C61.1137527,66.2934907 58.7709499,65.6846963 56.1410518,65.6846963 L20.6400667,67.5110795 Z"/>
    <path fill="#FFF" d="M10.1398236,35.4112915 C21.0796867,34.2042983 30.1366298,33.7157239 37.3106529,33.9455681 C44.4207114,34.173363 52.7728374,35.1001789 62.3670309,36.7260156 L62.3670315,36.7260122 C64.5451198,37.0951121 66.0115947,39.1600162 65.6424948,41.3381046 C65.6372286,41.3691805 65.6315954,41.4001931 65.6255962,41.4311358 C63.0987543,54.4641137 53.2729053,61.0609585 36.1480491,61.22167 C18.9471909,61.3830948 9.11027124,54.332722 6.63729012,40.0705515 L6.63728557,40.0705523 C6.25986438,37.8938898 7.71843766,35.8233959 9.89510016,35.4459747 C9.97629789,35.4318955 10.0579113,35.4203289 10.1398236,35.4112915 Z"/>
    <ellipse cx="36" cy="35.333" fill="#333" rx="4" ry="3.333"/>
    <path stroke="#FFF" stroke-linecap="round" d="M34.5,33.5 L33.5,34.5"/>
    <path fill="#FF7B00" d="M25.7597656 10.5039062C24.3481531 4.07988069 22.3159287.854530227 19.6630924.827854855 17.0102561.801179483 13.3954658 2.68885277 8.81872164 6.49087473 13.1178191 7.09790964 15.8411185 7.73236376 16.9886197 8.39423709 18.136121 9.05611041 19.3641169 10.2936759 20.6726074 12.1069336L25.7597656 10.5039062zM48.7480469 11.1020508C49.7532906 6.10431582 51.1837601 3.38881763 53.0394553 2.9555562 55.822998 2.30566406 66.0553238 9.38103408 67.4912849 11.9541889 68.9272461 14.5273438 59.2082277 11.9541889 57.517334 11.9541889 56.3900715 11.9541889 55.0946614 12.3477145 53.6311035 13.1347656L48.7480469 11.1020508z"/>
    <path stroke="#333" stroke-linecap="round" stroke-width="3" d="M20.4456775,78.1666058 C16.4657848,79.3072375 14.0053511,80.8809091 14.0053511,82.6187708 C14.0053511,86.1015475 23.8870702,88.9248958 36.0767885,88.9248958 C48.2665068,88.9248958 58.1482259,86.1015475 58.1482259,82.6187708 C58.1482259,81.9438165 57.7770926,81.2936288 57.0899517,80.6839578" transform="rotate(-8 36.077 83.546)"/>
    <path stroke="#333" stroke-linecap="round" d="M12.5,80.5 C12.0084635,80.9915365 11.6751302,81.3248698 11.5,81.5 C11.3248698,81.6751302 10.9915365,82.0084635 10.5,82.5" opacity=".261"/>
    <path stroke="#333" stroke-linecap="round" d="M29,51 C30.6950057,52.2400101 32.6100982,52.8600152 34.7452775,52.8600152 C36.8804568,52.8600152 38.7955493,52.2400101 40.490555,51"/>
    <path stroke="#333" stroke-linecap="round" d="M11,88 C11.6310427,89.3736963 12.564962,90.4185368 13.8017578,91.1345215 C15.0385536,91.8505061 16.7037555,92.3103043 18.7973633,92.513916" opacity=".478"/>
  </g>
</svg>
