<svg xmlns="http://www.w3.org/2000/svg" width="21" height="19" viewBox="0 0 21 19">
  <g fill="none" fill-rule="evenodd" transform="translate(-3 -4)">
    <rect width="27" height="27"/>
    <path fill="#333" fill-rule="nonzero" d="M10.1715956,4.81527559 C10.4340282,4.8157827 10.6763397,4.95867413 10.8075558,5.19030225 L11.7634958,6.87792221 C11.8920449,7.11330947 12.1351326,7.25977498 12.399456,7.26110162 L14.6033178,7.26110162 C14.8637186,7.26082176 15.1043664,7.11956551 15.2352782,6.89015134 L16.1912182,5.20253138 C16.3724723,4.87919526 16.7590445,4.74034834 17.0991613,4.87642124 C17.8280668,5.19260414 18.5137262,5.60366022 19.1390334,6.09933426 C19.4297086,6.33279424 19.5050605,6.74993332 19.3150224,7.07358829 L18.3270843,8.74490274 C18.1963333,8.97570881 18.1963333,9.26007361 18.3270843,9.49087968 L19.3950174,11.4556933 C19.5221541,11.6885662 19.7615272,11.8346308 20.022978,11.8388727 L21.9348582,11.8714837 C22.3023398,11.8772015 22.6086812,12.1597605 22.6508133,12.5318567 C22.6834609,12.852807 22.6994821,13.1752883 22.6988103,13.497958 C22.6980289,13.9069265 22.6713082,14.3154159 22.6188153,14.720871 C22.5802389,15.0977156 22.2706055,15.3852308 21.8988604,15.3893968 L19.9829805,15.3649385 C19.7256365,15.3649568 19.4872075,15.5027066 19.3550199,15.727736 L18.2030921,17.6558622 C18.0723411,17.8866683 18.0723411,18.1710331 18.2030921,18.4018392 L19.1390334,20.1016883 C19.3200926,20.4300277 19.2325968,20.8444152 18.9350462,21.0677895 C18.3654216,21.4912323 17.7493012,21.8455511 17.0991613,22.1235711 C17.0092352,22.161883 16.9126442,22.181294 16.8151791,22.1806404 C16.5527465,22.1801333 16.3104351,22.0372418 16.179219,21.8056137 L15.2232789,20.1179938 C15.0923671,19.8885796 14.8517194,19.7473233 14.5913186,19.7470435 L12.399456,19.7470435 C12.1390552,19.7473233 11.8984074,19.8885796 11.7674956,20.1179938 L10.8115555,21.8056137 C10.6252542,22.1326638 10.2291958,22.2672124 9.88761344,22.1194947 C9.15870796,21.8033118 8.47304853,21.3922558 7.84774133,20.8965817 C7.55706617,20.6631217 7.48171428,20.2459827 7.67175237,19.9223277 L8.65569068,18.2673187 C8.78644169,18.0365127 8.78644169,17.7521479 8.65569068,17.5213418 L7.58775763,15.5565282 C7.46062095,15.3236553 7.22124786,15.1775907 6.959797,15.1733488 L5.04791686,15.1407378 C4.68043518,15.1350199 4.37409387,14.852461 4.33196175,14.4803648 C4.30408877,14.1537132 4.29340746,13.8257743 4.29996376,13.497958 C4.30074512,13.0889894 4.32746583,12.6805 4.37995874,12.275045 C4.42041897,11.8998132 4.72953898,11.614525 5.0999136,11.6105956 L7.01579349,11.6350538 C7.27313749,11.6350356 7.51156649,11.4972858 7.64375412,11.2722563 L8.76768366,9.34413012 C8.89843467,9.11332405 8.89843467,8.82895925 8.76768366,8.59815318 L7.86774008,6.89830409 C7.68668091,6.56996469 7.77417667,6.15557711 8.07172729,5.93220281 C8.63864519,5.50788949 9.25206129,5.15221406 9.89961269,4.87234487 C9.98581102,4.83561344 10.0781707,4.81623391 10.1715956,4.81527559 Z M10.1715956,4.00000025 C9.96822337,3.999882 9.76690696,4.04147117 9.57963275,4.12229155 C8.87145159,4.42498591 8.20029902,4.81076787 7.57975813,5.27182979 C6.94785358,5.74050239 6.76342558,6.61882615 7.15178496,7.31001814 L8.06772754,8.97725622 L7.00379424,10.8197785 L5.12791185,10.7953202 C4.35311616,10.7898895 3.69437645,11.3705722 3.58800839,12.1527537 C3.530022,12.5987295 3.50062817,13.048084 3.50001391,13.497958 C3.49943727,13.8478521 3.51679316,14.197538 3.55201065,14.5455868 C3.63643089,15.3265377 4.27712781,15.921894 5.04791686,15.9356313 L6.91979951,15.9682423 L7.95173481,17.8596811 L6.9837955,19.4902318 C6.58531598,20.1679429 6.74484466,21.0420555 7.35577218,21.5284201 C8.03520507,22.0667203 8.77998024,22.5133777 9.57163325,22.8573189 C10.2817424,23.1672938 11.1072561,22.8915055 11.4995124,22.2132514 L12.4354537,20.5623188 L14.5593206,20.5623188 L15.4992616,22.2173278 C15.7738284,22.7003329 16.2794651,22.9983514 16.8271784,22.9999921 C17.031897,23.0006592 17.2346271,22.9590591 17.423141,22.8777008 C18.1313222,22.5750064 18.8024748,22.1892245 19.4230156,21.7281626 C20.0549202,21.25949 20.2393482,20.3811662 19.8509888,19.6899742 L18.9350462,18.0227361 L20.0189783,16.1639084 L21.8948607,16.1883666 C22.6696564,16.1937974 23.3283961,15.6131146 23.4347641,14.8309332 C23.4842114,14.3884739 23.5055878,13.9432235 23.4987601,13.497958 C23.4993368,13.1480639 23.4819809,12.798378 23.4467634,12.4503292 C23.3623431,11.6693783 22.7216462,11.074022 21.9508572,11.0602847 L20.0789745,11.0276737 L19.051039,9.13215853 L20.0149785,7.50160785 C20.413458,6.82389665 20.2539294,5.94978406 19.6430018,5.46341949 C18.964013,4.92226403 18.2192182,4.47285451 17.4271408,4.12636793 C16.7140665,3.81851097 15.8876456,4.09984461 15.4992616,4.78266458 L14.5593206,6.44582628 L12.4394535,6.44582628 L11.4995124,4.78266458 C11.2249456,4.29965945 10.7193089,4.0016409 10.1715956,4.00000025 Z M13.499387,11.4597696 C14.8247873,11.4597696 15.8992366,12.5548032 15.8992366,13.9055957 C15.8992366,15.2563881 14.8247873,16.3514217 13.499387,16.3514217 C12.1739867,16.3514217 11.0995375,15.2563881 11.0995375,13.9055957 C11.0995375,12.5548032 12.1739867,11.4597696 13.499387,11.4597696 Z M13.499387,10.6444943 C11.7321866,10.6444943 10.2995876,12.1045391 10.2995876,13.9055957 C10.2995876,15.7066522 11.7321866,17.166697 13.499387,17.166697 C15.2665874,17.166697 16.6991864,15.7066522 16.6991864,13.9055957 C16.6991864,12.1045391 15.2665874,10.6444943 13.499387,10.6444943 Z"/>
  </g>
</svg>
