<?xml version="1.0" encoding="UTF-8"?>
<svg width="166px" height="149px" viewBox="0 0 166 149" version="1.1" xmlns="http://www.w3.org/2000/svg" xmlns:xlink="http://www.w3.org/1999/xlink">
    <!-- Generator: Sketch 50.2 (55047) - http://www.bohemiancoding.com/sketch -->
    <title>Group 10</title>
    <desc>Created with Sketch.</desc>
    <defs></defs>
    <g id="Page-1" stroke="none" stroke-width="1" fill="none" fill-rule="evenodd">
        <g id="1_Home-page_3_Transaction(nothing)" transform="translate(-105.000000, -226.000000)">
            <g id="Group" transform="translate(105.000000, 226.000000)">
                <g id="Group-10">
                    <polygon id="Rectangle-12" fill="#CDCDCD" points="23.9565824 47.1370062 72.8706887 85.9525606 72.8706887 148.857799 31.0426547 117.407192"></polygon>
                    <polygon id="Rectangle-12-Copy-6" fill="#E3E3E3" points="23.9565824 47.1370062 72.8706887 85.9525606 50.4027203 105.730597 0 66.3811179"></polygon>
                    <polygon id="Rectangle-12-Copy" fill="#EDEEEF" points="23.9565824 47.1370062 72.8706887 85.9525606 93.2007109 78.587613 93.2007109 24.0883423"></polygon>
                    <polygon id="Rectangle-12-Copy-5" fill="#DEDEDE" points="72.8706887 149 72.8706887 85.9525606 144.294525 59.4105773 136.842025 121.352244"></polygon>
                    <polygon id="Rectangle-12-Copy-7" fill="#EFEFEF" points="95.1123338 116.729724 72.8706887 85.9525606 144.294525 59.4105773 152.747967 91.4152321"></polygon>
                    <polygon id="Rectangle-12-Copy-3" fill="#F2F2F2" points="23.9565824 47.1370062 10.2141825 22.7146253 74.2245865 0 93.2007109 24.0883423"></polygon>
                    <polygon id="Rectangle-12-Copy-2" fill="#E1E1E1" points="144.241986 59.9055984 93.2007109 78.587613 93.2007109 24.0883423"></polygon>
                    <polygon id="Rectangle-12-Copy-4" fill="#F4F4F4" points="144.241986 59.9055984 166 34.7842853 120.899709 0.92028307 93.2007109 24.0883423"></polygon>
                </g>
            </g>
        </g>
    </g>
</svg>