<?xml version="1.0" encoding="UTF-8"?>
<svg width="55px" height="50px" viewBox="0 0 55 50" version="1.1" xmlns="http://www.w3.org/2000/svg" xmlns:xlink="http://www.w3.org/1999/xlink">
    <!-- Generator: Sketch 50.2 (55047) - http://www.bohemiancoding.com/sketch -->
    <title>转账2</title>
    <desc>Created with Sketch.</desc>
    <defs></defs>
    <g id="Page-1" stroke="none" stroke-width="1" fill="none" fill-rule="evenodd">
        <g id="1_Home-page_3_Transaction(nothing)" transform="translate(-282.000000, -81.000000)" fill="#FFFFFF">
            <g id="Group-2" transform="translate(282.000000, 81.000000)">
                <g id="转账" transform="translate(2.000000, 6.000000)">
                    <path d="M34.7561102,26.2189563 C34.9719957,26.0003371 35.1052632,25.6999422 35.1052632,25.3684211 C35.1052632,24.6998658 34.5632921,24.1578947 33.8947368,24.1578947 L12.1052632,24.1578947 C11.4367079,24.1578947 10.8947368,24.6998658 10.8947368,25.3684211 C10.8947368,26.0369763 11.4367079,26.5789474 12.1052632,26.5789474 L30.8526929,26.5789474 L29.2985767,27.8906107 C28.7891484,28.3205646 28.6896667,29.0671542 29.0687384,29.6154991 C29.090778,29.6473804 29.1145623,29.6780195 29.1399826,29.7072765 C29.5211119,30.1459293 30.1856767,30.1925613 30.6243296,29.811432 L34.6395157,26.3227843 C34.6727731,26.2967935 34.7046368,26.2691026 34.7349765,26.239842 L34.7572849,26.220459 L34.7561102,26.2189563 Z M11.2438898,17.2547279 C11.0280043,17.4733471 10.8947368,17.773742 10.8947368,18.1052632 C10.8947368,18.7738184 11.4367079,19.3157895 12.1052632,19.3157895 L33.8947368,19.3157895 C34.5632921,19.3157895 35.1052632,18.7738184 35.1052632,18.1052632 C35.1052632,17.4367079 34.5632921,16.8947368 33.8947368,16.8947368 L15.1473071,16.8947368 L16.7014233,15.5830735 C17.2108516,15.1531196 17.3103333,14.40653 16.9312616,13.8581851 C16.909222,13.8263038 16.8854377,13.7956647 16.8600174,13.7664077 C16.4788881,13.3277549 15.8143233,13.2811229 15.3756704,13.6622522 L11.3604843,17.1508999 C11.3272269,17.1768907 11.2953632,17.2045816 11.2650235,17.2338423 L11.2427151,17.2532252 L11.2438898,17.2547279 Z M2,6 L44,6 C45.1045695,6 46,6.8954305 46,8 L46,35.4736842 C46,36.5782537 45.1045695,37.4736842 44,37.4736842 L2,37.4736842 C0.8954305,37.4736842 2.09738034e-15,36.5782537 0,35.4736842 L0,8 C-1.3527075e-16,6.8954305 0.8954305,6 2,6 Z" id="Combined-Shape"></path>
                    <path d="M48,31.4736842 L48,6 C48,4.8954305 47.1045695,4 46,4 L7,4 L7,1.99989086 C7,0.895321358 7.8954305,-0.000109142276 9,-0.000109142276 L50,-0.000109142276 C51.1045695,-0.000109142276 52,0.895321358 52,1.99989086 L52,29.4736842 C52,30.5782537 51.1045695,31.4736842 50,31.4736842 L48,31.4736842 Z" id="Combined-Shape"></path>
                </g>
            </g>
        </g>
    </g>
</svg>