<?xml version="1.0" encoding="UTF-8"?>
<svg width="55px" height="50px" viewBox="0 0 55 50" version="1.1" xmlns="http://www.w3.org/2000/svg" xmlns:xlink="http://www.w3.org/1999/xlink">
    <!-- Generator: Sketch 50.2 (55047) - http://www.bohemiancoding.com/sketch -->
    <title>钱包1</title>
    <desc>Created with Sketch.</desc>
    <defs></defs>
    <g id="Page-1" stroke="none" stroke-width="1" fill="none" fill-rule="evenodd">
        <g id="1_Home-page_2_Balance" transform="translate(-33.000000, -81.000000)" fill="#FFFFFF">
            <g id="Group-2" transform="translate(33.000000, 81.000000)">
                <g id="钱包" transform="translate(3.000000, 5.000000)">
                    <path d="M34,27 C31.9289322,27 30.25,25.3210678 30.25,23.25 C30.25,21.1789322 31.9289322,19.5 34,19.5 C36.0710678,19.5 37.75,21.1789322 37.75,23.25 C37.75,25.3210678 36.0710678,27 34,27 Z M34,24.5 C34.6903559,24.5 35.25,23.9403559 35.25,23.25 C35.25,22.5596441 34.6903559,22 34,22 C33.3096441,22 32.75,22.5596441 32.75,23.25 C32.75,23.9403559 33.3096441,24.5 34,24.5 Z" id="Combined-Shape"></path>
                    <path d="M47.5,17 L45,17 L45,10.5 C45,9.94771525 44.5522847,9.5 44,9.5 L3.5,9.5 C2.94771525,9.5 2.5,9.94771525 2.5,10.5 L2.5,36 C2.5,36.5522847 2.94771525,37 3.5,37 L44,37 C44.5522847,37 45,36.5522847 45,36 L45,30.75 L47.5,30.75 L47.5,37.5 C47.5,38.6045695 46.6045695,39.5 45.5,39.5 L2,39.5 C0.8954305,39.5 1.3527075e-16,38.6045695 0,37.5 L0,9 C-1.3527075e-16,7.8954305 0.8954305,7 2,7 L45.5,7 C46.6045695,7 47.5,7.8954305 47.5,9 L47.5,17 Z" id="Combined-Shape"></path>
                    <path d="M38.4287109,9 L35.9287109,9 L35.9287109,4.31641674 C35.9287109,4.26384592 35.9245654,4.21135696 35.9163129,4.15943791 C35.8296159,3.61400041 35.3171696,3.24211776 34.7717321,3.32881477 L3.34302117,8.32439236 C2.9646016,8.38454195 2.66401189,8.65211876 2.54976459,9 L4.4408921e-16,9 L4.4408921e-16,7.6566206 C3.24143906e-16,6.67719286 0.709294036,5.84185979 1.67576541,5.68307761 L36.1044763,0.02676351 C37.194434,-0.15230631 38.2231841,0.586114211 38.4022539,1.67607191 C38.4198627,1.78325237 38.4287109,1.89168919 38.4287109,2.0003065 L38.4287109,9 Z" id="Combined-Shape-Copy"></path>
                    <path d="M34,14.5 L48,14.5 C48.5522847,14.5 49,14.9477153 49,15.5 L49,31 C49,31.5522847 48.5522847,32 48,32 L34,32 C29.1675084,32 25.25,28.0824916 25.25,23.25 C25.25,18.4175084 29.1675084,14.5 34,14.5 Z M34,17 C30.5482203,17 27.75,19.7982203 27.75,23.25 C27.75,26.7017797 30.5482203,29.5 34,29.5 L45.5,29.5 C46.0522847,29.5 46.5,29.0522847 46.5,28.5 L46.5,18 C46.5,17.4477153 46.0522847,17 45.5,17 L34,17 Z" id="Combined-Shape"></path>
                </g>
            </g>
        </g>
    </g>
</svg>