<?xml version="1.0" encoding="UTF-8"?>
<svg width="55px" height="50px" viewBox="0 0 55 50" version="1.1" xmlns="http://www.w3.org/2000/svg" xmlns:xlink="http://www.w3.org/1999/xlink">
    <!-- Generator: Sketch 50.2 (55047) - http://www.bohemiancoding.com/sketch -->
    <title>余额1</title>
    <desc>Created with Sketch.</desc>
    <defs></defs>
    <g id="Page-1" stroke="none" stroke-width="1" fill="none" fill-rule="evenodd">
        <g id="1_Home-page_1_Wallets" transform="translate(-160.000000, -80.000000)" fill="#FFFFFF">
            <g id="Group-2" transform="translate(160.000000, 80.000000)">
                <g id="余额" transform="translate(3.000000, 4.000000)">
                    <path d="M36.4307895,10.8947064 L36.4307895,5.60196455 C36.4235983,3.81134941 34.6689393,2.39467801 31.3537844,1.38790648 C28.3981908,0.496194523 24.4861642,0 20.3440184,0 C16.1946813,0 12.2826547,0.496194565 9.33425235,1.3950977 C6.01909746,2.40186923 4.26443847,3.81854064 4.26443847,5.49409615 C4.26443847,5.60915577 4.27162969,5.72421538 4.29320335,5.83927496 L4.29320335,9.66500686 C3.81858249,9.85916994 3.26485812,10.1108628 2.72551623,10.4128943 C0.91332743,11.4340483 -0.00714940925,12.5918355 4.18114904e-05,13.8503 C4.18114904e-05,13.9653596 0.00723303223,14.0804192 0.0288066944,14.1954788 L0.0216154737,20.0707099 C0.00723303223,20.8977008 0.373985541,21.6743532 1.10029929,22.3647108 C1.82661305,23.0550684 2.91248809,23.6447489 4.22848232,24.1337522 L4.22848232,29.0597416 C4.21409988,29.9154974 4.60961727,30.7209147 5.40065205,31.4544196 C7.98949319,33.8706714 14.6557591,35.2441954 20.1210903,35.2441954 C20.4950341,35.2441954 20.8689778,35.2370042 21.2357303,35.2226217 C21.7966459,36.0424214 22.4366649,36.8190738 23.1485962,37.5381963 C26.1113811,40.5009812 30.0521725,42.1333893 34.2446569,42.1333893 C38.4371413,42.1333893 42.3779328,40.5009812 45.3407177,37.5381963 C48.3035026,34.5754115 49.9359107,30.63462 49.9359107,26.4421356 C49.9359107,22.2496513 48.3035026,18.3088597 45.3407177,15.3388837 C42.8957011,12.8938671 39.796283,11.3621361 36.4307895,10.8947064 Z M6.01190623,10.7508819 L6.01190623,8.12608466 C6.83889716,8.67980903 7.94634587,9.16881233 9.33425235,9.58590339 C12.289846,10.4848066 16.2018726,10.9810011 20.3440184,10.9810011 C24.4933554,10.9810011 28.405382,10.4848065 31.3537844,9.58590339 C32.7560733,9.16162107 33.8707133,8.66542655 34.7048954,8.10451095 L34.7048954,10.7580731 C34.5538797,10.7508819 34.3956727,10.7508819 34.244657,10.7508819 C30.0521726,10.7508819 26.1113811,12.3832901 23.1485962,15.3460749 C22.8825209,15.6121503 22.6236368,15.892608 22.3719439,16.1802571 C15.4252202,16.4822885 8.44973161,14.648526 6.4865271,12.7788075 C6.1988781,12.5055409 6.04067112,12.253848 6.04067112,12.0668762 L6.00471497,12.0668762 L6.00471497,10.8731328 C6.01190619,10.8659416 6.02628863,10.8659416 6.03347985,10.8659416 L6.01190623,10.7508819 Z M9.83044691,3.04188834 C12.6278336,2.19332375 16.3600795,1.72589411 20.3440184,1.72589411 C24.3279572,1.72589411 28.0602032,2.19332375 30.8575899,3.04188834 C33.6981239,3.90483537 34.7048954,4.8972245 34.7048954,5.48690497 C34.7048954,6.07658545 33.6981239,7.06897454 30.8575899,7.93192161 C28.0602032,8.7804862 24.3279573,9.24791584 20.3440184,9.24791584 C16.3600796,9.24791584 12.6278336,8.7804862 9.83044691,7.93192161 C6.98991288,7.06897458 5.98314135,6.07658545 5.98314135,5.48690497 C5.98314135,4.89722446 6.98991288,3.90483537 9.83044691,3.04188834 Z M4.27882095,11.5419167 L4.27882095,12.0524937 L4.3147771,12.0524937 C4.3147771,12.7428513 4.64557346,13.4044441 5.29278374,14.0228894 C7.67307935,16.2881254 14.3609189,17.9277248 20.8042568,17.934916 C15.6193833,18.5605526 11.5851059,18.0859317 9.08975072,17.5753547 C6.162922,16.9712918 3.66756681,15.9501378 2.40191113,14.8426891 C1.89133412,14.3968331 1.71155348,14.0300806 1.71155348,13.8431088 C1.7187447,13.0880301 2.86214955,12.2178919 4.27882095,11.5419167 Z M2.28685151,21.1062464 C1.97043759,20.8042149 1.79065695,20.5093747 1.7403184,20.2217257 L1.7403184,16.5182446 C3.3008143,17.6760319 5.81055197,18.6612298 8.74457191,19.2652927 C10.9882342,19.7255311 13.4116772,19.9556504 15.9142236,19.9556504 C17.266174,19.9556504 18.639698,19.8909293 20.0276045,19.7542961 C19.373203,21.1493938 18.927347,22.6307862 18.704419,24.1697084 C15.4539852,24.3279154 11.8655637,24.1049874 8.84524904,23.5584543 C5.68110987,22.9903474 3.35115285,22.113018 2.28685151,21.1062464 Z M18.5821681,27.506437 C14.2314768,27.6143054 10.1468608,26.4133707 7.84566869,25.1261414 C10.5927168,25.6798658 13.7208998,25.9531323 16.6477285,25.9531323 C17.2949388,25.9531323 17.9277666,25.9387499 18.5534032,25.9099849 C18.546212,26.0825744 18.546212,26.262355 18.546212,26.4349444 C18.546212,26.7945057 18.5605945,27.1540669 18.5821681,27.506437 Z M6.57282183,30.1815728 C6.17011322,29.8076291 5.96156769,29.4480679 5.93999399,29.102889 L5.95437643,29.102889 L5.95437643,25.9531323 C7.248797,26.9095653 9.22638395,27.7797036 11.5060024,28.3837665 C13.0952632,28.8080488 15.3820729,29.2395223 18.0212526,29.2395223 C18.2801367,29.2395223 18.5390208,29.2323311 18.7979049,29.2251398 C19.0639802,30.7209147 19.5457923,32.1591598 20.2289587,33.5039189 C14.7708187,33.539875 8.60793859,32.0872475 6.57282183,30.1815728 Z M34.244657,40.4074953 C26.5428546,40.4074953 20.2792973,34.143938 20.2792973,26.4421356 C20.2792973,18.7403332 26.5428546,12.476776 34.244657,12.476776 C41.9464593,12.476776 48.2100166,18.7403332 48.2100166,26.4421356 C48.2100166,34.143938 41.9464594,40.4074953 34.244657,40.4074953 Z" id="Shape" stroke="#FFFFFF" stroke-width="0.5" fill-rule="nonzero"></path>
                    <path d="M31.0254972,28.7182927 C31.0501796,29.5451542 31.306256,30.1992289 31.7937341,30.6805363 C32.2812121,31.1618437 32.8951784,31.464199 33.6356514,31.5876112 L33.6356514,26.6820022 C32.9815669,26.5215664 32.4169648,26.3457067 31.9418279,26.1544179 C31.4666911,25.963129 31.0717781,25.7348199 30.7570771,25.4694838 C30.4423761,25.2041476 30.2109817,24.8801956 30.0628872,24.4976179 C29.9147926,24.1150402 29.8407464,23.6522515 29.8407464,23.109238 C29.8407464,22.5538833 29.9394746,22.0448157 30.1369341,21.5820201 C30.3343935,21.1192245 30.602811,20.718141 30.9421944,20.3787575 C31.2815779,20.0393741 31.6826614,19.7709567 32.145457,19.5734972 C32.6082526,19.3760377 33.1049791,19.258798 33.6356514,19.2217743 L33.6356514,18 L34.6537966,18 L34.6537966,19.240286 C35.6534352,19.3636982 36.4494317,19.7339291 37.0418101,20.3509899 C37.6341884,20.9680508 38.0537835,21.8195819 38.3006078,22.9056089 L36.7271106,22.9056089 C36.4802863,21.6838285 35.7891885,20.9680487 34.6537966,20.758248 L34.6537966,25.3121341 L35.7645006,25.6083218 C36.0113249,25.6700279 36.3013391,25.7780119 36.634552,25.9322771 C36.9677648,26.0865423 37.2886316,26.2994251 37.597162,26.5709318 C37.9056924,26.8424386 38.1679393,27.181817 38.3839106,27.5890771 C38.5998819,27.9963372 38.7078659,28.483808 38.7078659,29.0515039 C38.7078659,29.6562235 38.6060524,30.1930584 38.4024223,30.6620246 C38.1987923,31.1309908 37.9180338,31.5351596 37.5601385,31.874543 C37.2022433,32.2139265 36.7764777,32.4823439 36.2828291,32.6798034 C35.7891804,32.8772628 35.246175,33.0006731 34.6537966,33.050038 L34.6537966,34.568 L33.6356514,34.568 L33.6356514,33.050038 C32.4015298,32.9266258 31.4204178,32.497775 30.692286,31.7634726 C29.9641543,31.0291703 29.5507297,30.0141204 29.452,28.7182927 L31.0254972,28.7182927 Z M34.6537966,31.5876112 C34.9993507,31.5629287 35.3171323,31.5012236 35.6071508,31.4024939 C35.8971694,31.3037641 36.1501606,31.158757 36.3661318,30.9674682 C36.5821031,30.7761793 36.748707,30.5355292 36.8659486,30.2455106 C36.9831902,29.955492 37.0418101,29.6130284 37.0418101,29.2181095 C37.0418101,28.8602142 36.9801049,28.5609442 36.8566927,28.3202905 C36.7332806,28.0796368 36.5666767,27.8729245 36.356876,27.7001475 C36.1470753,27.5273705 35.8940842,27.3823633 35.597895,27.2651218 C35.3017058,27.1478802 34.9870095,27.0398962 34.6537966,26.9411665 L34.6537966,31.5876112 Z M33.6356514,20.7027128 C33.043273,20.7644189 32.540376,20.9773017 32.1269453,21.3413676 C31.7135145,21.7054335 31.5068022,22.2391831 31.5068022,22.9426324 C31.5068022,23.263504 31.5592516,23.538092 31.664152,23.7664045 C31.7690523,23.994717 31.9171447,24.186003 32.1084335,24.3402682 C32.2997224,24.4945334 32.5249462,24.6271994 32.7841117,24.7382704 C33.0432773,24.8493413 33.327121,24.9480696 33.6356514,25.0344581 L33.6356514,20.7027128 Z" id="$"></path>
                </g>
            </g>
        </g>
    </g>
</svg>