<?xml version="1.0" encoding="UTF-8"?>
<svg width="55px" height="50px" viewBox="0 0 55 50" version="1.1" xmlns="http://www.w3.org/2000/svg" xmlns:xlink="http://www.w3.org/1999/xlink">
    <!-- Generator: Sketch 50.2 (55047) - http://www.bohemiancoding.com/sketch -->
    <title>钱包2</title>
    <desc>Created with Sketch.</desc>
    <defs></defs>
    <g id="Page-1" stroke="none" stroke-width="1" fill="none" fill-rule="evenodd">
        <g id="1_Home-page_1_Wallets" transform="translate(-33.000000, -80.000000)" fill="#FFFFFF">
            <g id="Group-3" transform="translate(33.000000, 80.000000)">
                <g id="钱包-copy" transform="translate(3.000000, 5.000000)">
                    <path d="M34,17 L49,17 C49.5522847,17 50,17.4477153 50,18 L50,28.5 C50,29.0522847 49.5522847,29.5 49,29.5 L34,29.5 C30.5482203,29.5 27.75,26.7017797 27.75,23.25 C27.75,19.7982203 30.5482203,17 34,17 Z M34,27 C36.0710678,27 37.75,25.3210678 37.75,23.25 C37.75,21.1789322 36.0710678,19.5 34,19.5 C31.9289322,19.5 30.25,21.1789322 30.25,23.25 C30.25,25.3210678 31.9289322,27 34,27 Z" id="Combined-Shape"></path>
                    <circle id="Oval-Copy" cx="34" cy="23.25" r="1.25"></circle>
                    <path d="M47.5,14.5 L34,14.5 C29.1675084,14.5 25.25,18.4175084 25.25,23.25 C25.25,28.0824916 29.1675084,32 34,32 L47.5,32 L47.5,37.5 C47.5,38.6045695 46.6045695,39.5 45.5,39.5 L2,39.5 C0.8954305,39.5 1.3527075e-16,38.6045695 0,37.5 L0,9 C-1.3527075e-16,7.8954305 0.8954305,7 2,7 L45.5,7 C46.6045695,7 47.5,7.8954305 47.5,9 L47.5,14.5 Z" id="Combined-Shape"></path>
                    <path d="M5.8335051,5 L36.1044763,0.02676351 C37.194434,-0.15230631 38.2231841,0.586114211 38.4022539,1.67607191 C38.4198627,1.78325237 38.4287109,1.89168919 38.4287109,2.0003065 L38.4287109,5 L5.8335051,5 Z" id="Combined-Shape-Copy"></path>
                </g>
            </g>
        </g>
    </g>
</svg>