<?xml version="1.0" encoding="UTF-8"?>
<svg width="412px" height="334px" viewBox="0 0 412 334" version="1.1" xmlns="http://www.w3.org/2000/svg" xmlns:xlink="http://www.w3.org/1999/xlink">
    <title>no-results-darker 2</title>
    <g id="Page-1" stroke="none" stroke-width="1" fill="none" fill-rule="evenodd">
        <g id="no-results-darker-2" transform="translate(0.000000, -0.000000)" fill-rule="nonzero">
            <g id="no-results-darker">
                <g id="Group">
                    <path d="M166.503996,252.456929 L143.710834,252.456929 C143.710834,252.456929 144.910474,250.992513 144.910474,242.372426 C144.910474,232.720592 139.47877,231.855256 139.47877,219.241307 C139.47877,209.323215 143.210984,205.029813 143.210984,196.30988 C143.210984,188.721541 140.145237,181.266332 140.145237,181.266332 L166.503996,181.266332 C166.503996,181.266332 162.438549,210.15527 162.438549,218.708792 C162.438549,227.295596 166.503996,252.456929 166.503996,252.456929 L166.503996,252.456929 Z M271.072627,252.456929 L252.711468,253.022726 C252.711468,253.022726 248.745991,253.355548 248.745991,244.768744 C248.745991,235.11691 254.077725,231.855256 254.077725,219.274589 C254.077725,209.356497 248.512728,203.931501 248.512728,195.211568 C248.512728,187.623229 250.445481,181.299614 250.445481,181.299614 L271.072627,181.299614 C271.072627,181.299614 275.204721,210.188552 275.204721,218.742074 C275.204721,227.295596 271.072627,252.456929 271.072627,252.456929 Z" id="Shape" fill="#EEEEEE"></path>
                    <path d="M286.648522,128.59 L125.363573,128.59 C118.932169,128.59 113.700405,133.815303 113.700405,140.238765 L113.700405,251.068447 C113.700405,257.491909 118.932169,262.717213 125.363573,262.717213 L134.12761,262.717213 C134.660784,264.34804 135.62716,265.978867 137.093387,267.476565 C137.459944,267.84267 137.893147,268.108927 138.392997,268.242056 C153.021942,272.036225 156.654186,276.729014 157.520592,279.191895 C158.486969,281.921035 156.887449,284.117659 156.787479,284.250788 C155.821102,285.482229 156.054366,287.17962 157.254006,288.144803 C158.486969,289.109987 160.219783,288.910294 161.18616,287.678853 C162.48577,286.014744 164.351877,281.987599 162.852326,277.461221 C160.752956,271.337299 153.288529,266.4781 140.625661,263.083317 C139.592637,261.851876 139.259404,260.786846 139.259404,259.954791 L139.259404,259.921509 C139.259404,258.823197 139.959194,257.691602 141.225481,256.693137 C141.258804,256.659855 141.325451,256.659855 141.325451,256.59329 C141.692008,256.327033 142.091888,256.060775 142.558414,255.8278 C142.658385,255.761236 142.758354,255.727953 142.891648,255.661389 C143.424821,255.395132 144.057965,255.195439 144.657785,254.962463 C145.624161,254.729488 147.390298,254.429948 150.189458,254.429948 C155.087989,254.429948 160.786279,255.395132 167.151037,257.258934 C168.217384,257.724885 169.28373,258.224118 170.350077,258.789915 C170.683311,258.956326 171.016544,259.156019 171.316454,259.32243 C172.682711,260.054638 174.015644,260.919975 175.381901,261.818594 C175.481871,261.91844 175.615164,261.951722 175.715134,262.051569 C197.108717,277.061835 194.709436,284.650174 194.74276,284.650174 C194.009646,286.014744 194.54282,287.712135 195.909076,288.444343 C196.308956,288.677319 196.775483,288.777165 197.208687,288.777165 C198.208387,288.777165 199.174764,288.24465 199.674613,287.279467 C200.574344,285.615357 203.473474,277.261528 185.745459,262.717213 L235.263937,262.717213 C217.502599,277.294811 220.435052,285.64864 221.301459,287.312749 C221.834632,288.277932 222.834332,288.843729 223.867356,288.843729 C224.300559,288.843729 224.733763,288.743883 225.100319,288.510908 C226.466576,287.778699 227.033073,286.181155 226.299959,284.816585 C226.266636,284.75002 223.767386,277.161682 245.260938,262.084851 C246.760488,261.053103 248.260038,260.154484 249.759588,259.289148 C250.026175,259.122737 250.292762,258.989608 250.559349,258.823197 C251.659019,258.224118 252.792012,257.724885 253.891682,257.225652 C260.223116,255.361849 265.921407,254.396666 270.819937,254.396666 C273.619097,254.396666 275.385234,254.729488 276.318288,254.929181 C276.918108,255.162156 277.551251,255.36185 278.117748,255.628107 C278.217718,255.661389 278.317688,255.727954 278.417658,255.761236 C278.884185,255.994211 279.317388,256.293751 279.717268,256.560008 L279.750592,256.59329 C281.050202,257.558474 281.749992,258.690068 281.749992,259.821663 L281.749992,259.854945 C281.749992,260.686999 281.416758,261.718747 280.383735,262.950188 C267.687544,266.344971 260.223116,271.20417 258.157069,277.394657 C256.624196,281.921035 258.490303,285.948179 259.823236,287.612288 C260.789613,288.843729 262.55575,289.043423 263.75539,288.078239 C264.988353,287.113056 265.188293,285.3491 264.221917,284.150941 C264.188593,284.117659 262.55575,281.921035 263.488803,279.158613 C264.321887,276.662449 267.920807,271.936378 282.616398,268.142209 C283.116249,268.00908 283.582775,267.742823 283.916009,267.376719 C285.382235,265.845738 286.348612,264.214911 286.881786,262.584084 C293.21322,262.450955 298.31169,257.292216 298.31169,250.968601 L298.31169,140.138919 C298.31169,133.848586 293.079926,128.59 286.648522,128.59 Z M143.391498,182.207603 L168.28403,182.207603 C169.317054,185.901926 171.149837,195.287502 166.917774,207.135961 L166.617863,207.968016 C164.58514,213.659269 162.052566,220.715093 167.68421,235.292691 C171.116514,244.179035 169.017144,249.237927 167.58424,251.434551 L167.550917,251.434551 C167.317653,251.334705 167.051067,251.26814 166.817803,251.135012 C163.48547,249.870289 160.253106,249.071516 157.220683,248.67213 L156.420922,248.572283 C154.988019,248.405872 153.621762,248.306026 152.255505,248.306026 C151.955595,248.306026 151.655685,248.339308 151.355775,248.339308 C150.256105,248.37259 149.156435,248.439155 148.123412,248.572283 C147.856825,248.605566 147.590238,248.605566 147.323652,248.67213 C147.090388,248.705412 146.890448,248.771977 146.690508,248.771976 C147.656885,244.145752 148.323352,237.289622 145.290928,232.729962 C142.025241,227.804199 141.258804,212.627522 145.224281,201.178449 C146.923771,196.219404 144.857724,187.299778 143.391498,182.207603 L143.391498,182.207603 Z M253.358509,235.259409 C258.990153,220.681811 256.457579,213.592705 254.391532,207.934733 L254.091622,207.135961 C249.892882,195.287502 251.692342,185.901926 252.725365,182.207603 L277.617898,182.207603 C276.151671,187.299777 274.118948,196.219403 275.818438,201.178449 C279.783915,212.660804 279.017478,227.837481 275.785114,232.729962 C272.719368,237.322904 273.385834,244.145752 274.352211,248.771976 C274.118948,248.738694 273.919007,248.67213 273.719067,248.67213 C273.552451,248.638848 273.352511,248.638848 273.152571,248.605566 C271.986254,248.439155 270.786614,248.37259 269.520327,248.339308 C269.35371,248.339308 269.187094,248.306026 269.020477,248.306026 C264.35521,248.272744 259.056799,249.204645 253.491802,251.434551 C252.025575,249.271209 249.892882,244.179035 253.358509,235.259409 L253.358509,235.259409 Z M292.713369,251.10173 C292.713369,254.363384 290.114149,257.025959 286.881786,257.159087 C286.481906,256.094058 285.915409,255.06231 285.082325,254.097126 C284.982355,253.963998 284.849062,253.864151 284.682445,253.69774 L284.549152,253.564611 C284.149272,253.131943 283.649422,252.732557 283.182895,252.33317 C283.016278,252.233324 282.849662,252.100195 282.683045,251.967066 C282.283165,251.700809 281.849962,251.434551 281.383435,251.168294 C281.216818,251.068447 281.016878,250.935319 280.850262,250.835472 C280.783615,250.80219 280.716968,250.80219 280.650322,250.735625 C280.650322,250.735625 280.616998,250.735625 280.616998,250.702343 C279.550652,247.141149 277.951131,239.419682 280.417058,235.758641 C285.049002,228.7361 285.415559,211.69562 281.083525,199.281365 C279.917208,195.919864 281.716668,187.699164 283.449482,182.141039 L284.549152,182.141039 C286.082025,182.141039 287.348312,180.909598 287.348312,179.345335 C287.348312,177.814354 286.115349,176.549631 284.549152,176.549631 L248.293362,176.549631 C246.760488,176.549631 245.494201,177.781072 245.494201,179.345335 C245.494201,180.443647 246.127345,181.342266 247.027075,181.808217 C245.760788,186.800545 244.427855,196.61879 248.793212,208.933199 L249.093122,209.765254 C250.892582,214.824146 252.991952,220.548682 248.093422,233.162631 C244.127945,243.413544 246.227315,250.103264 248.326685,253.664458 C246.460578,254.662923 244.594471,255.761236 242.695041,257.059241 L178.347678,257.059241 C178.181061,256.959394 177.981121,256.859548 177.814505,256.726419 C176.281631,255.694671 174.748758,254.796052 173.249208,253.930716 C173.082591,253.830869 172.882651,253.69774 172.682711,253.597893 C174.782081,250.036699 176.881451,243.34698 172.915974,233.129349 C168.017444,220.5154 170.083491,214.790864 171.882951,209.765254 L172.216184,208.899917 C176.581541,196.552226 175.248608,186.73398 173.982321,181.774934 C174.882051,181.308984 175.515194,180.410365 175.515194,179.312053 C175.515194,177.781072 174.282231,176.516349 172.716034,176.516349 L136.460244,176.516349 C134.92737,176.516349 133.661083,177.74779 133.661083,179.312053 C133.661083,180.843033 134.894047,182.107756 136.460244,182.107756 L137.559914,182.107756 C139.259404,187.665881 141.058864,195.886582 139.925871,199.248082 C135.72713,211.429363 136.02704,228.835947 140.592338,235.725359 C143.024941,239.353118 141.458744,247.074585 140.392397,250.669061 C140.325751,250.702343 140.225781,250.735625 140.159134,250.768908 C139.925871,250.868754 139.759254,251.001883 139.559314,251.168294 C139.126111,251.401269 138.759554,251.634245 138.359674,251.900502 L137.826501,252.299888 C137.359974,252.699275 136.893447,253.065379 136.493567,253.464765 L136.32695,253.631176 L135.960394,253.99728 C135.62716,254.396666 135.360574,254.796052 135.060664,255.228721 C135.060664,255.262003 135.02734,255.262003 135.02734,255.262003 C134.660784,255.861082 134.360874,256.460162 134.12761,257.092523 L125.330249,257.092523 C121.964592,257.092523 119.265402,254.363384 119.265402,251.035165 L119.265402,140.272048 C119.265402,136.910547 121.997916,134.21469 125.330249,134.21469 L286.615199,134.21469 C289.980856,134.21469 292.680046,136.943829 292.680046,140.272048 L292.713369,251.10173 Z" id="Shape" fill="#CCCCCC"></path>
                    <g id="水滴">
                        <line x1="384.826969" y1="330.643216" x2="408.353508" y2="330.643216" id="Shape" fill="#FEDEBB"></line>
                        <path d="M408.654599,334 L384.525879,334 C382.835545,334 381.466035,332.497587 381.466035,330.643216 C381.466035,328.788845 382.835545,327.286432 384.525879,327.286432 L408.654599,327.286432 C410.344933,327.286432 411.714443,328.788845 411.714443,330.643216 C411.714443,332.497587 410.344933,334 408.654599,334 Z" id="Shape" fill="#CCCCCC"></path>
                        <line x1="337.77389" y1="330.643216" x2="361.300429" y2="330.643216" id="Shape" fill="#FEDEBB"></line>
                        <path d="M359.993042,334 L337.40081,334 C335.750705,334 334.412955,332.497587 334.412955,330.643216 C334.412955,328.788845 335.750705,327.286432 337.40081,327.286432 L359.993042,327.286432 C361.643147,327.286432 362.980896,328.788845 362.980896,330.643216 C362.980896,332.497587 361.643147,334 359.993042,334 Z" id="Shape" fill="#CCCCCC"></path>
                        <line x1="63.8577503" y1="330.643216" x2="310.886416" y2="330.643216" id="Shape" fill="#FEDEBB"></line>
                        <path d="M311.174703,334 L63.5694634,334 C61.8725293,334 60.4968161,332.497587 60.4968161,330.643216 C60.4968161,328.788845 61.8725297,327.286432 63.5694634,327.286432 L311.174703,327.286432 C312.871679,327.286432 314.24735,328.789316 314.24735,330.643216 C314.24735,332.497117 312.871679,334 311.174703,334 L311.174703,334 Z" id="Shape" fill="#CCCCCC"></path>
                        <line x1="11.7632698" y1="330.643216" x2="36.9702765" y2="330.643216" id="Shape" fill="#FEDEBB"></line>
                        <path d="M35.6239454,334 L11.4291336,334 C9.75752068,334 8.40233556,332.497587 8.40233556,330.643216 C8.40233556,328.788845 9.75752113,327.286432 11.4291336,327.286432 L35.6239454,327.286432 C37.2955999,327.286432 38.6507436,328.789316 38.6507436,330.643216 C38.6507436,332.497117 37.2955999,334 35.6239454,334 L35.6239454,334 Z" id="Shape" fill="#CCCCCC"></path>
                        <path d="M11.7632698,175.39196 C11.7632698,178.634115 9.13116083,181.266332 5.88187103,181.266332 C2.6316367,181.266332 0,178.634115 0,175.39196 C0,172.144144 2.63210896,169.517588 5.88187103,169.517588 C9.13116083,169.517588 11.7632698,172.144144 11.7632698,175.39196 Z" id="Shape" fill="#CCCCCC"></path>
                        <path d="M261.313923,8.39195987 C258.992813,8.39195987 257.111468,6.51193459 257.111468,4.19598022 C257.111468,1.87916846 258.992812,1.05816381e-14 261.313923,1.05816381e-14 C263.634605,-0.000428543738 265.513804,1.87916804 265.513804,4.19598022 C265.513804,6.51236328 263.635034,8.39195987 261.313923,8.39195987 Z" id="Shape" fill="#A1A1A9"></path>
                        <path d="M113.750819,66.8254009 C113.750819,69.6047333 111.492163,71.8603519 108.708741,71.8603519 C105.924869,71.8603519 103.668016,69.6047333 103.668016,66.8254009 C103.668016,64.0465189 105.924869,61.7900001 108.708741,61.7900001 C111.491712,61.7900001 113.750819,64.0460686 113.750819,66.8254009 Z" id="Shape" fill="#CCCCCC"></path>
                        <path d="M27.7284053,99.0251257 C21.7050638,99.0251257 16.8046711,94.1312578 16.8046711,88.115578 C16.8046711,82.0998982 21.7050638,77.2060303 27.7284053,77.2060303 C33.7512813,77.2060303 38.6507436,82.0998982 38.6507436,88.115578 C38.6507436,94.1312578 33.7508159,99.0251257 27.7284053,99.0251257 L27.7284053,99.0251257 Z M27.7284053,79.2177625 C22.8159129,79.2177625 18.8197423,83.2091624 18.8197423,88.115578 C18.8197423,93.0219936 22.8163779,97.0129283 27.7284053,97.0129283 C32.6399673,97.0129283 36.635672,93.0215284 36.635672,88.115578 C36.635672,83.2096276 32.6395018,79.2177625 27.7284053,79.2177625 L27.7284053,79.2177625 Z" id="Shape" fill="#CCCCCC"></path>
                        <path d="M345.136689,80.8428273 C339.931227,80.8428273 335.695762,76.6402788 335.695762,71.474011 C335.695762,66.305397 339.931227,62.1005026 345.136689,62.1005026 C350.342623,62.1005026 354.578561,66.3058662 354.578561,71.474011 C354.578561,76.6398095 350.342623,80.8428273 345.136689,80.8428273 Z M345.136689,64.1316329 C341.059109,64.1316329 337.742589,67.4253575 337.742589,71.474011 C337.742589,75.5193802 341.059581,78.8112282 345.136689,78.8112282 C349.214742,78.8112282 352.531735,75.5193807 352.531735,71.474011 C352.531735,67.4253575 349.214269,64.1316329 345.136689,64.1316329 Z M63.5855836,139.219168 C61.9824184,139.219169 60.6823571,137.93004 60.6807918,136.338802 L60.6807918,133.458435 C60.6816698,132.624255 60.3485221,131.823923 59.7546903,131.233629 C59.1608585,130.643334 58.3550254,130.311471 57.5145932,130.311098 C56.6740308,130.311471 55.8680519,130.643289 55.2739948,131.233543 C54.6799376,131.823797 54.3464742,132.624126 54.3469759,133.458435 L54.3469759,136.338802 C54.3454106,137.93004 53.0453496,139.219169 51.4421846,139.219168 L48.5392839,139.219168 C46.7906722,139.219427 45.3731343,140.62621 45.372612,142.361813 C45.372612,144.100167 46.7897909,145.509619 48.5392839,145.509619 L51.4421846,145.509619 C52.2122787,145.508747 52.9511325,145.811779 53.4959818,146.351959 C54.0408312,146.89214 54.3469764,147.625151 54.3469759,148.389517 L54.3469759,151.269883 C54.3469759,153.008238 55.7651003,154.412061 57.5145932,154.412061 C58.3544701,154.412807 59.1601711,154.082012 59.7540983,153.492591 C60.3480255,152.90317 60.6814197,152.103512 60.6807918,151.269883 L60.6807918,148.389517 C60.6806657,147.625113 60.9867706,146.892029 61.5316474,146.351821 C62.0765241,145.811614 62.815451,145.508622 63.5855836,145.509619 L66.487066,145.509619 C68.2371453,145.509619 69.6558648,144.101454 69.6558648,142.364394 C69.6558648,140.627334 68.2371453,139.219168 66.487066,139.219168 L63.5855836,139.219168 L63.5855836,139.219168 Z" id="Shape" fill="#CCCCCC"></path>
                        <path d="M326.018138,140.037803 C325.379442,140.037439 324.767076,139.783108 324.315878,139.330813 C323.864681,138.878517 323.61165,138.265344 323.612501,137.626309 L323.612501,135.220314 C323.612623,134.522905 323.33556,133.854072 322.842378,133.36123 C322.349195,132.868388 321.680378,132.591994 320.983339,132.592963 C320.287219,132.59321 319.619721,132.870185 319.127748,133.362935 C318.635775,133.855684 318.359646,134.523826 318.360132,135.220314 L318.360132,137.626309 C318.360375,138.265952 318.10652,138.879466 317.654464,139.331762 C317.202408,139.784057 316.589218,140.038047 315.949914,140.037803 L313.545193,140.037803 C312.599507,140.025307 311.720264,140.522932 311.24378,141.340335 C310.767295,142.157737 310.767295,143.168439 311.24378,143.985841 C311.720264,144.803243 312.599507,145.300868 313.545193,145.288372 L315.949914,145.288372 C316.589255,145.288007 317.202516,145.541957 317.654598,145.994279 C318.106681,146.446601 318.360497,147.060186 318.360132,147.699866 L318.360132,150.105861 C318.359646,150.802392 318.63576,151.470581 319.12772,151.963403 C319.61968,152.456225 320.287177,152.733302 320.983339,152.73367 C321.680421,152.734518 322.349236,152.458022 322.842405,151.965107 C323.335574,151.472193 323.612623,150.803313 323.612501,150.105861 L323.612501,147.699866 C323.611528,147.060794 323.86452,146.447551 324.315744,145.995228 C324.766967,145.542906 325.379404,145.288615 326.018138,145.288372 L328.425608,145.288372 C329.875927,145.287866 331.051516,144.111654 331.052021,142.660567 C331.052021,141.213762 329.874395,140.037803 328.425608,140.037803 L326.018138,140.037803 L326.018138,140.037803 Z" id="Shape" fill="#CCCCCC"></path>
                        <path d="M340.291913,197.544381 C339.184742,197.544381 338.286352,196.63889 338.286352,195.53558 L338.286352,193.526778 C338.286352,192.317222 337.304544,191.336683 336.093423,191.336683 C334.882301,191.336683 333.900493,192.317222 333.900493,193.526778 L333.900493,195.53558 C333.900493,196.63889 333.002103,197.544381 331.894932,197.544381 L329.88353,197.544381 C329.302506,197.54309 328.744836,197.772698 328.333533,198.182558 C327.92223,198.592418 327.691087,199.148855 327.691087,199.729129 C327.691087,200.309849 327.922076,200.866785 328.333239,201.277416 C328.744401,201.688048 329.302058,201.918738 329.88353,201.918738 L331.894932,201.918738 C333.001906,201.920344 333.898885,202.816164 333.900493,203.921707 L333.900493,205.930508 C333.900493,207.140064 334.882301,208.120603 336.093423,208.120603 C337.304544,208.120603 338.286352,207.140064 338.286352,205.930508 L338.286352,203.921707 C338.287693,202.816053 339.184828,201.920077 340.291913,201.918738 L342.303315,201.918738 C342.884827,201.918867 343.442558,201.688218 343.853749,201.277559 C344.26494,200.866899 344.495758,200.309889 344.495758,199.729129 C344.495758,199.148894 344.264444,198.592533 343.853169,198.182701 C343.441894,197.772869 342.8843,197.54322 342.303315,197.544381 L340.291913,197.544381 L340.291913,197.544381 Z" id="Shape" fill="#CCCCCC"></path>
                        <path d="M295.216532,28.3900001 C294.741485,28.3900001 294.285944,28.5787046 293.950347,28.9145099 C293.61475,29.2503151 293.426658,29.7056438 293.427541,30.1801029 L293.425166,38.0409902 C293.425166,39.0243127 294.228667,39.8253983 295.218432,39.831093 C296.204396,39.831093 297.005046,39.0243127 297.006472,38.0409902 L297.006472,30.1801029 C297.006997,29.1921658 296.20569,28.3907862 295.216532,28.3900001 L295.216532,28.3900001 Z M295.215581,55.5576067 C294.741237,55.5571091 294.286121,55.7448258 293.950353,56.0794673 C293.614585,56.4141088 293.425669,56.868263 293.425166,57.3420211 L293.427541,65.208603 C293.427541,65.6822689 293.616099,66.1365001 293.951668,66.4712099 C294.287237,66.8059196 294.74228,66.9936411 295.216532,66.9930192 C295.690942,66.9940199 296.146254,66.8064353 296.481981,66.4716571 C296.817708,66.1368789 297.00625,65.6824287 297.005997,65.208603 L297.005997,57.3420211 C297.005871,56.8681468 296.817077,56.4137728 296.481227,56.0790494 C296.145376,55.7443259 295.69004,55.5567309 295.215581,55.5576067 L295.215581,55.5576067 Z M287.118323,42.1351628 C287.815863,42.8318414 288.949127,42.8270956 289.648093,42.1299423 C289.984685,41.7950993 290.173893,41.3401536 290.173893,40.8656702 C290.173893,40.3911868 289.984685,39.9362411 289.648093,39.6013981 L284.081554,34.0398348 C283.380151,33.3480685 282.252237,33.3480685 281.550834,34.0398348 C280.851869,34.7422081 280.851869,35.8764462 281.550834,36.568379 L287.118323,42.1351628 L287.118323,42.1351628 Z M303.312364,53.2530689 C302.977279,52.9182014 302.522688,52.7300584 302.048667,52.7300584 C301.574647,52.7300584 301.120056,52.9182014 300.784971,53.2530689 C300.448524,53.587893 300.259409,54.0427368 300.259409,54.5171037 C300.259409,54.9914706 300.448524,55.4463144 300.784971,55.7811385 L306.351509,61.3427018 C307.051946,62.0350161 308.179891,62.0350161 308.880328,61.3427018 C309.216657,61.0078155 309.405692,60.552995 309.405692,60.078667 C309.405692,59.604339 309.216657,59.1495185 308.880328,58.8146322 L303.312364,53.2530689 L303.312364,53.2530689 Z M287.343077,47.6915056 C287.341502,46.7050963 286.54029,45.9063597 285.55266,45.9066148 L277.681104,45.9066148 C277.206524,45.9056143 276.751042,46.0932338 276.415151,46.4280873 C276.079259,46.7629408 275.890561,47.2175104 275.890688,47.6915056 C275.890437,48.165975 276.078943,48.6211045 276.414724,48.9567385 C276.750506,49.2923725 277.206048,49.4810079 277.681104,49.4811338 L285.55266,49.4811338 C286.027754,49.4811338 286.48337,49.2925389 286.819179,48.9568776 C287.154988,48.6212162 287.343453,48.1660136 287.343077,47.6915056 L287.343077,47.6915056 Z M312.752434,45.9065944 L304.878027,45.9065944 C303.891154,45.9068848 303.0912,46.7058506 303.090934,47.6915056 C303.090307,48.1659262 303.278561,48.6211314 303.61422,48.9568202 C303.949878,49.2925089 304.405395,49.4811338 304.880403,49.4811338 L312.751959,49.4811338 C313.226967,49.4811338 313.682484,49.2925089 314.018143,48.9568202 C314.353801,48.6211314 314.542055,48.1659262 314.54144,47.6915056 C314.54282,47.2173698 314.354726,46.7622789 314.018867,46.427191 C313.683008,46.0921031 313.227155,45.9047243 312.752434,45.9065944 L312.752434,45.9065944 Z M287.118323,53.2530689 L281.551309,58.8146322 C280.852403,59.5127657 280.852403,60.6445684 281.551309,61.3427018 C282.249324,62.0351092 283.383539,62.0398551 284.082029,61.3427018 L289.648567,55.7811385 C289.985014,55.4463144 290.174129,54.9914706 290.174129,54.5171037 C290.174129,54.0427368 289.985014,53.587893 289.648567,53.2530689 C288.949571,52.5559194 287.817319,52.5559194 287.118323,53.2530689 L287.118323,53.2530689 Z M303.315215,42.1351628 L308.880803,36.568379 C309.581194,35.8764462 309.581194,34.7422081 308.880803,34.0398348 C308.18026,33.3477779 307.052527,33.3477779 306.351984,34.0398348 L300.785446,39.6013981 C300.448887,39.9373194 300.259792,40.3930594 300.259792,40.8682804 C300.259792,41.3435015 300.448887,41.7992415 300.785446,42.1351628 C301.484279,42.8322578 302.616382,42.8322578 303.315215,42.1351628 L303.315215,42.1351628 Z" id="Shape" fill="#CCCCCC"></path>
                        <path d="M248.709543,67.1356785 C248.296459,67.1356785 247.900336,67.2997694 247.608513,67.5917739 C247.31669,67.8837785 247.153131,68.2797165 247.153899,68.6922896 L247.151833,75.5278438 C247.151833,76.3829069 247.85053,77.079503 248.711195,77.0844549 C249.568555,77.0844549 250.264773,76.3829069 250.266013,75.5278438 L250.266013,68.6922896 C250.266469,67.8332139 249.56968,67.1363621 248.709543,67.1356785 L248.709543,67.1356785 Z M248.708716,90.7596842 C248.296243,90.7592515 247.90049,90.9224834 247.608518,91.213476 C247.316546,91.5044687 247.152271,91.8993854 247.151833,92.3113489 L247.153899,99.1518549 C247.153899,99.5637383 247.317862,99.958722 247.609662,100.249774 C247.901461,100.540826 248.29715,100.704062 248.709543,100.703522 C249.122074,100.704391 249.517997,100.541274 249.809934,100.250163 C250.10187,99.9590513 250.26582,99.5638773 250.265599,99.1518549 L250.265599,92.3113489 C250.26549,91.8992843 250.101321,91.5041765 249.809278,91.2131126 C249.517234,90.9220488 249.12129,90.7589227 248.708716,90.7596842 L248.708716,90.7596842 Z M241.667622,79.0879939 C242.274178,79.6938014 243.259626,79.6896746 243.867422,79.0834543 C244.160111,78.7922865 244.324639,78.3966815 244.324639,77.9840873 C244.324639,77.571493 244.160111,77.1758881 243.867422,76.8847202 L239.026953,72.0485782 C238.417038,71.4470423 237.436243,71.4470423 236.826328,72.0485782 C236.218532,72.6593376 236.218532,73.6456316 236.826328,74.2473123 L241.667622,79.0879939 L241.667622,79.0879939 Z M255.749397,88.7557383 C255.458019,88.4645492 255.062722,88.3009466 254.65053,88.3009466 C254.238338,88.3009466 253.843042,88.4645492 253.551664,88.7557383 C253.259102,89.0468897 253.094653,89.4424061 253.094653,89.854899 C253.094653,90.2673919 253.259102,90.6629083 253.551664,90.9540597 L258.392132,95.7902017 C259.001207,96.3922141 259.982029,96.3922141 260.591105,95.7902017 C260.883565,95.4989962 261.047943,95.1035001 261.047943,94.691041 C261.047943,94.2785819 260.883565,93.8830858 260.591105,93.5918803 L255.749397,88.7557383 L255.749397,88.7557383 Z M241.863059,83.9195963 C241.861691,83.0618491 241.164984,82.3672955 240.306176,82.3675173 L233.461345,82.3675173 C233.048666,82.3666474 232.652595,82.5297947 232.360516,82.8209717 C232.068436,83.1121487 231.904351,83.5074266 231.904462,83.9195963 C231.904243,84.3321784 232.068161,84.7279432 232.360145,85.0197988 C232.652129,85.3116545 233.048253,85.4756853 233.461345,85.4757947 L240.306176,85.4757947 C240.719302,85.4757947 241.115489,85.3117992 241.407497,85.0199198 C241.699505,84.7280403 241.863388,84.3322119 241.863059,83.9195963 L241.863059,83.9195963 Z M263.958154,82.3674996 L257.110843,82.3674996 C256.252693,82.3677522 255.557081,83.062505 255.55685,83.9195963 C255.556304,84.332136 255.720003,84.7279666 256.01188,85.0198699 C256.303757,85.3117731 256.699859,85.4757947 257.112909,85.4757947 L263.957741,85.4757947 C264.370791,85.4757947 264.766893,85.3117731 265.05877,85.0198699 C265.350646,84.7279666 265.514345,84.332136 265.513811,83.9195963 C265.515011,83.5073043 265.351451,83.1115731 265.059399,82.8201923 C264.767348,82.5288116 264.370954,82.3658734 263.958154,82.3674996 L263.958154,82.3674996 Z M241.667622,88.7557383 L236.826741,93.5918803 C236.218996,94.1989529 236.218996,95.1831292 236.826741,95.7902017 C237.43371,96.3922951 238.419984,96.3964219 239.027367,95.7902017 L243.867835,90.9540597 C244.160397,90.6629083 244.324845,90.2673919 244.324845,89.854899 C244.324845,89.4424061 244.160397,89.0468897 243.867835,88.7557383 C243.260012,88.1495214 242.275445,88.1495214 241.667622,88.7557383 L241.667622,88.7557383 Z M255.751876,79.0879939 L260.591518,74.2473123 C261.200554,73.6456316 261.200554,72.6593376 260.591518,72.0485782 C259.98235,71.4467896 259.001713,71.4467896 258.392545,72.0485782 L253.552077,76.8847202 C253.259417,77.1768257 253.094987,77.5731213 253.094987,77.9863571 C253.094987,78.3995928 253.259417,78.7958884 253.552077,79.0879939 C254.159758,79.6941635 255.144195,79.6941635 255.751876,79.0879939 L255.751876,79.0879939 Z" id="Shape-Copy" fill="#CCCCCC"></path>
                    </g>
                </g>
                <g id="Group" transform="translate(180.582996, 148.630000)" fill="#CCCCCC">
                    <path d="M18.3927126,9.185 C18.3927126,4.120391 14.2672271,0 9.19635628,0 C4.12548543,0 0,4.120391 0,9.185 C0,14.249609 4.12548543,18.37 9.19635628,18.37 C14.2672271,18.37 18.3927126,14.249609 18.3927126,9.185 Z M6.13090418,9.185 C6.13090418,7.496797 7.50606599,6.12333333 9.19635628,6.12333333 C10.8866466,6.12333333 12.2618084,7.496797 12.2618084,9.185 C12.2618084,10.873203 10.8866466,12.2466667 9.19635628,12.2466667 C7.50606599,12.2466667 6.13090418,10.873203 6.13090418,9.185 Z" id="Shape"></path>
                    <path d="M56.8502024,9.185 C56.8502024,4.120391 52.724717,0 47.6538462,0 C42.5829753,0 38.4574899,4.120391 38.4574899,9.185 C38.4574899,14.249609 42.5829753,18.37 47.6538462,18.37 C52.724717,18.37 56.8502024,14.249609 56.8502024,9.185 Z M47.6538462,12.2466667 C45.9635559,12.2466667 44.5883941,10.873203 44.5883941,9.185 C44.5883941,7.496797 45.9635559,6.12333333 47.6538462,6.12333333 C49.3441364,6.12333333 50.7192982,7.496797 50.7192982,9.185 C50.7192982,10.873203 49.3441364,12.2466667 47.6538462,12.2466667 Z" id="Shape"></path>
                    <path d="M8.1887029,50.1 C8.59300604,50.1 9.00403065,50.0248416 9.40085139,49.8662009 C15.6024912,47.386829 22.1247327,46.1554056 28.7720191,46.2015534 C35.1988918,46.2477012 41.4829648,47.4805935 47.4494797,49.8659561 C49.0671996,50.513249 50.9218197,49.7714572 51.5918114,48.2097773 C52.2619299,46.6483422 51.4937793,44.8582492 49.8759327,44.2115683 C43.1512859,41.5230013 36.0665963,40.1335493 28.8190694,40.0814035 C21.3175215,40.0295026 13.9640997,41.4172409 6.97414483,44.2118131 C5.356425,44.858494 4.5882744,46.6487094 5.2583929,48.2101445 C5.76389864,49.3886877 6.94446888,50.1 8.1887029,50.1 Z" id="Shape"></path>
                </g>
            </g>
        </g>
    </g>
</svg>