<svg xmlns="http://www.w3.org/2000/svg" width="240" height="195" viewBox="0 0 240 195">
  <defs>
    <filter id="empty-a" width="186.1%" height="243.5%" x="-43%" y="-71.7%" filterUnits="objectBoundingBox">
      <feGaussianBlur in="SourceGraphic" stdDeviation="1.333"/>
    </filter>
    <filter id="empty-b" width="186.1%" height="267.5%" x="-43%" y="-83.7%" filterUnits="objectBoundingBox">
      <feGaussianBlur in="SourceGraphic" stdDeviation="1.333"/>
    </filter>
  </defs>
  <g fill="none" fill-rule="evenodd">
    <g fill-rule="nonzero">
      <path fill="#FEDEBB" d="M223.966167,192.907591 L238.043401,192.907591"/>
      <path fill="#A1A1A9" d="M238.043401,194.692808 L223.965892,194.692808 C222.979694,194.692808 222.180676,193.893789 222.180676,192.907591 C222.180675,191.921393 222.979694,191.122375 223.965892,191.122375 L238.043401,191.122375 C239.029599,191.122375 239.828617,191.921393 239.828617,192.907591 C239.828617,193.893789 239.029599,194.692807 238.043401,194.692808 Z"/>
      <path fill="#FEDEBB" d="M196.582956,192.907591 L210.08161,192.907591"/>
      <path fill="#A1A1A9" d="M210.08161,194.692808 L196.582956,194.692808 C195.597033,194.692808 194.79774,193.893789 194.79774,192.907591 C194.79774,191.921393 195.597033,191.122375 196.582956,191.122375 L210.08161,191.122375 C211.067533,191.122375 211.866826,191.921393 211.866826,192.907591 C211.866826,193.893789 211.067532,194.692807 210.08161,194.692808 Z"/>
      <path fill="#FEDEBB" d="M37.2963145,192.907591 L181.155609,192.907591"/>
      <path fill="#A1A1A9" d="M181.155884,194.692808 L37.2965894,194.692808 C36.3106661,194.692808 35.5113732,193.893789 35.5113732,192.907591 C35.5113732,191.921393 36.3106664,191.122375 37.2965894,191.122375 L181.155884,191.122375 C182.141832,191.122375 182.9411,191.921644 182.9411,192.907591 C182.9411,193.893539 182.141832,194.692808 181.155884,194.692808 Z"/>
      <path fill="#FEDEBB" d="M6.63484762,192.907591 L20.9050334,192.907591"/>
      <path fill="#A1A1A9" d="M20.9053083 194.692808L6.63512251 194.692808C5.6491993 194.692808 4.84990631 193.893789 4.84990631 192.907591 4.84990631 191.921393 5.64919957 191.122375 6.63512251 191.122375L20.9053083 191.122375C21.8912561 191.122375 22.6905246 191.921644 22.6905246 192.907591 22.6905246 193.893539 21.8912561 194.692808 20.9053083 194.692808zM7.10265953 102.667178C7.10265953 104.556291 5.57058937 106.09001 3.6792771 106.09001 1.78741506 106.09001.255619784 104.556291.255619784 102.667178.255619784 100.774766 1.78768995 99.2443449 3.6792771 99.2443449 5.57058937 99.2443449 7.10265953 100.774766 7.10265953 102.667178zM152.895595 5.62012851C151.408602 5.62012851 150.20334 4.41459219 150.20334 2.92952326 150.20334 1.44390456 151.408602.238918016 152.895595.238917748 154.382313.238642857 155.5862 1.44390429 155.5862 2.92952326 155.5862 4.41486708 154.382588 5.62012851 152.895595 5.62012851zM219.663782 97.7768668C219.663782 99.4733032 218.286733 100.850077 216.589747 100.850077 214.892486 100.850077 213.516536 99.4733032 213.516536 97.7768668 213.516536 96.0807053 214.892486 94.7033813 216.589747 94.7033816 218.286458 94.7033816 219.663782 96.0804304 219.663782 97.7768668zM16.0158223 58.4388917C12.4583081 58.4388917 9.56403157 55.5443403 9.56403157 51.9862763 9.56403157 48.4282124 12.4583081 45.533661 16.0158223 45.533661 19.5730615 45.533661 22.4667886 48.4282124 22.4667886 51.9862763 22.4667886 55.5443403 19.5727866 58.4388917 16.0158223 58.4388917zM16.0158223 46.7235301C13.1143993 46.7235301 10.7541756 49.0843034 10.7541756 51.9862763 10.7541756 54.8882493 13.114674 57.2487474 16.0158223 57.2487474 18.9166957 57.2487474 21.2766443 54.8879741 21.2766443 51.9862763 21.2766443 49.0845785 18.9164208 46.7235304 16.0158223 46.7235301z"/>
      <path fill="#CCC" d="M201.233589 47.3323452C198.206829 47.3323452 195.744083 44.8704234 195.744083 41.8439391 195.744083 38.8160803 198.206829 36.3527843 201.233589 36.3527843 204.260623 36.3527843 206.723644 38.8163552 206.723644 41.8439391 206.723644 44.8701485 204.260623 47.3323452 201.233589 47.3323452zM201.233589 37.5426537C198.862646 37.5426537 196.934227 39.4721715 196.934227 41.8439391 196.934227 44.2137826 198.86292 46.1422012 201.233589 46.1422012 203.604807 46.1422012 205.5335 44.2137829 205.5335 41.8439391 205.5335 39.4721715 203.604532 37.5426537 201.233589 37.5426537zM37.5233491 81.5301623C36.5911753 81.5301629 35.8352438 80.7749695 35.8343337 79.8427962L35.8343337 78.1554302C35.8348442 77.6667541 35.6411327 77.1979062 35.2958442 76.8521021 34.9505557 76.5062981 34.4819973 76.3118872 33.9933211 76.3116686 33.504569 76.3118872 33.0359259 76.5062717 32.6905064 76.852052 32.3450869 77.1978323 32.1511918 77.6666781 32.1514835 78.1554302L32.1514835 79.8427962C32.1505734 80.7749694 31.3946421 81.5301627 30.4624684 81.5301623L28.7745526 81.5301623C27.7578077 81.530314 26.9335685 82.3544301 26.9332648 83.3711749 26.9332648 84.3895314 27.7572953 85.2152113 28.7745526 85.2152113L30.4624684 85.2152113C30.9102461 85.2147006 31.3398587 85.3922218 31.6566659 85.7086681 31.9734732 86.0251144 32.1514838 86.4545245 32.1514835 86.9023024L32.1514835 88.5896685C32.1514835 89.6080251 32.9760638 90.4304065 33.9933211 90.4304065 34.4816745 90.4308444 34.9501561 90.2370594 35.2955 89.891767 35.6408439 89.5464746 35.8346987 89.078022 35.8343337 88.5896685L35.8343337 86.9023024C35.8342603 86.454502 36.0122476 86.0250494 36.3290707 85.7085873 36.6458939 85.3921251 37.0755491 85.2146275 37.5233491 85.2152113L39.2104403 85.2152113C40.2280384 85.2152113 41.0529648 84.390285 41.0529648 83.3726868 41.0529648 82.3550886 40.2280384 81.5301623 39.2104403 81.5301623L37.5233491 81.5301623zM190.395581 82.0721861C190.012314 82.0719677 189.644848 81.9194308 189.374095 81.6481626 189.103343 81.3768945 188.951505 81.0091389 188.952015 80.6258725L188.952015 79.1828571C188.952089 78.7645801 188.78583 78.3634417 188.489883 78.0678558 188.193936 77.7722698 187.792595 77.6065003 187.374319 77.6070841 186.956594 77.6072298 186.556044 77.7733477 186.260823 78.0688783 185.965602 78.3644089 185.799903 78.7651325 185.800195 79.1828571L185.800195 80.6258725C185.800341 81.0095035 185.648009 81.3774638 185.37674 81.6487318 185.105472 81.9199999 184.737512 82.072332 184.353881 82.0721861L182.910866 82.0721861C182.343383 82.0646914 181.81577 82.3631464 181.529843 82.8533901 181.243916 83.3436337 181.243916 83.9498107 181.529843 84.4400544 181.81577 84.9302981 182.343383 85.228753 182.910866 85.2212583L184.353881 85.2212583C184.737534 85.2210394 185.105537 85.3733481 185.376821 85.644632 185.648105 85.9159159 185.800414 86.2839186 185.800195 86.6675719L185.800195 88.1105874C185.799903 88.5283373 185.965593 88.9290891 186.260806 89.2246633 186.55602 89.5202376 186.956569 89.6864166 187.374319 89.6866353 187.79262 89.687146 188.193961 89.5213153 188.4899 89.2256857 188.785838 88.9300561 188.952089 88.5288896 188.952015 88.1105874L188.952015 86.6675719C188.951432 86.2842833 189.103246 85.9164852 189.374015 85.6452013 189.644783 85.3739173 190.012292 85.2214037 190.395581 85.2212583L191.840245 85.2212583C192.710547 85.2209549 193.41599 84.5155119 193.416293 83.6452105 193.416293 82.7774772 192.709628 82.0721861 191.840245 82.0721861L190.395581 82.0721861zM198.030369 115.370661C197.405062 115.370661 196.897671 114.858597 196.897671 114.234664L196.897671 113.098668C196.897671 112.414652 196.343167 111.860148 195.659151 111.860148 194.975136 111.860148 194.420632 112.414652 194.420632 113.098668L194.420632 114.234664C194.420632 114.858597 193.91324 115.370661 193.287933 115.370661L192.151937 115.370661C191.823787 115.369931 191.508827 115.499776 191.276532 115.731556 191.044236 115.963336 190.913691 116.278006 190.913692 116.606157 190.913692 116.93456 191.044149 117.249512 191.276365 117.481728 191.508581 117.713944 191.823534 117.844402 192.151937 117.844402L193.287933 117.844402C193.913129 117.84531 194.419723 118.351905 194.420632 118.9771L194.420632 120.113097C194.420632 120.797112 194.975136 121.351616 195.659151 121.351616 196.343167 121.351616 196.897671 120.797112 196.897671 120.113097L196.897671 118.9771C196.898428 118.351842 197.405111 117.845159 198.030369 117.844402L199.166366 117.844402C199.494791 117.844475 199.809786 117.714041 200.042018 117.481809 200.274249 117.249577 200.404684 116.934582 200.404611 116.606157 200.404538 116.278029 200.27397 115.963401 200.04169 115.731637 199.809411 115.499873 199.494493 115.370004 199.166366 115.370661L198.030369 115.370661z"/>
      <path fill="#A1A1A9" d="M54.6468575 12.1524534C54.372065 12.1524528 54.1085553 12.2617452 53.9144282 12.4562332 53.720301 12.6507212 53.6114982 12.9144335 53.6120091 13.1892255L53.6106349 17.7420081C53.6106349 18.3115181 54.0754233 18.775482 54.6479568 18.7787802 55.2182915 18.7787802 55.6814308 18.3115181 55.6822555 17.7420081L55.6822555 13.1892255C55.6825591 12.6170429 55.21904 12.1529087 54.6468575 12.1524534zM54.6463078 27.8870937C54.3719218 27.8868019 54.108658 27.9955216 53.9144317 28.1893356 53.7202053 28.3831496 53.6109263 28.6461817 53.6106349 28.9205677L53.6120091 33.4766484C53.6120089 33.750981 53.7210811 34.0140577 53.9151924 34.2079112 54.1093038 34.4017647 54.3725251 34.5104872 54.6468575 34.5101224 54.9212821 34.5107066 55.1846592 34.4020634 55.3788617 34.2081702 55.5730643 34.0142771 55.6821273 33.7510736 55.6819806 33.4766484L55.6819806 28.9205677C55.6819081 28.6461144 55.5726993 28.382955 55.3784254 28.1890936 55.1841515 27.9952321 54.9207606 27.8865829 54.6463078 27.8870937zM49.962417 20.1132261C50.3659117 20.5167208 51.0214529 20.5139722 51.4257722 20.1102026 51.6204753 19.9162719 51.7299235 19.6527814 51.7299235 19.3779753 51.7299235 19.1031692 51.6204753 18.8396788 51.4257722 18.645748L48.2057862 15.4246627C47.800057 15.0240131 47.1476107 15.0240131 46.7418815 15.4246627 46.3375624 15.8314556 46.3375624 16.4883712 46.7418815 16.8891173L49.962417 20.1132261zM59.3299236 26.5523732C59.1360923 26.3584283 58.8731324 26.2494617 58.5989332 26.2494617 58.324734 26.2494617 58.0617742 26.3584283 57.8679428 26.5523732 57.6733242 26.7462929 57.5639296 27.0097244 57.5639296 27.284463 57.5639296 27.5592016 57.6733242 27.8226331 57.8679428 28.0165528L61.0879286 31.2376381C61.4930991 31.6386051 62.1455635 31.6386051 62.550734 31.2376381 62.745285 31.0436823 62.8546328 30.7802644 62.8546328 30.5055483 62.8546328 30.2308322 62.745285 29.9674142 62.550734 29.7734585L59.3299236 26.5523732zM50.0924259 23.3312879C50.091516 22.7599902 49.6280515 22.2973866 49.0567531 22.297539L44.503421 22.297539C44.2288982 22.2969549 43.9654231 22.4056183 43.7711254 22.5995551 43.5768276 22.7934919 43.4676745 23.0567645 43.4677482 23.3312879 43.4676024 23.6060859 43.5766445 23.8696827 43.7708787 24.0640716 43.9651129 24.2584604 44.228623 24.3677122 44.503421 24.3677851L49.0567531 24.3677851C49.3315735 24.3677852 49.5951259 24.2585568 49.789376 24.0641521 49.983626 23.8697475 50.0926446 23.6061082 50.0924259 23.3312879zM64.790569 22.297539L60.2355876 22.297539C59.6647267 22.2976908 59.2019904 22.760427 59.2018387 23.3312879 59.2014739 23.6060576 59.3103702 23.8696984 59.5045329 24.0641189 59.6986957 24.2585394 59.9621918 24.3677853 60.2369617 24.3677851L64.7902941 24.3677851C65.065064 24.3677853 65.3285601 24.2585394 65.5227229 24.0641189 65.7168857 23.8696984 65.8257819 23.6060576 65.8254171 23.3312879 65.8262249 23.0566831 65.7174206 22.7931085 65.5231417 22.599036 65.3288628 22.4049635 65.0651727 22.2964394 64.790569 22.297539zM49.962417 26.5523732L46.7421564 29.7734585C46.3378711 30.1777957 46.3378711 30.8333008 46.7421564 31.2376381 47.145926 31.6386591 47.8020169 31.6414077 48.2060611 31.2376381L51.4260469 28.0165528C51.6206655 27.8226331 51.7300601 27.5592016 51.7300601 27.284463 51.7300601 27.0097244 51.6206655 26.7462929 51.4260469 26.5523732 51.0217099 26.1486058 50.366754 26.1486058 49.962417 26.5523732zM59.3315727 20.1132261L62.5510089 16.8891173C62.9561527 16.4883712 62.9561527 15.8314556 62.5510089 15.4246627 62.1457771 15.0238448 61.4934353 15.0238448 61.0882035 15.4246627L57.8682177 18.645748C57.6735342 18.8403033 57.5641514 19.1042537 57.5641514 19.3794871 57.5641514 19.6547204 57.6735342 19.9186709 57.8682177 20.1132261 58.2724604 20.516962 58.92733 20.516962 59.3315727 20.1132261zM145.314655 38.81912C145.072609 38.8191196 144.840502 38.9153877 144.669509 39.0866988 144.498515 39.2580098 144.402679 39.4902958 144.403129 39.7323412L144.401918 43.7425736C144.401918 44.2442157 144.811318 44.6528896 145.315624 44.6557947 145.817992 44.6557947 146.22594 44.2442157 146.226666 43.7425736L146.226666 39.7323412C146.226933 39.2283449 145.818651 38.8195211 145.314655 38.81912zM145.314171 52.6786804C145.072483 52.6784234 144.840592 52.7741871 144.669512 52.9449045 144.498431 53.1156219 144.402175 53.3473087 144.401918 53.5889964L144.403129 57.6021339C144.403128 57.8437747 144.499203 58.0755008 144.670182 58.246253 144.841161 58.4170052 145.073015 58.5127713 145.314655 58.5124499 145.556377 58.5129645 145.788368 58.4172683 145.959427 58.2464811 146.130487 58.075694 146.226553 57.8438562 146.226424 57.6021339L146.226424 53.5889964C146.22636 53.3472494 146.130165 53.1154504 145.959043 52.9446913 145.78792 52.7739321 145.555918 52.6782305 145.314171 52.6786804zM141.188454 45.8312161C141.543865 46.1866268 142.121286 46.1842057 142.477423 45.8285529 142.648924 45.6577327 142.745329 45.4256421 142.745329 45.1835844 142.745329 44.9415266 142.648924 44.709436 142.477423 44.5386158L139.641159 41.7013838C139.28378 41.3484792 138.709085 41.3484792 138.351707 41.7013838 137.99557 42.0596996 137.99557 42.6383313 138.351707 42.9913209L141.188454 45.8312161zM149.439645 51.5030171C149.268913 51.3321844 149.03729 51.2362032 148.795766 51.2362032 148.554243 51.2362032 148.32262 51.3321844 148.151887 51.5030171 147.980461 51.6738276 147.884103 51.9058662 147.884103 52.1478645 147.884103 52.3898628 147.980461 52.6219015 148.151887 52.792712L150.988151 55.6299441C151.345038 55.9831283 151.919749 55.9831283 152.276635 55.6299441 152.448002 55.4591018 152.544319 55.2270751 152.544319 54.9850966 152.544319 54.7431181 152.448002 54.5110914 152.276635 54.3402491L149.439645 51.5030171zM141.30297 48.665785C141.302169 48.1625682 140.893935 47.7550926 140.390717 47.7552269L136.380001 47.7552269C136.138193 47.7547124 135.906116 47.8504265 135.734972 48.021252 135.563829 48.1920776 135.467683 48.4239763 135.467748 48.665785 135.46762 48.9078356 135.563667 49.1400199 135.734755 49.3112437 135.905842 49.4824674 136.13795 49.5786998 136.380001 49.578764L140.390717 49.578764C140.632788 49.578764 140.864933 49.4825523 141.036034 49.3113146 141.207136 49.1400769 141.303163 48.9078553 141.30297 48.665785zM154.249552 47.7552269L150.237382 47.7552269C149.73455 47.7553605 149.326958 48.162953 149.326824 48.665785 149.326503 48.9078107 149.422422 49.1400337 149.593447 49.3112853 149.764471 49.482537 149.996567 49.5787642 150.238593 49.578764L154.249309 49.578764C154.491335 49.5787642 154.723431 49.482537 154.894456 49.3112853 155.06548 49.1400337 155.161399 48.9078107 155.161078 48.665785 155.161789 48.4239046 155.065951 48.1917399 154.894824 48.0207948 154.723698 47.8498497 154.491431 47.7542583 154.249552 47.7552269zM141.188454 51.5030171L138.351949 54.3402491C137.995842 54.696402 137.995842 55.2737912 138.351949 55.6299441 138.707602 55.9831758 139.285507 55.9855969 139.641402 55.6299441L142.477665 52.792712C142.649091 52.6219015 142.745449 52.3898628 142.745449 52.1478645 142.745449 51.9058662 142.649091 51.6738276 142.477665 51.5030171 142.121512 51.1473662 141.544607 51.1473662 141.188454 51.5030171zM149.441098 45.8312161L152.276877 42.9913209C152.633741 42.6383313 152.633741 42.0596996 152.276877 41.7013838 151.919937 41.3483309 151.345334 41.3483309 150.988393 41.7013838L148.152129 44.5386158C147.980646 44.7099861 147.884298 44.9424819 147.884298 45.184916 147.884298 45.4273501 147.980646 45.6598459 148.152129 45.8312161 148.508199 46.1868393 149.085028 46.1868393 149.441098 45.8312161z"/>
    </g>
    <g transform="translate(56 76)">
      <path fill="#0F0F0F" fill-rule="nonzero" d="M52.8224674,37.180876 C52.8224674,38.9416875 54.2498872,40.3691073 56.0106988,40.3691073 C57.7715103,40.3691073 59.1989301,38.9416875 59.1989301,37.180876 C59.1989301,35.4200644 57.7715103,33.9926446 56.0106988,33.9926446 C54.2498872,33.9926446 52.8224674,35.4200644 52.8224674,37.180876 Z"/>
      <path fill="#FAFCFB" fill-rule="nonzero" d="M78.6064861,4.11099967 C69.6730191,4.11099967 61.6596456,11.1079906 56.0106988,17.1634905 C50.3724507,11.1079906 42.3483785,4.11099967 33.4149114,4.11099967 C16.3503845,4.11099967 4.11099967,17.9445002 4.11099967,35.0197258 C4.11099967,52.0842528 47.740555,89.5406219 56.0106988,89.5406219 C64.2808425,89.5406219 107.910398,52.0842528 107.910398,35.0090271 C107.921097,17.9445002 95.671013,4.11099967 78.6064861,4.11099967 Z"/>
      <path fill="#FFF" stroke="#999" stroke-linecap="round" stroke-width="5.333" d="M16.5708443,67.2402925 C17.6776112,68.4456471 18.8250953,69.6283878 20.0115904,70.7884698 M24.4639528,74.8801254 C30.5211863,80.1274005 37.0291908,84.5504961 43.5371952,88.1631488 C45.8192227,89.4268905 47.904038,90.4845873 49.7775544,91.3637119 C50.8763084,91.8719558 51.6088111,92.2016275 51.9609758,92.3389907 L52.299054,92.5038266 C54.736034,93.671414 59.440955,93.588996 61.7088959,92.3664634 L62.2160131,92.1329459 C62.5963511,91.96811 63.4133733,91.583493 64.6107334,90.9653585 C66.6673755,89.8939254 68.9775762,88.5889748 71.4849891,87.0367704 C78.6691499,82.5587295 85.8673972,76.995519 92.5726139,70.2921939 C98.9397525,63.9322768 104.546215,56.8718073 109.166617,49.0695764 C116.209911,37.1739215 114.364568,19.3716481 103.320682,8.5611627 C91.6710722,-2.8537209 72.8091286,-2.8537209 61.1736055,8.5611627 L56.5813773,13.0666763 L51.989149,8.5611627 C40.3395393,-2.8537209 21.4775957,-2.8537209 9.82798606,8.5611627 C-1.1595539,19.3304392 -2.77951171,35.4431449 4.19335018,49.4679297 C6.40323859,53.899664 9.09217702,58.109807 12.2071157,62.0969607"/>
      <ellipse cx="77.922" cy="47.168" fill="#FF4500" filter="url(#empty-a)" rx="4.647" ry="2.788"/>
      <ellipse cx="37.563" cy="46.768" fill="#FF4500" filter="url(#empty-b)" rx="4.647" ry="2.388"/>
    </g>
    <g fill-rule="nonzero" transform="translate(90.667 110.667)">
      <path fill="#0F0F0F" d="M8.27939069 5.99708739C7.70500553 5.99708739 7.24387942 5.53596128 7.24387942 4.96157613 7.24387942 3.56201793 6.30544734 2.37279796 5.18903675 2.37279796 4.07262616 2.37279796 3.13419408 3.553928 3.13419408 4.96157613 3.13419408 5.53596128 2.67306797 5.99708739 2.09868281 5.99708739 1.52429765 5.99708739 1.06317154 5.53596128 1.06317154 4.96157613 1.06317154 2.38897782 2.91576592.30177542 5.19712668.30177542 7.47848744.30177542 9.33108182 2.38897782 9.33108182 4.96157613 9.31490196 5.53596128 8.84568592 5.99708739 8.27939069 5.99708739zM43.3087953 5.99708739C42.7344102 5.99708739 42.273284 5.53596128 42.273284 4.96157613 42.273284 3.56201793 41.334852 2.37279796 40.2184414 2.37279796 39.1020308 2.37279796 38.1635987 3.553928 38.1635987 4.96157613 38.1635987 5.53596128 37.7024726 5.99708739 37.1280874 5.99708739 36.5537023 5.99708739 36.0925762 5.53596128 36.0925762 4.96157613 36.0925762 2.38897782 37.9451705.30177542 40.2265313.30177542 42.5078921.30177542 44.3604864 2.38897782 44.3604864 4.96157613 44.3443066 5.53596128 43.8831805 5.99708739 43.3087953 5.99708739z"/>
      <path fill="#666" d="M15.002124,10.1927512 C15.002124,13.9383896 18.4646148,17.0044737 22.6956491,17.0044737 C26.9266834,17.0044737 30.3891743,13.9383896 30.3891743,10.1927512 L30.3891743,7.91948034 L15.002124,7.91948034 L15.002124,10.1927512 Z"/>
      <path fill="#141414" d="M22.6956491,18.039985 C17.8821397,18.039985 13.9585228,14.5208647 13.9585228,10.1927512 L13.9585228,7.91948034 C13.9585228,7.34509518 14.4196489,6.88396907 14.9940341,6.88396907 L30.3972642,6.88396907 C30.9716493,6.88396907 31.4327755,7.34509518 31.4327755,7.91948034 L31.4327755,10.1927512 C31.4327755,14.5208647 27.5172485,18.039985 22.6956491,18.039985 Z M16.0376353,8.95499161 L16.0376353,10.1927512 C16.0376353,11.7055684 16.7171895,13.1374863 17.9468592,14.2296271 C19.2169785,15.3541276 20.8996843,15.9689625 22.6956491,15.9689625 C24.491614,15.9689625 26.1743198,15.3541276 27.4444391,14.2296271 C28.6741087,13.1374863 29.353663,11.7055684 29.353663,10.1927512 L29.353663,8.95499161 L16.0376353,8.95499161 Z"/>
      <path fill="#D39E33" d="M18.1491075,12.587371 C18.1491075,13.8205241 20.1303337,14.8201921 22.5743002,14.8201921 C25.0182666,14.8201921 26.9994928,13.8205241 26.9994928,12.587371 C26.9994928,11.3542179 25.0182666,10.3545498 22.5743002,10.3545498 C20.1303337,10.3545498 18.1491075,11.3542179 18.1491075,12.587371 Z"/>
    </g>
    <path fill="#FFF" d="M71.8917318,84.9122516 L71.8917318,84.9122516 C72.8555454,85.353081 73.279508,86.4917693 72.8386785,87.4555829 C72.8131368,87.5114265 72.7849293,87.5660118 72.7541535,87.6191506 C70.0741597,92.2465472 68.5209251,96.4133689 68.0944541,100.119618 C67.6679119,103.826485 68.7136773,108.385338 71.23175,113.796179 L71.2317754,113.796167 C71.7745458,114.962473 71.2690702,116.347954 70.1027638,116.890724 C70.0896002,116.89685 70.0763796,116.902853 70.0631037,116.908732 L70.0631037,116.908732 C68.8017197,117.467297 67.3260142,116.902609 66.7597247,115.644674 C64.4617315,110.54001 63.4218832,105.509292 63.6401744,100.552521 C63.8620015,95.5154564 65.5367113,90.6122018 68.6643037,85.8427571 L68.6643258,85.8427716 C69.3625811,84.7779623 70.733771,84.3826232 71.8917318,84.9122516 Z" transform="rotate(15 68.312 100.901)"/>
  </g>
</svg>
