<svg xmlns="http://www.w3.org/2000/svg" xmlns:xlink="http://www.w3.org/1999/xlink" width="56" height="56" viewBox="0 0 56 56">
  <defs>
    <polygon id="icon-rest-a" points=".025 38.708 37.399 38.708 37.399 .037 .025 .037"/>
  </defs>
  <g fill="none" fill-rule="evenodd">
    <rect width="56" height="56" fill="#FFF" rx="5"/>
    <g transform="translate(8 8)">
      <g transform="translate(2.584 1.998)">
        <mask id="icon-rest-b" fill="#fff">
          <use xlink:href="#icon-rest-a"/>
        </mask>
        <path fill="#DAAAAB" d="M18.7965814,9.43474286 C16.8954634,9.43727702 15.1801342,8.29402236 14.4508422,6.53834534 C13.7216,4.78266832 14.1220472,2.76050683 15.4654509,1.41536398 C16.8088547,0.0701714286 18.8304696,-0.333008696 20.587041,0.393947826 C22.3437615,1.12085466 23.4892522,2.83469317 23.4892522,4.73581118 C23.4892522,7.32368696 21.3968795,9.42445714 18.8090534,9.43474286 L18.7965814,9.43474286 Z M33.4987429,30.7766559 C34.1227429,31.4006062 25.3301466,23.4317615 25.3301466,23.4317615 C25.3301466,23.4317615 24.7436124,23.0760845 24.7436124,25.4474137 L24.7436124,30.9388919 L30.8341466,30.9388919 C32.9352646,31.0261466 34.5902211,32.7611031 34.5782957,34.8640596 C34.5856994,36.9513143 32.9209043,38.660482 30.8341466,38.7080845 L6.6029913,38.7080845 C4.51623354,38.660482 2.85143851,36.9513143 2.85874286,34.8640596 C2.84691677,32.7611031 4.50187329,31.0261466 6.6029913,30.9388919 L12.9931031,30.9388919 L12.9931031,25.4474137 C12.9931031,23.0760845 12.1132025,23.4317615 12.1132025,23.4317615 C12.1132025,23.4317615 3.32055652,31.4006062 3.94460621,30.7766559 C0.113053416,33.6783205 -0.897878261,29.0730534 0.861873292,27.1073391 C2.00383602,26.0714137 9.39240745,20.1181714 9.39240745,20.1181714 C9.39240745,20.1181714 11.2645068,11.1882832 18.8153143,11.1633391 C18.8153143,11.1258733 18.8153143,11.1196621 18.8153143,11.1633391 C18.8153143,11.1196621 18.8153143,11.1258733 18.8153143,11.1633391 C26.3785441,11.1633391 28.0322087,20.1181714 28.0322087,20.1181714 C28.0322087,20.1181714 35.4207801,26.0714137 36.5627429,27.1073391 C38.3225441,29.0730534 37.3115627,33.6845814 33.4800596,30.7766559 L33.4987429,30.7766559 Z" mask="url(#icon-rest-b)"/>
      </g>
      <path fill="#882027" d="M19.5145839,1.46023354 C17.3226335,1.46023354 15.5457391,3.23717764 15.5457391,5.42907826 C15.5457391,7.62102857 17.3226335,9.39792298 19.5145839,9.39792298 C21.5477267,9.19976149 23.0983851,7.49059379 23.0983851,5.44781118 C23.0983851,3.40502857 21.5477267,1.69586087 19.5145839,1.49769938 L19.5145839,1.46023354 Z M19.5145839,10.8581466 C16.5161739,10.8581466 14.0854658,8.4274882 14.0854658,5.42907826 C14.0854658,2.43066832 16.5161739,9.9378882e-06 19.5145839,9.9378882e-06 C22.5129441,9.9378882e-06 24.9436522,2.43066832 24.9436522,5.42907826 C24.9436522,8.4274882 22.5129441,10.8581466 19.5145839,10.8581466 Z M31.5396273,30.9270161 C31.8977391,30.9265689 32.2543602,30.9726807 32.6004969,31.0643081 L32.4569938,30.933277 L29.6363727,28.3934509 L26.216646,25.2733019 C26.216646,25.4854261 26.1791801,25.7662708 26.1791801,26.1344696 L26.1791801,30.8958112 L31.5396273,30.8958112 L31.5396273,30.9270161 Z M12.8686211,25.0923329 L9.03706832,28.5556373 L6.32874534,30.995687 L6.24765217,31.0705689 C6.59378882,30.9789416 6.95040994,30.9327801 7.30852174,30.933277 L12.993441,30.933277 L12.993441,26.1718857 C12.9937391,25.8063702 12.9518509,25.4419478 12.8686211,25.086072 L12.8686211,25.0923329 Z M13.1057391,23.4136745 C13.2803975,23.4410534 13.4467081,23.5071901 13.5924969,23.6071155 C14.1603478,23.9940472 14.4287205,24.805277 14.4287205,26.1656745 L14.4287205,32.4059727 L7.30852174,32.4059727 C5.61704348,32.5022708 4.29749068,33.9068422 4.30688199,35.6010037 C4.30568944,37.2789665 5.63175155,38.6574012 7.30852174,38.7211528 L31.5396273,38.7211528 C33.2163975,38.6574012 34.5424596,37.2789665 34.5412671,35.6010037 C34.5474783,33.9080845 33.2296646,32.5053516 31.5396273,32.4059727 L24.7127453,32.4059727 L24.7127453,26.1656745 C24.7127453,24.9175752 24.8313043,23.6694758 25.711205,23.4324075 C25.9919503,23.3558857 26.2924224,23.4210783 26.5161739,23.6071155 C29.5427578,26.3465938 34.1169193,30.4714634 34.6286211,30.9145441 C35.1340621,31.2952149 36.3696398,32.1126559 36.9812174,31.4449789 C37.5927453,30.7772025 37.5428571,29.2608795 36.7503106,28.3248298 C35.5459379,27.2389665 28.3570683,21.4604323 28.2821863,21.3918112 L28.0700124,21.2233143 L28.0201242,20.9549913 C27.6862112,19.4535255 27.1108571,18.0162087 26.3165217,16.6990907 C24.6628075,14.0032894 22.391354,12.624159 19.5582609,12.5992149 L19.445913,12.5992149 C12.6627081,12.655364 10.8592298,20.6305193 10.7906087,20.9736745 L10.6657888,21.547836 L10.3350559,21.547836 C9.15562733,22.4963578 3.15865839,27.3388422 2.06663354,28.3248298 C1.27413665,29.2483578 1.26787578,30.8209292 1.83572671,31.4449789 C2.40362733,32.0689292 3.70782609,31.2952149 4.18837267,30.9145441 C4.6626087,30.5151404 8.55657143,27.0081093 12.3007702,23.6195876 L12.8311553,23.1390907 L13.1057391,23.4136745 Z M31.5396273,40.1564323 L7.30852174,40.1564323 C4.82767702,40.0921839 2.84919255,38.0639602 2.84665839,35.5823205 C2.84795031,34.6258484 3.13957764,33.6922832 3.68288199,32.9052025 C2.08536646,33.5292522 1.14931677,32.8427925 0.774906832,32.4371776 C-0.348372671,31.1890783 -0.236024845,28.7366559 1.01823602,27.3388422 L1.07443478,27.2826932 C2.12904348,26.3278609 8.24457143,21.3856 9.44268323,20.4183453 C9.82956522,18.9081839 12.0449193,11.5758112 18.9342112,11.1639354 L18.9342112,11.0827925 L19.3522981,11.0827925 L19.5332671,10.9767056 L19.7704348,11.1139975 L19.9264099,11.1139975 C26.9031056,11.4010534 29.0372671,18.8457739 29.4054658,20.3808795 C30.6160497,21.3606062 36.7191056,26.2842335 37.7675031,27.2451776 L37.8236522,27.3013764 C39.0717019,28.6992398 39.1902609,31.1766062 38.0670311,32.3997615 C37.6926211,32.8053764 36.7565714,33.5167304 35.1590559,32.8677863 C35.7020124,33.6550161 35.9935404,34.588482 35.9952298,35.5448547 C36.0131677,38.0386683 34.032646,40.0885565 31.5396273,40.1564323 Z"/>
      <path fill="#882027" d="M7.42706584,32.4184298 C6.30005963,32.4184298 5.25866832,33.0197217 4.69519006,33.995672 C4.1317118,34.971672 4.1317118,36.1741565 4.69519006,37.1502062 C5.25866832,38.1261565 6.30005963,38.7273988 7.42706584,38.7273988 L23.1214758,38.7273988 C24.2484323,38.7273988 25.2898236,38.1261565 25.8533019,37.1502062 C26.4167801,36.1741565 26.4167801,34.971672 25.8533019,33.995672 C25.2898236,33.0197217 24.2484323,32.4184298 23.1214758,32.4184298 L7.42706584,32.4184298 Z M23.1214758,40.1876224 L7.42706584,40.1876224 C5.73787329,40.2497342 4.14979876,39.3840447 3.28674286,37.9306783 C2.42373665,36.4773118 2.42373665,34.6685665 3.28674286,33.2151503 C4.14979876,31.7617839 5.73787329,30.8960944 7.42706584,30.9582062 L23.1214758,30.9582062 C24.8106186,30.8960944 26.3987429,31.7617839 27.2617491,33.2151503 C28.1247553,34.6685665 28.1247553,36.4773118 27.2617491,37.9306783 C26.3987429,39.3840447 24.8106186,40.2497342 23.1214758,40.1876224 Z"/>
    </g>
  </g>
</svg>
