<svg xmlns="http://www.w3.org/2000/svg" xmlns:xlink="http://www.w3.org/1999/xlink" width="56" height="56" viewBox="0 0 56 56">
  <defs>
    <polygon id="icon-run-a" points="28.947 34.193 .011 34.193 .011 .002 28.947 .002"/>
  </defs>
  <g fill="none" fill-rule="evenodd">
    <rect width="56" height="56" fill="#FFF" rx="4"/>
    <g transform="translate(8 6)">
      <g transform="translate(9.492 8.627)">
        <mask id="icon-run-b" fill="#fff">
          <use xlink:href="#icon-run-a"/>
        </mask>
        <path fill="#DAAAAB" d="M0.836686941,4.70989755 C1.6652849,4.04700898 7.03565708,0.00236290252 7.72916642,0.00236290252 C8.42272679,0.00236290252 14.4804842,1.38330846 14.4804842,1.38330846 L19.648351,4.82651164 L21.9437858,11.0254307 C21.9437858,11.0254307 24.2392205,11.3691489 26.1909882,11.4857629 C28.1427049,11.602377 28.9467552,12.0626582 28.9467552,13.0937615 C28.9467552,14.1248648 28.3698089,14.9349882 26.7617593,14.9349882 C25.1537097,14.9349882 20.5628402,14.7078842 20.0104416,14.0143748 C19.458094,13.3208655 17.0214464,9.10438589 17.0214464,9.10438589 L12.774244,15.6531473 C12.774244,15.6531473 16.6777794,18.2923001 18.0587249,19.1147229 C19.2880977,19.8980532 19.7730796,21.4540985 19.2064423,22.7972784 C18.7461101,23.9449448 16.5672894,30.033425 15.5238868,32.2122456 C14.4804842,34.3911173 12.7681198,34.5077314 11.7370165,33.8202952 C10.7059132,33.13291 10.7059132,31.9790175 11.2766843,30.487633 C11.8475065,28.9961975 14.2656795,22.103667 14.2656795,22.103667 C14.2656795,22.103667 7.8335322,17.8565156 6.9006195,17.0525163 C5.9677068,16.248466 6.32367321,14.5238534 6.55690139,13.492699 C6.79012956,12.4615958 11.86593,4.91240289 11.86593,4.91240289 L7.61872752,3.99178953 C6.58058145,4.69667959 5.50717046,5.34808537 4.40262836,5.94350618 C2.6779647,6.86417058 1.10676211,7.94436917 0.186148746,6.79665179 C-0.286482793,6.238129 0.290463492,5.15175522 0.836686941,4.70989755" mask="url(#icon-run-b)"/>
      </g>
      <path fill="#DAAAAB" d="M13.6618533 25.0539725L11.1331903 29.1292904 3.43666054 29.1292904C2.20917606 29.1292904 1.4296734 30.3567749 1.4296734 31.3695057 1.37802638 31.9117995 1.56282271 32.4500105 1.93665124 32.8461922 2.31047977 33.2423229 2.83710592 33.4580462 3.38144109 33.4378365L13.0296875 33.4378365 16.8165578 28.3252911C15.3151705 27.7821808 14.1501524 26.5740895 13.6618533 25.0539725M27.3716635 6.23158126C27.3716635 7.58445778 28.093497 8.83465266 29.2651496 9.5110654 30.4368023 10.1875292 31.8803163 10.1875292 33.0519689 9.5110654 34.2236215 8.83465266 34.945404 7.58445778 34.945404 6.23158126 34.945404 4.8786537 34.2236215 3.62850985 33.0519689 2.95204608 31.8803163 2.2755823 30.4368023 2.2755823 29.2651496 2.95204608 28.093497 3.62850985 27.3716635 4.8786537 27.3716635 6.23158126z"/>
      <path fill="#882027" d="M16.3869433,10.2563287 L16.5342292,10.2563287 L20.7813806,11.176942 C21.005984,11.2247104 21.191852,11.3813867 21.2768757,11.5946603 C21.3619504,11.807934 21.3350041,12.0495318 21.2049169,12.2387171 C18.7866928,15.8046585 16.1905111,19.8738523 16.0248017,20.506018 C15.8590923,21.1381837 15.5092501,22.8321756 16.1537151,23.3967715 C16.7981292,23.9614695 21.6774974,27.2205398 23.4328328,28.3928048 C23.6971921,28.5667308 23.8086517,28.8986089 23.702908,29.1968041 C23.6047174,29.4791276 21.2785598,36.1138312 20.7077887,37.5991426 C20.0939954,39.2685357 20.4500129,39.8025109 20.9041699,40.109382 C21.2660563,40.3479688 21.712303,40.4215607 22.1316544,40.3119384 C22.8394024,40.0460991 23.3969045,39.4863004 23.6599369,38.7775317 C24.3964173,37.2247526 25.7774139,33.5115253 26.5998367,31.3019818 C26.9312555,30.4181644 27.2135789,29.7185309 27.3178937,29.3993605 C27.75031,28.3779538 27.3881684,27.1934915 26.458675,26.5883741 C25.0777294,25.7659003 21.3031075,23.2126897 21.1435222,23.1083749 C20.8327725,22.8980613 20.748055,22.477383 20.9532652,22.1631629 L25.2004677,15.6144015 C25.3323921,15.40567 25.5677638,15.2856365 25.8142099,15.3014062 C26.0544808,15.3091125 26.2732152,15.4417514 26.3911562,15.6512485 C27.2995212,17.2469987 28.8461762,19.9474952 29.2880849,20.4630979 C29.8343083,20.8313126 33.222241,21.1566072 35.5545228,21.1566072 C36.8678985,21.1566072 37.0459583,20.5735368 37.0459583,20.0088899 C37.0459583,19.714267 37.0459583,19.2110147 34.9407805,19.0882765 C32.9828377,18.9716624 30.7242499,18.6340685 30.6444828,18.6218201 C30.3951787,18.5856876 30.1856306,18.4161507 30.0982593,18.1799114 L27.8764675,12.1896218 L23.0032235,8.93672672 C20.2167847,8.32298448 17.1418473,7.66009591 16.5587769,7.60487646 C15.6995071,7.91174758 11.2559235,11.1892414 10.0468114,12.15895 C9.8267502,12.3532388 9.6562946,12.5973373 9.54968329,12.8709339 C9.47593828,13.003828 9.4582803,13.1606574 9.500588,13.3066674 C9.90564971,13.8160949 10.6912765,13.4662526 12.256355,12.6008587 L12.8700972,12.2755641 C13.9510103,11.6925957 15.001864,11.0555307 16.0186776,10.3667676 C16.128402,10.2956764 16.2561926,10.2573494 16.3869433,10.2563287 M21.738892,41.7727021 C21.1640892,41.7720386 20.6024533,41.6011747 20.1247183,41.2816981 C18.2834405,40.0541626 19.1242868,37.8507432 19.4066103,37.1326862 C19.8791908,35.9052017 21.6407014,30.890796 22.2053484,29.2765712 C20.7139129,28.288439 16.0371011,25.1705305 15.2269266,24.4647728 C13.9687193,23.3661507 14.4351756,21.2486737 14.6622797,20.2359939 C14.8893837,19.223263 17.9151748,14.6753647 19.4802532,12.3430829 L16.5158057,11.7293407 C16.0125534,12.0668836 14.8218649,12.8402111 13.4838905,13.5705674 L12.90082,13.8836137 C11.3418658,14.7367083 9.58035509,15.7248914 8.40196591,14.2395801 C8.02466703,13.7164753 7.96347653,13.0289881 8.24238068,12.4473977 C8.43585289,11.9471054 8.75252266,11.5038187 9.16304508,11.1585185 C9.22438868,11.1094232 15.3680883,6.29757384 16.4851339,6.29757384 C17.1970667,6.29757384 21.965945,7.36552413 23.4144604,7.69081874 C23.4954523,7.70954844 23.5724125,7.74282301 23.6414623,7.78900933 L28.8093292,11.2321615 C28.929975,11.3121327 29.0223987,11.4280834 29.0732802,11.5636313 L31.2275532,17.3820363 C31.9640847,17.4863511 33.5905068,17.6950316 35.0144235,17.7747987 C36.0332785,17.8361933 38.4207797,17.9773551 38.4207797,20.0702845 C38.4207797,21.6537354 37.3467052,22.5989474 35.5483986,22.5989474 C35.2906228,22.5989474 29.2020916,22.5989474 28.2446822,21.4328066 C27.8089487,20.9111308 26.5138944,18.7015872 25.7528663,17.3758611 L22.4876718,22.4086904 C23.6169657,23.1697185 26.1702273,24.8637104 27.176783,25.4774526 C28.686693,26.433433 29.2922697,28.335595 28.612897,29.9885551 C28.4902098,30.3015503 28.2323829,30.9828624 27.9070883,31.8298328 C27.0233219,34.2112099 25.6791723,37.8077721 24.9181442,39.4158216 C24.4982824,40.4960202 23.6148223,41.3299768 22.5121684,41.6867598 C22.2594451,41.7498896 21.9993216,41.7787752 21.738892,41.7727021"/>
      <path stroke="#882027" stroke-width="1.5" d="M29.7956828 8.91187881C32.0372798 8.9084998 33.8536171 7.09197566 33.8566695 4.85135582 33.8566695 2.60880804 32.0387086.790832793 29.7962013.790832793 27.5536464.790832793 25.7356783 2.60880089 25.7356783 4.85135582 25.7356783 7.09373791 27.5533662 8.91159861 29.7956828 8.91187881zM29.7956828 8.91187881C29.7958556 8.91187883 29.7960285 8.91187884 29.7962013 8.91187884L29.7951643 8.91187956C29.7953372 8.91187932 29.79551 8.91187907 29.7956828 8.91187881zM12.2631772 31.6649906L15.9802428 26.646646C14.5293027 26.0987667 13.4000703 24.9332901 12.9055571 23.4963439L10.4335008 27.4815721 10.016155 27.4815721 2.74948427 27.4803286C1.61099475 27.5459687.729266053 28.5018487.754091984 29.7093194.71968424 30.2232986.903099731 30.7281325 1.25942518 31.100215 1.61574912 31.4722942 2.11216419 31.6773342 2.64491978 31.6649906L12.2631772 31.6649906z" transform="translate(0 .01)"/>
    </g>
  </g>
</svg>
