<svg xmlns="http://www.w3.org/2000/svg" width="56" height="56" viewBox="0 0 56 56">
  <g fill="none" fill-rule="evenodd">
    <rect width="56" height="56" fill="#FFF" rx="4"/>
    <g transform="translate(15 5)">
      <path fill="#DAAAAB" d="M12.1850488,6.33925784 C12.1850488,7.71551095 12.919355,8.98730817 14.1112528,9.67540876 C15.3031506,10.3635613 16.7716073,10.3635613 17.9635051,9.67540876 C19.155403,8.98730817 19.8896573,7.71551095 19.8896573,6.33925784 C19.8896573,4.96295281 19.155403,3.69120751 17.9635051,3.003055 C16.7716073,2.31490248 15.3031506,2.31490248 14.1112528,3.003055 C12.919355,3.69120751 12.1850488,4.96295281 12.1850488,6.33925784 Z"/>
      <path stroke="#882027" stroke-width="1.5" d="M5.84245148,9.0788281 C8.12992884,9.07538565 9.9834442,7.2216832 9.98655912,4.93518324 C9.98655912,2.64672884 8.13138322,0.79153835 5.84296997,0.79153835 C3.55450827,0.79153835 1.69932508,2.64672155 1.69932508,4.93518324 C1.69932508,7.2234721 3.55422806,9.07854791 5.84245147,9.0788281 Z M5.84245147,9.0788281 C5.8426243,9.07882812 5.84279713,9.07882813 5.84296997,9.07882813 L5.84193299,9.07882885 C5.84210582,9.07882861 5.84227865,9.07882836 5.84245148,9.0788281 Z" transform="translate(8.809 .01)"/>
      <path fill="#DAAAAB" d="M7.63089129,32.8070666 C8.45046,35.1141597 9.54387756,38.3337201 10.9111439,42.4657476 C10.9111439,42.4657476 11.7511254,45.2231223 9.70183751,45.9096784 C9.70183751,45.9096784 8.1665595,45.8724259 7.36879741,44.2793488 L3.5002293,35.8371426 C4.32402105,35.2673251 5.10649002,34.6537911 5.84763622,33.9965405 C6.8774081,33.0833358 7.54108589,32.5542636 7.63089129,32.8070666 Z" transform="matrix(-1 0 0 1 14.582 0)"/>
      <path stroke="#882027" stroke-width="1.5" d="M5.67344448,31.8283432 C6.49301319,34.1354363 7.58643075,37.3549967 8.95369714,41.4870242 C8.95369714,41.4870242 9.79367864,44.2443989 7.7443907,44.930955 C7.7443907,44.930955 6.20911269,44.8937025 5.4113506,43.3006254 L1.54278249,34.8584192 C2.36657424,34.2886017 3.14904321,33.6750677 3.89018941,33.0178171 C4.91996129,32.1046124 5.58363908,31.5755402 5.67344448,31.8283432 Z" transform="matrix(-1 0 0 1 10.667 0)"/>
      <path fill="#DAAAAB" d="M19.8576714,29.2255028 C18.0832048,31.6144864 13.9288628,34.1473909 13.0347901,35.9879176 C12.1407175,37.8284443 11.7928134,44.2040808 8.91441588,44.211966 C6.99548422,44.2172228 6.54292022,42.3042996 7.5567239,38.4731965 C8.47550314,33.6179423 11.3693355,29.8164354 12.6706493,27.5136927 C13.5381918,25.9785308 13.2212695,23.890938 11.7198826,21.2509142 C11.7198826,21.2509142 11.9989717,20.883654 8.0720247,24.1108749 C5.48988406,25.7266192 3.7483482,25.9925399 2.84741714,24.908637 C1.94648607,23.8247341 2.76289762,22.4830731 5.2966518,20.883654 C5.2966518,20.883654 7.59126506,19.1598965 8.43365624,16.2712766 C9.50927231,13.1159928 13.4049308,11.1666701 16.0973759,11.5786133 C18.7898211,11.9905564 23.248795,13.9879728 24.3661072,17.1145503 C25.4834194,20.2411278 26.6671525,25.2498565 24.6540373,25.6104866 C23.3119605,25.8509067 22.1374606,23.7816331 21.1305375,19.4026658 C21.1305375,19.4026658 21.0547915,18.7765074 20.125291,18.0363718 C18.5877074,16.5359656 17.907012,16.2286918 18.0832048,17.1145503 C18.0832048,17.2026468 21.6321379,26.8365193 19.8576714,29.2255028 Z" transform="matrix(-1 0 0 1 28.237 0)"/>
      <path stroke="#882027" stroke-width="1.5" d="M17.9002246,29.2255028 C16.125758,31.6144864 11.971416,34.1473909 11.0773433,35.9879176 C10.1832707,37.8284443 9.83536658,44.2040808 6.95696907,44.211966 C5.03803741,44.2172228 4.58547341,42.3042996 5.59927709,38.4731965 C6.51805633,33.6179423 9.41188868,29.8164354 10.7132025,27.5136927 C11.580745,25.9785308 11.2638227,23.890938 9.76243575,21.2509142 C9.76243575,21.2509142 10.0415248,20.883654 6.1145779,24.1108749 C3.53243725,25.7266192 1.7909014,25.9925399 0.889970327,24.908637 C-0.0109607425,23.8247341 0.805450811,22.4830731 3.33920499,20.883654 C3.33920499,20.883654 5.63381825,19.1598965 6.47620943,16.2712766 C7.5518255,13.1159928 11.447484,11.1666701 14.1399291,11.5786133 C16.8323742,11.9905564 21.2913482,13.9879728 22.4086604,17.1145503 C23.5259726,20.2411278 24.7097057,25.2498565 22.6965905,25.6104866 C21.3545137,25.8509067 20.1800138,23.7816331 19.1730907,19.4026658 C19.1730907,19.4026658 19.0973447,18.7765074 18.1678442,18.0363718 C16.6302606,16.5359656 15.9495652,16.2286918 16.125758,17.1145503 C16.125758,17.2026468 19.6746911,26.8365193 17.9002246,29.2255028 Z" transform="matrix(-1 0 0 1 24.322 0)"/>
    </g>
  </g>
</svg>
