<svg xmlns="http://www.w3.org/2000/svg" width="164" height="164" viewBox="0 0 164 164">
  <g fill="none" fill-rule="evenodd" transform="rotate(135 50.813 82.11)">
    <path fill="#333" d="M22.3457202,97.742373 L34.5342949,97.742373 C37.9000769,97.742373 40.6285823,100.47742 40.6285823,103.851271 C40.6285823,107.225123 37.9000769,109.96017 34.5342949,109.96017 L22.3457202,109.96017 C18.9799383,109.96017 16.2514329,107.225123 16.2514329,103.851271 C16.2514329,100.47742 18.9799383,97.742373 22.3457202,97.742373 Z"/>
    <path fill="#FFF" d="M22.3457202,100.833476 C20.683024,100.833476 19.3351423,102.184589 19.3351423,103.851271 C19.3351423,105.517954 20.683024,106.869067 22.3457202,106.869067 L34.5342949,106.869067 C36.1969912,106.869067 37.5448729,105.517954 37.5448729,103.851271 C37.5448729,102.184589 36.1969912,100.833476 34.5342949,100.833476 L22.3457202,100.833476 Z"/>
    <path fill="#333" d="M46.2332952,28.017444 L46.2332952,93.8035714 C46.2332952,99.0817301 41.9049761,103.360523 36.565724,103.360523 L20.3142911,103.360523 C14.975039,103.360523 10.64672,99.0817301 10.64672,93.8035714 L10.64672,28.017444 L46.2332952,28.017444 Z"/>
    <path fill="#FFF" d="M13.7304294,31.0658686 L13.7304294,93.8035714 C13.7304294,97.3981317 16.6781247,100.312099 20.3142911,100.312099 L36.565724,100.312099 C40.2018905,100.312099 43.1495858,97.3981317 43.1495858,93.8035714 C43.1495858,81.6219152 43.1495858,72.485673 43.1495858,66.3948449 C43.1495858,58.5439613 43.1495858,46.7676358 43.1495858,31.0658686 L13.7304294,31.0658686 Z"/>
    <path fill="#F5885E" d="M13.7304294,31.0658686 L13.7304294,47.1815764 L43.1495858,74.9930013 C43.1495858,70.857649 43.1495858,67.9915968 43.1495858,66.3948449 C43.1495858,58.5439613 43.1495858,46.7676358 43.1495858,31.0658686 L13.7304294,31.0658686 Z"/>
    <polygon fill="#333" points="22.346 8.145 34.534 8.145 34.534 24.436 22.346 24.436"/>
    <polygon fill="#FFF" points="25.429 11.236 25.429 21.344 31.451 21.344 31.451 11.236"/>
    <path fill="#333" d="M6.09428734,20.3629944 L50.7857278,20.3629944 C54.1515098,20.3629944 56.8800152,23.0980413 56.8800152,26.4718927 C56.8800152,29.8457441 54.1515098,32.580791 50.7857278,32.580791 L6.09428734,32.580791 C2.72850538,32.580791 4.1218941e-16,29.8457441 0,26.4718927 C-4.1218941e-16,23.0980413 2.72850538,20.3629944 6.09428734,20.3629944 Z"/>
    <path fill="#FFF" d="M6.09428734,23.4540969 C4.43159105,23.4540969 3.08370939,24.8052101 3.08370939,26.4718927 C3.08370939,28.1385753 4.43159105,29.4896884 6.09428734,29.4896884 L50.7857278,29.4896884 C52.4484241,29.4896884 53.7963058,28.1385753 53.7963058,26.4718927 C53.7963058,24.8052101 52.4484241,23.4540969 50.7857278,23.4540969 L6.09428734,23.4540969 Z"/>
    <path fill="#333" d="M12.1885747,0 L44.6914405,0 C48.0572224,-6.19766443e-16 50.7857278,2.73504694 50.7857278,6.10889831 C50.7857278,9.48274969 48.0572224,12.2177966 44.6914405,12.2177966 L12.1885747,12.2177966 C8.82279272,12.2177966 6.09428734,9.48274969 6.09428734,6.10889831 C6.09428734,2.73504694 8.82279272,6.19766443e-16 12.1885747,0 Z"/>
    <path fill="#FFF" d="M12.1885747,3.09110255 C10.5258784,3.09110255 9.17799673,4.44221573 9.17799673,6.10889831 C9.17799673,7.77558089 10.5258784,9.12669408 12.1885747,9.12669408 L44.6914405,9.12669408 C46.3541368,9.12669408 47.7020184,7.77558089 47.7020184,6.10889831 C47.7020184,4.44221573 46.3541368,3.09110255 44.6914405,3.09110255 L12.1885747,3.09110255 Z"/>
    <path fill="#333" fill-rule="nonzero" d="M26.8981529 107.92387L26.8981529 136.504695C26.8981529 137.358279 27.5884647 138.050246 28.4400076 138.050246 29.2915504 138.050246 29.9818623 137.358279 29.9818623 136.504695L29.9818623 107.92387C29.9818623 107.070286 29.2915504 106.378319 28.4400076 106.378319 27.5884647 106.378319 26.8981529 107.070286 26.8981529 107.92387zM14.2200038 56.5256361L22.3457202 56.5256361C23.1972631 56.5256361 23.8875749 55.8336692 23.8875749 54.9800848 23.8875749 54.1265004 23.1972631 53.4345335 22.3457202 53.4345335L14.2200038 53.4345335C13.368461 53.4345335 12.6781491 54.1265004 12.6781491 54.9800848 12.6781491 55.8336692 13.368461 56.5256361 14.2200038 56.5256361zM14.2200038 68.7434327L22.3457202 68.7434327C23.1972631 68.7434327 23.8875749 68.0514658 23.8875749 67.1978814 23.8875749 66.344297 23.1972631 65.6523301 22.3457202 65.6523301L14.2200038 65.6523301C13.368461 65.6523301 12.6781491 66.344297 12.6781491 67.1978814 12.6781491 68.0514658 13.368461 68.7434327 14.2200038 68.7434327zM14.2200038 80.9612293L22.3457202 80.9612293C23.1972631 80.9612293 23.8875749 80.2692624 23.8875749 79.415678 23.8875749 78.5620936 23.1972631 77.8701268 22.3457202 77.8701268L14.2200038 77.8701268C13.368461 77.8701268 12.6781491 78.5620936 12.6781491 79.415678 12.6781491 80.2692624 13.368461 80.9612293 14.2200038 80.9612293z"/>
  </g>
</svg>
