<svg xmlns="http://www.w3.org/2000/svg" xmlns:xlink="http://www.w3.org/1999/xlink" width="940" height="300" viewBox="0 0 940 300">
  <defs>
    <linearGradient id="header-bg-b" x1="55.689%" x2="55.689%" y1="100%" y2="0%">
      <stop offset="0%" stop-color="#56E0E0"/>
      <stop offset="100%" stop-color="#B0F0F0"/>
    </linearGradient>
    <polygon id="header-bg-a" points="0 0 940 0 940 300 0 300"/>
  </defs>
  <g fill="none" fill-rule="evenodd">
    <mask id="header-bg-c" fill="#fff">
      <use xlink:href="#header-bg-a"/>
    </mask>
    <use fill="url(#header-bg-b)" xlink:href="#header-bg-a"/>
    <circle cx="199" cy="149" r="63" fill="#FFF" mask="url(#header-bg-c)" opacity=".204"/>
    <circle cx="689" cy="137" r="61" fill="#34C3FF" mask="url(#header-bg-c)" opacity=".22"/>
    <circle cx="692.4" cy="219.4" r="8.4" fill="#FFF" mask="url(#header-bg-c)" opacity=".295"/>
    <circle cx="617.4" cy="252.4" r="28.4" fill="#FFF" mask="url(#header-bg-c)" opacity=".2"/>
    <path fill="#C3F6F1" d="M0,269.778194 C25.6945236,267.435879 58.6247758,264.156013 98.7907566,259.938596 C286.652622,240.213152 433.109687,276.945256 490.464862,280.278765 C528.701646,282.501105 678.546692,288.994427 940,299.758731 L0,299.758731 L0,269.778194 Z" mask="url(#header-bg-c)" opacity=".5"/>
    <path fill="#FFF" d="M60,299.999796 C199.724313,276.787387 299.641386,266.324928 359.751221,268.612419 C449.915972,272.043655 546.279904,290.502186 615.780724,284.152206 C685.281543,277.802226 819.444661,246.475786 868.439634,247.853906 C901.102949,248.772652 944.956405,257.456283 1000,273.904796 L1000,299.999796 L60,299.999796 Z" mask="url(#header-bg-c)" opacity=".298"/>
  </g>
</svg>
