<svg xmlns="http://www.w3.org/2000/svg" xmlns:xlink="http://www.w3.org/1999/xlink" width="171" height="85" viewBox="0 0 171 85">
  <defs>
    <rect id="remind-a" width="277" height="100" x="0" y="0"/>
  </defs>
  <g fill="none" fill-rule="evenodd" transform="translate(-53 -21)">
    <g transform="translate(0 11)">
      <mask id="remind-b" fill="#fff">
        <use xlink:href="#remind-a"/>
      </mask>
      <g mask="url(#remind-b)">
        <g transform="translate(65 11.061)">
          <path fill="#333" fill-rule="nonzero" d="M151.924492 83.3040185L144.891835 83.3040185C144.399163 83.3040185 144 82.9152977 144 82.4355143 144 81.955731 144.399163 81.5670103 144.891835 81.5670103L151.924492 81.5670103C152.417164 81.5670103 152.816327 81.9557311 152.816327 82.4355143 152.816327 82.9152976 152.417163 83.3040184 151.924492 83.3040185zM137.455678 83.3040185L130.870853 83.3040185C130.389906 83.3040185 130 82.9152977 130 82.4355143 130 81.955731 130.389906 81.5670103 130.870853 81.5670103L137.455678 81.5670103C137.936625 81.5670103 138.326531 81.9557311 138.326531 82.4355143 138.326531 82.9152976 137.936625 83.3040184 137.455678 83.3040185zM118.42176 83.7563644L20.843546 83.7563644C20.1748049 83.7563644 19.6326531 83.3676436 19.6326531 82.8878602 19.6326531 82.4080769 20.1748051 82.0193562 20.843546 82.0193562L118.42176 82.0193562C119.090518 82.0193562 119.632653 82.4081987 119.632653 82.8878603 119.632653 83.3675219 119.090518 83.7563644 118.42176 83.7563644L118.42176 83.7563644zM7.93412336 83.3040185L.882203109 83.3040185C.394987877 83.3040185 0 82.9152977 0 82.4355143 0 81.955731.394988009 81.5670103.882203109 81.5670103L7.93412336 81.5670103C8.42135072 81.5670103 8.81632653 81.9558528 8.81632653 82.4355144 8.81632653 82.915176 8.42135072 83.3040185 7.93412336 83.3040185L7.93412336 83.3040185z"/>
          <path fill="#A5EDD8" fill-rule="nonzero" d="M17.4285714,45.3793394 C17.4285714,46.2181855 16.661406,46.8992215 15.7143545,46.8992215 C14.7670278,46.8992215 14,46.2181855 14,45.3793394 C14,44.5390288 14.7671654,43.8594572 15.7143545,43.8594572 C16.661406,43.8594572 17.4285714,44.5390286 17.4285714,45.3793394 Z"/>
          <path fill="#A1A1A9" fill-rule="nonzero" d="M90.1636405,2.17126026 C89.48712,2.17126026 88.9387755,1.68483941 88.9387755,1.08563019 C88.9387755,0.48619914 89.4871198,1.27284988e-07 90.1636405,1.89690802e-08 C90.8400361,-0.000110896518 91.3877551,0.486199032 91.3877551,1.08563019 C91.3877551,1.68495033 90.840161,2.17126026 90.1636405,2.17126026 Z"/>
          <path fill="#A5EDD8" fill-rule="nonzero" d="M123.714286,43.4252633 C123.714286,44.1443628 123.055969,44.7279613 122.244701,44.7279613 C121.433302,44.7279613 120.77551,44.1443628 120.77551,43.4252633 C120.77551,42.7062804 121.433302,42.1224489 122.244701,42.122449 C123.055837,42.122449 123.714286,42.7061639 123.714286,43.4252633 Z"/>
          <path fill="#4A90E2" fill-rule="nonzero" d="M22.0818361 25.620871C20.326248 25.620871 18.8979592 24.3546756 18.8979592 22.7982327 18.8979592 21.2417898 20.326248 19.9755944 22.0818361 19.9755944 23.8372885 19.9755944 25.2653061 21.2417898 25.2653061 22.7982327 25.2653061 24.3546756 23.8371529 25.620871 22.0818361 25.620871L22.0818361 25.620871zM22.0818361 20.4960919C20.6500207 20.4960919 19.4852802 21.5287908 19.4852802 22.7982327 19.4852802 24.0676746 20.6501562 25.1002531 22.0818361 25.1002531 23.5133803 25.1002531 24.677985 24.0675542 24.677985 22.7982327 24.677985 21.5289112 23.5132447 20.496092 22.0818361 20.4960919L22.0818361 20.4960919zM149.183877 25.620871C147.428289 25.620871 146 24.3546756 146 22.7982327 146 21.2417898 147.428289 19.9755944 149.183877 19.9755944 150.939329 19.9755944 152.367347 21.2417898 152.367347 22.7982327 152.367347 24.3546756 150.939194 25.620871 149.183877 25.620871L149.183877 25.620871zM149.183877 20.4960919C147.752061 20.4960919 146.587321 21.5287908 146.587321 22.7982327 146.587321 24.0676746 147.752197 25.1002531 149.183877 25.1002531 150.615421 25.1002531 151.780026 24.0675542 151.780026 22.7982327 151.780026 21.5289112 150.615285 20.496092 149.183877 20.4960919L149.183877 20.4960919z"/>
          <path fill="#F8E71C" fill-rule="nonzero" d="M114.594972,20.9165466 C113.077766,20.9165466 111.84328,19.8292169 111.84328,18.4925432 C111.84328,17.1552625 113.077766,16.0673259 114.594972,16.0673259 C116.112315,16.0673259 117.346939,17.1553839 117.346939,18.4925432 C117.346939,19.8290955 116.112315,20.9165466 114.594972,20.9165466 Z M114.594972,16.5928423 C113.406503,16.5928423 112.439856,17.445031 112.439856,18.4925432 C112.439856,19.5392057 113.406641,20.3909089 114.594972,20.3909089 C115.783578,20.3909089 116.750362,19.5392058 116.750362,18.4925432 C116.750362,17.445031 115.78344,16.5928423 114.594972,16.5928423 Z M32.5329181,36.0203164 C32.0656529,36.0203167 31.6867316,35.6867789 31.6862754,35.2750762 L31.6862754,34.529836 C31.6865313,34.3140079 31.5894307,34.106937 31.41635,33.9542096 C31.2432693,33.8014822 31.0083979,33.7156189 30.763442,33.7155223 C30.5184482,33.7156189 30.2835342,33.8014705 30.1103879,33.9541875 C29.9372415,34.1069044 29.8400489,34.3139743 29.8401951,34.529836 L29.8401951,35.2750762 C29.8397389,35.6867788 29.4608177,36.0203166 28.9935526,36.0203164 L28.1474611,36.0203164 C27.6378035,36.0203834 27.224642,36.3843616 27.2244898,36.833416 C27.2244898,37.2831822 27.6375466,37.6478511 28.1474611,37.6478511 L28.9935526,37.6478511 C29.2180074,37.6476255 29.4333568,37.7260293 29.5921609,37.8657907 C29.7509649,38.005552 29.8401953,38.1952048 29.8401951,38.3929699 L29.8401951,39.1382101 C29.8401951,39.5879763 30.2535275,39.9511884 30.763442,39.9511884 C31.008236,39.9513818 31.243069,39.865795 31.4161775,39.7132935 C31.5892859,39.560792 31.6864584,39.3538958 31.6862754,39.1382101 L31.6862754,38.3929699 C31.6862386,38.1951949 31.7754573,38.0055233 31.9342693,37.865755 C32.0930813,37.7259866 32.308452,37.6475932 32.5329181,37.6478511 L33.3785962,37.6478511 C33.8886815,37.6478511 34.3021874,37.283515 34.3021874,36.8340838 C34.3021874,36.3846525 33.8886815,36.0203164 33.3785962,36.0203164 L32.5329181,36.0203164 L32.5329181,36.0203164 Z"/>
          <path fill="#CCC" fill-rule="nonzero" d="M109.0226,36.2321226 C108.836442,36.2320284 108.65796,36.1662252 108.526452,36.0492022 C108.394944,35.9321793 108.321195,35.7735324 108.321443,35.6081943 L108.321443,34.9856888 C108.321478,34.8052474 108.240724,34.6321995 108.096979,34.504686 C107.953234,34.3771725 107.758298,34.3056609 107.555136,34.3059127 C107.352242,34.3059756 107.15769,34.3776376 107.014298,34.5051271 C106.870905,34.6326167 106.790424,34.8054857 106.790565,34.9856888 L106.790565,35.6081943 C106.790636,35.7736897 106.716646,35.9324249 106.584888,36.0494478 C106.45313,36.1664707 106.274407,36.2321856 106.088073,36.2321226 L105.387183,36.2321226 C105.11155,36.2288895 104.855282,36.3576406 104.716404,36.5691279 C104.577525,36.7806152 104.577525,37.0421151 104.716404,37.2536024 C104.855282,37.4650897 105.11155,37.5938408 105.387183,37.5906076 L106.088073,37.5906076 C106.274418,37.5905132 106.453162,37.656218 106.584927,37.7732477 C106.716693,37.8902775 106.790671,38.0490309 106.790565,38.214536 L106.790565,38.8370415 C106.790424,39.0172555 106.870901,39.1901367 107.01429,39.3176451 C107.157678,39.4451535 107.35223,39.5168418 107.555136,39.5169362 C107.75831,39.5171565 107.953246,39.4456184 108.096987,39.3180861 C108.240728,39.1905539 108.321478,39.0174938 108.321443,38.8370415 L108.321443,38.214536 C108.321159,38.0491882 108.394897,37.8905231 108.526413,37.7734933 C108.657928,37.6564635 108.836431,37.5906704 109.0226,37.5906076 L109.724291,37.5906076 C110.147006,37.5904768 110.489649,37.2861542 110.489796,36.910713 C110.489796,36.5363797 110.14656,36.2321226 109.724291,36.2321226 L109.0226,36.2321226 L109.0226,36.2321226 Z"/>
          <path fill="#F8E71C" fill-rule="nonzero" d="M113.182893,51.1108578 C112.860193,51.1108578 112.598344,50.8765791 112.598344,50.5911185 L112.598344,50.0713792 C112.598344,49.7584296 112.312182,49.5047339 111.959184,49.5047339 C111.606185,49.5047339 111.320023,49.7584296 111.320023,50.0713792 L111.320023,50.5911185 C111.320023,50.8765791 111.058175,51.1108578 110.735474,51.1108578 L110.149223,51.1108578 C109.979875,51.1105238 109.817334,51.1699305 109.697454,51.2759739 C109.577574,51.3820174 109.510204,51.5259849 109.510204,51.6761198 C109.510204,51.8263702 109.577529,51.9704667 109.697368,52.0767098 C109.817207,52.1829528 109.979744,52.2426395 110.149223,52.2426395 L110.735474,52.2426395 C111.058117,52.2430551 111.319555,52.4748314 111.320023,52.7608697 L111.320023,53.280609 C111.320023,53.5935586 111.606185,53.8472544 111.959184,53.8472544 C112.312182,53.8472544 112.598344,53.5935586 112.598344,53.280609 L112.598344,52.7608697 C112.598735,52.4748027 112.860218,52.242986 113.182893,52.2426395 L113.769145,52.2426395 C113.938635,52.2426729 114.101193,52.1829969 114.221041,52.0767466 C114.340888,51.9704963 114.408201,51.8263804 114.408163,51.6761198 C114.408126,51.5259951 114.340744,51.3820471 114.220872,51.2760109 C114.101,51.1699748 113.938481,51.1105573 113.769145,51.1108578 L113.182893,51.1108578 L113.182893,51.1108578 Z"/>
          <path fill="#FF7B00" fill-rule="nonzero" d="M41.6327905 5.31958763C41.4943315 5.31958738 41.3615574 5.36841134 41.2637431 5.45529457 41.1659287 5.5421778 41.1111065 5.65998544 41.1113639 5.78274274L41.1106715 7.81659806C41.1106715 8.07101411 41.3448633 8.27827979 41.6333444 8.27975317 41.9207175 8.27975317 42.1540784 8.07101411 42.1544939 7.81659806L42.1544939 5.78274274C42.1546469 5.52713277 41.9210947 5.31979102 41.6327905 5.31958763L41.6327905 5.31958763zM41.6325135 12.3486916C41.4942593 12.3485613 41.3616092 12.3971294 41.2637449 12.4837115 41.1658805 12.5702937 41.1108184 12.6877974 41.1106715 12.8103733L41.1113639 14.845702C41.1113638 14.9682541 41.1663218 15.0857778 41.2641282 15.1723776 41.3619346 15.2589774 41.4945633 15.3075467 41.6327905 15.3073838 41.7710641 15.3076448 41.9037713 15.2591108 42.0016236 15.1724933 42.099476 15.0858758 42.1544293 14.9682954 42.1543554 14.845702L42.1543554 12.8103733C42.1543189 12.6877674 42.0992921 12.5702067 42.0014038 12.4836034 41.9035155 12.3970001 41.7708013 12.3484634 41.6325135 12.3486916L41.6325135 12.3486916zM39.2724529 8.87588749C39.4757608 9.05613985 39.8060667 9.05491196 40.0097901 8.87453679 40.1078947 8.78790252 40.1630421 8.67019396 40.1630421 8.54743039 40.1630421 8.42466682 40.1078947 8.30695826 40.0097901 8.22032399L38.3873437 6.78137508C38.1829099 6.6023937 37.8541634 6.6023937 37.6497296 6.78137508 37.4460063 6.96310083 37.4460063 7.25656341 37.6497296 7.43558789L39.2724529 8.87588749 39.2724529 8.87588749zM43.9924355 11.7524346C43.8947702 11.665794 43.7622732 11.6171156 43.6241132 11.6171156 43.4859531 11.6171156 43.3534561 11.665794 43.2557908 11.7524346 43.1577288 11.839064 43.1026084 11.9567462 43.1026084 12.0794796 43.1026084 12.202213 43.1577288 12.3198952 43.2557908 12.4065246L44.8782371 13.8454735C45.0823894 14.0245967 45.411145 14.0245967 45.6152973 13.8454735 45.7133252 13.758828 45.768422 13.6411519 45.768422 13.5184285 45.768422 13.3957052 45.7133252 13.278029 45.6152973 13.1913835L43.9924355 11.7524346 43.9924355 11.7524346zM39.3379602 10.3134857C39.3375017 10.058271 39.103977 9.85161308 38.8161183 9.85168116L36.521842 9.85168116C36.3835189 9.85142023 36.2507623 9.89996321 36.152862 9.9866002 36.0549617 10.0732372 35.999963 10.1908484 36.0000001 10.3134857 35.9999266 10.4362456 36.0548694 10.5540017 36.1527377 10.6408407 36.250606 10.7276796 36.3833802 10.7764854 36.521842 10.776518L38.8161183 10.776518C38.9545913 10.776518 39.0873869 10.7277227 39.1852632 10.6408767 39.2831395 10.5540307 39.3380704 10.4362556 39.3379602 10.3134857L39.3379602 10.3134857zM46.7438775 9.85168116L44.4487702 9.85168116C44.1611319 9.85174895 43.9279741 10.0584662 43.9278977 10.3134857 43.9277139 10.436233 43.9825831 10.5540087 44.0804155 10.6408618 44.1782478 10.7277149 44.3110149 10.7765181 44.4494626 10.776518L46.743739 10.776518C46.8821866 10.7765181 47.0149537 10.7277149 47.1127861 10.6408618 47.2106184 10.5540087 47.2654877 10.436233 47.2653039 10.3134857 47.2657109 10.1908121 47.2108879 10.0730659 47.1129971 9.9863683 47.0151063 9.89967068 46.8822414 9.85118995 46.7438775 9.85168116L46.7438775 9.85168116zM39.2724529 11.7524346L37.6498681 13.1913835C37.4461619 13.3720123 37.4461619 13.6648447 37.6498681 13.8454735 37.8533145 14.0246208 38.1838974 14.0258487 38.3874822 13.8454735L40.0099285 12.4065246C40.1079905 12.3198952 40.1631109 12.202213 40.1631109 12.0794796 40.1631109 11.9567462 40.1079905 11.839064 40.0099285 11.7524346 39.8061962 11.5720604 39.4761852 11.5720604 39.2724529 11.7524346L39.2724529 11.7524346zM43.9932664 8.87588749L45.6154358 7.43558789C45.8195746 7.25656341 45.8195746 6.96310083 45.6154358 6.78137508 45.4112527 6.6023185 45.0825588 6.6023185 44.8783756 6.78137508L43.2559293 8.22032399C43.1578346 8.30723724 43.1027202 8.42515131 43.1027202 8.54810574 43.1027202 8.67106017 43.1578346 8.78897423 43.2559293 8.87588749 43.4596141 9.05624759 43.7895816 9.05624759 43.9932664 8.87588749L43.9932664 8.87588749zM8.63279048 61.1752577C8.49433145 61.1752575 8.36155745 61.2240814 8.26374308 61.3109647 8.16592872 61.3978479 8.11110653 61.5156555 8.11136395 61.6384128L8.11067154 63.6722682C8.11067154 63.9266842 8.34486332 64.1339499 8.63334438 64.1354233 8.92071751 64.1354233 9.15407837 63.9266842 9.1544939 63.6722682L9.1544939 61.6384128C9.15464688 61.3828029 8.92109467 61.1754611 8.63279048 61.1752577L8.63279048 61.1752577zM8.63251346 68.2043617C8.49425927 68.2042314 8.36160922 68.2527995 8.26374486 68.3393816 8.16588049 68.4259638 8.11081837 68.5434675 8.11067154 68.6660434L8.11136395 70.7013721C8.11136383 70.8239242 8.16632177 70.9414479 8.26412817 71.0280477 8.36193457 71.1146475 8.49456329 71.1632169 8.63279048 71.1630539 8.77106413 71.1633149 8.90377127 71.1147809 9.00162365 71.0281634 9.09947602 70.9415459 9.1544293 70.8239655 9.15435539 70.7013721L9.15435539 68.6660434C9.15431886 68.5434375 9.09929209 68.4258768 9.00140377 68.3392735 8.90351546 68.2526702 8.77080133 68.2041335 8.63251346 68.2043617L8.63251346 68.2043617zM6.27245293 64.7315576C6.47576081 64.91181 6.80606673 64.9105821 7.00979014 64.7302069 7.10789468 64.6435726 7.16304206 64.5258641 7.16304206 64.4031005 7.16304206 64.2803369 7.10789468 64.1626284 7.00979014 64.0759941L5.38734369 62.6370452C5.1829099 62.4580638 4.85416339 62.4580638 4.6497296 62.6370452 4.44600633 62.8187709 4.44600633 63.1122335 4.6497296 63.291258L6.27245293 64.7315576 6.27245293 64.7315576zM10.9924355 67.6081047C10.8947702 67.5214641 10.7622732 67.4727857 10.6241132 67.4727857 10.4859531 67.4727857 10.3534561 67.5214641 10.2557908 67.6081047 10.1577288 67.6947341 10.1026084 67.8124163 10.1026084 67.9351497 10.1026084 68.0578831 10.1577288 68.1755653 10.2557908 68.2621947L11.8782371 69.7011436C12.0823894 69.8802668 12.411145 69.8802668 12.6152973 69.7011436 12.7133252 69.6144981 12.768422 69.496822 12.768422 69.3740986 12.768422 69.2513753 12.7133252 69.1336991 12.6152973 69.0470536L10.9924355 67.6081047 10.9924355 67.6081047zM6.33796018 66.1691558C6.33750172 65.9139411 6.10397699 65.7072832 5.81611826 65.7073513L3.521842 65.7073513C3.38351889 65.7070903 3.25076232 65.7556333 3.152862 65.8422703 3.05496168 65.9289073 2.99996297 66.0465185 3.00000007 66.1691558 2.99992662 66.2919157 3.05486939 66.4096718 3.15273772 66.4965108 3.25060604 66.5833497 3.38338019 66.6321555 3.521842 66.6321881L5.81611826 66.6321881C5.95459134 66.6321881 6.08738687 66.5833928 6.18526316 66.4965468 6.28313946 66.4097008 6.33807041 66.2919257 6.33796018 66.1691558L6.33796018 66.1691558zM13.7438775 65.7073513L11.4487702 65.7073513C11.1611319 65.7074191 10.9279741 65.9141363 10.9278977 66.1691558 10.9277139 66.2919031 10.9825831 66.4096788 11.0804155 66.4965319 11.1782478 66.583385 11.3110149 66.6321882 11.4494626 66.6321881L13.743739 66.6321881C13.8821866 66.6321882 14.0149537 66.583385 14.1127861 66.4965319 14.2106184 66.4096788 14.2654877 66.2919031 14.2653039 66.1691558 14.2657109 66.0464822 14.2108879 65.928736 14.1129971 65.8420384 14.0151063 65.7553408 13.8822414 65.70686 13.7438775 65.7073513L13.7438775 65.7073513zM6.27245293 67.6081047L4.64986811 69.0470536C4.44616188 69.2276824 4.44616188 69.5205148 4.64986811 69.7011436 4.8533145 69.8802909 5.18389744 69.8815188 5.3874822 69.7011436L7.00992851 68.2621947C7.10799054 68.1755653 7.16311092 68.0578831 7.16311092 67.9351497 7.16311092 67.8124163 7.10799054 67.6947341 7.00992851 67.6081047 6.80619622 67.4277305 6.47618521 67.4277305 6.27245293 67.6081047L6.27245293 67.6081047zM10.9932664 64.7315576L12.6154358 63.291258C12.8195746 63.1122335 12.8195746 62.8187709 12.6154358 62.6370452 12.4112527 62.4579886 12.0825588 62.4579886 11.8783756 62.6370452L10.2559293 64.0759941C10.1578346 64.1629073 10.1027202 64.2808214 10.1027202 64.4037758 10.1027202 64.5267303 10.1578346 64.6446443 10.2559293 64.7315576 10.4596141 64.9119177 10.7895816 64.9119177 10.9932664 64.7315576L10.9932664 64.7315576z"/>
          <path fill="#A5EDD8" fill-rule="nonzero" d="M86.4899154,17.3700821 C86.3695163,17.3700818 86.2540606,17.4125375 86.1690046,17.4880881 C86.0839487,17.5636387 86.0362772,17.6660802 86.036501,17.7728256 L86.0358989,19.5413955 C86.0358989,19.7626268 86.239544,19.9428578 86.4903971,19.944139 C86.7402867,19.944139 86.9432092,19.7626268 86.9435706,19.5413955 L86.9435706,17.7728256 C86.9437036,17.5505561 86.7406147,17.3702589 86.4899154,17.3700821 L86.4899154,17.3700821 Z M86.4896745,23.4823464 C86.3694535,23.482233 86.2541056,23.5244662 86.1690062,23.599755 C86.0839067,23.6750438 86.0360266,23.777221 86.0358989,23.8838087 L86.036501,25.6536598 C86.0365009,25.7602268 86.0842904,25.8624213 86.1693395,25.9377255 C86.2543885,26.0130297 86.3697179,26.0552639 86.4899154,26.0551222 C86.6101534,26.0553491 86.7255509,26.0131457 86.8106399,25.9378261 C86.8957289,25.8625065 86.9435144,25.7602628 86.9434501,25.6536598 L86.9434501,23.8838087 C86.9434183,23.7771949 86.895569,23.6749682 86.8104487,23.599661 C86.7253284,23.5243537 86.6099248,23.4821479 86.4896745,23.4823464 L86.4896745,23.4823464 Z M84.437448,20.4625167 C84.6142374,20.6192579 84.90146,20.6181902 85.0786108,20.4613422 C85.1639191,20.386008 85.2118733,20.2836528 85.2118733,20.1769018 C85.2118733,20.0701509 85.1639191,19.9677956 85.0786108,19.8924615 L83.6677878,18.6412016 C83.4900193,18.4855656 83.2041527,18.4855656 83.0263842,18.6412016 C82.8492335,18.799224 82.8492335,19.0544088 83.0263842,19.2100823 L84.437448,20.4625167 L84.437448,20.4625167 Z M88.5417806,22.963862 C88.4568543,22.8885224 88.3416395,22.8461933 88.2215004,22.8461933 C88.1013612,22.8461933 87.9861464,22.8885224 87.9012201,22.963862 C87.8159487,23.0391919 87.768018,23.1415243 87.768018,23.248249 C87.768018,23.3549737 87.8159487,23.457306 87.9012201,23.5326359 L89.3120429,24.7838959 C89.4895667,24.9396551 89.7754411,24.9396551 89.9529648,24.7838959 C90.0382065,24.708552 90.0861168,24.6062249 90.0861168,24.4995089 C90.0861168,24.3927929 90.0382065,24.2904658 89.9529648,24.2151219 L88.5417806,22.963862 L88.5417806,22.963862 Z M84.4944108,21.7126021 C84.4940121,21.4906763 84.2909472,21.3109738 84.0406352,21.311033 L82.0456124,21.311033 C81.9253314,21.3108061 81.8098909,21.3530173 81.7247602,21.4283539 C81.6396295,21.5036904 81.5918045,21.605961 81.5918368,21.7126021 C81.5917729,21.8193499 81.6395492,21.9217465 81.7246521,21.9972586 C81.809755,22.0727707 81.9252108,22.1152106 82.0456124,22.1152389 L84.0406352,22.1152389 C84.1610466,22.1152389 84.276521,22.0728082 84.3616308,21.9972899 C84.4467406,21.9217716 84.4945067,21.8193586 84.4944108,21.7126021 L84.4944108,21.7126021 Z M90.9343389,21.311033 L88.9385934,21.311033 C88.6884732,21.3110919 88.4857273,21.490846 88.4856608,21.7126021 C88.485501,21.8193389 88.5332134,21.9217526 88.618285,21.997277 C88.7033566,22.0728014 88.8188062,22.115239 88.9391955,22.1152389 L90.9342184,22.1152389 C91.0546077,22.115239 91.1700574,22.0728014 91.255129,21.997277 C91.3402006,21.9217526 91.387913,21.8193389 91.3877531,21.7126021 C91.388107,21.6059294 91.3404349,21.5035414 91.2553125,21.4281522 C91.17019,21.352763 91.0546553,21.3106058 90.9343389,21.311033 L90.9343389,21.311033 Z M84.437448,22.963862 L83.0265047,24.2151219 C82.8493688,24.3721904 82.8493688,24.6268274 83.0265047,24.7838959 C83.2034146,24.9396761 83.490878,24.9407438 83.6679082,24.7838959 L85.0787311,23.5326359 C85.1640024,23.457306 85.2119332,23.3549737 85.2119332,23.248249 C85.2119332,23.1415243 85.1640024,23.0391919 85.0787311,22.963862 C84.9015726,22.8070149 84.6146065,22.8070149 84.437448,22.963862 L84.437448,22.963862 Z M88.5425032,20.4625167 L89.9530853,19.2100823 C90.1305973,19.0544088 90.1305973,18.799224 89.9530853,18.6412016 C89.7755347,18.4855002 89.489714,18.4855002 89.3121634,18.6412016 L87.9013405,19.8924615 C87.8160408,19.9680382 87.7681152,20.0705722 87.7681152,20.1774891 C87.7681152,20.284406 87.8160408,20.38694 87.9013405,20.4625167 C88.0784577,20.6193516 88.365386,20.6193516 88.5425032,20.4625167 L88.5425032,20.4625167 Z"/>
        </g>
      </g>
    </g>
    <g transform="translate(106.124 24.05)">
      <path fill="#333" fill-rule="nonzero" d="M26.1851909,49.8312225 L26.1851909,60.4429189 C26.1851909,61.5455438 26.650126,62.4393978 27.2236525,62.4393978 C27.797179,62.4393978 28.262114,61.5455438 28.262114,60.4429189 L28.262114,50.4972896 L26.1851909,49.8312225 Z"/>
      <path fill="#000" fill-rule="nonzero" d="M26.1851909,2.38055933 L26.1851909,17.5359141 L28.262114,17.6523915 L28.262114,2.38055933 C28.262114,1.27793449 27.797179,0.384080453 27.2236525,0.384080453 C26.650126,0.384080453 26.1851909,1.27793449 26.1851909,2.38055933 Z"/>
      <path stroke="#333" stroke-linecap="round" stroke-width="2" d="M13.3508983,62.1572966 L40.9032045,62.1572966"/>
      <path fill="#FFF" stroke="#000" stroke-width="2" d="M26.7230781,13.4696636 C17.6733266,14.6845732 10.9068601,22.4092113 10.9068601,31.5529328 L10.9068601,52.3969497 L43.3472427,52.3969497 L43.3472427,32.3606266 C43.3472427,22.7722876 36.2209154,14.6860806 26.7230781,13.4696636 Z"/>
      <path fill="#FCA310" fill-rule="nonzero" d="M11.1908467 31L17.1050047 31C17.7626912 31 18.2958514 30.5522847 18.2958514 30 18.2958514 29.4477153 17.7626912 29 17.1050047 29L11.1908467 29C10.5331602 29 10 29.4477153 10 30 10 30.5522847 10.5331602 31 11.1908467 31zM11.1908467 37L17.1050047 37C17.7626912 37 18.2958514 36.5522847 18.2958514 36 18.2958514 35.4477153 17.7626912 35 17.1050047 35L11.1908467 35C10.5331602 35 10 35.4477153 10 36 10 36.5522847 10.5331602 37 11.1908467 37zM11.1908467 42L17.1050047 42C17.7626912 42 18.2958514 41.5522847 18.2958514 41 18.2958514 40.4477153 17.7626912 40 17.1050047 40L11.1908467 40C10.5331602 40 10 40.4477153 10 41 10 41.5522847 10.5331602 42 11.1908467 42z"/>
      <path stroke="#333" stroke-width="2" d="M26.7230781,13.4696636 C17.6733266,14.6845732 10.9068601,22.4092113 10.9068601,31.5529328 L10.9068601,52.5722427 L43.3472427,52.5722427 L43.3472427,32.3606266 C43.3472427,22.7722876 36.2209154,14.6860806 26.7230781,13.4696636 Z"/>
      <path fill="#333" d="M18.2012522 32.2870727C18.2012522 33.3899237 19.087967 34.283857 20.1815742 34.283857 21.2753329 34.283857 22.1618962 33.3899237 22.1618962 32.2870727 22.1618962 31.1848325 21.2753329 30.2908992 20.1815742 30.2908992 19.0880427 30.2908992 18.2012522 31.1849088 18.2012522 32.2870727zM32.7236136 32.2870006C32.7235362 33.000267 33.1007331 33.6594514 33.7132444 34.0164663 34.3260938 34.3729872 35.0810201 34.3729872 35.6938694 34.0164663 36.3066493 33.6596223 36.6841475 33.000416 36.6842576 32.2870006 36.6842576 31.1848002 35.7974072 30.2908992 34.7036327 30.2908992 33.6097066 30.2908992 32.7236136 31.1848765 32.7236136 32.2870006z"/>
      <path stroke="#333" stroke-linecap="round" stroke-width="1.536" d="M24.1422182,38.2768147 C24.7012935,39.1842942 25.6914545,39.6277273 27.1127013,39.6071139 C28.533948,39.5865005 29.524109,39.1430675 30.0831843,38.2768147"/>
      <path stroke="#333" stroke-linecap="round" stroke-width="2" d="M0.650669147,52.7375464 L52.6671236,52.7375464"/>
    </g>
  </g>
</svg>
