<svg xmlns="http://www.w3.org/2000/svg" width="58" height="58" viewBox="0 0 58 58">
  <defs>
    <filter id="settings-icon-a" width="220.7%" height="220.7%" x="-60.3%" y="-60.3%" filterUnits="objectBoundingBox">
      <feOffset dy="2" in="SourceAlpha" result="shadowOffsetOuter1"/>
      <feGaussianBlur in="shadowOffsetOuter1" result="shadowBlurOuter1" stdDeviation="8"/>
      <feColorMatrix in="shadowBlurOuter1" result="shadowMatrixOuter1" values="0 0 0 0 0   0 0 0 0 0   0 0 0 0 0  0 0 0 0.1 0"/>
      <feMerge>
        <feMergeNode in="shadowMatrixOuter1"/>
        <feMergeNode in="SourceGraphic"/>
      </feMerge>
    </filter>
  </defs>
  <g fill="none" fill-rule="evenodd" filter="url(#settings-icon-a)">
    <rect width="58" height="58" fill="#666" rx="8"/>
    <g transform="rotate(45 9.343 48.935)">
      <path fill="#333" d="M7.2316727,30.7349018 L11.1762215,30.7349018 C12.2654785,30.7349018 13.1484958,31.594932 13.1484958,32.6558331 C13.1484958,33.7167342 12.2654785,34.5767645 11.1762215,34.5767645 L7.2316727,34.5767645 C6.14241564,34.5767645 5.25939833,33.7167342 5.25939833,32.6558331 C5.25939833,31.594932 6.14241564,30.7349018 7.2316727,30.7349018 Z"/>
      <path fill="#FFF" d="M7.2316727,31.706893 C6.69357972,31.706893 6.25736916,32.131748 6.25736916,32.6558331 C6.25736916,33.1799183 6.69357972,33.6047732 7.2316727,33.6047732 L11.1762215,33.6047732 C11.7143144,33.6047732 12.150525,33.1799183 12.150525,32.6558331 C12.150525,32.131748 11.7143144,31.706893 11.1762215,31.706893 L7.2316727,31.706893 Z"/>
      <path fill="#333" d="M14.9623308,8.81003153 L14.9623308,29.4963532 C14.9623308,31.1560601 13.561571,32.5015183 11.8336462,32.5015183 L6.57424791,32.5015183 C4.84632313,32.5015183 3.44556333,31.1560601 3.44556333,29.4963532 L3.44556333,8.81003153 L14.9623308,8.81003153 Z"/>
      <path fill="#FFF" d="M4.44353416,9.7686028 L4.44353416,29.4963532 C4.44353416,30.6266558 5.3974872,31.542947 6.57424791,31.542947 L11.8336462,31.542947 C13.010407,31.542947 13.96436,30.6266558 13.96436,29.4963532 C13.96436,25.6658547 13.96436,22.7929809 13.96436,20.8777317 C13.96436,18.4090364 13.96436,14.7059934 13.96436,9.7686028 L4.44353416,9.7686028 Z"/>
      <path fill="#F5885E" d="M4.44353416,9.7686028 L4.44353416,14.8361562 L13.96436,23.5814055 C13.96436,22.2810519 13.96436,21.3798273 13.96436,20.8777317 C13.96436,18.4090364 13.96436,14.7059934 13.96436,9.7686028 L4.44353416,9.7686028 Z"/>
      <polygon fill="#333" points="7.232 2.561 11.176 2.561 11.176 7.684 7.232 7.684"/>
      <polygon fill="#FFF" points="8.23 3.533 8.23 6.712 10.178 6.712 10.178 3.533"/>
      <path fill="#333" d="M1.97227437,6.40310454 L16.4356198,6.40310454 C17.5248768,6.40310454 18.4078942,7.2631348 18.4078942,8.3240359 C18.4078942,9.38493699 17.5248768,10.2449673 16.4356198,10.2449673 L1.97227437,10.2449673 C0.883017315,10.2449673 1.33395517e-16,9.38493699 0,8.3240359 C-1.33395517e-16,7.2631348 0.883017315,6.40310454 1.97227437,6.40310454 Z"/>
      <path fill="#FFF" d="M1.97227437,7.3750958 C1.43418139,7.3750958 0.997970833,7.79995075 0.997970833,8.3240359 C0.997970833,8.84812104 1.43418139,9.27297599 1.97227437,9.27297599 L16.4356198,9.27297599 C16.9737128,9.27297599 17.4099233,8.84812104 17.4099233,8.3240359 C17.4099233,7.79995075 16.9737128,7.3750958 16.4356198,7.3750958 L1.97227437,7.3750958 Z"/>
      <path fill="#333" d="M3.94454875,0 L14.4633454,0 C15.5526025,-1.9488437e-16 16.4356198,0.860030265 16.4356198,1.92093136 C16.4356198,2.98183246 15.5526025,3.84186272 14.4633454,3.84186272 L3.94454875,3.84186272 C2.85529169,3.84186272 1.97227437,2.98183246 1.97227437,1.92093136 C1.97227437,0.860030265 2.85529169,1.9488437e-16 3.94454875,0 Z"/>
      <path fill="#FFF" d="M3.94454875,0.971991268 C3.40645576,0.971991268 2.97024521,1.39684622 2.97024521,1.92093136 C2.97024521,2.4450165 3.40645576,2.86987145 3.94454875,2.86987145 L14.4633454,2.86987145 C15.0014384,2.86987145 15.4376489,2.4450165 15.4376489,1.92093136 C15.4376489,1.39684622 15.0014384,0.971991268 14.4633454,0.971991268 L3.94454875,0.971991268 Z"/>
      <path fill="#333" fill-rule="nonzero" d="M8.70496166 33.936454L8.70496166 42.9236395C8.70496166 43.1920475 8.92836504 43.4096352 9.20394708 43.4096352 9.47952911 43.4096352 9.70293249 43.1920475 9.70293249 42.9236395L9.70293249 33.936454C9.70293249 33.6680461 9.47952911 33.4504584 9.20394708 33.4504584 8.92836504 33.4504584 8.70496166 33.6680461 8.70496166 33.936454zM4.60197354 17.7743779L7.2316727 17.7743779C7.50725474 17.7743779 7.73065812 17.5567902 7.73065812 17.2883822 7.73065812 17.0199743 7.50725474 16.8023866 7.2316727 16.8023866L4.60197354 16.8023866C4.3263915 16.8023866 4.10298812 17.0199743 4.10298812 17.2883822 4.10298812 17.5567902 4.3263915 17.7743779 4.60197354 17.7743779zM4.60197354 21.6162406L7.2316727 21.6162406C7.50725474 21.6162406 7.73065812 21.3986529 7.73065812 21.130245 7.73065812 20.861837 7.50725474 20.6442493 7.2316727 20.6442493L4.60197354 20.6442493C4.3263915 20.6442493 4.10298812 20.861837 4.10298812 21.130245 4.10298812 21.3986529 4.3263915 21.6162406 4.60197354 21.6162406zM4.60197354 25.4581033L7.2316727 25.4581033C7.50725474 25.4581033 7.73065812 25.2405157 7.73065812 24.9721077 7.73065812 24.7036997 7.50725474 24.4861121 7.2316727 24.4861121L4.60197354 24.4861121C4.3263915 24.4861121 4.10298812 24.7036997 4.10298812 24.9721077 4.10298812 25.2405157 4.3263915 25.4581033 4.60197354 25.4581033z"/>
    </g>
  </g>
</svg>
