<svg xmlns="http://www.w3.org/2000/svg" width="30" height="30" viewBox="0 0 30 30"><rect width="30" height="30" fill="none"/><g transform="translate(4.375 0.625)"><path d="M10.474,28.6a.459.459,0,0,1-.329-.136,58.829,58.829,0,0,1-5.054-6.142,37.287,37.287,0,0,1-3.485-5.86A15.1,15.1,0,0,1,0,10.28,10.39,10.39,0,0,1,10.474,0,10.392,10.392,0,0,1,20.949,10.28a15.11,15.11,0,0,1-1.607,6.183,37.228,37.228,0,0,1-3.486,5.86A58.431,58.431,0,0,1,10.8,28.465.461.461,0,0,1,10.474,28.6ZM10.5,5.477a4.564,4.564,0,1,0,4.564,4.564A4.569,4.569,0,0,0,10.5,5.477Z" fill="#fff"/></g></svg>