<svg xmlns="http://www.w3.org/2000/svg" width="23.352" height="22.911" viewBox="0 0 23.352 22.911"><g transform="translate(-0.006 -0.025)"><path d="M11.987,22.911a11.325,11.325,0,0,1-10.1-6.152v3c0,.525-.349.631-.911.631-.509,0-.98-.076-.98-.631V14.43a.981.981,0,0,1,.98-.98H6.309c.555,0,.632.471.632.98,0,.562-.106.91-.632.91H3.319a9.454,9.454,0,0,0,15.358,2.9,9.39,9.39,0,0,0,2.773-6.687h1.894A11.355,11.355,0,0,1,11.987,22.911ZM1.894,11.359H0A11.358,11.358,0,0,1,21.452,6.152v-3c0-.525.35-.631.913-.631.588,0,.98.107.986.627l0,5.329a.982.982,0,0,1-.981.981H17.041c-.555,0-.632-.471-.632-.981,0-.562.106-.91.632-.91H20.03A9.463,9.463,0,0,0,1.894,11.358Z" transform="translate(0.006 0.026)" fill="#ff4500"/></g></svg>