<?xml version="1.0" standalone="no"?><!DOCTYPE svg PUBLIC "-//W3C//DTD SVG 1.1//EN" "http://www.w3.org/Graphics/SVG/1.1/DTD/svg11.dtd"><svg t="1565760691434" class="icon" viewBox="0 0 1024 1024" version="1.1" xmlns="http://www.w3.org/2000/svg" p-id="4501" xmlns:xlink="http://www.w3.org/1999/xlink" width="32" height="32"><defs><style type="text/css"></style></defs><path d="M177.166336 162.972672C236.09344 95.961088 322.128896 53.57056 411.205632 48.0256c83.372032-6.240256 168.79104 19.29728 234.714112 70.78912 80.013312 60.613632 131.109888 157.954048 134.549504 258.37568 4.767744 87.00416-26.036224 174.865408-82.737152 240.82432C786.013184 706.349056 874.3936 794.62912 962.654208 882.98496c-19.217408 19.15904-38.355968 38.395904-57.5744 57.532416-89.176064-89.132032-178.272256-178.323456-267.48928-267.415552-73.694208 53.958656-169.60512 76.17536-259.595264 60.572672-89.0368-14.247936-171.138048-65.779712-223.46752-139.132928-33.068032-45.708288-54.612992-99.743744-61.847552-155.708416C78.848 340.42368 110.348288 236.60544 177.166336 162.972672z m224.637952-73.43104c-14.17216 2.125824-28.460032 3.775488-42.213376 7.888896-87.903232 21.62176-164.002816 85.51424-201.404416 167.849984-21.34528 45.868032-30.646272 97.220608-27.168768 147.68128 5.325824 97.497088 61.908992 190.14656 145.579008 240.226304 86.33344 53.879808 200.470528 59.264 291.59424 14.051328C655.814656 625.7664 720.525312 539.6736 735.92832 443.94496c7.452672-43.762688 5.36576-89.25184-6.580224-132.040704-24.64256-92.59008-96.18944-170.950656-185.961472-204.27776-44.855296-17.329152-93.845504-22.972416-141.58336-18.08384z" fill="#bfbfbf" p-id="4502"></path></svg>