<svg xmlns="http://www.w3.org/2000/svg" width="940" height="300" viewBox="0 0 940 300">
  <defs>
    <linearGradient id="header-bg-a" x1="50%" x2="50%" y1="-26.138%" y2="100%">
      <stop offset="0%" stop-color="#FFECCC"/>
      <stop offset="100%" stop-color="#F4D9A1"/>
    </linearGradient>
  </defs>
  <g fill="none" fill-rule="evenodd">
    <polygon fill="url(#header-bg-a)" points="1 0 942 0 942 300 1 300"/>
    <g fill="#FFF8B7" transform="translate(184.6 182.4)">
      <circle cx="58.8" cy="58.8" r="58.8" opacity=".05"/>
      <circle cx="58.8" cy="58.8" r="44.4" opacity=".148"/>
      <circle cx="58.8" cy="58.8" r="34.8" opacity=".262"/>
      <circle cx="58.8" cy="58.8" r="24"/>
    </g>
    <path fill="#F0C28B" d="M941.997536,299.207734 L1,300 L0.00246405342,269.004071 C67.2648844,260.240211 112.846561,256.150615 136.747494,256.735284 C172.598893,257.612287 208.298359,286.337845 221.96257,283.01761 C235.626781,279.697374 256.848457,270.341559 276.310645,272.789763 C295.772833,275.237967 312.23556,286.337845 348.454541,283.01761 C384.673521,279.697374 400.425592,263.177439 415.383688,264.285841 C430.341783,265.394243 469.521016,265.21838 490.316298,269.004071 C501.65077,271.067463 525.870944,264.161823 548.15159,256.957838 C566.749098,250.944719 583.995312,244.72374 591.268741,243.337267 C607.256064,240.289739 627.946139,236.274963 643.688408,237.866989 C659.430676,239.459016 661.991324,245.769273 696.730178,243.337267 C731.469033,240.905261 757.753524,242.289029 777.367646,245.769273 C796.981768,249.249518 820.374622,234.148404 833.842789,234.148404 C847.310957,234.148404 887.553724,232.396711 896.037493,237.866989 C901.693339,241.513841 916.680842,241.513841 941,237.866989 L941.997536,299.207734 Z"/>
    <path fill="#EEB57E" d="M941.87991,300 L1,300 L1,283.25933 C38.7673802,261.527257 85.1036524,253.240054 140.008817,258.397722 C222.366563,266.134223 240.819641,290.977189 332.205177,283.25933 C423.590712,275.541471 531.371996,256.96536 573.403657,253.661035 C615.435318,250.35671 701.668183,256.190897 734.466209,263.992646 C767.264236,271.794395 826.263436,237.711845 884.96857,242.950295 C924.105327,246.442595 943.075774,250.83438 941.87991,256.12565 L941.87991,300 Z"/>
  </g>
</svg>
