<svg xmlns="http://www.w3.org/2000/svg" xmlns:xlink="http://www.w3.org/1999/xlink" width="46" height="46" viewBox="0 0 46 46">
  <defs>
    <circle id="card-icon-waiting-a" cx="23" cy="23" r="23"/>
  </defs>
  <g fill="none" fill-rule="evenodd">
    <mask id="card-icon-waiting-b" fill="#fff">
      <use xlink:href="#card-icon-waiting-a"/>
    </mask>
    <g mask="url(#card-icon-waiting-b)">
      <g transform="translate(-6 2)">
        <g transform="rotate(-30 21.452 4.48)">
          <path fill="#1EC6C6" fill-rule="nonzero" d="M12.173913 31.5609976L12.173913 36.6630385C12.173913 37.2153232 12.6216283 37.6630385 13.173913 37.6630385 13.7261978 37.6630385 14.173913 37.2153232 14.173913 36.6630385L14.173913 31.74736 12.173913 31.5609976zM12.173913 1.85904559L12.173913 9.53019312 14.173913 9.51372828 14.173913 1.85904559C14.173913 1.30676084 13.7261978.859045589 13.173913.859045589 12.6216283.859045589 12.173913 1.30676084 12.173913 1.85904559z"/>
          <path fill="#1EC6C6" fill-rule="nonzero" d="M6.08351152,38.5217391 L18.1338798,38.5217391 C18.6122248,38.5217391 19,38.0740239 19,37.5217391 C19,36.9694544 18.6122248,36.5217391 18.1338798,36.5217391 L6.08351152,36.5217391 C5.60516653,36.5217391 5.2173913,36.9694544 5.2173913,37.5217391 C5.2173913,38.0740239 5.60516653,38.5217391 6.08351152,38.5217391 Z"/>
          <path d="M12.9684103,8.43248981 L12.9684103,8.43248981 L12.9684103,8.43248981 C18.0746829,9.15712065 21.8695652,13.5285555 21.8695652,18.685988 L21.8695652,32.3043478 L4.47826087,32.3043478 L4.47826087,18.2792538 C4.47826087,13.3469836 8.0898392,9.15832243 12.9684103,8.43248981 Z"/>
          <path fill="#1EC6C6" fill-rule="nonzero" d="M6.47826087,18.2792538 L6.47826087,30.3043478 L15.0413897,30.3043478 L16.617599,25.2879039 L19.8695652,21.6562825 L19.8695652,18.685988 C19.8695652,14.622301 16.9496986,11.1633781 12.9759389,10.4586882 C9.22356035,11.1563208 6.47826087,14.4351644 6.47826087,18.2792538 Z M12.9684103,8.43248981 C18.0746829,9.15712065 21.8695652,13.5285555 21.8695652,18.685988 L21.8695652,21.0478291 L17.6802195,24.7467076 L15.1827365,32.3043478 L4.47826087,32.3043478 L4.47826087,18.2792538 C4.47826087,13.3469836 8.0898392,9.15832243 12.9684103,8.43248981 Z"/>
          <path fill="#1EC6C6" fill-rule="nonzero" d="M5.59887026 20.2608696L10.5652174 20.2608696C11.1175021 20.2608696 11.5652174 19.8131543 11.5652174 19.2608696 11.5652174 18.7085848 11.1175021 18.2608696 10.5652174 18.2608696L5.59887026 18.2608696C5.04658551 18.2608696 4.59887026 18.7085848 4.59887026 19.2608696 4.59887026 19.8131543 5.04658551 20.2608696 5.59887026 20.2608696zM5.68799369 25.4782609L10.5652174 25.4782609C11.1175021 25.4782609 11.5652174 25.0305456 11.5652174 24.4782609 11.5652174 23.9259761 11.1175021 23.4782609 10.5652174 23.4782609L5.68799369 23.4782609C5.13570894 23.4782609 4.68799369 23.9259761 4.68799369 24.4782609 4.68799369 25.0305456 5.13570894 25.4782609 5.68799369 25.4782609zM.607260726 32.4347826L15.3927393 32.4347826C15.7281201 32.4347826 16 31.9870674 16 31.4347826 16 30.8824979 15.7281201 30.4347826 15.3927393 30.4347826L.607260726 30.4347826C.271879888 30.4347826 2.66453526e-14 30.8824979 2.66453526e-14 31.4347826 2.66453526e-14 31.9870674.271879888 32.4347826.607260726 32.4347826z"/>
        </g>
        <g transform="translate(27 14)">
          <circle cx="11" cy="11" r="11"/>
          <path fill="#1EC6C6" fill-rule="nonzero" d="M11,20 C15.9705627,20 20,15.9705627 20,11 C20,6.02943725 15.9705627,2 11,2 C6.02943725,2 2,6.02943725 2,11 C2,15.9705627 6.02943725,20 11,20 Z M11,22 C4.92486775,22 0,17.0751322 0,11 C0,4.92486775 4.92486775,0 11,0 C17.0751322,0 22,4.92486775 22,11 C22,17.0751322 17.0751322,22 11,22 Z"/>
        </g>
      </g>
    </g>
  </g>
</svg>
