<svg xmlns="http://www.w3.org/2000/svg" xmlns:xlink="http://www.w3.org/1999/xlink" width="46" height="46" viewBox="0 0 46 46">
  <defs>
    <circle id="card-icon-overdue-a" cx="23" cy="23" r="23"/>
  </defs>
  <g fill="none" fill-rule="evenodd">
    <mask id="card-icon-overdue-b" fill="#fff">
      <use xlink:href="#card-icon-overdue-a"/>
    </mask>
    <g mask="url(#card-icon-overdue-b)">
      <g transform="translate(-6 -1)">
        <g transform="rotate(-30 27.05 5.98)">
          <path fill="#1EC6C6" fill-rule="nonzero" d="M12.173913 31.2125767L12.173913 36.6630385C12.173913 37.2153232 12.6216283 37.6630385 13.173913 37.6630385 13.7261978 37.6630385 14.173913 37.2153232 14.173913 36.6630385L14.173913 31.1346107 12.173913 31.2125767zM12.173913 1.85904559L12.173913 9.8310792 14.173913 9.77942523 14.173913 1.85904559C14.173913 1.30676084 13.7261978.859045589 13.173913.859045589 12.6216283.859045589 12.173913 1.30676084 12.173913 1.85904559z"/>
          <path fill="#1EC6C6" fill-rule="nonzero" d="M6.2173913,38.5217391 L20.1304348,38.5217391 C20.6827195,38.5217391 21.1304348,38.0740239 21.1304348,37.5217391 C21.1304348,36.9694544 20.6827195,36.5217391 20.1304348,36.5217391 L6.2173913,36.5217391 C5.66510655,36.5217391 5.2173913,36.9694544 5.2173913,37.5217391 C5.2173913,38.0740239 5.66510655,38.5217391 6.2173913,38.5217391 Z"/>
          <path d="M12.9684103,8.43248981 L12.9684103,8.43248981 L12.9684103,8.43248981 C18.0746829,9.15712065 21.8695652,13.5285555 21.8695652,18.685988 L21.8695652,32.3043478 L4.47826087,32.3043478 L4.47826087,18.2792538 C4.47826087,13.3469836 8.0898392,9.15832243 12.9684103,8.43248981 Z"/>
          <path fill="#1EC6C6" fill-rule="nonzero" d="M6.47826087,18.2792538 L6.47826087,30.3043478 L19.8695652,30.3043478 L19.8695652,18.685988 C19.8695652,14.622301 16.9496986,11.1633781 12.9759389,10.4586882 C9.22356035,11.1563208 6.47826087,14.4351644 6.47826087,18.2792538 Z M12.9684103,8.43248981 C18.0746829,9.15712065 21.8695652,13.5285555 21.8695652,18.685988 L21.8695652,32.3043478 L4.47826087,32.3043478 L4.47826087,18.2792538 C4.47826087,13.3469836 8.0898392,9.15832243 12.9684103,8.43248981 Z"/>
          <path stroke="#1EC6C6" stroke-linecap="round" stroke-width="2" d="M5.59887026 19.2608696L10.5652174 19.2608696M5.68799369 24.4782609L10.5652174 24.4782609"/>
          <path fill="#1EC6C6" fill-rule="nonzero" d="M1,32.4347826 L25.3478261,32.4347826 C25.9001108,32.4347826 26.3478261,31.9870674 26.3478261,31.4347826 C26.3478261,30.8824979 25.9001108,30.4347826 25.3478261,30.4347826 L1,30.4347826 C0.44771525,30.4347826 9.23705556e-14,30.8824979 9.23705556e-14,31.4347826 C9.23705556e-14,31.9870674 0.44771525,32.4347826 1,32.4347826 Z"/>
        </g>
        <g transform="translate(27 17)">
          <circle cx="11" cy="11" r="11" fill="#FF4500"/>
          <g stroke="#FFF" stroke-width="1.5" transform="translate(7 7)">
            <path d="M0.5,8.5 L9,0"/>
            <path d="M0.5,8.5 L9,0" transform="matrix(-1 0 0 1 9 0)"/>
          </g>
        </g>
      </g>
    </g>
  </g>
</svg>
