<svg xmlns="http://www.w3.org/2000/svg" width="46" height="46" viewBox="0 0 46 46">
  <g fill="none" fill-rule="evenodd" transform="translate(-6 -1)">
    <g transform="rotate(-30 27.05 5.98)">
      <path fill="#1EC6C6" fill-rule="nonzero" d="M12.173913 31.3478325L12.173913 36.6630385C12.173913 37.2153232 12.6216283 37.6630385 13.173913 37.6630385 13.7261978 37.6630385 14.173913 37.2153232 14.173913 36.6630385L14.173913 31.6814534 12.173913 31.3478325zM12.173913 1.85904559L12.173913 9.45008749 14.173913 9.50842889 14.173913 1.85904559C14.173913 1.30676084 13.7261978.859045589 13.173913.859045589 12.6216283.859045589 12.173913 1.30676084 12.173913 1.85904559z"/>
      <path stroke="#1EC6C6" stroke-linecap="round" stroke-width="2" d="M6.2173913,37.5217391 L20.1304348,37.5217391"/>
      <path d="M12.9684103,8.43248981 L12.9684103,8.43248981 L12.9684103,8.43248981 C18.0746829,9.15712065 21.8695652,13.5285555 21.8695652,18.685988 L21.8695652,32.3043478 L4.47826087,32.3043478 L4.47826087,18.2792538 C4.47826087,13.3469836 8.0898392,9.15832243 12.9684103,8.43248981 Z"/>
      <path fill="#1EC6C6" fill-rule="nonzero" d="M6.47826087,18.2792538 L6.47826087,30.3043478 L19.8695652,30.3043478 L19.8695652,18.685988 C19.8695652,14.622301 16.9496986,11.1633781 12.9759389,10.4586882 C9.22356035,11.1563208 6.47826087,14.4351644 6.47826087,18.2792538 Z M12.9684103,8.43248981 C18.0746829,9.15712065 21.8695652,13.5285555 21.8695652,18.685988 L21.8695652,32.3043478 L4.47826087,32.3043478 L4.47826087,18.2792538 C4.47826087,13.3469836 8.0898392,9.15832243 12.9684103,8.43248981 Z"/>
      <path fill="#1EC6C6" fill-rule="nonzero" d="M5.59887026 20.2608696L10.5652174 20.2608696C11.1175021 20.2608696 11.5652174 19.8131543 11.5652174 19.2608696 11.5652174 18.7085848 11.1175021 18.2608696 10.5652174 18.2608696L5.59887026 18.2608696C5.04658551 18.2608696 4.59887026 18.7085848 4.59887026 19.2608696 4.59887026 19.8131543 5.04658551 20.2608696 5.59887026 20.2608696zM5.68799369 25.4782609L10.5652174 25.4782609C11.1175021 25.4782609 11.5652174 25.0305456 11.5652174 24.4782609 11.5652174 23.9259761 11.1175021 23.4782609 10.5652174 23.4782609L5.68799369 23.4782609C5.13570894 23.4782609 4.68799369 23.9259761 4.68799369 24.4782609 4.68799369 25.0305456 5.13570894 25.4782609 5.68799369 25.4782609zM1 32.4347826L25.3478261 32.4347826C25.9001108 32.4347826 26.3478261 31.9870674 26.3478261 31.4347826 26.3478261 30.8824979 25.9001108 30.4347826 25.3478261 30.4347826L1 30.4347826C.44771525 30.4347826 2.57571742e-14 30.8824979 2.57571742e-14 31.4347826 2.57571742e-14 31.9870674.44771525 32.4347826 1 32.4347826z"/>
    </g>
    <g transform="translate(27 17)">
      <circle cx="11" cy="11" r="11" fill="#1EC6C6"/>
      <polyline stroke="#FFF" stroke-width="1.5" points="4.5 11.5 8 15 16 7"/>
    </g>
  </g>
</svg>
